<?xml version="1.0" encoding="utf-8"?>
<!-- Generator: Adobe Illustrator 23.0.2, SVG Export Plug-In . SVG Version: 6.00 Build 0)  -->
<svg version="1.1" id="Layer_1" xmlns="http://www.w3.org/2000/svg" xmlns:xlink="http://www.w3.org/1999/xlink" x="0px" y="0px"
	 width="788.3px" height="283.5px" viewBox="0 0 788.3 283.5" enable-background="new 0 0 788.3 283.5" xml:space="preserve">
<g>
	<path fill="#BC955C" d="M323.4,265.9c-0.6-0.6-0.9-1.4-0.9-2.4v-37.7c0-0.9,0.3-1.7,0.8-2.3c0.6-0.6,1.3-0.8,2.3-0.8h14.9
		c4.6,0,8.2,1.1,10.8,3.4c2.6,2.3,3.8,5.5,3.8,9.7c0,4.1-1.3,7.3-3.8,9.7c-2.6,2.3-6.2,3.5-10.8,3.5h-11.7v14.6c0,1-0.3,1.8-0.8,2.4
		c-0.6,0.6-1.4,0.9-2.4,0.9C324.8,266.7,324,266.5,323.4,265.9z M340,243.8c6.1,0,9.2-2.7,9.2-8c0-5.3-3.1-7.9-9.2-7.9h-11v15.9H340
		z"/>
	<path fill="#BC955C" d="M396.1,264.2c0,0.7-0.3,1.4-0.9,1.9c-0.6,0.5-1.3,0.8-2.1,0.8c-1.2,0-2.1-0.5-2.8-1.5l-8.3-12.9
		c-1-1.5-2-2.5-3-3.1c-1.1-0.6-2.5-0.9-4.2-0.9h-7v15.1c0,1-0.3,1.8-0.8,2.4c-0.6,0.6-1.3,0.9-2.3,0.9c-1,0-1.7-0.3-2.3-0.9
		c-0.6-0.6-0.9-1.4-0.9-2.4v-37.7c0-0.9,0.3-1.7,0.8-2.3c0.6-0.6,1.3-0.8,2.3-0.8H380c4.8,0,8.5,1.1,11.1,3.2
		c2.5,2.1,3.8,5.3,3.8,9.4c0,3.4-1,6.2-2.9,8.3c-1.9,2.1-4.7,3.5-8.3,4.1c1.1,0.3,2,0.8,2.9,1.5s1.7,1.8,2.5,3.1l6.4,10
		C395.9,263,396.1,263.6,396.1,264.2z M379.3,243.3c3.2,0,5.6-0.6,7.2-1.9c1.5-1.3,2.3-3.2,2.3-5.9s-0.8-4.6-2.3-5.8
		c-1.5-1.2-3.9-1.8-7.2-1.8h-11.6v15.4H379.3z"/>
	<path fill="#BC955C" d="M406.9,262.4c-3-3-4.5-7.5-4.5-13.3v-23.4c0-1,0.3-1.8,0.9-2.4c0.6-0.6,1.3-0.9,2.3-0.9s1.7,0.3,2.3,0.9
		c0.6,0.6,0.9,1.4,0.9,2.4v23.8c0,4,1,7,2.9,9.1c1.9,2.1,4.8,3.1,8.6,3.1c3.8,0,6.6-1,8.5-3.1c1.9-2.1,2.9-5.1,2.9-9.1v-23.8
		c0-0.9,0.3-1.7,0.9-2.3c0.6-0.6,1.3-0.9,2.3-0.9c0.9,0,1.7,0.3,2.3,0.9c0.6,0.6,0.9,1.4,0.9,2.4v23.4c0,5.8-1.5,10.3-4.6,13.3
		c-3,3-7.4,4.6-13.2,4.6C414.3,266.9,409.9,265.4,406.9,262.4z"/>
	<path fill="#BC955C" d="M445.7,251.8c-0.5-0.4-0.7-1-0.7-1.8c0-0.8,0.2-1.4,0.7-1.9c0.5-0.5,1.2-0.7,2.2-0.7h13.2
		c0.9,0,1.7,0.2,2.2,0.7c0.5,0.5,0.7,1.1,0.7,1.9c0,0.8-0.2,1.4-0.7,1.8c-0.5,0.4-1.2,0.7-2.2,0.7h-13.2
		C446.9,252.4,446.2,252.2,445.7,251.8z"/>
	<path fill="#BC955C" d="M512.4,223.4c0.6,0.6,0.9,1.4,0.9,2.3v38c0,1-0.3,1.7-0.8,2.2c-0.5,0.5-1.2,0.8-2.1,0.8
		c-0.9,0-1.5-0.3-2-0.8s-0.7-1.3-0.7-2.2v-28.8L495.4,258c-0.8,1.4-1.8,2.2-3,2.2c-1.2,0-2.3-0.7-3-2.2l-12.2-22.9v28.6
		c0,1-0.2,1.7-0.7,2.2s-1.2,0.8-2.1,0.8c-0.9,0-1.6-0.3-2.1-0.8s-0.8-1.3-0.8-2.2v-38c0-0.9,0.3-1.7,0.9-2.3
		c0.6-0.6,1.3-0.9,2.2-0.9c1.3,0,2.3,0.7,3.1,2.2l14.8,28.3l14.7-28.3c0.8-1.5,1.8-2.2,3-2.2C511,222.5,511.8,222.8,512.4,223.4z"/>
	<path fill="#BC955C" d="M557,223.4c0.6,0.6,0.8,1.4,0.8,2.3v37.8c0,1-0.3,1.7-0.9,2.3c-0.6,0.6-1.3,0.9-2.2,0.9
		c-1.1,0-1.9-0.4-2.5-1.2l-24.3-32v30c0,1-0.3,1.7-0.8,2.3c-0.6,0.6-1.3,0.9-2.2,0.9s-1.6-0.3-2.2-0.9c-0.5-0.6-0.8-1.4-0.8-2.4
		v-37.8c0-0.9,0.3-1.7,0.9-2.3c0.6-0.6,1.3-0.9,2.2-0.9c1.1,0,1.9,0.4,2.5,1.2l24.3,32.1v-30.1c0-0.9,0.3-1.7,0.8-2.3
		c0.5-0.6,1.3-0.9,2.2-0.9C555.7,222.5,556.4,222.8,557,223.4z"/>
	<path fill="#BC955C" d="M602.7,223.4c0.6,0.6,0.9,1.4,0.9,2.3v37.8c0,1-0.3,1.7-0.9,2.3c-0.6,0.6-1.3,0.9-2.3,0.9
		c-1,0-1.7-0.3-2.3-0.9c-0.6-0.6-0.9-1.4-0.9-2.4v-16.7h-24.4v16.7c0,1-0.3,1.7-0.9,2.3c-0.6,0.6-1.3,0.9-2.3,0.9
		c-1,0-1.7-0.3-2.3-0.9c-0.6-0.6-0.9-1.4-0.9-2.4v-37.8c0-0.9,0.3-1.7,0.9-2.3c0.6-0.6,1.3-0.9,2.3-0.9c0.9,0,1.7,0.3,2.3,0.9
		c0.6,0.6,0.9,1.4,0.9,2.3v16h24.4v-16c0-0.9,0.3-1.7,0.9-2.3c0.6-0.6,1.3-0.9,2.3-0.9C601.3,222.5,602.1,222.8,602.7,223.4z"/>
	<path fill="#BC955C" d="M620.3,264.2c-3.1-1.8-5.5-4.4-7.1-7.7c-1.7-3.4-2.5-7.3-2.5-11.9c0-4.5,0.8-8.5,2.5-11.9
		c1.7-3.4,4-5.9,7.1-7.7s6.7-2.7,10.9-2.7c2.7,0,5.3,0.4,7.7,1.3c2.4,0.8,4.6,2.1,6.4,3.7c0.8,0.6,1.2,1.4,1.2,2.5
		c0,0.7-0.2,1.4-0.6,1.9s-0.9,0.8-1.5,0.8c-0.7,0-1.4-0.3-2-0.8c-2-1.5-3.8-2.5-5.4-3.1c-1.6-0.6-3.5-0.9-5.5-0.9
		c-4.5,0-8,1.5-10.5,4.4c-2.4,2.9-3.7,7.1-3.7,12.6c0,5.5,1.2,9.8,3.7,12.7c2.4,2.9,5.9,4.4,10.5,4.4c2,0,3.8-0.3,5.4-0.9
		c1.6-0.6,3.5-1.7,5.5-3.1c0.8-0.5,1.5-0.8,2-0.8c0.6,0,1.1,0.3,1.5,0.8c0.4,0.5,0.6,1.1,0.6,1.9c0,1-0.4,1.9-1.2,2.5
		c-1.8,1.6-3.9,2.8-6.4,3.7c-2.4,0.8-5,1.3-7.7,1.3C627,266.9,623.4,266,620.3,264.2z"/>
</g>
<path fill="#BC955C" d="M316.4,190.8c0-2.2,1.8-4,4-4h464c2.2,0,4,1.8,4,4c0,2.2-1.8,4-4,4h-464C318.1,194.8,316.4,193,316.4,190.8"
	/>
<path fill="#5F4776" d="M421.9,27.3c1.7,1.8,2.5,4.1,2.5,6.9V147c0,2.8-0.9,5.1-2.6,6.9c-1.7,1.8-3.9,2.7-6.7,2.7
	c-3.2,0-5.7-1.2-7.4-3.7l-72.4-95.5V147c0,2.8-0.8,5.1-2.5,6.9c-1.7,1.8-3.8,2.7-6.6,2.7c-2.7,0-4.9-0.9-6.5-2.6
	c-1.6-1.7-2.4-4.1-2.4-7V34.2c0-2.8,0.9-5.1,2.6-6.9c1.7-1.8,3.9-2.7,6.7-2.7c3.2,0,5.7,1.2,7.4,3.7l72.4,95.7V34.2
	c0-2.8,0.8-5.1,2.4-6.9c1.6-1.8,3.8-2.7,6.5-2.7C418.1,24.6,420.3,25.5,421.9,27.3"/>
<path fill="#5F4776" d="M457.3,154c-1.7-1.7-2.6-4.1-2.6-7V34.7c0-2.8,0.8-5.1,2.5-6.7c1.7-1.7,4-2.5,6.9-2.5h44.5
	c13.8,0,24.5,3.4,32.1,10.2c7.6,6.8,11.4,16.4,11.4,28.8c0,12.3-3.8,21.9-11.4,28.8c-7.6,6.9-18.3,10.3-32.1,10.3h-34.9V147
	c0,3-0.8,5.3-2.5,7c-1.7,1.7-4,2.6-7.1,2.6C461.3,156.6,459,155.8,457.3,154 M506.6,88.3c18.2,0,27.3-7.9,27.3-23.8
	c0-15.8-9.1-23.6-27.3-23.6h-32.9v47.5H506.6z"/>
<path fill="#5F4776" d="M577.6,153.2c-1.7-1.7-2.5-3.9-2.5-6.7V34.7c0-2.8,0.8-5.1,2.5-6.7c1.7-1.7,4-2.5,6.9-2.5h68
	c2.8,0,5,0.7,6.6,2s2.3,3.3,2.3,5.7c0,2.5-0.8,4.3-2.3,5.6c-1.5,1.3-3.7,1.9-6.6,1.9h-58.7v41h55c2.8,0,5,0.7,6.6,2
	c1.5,1.4,2.3,3.3,2.3,5.7s-0.8,4.4-2.3,5.7c-1.5,1.4-3.7,2-6.6,2h-55v43h58.7c5.9,0,8.9,2.5,8.9,7.6c0,2.5-0.8,4.4-2.3,5.7
	s-3.7,2-6.6,2h-68C581.6,155.7,579.3,154.9,577.6,153.2"/>
<path fill="#5F4776" d="M695.7,143.7c-9-9-13.5-22.2-13.5-39.7V34.2c0-3,0.9-5.3,2.6-7c1.7-1.7,4-2.6,6.8-2.6c2.8,0,5.1,0.9,6.8,2.6
	c1.7,1.7,2.6,4.1,2.6,7v71.1c0,11.9,2.9,21,8.6,27.2c5.7,6.2,14.3,9.2,25.6,9.2c11.2,0,19.7-3.1,25.5-9.2c5.8-6.2,8.7-15.2,8.7-27.2
	V34.2c0-2.8,0.9-5.1,2.6-6.9c1.7-1.8,4-2.7,6.8-2.7c2.8,0,5.1,0.9,6.8,2.6c1.7,1.7,2.6,4.1,2.6,7V104c0,17.4-4.5,30.6-13.6,39.6
	c-9.1,9.1-22.2,13.6-39.4,13.6C717.9,157.2,704.7,152.7,695.7,143.7"/>
<path fill="#5F4776" d="M168.8,73c0-40.3-32.7-73-73-73c-40.3,0-73,32.7-73,73c0,40.3,32.7,73,73,73
	C136.1,146.1,168.8,113.4,168.8,73"/>
<path fill="#BC955C" d="M267.6,61.8c5.5-13.9-1.3-29.6-15.2-35.1c-13.9-5.5-29.6,1.3-35.1,15.2c-5.5,13.9,1.3,29.6,15.2,35.1
	C246.4,82.5,262.2,75.7,267.6,61.8"/>
<path fill="#BC955C" d="M149.9,180.4c8.1,1,34.4,4.1,69.9-17.2c26.3-15.8,43.5-38.8,45.1-52.5c1.6-11.1-6.1-21.3-17.2-22.9
	c-4.7-0.7-8.6,0.2-13,2.6c-13.8,7.2-17.1,32.5-30,51.5c-19,27.9-42.9,29-54.3,29.5c-2.5,0-4.5,2-4.5,4.5
	C145.9,178.3,147.7,180.2,149.9,180.4"/>
<path fill="#5F4776" d="M260.5,145.4c-12,14.8-48.1,47.2-92,47.2c-43.9,0-65.6-22-98.4-35.6c-25.7-10.8-55.3,1.2-66.2,26.9
	c-8,19-3.5,40.1,9.8,54.2c22.4,24.6,67.9,42.3,141.7,17.8c73.8-24.6,109.6-95.2,114.8-104.5c1.4-2.8,0.2-6.1-2.6-7.6
	C265.1,142.5,262.1,143.2,260.5,145.4"/>
</svg>
