<svg xmlns="http://www.w3.org/2000/svg" width="1144.6" height="283.5" viewBox="0 0 1144.6 283.5"><path fill="#BEC4DD" d="M0 0v283.5h837.2c-3.7-1.1-7.3-2.3-10.8-3.8-13.4-5.6-25-13.7-34.7-24.1-9.5-10.2-16.9-22.4-22-36.3-5-13.5-7.5-28.3-7.5-44 0-15.8 2.6-30.7 7.8-44.2 5.3-13.8 12.8-25.9 22.5-36 4.6-4.9 9.8-9.2 15.3-13-3.3 1.4-6.7 3-9.9 4.7-26 13.9-45.1 35.3-55.3 59.2 2.6-31.2 19.2-59.6 47.2-74.5 7.5-4 15.3-6.7 23.3-8.4-7.7-.9-15.6-1.4-23.6-1.4-104.9 0-190.9 78.5-199.5 178.5H6.1V6.1h1132.4v234.2H958.9c-3.4 5.5-7.2 10.6-11.5 15.3-9.7 10.4-21.3 18.5-34.7 24.1-3.5 1.5-7.1 2.7-10.8 3.8h242.7V0H0z"/><path fill="#BEC4DD" d="M872.6 41.8c37.3 6.9 69.3 24.7 91.5 48.4-15.8-34.5-47.6-61-87.8-68.5-40.2-7.4-79.3 6-106.5 32.5 29.2-14.1 65.4-19.4 102.8-12.4z"/><path fill="#5C6DAB" d="M943.9 175.3c0 11.9-1.7 22.8-5.2 32.7-3.5 9.9-8.5 18.3-15 25.3s-14.4 12.4-23.5 16.3c-9.1 3.8-19.3 5.8-30.7 5.8-11.1 0-21.3-1.9-30.4-5.8-9.1-3.8-16.9-9.3-23.5-16.3-6.5-7-11.6-15.4-15.3-25.3-3.7-9.9-5.5-20.8-5.5-32.7 0-11.9 1.9-22.7 5.6-32.5 3.7-9.8 8.9-18.1 15.5-25 6.6-6.9 14.5-12.3 23.6-16.1 9.1-3.8 19-5.8 29.8-5.8 10.9 0 21 1.9 30.1 5.8 9.1 3.8 16.9 9.2 23.5 16.1 6.5 6.9 11.6 15.3 15.3 25 3.9 9.8 5.7 20.6 5.7 32.5zm-43.8 0c0-13.2-2.6-23.7-7.9-31.2-5.3-7.6-12.8-11.4-22.6-11.4s-17.4 3.8-22.7 11.4c-5.4 7.6-8.1 18-8.1 31.2s2.7 23.8 8.1 31.5c5.4 7.8 13 11.7 22.7 11.7 9.8 0 17.3-3.9 22.6-11.7s7.9-18.3 7.9-31.5zM575.7 27.9c8.1 0 15.5.8 22.2 2.4 6.7 1.6 11.9 3.2 15.5 4.8l-8.3 34.3c-3.8-1.7-8-3-12.5-3.9-4.5-.9-8.7-1.3-12.5-1.3-5.2 0-9.5.7-13.1 2.2-3.6 1.4-6.3 3.4-8.3 5.9s-3.5 5.5-4.3 8.9c-.9 3.5-1.3 7.2-1.3 11.2v7.5h53v35.7h-53v115.7h-42.9V91.8c0-19.6 5.5-35.1 16.6-46.6 10.9-11.6 27.2-17.3 48.9-17.3zM108.8 217c6.3 0 11.6-.5 15.7-1.6s7.4-2.5 9.9-4.3c2.5-1.8 4.2-4 5.2-6.5s1.4-5.3 1.4-8.3c0-6.5-3.1-11.9-9.2-16.3-6.1-4.3-16.7-9-31.7-14-6.5-2.3-13.1-4.9-19.6-7.9-6.5-3-12.4-6.7-17.6-11.2s-9.4-10-12.7-16.4-4.9-14.3-4.9-23.5 1.7-17.5 5.2-24.9c3.5-7.4 8.4-13.7 14.7-18.9 6.3-5.2 14-9.2 23-11.9 9-2.8 19.2-4.2 30.5-4.2 13.4 0 25 1.4 34.8 4.3 9.8 2.9 17.8 6 24.2 9.5l-13 35.4c-5.6-2.9-11.8-5.4-18.6-7.6-6.8-2.2-15-3.3-24.6-3.3-10.8 0-18.5 1.5-23.2 4.5-4.7 3-7.1 7.5-7.1 13.7 0 3.6.9 6.7 2.6 9.2 1.7 2.5 4.2 4.8 7.3 6.8 3.2 2 6.8 3.8 10.9 5.5 4.1 1.6 8.7 3.3 13.7 5 10.4 3.8 19.4 7.6 27.1 11.4 7.7 3.7 14.1 8.1 19.1 13.1 5.1 5 8.9 10.8 11.4 17.6 2.5 6.7 3.7 14.9 3.7 24.5 0 18.6-6.5 33.1-19.6 43.3-13.1 10.3-32.7 15.4-59 15.4-8.8 0-16.8-.5-23.9-1.6-7.1-1.1-13.4-2.4-18.9-3.9s-10.2-3.2-14.1-4.9c-3.9-1.7-7.2-3.4-9.9-4.9l12.7-35.7c5.9 3.3 13.3 6.2 22 8.8 9.2 2.5 19.9 3.8 32.5 3.8zM479.9 137.9c-3.8-1-8.3-2-13.5-3-5.2-1.1-10.8-1.6-16.7-1.6-2.7 0-5.9.2-9.6.7-3.7.5-6.6 1-8.5 1.6v115.7h-42.9V107.9c7.7-2.7 16.7-5.2 27.2-7.6s22.1-3.6 35-3.6c2.3 0 5.1.1 8.4.4 3.3.3 6.5.7 9.8 1.2 3.3.5 6.5 1.1 9.8 1.7 3.3.7 6 1.5 8.3 2.4l-7.3 35.5zM348.4 246.1c-7.3 2.1-16.7 4.1-28.2 5.9-11.5 1.8-23.6 2.7-36.3 2.7-12.9 0-23.6-1.7-32.1-5.2s-15.3-8.3-20.3-14.5-8.5-13.7-10.7-22.3c-2.1-8.6-3.2-18.1-3.2-28.5V99.9h42.9V179c0 13.8 1.8 23.8 5.5 29.9 3.6 6.1 10.5 9.2 20.4 9.2 3.1 0 6.3-.1 9.8-.4 3.5-.3 6.5-.6 9.2-1V99.9h42.9l.1 146.2zM1102.5 251.7h-35.6l-1.6-2.9c-9-15.9-18.8-31.9-29.2-47.4-7.4-11-15.3-21.8-23.4-32v82.3h-42.6V99.5h33.8l1.7 1.6c4.6 4.6 9.7 10.2 15.2 16.8 5.5 6.6 11.1 13.7 16.7 21 5.6 7.4 11.3 15.2 16.9 23.2l5.4 7.8V99.5h42.8v152.2h-.1z"/></svg>