<?xml version="1.0" standalone="no"?>
<!DOCTYPE svg PUBLIC "-//W3C//DTD SVG 20010904//EN"
 "http://www.w3.org/TR/2001/REC-SVG-20010904/DTD/svg10.dtd">
<svg version="1.0" xmlns="http://www.w3.org/2000/svg"
 width="785.000000pt" height="785.000000pt" viewBox="0 0 785.000000 785.000000"
 preserveAspectRatio="xMidYMid meet">
<metadata>
Created by potrace 1.11, written by Peter Selinger 2001-2013
</metadata>
<g transform="translate(0.000000,785.000000) scale(0.100000,-0.100000)"
fill="#000000" stroke="none">
<path d="M4681 6865 c-7 -8 -126 -213 -181 -310 -9 -16 -126 -219 -260 -450
-133 -231 -252 -437 -264 -458 -11 -21 -25 -46 -31 -55 -24 -40 -174 -300
-193 -332 -10 -19 -43 -75 -71 -124 l-51 -88 23 -42 c13 -22 82 -142 154 -266
149 -259 384 -666 401 -695 6 -11 38 -66 72 -122 33 -56 60 -105 60 -108 0 -3
8 -18 19 -33 10 -15 88 -147 172 -294 l153 -268 1057 0 1056 0 11 23 c15 29
52 93 78 137 12 19 30 51 41 70 10 19 37 67 60 105 123 208 293 506 293 512 0
3 6 14 14 22 7 9 27 41 43 71 26 49 51 91 90 155 7 11 24 43 39 70 14 28 31
57 38 65 6 8 16 24 22 35 19 35 285 499 305 531 l18 30 -129 224 c-72 123
-130 225 -130 228 0 2 -8 16 -18 30 -11 15 -32 52 -49 82 -28 51 -225 392
-272 470 -11 19 -24 42 -28 50 -4 8 -33 59 -65 113 -32 54 -58 103 -58 108 0
5 -4 9 -8 9 -4 0 -13 12 -19 28 -7 15 -27 52 -45 83 -18 30 -77 133 -132 227
-62 109 -104 172 -115 173 -9 0 -483 1 -1054 2 -683 1 -1041 -1 -1046 -8z"/>
<path d="M1051 4606 c-5 -6 -34 -56 -66 -111 -169 -294 -406 -704 -581 -1005
-59 -102 -120 -209 -137 -238 -16 -30 -56 -99 -88 -154 -32 -55 -59 -101 -59
-103 0 -3 -25 -46 -57 -97 -31 -51 -56 -98 -56 -103 0 -11 102 -193 272 -483
55 -95 101 -175 101 -178 0 -3 15 -28 33 -57 18 -29 47 -77 64 -107 16 -30 52
-92 79 -138 27 -46 63 -107 79 -136 39 -68 195 -339 216 -374 9 -15 27 -47 41
-72 14 -25 57 -99 95 -165 l70 -120 1055 0 1056 0 53 93 c30 51 59 101 64 110
6 10 37 65 69 122 32 58 66 113 74 123 8 9 11 17 7 17 -4 0 -1 8 7 18 13 14
51 79 198 337 80 139 287 496 301 520 10 17 22 37 26 45 4 8 20 38 36 65 17
28 72 124 124 214 l94 163 -137 237 c-75 130 -147 254 -159 276 -13 22 -46 81
-75 130 -29 50 -62 106 -72 125 -11 19 -41 71 -67 115 -25 44 -50 88 -56 97
-95 164 -141 245 -143 256 -2 6 -8 12 -13 12 -5 0 -9 5 -9 11 0 6 -31 63 -68
127 -38 64 -111 190 -162 278 l-93 162 -1053 -1 c-764 0 -1056 -3 -1063 -11z"/>
</g>
</svg>
