<svg id="Layer_1" xmlns="http://www.w3.org/2000/svg" viewBox="0 0 966.2 283.5"><style>.st0{fill:#c41c1c}.st1{fill:#263684}.st2{fill:#1e1e1c}</style><path class="st0" d="M208.7 202.8h-53l-13.9-40.2H68.2l-13.9 40.2H2.7L76.1 3.9h59l73.6 198.9zm-79.2-76.7L105 54.8l-24.5 71.3h49zM395.6 202.8H228.5v-37.3l99.1-123.2h-94.3V3.9h157v37.9l-99.1 122.5h104.4v38.5zM591.5 42.3h-62.1v160.4H478V42.3h-62.1V3.9h175.5v38.4zM769.5 202.8H625.6V3.9h143.9v38.5h-92.8v34.3h86.2v38.5h-86.2v49.2h92.8v38.4z"/><path class="st1" d="M895.8 206.7c-14.8 0-28.4-2.2-40.9-6.5-12.5-4.4-23.3-10.9-32.3-19.5-9-8.6-16-19.4-20.9-32.3-4.9-12.9-7.4-27.8-7.4-44.8 0-15.8 2.4-30.1 7.1-42.9 4.7-12.8 11.6-23.8 20.6-33 8.6-8.8 19.3-15.6 32.1-20.4C866.9 2.4 880.8 0 896 0c8.4 0 15.9.5 22.6 1.4 6.7.9 12.9 2.2 18.6 3.7 6 1.7 11.4 3.6 16.2 5.7 4.9 2.1 9.1 4 12.8 5.8v48.2h-5.9c-2.5-2.1-5.6-4.7-9.4-7.6-3.8-2.9-8.1-5.8-12.9-8.6-4.9-2.8-10.2-5.2-15.9-7.2-5.7-1.9-11.8-2.9-18.3-2.9-7.2 0-14.1 1.1-20.6 3.4-6.5 2.3-12.5 6-18 11.3-5.3 5.1-9.5 11.8-12.8 20.1-3.3 8.4-4.9 18.5-4.9 30.4 0 12.4 1.8 22.8 5.3 31.2 3.5 8.4 7.9 14.9 13.3 19.7 5.4 4.9 11.5 8.4 18.2 10.5 6.7 2.1 13.3 3.1 19.8 3.1 6.2 0 12.4-.9 18.5-2.8s11.7-4.4 16.9-7.6c4.4-2.6 8.4-5.3 12.2-8.2 3.7-2.9 6.8-5.5 9.2-7.6h5.3v47.6c-5 2.2-9.8 4.3-14.3 6.3s-9.3 3.7-14.3 5.1c-6.5 1.9-12.6 3.3-18.3 4.3-5.7.9-13.5 1.4-23.5 1.4z"/><g><path class="st2" d="M27.8 274.7h-4.3l-3-8.6H7.1l-3 8.6H0L11.2 244h5.4l11.2 30.7zm-8.6-12l-5.4-15.1-5.4 15.1h10.8zM47.8 274.7H29.2v-2.9L42.6 255H29.5v-3.2h18v2.8l-13.5 17h13.8v3.1zM56.4 247.9H52v-4h4.4v4zm-.2 26.8h-3.9v-23h3.9v23zM74.8 274.5c-.7.2-1.5.4-2.4.5-.9.1-1.6.2-2.3.2-2.4 0-4.1-.6-5.4-1.9-1.2-1.3-1.8-3.3-1.8-6.1V255h-2.6v-3.3h2.6v-6.6h3.9v6.6h8v3.3h-8v10.5c0 1.2 0 2.2.1 2.8.1.7.2 1.3.6 1.9.3.5.7 1 1.2 1.2.5.3 1.3.4 2.4.4.6 0 1.3-.1 2-.3.7-.2 1.2-.3 1.5-.5h.2v3.5zM97.7 274.7h-3.9v-13.1c0-1.1-.1-2.1-.2-3-.1-.9-.3-1.7-.7-2.2-.3-.6-.8-1-1.5-1.3-.6-.3-1.5-.4-2.5-.4-1.1 0-2.2.3-3.3.8-1.2.5-2.3 1.2-3.3 2v17.2h-3.9v-32.1h3.9v11.6c1.2-1 2.5-1.8 3.8-2.4 1.3-.6 2.6-.8 4-.8 2.5 0 4.4.8 5.7 2.2 1.3 1.5 2 3.7 2 6.5v15zM118.5 256h-.2c-.6-.1-1.1-.2-1.7-.3-.5-.1-1.2-.1-1.9-.1-1.2 0-2.4.3-3.5.8s-2.2 1.2-3.2 2.1v16.3h-3.9v-23h3.9v3.4c1.5-1.2 2.9-2.1 4.1-2.6 1.2-.5 2.4-.8 3.6-.8.7 0 1.2 0 1.5.1.3 0 .8.1 1.4.2v3.9zM140.8 263.2c0 3.8-1 6.7-2.9 8.9s-4.5 3.3-7.7 3.3c-3.3 0-5.8-1.1-7.8-3.3-1.9-2.2-2.9-5.1-2.9-8.9s1-6.7 2.9-8.9 4.5-3.3 7.8-3.3c3.2 0 5.8 1.1 7.7 3.3 1.9 2.2 2.9 5.2 2.9 8.9zm-4 0c0-3-.6-5.2-1.8-6.6-1.2-1.5-2.8-2.2-4.9-2.2-2.1 0-3.7.7-4.9 2.2-1.2 1.5-1.7 3.7-1.7 6.6 0 2.9.6 5.1 1.8 6.6 1.2 1.5 2.8 2.2 4.9 2.2 2.1 0 3.7-.7 4.9-2.2 1.1-1.4 1.7-3.6 1.7-6.6zM179.4 274.7h-3.9v-13.1c0-1 0-1.9-.1-2.9-.1-.9-.3-1.7-.6-2.2-.3-.6-.8-1-1.4-1.3-.6-.3-1.4-.5-2.6-.5-1.1 0-2.2.3-3.3.8-1.1.5-2.2 1.2-3.3 2.1 0 .3.1.7.1 1.1V274.6h-3.9v-13.1c0-1 0-2-.1-2.9-.1-.9-.3-1.6-.6-2.2-.3-.6-.8-1-1.4-1.3-.6-.3-1.4-.4-2.6-.4-1.1 0-2.1.3-3.2.8s-2.1 1.2-3.2 2v17.2h-3.9v-23h3.9v2.6c1.2-1 2.4-1.8 3.6-2.4 1.2-.6 2.5-.8 3.8-.8 1.6 0 2.9.3 4 1s1.9 1.6 2.4 2.7c1.6-1.3 3-2.3 4.3-2.9 1.3-.6 2.7-.9 4.1-.9 2.5 0 4.4.8 5.6 2.3 1.2 1.5 1.8 3.7 1.8 6.4v15zM205.3 251.7l-13.4 31.5h-4.1l4.3-9.6-9.2-21.9h4.2l7.1 17.1 7.1-17.1h4zM226 273.3c-1.3.6-2.5 1.1-3.7 1.4-1.2.3-2.4.5-3.7.5-1.7 0-3.2-.2-4.6-.7-1.4-.5-2.6-1.2-3.6-2.2-1-1-1.8-2.2-2.3-3.8-.5-1.5-.8-3.3-.8-5.3 0-3.8 1-6.7 3.1-8.9 2.1-2.1 4.8-3.2 8.2-3.2 1.3 0 2.6.2 3.9.6 1.3.4 2.4.8 3.5 1.4v4.3h-.2c-1.2-.9-2.4-1.6-3.7-2.1-1.3-.5-2.5-.7-3.7-.7-2.2 0-3.9.7-5.2 2.2-1.3 1.5-1.9 3.6-1.9 6.5 0 2.8.6 4.9 1.9 6.4 1.2 1.5 3 2.2 5.2 2.2.8 0 1.6-.1 2.4-.3.8-.2 1.5-.5 2.2-.8.6-.3 1.1-.6 1.6-.9.5-.3.9-.6 1.2-.8h.2v4.2zM234.1 247.9h-4.4v-4h4.4v4zm-.2 26.8H230v-23h3.9v23zM259.8 274.7h-3.9v-13.1c0-1.1-.1-2.1-.2-3-.1-.9-.3-1.7-.7-2.2-.3-.6-.8-1-1.5-1.3-.6-.3-1.5-.4-2.5-.4-1.1 0-2.2.3-3.3.8-1.2.5-2.3 1.2-3.3 2v17.2h-3.9v-23h3.9v2.6c1.2-1 2.5-1.8 3.8-2.4 1.3-.6 2.6-.8 4-.8 2.5 0 4.4.8 5.7 2.2 1.3 1.5 2 3.7 2 6.5v14.9zM302.3 247.7h-11v27.1h-4.1v-27.1h-11v-3.6h26v3.6zM324.3 274.7h-3.9v-13.1c0-1.1-.1-2.1-.2-3-.1-.9-.3-1.7-.7-2.2-.3-.6-.8-1-1.5-1.3-.6-.3-1.5-.4-2.5-.4-1.1 0-2.2.3-3.3.8-1.2.5-2.3 1.2-3.3 2v17.2H305v-32.1h3.9v11.6c1.2-1 2.5-1.8 3.8-2.4 1.3-.6 2.6-.8 4-.8 2.5 0 4.4.8 5.7 2.2 1.3 1.5 2 3.7 2 6.5v15zM350 263.6h-17c0 1.4.2 2.6.6 3.7.4 1.1 1 1.9 1.8 2.6.7.7 1.6 1.2 2.5 1.5 1 .3 2.1.5 3.2.5 1.6 0 3.1-.3 4.7-.9 1.6-.6 2.7-1.2 3.4-1.8h.2v4.2c-1.3.5-2.6 1-4 1.4-1.4.4-2.8.6-4.3.6-3.8 0-6.8-1-8.9-3.1-2.1-2.1-3.2-5-3.2-8.8 0-3.8 1-6.8 3.1-9s4.8-3.3 8.1-3.3c3.1 0 5.5.9 7.2 2.7 1.7 1.8 2.5 4.4 2.5 7.7v2zm-3.7-2.9c0-2-.5-3.6-1.5-4.7s-2.5-1.7-4.6-1.7c-2.1 0-3.7.6-5 1.8-1.2 1.2-1.9 2.7-2.1 4.6h13.2zM369.3 256h-.2c-.6-.1-1.1-.2-1.7-.3-.5-.1-1.2-.1-1.9-.1-1.2 0-2.4.3-3.5.8s-2.2 1.2-3.2 2.1v16.3h-3.9v-23h3.9v3.4c1.5-1.2 2.9-2.1 4.1-2.6 1.2-.5 2.4-.8 3.6-.8.7 0 1.2 0 1.5.1.3 0 .8.1 1.4.2v3.9zM389 274.7h-3.9v-2.5c-.3.2-.8.6-1.4 1-.6.4-1.2.8-1.7 1-.6.3-1.4.6-2.2.8-.8.2-1.8.3-2.9.3-2.1 0-3.8-.7-5.3-2.1-1.4-1.4-2.2-3.1-2.2-5.3 0-1.7.4-3.2 1.1-4.2.7-1.1 1.8-1.9 3.2-2.5 1.4-.6 3.1-1 5.1-1.3 2-.2 4.1-.4 6.3-.5v-.6c0-.9-.2-1.6-.5-2.2-.3-.6-.8-1-1.3-1.4-.5-.3-1.2-.5-2-.6-.8-.1-1.6-.2-2.4-.2-1 0-2.2.1-3.4.4s-2.5.7-3.9 1.2h-.2v-3.9c.8-.2 1.8-.4 3.3-.7 1.4-.2 2.8-.4 4.2-.4 1.6 0 3 .1 4.2.4 1.2.3 2.2.7 3.1 1.4.9.6 1.5 1.5 2 2.5s.7 2.2.7 3.7v15.7zm-3.8-5.6v-6.4c-1.2.1-2.6.2-4.2.3s-2.9.3-3.8.6c-1.1.3-2 .8-2.7 1.5-.7.7-1 1.6-1 2.8 0 1.3.4 2.3 1.2 3 .8.7 2 1 3.6 1 1.4 0 2.6-.3 3.7-.8 1.2-.6 2.2-1.3 3.2-2zM415.8 263c0 1.9-.3 3.6-.8 5.1-.5 1.5-1.3 2.9-2.3 3.9-.9 1-2 1.8-3.2 2.4-1.2.6-2.5.8-3.9.8-1.2 0-2.3-.1-3.2-.4-1-.3-2-.7-3-1.2v9.6h-3.9v-31.5h3.9v2.4c1-.9 2.2-1.6 3.5-2.2 1.3-.6 2.7-.9 4.1-.9 2.8 0 4.9 1 6.5 3.1 1.5 2.2 2.3 5.1 2.3 8.9zm-4 .1c0-2.8-.5-4.8-1.4-6.2-.9-1.4-2.4-2.1-4.4-2.1-1.1 0-2.2.2-3.4.7s-2.2 1.1-3.2 1.9v13c1.1.5 2 .8 2.8 1 .8.2 1.7.3 2.7.3 2.2 0 3.8-.7 5.1-2.2 1.2-1.4 1.8-3.6 1.8-6.4zM440.6 251.7l-13.4 31.5H423l4.3-9.6-9.2-21.9h4.2l7.1 17.1 7.1-17.1h4.1zM470.9 246.4h-.2c-.4-.1-1-.3-1.7-.4-.7-.1-1.3-.2-1.8-.2-1.7 0-2.9.4-3.6 1.1-.7.7-1.1 2.1-1.1 4v.8h7v3.3h-6.9v19.8h-3.9V255h-2.6v-3.3h2.6v-.7c0-2.7.7-4.8 2-6.3 1.4-1.5 3.3-2.2 5.9-2.2.9 0 1.6 0 2.3.1.7.1 1.3.2 1.9.3v3.5zM491.9 263.2c0 3.8-1 6.7-2.9 8.9s-4.5 3.3-7.7 3.3c-3.3 0-5.8-1.1-7.8-3.3-1.9-2.2-2.9-5.1-2.9-8.9s1-6.7 2.9-8.9 4.5-3.3 7.8-3.3c3.2 0 5.8 1.1 7.7 3.3 2 2.2 2.9 5.2 2.9 8.9zm-4 0c0-3-.6-5.2-1.8-6.6-1.2-1.5-2.8-2.2-4.9-2.2-2.1 0-3.7.7-4.9 2.2-1.2 1.5-1.7 3.7-1.7 6.6 0 2.9.6 5.1 1.8 6.6 1.2 1.5 2.8 2.2 4.9 2.2 2.1 0 3.7-.7 4.9-2.2 1.1-1.4 1.7-3.6 1.7-6.6zM511.3 256h-.2c-.6-.1-1.1-.2-1.7-.3-.5-.1-1.2-.1-1.9-.1-1.2 0-2.4.3-3.5.8s-2.2 1.2-3.2 2.1v16.3h-3.9v-23h3.9v3.4c1.5-1.2 2.9-2.1 4.1-2.6 1.2-.5 2.4-.8 3.6-.8.7 0 1.2 0 1.5.1.3 0 .8.1 1.4.2v3.9zM551.7 272.5c-.8.3-1.4.6-2.1.9-.6.3-1.4.6-2.4.9-.8.3-1.7.5-2.7.7-1 .2-2.1.3-3.2.3-2.2 0-4.2-.3-6.1-.9-1.8-.6-3.4-1.6-4.8-2.9-1.3-1.3-2.3-3-3.1-5s-1.1-4.4-1.1-7c0-2.5.4-4.8 1.1-6.8.7-2 1.7-3.7 3.1-5.1 1.3-1.3 2.9-2.3 4.7-3.1 1.8-.7 3.9-1.1 6.2-1.1 1.6 0 3.3.2 4.9.6 1.6.4 3.5 1.1 5.5 2.1v4.8h-.3c-1.7-1.4-3.4-2.4-5-3.1-1.7-.6-3.4-1-5.3-1-1.6 0-2.9.3-4.2.8-1.2.5-2.4 1.3-3.3 2.3-.9 1-1.7 2.3-2.2 3.9-.5 1.6-.8 3.4-.8 5.5 0 2.2.3 4 .9 5.6.6 1.6 1.3 2.8 2.3 3.8 1 1 2.1 1.8 3.4 2.3 1.3.5 2.6.7 4.1.7 2 0 3.8-.3 5.5-1 1.7-.7 3.3-1.7 4.8-3h.3v4.8zM575.4 274.7h-3.9v-13.1c0-1.1-.1-2.1-.2-3-.1-.9-.3-1.7-.7-2.2-.3-.6-.8-1-1.5-1.3-.6-.3-1.5-.4-2.5-.4-1.1 0-2.2.3-3.3.8-1.2.5-2.3 1.2-3.3 2v17.2h-3.9v-32.1h3.9v11.6c1.2-1 2.5-1.8 3.8-2.4 1.3-.6 2.6-.8 4-.8 2.5 0 4.4.8 5.7 2.2 1.3 1.5 2 3.7 2 6.5v15zM596.2 256h-.2c-.6-.1-1.1-.2-1.7-.3-.5-.1-1.2-.1-1.9-.1-1.2 0-2.4.3-3.5.8s-2.2 1.2-3.2 2.1v16.3h-3.9v-23h3.9v3.4c1.5-1.2 2.9-2.1 4.1-2.6 1.2-.5 2.4-.8 3.6-.8.7 0 1.2 0 1.5.1.3 0 .8.1 1.4.2v3.9zM618.5 263.2c0 3.8-1 6.7-2.9 8.9s-4.5 3.3-7.7 3.3c-3.3 0-5.8-1.1-7.8-3.3-1.9-2.2-2.9-5.1-2.9-8.9s1-6.7 2.9-8.9 4.5-3.3 7.8-3.3c3.2 0 5.8 1.1 7.7 3.3 1.9 2.2 2.9 5.2 2.9 8.9zm-4 0c0-3-.6-5.2-1.8-6.6-1.2-1.5-2.8-2.2-4.9-2.2-2.1 0-3.7.7-4.9 2.2-1.2 1.5-1.7 3.7-1.7 6.6 0 2.9.6 5.1 1.8 6.6 1.2 1.5 2.8 2.2 4.9 2.2 2.1 0 3.7-.7 4.9-2.2 1.1-1.4 1.7-3.6 1.7-6.6zM642.7 274.7h-3.9v-13.1c0-1.1-.1-2.1-.2-3-.1-.9-.3-1.7-.7-2.2-.3-.6-.8-1-1.5-1.3-.6-.3-1.5-.4-2.5-.4-1.1 0-2.2.3-3.3.8-1.2.5-2.3 1.2-3.3 2v17.2h-3.9v-23h3.9v2.6c1.2-1 2.5-1.8 3.8-2.4 1.3-.6 2.6-.8 4-.8 2.5 0 4.4.8 5.7 2.2 1.3 1.5 2 3.7 2 6.5v14.9zM653.3 247.9H649v-4h4.4v4zm-.2 26.8h-3.9v-23h3.9v23zM676.8 273.3c-1.3.6-2.5 1.1-3.7 1.4-1.2.3-2.4.5-3.7.5-1.7 0-3.2-.2-4.6-.7-1.4-.5-2.6-1.2-3.6-2.2-1-1-1.8-2.2-2.3-3.8-.5-1.5-.8-3.3-.8-5.3 0-3.8 1-6.7 3.1-8.9 2.1-2.1 4.8-3.2 8.2-3.2 1.3 0 2.6.2 3.9.6 1.3.4 2.4.8 3.5 1.4v4.3h-.2c-1.2-.9-2.4-1.6-3.7-2.1-1.3-.5-2.5-.7-3.7-.7-2.2 0-3.9.7-5.2 2.2-1.3 1.5-1.9 3.6-1.9 6.5 0 2.8.6 4.9 1.9 6.4 1.2 1.5 3 2.2 5.2 2.2.8 0 1.6-.1 2.4-.3.8-.2 1.5-.5 2.2-.8.6-.3 1.1-.6 1.6-.9.5-.3.9-.6 1.2-.8h.2v4.2zM714.3 274.7h-19.4V244h4.1v27.1h15.3v3.6zM736.1 274.7h-3.9v-2.6c-1.3 1-2.6 1.8-3.8 2.4-1.2.5-2.5.8-4 .8-2.4 0-4.3-.7-5.6-2.2-1.3-1.5-2-3.6-2-6.5v-14.9h3.9v13.1c0 1.2.1 2.2.2 3 .1.8.3 1.5.7 2.1.4.6.8 1 1.4 1.3.6.3 1.4.4 2.6.4 1 0 2.1-.3 3.3-.8 1.2-.5 2.3-1.2 3.3-2v-17.2h3.9v23.1zM762 274.7h-3.9v-13.1c0-1.1-.1-2.1-.2-3-.1-.9-.4-1.7-.7-2.2-.3-.6-.8-1-1.5-1.3-.6-.3-1.5-.4-2.5-.4-1.1 0-2.2.3-3.3.8-1.2.5-2.3 1.2-3.3 2v17.2h-3.9v-23h3.9v2.6c1.2-1 2.5-1.8 3.8-2.4 1.3-.6 2.6-.8 4-.8 2.5 0 4.4.8 5.7 2.2 1.3 1.5 2 3.7 2 6.5v14.9zM787.1 272.1c0 3.9-.9 6.8-2.7 8.6-1.8 1.8-4.5 2.7-8.2 2.7-1.2 0-2.4-.1-3.6-.3-1.2-.2-2.3-.4-3.4-.7v-4h.2c.6.2 1.6.6 3 .9 1.4.4 2.7.5 4.1.5 1.3 0 2.4-.2 3.3-.5.9-.3 1.5-.8 2-1.3s.8-1.2 1-1.9c.2-.8.3-1.6.3-2.5v-2.1c-1.2.9-2.3 1.6-3.3 2.1s-2.4.7-4.1.7c-2.7 0-4.9-1-6.5-3-1.6-2-2.4-4.8-2.4-8.4 0-2 .3-3.7.8-5.1.6-1.4 1.3-2.7 2.3-3.7.9-1 2-1.7 3.3-2.3 1.3-.5 2.5-.8 3.8-.8 1.3 0 2.4.1 3.3.4.9.3 1.9.7 2.9 1.2l.2-1h3.6v20.5zm-3.9-3.7v-12.6c-1-.5-2-.8-2.9-1-.9-.2-1.8-.3-2.6-.3-2.1 0-3.8.7-5 2.1-1.2 1.4-1.8 3.5-1.8 6.2 0 2.6.5 4.5 1.4 5.9.9 1.3 2.4 2 4.5 2 1.1 0 2.3-.2 3.4-.6 1-.4 2.1-1 3-1.7zM833.8 259.4c0 2.8-.6 5.3-1.8 7.6-1.2 2.3-2.8 4-4.9 5.3-1.4.9-3 1.5-4.7 1.9-1.7.4-4 .6-6.8.6h-7.8v-30.7h7.7c3 0 5.4.2 7.1.6s3.3 1 4.5 1.8c2.1 1.3 3.7 3 4.9 5.2 1.2 2.2 1.8 4.8 1.8 7.7zm-4.3 0c0-2.4-.4-4.4-1.3-6.1-.8-1.6-2.1-2.9-3.8-3.9-1.2-.7-2.5-1.2-3.9-1.4-1.4-.3-3-.4-4.9-.4h-3.8v23.7h3.8c2 0 3.7-.1 5.1-.4 1.5-.3 2.8-.8 4-1.6 1.5-1 2.7-2.3 3.4-3.9 1-1.6 1.4-3.6 1.4-6zM843.2 247.9h-4.4v-4h4.4v4zm-.2 26.8h-3.9v-23h3.9v23zM866.1 268.1c0 2.1-.9 3.8-2.6 5.2-1.7 1.3-4.1 2-7.1 2-1.7 0-3.3-.2-4.7-.6-1.4-.4-2.6-.8-3.6-1.3V269h.2c1.2.9 2.6 1.7 4.1 2.2 1.5.5 2.9.8 4.3.8 1.7 0 3-.3 4-.8s1.4-1.4 1.4-2.6c0-.9-.3-1.6-.8-2.1s-1.5-.9-3-1.2c-.5-.1-1.3-.3-2.2-.4-.9-.2-1.7-.3-2.4-.5-2-.5-3.5-1.3-4.3-2.4-.8-1-1.3-2.3-1.3-3.8 0-.9.2-1.8.6-2.7.4-.8 1-1.6 1.8-2.2.8-.6 1.8-1.2 2.9-1.5 1.2-.4 2.5-.6 4-.6 1.4 0 2.8.2 4.2.5 1.4.3 2.6.7 3.5 1.2v4.1h-.1c-1-.7-2.2-1.3-3.6-1.8s-2.8-.8-4.2-.8c-1.4 0-2.6.3-3.6.8s-1.5 1.4-1.5 2.4c0 .9.3 1.7.9 2.1.6.5 1.5.9 2.8 1.2.7.2 1.5.3 2.4.5.9.2 1.6.3 2.2.5 1.8.4 3.2 1.1 4.2 2.1 1 1.1 1.5 2.4 1.5 4.1zM889.9 263.6h-17c0 1.4.2 2.6.6 3.7.4 1.1 1 1.9 1.8 2.6.7.7 1.6 1.2 2.5 1.5 1 .3 2.1.5 3.2.5 1.6 0 3.1-.3 4.7-.9 1.6-.6 2.7-1.2 3.4-1.8h.2v4.2c-1.3.5-2.6 1-4 1.4-1.4.4-2.8.6-4.3.6-3.8 0-6.8-1-8.9-3.1-2.1-2.1-3.2-5-3.2-8.8 0-3.8 1-6.8 3.1-9s4.8-3.3 8.1-3.3c3.1 0 5.5.9 7.2 2.7 1.7 1.8 2.5 4.4 2.5 7.7v2zm-3.8-2.9c0-2-.5-3.6-1.5-4.7s-2.5-1.7-4.6-1.7c-2.1 0-3.7.6-5 1.8-1.2 1.2-1.9 2.7-2.1 4.6h13.2zM912.6 274.7h-3.9v-2.5c-.3.2-.8.6-1.4 1-.6.4-1.2.8-1.7 1-.6.3-1.4.6-2.2.8-.8.2-1.8.3-2.9.3-2.1 0-3.8-.7-5.3-2.1-1.4-1.4-2.2-3.1-2.2-5.3 0-1.7.4-3.2 1.1-4.2.7-1.1 1.8-1.9 3.2-2.5 1.4-.6 3.1-1 5.1-1.3 2-.2 4.1-.4 6.3-.5v-.6c0-.9-.2-1.6-.5-2.2-.3-.6-.8-1-1.3-1.4-.5-.3-1.2-.5-2-.6-.8-.1-1.6-.2-2.4-.2-1 0-2.2.1-3.4.4-1.3.3-2.5.7-3.9 1.2h-.2v-3.9c.8-.2 1.8-.4 3.3-.7 1.4-.2 2.8-.4 4.2-.4 1.6 0 3 .1 4.2.4 1.2.3 2.2.7 3.1 1.4.9.6 1.5 1.5 2 2.5s.7 2.2.7 3.7v15.7zm-3.8-5.6v-6.4c-1.2.1-2.6.2-4.2.3-1.6.1-2.9.3-3.8.6-1.1.3-2 .8-2.7 1.5-.7.7-1 1.6-1 2.8 0 1.3.4 2.3 1.2 3 .8.7 2 1 3.6 1 1.4 0 2.6-.3 3.7-.8 1.2-.6 2.2-1.3 3.2-2zM935.5 268.1c0 2.1-.9 3.8-2.6 5.2s-4.1 2-7.1 2c-1.7 0-3.3-.2-4.7-.6-1.4-.4-2.6-.8-3.6-1.3V269h.2c1.2.9 2.6 1.7 4.1 2.2 1.5.5 2.9.8 4.3.8 1.7 0 3-.3 4-.8s1.4-1.4 1.4-2.6c0-.9-.3-1.6-.8-2.1s-1.5-.9-3-1.2c-.5-.1-1.3-.3-2.2-.4-.9-.2-1.7-.3-2.4-.5-2-.5-3.5-1.3-4.3-2.4-.8-1-1.3-2.3-1.3-3.8 0-.9.2-1.8.6-2.7.4-.8 1-1.6 1.8-2.2.8-.6 1.7-1.2 2.9-1.5 1.2-.4 2.5-.6 4-.6 1.4 0 2.8.2 4.2.5 1.4.3 2.6.7 3.5 1.2v4.1h-.2c-1-.7-2.2-1.3-3.6-1.8s-2.8-.8-4.2-.8c-1.4 0-2.6.3-3.6.8s-1.5 1.4-1.5 2.4c0 .9.3 1.7.9 2.1.6.5 1.5.9 2.8 1.2.7.2 1.5.3 2.4.5.9.2 1.6.3 2.2.5 1.8.4 3.2 1.1 4.2 2.1 1.1 1.1 1.6 2.4 1.6 4.1zM959.3 263.6h-17c0 1.4.2 2.6.6 3.7.4 1.1 1 1.9 1.8 2.6.7.7 1.6 1.2 2.5 1.5 1 .3 2.1.5 3.2.5 1.6 0 3.1-.3 4.7-.9 1.6-.6 2.7-1.2 3.4-1.8h.2v4.2c-1.3.5-2.6 1-4 1.4-1.4.4-2.8.6-4.3.6-3.8 0-6.8-1-8.9-3.1-2.1-2.1-3.2-5-3.2-8.8 0-3.8 1-6.8 3.1-9s4.8-3.3 8.1-3.3c3.1 0 5.5.9 7.2 2.7 1.7 1.8 2.5 4.4 2.5 7.7v2zm-3.7-2.9c0-2-.5-3.6-1.5-4.7s-2.5-1.7-4.6-1.7c-2.1 0-3.7.6-5 1.8-1.2 1.2-1.9 2.7-2.1 4.6h13.2z"/></g></svg>