<svg xmlns="http://www.w3.org/2000/svg" viewBox="0 0 325.766 212.598"><path fill="#5FA9DD" d="M144.815 120.842c-24.675-3.316-22.785-32.634-22.785-32.634 1.276-23.902 14.054-27.593 19.782-28.046 1.43 11.17 8.575 8.273 8.575 8.273-6.686 0-4.195-7.93-4.195-7.93l1.422-.027C167.42 63.185 166.09 81.8 166.09 81.8c-.406 18.463-16.903 21.976-16.903 21.976-10.05 2.157-15.48-7.573-15.48-7.573 6.967 18.75 30.732 12.457 32.63 11.76 30.115-11.047 22.21-39.808 22.21-39.808-11.268-34.157-49.24-29.256-49.24-29.256-45.13 6.534-42.064 53.494-42.064 53.494 1.29 45.598 46.347 47.09 46.347 47.09 43.926.486 47.776-40.356 47.776-40.356-17.69 26.642-46.55 21.714-46.55 21.714zM45.808 115.848c13.37 0 19.958-13.905 19.958-25.84 0-12.12-6.588-26.204-19.958-26.204-13.724 0-20.144 12.833-20.144 25.312 0 12.47 6.067 26.732 20.144 26.732M0 14.256C0 5.7 5.343 0 12.84 0c7.48 0 12.824 5.7 12.824 14.256V49.19c6.774-5.88 15.517-8.91 24.418-8.91 27.633 0 41.356 25.84 41.356 50.794 0 24.24-16.408 48.3-42.25 48.3-8.733 0-18.712-3.92-23.525-11.76-1.598 6.774-5.705 10.69-12.823 10.69-7.498 0-12.84-5.7-12.84-14.257V14.257zM252.017 70.224c-4.813 0-14.616-7.486-22.988-7.486-4.646 0-8.743 2.137-8.743 7.13 0 11.94 44.562 10.155 44.562 39.388 0 17.115-14.44 30.115-36.544 30.115-14.43 0-35.82-8.19-35.82-19.772 0-3.92 3.922-11.415 11.058-11.415 9.98 0 14.43 8.738 26.556 8.738 7.833 0 10.155-2.498 10.155-7.31 0-11.764-44.554-9.982-44.554-39.386 0-17.823 14.44-29.947 34.752-29.947 12.655 0 32.084 5.884 32.084 18.54 0 5.88-4.46 11.407-10.52 11.407M280.17 64.872h-5.705c-6.95 0-11.224-4.276-11.224-11.227 0-6.42 4.814-11.23 11.225-11.23h5.705v-15.33c0-8.553 5.353-14.256 12.832-14.256 7.48 0 12.823 5.702 12.823 14.255v15.33h7.313c6.597 0 12.31 3.028 12.31 11.23 0 8.02-5.713 11.227-12.31 11.227h-7.313v59.176c0 8.558-5.343 14.262-12.823 14.262s-12.832-5.705-12.832-14.262V64.872z"/><g fill="#5FA9DD"><path d="M17.645 189.395c5.148 0 7.692-5.356 7.692-9.953 0-4.667-2.543-10.09-7.692-10.09-5.29 0-7.754 4.945-7.754 9.745 0 4.81 2.333 10.298 7.755 10.298M0 150.268c0-3.294 2.067-5.493 4.946-5.493s4.945 2.2 4.945 5.493v13.46c2.598-2.27 5.962-3.437 9.397-3.437 10.642 0 15.923 9.954 15.923 19.563 0 9.334-6.314 18.603-16.267 18.603-3.356 0-7.207-1.506-9.052-4.526-.626 2.605-2.198 4.115-4.944 4.115-2.88 0-4.946-2.194-4.946-5.493v-42.284zM62.878 176.082c-.556-4.328-3.294-7.56-7.895-7.56-4.39 0-7.348 3.37-7.824 7.56h15.718zM47.37 182.67c.68 4.865 4.734 7.135 9.335 7.135 5.07 0 8.575-3.98 11.19-3.98 2.12 0 4.044 2.134 4.044 4.258 0 4.252-8.788 8.372-16.136 8.372-11.12 0-18.528-8.1-18.528-19.014 0-10.018 7.277-19.15 17.707-19.15 10.712 0 17.777 9.75 17.777 17.985 0 2.95-1.298 4.394-4.327 4.394H47.37zM92.4 169.348c-5.157 0-7.69 5.365-7.69 9.957 0 5.286 2.533 10.085 7.69 10.085 5.282 0 7.746-4.937 7.746-9.745 0-4.804-2.33-10.297-7.745-10.297m17.637 25.402c0 11.878-7.763 17.848-19.014 17.848-4.053 0-15.587-1.99-15.587-7.418 0-1.846 2.058-4.327 3.983-4.327 3.152 0 6.658 3.096 12.354 3.096 4.804 0 8.372-2.814 8.372-7.826v-2.34h-.133c-2.058 3.03-5.422 4.667-9.953 4.667-10.368 0-15.243-9.122-15.243-18.937 0-9.957 6.323-19.22 16.276-19.22 3.356 0 7.207 1.514 9.052 4.525.618-2.605 2.2-4.116 4.945-4.116 2.88 0 4.945 2.2 4.945 5.49v28.558zM115.53 166.19c0-3.294 2.058-5.484 4.937-5.484s4.946 2.19 4.946 5.484v26.36c0 3.294-2.067 5.494-4.946 5.494s-4.937-2.2-4.937-5.493v-26.36zm10.492-14.898c0 3.096-2.464 5.705-5.555 5.705-2.95 0-5.555-2.676-5.555-5.705 0-2.808 2.605-5.414 5.555-5.414s5.555 2.535 5.555 5.414M130.906 166.19c0-3.29 2.058-5.484 4.937-5.484 2.543 0 4.186 1.37 4.53 3.634 1.925-2.68 4.875-4.05 9.547-4.05 7.754 0 13.52 4.938 13.52 13.314v18.947c0 3.3-2.057 5.494-4.936 5.494-2.89 0-4.946-2.194-4.946-5.493v-17.23c0-4.596-2.888-6.8-6.455-6.8-4.045 0-6.314 2.96-6.314 6.8v17.23c0 3.3-2.06 5.494-4.946 5.494-2.88 0-4.937-2.194-4.937-5.493v-26.36zM169.074 166.19c0-3.29 2.058-5.484 4.937-5.484 2.536 0 4.188 1.37 4.532 3.634 1.925-2.68 4.874-4.05 9.546-4.05 7.745 0 13.52 4.938 13.52 13.314v18.947c0 3.3-2.065 5.494-4.944 5.494s-4.945-2.194-4.945-5.493v-17.23c0-4.596-2.88-6.8-6.457-6.8-4.044 0-6.305 2.96-6.305 6.8v17.23c0 3.3-2.067 5.494-4.946 5.494s-4.937-2.194-4.937-5.493v-26.36zM207.1 166.19c0-3.294 2.06-5.484 4.938-5.484s4.945 2.19 4.945 5.484v26.36c0 3.294-2.066 5.494-4.945 5.494s-4.937-2.2-4.937-5.493v-26.36zm10.492-14.898c0 3.096-2.464 5.705-5.555 5.705-2.95 0-5.555-2.676-5.555-5.705 0-2.808 2.605-5.414 5.555-5.414 2.95 0 5.555 2.535 5.555 5.414M222.467 166.19c0-3.29 2.066-5.484 4.937-5.484 2.553 0 4.195 1.37 4.54 3.634 1.925-2.68 4.874-4.05 9.546-4.05 7.754 0 13.52 4.938 13.52 13.314v18.947c0 3.3-2.065 5.494-4.953 5.494-2.88 0-4.937-2.194-4.937-5.493v-17.23c0-4.596-2.88-6.8-6.447-6.8-4.053 0-6.322 2.96-6.322 6.8v17.23c0 3.3-2.048 5.494-4.945 5.494-2.87 0-4.937-2.194-4.937-5.493v-26.36zM276.762 169.348c-5.148 0-7.684 5.365-7.684 9.957 0 5.286 2.535 10.085 7.684 10.085 5.28 0 7.754-4.937 7.754-9.745 0-4.804-2.332-10.297-7.754-10.297m17.645 25.402c0 11.878-7.763 17.848-19.014 17.848-4.054 0-15.587-1.99-15.587-7.418 0-1.846 2.066-4.327 3.982-4.327 3.162 0 6.66 3.096 12.355 3.096 4.804 0 8.372-2.814 8.372-7.826v-2.34h-.133c-2.058 3.03-5.423 4.667-9.953 4.667-10.368 0-15.234-9.122-15.234-18.937 0-9.957 6.306-19.22 16.258-19.22 3.365 0 7.216 1.514 9.062 4.525.627-2.605 2.198-4.116 4.945-4.116 2.89 0 4.946 2.2 4.946 5.49v28.558zM320.83 171.825c-1.854 0-5.625-2.888-8.857-2.888-1.775 0-3.365.826-3.365 2.747 0 4.6 17.16 3.912 17.16 15.172 0 6.588-5.556 11.6-14.07 11.6-5.562 0-13.793-3.157-13.793-7.617 0-1.51 1.51-4.4 4.248-4.4 3.85 0 5.563 3.366 10.235 3.366 3.02 0 3.912-.958 3.912-2.81 0-4.53-17.16-3.845-17.16-15.17 0-6.863 5.556-11.535 13.39-11.535 4.865 0 12.354 2.262 12.354 7.137 0 2.27-1.714 4.398-4.054 4.398"/></g><path fill="#5FA9DD" d="M144.435 83.325c0 1.162-.945 2.106-2.12 2.106-1.156 0-2.102-.944-2.102-2.105 0-1.16.945-2.117 2.102-2.117 1.175 0 2.12.956 2.12 2.117M153.54 83.325c0 1.162-.944 2.106-2.11 2.106-1.157 0-2.11-.944-2.11-2.105 0-1.16.953-2.117 2.11-2.117 1.165 0 2.11.956 2.11 2.117M146.873 93.95c-2.278 0-4.346-.778-5.89-2.047.53 3.607 2.904 6.383 5.89 6.383 2.993 0 5.37-2.775 5.9-6.374-1.556 1.26-3.613 2.037-5.9 2.037M146.873 90.012c-.725 0-1.334-.267-1.75-.65.187.805.875 1.42 1.75 1.42.874 0 1.563-.61 1.757-1.42-.416.383-1.025.65-1.757.65"/></svg>