<svg xmlns="http://www.w3.org/2000/svg" viewBox="0.301 0 754.725 131.888"><path fill="#3C848E" d="M.302 13.68C.302 4.927 6.317 0 14.708 0H49.73c18.973 0 34.31 12.763 34.31 32.107 0 12.763-5.3 21.327-16.976 26.81v.36c15.5 2.184 27.724 15.145 27.724 31.01 0 25.72-17.143 39.573-42.323 39.573H14.9c-8.394 0-14.6-5.284-14.6-13.854M109.853 13.667c0-8.07 5.057-13.462 12.138-13.462 7.082 0 12.115 5.39 12.115 13.462V117.4c0 8.09-5.033 13.467-12.114 13.467-7.08 0-12.137-5.378-12.137-13.466M178.063 16.204c0 7.57-6.07 13.974-13.64 13.974-7.247 0-13.644-6.568-13.644-13.974 0-6.902 6.396-13.31 13.642-13.31 7.244 0 13.64 6.23 13.64 13.31M152.31 52.74c0-8.08 5.032-13.475 12.112-13.475 7.082 0 12.137 5.394 12.137 13.476v64.662c0 8.088-5.057 13.466-12.138 13.466-7.08 0-12.113-5.378-12.113-13.466v-64.66zM246.085 66.55c-4.537 0-13.808-7.065-21.707-7.065-4.402 0-8.256 2.006-8.256 6.74 0 11.276 42.103 9.582 42.103 37.207 0 16.16-13.644 28.456-34.53 28.456-13.643 0-33.846-7.745-33.846-18.697 0-3.696 3.688-10.77 10.444-10.77 9.43 0 13.643 8.248 25.096 8.248 7.383 0 9.596-2.363 9.596-6.907 0-11.11-42.102-9.416-42.102-37.21 0-16.838 13.64-28.295 32.834-28.295 11.947 0 30.318 5.562 30.318 17.52 0 5.55-4.208 10.775-9.95 10.775M321.19 66.55c-4.54 0-13.808-7.065-21.71-7.065-4.4 0-8.256 2.006-8.256 6.74 0 11.276 42.104 9.582 42.104 37.207 0 16.16-13.643 28.456-34.53 28.456-13.642 0-33.847-7.745-33.847-18.697 0-3.696 3.72-10.77 10.444-10.77 9.434 0 13.643 8.248 25.098 8.248 7.408 0 9.566-2.363 9.566-6.907 0-11.11-42.073-9.416-42.073-37.21 0-16.838 13.644-28.295 32.835-28.295 11.947 0 30.318 5.562 30.318 17.52 0 5.55-4.21 10.775-9.95 10.775"/><path fill="#D2E2E5" d="M46.15 37.03c-1.422 8.166-9.212 13.62-17.388 12.18-8.148-1.43-13.616-9.21-12.166-17.374 1.423-8.162 9.214-13.617 17.39-12.178 8.144 1.42 13.613 9.212 12.165 17.37"/><path fill="#FFF" d="M64.467 79.392c3.72 16.585-2.16 32.028-13.175 34.503-10.992 2.467-22.94-8.986-26.656-25.57-3.72-16.583 2.187-32.037 13.176-34.5 10.99-2.472 22.94 8.973 26.655 25.567"/><g fill="#3C848E"><path d="M687.54 110.76c0-2.546.954-5.096 3.183-7.64 1.912-2.865 4.777-4.14 8.273-4.14 1.916 0 4.146.637 6.373 1.275 2.228.953 3.817 1.906 5.408 2.864 1.275.954 3.182 1.907 5.093 2.544 2.23.952 4.142 1.274 6.37 1.274 3.18 0 5.093-.322 6.046-1.274.958-.637 1.274-1.91 1.274-3.818 0-.958-.316-1.59-1.59-2.55-1.274-.953-2.865-1.907-5.1-2.866-1.906-.953-4.455-1.905-7.315-2.864-3.187-.954-6.053-2.228-8.917-3.82-3.182-1.59-5.727-3.18-8.274-5.092-2.55-1.913-4.456-4.455-6.052-7.32-1.59-3.183-2.544-6.685-2.544-10.508 0-8.276 3.187-14.958 9.228-20.373 6.052-5.095 14.012-7.638 23.244-7.638 3.18 0 6.36.316 9.55.954 3.5.635 6.683 1.91 9.868 3.18 2.86 1.274 5.41 3.187 7.64 5.73 2.226 2.228 3.18 5.093 3.18 7.958 0 3.187-.954 5.73-3.18 8.28-1.91 2.228-4.458 3.5-7.64 3.5-1.596 0-3.503-.636-6.052-1.91-2.544-.955-5.093-2.228-7.637-3.18-2.55-.96-4.778-1.598-6.684-1.598-1.912 0-3.188.32-4.457 1.276-.96.953-1.597 1.91-1.597 3.503 0 .95.637 1.91 1.912 2.863.953.954 2.545 1.912 4.772 2.864 1.91.637 4.455 1.913 7.642 2.866 2.865.955 5.73 2.23 8.91 3.818 2.866 1.277 5.415 3.188 7.96 5.094 2.55 1.913 4.776 4.457 6.365 7.322 1.593 3.187 2.23 6.368 2.23 10.186 0 8.282-3.182 14.963-9.55 20.38-6.047 5.408-14.326 7.956-24.513 7.956-4.777 0-9.55-.637-14.326-2.23-5.093-1.594-9.55-3.82-13.368-6.685-3.815-3.18-5.727-6.366-5.727-10.184M560.207 50.277c0-2.866 1.268-5.416 3.818-7.642 2.55-1.913 5.41-2.865 9.23-2.865 3.184 0 5.732.953 7.96 2.865 2.23 1.91 3.503 4.14 4.134 7.32l13.057 42.34h-2.227l13.046-42.018c.958-3.187 2.55-5.73 4.46-7.642 2.23-1.913 5.094-2.865 8.596-2.865 3.504 0 6.363.953 8.592 2.865 1.91 1.91 3.503 4.456 4.456 7.642l13.056 42.02h-2.228l13.047-42.34c.643-3.182 1.917-5.41 4.145-7.322 2.23-1.913 5.088-2.865 7.957-2.865 3.813 0 7.002.953 9.546 3.502 2.227 2.23 3.502 5.41 3.502 9.234 0 .632 0 1.27-.316 1.905 0 .96-.316 1.592-.316 2.23-.32.637-.644 1.274-.96 2.226-.314.96-.637 1.914-.952 2.866l-19.104 54.756c-3.18 8.276-8.274 12.415-15.275 12.415-7.326 0-12.42-4.455-14.962-13.688l-11.14-33.74h1.906l-11.14 33.74c-2.55 9.233-7.643 13.688-14.963 13.688-7.005 0-12.1-4.14-15.28-12.415l-19.103-54.12c-1.59-5.407-2.543-9.23-2.543-12.09zM544.608 97.706c-1.274 0-3.184.637-5.412 1.59-2.23.958-4.14 1.91-6.05 3.186-1.593 1.27-3.82 2.23-6.686 3.182-2.546.637-5.094 1.274-7.64 1.274-5.093 0-9.55-1.274-13.37-3.82-3.5-2.55-5.73-5.73-6.366-9.552h46.795c4.14 0 7.003-.954 8.914-3.182 1.91-1.912 2.864-4.777 2.864-8.596 0-5.093-.955-10.186-3.183-14.962-1.91-5.095-4.775-9.865-8.597-14.005-3.5-4.14-7.958-7.642-13.37-10.186-5.73-2.55-11.46-3.82-17.507-3.82-8.276 0-15.598 2.23-21.967 6.364-6.682 4.462-11.778 9.87-15.277 16.875-3.503 7-5.412 14.327-5.412 22.286 0 13.367 4.137 24.19 12.414 32.787 8.275 8.595 18.782 12.734 32.15 12.734 5.732 0 11.462-.957 17.51-2.864 6.048-1.91 10.822-4.46 14.963-7.642 4.14-3.182 6.366-6.685 6.366-10.187 0-2.867-1.27-5.73-3.5-7.96-2.226-2.227-4.775-3.5-7.638-3.5zM503.86 65.234c2.865-2.866 6.684-4.455 11.143-4.455 4.773 0 8.594 1.588 11.458 4.454 2.867 2.866 4.46 6.368 5.094 9.87H498.45c.634-3.502 2.225-6.683 5.41-9.87zM386.24 115.58V51.925c0-3.706 1.115-7.03 3.333-9.62 2.222-2.23 4.813-3.705 8.512-3.705 2.963 0 5.553.742 7.4 2.592 1.85 1.48 2.966 3.704 3.332 6.294 4.813-6.294 12.585-9.626 23.32-9.626 9.618 0 17.395 2.963 23.316 8.512 6.29 5.92 9.252 13.692 9.252 23.69v45.518c0 4.07-1.114 7.035-3.33 9.626-2.224 2.59-5.18 3.697-8.513 3.697-3.704 0-6.662-1.107-8.884-3.697-2.224-2.59-3.332-5.555-3.332-9.626V74.13c0-5.548-1.482-9.62-4.44-12.21-2.59-2.964-6.662-4.072-11.1-4.072-4.814 0-8.52 1.48-11.108 4.44-2.59 2.958-4.066 7.03-4.066 11.842v41.45c0 4.07-1.115 7.035-3.33 9.626-2.224 2.59-5.188 3.697-8.518 3.697-3.7 0-6.29-1.107-8.512-3.697-2.217-2.59-3.33-5.555-3.33-9.627z"/></g></svg>