<svg xmlns="http://www.w3.org/2000/svg" viewBox="0 0 516.897 212.598"><linearGradient id="a" gradientUnits="userSpaceOnUse" x1="171.182" y1="185.227" x2="372.335" y2="185.227" gradientTransform="matrix(1 0 0 -1 .04 243.898)"><stop offset=".029" stop-color="#E9B429"/><stop offset=".253" stop-color="#D27A53"/><stop offset=".309" stop-color="#D07450"/><stop offset=".398" stop-color="#CB6348"/><stop offset=".509" stop-color="#C5473C"/><stop offset=".539" stop-color="#C33F39"/></linearGradient><path fill="url(#a)" d="M179.6 92.204c-4.624 0-8.378 3.75-8.378 8.378 0 4.627 3.754 8.384 8.378 8.384h16.77c4.62 0 8.376-3.756 8.376-8.384 0-4.63-3.756-8.378-8.377-8.378H179.6zm167.636 0c-4.627 0-8.377 3.75-8.377 8.378 0 4.627 3.75 8.384 8.376 8.384h16.755c4.643 0 8.385-3.756 8.385-8.384 0-4.63-3.75-8.378-8.384-8.378h-16.754zm-125.727 8.378c0 5.89 1.06 11.513 2.926 16.757h18.36c-2.865-4.923-4.52-10.64-4.52-16.758 0-18.515 15.01-33.527 33.52-33.527 18.523 0 33.53 15.013 33.53 33.527 0 6.117-1.657 11.835-4.52 16.757h18.363c1.86-5.245 2.926-10.87 2.926-16.758 0-27.774-22.52-50.287-50.3-50.287-27.765 0-50.287 22.513-50.287 50.287m-20.83-71.124c-3.275 3.274-3.275 8.583 0 11.855l11.85 11.857c3.275 3.273 8.586 3.273 11.855 0 3.27-3.277 3.27-8.58 0-11.857L212.53 29.458c-1.636-1.633-3.782-2.446-5.926-2.446-2.145 0-4.288.813-5.925 2.446m130.384 0l-11.85 11.855c-3.263 3.277-3.263 8.58 0 11.857 3.272 3.273 8.583 3.273 11.85 0l11.86-11.857c3.274-3.272 3.274-8.58 0-11.855-1.642-1.633-3.79-2.446-5.933-2.446-2.145 0-4.29.813-5.926 2.446M263.422 8.384v16.762c0 4.625 3.748 8.38 8.374 8.38 4.627 0 8.386-3.75 8.386-8.38V8.384c0-4.627-3.76-8.384-8.386-8.384-4.625 0-8.374 3.756-8.374 8.384"/><path fill="#54564C" d="M38.773 117.115c-3.65.854-7.584 1.572-11.375 1.572C11.23 118.687 0 110.603 0 93.724c0-17.098 10.444-26.682 27.4-26.682 3.29 0 7.652.64 11.3 2.07l-.714 8.445c-3.792-2.147-7.225-2.65-10.8-2.65-10.302 0-16.74 7.87-16.74 18.1 0 10.157 6.295 17.812 16.955 17.812 3.935 0 8.586-.86 10.947-2.073l.426 8.368zM42.27 64.177h9.584v21.818H52c2.434-3.577 6.584-5.863 11.59-5.863 8.73 0 12.52 6.15 12.52 14.452v23.245H66.52V98.157c0-4.508-.07-10.586-6.223-10.586-6.94 0-8.446 7.51-8.446 12.233v18.025H42.27V64.177zM83.185 65.107h9.588v9.157h-9.588v-9.157zm0 15.884h9.588v36.842h-9.588v-36.84zM100.066 64.18h9.585v53.652h-9.584zM141.268 113.68h-.14c-2.865 3.58-6.796 5.007-11.305 5.007-11.3 0-15.452-9.297-15.452-19.383 0-10.16 4.152-19.17 15.453-19.17 4.792 0 8.154 1.64 11.016 5.146h.14v-21.1h9.587v53.652h-9.3v-4.153zm-8.796-2.43c6.364 0 8.44-6.723 8.44-11.946 0-5.152-2.43-11.733-8.584-11.733-6.223 0-7.94 6.796-7.94 11.734 0 5.074 1.786 11.945 8.084 11.945M2.433 129.042h17.454c6.44 0 16.094 1.863 16.094 12.806 0 5.94-4.004 10.088-9.943 11.16v.147c6.796.643 11.445 5.218 11.445 11.37 0 12.593-11.3 14.45-17.595 14.45H2.433v-49.933zm10.015 20.175h4.08c4.22 0 9.438-.93 9.438-6.08 0-5.792-5.078-6.225-9.655-6.225h-3.86v12.305zm0 21.89h4.72c4.65 0 10.303-1.145 10.303-6.942 0-6.508-5.293-7.508-10.3-7.508h-4.722v14.45zM71.815 176.903c-3.502 1.933-7.508 2.93-12.662 2.93-12.158 0-19.24-7.007-19.24-19.094 0-10.665 5.648-19.465 17.095-19.465 13.663 0 17.525 9.372 17.525 22.248H49.07c.428 5.942 4.576 9.303 10.514 9.303 4.648 0 8.654-1.72 12.23-3.722v7.8zm-6.438-19.958c-.283-4.648-2.43-8.66-7.797-8.66-5.363 0-8.083 3.72-8.51 8.66h16.307zM79.254 142.136h8.512v8.368h.142c.43-3.432 4.365-9.23 10.088-9.23.93 0 1.93 0 2.933.29v9.655c-.86-.5-2.58-.787-4.292-.787-7.798 0-7.798 9.728-7.798 15.02v13.525h-9.586v-36.842zM133.397 176.903c-3.504 1.933-7.512 2.93-12.664 2.93-12.16 0-19.24-7.007-19.24-19.094 0-10.665 5.648-19.465 17.095-19.465 13.663 0 17.527 9.372 17.527 22.248H110.65c.428 5.942 4.577 9.303 10.514 9.303 4.65 0 8.657-1.72 12.233-3.722v7.8zm-6.438-19.958c-.287-4.648-2.434-8.66-7.798-8.66-5.37 0-8.085 3.72-8.514 8.66h16.31zM142.263 144.064c3.72-1.713 8.726-2.79 12.802-2.79 11.234 0 15.883 4.652 15.883 15.53v4.72c0 3.718.072 6.51.144 9.225.07 2.79.214 5.368.43 8.227h-8.443c-.358-1.93-.358-4.36-.43-5.51h-.143c-2.216 4.083-7.013 6.368-11.374 6.368-6.51 0-12.873-3.935-12.873-10.946 0-5.51 2.645-8.724 6.293-10.516 3.647-1.788 8.368-2.146 12.375-2.146h5.292c0-5.942-2.647-7.94-8.297-7.94-4.08 0-8.156 1.572-11.373 4.01l-.287-8.234zm11.233 28.762c2.93 0 5.22-1.292 6.72-3.293 1.58-2.078 2.006-4.724 2.006-7.586h-4.147c-4.294 0-10.658.718-10.658 6.372-.002 3.144 2.643 4.506 6.08 4.506M173.308 142.136h10.297l9.157 26.825h.146l8.87-26.824h9.58l-13.587 36.842h-10.804M243.695 176.903c-3.508 1.933-7.515 2.93-12.662 2.93-12.162 0-19.245-7.007-19.245-19.094 0-10.665 5.65-19.465 17.096-19.465 13.666 0 17.528 9.372 17.528 22.248h-25.466c.43 5.942 4.58 9.303 10.515 9.303 4.654 0 8.655-1.72 12.237-3.722l-.002 7.8zm-6.44-19.958c-.287-4.648-2.434-8.66-7.797-8.66-5.367 0-8.085 3.72-8.514 8.66h16.31zM250.77 142.136h8.944v5.146h.14c3.008-4.503 7.367-6.008 10.947-6.008 5.152 0 8.8 1.933 10.873 6.513 2.222-4.438 7.015-6.513 11.52-6.513 9.084 0 11.66 6.225 11.66 14.45v23.253h-9.585v-21.962c0-3.44 0-8.302-5.51-8.302-6.363 0-7.152 7.585-7.152 12.376v17.887h-9.585v-21.962c0-3.44 0-8.302-5.508-8.302-6.364 0-7.153 7.585-7.153 12.376v17.887h-9.587l-.002-36.84zM341.04 176.903c-3.505 1.933-7.51 2.93-12.662 2.93-12.16 0-19.245-7.007-19.245-19.094 0-10.665 5.654-19.465 17.1-19.465 13.666 0 17.525 9.372 17.525 22.248h-25.464c.427 5.942 4.576 9.303 10.516 9.303 4.65 0 8.653-1.72 12.23-3.722v7.8zm-6.438-19.958c-.286-4.648-2.433-8.66-7.796-8.66-5.367 0-8.086 3.72-8.513 8.66h16.31zM348.26 142.136h9.09v5.006h.14c3.007-4.22 7.08-5.867 12.093-5.867 8.723 0 12.516 6.156 12.516 14.45v23.253h-9.59v-19.672c0-4.507-.067-10.59-6.217-10.59-6.94 0-8.445 7.512-8.445 12.232v18.03h-9.586v-36.842zM392.105 149.15h-7.08v-7.017h7.08v-7.366l9.588-3.076v10.443h8.512v7.016h-8.512v17.164c0 3.15.857 6.08 4.505 6.08 1.716 0 3.365-.36 4.362-1.003l.286 7.588c-2.002.568-4.217.855-7.08.855-7.51 0-11.662-4.646-11.662-11.947V149.15z"/><path fill="#C33F39" d="M464.58 158.303c0 14.02-7.08 21.53-19.382 21.53-12.305 0-19.39-7.51-19.39-21.53v-29.258h7.154v28.325c0 9.586 3.004 16.167 12.235 16.167 9.226 0 12.23-6.58 12.23-16.167v-28.325h7.152v29.258zM474.733 129.042h7.156v21.964l21.317-21.964h9.515l-23.466 23.606 25.323 26.33h-10.446l-22.245-24.463v24.463h-7.157M136.34 195.97h3.68c3.663 0 8.024-.12 8.024 4.424 0 1.922-1.336 3.513-3.51 3.796v.046c.93.07 1.464.96 1.805 1.688l2.73 6.393h-3.803l-2.05-5.106c-.488-1.217-.925-1.685-2.366-1.685h-1.098v6.792h-3.416V195.97h.003zm3.413 6.98h1.122c1.684 0 3.612-.233 3.612-2.274 0-1.97-1.903-2.13-3.612-2.13h-1.122v4.403zM153.363 195.97h10.048v2.573h-6.632v4.03h6.073v2.575h-6.072v4.593h6.682v2.577h-10.097M168.754 195.967h5.952c2.197 0 5.488.612 5.488 4.196 0 1.943-1.366 3.3-3.388 3.65v.045c2.313.212 3.898 1.71 3.898 3.726 0 4.124-3.852 4.732-6 4.732h-5.95v-16.35zm3.414 6.607h1.39c1.44 0 3.22-.306 3.22-1.99 0-1.897-1.73-2.04-3.29-2.04h-1.32v4.03zm0 7.165h1.61c1.585 0 3.513-.374 3.513-2.272 0-2.13-1.804-2.457-3.512-2.457h-1.61v4.73zM185.364 195.97h3.415v9.438c0 2.787.925 4.613 3.533 4.613 2.61 0 3.54-1.826 3.54-4.612v-9.438h3.415v10.443c0 4.38-2.584 6.184-6.955 6.184-4.36 0-6.948-1.804-6.948-6.184V195.97zM204.63 195.967h3.414v16.35h-3.415zM213.533 195.97h3.414v13.77h6.613v2.577h-10.027M227.555 195.967h4.662c5.22 0 9.832 1.687 9.832 8.175 0 6.486-4.613 8.175-9.833 8.175h-4.662v-16.35zm3.417 13.772h1.903c2.854 0 5.61-2.04 5.61-5.597 0-3.56-2.757-5.6-5.61-5.6h-1.903v11.196zM246.702 195.967h3.416v16.35h-3.416zM255.436 195.97h4.195l6.487 12.226h.05V195.97h3.27v16.347h-4.17l-6.514-12.228h-.048v12.227h-3.27M288.338 199.132c-1.32-.586-3.025-.868-4.392-.868-3.974 0-6.168 2.578-6.168 5.926 0 3.325 2.147 5.83 5.778 5.83.927 0 1.657-.093 2.245-.233v-4.262h-3.61v-2.576h6.88v8.804c-1.804.47-3.685.845-5.514.845-5.512 0-9.342-2.645-9.342-8.174 0-5.6 3.564-8.737 9.342-8.737 1.975 0 3.537.26 5 .677l-.218 2.765zM303.092 195.97h3.414v13.77h6.61v2.577h-10.024M316.823 195.967h3.417v16.35h-3.417zM323.994 195.97h3.658l4.37 12.83h.046l4.32-12.83h3.39l-5.733 16.347h-4.195M343.822 195.97h10.05v2.573h-6.633v4.03h6.075v2.575h-6.076v4.593h6.68v2.577h-10.098M368.36 198.967c-1.072-.445-2.267-.7-3.464-.7-1.17 0-2.682.487-2.682 2.27 0 2.832 7.466 1.637 7.466 7.118 0 3.584-2.954 4.942-6.393 4.942-1.854 0-2.685-.233-4.368-.634l.316-2.952c1.173.61 2.513 1.01 3.854 1.01 1.294 0 3.025-.634 3.025-2.11 0-3.112-7.463-1.824-7.463-7.236 0-3.65 2.95-4.988 5.95-4.988 1.466 0 2.832.188 4.075.585l-.316 2.697zM386.31 198.546h-4.878v-2.576h13.174v2.576h-4.878v13.77h-3.418M406.117 195.69c5.34 0 8.344 3.463 8.344 8.408 0 4.94-2.95 8.497-8.343 8.497-5.467 0-8.342-3.486-8.342-8.497 0-5.012 2.93-8.408 8.342-8.408m0 14.332c3.488 0 4.78-2.976 4.78-5.924 0-2.88-1.39-5.832-4.78-5.832s-4.785 2.95-4.785 5.832c0 2.948 1.296 5.924 4.785 5.924M432.703 199.132c-1.32-.586-3.025-.868-4.393-.868-3.974 0-6.17 2.578-6.17 5.926 0 3.325 2.147 5.83 5.78 5.83.928 0 1.657-.093 2.245-.233v-4.262h-3.61v-2.576h6.88v8.804c-1.808.47-3.685.845-5.514.845-5.512 0-9.342-2.645-9.342-8.174 0-5.6 3.562-8.737 9.343-8.737 1.976 0 3.537.26 5.002.677l-.22 2.765zM438.848 195.97h10.048v2.573h-6.633v4.03h6.072v2.575h-6.072v4.593h6.68v2.577h-10.095M457.335 198.546h-4.877v-2.576h13.172v2.576h-4.88v13.77h-3.415M469.627 195.97h3.415v6.604h6.833v-6.604h3.415v16.347h-3.415v-7.17h-6.833v7.17h-3.415M489.065 195.97h10.05v2.573h-6.634v4.03h6.076v2.575h-6.075v4.593h6.685v2.577h-10.1M504.163 195.97h3.682c3.662 0 8.028-.12 8.028 4.424 0 1.922-1.342 3.513-3.516 3.796v.046c.93.07 1.466.96 1.806 1.688l2.734 6.393h-3.807l-2.048-5.106c-.49-1.217-.928-1.685-2.368-1.685h-1.1v6.792h-3.414V195.97h.003zm3.414 6.98h1.123c1.684 0 3.61-.233 3.61-2.274 0-1.97-1.902-2.13-3.61-2.13h-1.123v4.403z"/></svg>