<svg xmlns="http://www.w3.org/2000/svg" viewBox="0 0 460.6 283.5"><circle fill="#35BBDA" cx="186.1" cy="26" r="12.5"/><circle fill="#35BBDA" cx="210.5" cy="26" r="7.7"/><path fill="#35BBDA" d="M198.5 7.7c0-4.2 3.4-7.7 7.7-7.7 4.3 0 7.7 3.4 7.7 7.7 0 4.2-3.5 7.7-7.7 7.7s-7.7-3.5-7.7-7.7z"/><circle fill="#35BBDA" cx="153" cy="58.6" r="12.5"/><path fill="#35BBDA" d="M167.5 50.2c-2.1-3.7-.9-8.4 2.8-10.5 3.7-2.1 8.4-.9 10.5 2.8 2.1 3.7.9 8.4-2.8 10.5-3.7 2.1-8.4.9-10.5-2.8zm-12.9-13.7c-2.1-3.7-.9-8.4 2.8-10.5 3.7-2.1 8.4-.9 10.5 2.8 2.1 3.7.9 8.4-2.8 10.5-3.7 2.1-8.4.9-10.5-2.8zm-20.2 77.6c-6-3.4-8-11.1-4.6-17 3.4-6 11.1-8 17-4.6 6 3.4 8 11.1 4.6 17-3.4 6-11 8.1-17 4.6z"/><circle fill="#35BBDA" cx="152.8" cy="82.2" r="7.7"/><path fill="#35BBDA" d="M131 83.4c-3.7-2.1-4.9-6.8-2.8-10.5 2.1-3.7 6.8-4.9 10.5-2.8 3.7 2.1 4.9 6.8 2.8 10.5-2.1 3.7-6.8 4.9-10.5 2.8z"/><circle fill="#35BBDA" cx="152.3" cy="148.3" r="12.5"/><circle fill="#35BBDA" cx="152.3" cy="123.9" r="7.7"/><path fill="#35BBDA" d="M134 135.8c-4.3 0-7.7-3.4-7.7-7.7 0-4.3 3.5-7.7 7.7-7.7s7.7 3.4 7.7 7.7c0 4.3-3.5 7.7-7.7 7.7zm57.1 56.4c-6 3.4-13.6 1.4-17-4.5-3.4-6-1.4-13.6 4.6-17 6-3.4 13.6-1.4 17 4.6 3.4 5.8 1.4 13.4-4.6 16.9zm-14.6-25.3c-3.7 2.1-8.4.9-10.5-2.8-2.1-3.7-.9-8.4 2.8-10.5 3.7-2.1 8.4-.9 10.5 2.8 2.1 3.7.9 8.4-2.8 10.5zm-13.7 12.8c-3.7 2.1-8.4.9-10.5-2.8-2.1-3.7-.9-8.4 2.8-10.5 3.7-2.1 8.4-.9 10.5 2.8 2.1 3.7.9 8.4-2.8 10.5zm77.6 20.3c-3.4 6-11.1 8-17 4.6-6-3.4-8-11.1-4.6-17 3.4-6 11.1-8 17-4.6 6 3.4 8.1 11 4.6 17zm-25.3-14.6c-2.1 3.7-6.8 4.9-10.5 2.8-3.7-2.1-4.9-6.8-2.8-10.5 2.1-3.7 6.8-4.9 10.5-2.8 3.7 2.1 5 6.8 2.8 10.5zm-5.4 18c-2.1 3.7-6.8 4.9-10.5 2.8-3.7-2.1-4.9-6.8-2.8-10.5 2.1-3.7 6.8-4.9 10.5-2.8 3.7 2.1 4.9 6.8 2.8 10.5zm77.3-21.3c0 6.9-5.6 12.5-12.4 12.5-6.9 0-12.5-5.6-12.5-12.5s5.6-12.5 12.5-12.5 12.4 5.6 12.4 12.5zm-29.2 0c0 4.2-3.4 7.7-7.7 7.7-4.2 0-7.7-3.4-7.7-7.7 0-4.2 3.4-7.7 7.7-7.7 4.3 0 7.7 3.4 7.7 7.7zm4.3 18.3c0 4.2-3.4 7.7-7.7 7.7-4.3 0-7.7-3.4-7.7-7.7 0-4.2 3.4-7.7 7.7-7.7 4.3 0 7.7 3.4 7.7 7.7z"/><circle fill="#35BBDA" cx="307.7" cy="149.5" r="12.5"/><path fill="#35BBDA" d="M293.2 157.9c2.1 3.7.9 8.4-2.8 10.5-3.7 2.1-8.4.9-10.5-2.8-2.1-3.7-.9-8.4 2.8-10.5 3.7-2.2 8.4-.9 10.5 2.8zm12.8 13.7c2.1 3.7.9 8.4-2.8 10.5-3.7 2.1-8.4.9-10.5-2.8-2.1-3.7-.9-8.4 2.8-10.5 3.7-2.2 8.4-.9 10.5 2.8zm20.3-77.7c6 3.4 8 11.1 4.6 17-3.4 6-11.1 8-17 4.6-6-3.4-8-11.1-4.6-17 3.4-6 11-8 17-4.6zm-14.6 25.3c3.7 2.1 4.9 6.8 2.8 10.5-2.1 3.7-6.8 4.9-10.5 2.8-3.7-2.1-4.9-6.8-2.8-10.5 2.1-3.6 6.8-4.9 10.5-2.8zm18 5.5c3.7 2.1 4.9 6.8 2.8 10.5-2.1 3.7-6.8 4.9-10.5 2.8-3.7-2.1-4.9-6.8-2.8-10.5 2.1-3.7 6.8-5 10.5-2.8zm-21.3-77.4c6.9 0 12.5 5.6 12.5 12.5s-5.6 12.5-12.5 12.5-12.5-5.6-12.5-12.5 5.6-12.5 12.5-12.5zm0 29.2c4.2 0 7.7 3.4 7.7 7.7 0 4.2-3.4 7.7-7.7 7.7-4.2 0-7.7-3.4-7.7-7.7 0-4.2 3.4-7.7 7.7-7.7zm18.3-4.3c4.2 0 7.7 3.4 7.7 7.7 0 4.3-3.5 7.7-7.7 7.7-4.3 0-7.7-3.4-7.7-7.7 0-4.2 3.4-7.7 7.7-7.7z"/><path fill="#69B650" d="M269.6 15.9c6-3.4 13.6-1.4 17 4.5 3.4 6 1.4 13.6-4.6 17-6 3.4-13.6 1.4-17-4.6-3.4-5.8-1.4-13.5 4.6-16.9z"/><path fill="#35BBDA" d="M284.2 41.2c3.7-2.1 8.4-.9 10.5 2.8 2.1 3.7.9 8.4-2.8 10.5-3.7 2.1-8.4.9-10.5-2.8-2.2-3.7-.9-8.4 2.8-10.5zm13.7-12.9c3.7-2.1 8.4-.9 10.5 2.8 2.1 3.7.9 8.4-2.8 10.5-3.7 2.1-8.4.9-10.5-2.8-2.2-3.7-.9-8.3 2.8-10.5zM220.2 8.1c3.4-6 11.1-8 17-4.6 6 3.4 8 11.1 4.6 17-3.4 6-11.1 8-17 4.5-6-3.3-8-10.9-4.6-16.9z"/><circle fill="#35BBDA" cx="252.2" cy="26.5" r="7.7"/><path fill="#35BBDA" d="M251 4.7c2.1-3.7 6.8-4.9 10.5-2.8 3.7 2.1 4.9 6.8 2.8 10.5-2.1 3.7-6.8 4.9-10.5 2.8-3.7-2.1-5-6.8-2.8-10.5z"/><path fill="#69B650" d="M2.8 245.8c-2 0-2.8-.8-2.8-2.4v-.4c0-1.5.8-2.3 2.8-2.3h3.5v-2.3c0-7.7 3.6-11.2 9.7-11.2 4.7 0 6.8 2 6.8 4.1 0 1.8-1.4 2.9-1.5 2.7-.9-.9-2.7-1.8-4.6-1.8-3 0-4.4 1.9-4.4 6.2v2.2h5.1c2 0 2.8.8 2.8 2.3v.4c0 1.5-.8 2.3-2.8 2.3h-5v22.6c0 2.3-1.1 3-2.7 3h-.5c-1.6 0-2.8-.7-2.8-3v-22.6l-3.6.2zM38.1 267c5.3 0 8-2.3 9.5-5.1.1-.1 3.3.4 3.3 3.1s-4.7 6.9-13 6.9c-9.6 0-16.1-6.4-16.1-15.9 0-9.2 6.6-16.1 15.6-16.1 8.8 0 14.6 6.2 14.6 15.3v.5c0 1.3-.4 1.8-1.9 1.8H27.8c.5 5.7 4.6 9.5 10.3 9.5zm7.9-13.6c-.3-5.3-3.5-8.7-8.6-8.7-5 0-8.9 3.6-9.6 8.7H46zm24.6-13.5c3.2 0 5 1.5 5 4 0 2.4-1.8 3.3-1.9 3.2-.9-.8-2.1-1.3-3.9-1.3-4.9 0-6.9 4.8-6.9 11.8v10.7c0 2.3-1.2 3-2.8 3h-.7c-1.6 0-2.8-.7-2.8-3V241c0-.2 1-.7 2.3-.7 1.9 0 3.9 1 3.9 5.3 1.4-3.6 3.9-5.7 7.8-5.7zm9.7 5.9c-2 0-2.7-.8-2.7-2.3v-.5c0-1.5.8-2.3 2.7-2.3h2.2V236c0-2.2 1.1-3 2.8-3h.6c1.6 0 2.7.6 2.7 3v4.7h6.9c2 0 2.7.8 2.7 2.3v.4c0 1.6-.8 2.4-2.7 2.4h-6.9v15.4c0 3.8 1.1 5.6 4 5.6 2 0 3.4-.9 4.3-2.1.2-.2 1.8.7 1.8 2.7 0 2.3-2.6 4.6-7.1 4.6-6.3 0-9.1-3.5-9.1-10.1v-16.1h-2.2zm23.1-15.1c0-2.3 1.4-3.5 3.8-3.5 2.3 0 3.7 1.3 3.7 3.5 0 2.3-1.3 3.5-3.7 3.5-2.5 0-3.8-1.3-3.8-3.5zm.5 37.7v-25c0-2.3 1.2-3 2.8-3h.6c1.6 0 2.8.7 2.8 3v25c0 2.3-1.1 3-2.8 3h-.6c-1.6 0-2.8-.7-2.8-3zm14.6 0v-40c0-.2 1.1-.7 2.3-.7 2 0 4 1 4 5.4v35.4c0 2.3-1.1 3-2.8 3h-.6c-1.7-.1-2.9-.8-2.9-3.1zm13.9-37.7c0-2.3 1.4-3.5 3.8-3.5 2.3 0 3.7 1.3 3.7 3.5 0 2.3-1.3 3.5-3.7 3.5-2.4 0-3.8-1.3-3.8-3.5zm.6 37.7v-25c0-2.3 1.2-3 2.8-3h.6c1.6 0 2.8.7 2.8 3v25c0 2.3-1.1 3-2.8 3h-.6c-1.6 0-2.8-.7-2.8-3zm13.1-22.6c-2 0-2.7-.8-2.7-2.3v-.5c0-1.5.8-2.3 2.7-2.3h2.2V236c0-2.2 1.1-3 2.8-3h.6c1.6 0 2.7.6 2.7 3v4.7h6.9c2 0 2.7.8 2.7 2.3v.4c0 1.6-.8 2.4-2.7 2.4h-6.9v15.4c0 3.8 1.1 5.6 4 5.6 2 0 3.4-.9 4.3-2.1.2-.2 1.8.7 1.8 2.7 0 2.3-2.6 4.6-7.1 4.6-6.3 0-9.1-3.5-9.1-10.1v-16.1h-2.2zm28.9 36l5.1-12.3c-1.4-.1-2.2-.5-2.7-1.8l-10.9-25.4c-.1-.4 1.3-1.8 3.3-1.8 1.8 0 3 .8 4 3.5l8.2 21 7.3-20.9c.9-2.8 2.3-3.7 3.9-3.7 1.7 0 3.4 1.4 3.3 1.7L182.1 280c-1 2.7-2.4 3.5-3.9 3.5-1.7 0-3.4-1.4-3.2-1.7z"/><path fill="#35BBDA" d="M215.7 240.3c8 0 12 5.3 12 13.3v15.9c0 1.5-.8 2-1.8 2h-.4c-1.1 0-1.8-.4-1.8-2v-15.6c0-6-3-9.7-8.1-9.7-4.7 0-8.2 2.6-9.9 6.4v18.9c0 1.5-.8 2-1.8 2h-.4c-1.1 0-1.8-.4-1.8-2v-28.2c0-.1.6-.4 1.4-.4 1.4 0 2.7.7 2.7 4v.9c1.7-3.3 5.2-5.5 9.9-5.5zm31.2 27.9c5.9 0 8.5-2.5 10.3-5.4.1-.2 2.4.4 2.4 2.3 0 2.1-4.6 6.7-12.7 6.7-9.2 0-15.6-6.5-15.6-15.7s6.4-16 15.2-16c8.5 0 14 6 14 15.2v.4c0 1.1-.4 1.4-1.7 1.4h-23.4c.3 6.5 5.1 11.1 11.5 11.1zm9.3-14.5c-.4-5.9-4-9.8-9.7-9.8-5.7 0-10 4.1-10.9 9.8h20.6zm6-9c-1.5 0-2-.6-2-1.6v-.4c0-1.1.4-1.6 2-1.6h2.8v-5.2c0-1.5.8-2 1.8-2h.4c1.1 0 1.8.4 1.8 2v5.2h8c1.5 0 2 .6 2 1.6v.4c0 1.1-.4 1.6-2 1.6h-8v17.1c0 4.4 1.1 6.5 4.5 6.5 2.1 0 3.6-.9 4.7-2.2.1-.1 1.4.4 1.4 2 0 1.7-2.2 3.7-6.2 3.7-5.9 0-8.4-3.4-8.4-9.6v-17.6l-2.8.1zm27.4 25.2l-7.3-28c-.1-.3 1.1-1.2 2.4-1.2.9 0 2 .7 2.5 2.9l5.5 23.7 6.5-20.3c.4-1.2 1-1.7 3.1-1.7s2.7.5 3.1 1.7l6.4 20.3 5.4-23.7c.4-2.2 1.5-2.9 2.5-2.9 1.3 0 2.3 1 2.3 1.2l-7.2 28c-.3 1.1-.7 1.6-3 1.6-2.1 0-2.4-.5-2.8-1.6l-6.6-20.6-6.8 20.6c-.4 1.1-.7 1.6-2.8 1.6-2.5 0-3-.5-3.2-1.6zm32.2-13.9c0-9.1 6.5-15.8 15.6-15.8 9 0 15.5 6.7 15.5 15.9 0 9.1-6.5 15.8-15.5 15.8-9.1 0-15.6-6.7-15.6-15.9zm26.9.1c0-7-4.8-12.3-11.3-12.3S326 249 326 256c0 7 4.9 12.3 11.4 12.3 6.4 0 11.3-5.1 11.3-12.2zm18.9-15.8c2.8 0 4.4 1.1 4.4 3.1 0 1.5-1 2.3-1.1 2.1-.9-.8-2-1.3-3.7-1.3-5.4 0-7.5 5.6-7.5 13.3v11.8c0 1.5-.8 2-1.8 2h-.4c-1.1 0-1.8-.4-1.8-2v-28.2c0-.1.6-.4 1.4-.4 1.4 0 2.7.7 2.7 4v1.8c1.2-4.1 3.8-6.2 7.8-6.2zm11 29.1c0 1.5-.8 2-1.8 2h-.4c-1.1 0-1.8-.4-1.8-2v-40.9c0-.1.6-.4 1.4-.4 1.4 0 2.7.7 2.7 4v22.8l12.1-12.4c1.1-1.2 2-1.6 2.8-1.6 1.6 0 2.2 1.8 2 2l-12.5 12.3 14.4 14.1c.2.2-.5 2.2-2.2 2.2-.8 0-1.5-.4-2.7-1.6l-14-14v13.5zm34.9 2.5c-8 0-11.7-5.4-11.7-13v-15.4c0-2.3 1.1-3 2.7-3h.7c1.6 0 2.8.7 2.8 3v14.7c0 5.3 2.7 8.4 7.3 8.4 3.8 0 6.8-2.1 8.4-5.4v-17.7c0-2.3 1.1-3 2.7-3h.7c1.6 0 2.8.7 2.8 3v27.3c0 .2-1 .7-2.2.7-1.9 0-3.8-1-4-4.8-2.1 3-5.5 5.2-10.2 5.2zm27.8-3.5c0 2.3-1.2 3-2.8 3h-.7c-1.6 0-2.8-.7-2.8-3v-40c0-.2 1-.7 2.3-.7 1.9 0 4 1 4 5.4v21.3l10.6-11.8c1.3-1.6 2.6-2.2 3.7-2.2 2.2 0 3.5 2.2 3.2 2.5l-11.1 12.2 12.8 13.8c.2.3-1.2 2.5-3.4 2.5-1.2 0-2.4-.5-3.7-2.1l-12.1-13v12.1z"/></svg>