<svg id="Layer_1" xmlns="http://www.w3.org/2000/svg" xmlns:xlink="http://www.w3.org/1999/xlink" viewBox="0 0 645.6 283.5"><style>.st0{clip-path:url(#SVGID_2_);fill:#908271}.st1{fill:#fff}.st1,.st2{clip-path:url(#SVGID_2_)}.st3{fill:#fff}</style><defs><path id="SVGID_1_" d="M0 0h645.6v283.5H0z"/></defs><clipPath id="SVGID_2_"><use xlink:href="#SVGID_1_" overflow="visible"/></clipPath><path class="st0" d="M609.6 0H35.9C10.9 0 0 11.4 0 36.1v211.3c0 24.7 10.9 36.1 35.9 36.1h573.7c25 0 35.9-11.4 35.9-36.1V36.1C645.6 11.4 634.7 0 609.6 0"/><path class="st1" d="M226.2 196c0 16.5 10.8 30 25.9 32.9 3.1.6 6.2.8 9.4.6 8.6-.6 16.1-4 20.8-7.2l.2 11.3c-5 2.9-12.6 6.4-24.6 6.4-24.6 0-43-18.9-43-43.8s18.4-43.8 43-43.8c12 0 19.6 3.4 24.6 6.3l-.2 11.3c-4.7-3.2-12.2-6.8-20.8-7.4-3.2-.2-6.4 0-9.4.6-15.1 2.8-25.9 16.3-25.9 32.8M189.9 178c0-2.5-.7-5.1-1.6-6.9-.9-1.9-2.2-3.3-4.3-4.6-1.7-1-3.7-1.7-6-2.1-2.3-.4-5-.6-8.1-.6H155v30.9h13.1c3.8 0 7-.2 9.7-.9 2.5-.6 5-1.7 6.9-3.3 1.8-1.5 3-3.3 3.9-5.3.9-1.9 1.3-4.1 1.3-7.2m25 60.8h-15l-27-33.1H155v33.1h-10.9v-85h24.6c5.1 0 9.4.2 12.8.8 4.3.8 6.9 1.8 9.8 3.8 3.1 2 4.9 4 6.7 7.2 1.8 3 3 7.9 3 12.4 0 5.8-1.3 10.5-4.1 14.9s-6.9 7.9-12.3 9.7l30.3 36.2zM122 153.7h-15.5L92 194.9c-3.2 9.4-5.8 18.3-7.9 26.4h-.2c-2.2-8.1-4.7-16.9-7.9-26.4l-14.6-41.1H45.9l-6 85.1h11.3l2.3-36.5c.8-12.9 1.4-27 1.6-37.6h.3c2.4 10.1 5.7 21 9.8 33.1l13.9 40.5h9.7l13.9-40.5c4.1-12.1 7.4-23 9.8-33.1h.3c.3 10.6.9 24.7 1.7 37.6l2.3 36.5H128l-6-85.2zM327.8 258.1h-6.5V25.4h6.5v232.4zM425.1 67.4c0-2.4-.6-4.3-1.8-5.6-1.2-1.3-2.9-2-5.3-2s-4.3.7-5.7 2.2c-1.4 1.4-2.2 3.2-2.4 5.4h15.2zm4.4 3.5h-19.6c0 1.6.3 3.1.7 4.3.5 1.2 1.2 2.2 2 3 .8.8 1.8 1.3 2.9 1.7 1.1.4 2.4.6 3.8.6 1.8 0 3.6-.4 5.5-1.1 1.8-.7 3.1-1.4 3.9-2.1h.2v4.9c-1.5.7-3.1 1.2-4.6 1.6-1.6.4-3.2.7-5 .7-4.4 0-7.9-1.2-10.4-3.6-2.5-2.4-3.7-5.8-3.7-10.2 0-4.4 1.2-7.8 3.6-10.4 2.4-2.6 5.5-3.8 9.4-3.8 3.6 0 6.4 1.1 8.4 3.2s2.9 5.1 2.9 9v2.2zM458.9 77.1V61.8c-1.2-.5-2.3-.9-3.3-1.1-1-.2-2-.3-3.2-.3-2.6 0-4.5.9-5.9 2.6-1.4 1.8-2.1 4.2-2.1 7.4s.4 5.3 1.5 6.9c1.1 1.6 2.9 2.8 5.4 2.8 1.3 0 2.6-.3 3.9-.8 1.3-.6 2.6-1.3 3.7-2.2m4.5 6.7h-4.5V81c-1.3 1.1-2.5 1.9-3.9 2.6-1.4.6-3.1 1-4.7 1-3.2 0-5.8-1.2-7.7-3.7-1.9-2.5-2.8-5.9-2.8-10.2 0-2.3.3-4.3 1-6.1.6-1.8 1.5-3.3 2.7-4.5 1.1-1.2 2.4-2.1 3.8-2.8 1.4-.6 3-1 4.5-1 1.4 0 2.7.1 3.8.4 1.1.3 2.2.7 3.4 1.4V46.5h4.5v37.3zM480.3 83.8h-4.5V57h4.5v26.8zm.3-31.3h-5v-4.7h5v4.7zM512.6 82.1c-1.5.7-2.9 1.3-4.3 1.7-1.3.4-2.8.6-4.3.6-1.9 0-3.7-.3-5.3-.9-1.6-.6-3-1.4-4.1-2.6-1.2-1.2-2.1-2.6-2.7-4.4-.6-1.8-1-3.8-1-6.2 0-4.4 1.2-7.8 3.6-10.3 2.4-2.5 5.6-3.8 9.5-3.8 1.5 0 3 .2 4.5.6 1.5.4 2.8 1 4.1 1.6v5h-.2c-1.4-1-2.8-1.9-4.2-2.4-1.5-.6-2.9-.8-4.3-.8-2.5 0-4.6.9-6 2.6-1.5 1.7-2.2 4.2-2.2 7.6 0 3.2.7 5.7 2.2 7.4 1.4 1.7 3.5 2.6 6.1 2.6.9 0 1.8-.1 2.8-.4.9-.2 1.8-.5 2.5-.9.6-.3 1.3-.7 1.8-1 .6-.4 1-.7 1.4-.9h.2v4.9zM540.8 77.2v-7.5c-1.4.1-3 .2-4.8.4-1.8.2-3.3.4-4.4.7-1.3.4-2.3 1-3.1 1.7-.8.8-1.2 1.9-1.2 3.2 0 1.6.5 2.7 1.4 3.5.9.8 2.3 1.2 4.2 1.2 1.6 0 3-.3 4.3-.9 1.2-.7 2.4-1.4 3.6-2.3m4.5 6.6h-4.5v-2.9c-.4.3-1 .7-1.6 1.1-.7.5-1.3.9-2 1.2-.7.4-1.6.7-2.6.9-1 .2-2.1.4-3.4.4-2.4 0-4.5-.8-6.1-2.4-1.7-1.6-2.5-3.6-2.5-6.1 0-2 .4-3.7 1.3-4.9.9-1.3 2.1-2.2 3.7-3 1.6-.7 3.6-1.2 5.9-1.5 2.3-.3 4.7-.4 7.3-.6v-.7c0-1-.2-1.9-.6-2.5-.4-.7-.9-1.2-1.5-1.6-.6-.4-1.4-.6-2.3-.7-.9-.1-1.8-.2-2.8-.2-1.2 0-2.5.1-3.9.5-1.5.3-2.9.8-4.5 1.3h-.2v-4.5c.9-.2 2.1-.5 3.8-.8 1.7-.3 3.3-.4 4.9-.4 1.9 0 3.5.2 4.9.5 1.4.3 2.6.8 3.6 1.6 1 .7 1.8 1.7 2.3 2.9.5 1.2.8 2.6.8 4.4v18z"/><g class="st2"><path class="st3" d="M562.2 83.8h-4.5V46.5h4.5v37.3z"/></g><path class="st1" d="M415.2 142.4c0-2.4-.6-4.3-1.8-5.6-1.2-1.3-2.9-2-5.3-2s-4.3.7-5.7 2.2c-1.4 1.5-2.2 3.2-2.4 5.4h15.2zm4.4 3.4H400c0 1.7.3 3.1.8 4.3.5 1.2 1.2 2.2 2 3 .8.8 1.8 1.3 3 1.7 1.1.4 2.4.6 3.7.6 1.8 0 3.6-.4 5.5-1.1 1.8-.7 3.1-1.5 3.9-2.1h.2v4.9c-1.5.6-3.1 1.2-4.7 1.6-1.6.4-3.2.6-5 .6-4.4 0-7.9-1.2-10.4-3.6-2.5-2.4-3.7-5.8-3.7-10.2 0-4.4 1.2-7.8 3.6-10.4 2.4-2.6 5.5-3.9 9.5-3.9 3.6 0 6.4 1.1 8.4 3.2s2.9 5.1 2.9 9v2.4zM451.4 151c0 2.4-1 4.4-3 6-2 1.6-4.8 2.4-8.3 2.4-2 0-3.8-.2-5.5-.7-1.7-.5-3-1-4.2-1.6v-5h.2c1.4 1.1 3 1.9 4.7 2.6 1.7.6 3.4.9 5 .9 2 0 3.5-.3 4.6-1 1.1-.6 1.7-1.7 1.7-3 0-1.1-.3-1.9-.9-2.4-.6-.5-1.8-1-3.5-1.4-.6-.1-1.5-.3-2.5-.5s-2-.4-2.8-.6c-2.4-.6-4-1.5-5-2.7-1-1.2-1.5-2.7-1.5-4.4 0-1.1.2-2.2.7-3.1.4-1 1.1-1.8 2.1-2.6.9-.8 2-1.4 3.4-1.8 1.4-.4 2.9-.7 4.7-.7 1.6 0 3.2.2 4.9.6 1.6.4 3 .9 4.1 1.4v4.8h-.2c-1.1-.8-2.5-1.6-4.2-2.2-1.7-.6-3.3-.9-4.8-.9-1.6 0-3 .3-4.2 1-1.1.6-1.7 1.6-1.7 2.8 0 1.1.4 1.9 1 2.5.7.6 1.8 1 3.3 1.4.8.2 1.8.4 2.8.6 1 .2 1.9.4 2.6.5 2.1.5 3.7 1.3 4.8 2.5 1.2 1 1.7 2.6 1.7 4.6M481.5 142.4c0-2.4-.6-4.3-1.8-5.6-1.2-1.3-2.9-2-5.3-2s-4.3.7-5.7 2.2c-1.4 1.5-2.2 3.2-2.4 5.4h15.2zm4.4 3.4h-19.6c0 1.7.2 3.1.7 4.3.5 1.2 1.2 2.2 2 3 .8.8 1.8 1.3 2.9 1.7 1.1.4 2.4.6 3.8.6 1.8 0 3.6-.4 5.5-1.1 1.8-.7 3.1-1.5 3.9-2.1h.2v4.9c-1.5.6-3.1 1.2-4.7 1.6-1.6.4-3.2.6-5 .6-4.4 0-7.9-1.2-10.4-3.6-2.5-2.4-3.7-5.8-3.7-10.2 0-4.4 1.2-7.8 3.6-10.4 2.4-2.6 5.5-3.9 9.4-3.9 3.6 0 6.4 1.1 8.4 3.2s2.9 5.1 2.9 9v2.4zM514.3 152.1v-7.5c-1.4.1-3 .2-4.8.4-1.9.2-3.3.4-4.4.7-1.3.4-2.3 1-3.1 1.7-.8.8-1.2 1.9-1.2 3.2 0 1.6.5 2.7 1.4 3.5.9.8 2.3 1.2 4.2 1.2 1.6 0 3-.3 4.3-.9 1.3-.7 2.5-1.4 3.6-2.3m4.5 6.6h-4.5v-2.9c-.4.3-.9.6-1.6 1.1-.7.5-1.3.9-2 1.2-.7.4-1.6.7-2.6.9-1 .2-2.1.4-3.4.4-2.4 0-4.4-.8-6.1-2.4-1.7-1.6-2.5-3.6-2.5-6.1 0-2 .4-3.7 1.3-4.9.9-1.3 2.1-2.3 3.7-3 1.6-.7 3.6-1.2 5.9-1.5 2.3-.3 4.7-.5 7.3-.6v-.7c0-1-.2-1.9-.5-2.5-.4-.7-.9-1.2-1.5-1.6-.6-.4-1.4-.6-2.3-.7-.9-.1-1.8-.2-2.8-.2-1.2 0-2.5.2-3.9.5-1.5.3-2.9.8-4.5 1.4h-.2v-4.6c.9-.2 2.1-.5 3.8-.8 1.7-.3 3.3-.4 4.9-.4 1.9 0 3.5.2 4.9.5 1.4.3 2.6.8 3.6 1.6 1 .7 1.8 1.7 2.3 2.9.5 1.2.8 2.6.8 4.3v18.1zM547.5 136.8h-.2c-.7-.1-1.3-.3-2-.3-.6-.1-1.4-.1-2.2-.1-1.4 0-2.7.3-4 .9-1.3.6-2.6 1.4-3.8 2.4v19h-4.5V132h4.5v3.9c1.8-1.4 3.4-2.5 4.8-3 1.4-.6 2.8-.9 4.2-.9h1.7c.4 0 .9.1 1.6.2v4.6zM575.7 157.1c-1.5.7-2.9 1.3-4.3 1.7-1.4.4-2.8.6-4.3.6-1.9 0-3.7-.3-5.3-.9-1.6-.6-3-1.4-4.1-2.6-1.2-1.2-2.1-2.6-2.7-4.4-.6-1.8-1-3.8-1-6.2 0-4.4 1.2-7.8 3.6-10.3 2.4-2.5 5.6-3.8 9.5-3.8 1.5 0 3 .2 4.5.6 1.5.4 2.8 1 4.1 1.6v5h-.2c-1.4-1-2.8-1.8-4.3-2.4-1.5-.6-2.9-.8-4.3-.8-2.5 0-4.6.9-6.1 2.6-1.5 1.7-2.2 4.2-2.2 7.6 0 3.2.7 5.7 2.2 7.4 1.4 1.7 3.5 2.6 6.1 2.6.9 0 1.8-.1 2.8-.4.9-.2 1.8-.5 2.5-.9.7-.3 1.3-.7 1.8-1 .6-.4 1-.7 1.4-.9h.2v4.9zM609.5 158.7H605v-15.2c0-1.2-.1-2.4-.2-3.5s-.4-1.9-.8-2.5c-.4-.7-1-1.2-1.7-1.5-.8-.3-1.7-.5-2.9-.5s-2.5.3-3.9.9c-1.3.6-2.6 1.4-3.9 2.3v19.9H587v-37.3h4.5v13.5c1.4-1.2 2.9-2.1 4.4-2.7 1.5-.7 3.1-1 4.6-1 2.9 0 5.1.9 6.6 2.6 1.5 1.7 2.3 4.2 2.3 7.5v17.5zM416.7 220.3c0-3.4-.7-6-2-7.6-1.4-1.7-3.3-2.5-5.7-2.5-2.4 0-4.3.8-5.7 2.5-1.3 1.7-2 4.2-2 7.6 0 3.3.7 5.8 2 7.6 1.4 1.7 3.2 2.6 5.7 2.6 2.4 0 4.3-.9 5.6-2.5 1.4-1.8 2.1-4.4 2.1-7.7m4.7 0c0 4.4-1.1 7.8-3.4 10.3-2.2 2.5-5.2 3.8-9 3.8s-6.8-1.3-9-3.8-3.3-5.9-3.3-10.3c0-4.3 1.1-7.8 3.3-10.3 2.2-2.5 5.2-3.8 9-3.8s6.8 1.3 9 3.8c2.3 2.5 3.4 5.9 3.4 10.3M454 233.7h-4.5v-3c-1.5 1.2-3 2.1-4.4 2.8-1.4.6-2.9.9-4.6.9-2.8 0-5-.9-6.6-2.6-1.6-1.7-2.4-4.2-2.4-7.5v-17.4h4.5v15.2c0 1.3.1 2.5.2 3.5s.4 1.8.8 2.5 1 1.2 1.7 1.5c.7.3 1.7.5 3 .5 1.2 0 2.5-.3 3.9-.9 1.4-.6 2.7-1.4 3.9-2.3V207h4.5v26.7zM488.9 233.7h-4.5v-15.2c0-1.2-.1-2.4-.2-3.5s-.4-1.9-.8-2.5c-.4-.7-1-1.2-1.7-1.5-.8-.3-1.7-.5-2.9-.5s-2.5.3-3.9.9c-1.3.6-2.6 1.4-3.9 2.3v19.9h-4.5v-26.8h4.5v3c1.4-1.2 2.9-2.1 4.4-2.7 1.5-.7 3.1-1 4.6-1 2.9 0 5.1.9 6.6 2.6 1.5 1.7 2.3 4.2 2.3 7.5v17.5zM521.2 232c-1.5.7-2.9 1.3-4.3 1.7-1.3.4-2.8.6-4.3.6-1.9 0-3.7-.3-5.3-.9-1.6-.6-3-1.4-4.1-2.6-1.2-1.2-2.1-2.6-2.7-4.4-.6-1.8-1-3.8-1-6.2 0-4.4 1.2-7.8 3.6-10.3 2.4-2.5 5.6-3.8 9.5-3.8 1.5 0 3 .2 4.5.7 1.5.4 2.8 1 4.1 1.6v5h-.2c-1.4-1-2.8-1.8-4.2-2.4-1.5-.6-2.9-.9-4.3-.9-2.6 0-4.6.9-6 2.6-1.5 1.7-2.2 4.3-2.2 7.6 0 3.2.7 5.7 2.2 7.4 1.4 1.7 3.5 2.6 6.1 2.6.9 0 1.8-.1 2.8-.3.9-.2 1.8-.5 2.5-.9.7-.3 1.3-.6 1.8-1 .6-.4 1-.7 1.4-.9h.2v4.8zM537.4 233.7h-4.5v-26.8h4.5v26.8zm.3-31.3h-5v-4.7h5v4.7z"/><g class="st2"><path class="st3" d="M554.3 233.7h-4.5v-37.3h4.5v37.3z"/></g><path class="st1" d="M363.2 216c0 6.9 4.5 12.6 10.9 13.8 1.3.3 2.6.3 3.9.2 3.6-.2 6.7-1.7 8.7-3l.1 4.7c-2.1 1.2-5.3 2.7-10.3 2.7-10.3 0-18-7.9-18-18.4 0-10.5 7.7-18.4 18-18.4 5.1 0 8.2 1.4 10.3 2.7l-.1 4.7c-2-1.3-5.1-2.9-8.7-3.1-1.4-.1-2.7 0-3.9.3-6.4 1.2-10.9 6.9-10.9 13.8M379.5 133.2c0-1-.3-2.1-.7-2.9-.4-.8-.9-1.4-1.8-1.9-.7-.4-1.5-.7-2.5-.9-1-.2-2.1-.2-3.4-.2h-6.2v13h5.5c1.6 0 3-.1 4.1-.4 1-.2 2.1-.7 2.9-1.4.7-.7 1.3-1.4 1.6-2.2.4-.9.5-1.8.5-3.1m10.5 25.5h-6.3l-11.3-13.9h-7.5v13.9h-4.6V123h10.3c2.1 0 3.9.1 5.4.3 1.8.3 2.9.8 4.1 1.6 1.3.8 2 1.7 2.8 3 .7 1.3 1.3 3.3 1.3 5.2 0 2.4-.5 4.4-1.7 6.2-1.2 1.9-2.9 3.3-5.2 4.1l12.7 15.3zM393.4 48.1h-6.5l-6.1 17.2c-1.3 4-2.4 7.7-3.3 11.1h-.1c-.9-3.4-2-7.1-3.3-11.1L368 48.1h-6.5L359 83.8h4.8l.9-15.3c.3-5.4.6-11.3.7-15.8h.1c1 4.2 2.4 8.8 4.1 13.9l5.8 17h4.1l5.8-17c1.7-5.1 3.1-9.6 4.1-13.9h.1c.1 4.4.4 10.4.7 15.8l1 15.3h4.8l-2.6-35.7z"/></svg>