<?xml version="1.0" encoding="utf-8"?>
<!-- Generator: Adobe Illustrator 21.0.2, SVG Export Plug-In . SVG Version: 6.00 Build 0)  -->
<svg version="1.1" id="Layer_1" xmlns="http://www.w3.org/2000/svg" xmlns:xlink="http://www.w3.org/1999/xlink" x="0px" y="0px"
	 width="391.2px" height="283.5px" viewBox="0 0 391.2 283.5" enable-background="new 0 0 391.2 283.5" xml:space="preserve">
<path fill="#004B8D" d="M321.7,44.6c-13.9-4.1-22.2-5-22.2-12.8c0-5.3,5-9.3,13.6-9.3c10.2,0,28.2,8,28.2,8l9.1-21.1
	c0,0-16.1-9.5-36.3-9.5c-27,0-44.4,14.7-44.4,34.2c0,16.9,11,24.4,34.6,30.7c13.2,3.5,21.3,6.2,21.3,14.9c0,6.4-6,11.1-13.8,11.1
	c-17.4,0-36.1-10.6-36.1-10.6l-9.8,20.7c0,0,16.2,12.8,41.9,12.8c29.2,0,47.5-15.3,47.5-36.3C355.4,61.2,344.4,51.3,321.7,44.6"/>
<path fill="#004B8D" d="M69.4,2.1c-13.1,0-26.6,0-26.6,0v108.5h27.6l-0.1-64.4c0,0,21.6,37.2,40.7,64.4c18.6,0,23,0,23,0V2.1h-27.1
	l0,56.5C106.9,58.6,91.8,32.2,69.4,2.1"/>
<polyline fill="#004B8D" points="222.8,110.3 222.8,63.6 181.8,63.6 181.8,110.3 154.2,110.3 154.2,2.1 181.8,2.1 181.8,43.3 
	222.8,43.3 222.8,2.1 250.3,2.1 250.3,110.3 222.8,110.3 "/>
<path fill="#00A4E4" d="M196,176.6c-9-16.1-39.5-42.7-93.9-34c-20.6,1.8-29.2,3.1-40.1,2.2c-43.2-3.3-50.8-27.2-51.2-28.5H0
	c0,0,5.9,46.4,53.2,54.3c11.6,1.9,35.7-0.4,51.3-2.9c38.3-6.3,67.7-7.3,91.4,25.6c0,0,0.3,0.4,0.6,0.4c0.5,0,0.6-0.4,0.6-0.4
	S200.3,187,196,176.6"/>
<path fill="#00A4E4" d="M380.4,116.4c-0.4,1.3-8.4,25.1-51.6,28.4c-10.9,0.8-19.5-0.5-40.1-2.2c-53.8-8.7-76.6,17.9-83.2,32.3
	c-4.3,9.7-2,18.5-2,18.5s0.2,0.4,0.6,0.4c0.3,0,0.6-0.4,0.6-0.4c23.8-32.9,43.3-32,81.6-25.7c15.6,2.6,39.8,4.8,51.3,2.9
	c47.3-7.8,53.7-54.2,53.7-54.2H380.4"/>
<path fill="#004B8D" d="M81.9,240.5v21.8c-5.7,1.9-11.6,3.2-17.7,3.2c-18.3,0-29.8-12.1-29.8-27.6c0-14.4,11.5-27,30.1-27
	c5.8,0,11.6,1.8,15.1,4.1l-3.4,6.3c-2.9-1.5-7.3-2.8-11.4-2.8c-11.3,0-19.1,7.6-19.1,19.6c0,12.5,8.9,19.9,18,19.9
	c2.9,0,5.2-0.3,7.5-1.3v-16.2H81.9"/>
<path fill="#004B8D" d="M97.8,233.5h0.1l2-2.9c1.2-1.6,3.4-4.6,6.5-4.6c2.3,0,4.7,1.2,6.8,3.4l-3.8,6.9c-1.7-0.8-2.7-1.3-4.8-1.3
	c-3.5,0-6.9,2.8-6.9,10.9v18.6h-10v-37.7h10V233.5"/>
<path fill="#004B8D" d="M135.1,259.1c0,2,0.2,4.2,1,5.5h10.6c-1.2-2.6-1.6-6.2-1.6-9.2V240c0-11.8-8.5-14-15.5-14
	c-5.2,0-9.8,1.3-14.5,5.1l3.2,4.8c2.6-2.3,5.7-3.8,10-3.8c3.2,0,6.3,2.2,6.9,5.7l-8.9,2.6c-8.8,2.5-14,6.6-14,13.7
	c0,6.9,4.9,11.5,10.8,11.5c3.5,0,6.9-2.3,9.7-4.5L135.1,259.1 M135.3,242.7c0.8,11.1-4.4,16.1-8.5,16.1c-2.4,0-4.5-2.3-4.5-5.6
	c0-4.3,2.5-7.2,7.4-8.7L135.3,242.7z"/>
<path fill="#004B8D" d="M161.8,231.3h0.2c2.6-3.4,7.5-5.4,11.9-5.4c4.8,0,8.8,1.9,11.1,5.4c3.2-3,8.1-5.3,12.5-5.4
	c8.5-0.1,13,5.1,13.1,13.8v24.7h-10v-22.9c0-4.4-1.5-8.9-6.5-8.9c-4.8,0-7.8,2.9-7.8,9.4v22.5h-10v-23c0-5.3-2.3-8.9-6.6-8.9
	c-4.8,0-7.7,3.2-7.7,9.7v22.3h-10v-37.7h10V231.3"/>
<path fill="#004B8D" d="M226.4,226.9h-10v56.6h10v-23.5c2.8,3.3,6.7,5.6,11.3,5.6c10.8,0,17.6-10.6,17.6-20.6
	c0-8.3-4.8-18.9-16.7-18.9c-4.5,0-9.4,2.3-12.1,6.1h-0.1V226.9 M236.1,232c5.7,0,8.6,6.5,8.6,13c0,6.6-2.3,14.5-9,14.5
	c-5.4,0-9.3-5.4-9.3-13.3C226.4,237.5,229.7,232,236.1,232z"/>
<path fill="#004B8D" d="M258.7,215.6c0-2.9,2.4-5.8,5.8-5.8c3.5,0,6.2,2.9,6.2,5.8c0,3.2-2.3,6.3-6,6.3
	C261.1,221.9,258.7,218.8,258.7,215.6 M259.7,226.9h10v37.7h-10V226.9z"/>
<path fill="#004B8D" d="M297.8,259.1c0,2,0.2,4.2,1,5.5h10.6c-1.2-2.6-1.6-6.2-1.6-9.2V240c0-11.8-8.5-14-15.5-14
	c-5.2,0-9.8,1.3-14.5,5.1l3.2,4.8c2.6-2.3,5.7-3.8,10-3.8c3.3,0,6.3,2.2,6.9,5.7l-8.9,2.6c-8.7,2.5-14,6.6-14,13.7
	c0,6.9,4.9,11.5,10.8,11.5c3.5,0,6.9-2.3,9.7-4.5L297.8,259.1 M297.9,242.7c0.8,11.1-4.5,16.1-8.4,16.1c-2.4,0-4.5-2.3-4.5-5.6
	c0-4.3,2.5-7.2,7.4-8.7L297.9,242.7z"/>
<path fill="#004B8D" d="M325.3,231.3c3.4-3.6,8.2-5.4,12.9-5.4c8.8,0,13.5,4.8,13.5,14.3v24.3h-10v-23.2c0-5.3-2.3-8.7-7.5-8.7
	c-4.9,0-8.8,3.2-8.8,9.4v22.5h-10v-37.7h10V231.3"/>
</svg>
