<svg xmlns="http://www.w3.org/2000/svg" viewBox="0 0 2078.538 283.637"><path fill-rule="evenodd" clip-rule="evenodd" fill="#2C71B1" d="M1662.227.09h416.22v155.823h-416.22z"/><path fill="none" stroke="#2C71B1" stroke-width=".183" stroke-miterlimit="22.926" d="M1662.227.09h416.22v155.823h-416.22z"/><path fill="#FFF" d="M1682.75 139.076h31.37l19.524-82.432h.374l24.107 82.432h42.374l30.185-120.63h-31.173l-19.95 81.918h-.375l-22.766-81.917h-43.465l-30.206 120.63M1821.862 139.076h34.114l12.926-51.67h40.348l-12.926 51.67h34.114l30.185-120.63h-34.113l-11.544 46.147h-40.35l11.556-46.146h-34.124l-30.186 120.63M1949.463 135.968c10.506 3.455 24.928 5.18 36.847 5.18 28.43 0 58.428-8.47 66.263-39.75 10.89-43.554-52.92-30.41-48.026-49.934 2.64-10.547 17.113-11.238 25.738-11.238 9.715 0 19.19 1.726 27.037 5.523l8.427-24.877c-7.93-2.77-19.6-4.505-31.89-4.505-25.677 0-57.743 7.96-65.007 36.986-10.983 43.902 53.088 29.73 47.466 52.194-2.433 9.68-13.218 11.757-24.035 11.757-14.12 0-25.55-3.46-33.22-7.95l-9.602 26.613"/><path d="M0 152h13.046V77.14h.254L54.52 152h16.694V60.96H58.168v73.304h-.254L17.737 60.96H0V152M101.743 118.74c0-12.65 7.69-24.906 20.865-24.906 13.046 0 20.735 12.256 20.735 24.907 0 11.877-6.38 24.923-20.735 24.923-14.48 0-20.865-13.046-20.865-24.922m-13.046 0c0 19.047 13.82 34.836 33.91 34.836 19.962 0 33.782-15.79 33.782-34.835 0-20.215-13.566-34.824-33.782-34.824-20.346 0-33.91 14.61-33.91 34.825zM172.817 152h12.27v-30.247c0-16.708 7.17-27.136 18.133-27.136 2.083 0 4.562.26 6.775 1.174V84.83c-2.608-.52-4.427-.914-8.084-.914-7.044 0-14.09 4.956-17.347 11.876h-.265V85.48h-11.482V152M258.92 85.48H241.31V66.176l-12.26 3.918V85.48h-15.01v9.917h15.01v38.867c0 13.31 7.823 19.312 20.48 19.312 3.916 0 7.688-1.04 10.432-1.828V141.31c-1.83 1.18-4.562 2.354-8.354 2.354-5.6 0-10.297-4.172-10.297-11.877v-36.39h17.612V85.48M274.31 152h12.26V121.22c0-16.173 6.256-27.385 20.21-27.385 10.704.65 14.102 8.214 14.102 23.738V152h12.25v-39.516c0-17.867-7.688-28.57-24.916-28.57-9.258 0-16.948 4.043-21.385 11.088h-.26V54.176h-12.26V152M409.58 152h13.03V72.445h28.305V60.96h-69.65v11.484h28.314V152M461.742 112.355c.915-8.614 5.88-18.52 17.883-18.52 10.568 0 16.553 8.348 16.553 18.52h-34.436m42.395 24.658c-3.003 2.478-12.386 6.65-20.47 6.65-11.617 0-21.925-9.004-21.925-22.175h47.476c0-21.4-7.17-37.573-29.344-37.573-18.776 0-31.173 13.96-31.173 33.656 0 21.655 10.828 36.005 34.437 36.005 10.952 0 16.303-2.618 21-4.307v-12.255zM534.27 112.355c.916-8.614 5.872-18.52 17.863-18.52 10.568 0 16.574 8.348 16.574 18.52H534.27m42.396 24.658c-3.003 2.478-12.386 6.65-20.49 6.65-11.608 0-21.905-9.004-21.905-22.175h47.477c0-21.4-7.17-37.573-29.344-37.573-18.776 0-31.173 13.96-31.173 33.656 0 21.655 10.827 36.005 34.425 36.005 10.962 0 16.313-2.618 21.01-4.307v-12.255zM592.584 149.918c5.6 2.997 12 3.657 18.257 3.657 11.857 0 23.214-6.52 23.214-20.745 0-21.26-28.825-17.348-28.825-30.913 0-5.48 5.475-8.084 11.73-8.084 2.878 0 10.173 1.688 12.926 3.393l1.04-10.703c-4.833-1.43-9.52-2.607-15.255-2.607-13.185 0-23.482 6.65-23.482 20.48 0 18.65 28.825 17.612 28.825 29.738 0 7.175-6.92 9.528-12.532 9.528-3.52 0-10.432-1.568-15.253-4.696l-.643 10.952M724.715 126.18c0 9.913-6.4 17.482-18.527 17.482-5.61 0-12.386-3.792-12.386-10.832 0-11.736 16.428-12.78 23.08-12.78 2.617 0 5.226.265 7.833.265v5.865m-35.744-25.572c4.958-4.172 12.397-6.774 19.297-6.774 12.27 0 16.45 5.87 16.45 17.342-4.833-.254-8.22-.254-13.052-.254-12.646 0-30.913 5.21-30.913 21.91 0 14.478 10.048 20.744 24.388 20.744 11.232 0 17.737-6.14 20.615-10.183h.26V152h11.472c-.25-1.947-.52-5.47-.52-13.034V111.44c0-18.132-7.69-27.524-26.736-27.524-8.468 0-15.783 2.607-21.914 6.266l.655 10.426zM757.707 152h12.272V121.22c0-16.173 6.254-27.385 20.21-27.385 10.69.65 14.09 8.214 14.09 23.738V152h12.26v-39.516c0-17.867-7.7-28.57-24.917-28.57-9.258 0-18.122 4.567-21.79 12.132h-.25V85.48h-11.877V152M846.02 118.486c-.26-12.132 4.945-24.652 18.256-24.652 13.3 0 19.7 12.65 19.7 25.047 0 11.088-5.745 24.783-19.565 24.783-13.175 0-18.65-14.74-18.39-25.177M884.496 152h11.73V54.177h-12.25v40.44h-.26c-3.782-6.135-10.432-10.7-22.05-10.7-19.306 0-28.688 15.788-28.688 33.655 0 18.133 8.478 36.005 28.553 36.005 11.877 0 19.44-6 22.694-10.957h.27V152zM955.187 152h13.05v-41.474h43.57V152h13.04V60.96h-13.04v38.084h-43.57V60.96h-13.05V152M1087.068 126.18c0 9.913-6.4 17.482-18.527 17.482-5.61 0-12.395-3.792-12.395-10.832 0-11.736 16.438-12.78 23.09-12.78 2.607 0 5.226.265 7.834.265v5.865m-35.747-25.572c4.956-4.172 12.386-6.774 19.307-6.774 12.26 0 16.438 5.87 16.438 17.342-4.832-.254-8.23-.254-13.052-.254-12.646 0-30.902 5.21-30.902 21.91 0 14.478 10.038 20.744 24.388 20.744 11.212 0 17.737-6.14 20.605-10.183h.26V152h11.48c-.26-1.947-.528-5.47-.528-13.034V111.44c0-18.132-7.69-27.524-26.737-27.524-8.48 0-15.773 2.607-21.904 6.266l.643 10.426zM1120.06 152h12.27v-30.247c0-16.708 7.17-27.136 18.133-27.136 2.09 0 4.552.26 6.775 1.174V84.83c-2.608-.52-4.438-.914-8.085-.914-7.045 0-14.09 4.956-17.342 11.876h-.27V85.48h-11.48V152M1206.148 85.48h-17.603V66.176l-12.262 3.918V85.48h-15.004v9.917h15.003v38.867c0 13.31 7.824 19.312 20.48 19.312 3.907 0 7.7-1.04 10.433-1.828V141.31c-1.818 1.18-4.562 2.354-8.344 2.354-5.61 0-10.308-4.172-10.308-11.877v-36.39h17.603V85.48M1223.116 54.176h12.25V152h-12.25zM1266.415 112.355c.915-8.614 5.882-18.52 17.873-18.52 10.557 0 16.563 8.348 16.563 18.52h-34.435m42.396 24.658c-3.002 2.478-12.385 6.65-20.48 6.65-11.605 0-21.914-9.004-21.914-22.175h47.477c0-21.4-7.17-37.573-29.344-37.573-18.777 0-31.174 13.96-31.174 33.656 0 21.655 10.827 36.005 34.436 36.005 10.952 0 16.303-2.618 21-4.307v-12.255zM1380.55 118.486c.26 10.438-5.217 25.177-18.393 25.177-13.83 0-19.566-13.695-19.566-24.782 0-12.395 6.402-25.046 19.703-25.046 13.3 0 18.517 12.65 18.257 24.652m-50.21 60.91h12.25v-36.522h.272c3.772 6.13 10.422 10.702 22.175 10.702 20.075 0 28.554-17.747 28.554-36.004 0-17.867-9.393-33.656-28.688-33.656-11.74 0-19.306 6-22.57 10.962h-.26V85.48h-11.73v93.917zM1418.643 118.74c0-12.65 7.69-24.906 20.865-24.906 13.04 0 20.74 12.256 20.74 24.907 0 11.877-6.39 24.923-20.74 24.923-14.475 0-20.865-13.046-20.865-24.922m-13.05 0c0 19.047 13.818 34.836 33.915 34.836 19.96 0 33.78-15.79 33.78-34.835 0-20.215-13.57-34.824-33.78-34.824-20.346 0-33.916 14.61-33.916 34.825zM1498.34 118.74c0-12.65 7.69-24.906 20.866-24.906 13.04 0 20.73 12.256 20.73 24.907 0 11.877-6.38 24.923-20.73 24.923-14.475 0-20.865-13.046-20.865-24.922m-13.05 0c0 19.047 13.82 34.836 33.916 34.836 19.96 0 33.78-15.79 33.78-34.835 0-20.215-13.57-34.824-33.78-34.824-20.346 0-33.916 14.61-33.916 34.825zM1570.984 54.176h12.26V152h-12.26z"/><path fill="#2C71B1" d="M844.762 282.58h5.632v-48.745h.156l28.48 48.745h7.576v-56.506h-5.62v49.71h-.168l-28.96-49.71h-7.096v56.506M900.063 282.58h5.63v-26.632h28.794v26.632h5.622v-56.506h-5.623v25.01h-28.793v-25.01h-5.63v56.506M952.194 281.125c3.003 1.3 7.336 2.432 12.885 2.432 8.81 0 18.67-4.54 18.67-15.96 0-16.512-26.1-16.595-26.1-27.932 0-7.284 6.44-9.705 12.323-9.705 3.824 0 7.824.728 10.35 2.1l.893-5.092c-3.907-1.455-8.396-1.87-11.17-1.87-10.027 0-18.028 5.662-18.028 14.733 0 14.818 26.102 16.19 26.102 27.288 0 8.02-5.788 11.575-12.802 11.575-5.3 0-9.227-1.205-12.563-3.314l-.56 5.745M1017.033 282.58h5.632v-26.632h20.47v-4.864h-20.47v-20.168h21.447v-4.842h-27.08v56.506M1055.854 261.943c0-9.56 4.812-17.25 13.79-17.25 8.966 0 13.787 7.69 13.787 17.25 0 9.55-4.82 17.23-13.787 17.23-8.978-.002-13.79-7.68-13.79-17.23m-5.62 0c0 11.243 5.942 21.603 19.41 21.603 13.455 0 19.41-10.36 19.41-21.603 0-11.264-5.955-21.623-19.41-21.623-13.467 0-19.41 10.36-19.41 21.623zM1131.22 241.286h-5.134v22.84c0 6.878-2.94 15.046-12.323 15.046-7.098 0-9.86-5.01-9.86-12.78v-25.105h-5.145v26.393c0 9.07 3.917 15.878 14.194 15.878 8.645 0 11.752-4.613 13.466-8.334h.156v7.357h4.967c-.32-3.324-.32-6.546-.32-9.715v-31.58M1144.114 282.58h5.133v-22.84c0-6.868 2.94-15.046 12.313-15.046 7.097 0 9.87 5.02 9.87 12.78v25.105h5.145v-26.395c0-9.07-3.917-15.866-14.193-15.866-8.646 0-11.753 4.612-13.467 8.343h-.156v-7.378h-4.98c.334 3.325.334 6.567.334 9.716v31.58M1192.64 261.943c0-8.02 2.535-17.25 12.313-17.25 9.134 0 12.323 9.706 12.323 17.25 0 7.523-3.19 17.23-12.323 17.23-9.778-.002-12.313-9.23-12.313-17.23m29.77-40.088h-5.134v26.393h-.166c-.737-2.016-4.82-7.928-12.968-7.928-12.24 0-17.135 9.06-17.135 21.623 0 12.22 5.705 21.613 17.135 21.613 5.943 0 10.193-2.275 12.968-7.523h.166v6.547h5.134v-60.725zM1258.217 264.28c0 4.46-.25 14.892-12.313 14.892-4.738 0-8.645-2.017-8.645-7.44 0-9.07 10.598-9.965 19.492-9.965h1.465v2.514m.488 18.3h5.05c-.404-2.826-.404-5.34-.404-8.666V255.71c0-10.776-4.312-15.39-14.59-15.39-3.677 0-9.06 1.3-12.24 2.836v4.946c3.835-2.44 7.92-3.408 12.24-3.408 6.922 0 9.457 3.554 9.457 10.6v2.12h-.977c-10.775 0-25.613.643-25.613 14.483 0 3.72 1.87 11.648 13.705 11.648 5.134 0 10.92-2.67 13.218-7.606h.155v6.64zM1293.536 241.286h-9.467v-11.74l-5.134 1.786v9.954h-8.167v4.375h8.166v24.128c0 7.523.322 13.77 9.456 13.77 2.535 0 5.06-.646 6.286-1.134l-.332-4.22c-1.466.572-2.774.968-4.73.968-4.166 0-5.548-3.076-5.548-6.796V245.66h9.467v-4.374M1307.886 223.476h-5.144v6.795h5.144v-6.794zm-5.144 59.104h5.144v-41.294h-5.144v41.294zM1323.316 261.943c0-9.56 4.81-17.25 13.778-17.25 8.967 0 13.778 7.69 13.778 17.25 0 9.55-4.812 17.23-13.778 17.23-8.967-.002-13.778-7.68-13.778-17.23m-5.642 0c0 11.243 5.954 21.603 19.42 21.603 13.457 0 19.41-10.36 19.41-21.603 0-11.264-5.953-21.623-19.41-21.623-13.466 0-19.42 10.36-19.42 21.623zM1366.2 282.58h5.143v-22.84c0-6.868 2.95-15.046 12.324-15.046 7.097 0 9.87 5.02 9.87 12.78v25.105h5.134v-26.395c0-9.07-3.916-15.866-14.192-15.866-8.646 0-11.742 4.612-13.457 8.343h-.165v-7.378h-4.967c.312 3.325.312 6.567.312 9.716v31.58M1445.41 282.58h5.63v-51.664h16.804v-4.842h-39.237v4.842h16.802v51.664M1467.51 282.58h5.145v-20.397c0-7.45 2.214-16.52 10.36-16.52 1.31 0 2.69.154 3.74.487v-5.34c-.894-.25-2.358-.49-3.585-.49-5.3 0-8.812 4.292-10.682 8.905h-.156v-7.938h-5.144c.322 2.993.322 4.696.322 9.237v32.056M1527.134 241.286H1522v22.84c0 6.878-2.94 15.046-12.322 15.046-7.087 0-9.86-5.01-9.86-12.78v-25.105h-5.145v26.393c0 9.07 3.918 15.878 14.194 15.878 8.646 0 11.752-4.613 13.467-8.334h.155v7.357h4.977c-.333-3.324-.333-6.546-.333-9.715v-31.58M1536.35 281.613c3.68 1.455 7.68 1.933 11.68 1.933 6.277 0 14.507-2.982 14.507-11.73 0-13.53-20.47-12.553-20.47-20.242 0-5.27 3.668-6.88 8.967-6.88 2.857 0 6.525.73 9.217 1.944l.49-4.458c-3.67-1.37-8.074-1.86-10.277-1.86-6.848 0-13.53 3.065-13.53 11.254 0 11.98 19.983 10.433 19.983 20.24 0 4.698-4.323 7.358-9.217 7.358-4.002 0-7.753-1.04-10.86-2.577l-.49 5.018M1589.708 241.286h-9.477v-11.74l-5.132 1.786v9.954h-8.156v4.375h8.156v24.128c0 7.523.322 13.77 9.467 13.77 2.524 0 5.05-.646 6.275-1.134l-.332-4.22c-1.466.572-2.765.968-4.718.968-4.167 0-5.56-3.076-5.56-6.796V245.66h9.477v-4.374"/><path fill="none" stroke="#2C71B1" stroke-width=".183" stroke-miterlimit="22.926" d="M1589.708 241.286h-9.477v-11.74l-5.132 1.786v9.954h-8.156v4.375h8.156v24.128c0 7.523.322 13.758 9.467 13.758 2.524 0 5.05-.634 6.275-1.122l-.332-4.22c-1.466.572-2.765.968-4.718.968-4.167 0-5.56-3.076-5.56-6.796V245.66h9.477v-4.374zm-53.357 40.327c3.68 1.455 7.68 1.933 11.68 1.933 6.277 0 14.507-2.982 14.507-11.73 0-13.53-20.47-12.553-20.47-20.242 0-5.27 3.668-6.88 8.967-6.88 2.857 0 6.525.73 9.217 1.944l.49-4.458c-3.67-1.37-8.074-1.86-10.277-1.86-6.848 0-13.53 3.065-13.53 11.254 0 11.98 19.983 10.433 19.983 20.24 0 4.698-4.323 7.358-9.217 7.358-4.002 0-7.753-1.04-10.86-2.577l-.49 5.018zm-9.216-40.327H1522v22.84c0 6.878-2.94 15.046-12.322 15.046-7.087 0-9.86-5.01-9.86-12.78v-25.105h-5.145v26.393c0 9.07 3.918 15.867 14.194 15.867 8.646 0 11.752-4.603 13.467-8.323h.155v7.357h4.977c-.333-3.324-.333-6.546-.333-9.715v-31.58zm-59.623 41.294h5.145v-20.397c0-7.45 2.214-16.52 10.36-16.52 1.31 0 2.69.154 3.74.487v-5.34c-.894-.25-2.358-.49-3.585-.49-5.3 0-8.812 4.292-10.682 8.905h-.156v-7.938h-5.144c.322 2.993.322 4.696.322 9.237v32.056zm-22.1 0h5.63v-51.664h16.804v-4.842h-39.236v4.842h16.802v51.664zm-79.21 0h5.143v-22.84c0-6.868 2.95-15.046 12.324-15.046 7.097 0 9.87 5.02 9.87 12.78v25.105h5.134v-26.395c0-9.07-3.916-15.866-14.192-15.866-8.646 0-11.742 4.612-13.457 8.343h-.165v-7.378h-4.967c.312 3.325.312 6.567.312 9.716v31.58zm-42.884-20.637c0-9.56 4.81-17.25 13.778-17.25 8.967 0 13.778 7.69 13.778 17.25 0 9.55-4.812 17.23-13.778 17.23-8.967-.002-13.778-7.68-13.778-17.23zm-5.642 0c0 11.243 5.954 21.603 19.42 21.603 13.457 0 19.41-10.36 19.41-21.603 0-11.264-5.953-21.623-19.41-21.623-13.466 0-19.42 10.36-19.42 21.623zm-9.788-38.467h-5.144v6.795h5.144v-6.794zm-5.144 59.104h5.144v-41.294h-5.144v41.294zm-9.206-41.294h-9.467v-11.74l-5.134 1.786v9.954h-8.167v4.375h8.166v24.128c0 7.523.322 13.758 9.456 13.758 2.535 0 5.06-.634 6.286-1.122l-.332-4.22c-1.466.572-2.774.968-4.73.968-4.166 0-5.548-3.076-5.548-6.796V245.66h9.467v-4.374zm-35.32 22.995c0 4.46-.248 14.892-12.312 14.892-4.738 0-8.645-2.017-8.645-7.44 0-9.07 10.598-9.965 19.492-9.965h1.465v2.514zm.49 18.3h5.05c-.405-2.826-.405-5.34-.405-8.666V255.71c0-10.776-4.312-15.39-14.59-15.39-3.677 0-9.06 1.3-12.24 2.836v4.946c3.835-2.44 7.92-3.408 12.24-3.408 6.922 0 9.457 3.554 9.457 10.6v2.12h-.977c-10.775 0-25.613.643-25.613 14.483 0 3.72 1.87 11.648 13.705 11.648 5.134 0 10.92-2.67 13.218-7.606h.155v6.64zm-66.066-20.637c0-8.02 2.535-17.25 12.313-17.25 9.134 0 12.313 9.706 12.313 17.25 0 7.523-3.18 17.23-12.313 17.23-9.778-.002-12.313-9.23-12.313-17.23zm29.77-40.088h-5.144v26.393h-.156c-.737-2.016-4.82-7.928-12.968-7.928-12.24 0-17.135 9.06-17.135 21.623 0 12.22 5.705 21.603 17.135 21.603 5.943 0 10.193-2.265 12.968-7.513h.156v6.547h5.144v-60.725zm-78.296 60.725h5.133v-22.84c0-6.868 2.94-15.046 12.313-15.046 7.097 0 9.87 5.02 9.87 12.78v25.105h5.145v-26.395c0-9.07-3.917-15.866-14.193-15.866-8.646 0-11.753 4.612-13.467 8.343h-.156v-7.378h-4.98c.334 3.325.334 6.567.334 9.716v31.58zm-12.895-41.294h-5.134v22.84c0 6.878-2.94 15.046-12.323 15.046-7.098 0-9.86-5.01-9.86-12.78v-25.105h-5.145v26.393c0 9.07 3.917 15.867 14.194 15.867 8.645 0 11.752-4.603 13.466-8.323h.156v7.357h4.967c-.32-3.324-.32-6.546-.32-9.715v-31.58zm-75.366 20.657c0-9.56 4.812-17.25 13.778-17.25 8.978 0 13.8 7.69 13.8 17.25 0 9.55-4.822 17.23-13.8 17.23-8.967-.002-13.778-7.68-13.778-17.23zm-5.622 0c0 11.243 5.943 21.603 19.4 21.603 13.466 0 19.42-10.36 19.42-21.603 0-11.264-5.954-21.623-19.42-21.623-13.456 0-19.4 10.36-19.4 21.623zm-33.2 20.637h5.633v-26.632h20.47v-4.863h-20.47v-20.17h21.447v-4.84h-27.08v56.505zm-64.838-1.455c3.003 1.3 7.336 2.42 12.885 2.42 8.81 0 18.67-4.53 18.67-15.95 0-16.51-26.1-16.593-26.1-27.93 0-7.284 6.44-9.705 12.323-9.705 3.824 0 7.824.728 10.35 2.1l.893-5.092c-3.907-1.455-8.396-1.87-11.17-1.87-10.027 0-18.028 5.662-18.028 14.733 0 14.818 26.102 16.19 26.102 27.288 0 8.02-5.788 11.575-12.802 11.575-5.3 0-9.227-1.205-12.563-3.314l-.56 5.745zm-52.13 1.455h5.63v-26.632h28.794v26.632h5.622v-56.506h-5.622v25.01h-28.793v-25.01h-5.632v56.506zm-55.302 0h5.632v-48.744h.156l28.48 48.744h7.576v-56.506h-5.62v49.71h-.168l-28.96-49.71h-7.096v56.506z"/></svg>