<svg xmlns="http://www.w3.org/2000/svg" viewBox="0 0 2249.208 283.468"><path d="M0 105.33c0 29.436 17.03 50.347 46.466 50.347s46.467-20.91 46.467-50.347c0-28.654-17.03-50.34-46.467-50.34C17.03 54.987 0 76.675 0 105.33m14.71 0c0-19.363 10.073-37.952 31.756-37.952S78.22 85.968 78.22 105.33c0 19.363-9.29 37.957-31.754 37.957-22.464 0-31.755-18.594-31.755-37.957zM102.236 154.128h15.48l17.044-27.885 17.813 27.885h16.275l-25.566-37.175 23.233-34.08h-14.71L136.31 108.43 120.82 82.874h-16.262l23.233 34.08M189.75 154.128h13.172V93.714h18.582v-10.84h-18.582v-7.75c0-9.29.77-16.26 12.392-16.26 2.32 0 4.652 0 6.19.773l.78-10.846c-3.1-.776-5.42-.776-9.29-.776-19.363 0-23.246 10.85-23.246 28.662v6.197h-17.03v10.84h17.03M243.968 118.498c0-13.168 8.522-26.33 22.464-26.33s22.464 13.162 22.464 26.33c0 12.397-6.97 26.332-22.464 26.332s-22.464-13.935-22.464-26.332m-13.943 0c0 20.137 14.724 37.178 36.407 37.178 20.914 0 35.625-17.04 35.625-37.178 0-21.683-13.942-37.178-35.625-37.178s-36.407 15.495-36.407 37.178zM319.87 154.128h13.174v-32.53c0-17.814 7.74-28.66 19.363-28.66 2.32 0 4.64 0 6.97.776V82.097c-2.33 0-4.65-.777-8.52-.777-7.74 0-14.71 5.42-18.594 12.395V82.873H319.87M383.38 118.503c-.77-13.174 5.42-26.334 19.363-26.334s20.914 13.16 20.914 26.333c0 11.618-6.19 26.326-20.914 26.326-13.943 0-20.132-15.485-19.363-26.327m41.058 35.625h12.392V49.568h-13.173v43.37h-.77c-3.87-6.97-10.84-11.618-23.232-11.618-20.145 0-30.217 17.044-30.217 35.633 0 19.363 8.52 38.724 30.217 38.724 12.392 0 20.914-6.192 24.002-11.62h.78v10.07zM573.922 56.536H559.98V112.3c0 18.595-5.42 30.987-23.233 30.987-17.825 0-24.015-12.392-24.015-30.986V56.537H498.79v57.315c0 27.112 13.942 41.826 37.957 41.826 23.233 0 37.176-14.714 37.176-41.825M597.925 154.128h13.173v-33.306c0-17.04 6.19-28.654 20.914-28.654 11.61.77 15.48 8.514 15.48 24.784v37.176h13.173V111.53c0-18.593-8.52-30.21-27.103-30.21-9.304 0-19.363 4.646-23.246 13.167V82.873h-12.392M697.84 52.668h-14.71v14.71h14.71v-14.71zm-13.16 101.46h12.393V82.873H684.68v71.255zM778.395 82.873h-13.173l-20.133 58.09-19.364-58.09h-13.942l25.552 71.255h15.494M800.078 111.532c.782-9.295 6.202-19.363 18.594-19.363 11.61 0 17.813 8.513 17.813 19.362m8.52 26.33c-3.1 3.1-13.173 6.967-21.694 6.967-12.39 0-23.232-9.29-23.232-23.23h50.35c0-23.242-7.754-40.28-30.987-40.28-20.13 0-33.305 14.72-33.305 35.633 0 23.233 11.623 38.724 36.407 38.724 11.61 0 17.813-3.096 22.464-4.65v-13.166zM868.24 154.128h12.39v-32.53c0-17.814 7.74-28.66 19.364-28.66 2.32 0 5.42 0 7.74.776V82.097c-3.088 0-4.64-.777-8.52-.777-7.74 0-15.48 5.42-18.583 12.395h-.78V82.873h-11.61M916.256 151.804c5.42 3.105 12.392 3.872 19.363 3.872 12.39 0 24.783-6.97 24.783-22.46 0-22.458-30.974-18.59-30.974-32.533 0-6.195 6.19-8.514 12.39-8.514 3.09 0 10.842 1.544 13.943 3.092l.77-10.84c-4.653-1.55-10.073-3.102-16.263-3.102-13.942 0-24.784 6.974-24.784 21.69 0 20.137 30.974 18.59 30.974 31.755 0 7.745-7.74 10.064-13.16 10.064-3.87 0-11.624-1.544-16.263-4.645M991.39 52.668h-14.725v14.71h14.724v-14.71zm-13.943 101.46h13.16V82.873h-13.16v71.255zM1052.58 82.873h-19.363v-20.14l-12.392 3.87v16.27h-16.274v10.84h16.275v41.052c0 14.72 7.74 20.91 21.683 20.91 3.87 0 7.74-1.547 10.84-2.328V142.51c-2.318 1.546-4.65 2.32-8.52 2.32-6.19 0-11.61-3.868-11.61-12.39V93.714h19.363M1062.64 183.55c2.332.782 4.65 1.564 8.52 1.564 17.814 0 22.465-16.263 27.117-29.438l26.322-72.803h-13.162l-19.363 58.863-19.363-58.863h-13.942l24.015 66.61c.77 2.32 2.32 5.427 2.32 6.965 0 1.548-3.87 17.825-15.493 17.825-2.32 0-4.64-.78-6.19-.78M1178.82 154.128h13.938V109.98h46.482v44.148h13.16V56.536h-13.16V97.59h-46.482V56.535h-13.937M1286.478 118.498c0-13.168 7.75-26.33 21.692-26.33s22.464 13.162 22.464 26.33c0 12.397-6.974 26.332-22.464 26.332s-21.692-13.935-21.692-26.332m-13.933 0c0 20.137 14.71 37.178 35.625 37.178 21.683 0 36.396-17.04 36.396-37.178 0-21.683-14.714-37.178-36.396-37.178-21.692 0-35.625 15.495-35.625 37.178zM1356.185 151.804c5.426 3.105 12.395 3.872 19.363 3.872 12.395 0 24.788-6.97 24.788-22.46 0-22.458-30.976-18.59-30.976-32.533 0-6.195 6.188-8.514 12.39-8.514 3.09 0 10.84 1.544 13.933 3.092l.78-10.84c-4.648-1.55-10.074-3.102-16.26-3.102-13.943 0-24.785 6.974-24.785 21.69 0 20.137 30.97 18.59 30.97 31.755 0 7.745-7.734 10.064-13.937 10.064-3.09 0-10.84-1.544-15.494-4.645M1469.267 118.498c0 10.847-5.425 26.332-19.362 26.332-14.714 0-20.917-14.708-20.917-26.332 0-13.168 6.97-26.33 20.917-26.33 13.937 0 19.362 13.162 19.362 26.33m-53.44 64.287h13.16v-38.73c4.65 6.972 11.624 11.62 24.014 11.62 20.917 0 30.205-19.36 30.205-38.723 0-18.594-10.07-35.633-30.204-35.633-13.16 0-20.91 6.196-24.012 11.617h-.766V82.873h-12.395v99.912zM1516.515 52.668H1501.8v14.71h14.715v-14.71zm-13.947 101.46h13.176V82.873h-13.176v71.255zM1576.924 82.873h-18.586v-20.14l-13.172 3.87v16.27h-16.262v10.84h16.262v41.052c0 14.72 8.522 20.91 21.693 20.91 4.638 0 8.51-1.547 11.61-2.328V142.51c-2.318 1.546-5.42 2.32-9.292 2.32-6.188 0-10.84-3.868-10.84-12.39V93.714h18.585M1635.79 126.243c0 10.842-6.968 18.586-20.14 18.586-6.19 0-13.16-3.868-13.16-11.616 0-12.392 17.81-13.168 24.778-13.168h8.522m-38.726-20.91c5.426-4.648 13.947-6.967 20.916-6.967 13.16 0 17.81 6.188 17.81 18.588-5.415-.776-9.287-.776-13.937-.776-13.947 0-33.31 5.42-33.31 23.233 0 15.493 10.84 22.46 26.336 22.46 11.622 0 18.58-6.968 21.682-10.846v9.298h12.39c0-2.324-.767-6.197-.767-13.942v-29.428c0-19.363-7.74-29.438-27.885-29.438-9.29 0-17.044 3.1-23.236 6.974v10.84zM1672.197 49.567h13.16v104.56h-13.16zM1703.173 151.804c6.202 3.105 13.176 3.872 19.362 3.872 13.177 0 24.784-6.97 24.784-22.46 0-22.458-30.205-18.59-30.205-32.533 0-6.195 5.42-8.514 12.395-8.514 3.096 0 10.84 1.544 13.17 3.092l1.54-10.84c-5.422-1.55-10.062-3.102-16.264-3.102-13.942 0-24.783 6.974-24.783 21.69 0 20.137 30.204 18.59 30.204 31.755 0 7.745-6.974 10.064-13.16 10.064-3.868 0-10.842-1.544-16.263-4.645"/><path fill="#2C71B1" d="M879.85 282.697h8.522v-49.57l27.115 49.57h10.842V223.06h-8.523v48.028l-26.334-48.03H879.85M941.822 282.697h8.51v-27.114h28.666v27.114h8.52V223.06H979v24.782H950.33V223.06h-8.508M1030.884 223.84c-3.87-1.563-8.52-2.33-12.392-2.33-10.84 0-19.363 6.203-19.363 16.272 0 18.582 25.564 15.48 25.564 28.656 0 6.97-6.97 9.29-11.623 9.29-3.87 0-9.29-1.555-12.39-3.103l-.77 8.52c3.87.783 7.74 2.32 12.392 2.32 11.61 0 21.683-5.42 21.683-17.8 0-19.362-25.565-17.043-25.565-28.666 0-6.203 5.433-7.74 10.072-7.74 4.652 0 6.97.77 11.623 2.318M1068.842 282.697h8.522v-27.114h21.682v-7.74h-21.682v-17.81h23.233v-6.974h-31.755M1116.86 261.003c0-8.512 4.65-17.033 13.17-17.033 8.512 0 13.933 8.52 13.933 17.033 0 7.756-3.868 16.277-13.933 16.277-9.3 0-13.17-8.52-13.17-16.277m-8.523 0c0 12.404 8.522 22.465 21.693 22.465 13.16 0 22.454-10.06 22.454-22.465 0-13.927-9.293-23.22-22.454-23.22-13.17 0-21.693 9.294-21.693 23.22zM1201.28 238.554h-7.735v20.13c0 10.842-3.883 18.597-13.176 18.597-6.975-.77-9.294-5.425-9.294-16.276v-22.45h-7.75v26.333c0 11.623 4.653 18.582 16.27 18.582 6.193 0 11.614-3.103 13.948-7.74v6.968h7.735M1215.227 282.697h7.735v-20.13c0-10.842 4.654-18.597 13.176-18.597 7.74.77 9.294 5.426 9.294 16.267v22.46h8.52v-26.332c0-11.623-5.425-18.582-16.266-18.582-6.202 0-12.39 3.092-14.725 7.74v-6.97h-7.734M1273.317 260.237c-.77-7.745 3.096-16.267 11.618-16.267 8.512 0 13.16 8.52 13.16 17.033 0 6.984-3.867 16.277-13.16 16.277-8.522 0-12.39-10.074-11.618-17.043m24.778 22.46h7.745V218.42h-7.745v26.322h-.767c-2.33-3.867-6.202-6.96-13.942-6.96-12.39 0-18.59 10.06-18.59 22.455 0 11.618 5.414 23.23 18.59 23.23 7.74 0 12.39-3.867 14.71-6.958v6.187zM1345.343 265.667c0 6.188-3.867 11.613-12.39 11.613-3.1 0-7.75-3.106-7.75-7.755 0-6.96 10.852-7.74 14.725-7.74h5.415m-23.23-13.16c3.09-2.32 7.74-4.654 12.39-4.654 7.745 0 10.84 3.873 10.84 11.613h-8.52c-8.52 0-20.13 3.102-20.13 13.943 0 10.074 6.192 13.942 15.48 13.942 7.756 0 11.623-3.868 13.942-6.96v6.19h7.75c0-1.55-.776-3.87-.776-8.523v-18.592c0-11.612-4.64-17.8-17.034-17.8-5.42 0-10.852 1.538-14.724 3.857l.78 6.985zM1390.262 238.554h-11.608V226.16l-8.52 2.32v10.074h-9.294v6.97h9.293v25.564c0 8.512 5.416 12.38 13.938 12.38 2.32 0 4.655-.77 6.975-1.538v-6.202c-1.548.78-3.1 1.553-6.202 1.553-3.09 0-6.188-3.105-6.188-7.754v-24.003h11.608M1409.625 219.958h-9.29v9.304h9.29v-9.304zm-8.51 62.74h7.744v-44.144h-7.746v44.143zM1429.77 261.003c0-8.512 4.64-17.033 13.16-17.033 8.522 0 13.943 8.52 13.943 17.033 0 7.756-4.64 16.277-13.943 16.277-9.293 0-13.16-8.52-13.16-16.277m-8.522 0c0 12.404 8.522 22.465 21.683 22.465 13.178 0 22.466-10.06 22.466-22.465 0-13.927-9.288-23.22-22.465-23.22-13.16 0-21.682 9.294-21.682 23.22zM1476.236 282.697h7.756v-20.13c0-10.842 3.867-18.597 13.16-18.597 6.97.77 9.29 5.426 9.29 16.267v22.46h7.754v-26.332c0-11.623-4.654-18.582-16.267-18.582-6.203 0-11.62 3.092-13.94 7.74v-6.97h-7.755M1564.53 282.697h8.522v-52.664h18.597v-6.974h-45.7v6.973h18.58M1592.415 282.697h8.522v-20.13c0-10.842 4.65-17.825 11.623-17.825 1.548 0 3.09 0 4.64.78v-6.968c-1.55-.77-3.092-.77-5.422-.77-4.64 0-9.288 3.09-11.607 7.74v-6.97h-7.755M1664.447 238.554h-7.74v20.13c0 10.842-4.65 18.597-13.17 18.597-7.746-.77-9.294-5.425-9.294-16.276v-22.45h-8.522v26.333c0 11.623 5.422 18.582 16.264 18.582 6.202 0 12.395-3.103 14.724-7.74v6.968h7.74M1674.516 281.148c3.873 1.55 7.746 2.32 11.613 2.32 7.75 0 15.494-4.64 15.494-13.942 0-13.943-19.362-10.842-19.362-20.13 0-3.09 3.867-5.426 7.75-5.426 2.32 0 6.974 1.553 8.52 2.335l.772-6.984c-3.105-.766-6.202-1.537-10.074-1.537-8.522 0-15.49 4.64-15.49 13.16 0 12.39 19.362 11.624 19.362 20.146 0 4.64-4.64 6.19-8.512 6.19-2.33 0-6.97-1.552-10.075-3.105M1734.16 238.554h-11.624V226.16l-7.74 2.32v10.074h-10.074v6.97h10.074v25.564c0 8.512 5.42 12.38 13.16 12.38 3.103 0 5.422-.77 6.97-1.538v-6.202c-.767.78-3.096 1.553-5.415 1.553-3.872 0-6.974-3.105-6.974-7.754v-24.003h11.623M1827.874 0h421.334v169.624h-421.334z"/><path fill="#FFF" d="M1868.92 16.262h45.7l28.65 94.496 19.363-94.496h34.855l-29.418 137.085h-45.7l-28.667-95.258-19.363 95.257h-34.843M2010.664 16.262h36.39L2037 68.154h43.366l10.85-51.892h36.398l-28.656 137.085h-36.408l12.39-58.86h-44.142l-11.613 58.86h-37.188M2224.43 47.24c-6.975-3.093-17.034-6.194-30.205-6.194-14.715 0-26.337 1.548-26.337 13.166 0 19.363 52.668 11.623 52.668 53.445 0 37.95-34.854 48.02-66.61 48.02-13.943 0-30.205-3.872-42.6-6.97l8.522-27.884c7.745 4.644 21.683 7.745 34.077 7.745 11.623 0 29.438-2.325 29.438-16.267 0-22.458-53.44-13.94-53.44-52.667 0-35.625 30.972-45.69 61.176-45.69 17.043 0 32.538 1.543 41.83 6.195"/></svg>