<svg xmlns="http://www.w3.org/2000/svg" viewBox="0 0 1176.2 196.2"><path fill="#83ADCD" d="M154 72.4c0 7.8-2.4 14-7.2 18.8-2.9 2.9-6.4 4.8-10.6 5.9-2.9.7-7.1 1-12.8 1h-11.1V47.4h11.2c5.8 0 10.2.3 13 1 4.1.9 7.5 2.7 10.3 5.5 4.8 4.8 7.2 11 7.2 18.5zm-7-.1c0-6.1-1.8-11-5.4-14.6-2-2-4.5-3.4-7.4-4-2.2-.5-5.8-.8-10.7-.8h-4.4v39.7h6.3c3.7 0 6.7-.3 8.9-.8 3-.8 5.6-2.2 7.7-4.3 3.3-3.6 5-8.6 5-15.2zM195.5 98.1h-28.7V47.4h28V53h-21.4v16h20.1v5.5h-20.1v17.9h22v5.7zM240.9 62.4c0 4.6-1.4 8.2-4.2 11-2.2 2.2-4.8 3.5-8 4.1-1.7.3-4.9.5-9.8.5h-3.6v20.1h-6.8V47.4h12.7c3.8 0 6.7.2 8.6.6 2.8.6 5 1.8 6.8 3.5 2.9 2.9 4.3 6.5 4.3 10.9zm-6.8-.1c0-2.9-.9-5.3-2.8-7.2-1.5-1.5-5-2.3-10.5-2.3h-5.4v19.6h3.4c3.6 0 6-.1 7.1-.2 2.3-.4 4-1.1 5.2-2.4 2-1.9 3-4.4 3-7.5zM287.3 98.1h-7.1l-4.6-13.2h-20.9L250 98.1h-6.8l18.4-50.7h7.2l18.5 50.7zm-13.7-18.8L265 54.6l-8.5 24.7h17.1zM332.6 98.1h-7.1l-5.9-13.2c-1.7-3.8-3.2-6.2-4.7-7.2-1.3-.9-3.8-1.3-7.3-1.3h-3.2v21.7h-6.7V47.4H309c4.3 0 7.3.2 9 .5 2.9.6 5.2 1.7 7.1 3.6 2.6 2.6 4 6 4 10.1 0 3.6-1.1 6.5-3.2 8.8-2.1 2.3-4.8 3.6-8.1 4 1.6.1 3 .7 4.3 2.1 1 1 2.3 3.3 4 7.1l6.5 14.5zm-10.3-36.5c0-2.6-.7-4.6-2.2-6.1-1.2-1.2-2.8-2-4.7-2.4-1.1-.2-3-.3-5.7-.3h-5.2V71h2.4c3.4 0 5.8-.1 7.1-.3 2.5-.4 4.4-1.3 5.9-2.7 1.6-1.7 2.4-3.9 2.4-6.4zM375.7 53h-14.8v45.1H354V53h-14.9v-5.6h36.6V53zM439.6 98.1H433l-4.2-41-14.4 41h-5.6l-14.7-41-3.9 41H384l5.4-50.7h7.5l15 41.4 14.5-41.4h7.5l5.7 50.7zM482.5 98.1h-28.7V47.4h28V53h-21.4v16h20.1v5.5h-20.1v17.9h22v5.7zM532.1 98.1h-6.8l-23.9-40.4.2 40.4h-6.2V47.4h6.8L526 87.9l-.2-40.5h6.2v50.7zM580.7 53h-14.8v45.1H559V53h-14.9v-5.6h36.6V53z"/><path fill="#3B6B90" d="M658.1 72.5c0 7.9-2.2 14.3-6.5 19.2-4.3 4.9-9.9 7.4-16.8 7.4-6.7 0-12.2-2.5-16.5-7.4-4.3-4.9-6.5-11.2-6.5-18.8 0-7.8 2.2-14.2 6.5-19.1 4.3-4.9 10-7.4 16.9-7.4 6.7 0 12.2 2.4 16.5 7.3 4.2 4.9 6.4 11.1 6.4 18.8zm-7-.2c0-6-1.5-10.9-4.6-14.6-3-3.7-7-5.5-11.9-5.5-4.8 0-8.7 1.9-11.6 5.6-2.9 3.8-4.4 8.7-4.4 14.9 0 6.1 1.5 11 4.6 14.8 3.1 3.8 7 5.7 11.7 5.7 5.1 0 9.1-2 12-6 2.8-3.8 4.2-8.7 4.2-14.9zM699 53h-20.7v16h19.5v5.5h-19.5v23.6h-6.8V47.4H699V53zM765.1 62.4c0 4.6-1.4 8.2-4.2 11-2.2 2.2-4.8 3.5-8 4.1-1.7.3-4.9.5-9.8.5h-3.6v20.1h-6.8V47.4h12.7c3.8 0 6.7.2 8.6.6 2.8.6 5 1.8 6.8 3.5 2.9 2.9 4.3 6.5 4.3 10.9zm-6.8-.1c0-2.9-.9-5.3-2.8-7.2-1.5-1.5-5-2.3-10.5-2.3h-5.4v19.6h3.4c3.6 0 6-.1 7.1-.2 2.3-.4 4-1.1 5.2-2.4 2-1.9 3-4.4 3-7.5zM811.4 98.1h-7.1l-4.6-13.2h-20.9L774 98.1h-6.8l18.4-50.7h7.2l18.6 50.7zm-13.7-18.8l-8.6-24.7-8.5 24.7h17.1zM850.2 98.1h-28.7V47.4h28V53h-21.4v16h20.1v5.5h-20.1v17.9h22v5.7zM904.9 72.4c0 7.8-2.4 14-7.2 18.8-2.9 2.9-6.4 4.8-10.6 5.9-2.9.7-7.1 1-12.8 1h-11.1V47.4h11.2c5.8 0 10.2.3 13 1 4.1.9 7.5 2.7 10.3 5.5 4.8 4.8 7.2 11 7.2 18.5zm-6.9-.1c0-6.1-1.8-11-5.4-14.6-2-2-4.5-3.4-7.4-4-2.2-.5-5.8-.8-10.7-.8H870v39.7h6.3c3.7 0 6.7-.3 8.9-.8 3-.8 5.6-2.2 7.7-4.3 3.4-3.6 5.1-8.6 5.1-15.2zM924.9 98.1h-6.8V47.4h6.8v50.7zM979.2 98.1h-7.1l-4.6-13.2h-20.9L942 98.1h-6.8l18.4-50.7h7.2l18.4 50.7zm-13.6-18.8L957 54.6l-8.5 24.7h17.1zM1015.8 53H1001v45.1h-6.8V53h-14.9v-5.6h36.6V53zM1062.1 98.1h-7.1l-5.9-13.2c-1.7-3.8-3.2-6.2-4.7-7.2-1.3-.9-3.8-1.3-7.3-1.3h-3.2v21.7h-6.7V47.4h11.2c4.3 0 7.3.2 9 .5 2.9.6 5.2 1.7 7.1 3.6 2.6 2.6 4 6 4 10.1 0 3.6-1.1 6.5-3.2 8.8-2.1 2.3-4.8 3.6-8.1 4 1.6.1 3 .7 4.3 2.1 1 1 2.3 3.3 4 7.1l6.6 14.5zm-10.4-36.5c0-2.6-.7-4.6-2.2-6.1-1.2-1.2-2.8-2-4.7-2.4-1.1-.2-3-.3-5.7-.3h-5.2V71h2.4c3.4 0 5.8-.1 7.1-.3 2.5-.4 4.4-1.3 5.9-2.7 1.6-1.7 2.4-3.9 2.4-6.4zM1080 98.1h-6.8V47.4h6.8v50.7zM1135.4 93.8c-.8.9-2.4 1.8-4.9 2.9-3.8 1.6-7.8 2.4-12.2 2.4-7 0-12.7-2.3-17.3-6.8-4.7-4.8-7.1-11.1-7.1-19.1 0-8.2 2.5-14.8 7.4-19.8 4.7-4.7 10.6-7.1 17.9-7.1 4.3 0 8 .7 11.3 2.1 2 .9 3.4 1.7 4.3 2.6l-3 4.7c-3.6-2.3-7.7-3.4-12.2-3.4-5.3 0-9.7 1.8-13.2 5.4-3.6 3.7-5.5 8.6-5.5 14.8 0 6.2 1.6 11.2 4.9 14.9 3.3 3.7 7.7 5.5 13.3 5.5 4 0 8.4-1.3 13.2-4l3.1 4.9zM1176.2 84.4c0 4.3-1.5 7.9-4.5 10.6-3 2.8-7 4.2-12.2 4.2-3.8 0-7.4-.8-10.9-2.5-2.1-1-3.7-2-4.6-3l3.3-4.7c4.3 2.9 8.3 4.3 12 4.3 3 0 5.4-.8 7.2-2.4 1.8-1.6 2.7-3.6 2.7-6s-1.3-4.6-4-6.5c-1.2-.9-3.9-2.4-8-4.4-3.9-1.9-6.7-3.7-8.3-5.3-2.3-2.3-3.5-5.2-3.5-8.6 0-4 1.5-7.3 4.4-9.8 3-2.6 6.8-3.8 11.4-3.8 4 0 7.5.8 10.6 2.4 1.8 1 3.1 1.9 3.9 2.8l-3.4 4.4c-3.1-2.5-6.7-3.8-10.6-3.8-2.8 0-5.1.7-6.9 2-1.7 1.3-2.6 3.1-2.6 5.3 0 2.1 1 3.8 2.9 5.2.6.5 2.8 1.7 6.6 3.6 4.7 2.4 7.7 4.1 8.9 5.1 3.8 3 5.6 6.6 5.6 10.9z"/><g><g fill="#9C9C9C"><path d="M140 161.7h-2.8l-2.6-24.1-8.7 24.1h-2.2l-8.8-24.1-2.6 24.1h-2.5l3.2-28h3l8.9 24.1 8.7-24.1h3.1l3.3 28zM163.8 150.8v1.4h-14.4c0 2.3.6 4.1 1.8 5.5 1.2 1.4 2.9 2.1 5.1 2.1 1.7 0 3.7-.5 5.8-1.6l1.1 1.9c-.2.2-.9.6-2.1 1.1-1.7.6-3.4 1-5.1 1-2.9 0-5.2-1-6.8-2.9-1.7-1.9-2.5-4.4-2.5-7.5 0-3.2.8-5.8 2.5-7.8 1.7-1.9 3.9-2.9 6.7-2.9 2.4 0 4.3.8 5.7 2.5 1.5 1.7 2.2 4.1 2.2 7.2zm-2.6-.8c0-1.8-.4-3.3-1.2-4.5-1-1.5-2.4-2.3-4.2-2.3-1.8 0-3.3.6-4.5 1.8-1.2 1.2-1.9 2.9-2 5h11.9zM185.4 161.7h-2.3v-1.5c-1.6 1.3-3.6 1.9-5.9 1.9-2.7 0-4.8-.9-6.4-2.8-1.6-1.9-2.4-4.3-2.4-7.4 0-3.2.9-5.8 2.8-7.9 1.8-2 4.2-3 7.1-3 1.8 0 3.3.4 4.6 1.1v-10.7h2.6v30.3zm-2.5-3.8v-13.3c-1.6-.9-3.1-1.3-4.6-1.3-2.2 0-3.9.8-5.3 2.4-1.3 1.6-2 3.7-2 6.4 0 2.3.6 4.2 1.8 5.7 1.2 1.5 2.8 2.2 4.7 2.2 1.7-.1 3.5-.8 5.4-2.1zM196.3 134.7c0 .4-.2.8-.5 1.2-.3.3-.7.5-1.2.5-.4 0-.8-.2-1.2-.5s-.5-.7-.5-1.2.2-.9.5-1.2c.3-.3.7-.5 1.2-.5s.9.2 1.2.5c.3.3.5.7.5 1.2zm-.5 27h-2.5v-20.2h2.5v20.2zM218.6 160.1c-.2.3-.9.6-2.1 1.1-1.6.6-3.2.9-4.8.9-2.8 0-5.1-.9-6.9-2.7-1.8-1.8-2.6-4.3-2.6-7.4 0-3.2.9-5.9 2.8-7.9s4.3-3.1 7.2-3.1c1.5 0 2.9.3 4.3.9.9.4 1.5.7 1.8 1l-1.1 1.8c-1.6-1-3.3-1.5-5.1-1.5-2.2 0-3.9.8-5.3 2.4-1.4 1.6-2 3.6-2 6s.7 4.4 2 5.9 3 2.2 5.1 2.2c1.7 0 3.6-.5 5.7-1.6l1 2zM238.1 161.7h-2.3v-1.5c-.6.3-1.3.7-1.9 1-1.5.6-3 .9-4.5.9-1.9 0-3.5-.6-4.7-1.7-1.2-1.1-1.8-2.6-1.8-4.4 0-4.4 3.9-6.6 11.6-6.6h1v-.8c0-2.1-.3-3.5-1-4.2-.8-.8-2-1.2-3.8-1.2-1.8 0-3.7.5-5.6 1.6l-1-1.8c.3-.3 1-.7 2-1.1 1.5-.6 3.2-1 5-1 2.4 0 4.2.6 5.5 1.9.7.7 1.2 1.6 1.4 2.7.1.6.2 1.7.2 3.1v13.1zm-2.6-3.5v-6.8h-1.1c-6 0-8.9 1.5-8.9 4.6 0 1.1.3 2 1 2.7.8.8 1.9 1.2 3.4 1.2 1.4 0 3.3-.6 5.6-1.7zM247.8 161.7h-2.5v-30.2h2.5v30.2zM283 154c0 2.4-.8 4.4-2.3 5.9-1.6 1.6-3.8 2.4-6.6 2.4-3.1 0-5.8-1-8.1-3l1.4-1.9c2.4 1.7 4.6 2.5 6.6 2.5s3.6-.5 4.7-1.5 1.6-2.4 1.6-4.1c0-1.2-.5-2.3-1.4-3.3-.8-.8-2.5-1.8-5.1-2.9-2.6-1.1-4.4-2.1-5.3-3.1-1.1-1.1-1.7-2.6-1.7-4.6 0-2.1.8-3.8 2.3-5.2 1.5-1.3 3.5-2 6-2 3.2 0 5.7 1 7.7 3l-1.4 1.7c-1.9-1.6-3.9-2.4-6-2.4-1.7 0-3.1.5-4.2 1.4-1.1.9-1.6 2.1-1.6 3.5 0 1.1.4 2.1 1.2 2.9.8.8 2.4 1.7 4.7 2.7 2.5 1.1 4.3 2 5.3 2.8 1.4 1.2 2.2 3 2.2 5.2zM306.7 160.1c-.2.3-.9.6-2.1 1.1-1.6.6-3.2.9-4.8.9-2.8 0-5.1-.9-6.9-2.7-1.8-1.8-2.6-4.3-2.6-7.4 0-3.2.9-5.9 2.8-7.9s4.3-3.1 7.2-3.1c1.5 0 2.9.3 4.3.9.9.4 1.5.7 1.8 1l-1.1 1.8c-1.6-1-3.3-1.5-5.1-1.5-2.2 0-3.9.8-5.3 2.4-1.4 1.6-2 3.6-2 6s.7 4.4 2 5.9 3 2.2 5.1 2.2c1.7 0 3.6-.5 5.7-1.6l1 2zM315.5 134.7c0 .4-.2.8-.5 1.2-.3.3-.7.5-1.2.5-.4 0-.8-.2-1.2-.5s-.5-.7-.5-1.2.2-.9.5-1.2c.3-.3.7-.5 1.2-.5s.9.2 1.2.5c.3.3.5.7.5 1.2zm-.4 27h-2.5v-20.2h2.5v20.2zM338.6 150.8v1.4h-14.4c0 2.3.6 4.1 1.8 5.5 1.2 1.4 2.9 2.1 5.1 2.1 1.7 0 3.7-.5 5.8-1.6l1.1 1.9c-.2.2-.9.6-2.1 1.1-1.7.6-3.4 1-5.1 1-2.9 0-5.2-1-6.8-2.9-1.7-1.9-2.5-4.4-2.5-7.5 0-3.2.8-5.8 2.5-7.8 1.7-1.9 3.9-2.9 6.7-2.9 2.4 0 4.3.8 5.7 2.5 1.5 1.7 2.2 4.1 2.2 7.2zm-2.5-.8c0-1.8-.4-3.3-1.2-4.5-1-1.5-2.4-2.3-4.2-2.3-1.8 0-3.3.6-4.5 1.8-1.2 1.2-1.9 2.9-2 5h11.9zM361 161.7h-2.5v-11.8c0-1.6 0-2.7-.1-3.3-.2-1-.5-1.7-1-2.3-.8-.8-1.8-1.1-3.2-1.1-1.3 0-2.6.3-4.2 1-1.1.4-1.8.8-2 1v16.5h-2.5v-20.2h2.4v1.5c2.1-1.3 4.3-2 6.6-2 2 0 3.5.6 4.7 1.7.8.8 1.4 1.9 1.6 3.2.1.7.2 1.9.2 3.7v12.1zM383.2 160.1c-.2.3-.9.6-2.1 1.1-1.6.6-3.2.9-4.8.9-2.8 0-5.1-.9-6.9-2.7-1.8-1.8-2.6-4.3-2.6-7.4 0-3.2.9-5.9 2.8-7.9s4.3-3.1 7.2-3.1c1.5 0 2.9.3 4.3.9.9.4 1.5.7 1.8 1l-1.1 1.8c-1.6-1-3.3-1.5-5.1-1.5-2.2 0-3.9.8-5.3 2.4-1.4 1.6-2 3.6-2 6s.7 4.4 2 5.9 3 2.2 5.1 2.2c1.7 0 3.6-.5 5.7-1.6l1 2zM404.2 150.8v1.4h-14.4c0 2.3.6 4.1 1.8 5.5 1.2 1.4 2.9 2.1 5.1 2.1 1.7 0 3.7-.5 5.8-1.6l1.1 1.9c-.2.2-.9.6-2.1 1.1-1.7.6-3.4 1-5.1 1-2.9 0-5.2-1-6.8-2.9-1.7-1.9-2.5-4.4-2.5-7.5 0-3.2.8-5.8 2.5-7.8 1.7-1.9 3.9-2.9 6.7-2.9 2.4 0 4.3.8 5.7 2.5 1.5 1.7 2.2 4.1 2.2 7.2zm-2.6-.8c0-1.8-.4-3.3-1.2-4.5-1-1.5-2.4-2.3-4.2-2.3-1.8 0-3.3.6-4.5 1.8-1.2 1.2-1.9 2.9-2 5h11.9zM423.1 156.2c0 1.9-.7 3.3-2 4.4-1.3 1.1-3.1 1.6-5.3 1.6-1.6 0-3.2-.3-4.7-.9-1.1-.4-1.7-.8-2-1l1.1-1.9c1.7 1.1 3.5 1.7 5.5 1.7 1.5 0 2.7-.3 3.5-.9.9-.6 1.3-1.5 1.3-2.6 0-1.2-.6-2.1-1.7-2.9-.4-.3-1.5-.7-3.3-1.4-1.9-.8-3.2-1.4-3.9-2-1.1-.9-1.7-2.2-1.7-3.8 0-1.6.6-2.9 1.9-3.8 1.3-1 2.9-1.4 4.8-1.4 1.5 0 3 .3 4.3.8.9.4 1.5.7 1.8 1l-1 1.8c-1.7-1-3.3-1.4-4.9-1.4-1.2 0-2.2.3-3.1.8-.8.6-1.3 1.3-1.3 2.2 0 1 .4 1.8 1.3 2.4.4.3 1.4.7 3 1.4 2.1.9 3.5 1.5 4.2 2 1.4.8 2.2 2.2 2.2 3.9zM464.2 147.5c0 4.4-1.3 7.9-4 10.6-1.5 1.5-3.3 2.5-5.3 3-1.5.4-3.7.5-6.7.5h-6.3v-28h5.4c3.3 0 5.8.2 7.4.5 2.2.5 4.1 1.5 5.5 2.9 2.6 2.8 4 6.3 4 10.5zm-2.8-.1c0-3.6-1.1-6.6-3.3-8.8-1.2-1.2-2.6-1.9-4.3-2.3-1.3-.3-3.5-.5-6.6-.5h-2.8v23.6h3.8c2.4 0 4.2-.1 5.5-.4 1.8-.4 3.3-1.3 4.5-2.5 2.2-2.1 3.2-5.1 3.2-9.1zM475.3 134.7c0 .4-.2.8-.5 1.2-.3.3-.7.5-1.2.5-.4 0-.8-.2-1.2-.5s-.5-.7-.5-1.2.2-.9.5-1.2c.3-.3.7-.5 1.2-.5s.9.2 1.2.5c.4.3.5.7.5 1.2zm-.4 27h-2.5v-20.2h2.5v20.2zM499.1 141.5l-7.9 20.2h-3l-7.9-20.2h2.8l6.7 17.5 6.7-17.5h2.6zM507.4 134.7c0 .4-.2.8-.5 1.2-.3.3-.7.5-1.2.5-.4 0-.8-.2-1.2-.5s-.5-.7-.5-1.2.2-.9.5-1.2c.3-.3.7-.5 1.2-.5s.9.2 1.2.5c.4.3.5.7.5 1.2zm-.4 27h-2.5v-20.2h2.5v20.2zM527 156.2c0 1.9-.7 3.3-2 4.4-1.3 1.1-3.1 1.6-5.3 1.6-1.6 0-3.2-.3-4.7-.9-1.1-.4-1.7-.8-2-1l1.1-1.9c1.7 1.1 3.5 1.7 5.5 1.7 1.5 0 2.7-.3 3.5-.9.9-.6 1.3-1.5 1.3-2.6 0-1.2-.6-2.1-1.7-2.9-.4-.3-1.5-.7-3.3-1.4-1.9-.8-3.2-1.4-3.9-2-1.1-.9-1.7-2.2-1.7-3.8 0-1.6.6-2.9 1.9-3.8 1.3-1 2.9-1.4 4.8-1.4 1.5 0 3 .3 4.3.8.9.4 1.5.7 1.8 1l-1 1.8c-1.7-1-3.3-1.4-4.9-1.4-1.2 0-2.2.3-3.1.8-.8.6-1.3 1.3-1.3 2.2 0 1 .4 1.8 1.3 2.4.4.3 1.4.7 3 1.4 2.1.9 3.5 1.5 4.2 2 1.5.8 2.2 2.2 2.2 3.9zM537.1 134.7c0 .4-.2.8-.5 1.2-.3.3-.7.5-1.2.5-.4 0-.8-.2-1.2-.5s-.5-.7-.5-1.2.2-.9.5-1.2c.3-.3.7-.5 1.2-.5s.9.2 1.2.5c.3.3.5.7.5 1.2zm-.4 27h-2.5v-20.2h2.5v20.2zM561.4 151.8c0 3.2-.8 5.7-2.5 7.6-1.7 1.9-3.9 2.8-6.7 2.8-2.7 0-4.9-1-6.6-2.9-1.7-1.9-2.5-4.5-2.5-7.7s.8-5.8 2.5-7.7c1.7-1.9 3.9-2.9 6.8-2.9 2.7 0 4.9 1 6.6 2.9 1.6 1.9 2.4 4.5 2.4 7.9zm-2.6-.1c0-2.5-.6-4.5-1.9-6.1-1.2-1.6-2.8-2.4-4.7-2.4-2 0-3.6.8-4.8 2.3-1.2 1.5-1.8 3.5-1.8 6s.6 4.6 1.9 6.1c1.2 1.6 2.8 2.3 4.7 2.3 2 0 3.6-.7 4.8-2.2 1.3-1.5 1.8-3.5 1.8-6zM583 161.7h-2.5v-11.8c0-1.6 0-2.7-.1-3.3-.2-1-.5-1.7-1-2.3-.8-.8-1.8-1.1-3.2-1.1-1.3 0-2.6.3-4.2 1-1.1.4-1.8.8-2 1v16.5h-2.5v-20.2h2.4v1.5c2.1-1.3 4.3-2 6.6-2 2 0 3.5.6 4.7 1.7.8.8 1.4 1.9 1.6 3.2.1.7.2 1.9.2 3.7v12.1z"/></g></g><g><linearGradient id="a" gradientUnits="userSpaceOnUse" x1="41.775" y1="150.462" x2="29.438" y2="150.462"><stop offset="0" stop-color="#205983"/><stop offset="1" stop-color="#2E618A"/></linearGradient><path fill="url(#a)" d="M38.5 149.4c.1-.2.3-.4.4-.5.3-.4.6-.5 1.1-.3.5.2 1 .5 1.3.9.6.8.5 1.8-.4 2.3-.3.2-.6.2-.9.3-.2.1-.4.1-.5.4-.4.9-1.1 1.6-1.9 2-.2.6-.4 1.1-.6 1.5-.4.8-1.2.7-1.7.3-.5-.3-.9-.7-1.1-1.2-.3-.5-.2-.8.2-1.2l.2-.2c.1-.1.3-.3.2-.5-.1-.2-.3-.2-.5-.2h-.7c-.5 0-.8-.2-1.1-.6-.4-.5-.2-1.1.5-1.2.2 0 .3-.1.5-.1v-.1-.1c-.7 0-1.2-.4-1.6-.9-.2-.2-.4-.3-.8-.3-.6.1-1.2-.4-1.4-1-.2-.6.3-1.3 1-1.3.4 0 .6-.1.8-.5.2-.6.7-1 1.4-1.2v-.6c0-.8.7-1.3 1.4-.9.3.1.5.4.7.6.2.2.2.5.1.8-.1.2-.1.4.2.6.6.4 1 1 1.1 1.8.1-.2.2-.3.3-.4.1-.2.3-.5.4-.7.3-.3.6-.3.9 0 .3.3.4.6.5 1v1c-.4.3-.2.4 0 .5z"/><linearGradient id="b" gradientUnits="userSpaceOnUse" x1="25.448" y1="68.22" x2="24.667" y2="59.251"><stop offset="0" stop-color="#275E87"/><stop offset="1" stop-color="#225B85"/></linearGradient><path fill="url(#b)" d="M28.1 63.3c.1-.2.2-.4.4-.5.3-.4.6-.5 1.1-.4.5.2 1 .5 1.3.9.6.8.5 1.7-.3 2.3-.3.2-.6.3-.9.4-.2.1-.4.2-.5.4-.4.9-1 1.6-1.8 2-.4.6-.5 1.1-.8 1.6-.4.8-1.1.8-1.7.4-.5-.3-.9-.7-1.2-1.2-.3-.5-.2-.7.1-1.2l.2-.2c.1-.1.3-.3.2-.5-.1-.2-.3-.2-.5-.2s-.5 0-.7.1c-.5.1-.8-.2-1.1-.5-.4-.5-.2-1 .4-1.2.2 0 .3-.1.5-.1v-.1s0-.1-.1-.1c-.7 0-1.2-.4-1.7-.8-.2-.2-.4-.3-.8-.2-.6.1-1.2-.3-1.4-.9-.2-.6.3-1.3.9-1.3.4 0 .6-.2.7-.5.2-.6.7-1 1.3-1.2 0-.2-.1-.4-.1-.6-.1-.8.6-1.3 1.4-1 .3.1.5.4.8.6.2.2.2.5.1.8-.1.2-.1.4.2.5.6.4 1 .9 1.1 1.8.1-.2.2-.3.2-.4.1-.2.2-.5.4-.7.3-.3.6-.3.9 0 .3.3.5.6.5 1v1c.5-.1.6-.1.9 0z"/><linearGradient id="c" gradientUnits="userSpaceOnUse" x1="18.201" y1="76.286" x2="19.307" y2="67.838"><stop offset="0" stop-color="#386A92"/><stop offset="1" stop-color="#33658D"/></linearGradient><path fill="url(#c)" d="M21.3 71.2c.1-.2.2-.3.3-.4.2-.3.5-.4.9-.3.4.2.8.4 1.1.7.5.7.4 1.4-.3 1.9-.2.1-.5.2-.8.3-.2.1-.3.1-.4.3-.3.7-.8 1.4-1.5 1.7-.2.5-.3.9-.5 1.3-.3.7-.9.7-1.4.3-.4-.3-.7-.6-1-1-.2-.4-.2-.6.1-1 0-.1.1-.1.2-.2s.2-.2.2-.4c-.1-.2-.2-.2-.4-.2h-.6c-.4 0-.7-.1-.9-.4-.3-.4-.2-.9.4-1 .1 0 .3-.1.4-.1v-.1-.1c-.6 0-1-.3-1.4-.7-.2-.2-.4-.2-.6-.2-.5.1-1-.3-1.2-.8-.3-.2.1-.8.6-.8.3 0 .5-.1.6-.4.2-.5.6-.8 1.1-1 0-.2 0-.3-.1-.5 0-.7.5-1.1 1.1-.8.2.1.4.3.6.5.2.2.2.4.1.7-.1.2-.1.3.1.5.5.3.9.8.9 1.5.1-.2.1-.2.2-.3.1-.2.2-.4.4-.6.2-.3.5-.3.8 0 .2.2.4.5.4.8v.8c.3-.1.4-.1.6 0z"/><linearGradient id="d" gradientUnits="userSpaceOnUse" x1="14.455" y1="81.12" x2="14.569" y2="76.921"><stop offset="0" stop-color="#4F79A1"/><stop offset="1" stop-color="#47749C"/></linearGradient><path fill="url(#d)" d="M16.3 78c.1-.1.1-.3.1-.4.1-.3.3-.4.6-.4s.7.1.9.4c.5.4.6 1 .1 1.5-.1.2-.3.3-.5.4l-.3.3c-.1.6-.4 1.2-.8 1.5 0 .4-.1.7-.1 1-.1.5-.6.6-1 .5-.3-.1-.6-.3-.9-.6-.2-.3-.3-.4-.1-.7l.1-.1c.1-.1.1-.2 0-.3-.1-.1-.2-.1-.3-.1-.2 0-.3.1-.5.1-.3.1-.5 0-.8-.2-.3-.3-.3-.6.1-.8.1 0 .2-.1.3-.2v-.1c-.4.1-.8-.1-1.2-.3-.2-.1-.3-.1-.5 0-.4.2-.8 0-1-.4-.2-.3 0-.9.4-1 .2-.1.4-.2.4-.4.1-.4.3-.7.6-1 0-.1-.1-.2-.1-.3-.1-.5.2-.9.7-.8.2 0 .4.2.5.3.2.1.2.3.2.5 0 .1 0 .3.2.3.4.1.8.4.9.9 0-.1.1-.2.1-.3.1-.2.1-.3.2-.5s.3-.3.6-.1c.2.1.4.3.4.5.1.2.1.4.2.6.3.2.4.2.5.2z"/><linearGradient id="e" gradientUnits="userSpaceOnUse" x1="11.341" y1="87.623" x2="12.415" y2="83.374"><stop offset="0" stop-color="#5F89AE"/><stop offset="1" stop-color="#547EA4"/></linearGradient><path fill="url(#e)" d="M13.5 84.3c0-.1 0-.3.1-.4.1-.3.2-.4.5-.5.3 0 .6 0 .9.1.5.3.7.8.4 1.3-.1.2-.3.3-.4.4-.1.1-.2.2-.2.3 0 .6-.1 1.1-.5 1.5 0 .3.1.7.1 1 0 .5-.4.7-.8.6-.3-.1-.6-.1-.9-.3-.3-.2-.3-.3-.2-.6 0-.1 0-.1.1-.1 0-.1.1-.2 0-.3-.1-.1-.2-.1-.3 0-.1.1-.3.1-.4.2-.2.2-.5.1-.7 0-.3-.2-.4-.5-.1-.8l.2-.2v-.1c-.4.2-.7.1-1.1 0-.2-.1-.3 0-.5.1-.3.2-.7.1-1-.1-.3-.3-.2-.8.2-.9 0-.1.1-.2.1-.4 0-.4.1-.7.4-1-.1-.1-.1-.2-.2-.3-.2-.4 0-.9.5-.9.2 0 .4.1.5.1.2.1.2.2.3.4 0 .1.1.2.2.2.4 0 .8.2 1 .7V84c0-.2 0-.3.1-.5s.3-.3.5-.2c.2.1.4.2.5.4.1.2.2.3.3.5.1.1.2.1.4.1z"/><linearGradient id="f" gradientUnits="userSpaceOnUse" x1="9.88" y1="92.926" x2="10.791" y2="91.282"><stop offset="0" stop-color="#79A7CA"/><stop offset="1" stop-color="#628CB1"/></linearGradient><path fill="url(#f)" d="M11.7 90.5v-.3c0-.2.1-.4.4-.5.3-.1.5-.1.8 0 .5.2.7.6.5 1.1-.1.2-.2.3-.3.4-.1.1-.1.2-.1.3.1.5 0 1-.2 1.4.1.3.2.6.2.8.1.4-.3.7-.6.7s-.6 0-.8-.2c-.3-.1-.3-.2-.3-.5v-.1c0-.1 0-.2-.1-.3-.1-.1-.2 0-.3 0-.1.1-.2.1-.3.2-.2.2-.4.2-.6.1-.3-.1-.4-.4-.2-.6l.2-.2c-.3.2-.6.2-.9.1-.2 0-.3 0-.4.1-.2.2-.6.2-.9 0-.3-.2-.3-.6 0-.8.2-.1.2-.2.2-.4-.1-.3 0-.6.2-.9l-.3-.3c-.3-.3-.1-.7.3-.8h.5c.2 0 .2.2.3.3 0 .1.1.2.2.2.4 0 .7.1 1 .4v-.2-.4c0-.2.2-.3.4-.3s.4.1.5.3c.1.1.2.3.3.4h.3z"/><linearGradient id="g" gradientUnits="userSpaceOnUse" x1="8.961" y1="98.255" x2="12.445" y2="95.83"><stop offset="0" stop-color="#7DAACD"/><stop offset="1" stop-color="#719DC0"/></linearGradient><path fill="url(#g)" d="M8.7 99.5v.4c0 .3-.1.5-.4.6-.3.1-.6.1-.9.1-.6-.1-.9-.6-.7-1.2.1-.3.3-.4.4-.6.1-.1.1-.2.1-.4-.2-.5-.2-1.1 0-1.6l-.3-.9c-.1-.5.2-.8.6-.8.3 0 .6 0 1 .1.3.1.4.2.4.6v.2c0 .1 0 .2.1.3.1.1.2 0 .3-.1l.3-.3c.2-.2.4-.2.7-.2.4.1.5.4.3.7-.1.1-.1.2-.2.2v.1h.1c.3-.3.7-.3 1.1-.2.2 0 .3 0 .4-.2.2-.3.7-.3 1-.1.3.2.4.7.1.9-.2.2-.2.3-.1.5.1.4.1.7-.1 1l.2.2c.3.4.2.8-.3.9h-.6c-.2 0-.3-.2-.4-.3-.1-.1-.1-.2-.3-.2-.4.1-.8 0-1.2-.4v.3c0 .2.1.3.1.5s-.2.4-.4.4-.4-.1-.6-.3c-.1-.1-.2-.3-.4-.4 0 .1-.1.1-.3.2z"/><path fill="#7DAACD" d="M9.3 106.3c0 .2.1.3.1.4.1.3 0 .5-.3.6-.3.2-.6.2-1 .2-.6 0-1-.5-.9-1.1 0-.2.1-.4.2-.6.1-.1.1-.2 0-.4-.2-.6-.3-1.2-.1-1.7-.2-.3-.3-.6-.5-.9-.2-.5.1-.9.5-1 .3-.1.7-.1 1 0 .3.1.4.2.5.6v.2c0 .1 0 .2.2.3.1.1.2 0 .3-.1.1-.1.2-.2.3-.4.2-.2.4-.3.7-.3.4 0 .6.4.4.7 0 .1-.1.2-.1.3v.1h.1c.3-.3.7-.4 1.1-.4.2 0 .3-.1.4-.2.2-.3.7-.4 1-.3.4.2.5.7.2 1-.2.2-.2.3-.1.6.2.4.2.8 0 1.1.1.1.2.1.3.2.4.3.3.9-.1 1-.2.1-.4.1-.6.1-.2 0-.3-.1-.4-.3-.1-.1-.2-.2-.3-.2-.4.1-.9.1-1.3-.3 0 .1.1.2.1.3 0 .2.1.3.1.5 0 .3-.1.4-.4.4-.2 0-.5 0-.7-.2-.2-.1-.3-.3-.5-.4.1.1 0 .1-.2.2zM11.7 113.7c.1.2.2.3.2.4.2.3.1.6-.1.8-.3.3-.6.5-1 .6-.7.2-1.3-.2-1.4-1 0-.2 0-.5.1-.7 0-.2 0-.3-.1-.5-.4-.6-.7-1.2-.7-1.9-.3-.3-.6-.6-.8-.9-.4-.5-.1-1 .3-1.3.4-.2.7-.4 1.2-.4.4 0 .6.1.7.5 0 .1 0 .1.1.2s.1.3.3.3c.2 0 .3-.1.3-.2.1-.2.2-.3.2-.5.1-.3.4-.5.7-.5.5-.1.8.2.7.7 0 .1 0 .2-.1.3v.1h.1c.2-.5.7-.7 1.1-.8.2-.1.3-.2.4-.4.1-.4.6-.7 1.1-.6.5.1.8.6.6 1.1-.1.3-.1.4.1.7.3.4.4.8.4 1.3.1.1.3.1.4.1.6.2.7.9.2 1.2l-.6.3c-.2.1-.4 0-.6-.2-.1-.1-.2-.2-.4-.1-.5.3-1 .4-1.6.1.1.1.1.2.2.3.1.2.2.3.3.5.1.3 0 .5-.3.6-.3.1-.5.1-.8 0-.2-.1-.4-.2-.7-.3-.3 0-.4.1-.5.2zM16 120.6c.1.2.3.3.4.4.3.3.3.6.1.9-.2.4-.5.7-1 .9-.8.4-1.5.1-1.8-.7-.1-.3-.1-.6-.1-.8 0-.2-.1-.4-.2-.5-.7-.5-1.2-1.1-1.3-1.9-.4-.3-.8-.5-1.2-.7-.6-.5-.4-1.1 0-1.5.3-.3.7-.6 1.2-.7.4-.1.7-.1.9.3 0 .1.1.1.1.2.1.1.2.3.4.2.2 0 .2-.2.3-.4 0-.2.1-.4.1-.6 0-.4.3-.6.6-.8.5-.2.9 0 .9.6v.4h.2c.1-.6.5-.9 1-1.2.2-.1.3-.3.3-.6 0-.5.5-1 1-1 .5-.1 1 .5.9 1-.1.3 0 .5.3.7.5.3.7.8.8 1.3h.5c.7.1 1 .8.6 1.3-.2.2-.4.4-.6.5-.2.1-.5.1-.7 0-.2-.1-.3-.1-.5 0-.4.5-.9.7-1.7.6l.3.3.5.5c.2.3.1.6-.2.8-.3.2-.6.3-.9.2-.3 0-.5-.1-.8-.1-.2.1-.3.2-.4.4zM22.6 127.5c.2.1.3.3.5.4.4.3.5.6.3 1-.2.5-.5.9-.9 1.2-.8.6-1.7.4-2.2-.5-.2-.3-.2-.6-.3-.9-.1-.2-.1-.4-.4-.5-.8-.4-1.5-1.1-1.8-1.9-.5-.2-1-.4-1.4-.6-.7-.4-.7-1.1-.3-1.7.3-.4.7-.8 1.2-1 .5-.2.7-.2 1.1.2l.2.2c.1.1.2.3.5.2.2-.1.2-.3.2-.5v-.7c0-.5.2-.8.6-1 .5-.3 1-.1 1.2.5 0 .1.1.3.1.4h.2c0-.7.4-1.1.9-1.6.2-.2.3-.4.3-.7-.1-.6.4-1.2 1-1.3.6-.2 1.3.3 1.2 1 0 .4.1.6.5.7.6.3.9.7 1.1 1.3h.5c.8 0 1.2.7.9 1.4-.1.3-.4.5-.6.7-.2.2-.5.2-.8.1-.2-.1-.4-.1-.5.1-.4.6-.9.9-1.8 1 .2.1.3.2.3.3.2.1.4.3.6.4.3.3.3.6 0 .9-.3.3-.6.4-1 .4h-1c-.2.2-.3.3-.4.5zM30.5 134.3c.2.1.4.2.5.4.4.3.5.6.4 1.1-.2.5-.5 1-.9 1.3-.8.6-1.7.5-2.3-.3-.2-.3-.3-.6-.4-.9-.1-.2-.2-.4-.4-.5-.9-.4-1.6-1-2-1.8-.6-.2-1.1-.3-1.5-.6-.8-.4-.8-1.1-.4-1.7.3-.5.7-.9 1.2-1.2.5-.3.7-.2 1.2.1l.2.2c.1.1.3.3.5.2.2-.1.2-.3.2-.5s0-.5-.1-.7c-.1-.5.2-.8.5-1.1.5-.4 1-.2 1.2.4 0 .2.1.3.1.5h.1s.1 0 .1-.1c0-.7.4-1.2.8-1.7.2-.2.3-.4.2-.8-.1-.6.3-1.2.9-1.4.6-.2 1.3.3 1.3.9 0 .4.2.6.5.7.6.2 1 .7 1.2 1.3.2 0 .4-.1.6-.1.8-.1 1.3.6 1 1.4-.1.3-.4.5-.6.8-.2.2-.5.2-.8.1-.2-.1-.4-.1-.5.2-.4.6-.9 1-1.8 1.1.2.1.3.2.4.2.2.1.5.2.7.4.3.3.3.6 0 .9-.3.3-.6.5-1 .5h-1c.1.3 0 .5-.1.7zM38.4 140.9c.2.1.4.2.5.4.4.3.5.6.4 1.1-.2.5-.5 1-.9 1.3-.8.6-1.7.5-2.3-.3-.2-.3-.3-.6-.4-.9-.1-.2-.2-.4-.4-.5-.9-.4-1.6-1-2-1.8-.6-.2-1.1-.3-1.5-.6-.8-.4-.8-1.1-.4-1.7.3-.5.7-.9 1.2-1.2.5-.3.7-.2 1.2.1l.2.2c.1.1.3.3.5.2.2-.1.2-.3.2-.5s0-.5-.1-.7c-.1-.5.2-.8.5-1.1.5-.4 1-.2 1.2.4 0 .2.1.3.1.5h.1s.1 0 .1-.1c0-.7.4-1.2.8-1.7.2-.2.3-.4.2-.8-.1-.6.3-1.2.9-1.4.6-.2 1.3.3 1.3.9 0 .4.2.6.5.7.6.2 1 .7 1.2 1.3.2 0 .4-.1.6-.1.8-.1 1.3.6 1 1.4-.1.3-.4.5-.6.8-.2.2-.5.2-.8.1-.2-.1-.4-.1-.5.2-.4.6-.9 1-1.8 1.1.2.1.3.2.4.2.2.1.5.2.7.4.3.3.3.6 0 .9-.3.3-.6.5-1 .5h-1c0 .3 0 .4-.1.7zM46.2 147.1c.2.1.4.2.5.4.4.3.5.6.4 1.1-.2.5-.5 1-.9 1.3-.8.6-1.7.5-2.3-.3-.2-.3-.3-.6-.4-.9-.1-.2-.2-.4-.4-.5-.9-.4-1.6-1-2-1.8-.6-.2-1.1-.3-1.5-.6-.8-.4-.8-1.1-.4-1.7.3-.5.7-.9 1.2-1.2.5-.3.7-.2 1.2.1l.2.2c.1.1.3.3.5.2.2-.1.2-.3.2-.5s0-.5-.1-.7c-.1-.5.2-.8.5-1.1.5-.4 1-.2 1.2.4 0 .2.1.3.1.5h.1s.1 0 .1-.1c0-.7.4-1.2.8-1.7.2-.2.3-.4.2-.8-.1-.6.3-1.2.9-1.4.6-.2 1.3.3 1.3.9 0 .4.2.6.5.7.6.2 1 .7 1.2 1.3.2 0 .4-.1.6-.1.8-.1 1.3.6 1 1.4-.1.3-.4.5-.6.8-.2.2-.5.2-.8.1-.2-.1-.4-.1-.5.2-.4.6-.9 1-1.8 1.1.2.1.3.2.4.2.2.1.5.2.7.4.3.3.3.6 0 .9-.3.3-.6.5-1 .5h-1c0 .4 0 .5-.1.7zM53.9 153.5c.2.1.4.2.5.4.4.3.5.6.4 1.1-.2.5-.5 1-.9 1.3-.8.6-1.7.5-2.3-.3-.2-.3-.3-.6-.4-.9-.1-.2-.2-.4-.4-.5-.9-.4-1.6-1-2-1.8-.6-.2-1.1-.3-1.5-.6-.8-.4-.8-1.1-.4-1.7.3-.5.7-.9 1.2-1.2.5-.3.7-.2 1.2.1l.2.2c.1.1.3.3.5.2.2-.1.2-.3.2-.5s0-.5-.1-.7c-.1-.5.2-.8.5-1.1.5-.4 1-.2 1.2.4 0 .2.1.3.1.5h.1s.1 0 .1-.1c0-.7.4-1.2.8-1.7.2-.2.3-.4.2-.8-.1-.6.3-1.2.9-1.4.6-.2 1.3.3 1.3.9 0 .4.2.6.5.7.6.2 1 .7 1.2 1.3.2 0 .4-.1.6-.1.8-.1 1.3.6 1 1.4-.1.3-.4.5-.6.8-.2.2-.5.2-.8.1-.2-.1-.4-.1-.5.2-.4.6-.9 1-1.8 1.1.2.1.3.2.4.2.2.1.5.2.7.4.3.3.3.6 0 .9-.3.3-.6.5-1 .5h-1c.1.3 0 .5-.1.7zM60.9 159.6c.2.1.3.2.5.3.4.3.5.6.3 1-.2.5-.4.9-.8 1.2-.7.6-1.6.5-2.1-.3-.2-.3-.2-.6-.3-.9-.1-.2-.1-.4-.4-.5-.8-.4-1.5-1-1.9-1.7-.5-.2-1-.3-1.4-.6-.7-.4-.7-1.1-.3-1.6.3-.4.6-.8 1.1-1.1.5-.2.7-.2 1.1.1l.2.2c.1.1.2.3.5.2.2-.1.2-.3.2-.4v-.7c0-.4.2-.8.5-1 .5-.3 1-.2 1.1.4 0 .1.1.3.1.4h.2c0-.6.4-1.1.8-1.5.2-.2.3-.4.2-.7-.1-.6.3-1.2.9-1.3.6-.2 1.2.3 1.2.9 0 .4.1.6.5.7.6.2.9.7 1.1 1.3.2 0 .4 0 .5-.1.8 0 1.2.6.9 1.3-.1.3-.3.5-.6.7-.2.2-.5.2-.7.1-.2-.1-.4-.1-.5.2-.4.6-.9.9-1.7 1 .2.1.3.2.3.2.2.1.4.2.6.4.3.3.3.6 0 .9-.2.3-.6.4-.9.4h-.9c-.1.2-.2.3-.3.5zM66.9 165.7c.1.1.3.2.4.3.3.3.4.5.2.9s-.5.7-.8 1c-.7.4-1.5.2-1.8-.5-.1-.2-.2-.5-.2-.8 0-.2-.1-.3-.3-.5-.7-.4-1.2-1-1.4-1.7l-1.2-.6c-.6-.4-.5-1-.1-1.4.3-.3.6-.6 1-.8.4-.2.6-.1.9.2 0 .1.1.1.1.2.1.1.2.3.4.2.2-.1.2-.2.2-.4v-.6c0-.4.2-.6.5-.8.5-.3.9-.1.9.5 0 .1 0 .3.1.4h.2c.1-.6.4-.9.8-1.3.2-.2.3-.3.3-.6 0-.5.4-1 .9-1.1.5-.1 1 .4 1 .9 0 .3.1.5.3.6.5.2.7.7.9 1.2h.5c.7 0 1 .6.6 1.2-.1.2-.3.4-.5.5-.2.2-.4.1-.7 0-.2-.1-.3-.1-.5.1-.4.5-.8.7-1.5.7.1.1.2.2.3.2.2.1.4.2.5.4.2.3.2.5-.1.8-.2.2-.5.3-.8.3-.3 0-.5 0-.8-.1-.2.3-.2.4-.3.6z"/><linearGradient id="h" gradientUnits="userSpaceOnUse" x1="70.776" y1="166.234" x2="70.776" y2="173.361"><stop offset="0" stop-color="#7DAACD"/><stop offset="1" stop-color="#648EB2"/></linearGradient><path fill="url(#h)" d="M70.8 171.7l.3.3c.2.2.2.5 0 .7-.2.3-.4.5-.8.6-.6.3-1.1 0-1.3-.6-.1-.2-.1-.4-.1-.6 0-.2 0-.3-.2-.4-.5-.4-.8-.9-.9-1.5-.3-.2-.6-.4-.8-.6-.4-.4-.3-.8.1-1.1.3-.2.6-.4.9-.5.3-.1.5 0 .7.3l.1.1c.1.1.1.2.3.2.2 0 .2-.1.2-.3 0-.2.1-.3.1-.5 0-.3.2-.5.5-.6.4-.1.7.1.7.5v.3h.1c.1-.4.4-.7.8-.9.2-.1.2-.2.3-.4 0-.4.4-.7.8-.7s.8.4.7.8c-.1.2 0 .4.2.5.3.2.5.6.5 1 .1 0 .2 0 .4.1.5.1.7.6.4 1-.1.1-.3.3-.5.4-.2.1-.3 0-.5-.1-.1-.1-.2-.1-.4 0-.3.3-.7.5-1.3.4.1.1.1.2.2.2.1.1.2.2.3.4.1.2.1.4-.2.6-.2.1-.4.2-.7.1-.2 0-.4-.1-.6-.1-.1.2-.2.3-.3.4z"/><linearGradient id="i" gradientUnits="userSpaceOnUse" x1="73.418" y1="173.391" x2="73.418" y2="178.568"><stop offset="0" stop-color="#648EB2"/><stop offset="1" stop-color="#4B759E"/></linearGradient><path fill="url(#i)" d="M72.8 177.5c.1.1.1.2.1.3.1.2.1.4-.2.6-.2.2-.5.3-.8.3-.6.1-1-.3-1-.8 0-.2.1-.4.1-.5v-.4c-.3-.4-.5-.9-.4-1.4-.2-.3-.4-.5-.5-.7-.3-.4 0-.8.3-.9.3-.1.6-.2.9-.2.3 0 .4.1.5.4v.1c0 .1 0 .2.2.2.1 0 .2-.1.2-.2.1-.1.1-.2.2-.4s.3-.3.6-.3c.4 0 .5.2.4.6 0 .1 0 .2-.1.3h.1c.2-.3.5-.5.9-.5.2 0 .3-.1.3-.3.1-.3.5-.5.8-.4.3.1.5.5.3.8-.1.2-.1.3 0 .5.2.3.3.6.2 1 .1.1.2.1.3.1.4.2.4.7 0 .9-.1.1-.3.1-.5.2-.2 0-.3 0-.4-.2-.1-.1-.2-.2-.3-.1-.4.2-.7.2-1.1 0 .1.1.1.2.1.2.1.1.1.3.2.4.1.2 0 .4-.3.4-.2.1-.4 0-.6-.1-.2-.1-.3-.2-.5-.3.2.2.1.3 0 .4z"/><linearGradient id="j" gradientUnits="userSpaceOnUse" x1="74.329" y1="179.427" x2="74.329" y2="183.543"><stop offset="0" stop-color="#407099"/><stop offset="1" stop-color="#225B85"/></linearGradient><path fill="url(#j)" d="M73.5 182.7c0 .1 0 .2.1.3 0 .2 0 .4-.2.5-.2.1-.5.2-.7.2-.5 0-.7-.4-.7-.8 0-.1.1-.3.2-.4 0-.1.1-.2 0-.3-.2-.4-.2-.8-.1-1.2-.1-.2-.2-.4-.3-.7-.1-.4.1-.6.4-.7.2-.1.5-.1.7 0 .2.1.3.2.3.4v.1c0 .1 0 .2.1.2s.2 0 .2-.1c.1-.1.1-.2.2-.3.1-.2.3-.2.5-.2.3 0 .4.3.3.5 0 .1-.1.1-.1.2.2-.2.5-.3.8-.3.1 0 .2-.1.3-.2.2-.2.5-.3.8-.2.3.1.3.5.2.7-.1.1-.1.2-.1.4.1.3.1.5 0 .8l.2.2c.3.2.2.6-.1.8-.1.1-.3.1-.4.1-.1 0-.2-.1-.3-.2-.1-.1-.1-.2-.2-.1-.3.1-.6 0-.9-.2v.2c0 .1.1.2.1.3 0 .2-.1.3-.3.3-.2 0-.3 0-.5-.1l-.3-.3s-.1 0-.2.1z"/><linearGradient id="k" gradientUnits="userSpaceOnUse" x1="34.283" y1="157.918" x2="22.202" y2="157.918"><stop offset="0" stop-color="#30638B"/><stop offset="1" stop-color="#4C79A0"/></linearGradient><path fill="url(#k)" d="M31.1 156.9c.1-.2.3-.4.4-.5.3-.4.6-.5 1.1-.3.5.2 1 .5 1.3.9.6.8.5 1.8-.4 2.3-.3.2-.6.2-.9.3-.2.1-.4.1-.5.4-.4.9-1.1 1.6-1.9 2-.2.6-.4 1.1-.6 1.5-.4.8-1.2.7-1.7.3-.5-.3-.9-.7-1.1-1.2-.3-.5-.2-.8.2-1.2l.2-.2c.1-.1.3-.3.2-.5-.1-.2-.3-.2-.5-.2h-.7c-.5 0-.8-.2-1.1-.6-.4-.5-.2-1.1.5-1.2.2 0 .3-.1.5-.1v-.1-.1c-.7 0-1.2-.4-1.6-.9-.2-.2-.4-.3-.8-.3-.6.1-1.2-.4-1.4-1-.2-.6.3-1.3 1-1.3.4 0 .6-.1.8-.5.2-.6.7-1 1.4-1.2v-.6c0-.8.7-1.3 1.4-.9.3.1.5.4.7.6.2.2.2.5.1.8-.1.2-.1.4.2.6.6.4 1 1 1.1 1.8.1-.2.2-.3.3-.4.1-.2.3-.5.4-.7.3-.3.6-.3.9 0 .3.3.4.6.5 1v1c-.4.3-.2.4 0 .5z"/><linearGradient id="l" gradientUnits="userSpaceOnUse" x1="24.201" y1="162.076" x2="18.336" y2="167.941"><stop offset="0" stop-color="#517AA2"/><stop offset="1" stop-color="#78A7C9"/></linearGradient><path fill="url(#l)" d="M24.1 164.6c.1-.2.2-.3.3-.5.3-.4.6-.5 1-.3.5.2.9.4 1.2.8.6.7.5 1.6-.3 2.1-.3.2-.6.2-.9.3-.2.1-.4.1-.5.4-.4.8-.9 1.5-1.7 1.9-.2.5-.3 1-.5 1.4-.4.7-1 .7-1.6.4-.4-.3-.8-.6-1.1-1.1-.3-.4-.2-.7.1-1.1l.2-.2c.1-.1.3-.2.2-.5-.1-.2-.3-.2-.4-.2h-.7c-.4 0-.8-.2-1-.5-.4-.5-.2-1 .4-1.1.1 0 .3-.1.4-.1v-.1-.1c-.6 0-1.1-.3-1.5-.8-.2-.2-.4-.3-.7-.2-.6.1-1.1-.3-1.3-.8-.2-.5.3-1.2.8-1.2.4 0 .5-.1.7-.5.2-.6.6-.9 1.2-1.1 0-.2 0-.4-.1-.5 0-.7.6-1.2 1.3-.9.3.1.5.3.7.5.2.2.2.5.1.7-.1.2-.1.4.2.5.6.3.9.8 1 1.6.1-.2.2-.3.2-.3.1-.2.2-.4.4-.6.3-.3.6-.3.9 0 .3.2.4.5.4.9v.9c.3.2.4.2.6.3z"/><path fill="#7DAACD" d="M18.4 172.3c.1-.2.2-.3.3-.4.2-.3.5-.5.8-.4.4.1.8.3 1.1.6.6.6.5 1.4-.1 1.9-.2.2-.5.3-.7.4-.2.1-.3.2-.4.4-.3.7-.7 1.4-1.3 1.7-.1.5-.2.9-.4 1.3-.3.7-.9.7-1.3.4-.4-.2-.7-.5-1-.9-.3-.4-.2-.6 0-.9 0-.1.1-.1.1-.2.1-.1.2-.2.1-.4s-.2-.2-.4-.1c-.2 0-.4 0-.6.1-.4.1-.7-.1-.9-.4-.3-.4-.2-.8.3-1 .1 0 .2-.1.4-.1v-.1-.1c-.6 0-1-.2-1.4-.6-.2-.2-.4-.2-.6-.1-.5.1-1-.2-1.2-.6-.2-.5.1-1.1.6-1.1.3 0 .5-.2.6-.5.1-.5.5-.9 1-1.1 0-.2-.1-.3-.1-.4-.1-.7.4-1.1 1-.9.2.1.4.3.6.4.2.2.2.4.2.6 0 .2 0 .3.2.4.5.3.9.7 1 1.3.1-.2.1-.2.2-.3l.3-.6c.2-.3.5-.3.8-.1.2.2.4.4.5.8 0 .3.1.5.1.8-.1.1 0 .1.2.2zM13.8 179.1c.1-.2.1-.3.2-.4.1-.3.4-.4.7-.4.4.1.7.2 1 .4.6.5.6 1.1.1 1.7-.2.2-.4.3-.6.4-.1.1-.3.2-.3.4-.2.7-.5 1.3-1 1.7-.1.4-.1.8-.2 1.2-.2.6-.7.7-1.1.5-.4-.2-.7-.3-1-.7-.3-.3-.3-.5-.1-.8 0-.1.1-.1.1-.2.1-.1.2-.2.1-.4-.1-.1-.2-.1-.4-.1s-.3.1-.5.1c-.3.1-.6 0-.8-.2-.3-.3-.3-.7.1-.9.1-.1.2-.1.3-.2v-.1s0-.1 0 0c-.5.1-.9-.1-1.3-.4-.2-.1-.3-.1-.6-.1-.4.2-.9-.1-1.1-.4-.2-.4 0-1 .5-1.1.3-.1.4-.2.4-.5.1-.5.3-.8.8-1 0-.1-.1-.3-.1-.4-.1-.6.3-1 .8-.9l.6.3c.2.1.2.3.2.5s0 .3.2.4c.5.2.8.5 1 1.1.1-.1.1-.2.1-.3.1-.2.1-.4.2-.5.2-.3.4-.3.7-.1.2.1.4.4.5.6.1.2.1.4.2.7 0 .1.2.1.3.1zM10.1 185.9c0-.1.1-.3.1-.4.1-.3.3-.4.6-.4s.7.1.9.3c.5.3.6.9.3 1.4-.1.2-.3.3-.5.4-.1.1-.2.2-.2.3-.1.6-.3 1.1-.7 1.5v1c-.1.5-.5.7-.9.6-.3-.1-.6-.2-.9-.4-.3-.2-.3-.4-.2-.7 0-.1 0-.1.1-.1 0-.1.1-.2 0-.3-.1-.1-.2-.1-.3 0-.1.1-.3.1-.4.2-.3.1-.5.1-.7-.1-.3-.2-.3-.6 0-.8.1-.1.2-.1.2-.2v-.1c-.4.1-.8 0-1.1-.2-.2-.1-.3-.1-.5 0-.3.2-.8.1-1-.3-.2-.3-.1-.8.3-1 .2-.1.3-.2.3-.5 0-.4.2-.7.5-1-.1-.1-.1-.2-.1-.3-.2-.5.1-.9.6-.8.2 0 .4.1.6.2.2.1.2.3.2.4 0 .1 0 .3.2.3.4.1.8.3 1 .8 0-.1 0-.2.1-.3 0-.2.1-.3.1-.5.1-.2.3-.3.5-.2.2.1.4.3.5.5.1.2.1.4.2.6-.1.1 0 .1.2.1zM7.8 192.2v-.3c0-.3.1-.4.4-.4.3 0 .6 0 .8.1.5.2.7.7.4 1.1-.1.2-.2.3-.3.4-.1.1-.1.2-.1.3 0 .5 0 1-.3 1.4 0 .3.1.6.1.8 0 .5-.3.6-.7.6-.3 0-.6-.1-.8-.2-.2-.1-.3-.3-.2-.6v-.1c0-.1.1-.2 0-.3-.1-.1-.2 0-.3 0-.1.1-.2.1-.3.2-.2.1-.4.1-.6 0-.3-.1-.4-.4-.1-.7l.2-.2v-.1c-.3.2-.6.1-1 0-.2 0-.3 0-.4.1-.3.2-.6.2-.9-.1-.2-.2-.2-.7.1-.8.2-.1.2-.2.2-.4-.1-.3.1-.6.3-.9-.1-.1-.1-.2-.2-.2-.2-.4 0-.8.4-.8.2 0 .3 0 .5.1.2 0 .2.2.3.3 0 .1.1.2.2.2.4 0 .7.2 1 .5v-.2-.4c.1-.2.2-.3.4-.2.2 0 .4.2.5.3.1.1.2.3.3.4-.1.1 0 .1.1.1z"/><linearGradient id="m" gradientUnits="userSpaceOnUse" x1="61.651" y1="130.648" x2="50.161" y2="130.858"><stop offset="0" stop-color="#5782A8"/><stop offset="1" stop-color="#295F87"/></linearGradient><path fill="url(#m)" d="M58.7 129.7c.1-.2.3-.4.4-.5.3-.4.6-.5 1.1-.3.5.2 1 .5 1.3.9.6.8.5 1.8-.4 2.3-.3.2-.6.2-.9.3-.2.1-.4.1-.5.4-.4.9-1.1 1.6-1.9 2-.2.6-.4 1.1-.6 1.5-.4.8-1.2.7-1.7.3-.5-.3-.9-.7-1.1-1.2-.3-.5-.2-.8.2-1.2l.2-.2c.1-.1.3-.3.2-.5-.1-.2-.3-.2-.5-.2h-.7c-.5 0-.8-.2-1.1-.6-.4-.5-.2-1.1.5-1.2.2 0 .3-.1.5-.1v-.1-.1c-.7 0-1.2-.4-1.6-.9-.2-.2-.4-.3-.8-.3-.6.1-1.2-.4-1.4-1-.2-.6.3-1.3 1-1.3.4 0 .6-.1.8-.5.2-.6.7-1 1.4-1.2v-.6c0-.8.7-1.3 1.4-.9.3.1.5.4.7.6.2.2.2.5.1.8-.1.2-.1.4.2.6.6.4 1 1 1.1 1.8.1-.2.2-.3.3-.4.1-.2.3-.5.4-.7.3-.3.6-.3.9 0 .3.3.4.6.5 1v1c-.4.3-.2.4 0 .5z"/><linearGradient id="n" gradientUnits="userSpaceOnUse" x1="54.778" y1="136.354" x2="45.013" y2="136.648"><stop offset="0" stop-color="#30638B"/><stop offset="1" stop-color="#205983"/></linearGradient><path fill="url(#n)" d="M44.8 134.2c.2-.2.6-.4.9-.5v-.6c0-.8.7-1.3 1.4-.9.3.1.5.4.7.6.2.2.2.5.1.8-.1.2-.1.4.2.6.6.4 1 1 1.1 1.8.1-.2.2-.3.3-.4.1-.2.3-.5.4-.7.3-.3.6-.3.9 0 .3.3.4.6.5 1v1c.2.1.3.1.5.2.1-.2.3-.4.4-.5.3-.4.6-.5 1.1-.3.5.2 1 .5 1.3.9.6.8.5 1.8-.4 2.3-.3.2-.6.2-.9.3-.2.1-.4.1-.5.4-.1.2-.3.5-.4.7l-7.6-6.7z"/><linearGradient id="o" gradientUnits="userSpaceOnUse" x1="67.358" y1="123.787" x2="56.457" y2="123.619"><stop offset="0" stop-color="#7DAACD"/><stop offset="1" stop-color="#46749C"/></linearGradient><path fill="url(#o)" d="M64.6 122.3c.1-.2.2-.3.3-.5.2-.4.5-.5.9-.4.5.1.9.3 1.2.7.6.7.6 1.5-.1 2.1-.2.2-.5.3-.8.4-.2.1-.3.2-.4.4-.3.8-.8 1.5-1.5 2-.1.5-.2 1-.4 1.4-.3.7-1 .8-1.5.5-.4-.2-.8-.5-1.1-.9-.3-.4-.3-.6 0-1 0-.1.1-.1.2-.2s.2-.3.1-.5-.3-.2-.5-.2-.4.1-.7.1c-.4.1-.7-.1-1-.4-.4-.4-.3-.9.3-1.1.1-.1.3-.1.4-.2v-.1s0-.1-.1-.1c-.6 0-1.1-.2-1.6-.6-.2-.2-.4-.2-.7-.1-.6.1-1.1-.2-1.4-.7-.2-.5.1-1.2.7-1.3.4 0 .5-.2.6-.5.2-.6.5-1 1.1-1.2 0-.2-.1-.3-.1-.5-.1-.7.5-1.2 1.1-1 .3.1.5.3.7.5.2.2.2.4.2.7 0 .2 0 .4.2.5.6.3 1 .7 1.1 1.5.1-.2.1-.3.2-.4l.3-.6c.2-.3.5-.3.8-.1.3.2.5.5.5.8 0 .3.1.6.1.9.5 0 .7.1.9.1z"/><linearGradient id="p" gradientUnits="userSpaceOnUse" x1="70.535" y1="116.135" x2="60.98" y2="116.388"><stop offset="0" stop-color="#7DAACD"/><stop offset="1" stop-color="#6A95B8"/></linearGradient><path fill="url(#p)" d="M68.1 114.4c.1-.2.1-.3.1-.5.1-.4.3-.6.7-.5.4 0 .9.1 1.2.3.7.4.8 1.2.3 1.8-.2.2-.4.4-.6.5-.2.1-.3.2-.3.4-.1.8-.3 1.5-.9 2v1.3c-.1.7-.7.9-1.2.7-.4-.1-.8-.3-1.2-.6-.3-.3-.4-.5-.2-.9 0-.1.1-.1.1-.2.1-.1.2-.3 0-.4-.1-.1-.3-.1-.4 0-.2.1-.4.1-.6.2-.4.2-.7.1-1-.1-.4-.3-.4-.7 0-1.1.1-.1.2-.1.3-.2v-.1s0-.1-.1 0c-.5.2-1 0-1.5-.2-.2-.1-.4-.1-.6 0-.5.2-1 .1-1.3-.3-.3-.4-.1-1.1.4-1.3.3-.1.4-.3.4-.6 0-.5.3-1 .7-1.3-.1-.2-.1-.3-.2-.4-.2-.6.1-1.2.8-1.1.2 0 .5.1.7.2.2.1.3.3.3.6 0 .2.1.3.3.4.6.1 1 .4 1.3 1.1 0-.2.1-.3.1-.3 0-.2.1-.4.2-.6.1-.3.4-.4.7-.3.3.1.5.3.6.6.1.2.2.5.3.7.2.2.4.2.6.2z"/><path fill="#7DAACD" d="M69.6 107.2v-.4c0-.3.2-.5.5-.6.4-.1.7-.1 1.1 0 .7.2.9.8.7 1.4-.1.2-.3.4-.4.6-.1.1-.2.2-.1.4.1.7 0 1.3-.3 1.8.1.4.2.7.2 1.1.1.6-.4.9-.8.9s-.7-.1-1.1-.2c-.3-.2-.4-.3-.4-.7v-.2c0-.1.1-.3-.1-.4-.1-.1-.2 0-.4.1-.1.1-.3.2-.4.3-.3.2-.5.2-.8.1-.4-.2-.5-.5-.2-.9.1-.1.1-.2.2-.3v-.1h-.1c-.4.2-.8.2-1.3.1-.2 0-.4 0-.5.1-.3.3-.8.3-1.2 0-.3-.3-.3-.9 0-1.1.2-.2.3-.3.2-.6-.1-.4 0-.8.3-1.2-.1-.1-.2-.2-.2-.3-.3-.4-.1-1 .4-1.1.2 0 .4 0 .6.1.2 0 .3.2.4.4 0 .1.1.3.3.2.5 0 .9.1 1.3.6v-.3-.5c.1-.3.2-.4.5-.4s.5.2.6.4c.1.2.2.4.4.6.4.2.5.2.6.1zM69.6 101.6c0-.1 0-.2-.1-.3 0-.3 0-.4.3-.5.3-.1.5-.2.8-.1.5.1.8.5.7 1 0 .2-.1.3-.2.5-.1.1-.1.2 0 .3.2.5.2 1 .1 1.4.1.3.3.5.3.8.1.4-.1.7-.5.8-.3.1-.6.1-.9 0-.3-.1-.4-.2-.4-.5v-.1c0-.1 0-.2-.1-.3-.1 0-.2 0-.3.1l-.3.3c-.2.2-.4.2-.6.2-.3-.1-.5-.3-.3-.6 0-.1.1-.1.1-.2-.3.2-.6.3-.9.3-.2 0-.3.1-.4.2-.2.3-.6.3-.9.2-.3-.2-.4-.6-.1-.8.1-.1.2-.3.1-.5-.1-.3-.1-.6 0-.9-.1-.1-.2-.1-.2-.2-.3-.3-.2-.7.2-.9.2-.1.3-.1.5-.1s.3.1.3.3c.1.1.1.2.3.1.4-.1.7 0 1.1.3v-.2c0-.1-.1-.3-.1-.4 0-.2.1-.3.3-.4.2 0 .4.1.5.2l.4.4c.1-.3.1-.4.3-.4zM67.4 99.3c0 .1.1.2.1.3.1.2 0 .4-.2.5-.2.1-.4.2-.7.2-.5 0-.8-.3-.7-.7 0-.1.1-.3.1-.4 0-.1.1-.2 0-.3-.2-.4-.3-.8-.2-1.2-.1-.2-.3-.4-.4-.6-.2-.4 0-.6.3-.7.2-.1.5-.1.7-.1.2 0 .3.1.4.4v.1c0 .1 0 .2.1.2s.2 0 .2-.1c.1-.1.1-.2.2-.3.1-.2.3-.3.5-.3.3 0 .4.2.3.5 0 .1 0 .1-.1.2.2-.2.5-.3.7-.4.1 0 .2-.1.3-.2.1-.3.4-.4.7-.3.3.1.4.5.2.7-.1.1-.1.3 0 .4.2.2.2.5.1.8.1 0 .2.1.2.1.3.2.3.6 0 .8-.1.1-.3.1-.4.1-.1 0-.2-.1-.3-.2-.1-.1-.1-.1-.2-.1-.3.1-.6.1-.9-.1 0 .1.1.1.1.2s.1.2.1.3c0 .2-.1.3-.2.3-.2 0-.3 0-.5-.1-.1-.1-.2-.2-.4-.3 0 .2-.1.2-.1.3zM66 94.3c.1.1.1.2.1.3.1.2.1.4-.1.6-.2.2-.5.3-.8.4-.5.1-.9-.2-1-.8 0-.2 0-.4.1-.5V94c-.3-.4-.5-.9-.4-1.4-.2-.2-.4-.5-.5-.7-.3-.4 0-.7.3-.9.3-.1.5-.2.8-.2.3 0 .4.1.5.4v.1c0 .1 0 .2.2.2.1 0 .2-.1.2-.2.1-.1.1-.2.2-.4s.3-.3.5-.3c.3 0 .5.2.4.5 0 .1 0 .2-.1.2h.1c.2-.3.5-.5.8-.5.2 0 .3-.1.3-.3.1-.3.5-.5.8-.4.3.1.5.5.4.8-.1.2-.1.3 0 .5.2.3.3.6.2.9.1 0 .2.1.3.1.4.2.4.7.1.9-.1.1-.3.1-.5.2-.2 0-.3 0-.4-.2-.1-.1-.2-.1-.3-.1-.3.2-.7.2-1.1 0 .1.1.1.2.1.2.1.1.1.2.2.4s0 .4-.3.4c-.2.1-.4 0-.6-.1-.2-.1-.3-.2-.5-.3.2.3.1.4 0 .5zM63.9 88.5l.3.3c.2.2.2.5 0 .7-.2.3-.4.5-.8.6-.6.3-1.2 0-1.3-.6-.1-.1-.1-.4-.1-.6 0-.2 0-.3-.2-.4-.5-.4-.8-.9-.9-1.5-.3-.2-.6-.4-.8-.6-.4-.4-.3-.8.1-1.1.3-.2.6-.4.9-.5.3-.1.5 0 .7.3l.1.1c.1.1.1.2.3.2.2 0 .2-.1.2-.3 0-.2.1-.3.1-.5.1-.3.2-.5.5-.6.4-.1.7.1.7.5v.3h.1c.1-.4.4-.7.8-.9.2-.1.2-.2.3-.4.1-.4.4-.7.8-.7s.8.4.7.8c-.1.2 0 .4.2.5.3.2.5.6.5 1 .1 0 .2 0 .4.1.5.1.7.6.3 1-.1.1-.3.3-.5.4-.2.1-.3 0-.5-.1-.1-.1-.2-.1-.4 0-.3.3-.7.5-1.3.4.1.1.1.2.2.2.1.1.2.2.3.4.1.2.1.4-.2.6-.2.1-.4.2-.7.1-.2 0-.4-.1-.6-.2 0 .3-.1.4-.2.5zM60 82.5c.2.1.3.2.4.3.3.3.4.5.2.9s-.4.7-.8 1c-.7.5-1.4.3-1.8-.5-.1-.2-.2-.5-.2-.8 0-.2-.1-.3-.3-.4-.7-.4-1.2-.9-1.5-1.6l-1.2-.6c-.6-.4-.5-1-.2-1.4.3-.3.6-.6 1-.8.4-.2.6-.1.9.2 0 .1.1.1.1.2.1.1.2.3.4.2.2-.1.2-.2.2-.4v-.6c0-.4.2-.6.5-.8.5-.3.9-.1 1 .5 0 .1 0 .3.1.4h.2c.1-.6.4-.9.8-1.3.2-.2.3-.3.2-.6 0-.5.4-1 .9-1.1.5-.1 1 .3 1 .9 0 .3.1.5.4.6.5.2.8.6.9 1.2h.5c.7 0 1 .6.7 1.2-.1.2-.3.4-.5.6-.2.2-.4.1-.7 0-.2-.1-.3-.1-.5.1-.3.5-.8.7-1.5.7.1.1.2.2.3.2.2.1.4.2.5.4.2.3.2.5-.1.8-.2.2-.5.3-.8.3-.3 0-.5 0-.8-.1-.1 0-.2.1-.3.3zM54 76.4c.2.1.3.2.5.3.4.3.5.6.3 1-.2.5-.4.9-.8 1.2-.7.6-1.6.4-2.1-.3-.2-.2-.2-.6-.3-.8-.1-.2-.1-.4-.4-.5-.8-.4-1.5-.9-1.8-1.7-.5-.2-1-.3-1.4-.5-.7-.4-.7-1-.3-1.5.3-.4.6-.8 1.1-1 .4-.2.7-.2 1 .1l.2.2c.1.1.2.3.5.2.2-.1.2-.3.2-.4V72c0-.4.2-.7.5-1 .5-.3.9-.2 1.1.4 0 .1.1.3.1.4h.2c0-.6.3-1.1.8-1.5.2-.2.3-.4.2-.7-.1-.6.3-1.1.8-1.3.5-.2 1.2.3 1.2.8 0 .4.1.5.5.7.6.2.9.6 1.1 1.2.2 0 .3 0 .5-.1.7 0 1.2.6.9 1.2-.1.3-.3.5-.5.7-.2.2-.5.2-.7.1-.2-.1-.4-.1-.5.1-.3.6-.8.9-1.6 1 .2.1.3.2.3.2.2.1.4.2.6.4.3.3.3.6 0 .8-.2.3-.5.4-.9.4h-.9c-.2.2-.3.4-.4.6zM47.1 70.3c.2.1.4.2.5.4.4.3.5.6.4 1.1-.2.5-.5 1-.9 1.3-.8.6-1.7.5-2.3-.3-.2-.3-.3-.6-.4-.9-.1-.2-.2-.4-.4-.5-.9-.4-1.6-1-2-1.8-.6-.2-1.1-.3-1.5-.6-.8-.4-.8-1.1-.4-1.7.3-.5.7-.9 1.2-1.2.5-.3.7-.2 1.2.1l.2.2c.1.1.3.3.5.2.2-.1.2-.3.2-.5v-.7c-.1-.5.2-.8.5-1.1.5-.4 1.1-.2 1.2.4 0 .2.1.3.1.5h.1s.1 0 .1-.1c0-.7.4-1.2.8-1.7.2-.2.3-.4.2-.8-.1-.6.3-1.2.9-1.4.6-.2 1.3.3 1.3.9 0 .4.2.6.5.7.6.2 1 .7 1.2 1.3.2 0 .4-.1.6-.1.8 0 1.3.6 1 1.4-.1.3-.4.5-.6.8-.2.2-.5.2-.8.1-.2-.1-.4-.1-.6.2-.4.6-.9 1-1.8 1.1.2.1.3.2.4.2.2.1.5.2.7.4.3.3.3.6 0 .9-.3.3-.6.5-1 .5h-1c0 .3 0 .5-.1.7zM39.3 64c.2.1.4.2.5.4.4.3.5.6.4 1.1-.2.5-.5 1-.9 1.3-.8.6-1.7.5-2.3-.3-.2-.3-.3-.6-.4-.9-.1-.2-.2-.4-.4-.5-.9-.4-1.6-1-2-1.8-.6-.2-1.1-.3-1.5-.6-.8-.4-.8-1.1-.4-1.7.3-.5.7-.9 1.2-1.2.5-.3.7-.2 1.2.1l.2.2c.1.1.3.3.5.2.2-.1.2-.3.2-.5v-.7c-.1-.5.2-.8.5-1.1.5-.4 1.1-.2 1.2.4 0 .2.1.3.1.5h.1s.1 0 .1-.1c0-.7.4-1.2.8-1.7.2-.2.3-.4.2-.8-.1-.6.3-1.2.9-1.4.6-.2 1.3.3 1.3.9 0 .4.2.6.5.7.6.2 1 .7 1.2 1.3.2 0 .4-.1.6-.1.8 0 1.3.6 1 1.4-.1.3-.4.5-.6.8-.2.2-.5.2-.8.1-.2-.1-.4-.1-.6.2-.4.6-.9 1-1.8 1.1.2.1.3.2.4.2.2.1.5.2.7.4.3.3.3.6 0 .9-.3.3-.6.5-1 .5h-1c0 .3 0 .5-.1.7zM31.5 57.7c.2.1.4.2.5.4.4.3.5.6.4 1.1-.2.5-.5 1-.9 1.3-.8.6-1.7.5-2.3-.3-.2-.3-.3-.6-.4-.9-.1-.2-.2-.4-.4-.5-.9-.4-1.6-1-2-1.8-.6-.2-1.1-.3-1.5-.6-.8-.4-.8-1.1-.4-1.7.3-.5.7-.9 1.2-1.2.5-.3.7-.2 1.2.1l.2.2c.1.1.3.3.5.2.2-.1.2-.3.2-.5v-.7c-.1-.5.2-.8.5-1.1.5-.4 1.1-.2 1.2.4 0 .2.1.3.1.5h.1s.1 0 .1-.1c0-.7.4-1.2.8-1.7.2-.2.3-.4.2-.8-.1-.6.3-1.2.9-1.4.6-.2 1.3.3 1.3.9 0 .4.2.6.5.7.6.2 1 .7 1.2 1.3.2 0 .4-.1.6-.1.8 0 1.3.6 1 1.4-.1.3-.4.5-.6.8-.2.2-.5.2-.8.1-.2-.1-.4-.1-.6.2-.4.6-.9 1-1.8 1.1.2.1.3.2.4.2.2.1.5.2.7.4.3.3.3.6 0 .9-.3.3-.6.5-1 .5h-1c.1.3 0 .5-.1.7z"/><path fill="#C3497C" d="M23.7 51.2c.2.1.4.2.5.4.4.3.5.6.4 1.1-.2.5-.5 1-.9 1.3-.8.6-1.7.5-2.3-.3-.2-.3-.3-.6-.4-.9-.1-.2-.2-.4-.4-.5-.9-.4-1.6-1-2-1.8-.6-.4-1.1-.5-1.6-.8-.8-.4-.8-1.1-.4-1.7.3-.5.7-.9 1.2-1.2.5-.3.7-.2 1.2.1l.2.2c.1.1.3.3.5.2.2-.1.2-.3.2-.5v-.7c-.1-.5.2-.8.5-1.1.5-.4 1.1-.2 1.2.4 0 .2.1.3.1.5h.1s.1 0 .1-.1c0-.7.4-1.2.8-1.7.3-.1.3-.3.3-.6-.1-.6.3-1.2.9-1.4.6-.2 1.3.3 1.3.9 0 .4.2.6.5.7.6.2 1 .7 1.2 1.3.2 0 .4-.1.6-.1.8 0 1.3.6 1 1.4-.1.3-.4.5-.6.8-.2.2-.5.2-.8.1-.2-.1-.4-.1-.6.2-.4.6-.9 1-1.8 1.1.2.1.3.2.4.2.2.1.5.2.7.4.3.3.3.6 0 .9-.3.3-.6.5-1 .5h-1c0 .3 0 .5-.1.7z"/><linearGradient id="q" gradientUnits="userSpaceOnUse" x1="8.814" y1="41.445" x2="20.821" y2="41.445"><stop offset="0" stop-color="#74A2C4"/><stop offset="1" stop-color="#7DAACD"/></linearGradient><path fill="url(#q)" d="M15.8 44.4c.2.1.3.3.5.4.4.3.5.6.3 1.1-.2.5-.5.9-.9 1.2-.8.6-1.7.4-2.2-.4-.2-.3-.2-.6-.3-.9-.1-.2-.1-.4-.4-.5-.8-.4-1.5-1.1-1.9-1.9l-1.5-.6c-.8-.4-.7-1.1-.3-1.7.3-.4.7-.8 1.2-1.1.5-.2.7-.2 1.1.2l.2.2c.1.1.2.3.5.2.2-.1.2-.3.2-.5v-.7c0-.5.2-.8.6-1 .5-.3 1-.1 1.2.5 0 .2.1.3.1.4h.2c0-.7.4-1.2.9-1.6.2-.2.3-.4.3-.7-.1-.6.4-1.2 1-1.3.6-.2 1.3.3 1.2 1 0 .4.1.6.5.7.6.2 1 .7 1.1 1.3h.5c.8 0 1.2.7.9 1.4-.1.3-.4.5-.6.7-.2.2-.5.2-.8.1-.2-.1-.4-.1-.5.1-.4.6-.9.9-1.8 1 .2.1.3.2.4.3.2.1.4.3.6.4.3.3.3.6 0 .9-.3.3-.6.4-1 .4h-1c-.2 0-.2.2-.3.4z"/><linearGradient id="r" gradientUnits="userSpaceOnUse" x1="3.517" y1="34.909" x2="14.232" y2="34.909"><stop offset="0" stop-color="#74A2C4"/><stop offset="1" stop-color="#7DAACD"/></linearGradient><path fill="url(#r)" d="M9.2 37.5c.1.2.3.3.4.4.3.3.3.6.1.9-.2.4-.5.7-1 .9-.8.4-1.5.1-1.9-.7-.1-.3-.1-.6-.1-.8 0-.2-.1-.4-.2-.5-.7-.5-1.2-1.1-1.4-1.9-.4-.3-.8-.5-1.2-.7-.6-.5-.4-1.1 0-1.5.3-.3.7-.6 1.2-.8.4-.1.7-.1.9.3 0 .1.1.1.1.2.1.1.2.3.4.2.2 0 .2-.2.3-.4 0-.2.1-.4.1-.6 0-.4.3-.7.6-.8.5-.2.9 0 .9.6v.4h.2c.1-.6.5-.9 1-1.2.2-.1.3-.3.3-.6 0-.5.5-1 1-1 .5-.1 1 .5.9 1-.1.3 0 .5.3.7.5.3.7.8.8 1.3h.5c.7.1 1 .8.6 1.3-.2.2-.4.4-.6.5-.2.2-.5.1-.7 0-.2-.1-.3-.1-.5 0-.4.5-.9.7-1.7.6l.3.3c.2.2.4.3.5.5.2.3.1.6-.2.8-.3.2-.6.3-.9.2-.3 0-.5-.1-.8-.1 0 .2-.1.3-.2.5z"/><linearGradient id="s" gradientUnits="userSpaceOnUse" x1="5.218" y1="24.938" x2="5.218" y2="31.835"><stop offset="0" stop-color="#74A2C4"/><stop offset="1" stop-color="#7DAACD"/></linearGradient><path fill="url(#s)" d="M4.6 30.3c.1.2.1.3.2.4.1.3.1.6-.2.8-.3.2-.6.4-1 .5-.7.1-1.3-.3-1.3-1 0-.2.1-.5.1-.7 0-.2 0-.3-.1-.5-.3-.5-.6-1.2-.5-1.8-.3-.3-.5-.6-.7-.9-.4-.5-.1-1 .4-1.2.4-.2.7-.3 1.1-.3.4 0 .5.1.7.5 0 .1 0 .1.1.2 0 .1.1.3.2.3.2 0 .2-.1.3-.2-.1-.2 0-.4.1-.5.1-.3.4-.4.7-.5.5-.1.7.2.6.7 0 .1-.1.2-.1.3v.1h.1c.3-.5.7-.6 1.1-.8.2-.1.3-.2.4-.4.2-.4.6-.7 1.1-.6.4.1.7.6.5 1-.1.2-.1.4.1.6.3.4.4.8.3 1.2.1.1.3.1.4.2.5.3.6.8.1 1.2l-.6.3c-.2.1-.4 0-.5-.2-.2 0-.3-.1-.5 0-.4.3-.9.3-1.5.1.1.1.1.2.1.3.1.2.2.3.3.5.1.3 0 .5-.3.6-.3.1-.5.1-.8 0l-.6-.3c-.1-.1-.2 0-.3.1z"/><linearGradient id="t" gradientUnits="userSpaceOnUse" x1="3.607" y1="18.272" x2="3.607" y2="24.539"><stop offset="0" stop-color="#5A84AC"/><stop offset="1" stop-color="#72A0C2"/></linearGradient><path fill="url(#t)" d="M2.6 23.1c0 .2.1.3.1.4.1.3 0 .5-.3.6-.3.2-.6.3-1 .2-.6 0-1-.5-.9-1.1 0-.2.1-.4.2-.6.1-.1.1-.2 0-.4-.2-.6-.3-1.1-.2-1.7-.2-.3-.4-.6-.5-.9-.2-.5.1-.9.5-1 .3-.1.7-.1 1-.1.3.1.4.2.5.5v.2c0 .1 0 .2.2.3.1 0 .2 0 .3-.1.1-.1.2-.2.3-.4.2-.2.4-.3.7-.3.4 0 .6.3.4.7 0 .1-.1.2-.1.3v.1h.1c.3-.3.7-.4 1.1-.4.2 0 .3-.1.4-.3.2-.3.7-.4 1-.3.4.2.5.7.2 1-.2.2-.2.3-.1.6.2.4.2.7 0 1.1.1.1.2.1.3.2.4.3.3.8-.1 1-.1.3-.3.3-.5.3s-.3-.1-.4-.3c-.1-.1-.2-.2-.3-.1-.4.1-.9.1-1.3-.2 0 .1.1.2.1.3 0 .2.1.3.1.5 0 .3-.1.4-.4.4-.2 0-.5 0-.7-.2-.2-.1-.3-.3-.5-.4 0 0-.1 0-.2.1z"/><linearGradient id="u" gradientUnits="userSpaceOnUse" x1="3.212" y1="12.347" x2="3.212" y2="16.962"><stop offset="0" stop-color="#255C86"/><stop offset="1" stop-color="#517AA2"/></linearGradient><path fill="url(#u)" d="M2.1 16.2v.3c0 .3-.1.4-.3.5-.3.1-.5.1-.8.1-.5-.1-.8-.5-.6-1 .1-.2.2-.3.3-.4.1-.1.1-.2.1-.3-.1-.5-.1-1 .1-1.4-.1-.3-.2-.5-.3-.8-.1-.4.2-.7.6-.7.3 0 .6 0 .8.1.3.1.3.2.3.5v.1c0 .1 0 .2.1.3.1.1.2 0 .3-.1l.3-.3c.2-.2.4-.2.6-.1.3.1.4.4.2.6 0 .1-.1.1-.1.2.3-.2.6-.2.9-.2.2 0 .3 0 .4-.2.2-.2.6-.3.9-.1.3.2.3.6.1.8-.2.1-.2.3-.1.4.1.3.1.6-.1.9l.2.2c.3.3.2.7-.2.8h-.5c-.2 0-.3-.1-.3-.3 0-.1-.1-.2-.2-.2-.4.1-.7 0-1-.3v.2c0 .1.1.3 0 .4 0 .2-.1.3-.4.3-.2 0-.4-.1-.5-.2-.1-.1-.2-.2-.3-.4-.3.3-.4.3-.5.3z"/><linearGradient id="v" gradientUnits="userSpaceOnUse" x1="33.837" y1="48.529" x2="44.382" y2="51.166"><stop offset="0" stop-color="#205983"/><stop offset="1" stop-color="#33658D"/></linearGradient><path fill="url(#v)" d="M33.8 47.8c.3-.5.7-.8 1.2-.9 0-.2-.1-.4-.1-.6-.1-.8.6-1.3 1.4-1 .3.1.5.4.8.6.2.2.2.5.1.8-.1.2-.1.4.2.5.6.4 1 .9 1.1 1.8.1-.2.2-.3.2-.4.1-.2.2-.5.4-.7.3-.3.6-.3.9 0 .3.3.5.6.5 1v1c.2.1.3.1.5.2.1-.2.2-.4.4-.5.3-.4.6-.5 1.1-.4.5.2 1 .5 1.3.9.6.8.5 1.7-.3 2.3-.3.2-.6.3-.9.4-.2.1-.4.2-.5.4-.2.4-.4.8-.6 1.1l-7.7-6.5z"/><linearGradient id="w" gradientUnits="userSpaceOnUse" x1="39.56" y1="43.512" x2="51.753" y2="43.512"><stop offset="0" stop-color="#285E87"/><stop offset="1" stop-color="#517AA2"/></linearGradient><path fill="url(#w)" d="M48.7 42.6c.2-.2.3-.3.4-.5.3-.4.7-.5 1.1-.3.5.2.9.5 1.2 1 .6.8.4 1.8-.5 2.3-.3.2-.6.2-1 .3-.2.1-.4.1-.5.4-.5.9-1.1 1.5-2 1.9-.2.5-.4 1-.7 1.5-.5.8-1.2.7-1.7.3-.4-.4-.8-.7-1.1-1.3-.2-.5-.2-.8.2-1.1l.2-.2c.1-.1.3-.2.2-.5-.1-.2-.3-.3-.5-.3h-.7c-.5 0-.8-.2-1-.6-.3-.6-.1-1.1.5-1.2.2 0 .3-.1.5-.1v-.1-.1c-.7-.1-1.2-.5-1.6-1-.2-.2-.4-.3-.7-.3-.6 0-1.2-.4-1.4-1-.1-.6.4-1.3 1-1.3.4 0 .6-.1.8-.5.3-.6.8-1 1.4-1.1v-.6c0-.8.7-1.3 1.5-.9.3.2.5.4.7.6.2.2.2.5.1.8-.1.2-.1.4.1.6.6.4.9 1 1 1.9.1-.2.2-.3.3-.4.2-.2.3-.5.5-.6.3-.3.6-.3.9.1.3.3.4.6.4 1v1c0 .2.2.2.4.3z"/><linearGradient id="x" gradientUnits="userSpaceOnUse" x1="46.923" y1="36.205" x2="58.991" y2="36.205"><stop offset="0" stop-color="#3C6C94"/><stop offset="1" stop-color="#75A4C6"/></linearGradient><path fill="url(#x)" d="M56 35.3c.2-.2.3-.3.4-.5.3-.4.6-.5 1.1-.3.5.2.9.5 1.2 1 .6.8.4 1.8-.5 2.3-.3.2-.6.2-.9.3-.2.1-.4.1-.5.4-.5.8-1.1 1.5-2 1.9-.2.5-.4 1-.7 1.5-.4.8-1.2.7-1.7.3-.4-.3-.8-.7-1.1-1.2-.2-.5-.2-.8.2-1.1l.2-.2c.1-.1.3-.2.2-.5-.1-.2-.3-.3-.5-.3h-.7c-.5 0-.8-.2-1-.6-.3-.5-.1-1.1.5-1.2.2 0 .3-.1.5-.1v-.1-.1c-.7-.1-1.2-.5-1.6-1-.2-.2-.4-.3-.7-.3-.6 0-1.2-.4-1.4-1-.1-.6.4-1.3 1-1.3.4 0 .6-.1.8-.5.3-.6.8-1 1.4-1.1V31c0-.8.7-1.3 1.4-.9.3.2.5.4.7.6.2.2.2.5.1.8-.1.2-.1.4.1.6.6.4.9 1 1 1.8.1-.2.2-.3.3-.4.2-.2.3-.5.5-.6.3-.3.6-.3.9.1.3.3.4.6.4 1v1c0 .2.1.2.4.3z"/><linearGradient id="y" gradientUnits="userSpaceOnUse" x1="54.966" y1="29.425" x2="66.037" y2="29.425"><stop offset="0" stop-color="#628CB1"/><stop offset="1" stop-color="#7DAACD"/></linearGradient><path fill="url(#y)" d="M63.2 28.6c.1-.2.2-.3.4-.5.3-.3.6-.4 1-.3.4.2.8.5 1.1.9.5.8.4 1.6-.4 2.1-.3.2-.6.2-.9.3-.2.1-.4.1-.5.3-.4.8-1 1.4-1.8 1.7-.2.5-.4.9-.6 1.4-.4.7-1.1.6-1.6.3-.4-.3-.8-.7-1-1.1-.2-.5-.2-.7.2-1l.2-.2c.1-.1.3-.2.2-.4-.1-.2-.2-.2-.4-.2h-.7c-.4 0-.7-.2-1-.5-.3-.5-.1-1 .5-1.1.1 0 .3-.1.4-.1v-.1-.1c-.6 0-1.1-.4-1.5-.8-.2-.2-.4-.3-.7-.3-.6.1-1.1-.4-1.3-.9-.1-.6.3-1.2.9-1.2.4 0 .6-.1.7-.4.2-.5.7-.9 1.3-1v-.5c0-.7.6-1.2 1.3-.8.2.1.5.4.6.6.2.2.2.5.1.7-.1.2-.1.4.1.5.6.4.9.9.9 1.7.1-.2.2-.2.2-.3.1-.2.3-.4.4-.6.3-.3.6-.2.9 0 .2.3.4.6.4.9v.9c.3-.1.4 0 .6.1z"/><path fill="#7DAACD" d="M69.2 21.5c.1-.2.2-.3.3-.5.2-.3.5-.4.9-.3.4.2.8.4 1.1.7.6.7.5 1.5-.3 2-.2.2-.5.2-.8.3-.2.1-.3.1-.4.4-.3.8-.8 1.4-1.5 1.8-.2.5-.3.9-.5 1.3-.3.7-1 .7-1.5.4-.4-.3-.8-.6-1-1-.2-.4-.2-.6.1-1 0-.1.1-.1.2-.2s.2-.2.2-.4c-.1-.2-.2-.2-.4-.2s-.4 0-.6.1c-.4.1-.7-.1-.9-.4-.3-.4-.2-.9.4-1.1.1 0 .3-.1.4-.1v-.1-.1c-.6 0-1-.3-1.4-.7-.2-.2-.4-.2-.7-.2-.5.1-1.1-.3-1.2-.8-.2-.5.2-1.1.8-1.2.3 0 .5-.1.6-.5.2-.5.6-.9 1.1-1.1 0-.2-.1-.3-.1-.5-.1-.7.5-1.1 1.2-.8.2.1.5.3.6.5.2.2.2.4.1.7-.1.2-.1.3.2.5.6.3.9.8 1 1.5.1-.2.2-.2.2-.3.1-.2.2-.4.4-.6.2-.3.5-.3.8 0 .2.2.4.5.4.8v.8c0 .1.1.2.3.3zM72.8 14.1c.1-.2.1-.3.2-.5.1-.3.3-.5.7-.5.4 0 .8.1 1.1.4.6.4.8 1.2.2 1.7-.2.2-.4.3-.6.5-.2.1-.3.2-.3.4-.1.7-.4 1.4-.9 1.9 0 .4 0 .9-.1 1.2-.1.7-.7.8-1.2.7-.4-.1-.8-.3-1.1-.6-.3-.3-.3-.5-.2-.9 0-.1.1-.1.1-.2.1-.1.2-.3 0-.4-.1-.1-.3-.1-.4-.1-.2.1-.4.1-.5.2-.3.1-.6.1-.9-.2-.4-.3-.4-.7.1-1 .1-.1.2-.1.3-.2v-.1s0-.1-.1 0c-.5.1-1 0-1.4-.2-.2-.1-.4-.1-.6 0-.4.2-1 0-1.2-.4-.3-.4-.1-1 .4-1.2.3-.1.4-.2.4-.5 0-.5.3-.9.7-1.2-.1-.2-.1-.3-.2-.4-.2-.6.2-1.1.8-1 .2 0 .5.2.7.3.2.1.3.3.3.6 0 .2 0 .3.2.4.5.1.9.5 1.2 1.1 0-.2.1-.2.1-.3.1-.2.1-.4.2-.6.1-.3.4-.4.7-.2.3.1.5.3.6.6.1.2.2.5.2.7.2-.1.3 0 .5 0zM74.2 6.9v-.4c0-.3.2-.5.5-.6.3-.1.7-.1 1 0 .6.2.9.8.6 1.4-.1.2-.2.4-.4.5-.1.1-.2.2-.1.4.1.6 0 1.3-.3 1.8.1.4.2.7.2 1.1.1.6-.4.8-.8.8s-.7-.1-1.1-.2c-.3-.2-.4-.3-.3-.7v-.2c0-.1.1-.3-.1-.3-.1-.1-.2 0-.3.1-.1.1-.3.2-.4.3-.2.1-.4.1-.7 0-.4-.2-.5-.5-.2-.8.1-.1.1-.2.2-.2v-.1h-.1c-.4.2-.8.2-1.2.1-.2 0-.3 0-.5.1-.3.3-.8.3-1.1 0-.3-.3-.3-.8 0-1.1.2-.1.3-.3.2-.6-.1-.4 0-.8.3-1.2-.1-.1-.2-.2-.2-.3-.3-.4-.1-1 .4-1 .2 0 .4 0 .6.1.2 0 .3.2.4.4 0 .1.1.3.3.2.5 0 .9.1 1.3.6v-.3-.5c0-.2.1-.3.4-.3.3 0 .5.2.6.4.1.2.2.3.4.5h.4zM74.3 1V.7c0-.2.1-.4.3-.5.1-.2.4-.2.7-.2.5.1.8.5.7 1 0 .2-.1.3-.2.5-.1.1-.1.2-.1.3.2.5.2 1 0 1.4.1.3.2.5.3.8.1.4-.2.7-.5.7s-.6.1-.8 0c-.3-.1-.4-.2-.4-.5v-.1c0-.1 0-.2-.1-.3-.1-.1-.2 0-.3.1l-.3.3c-.2.2-.4.2-.6.2-.3-.1-.4-.3-.3-.6 0-.1.1-.1.1-.2-.3.2-.6.3-.9.3-.2 0-.3 0-.4.2-.2.3-.6.3-.9.2-.3-.2-.4-.6-.1-.8.1-.1.2-.3.1-.5-.1-.3-.1-.6.1-.9-.1-.1-.2-.1-.2-.2-.3-.3-.2-.7.2-.8h.5c.2 0 .3.1.3.3.1.1.1.2.3.1.4-.1.7 0 1 .3v-.2c0-.1-.1-.3-.1-.4 0-.2.1-.3.3-.3.2 0 .4.1.5.2l.4.4c.2-.5.2-.5.4-.5z"/></g></svg>