<svg xmlns="http://www.w3.org/2000/svg" viewBox="0 0 946.6 241.4"><path d="M47.6 59.7c0 5.8-1.6 10.8-4.8 14.9-3.5 4.6-8.3 6.9-14.3 6.9-2.7 0-5-.8-7.1-2.3v18.5h-14V51.6c0-2.8-.4-4.7-1.1-5.6-.7-1-2.3-1.4-4.6-1.4h-.3c-1-.2-1.5-.8-1.5-1.7 0-1 .5-1.6 1.6-1.6l19.8-3.5v4.6c1.9-2.1 4.4-3.2 7.5-3.2 5.5 0 9.9 2 13.5 6 3.6 3.9 5.3 8.8 5.3 14.5zm-14 0c0-9.8-2.5-14.7-7.5-14.7-3.2 0-4.7 4.9-4.7 14.7v3.2c0 8.2 1.6 12.3 4.7 12.3 5 0 7.5-5.2 7.5-15.5z"/><path d="M65.6 80.6h-14v-29c0-2.8-.4-4.7-1.2-5.6-.8-.9-2.3-1.4-4.5-1.4h-.3c-1-.2-1.5-.8-1.5-1.7 0-1 .5-1.6 1.6-1.6l19.8-3.5v42.8zm-.3-50.8c0 2.1-.8 3.9-2.3 5.4-1.5 1.5-3.4 2.2-5.5 2.2s-3.9-.7-5.3-2.2c-1.4-1.5-2.1-3.3-2.1-5.4 0-2.1.7-3.9 2.1-5.4 1.4-1.5 3.2-2.2 5.3-2.2 2.1 0 4 .7 5.5 2.2 1.6 1.5 2.3 3.3 2.3 5.4zM113.5 59.7c0 5.8-1.6 10.8-4.8 14.9-3.5 4.6-8.3 6.9-14.3 6.9-2.7 0-5-.8-7.1-2.3v18.5h-14V51.6c0-2.8-.4-4.7-1.1-5.6-.8-.9-2.3-1.4-4.6-1.4h-.3c-1-.2-1.5-.8-1.5-1.7 0-1 .5-1.6 1.6-1.6l19.8-3.5v4.6c1.9-2.1 4.4-3.2 7.5-3.2 5.5 0 9.9 2 13.5 6 3.6 3.9 5.3 8.8 5.3 14.5zm-14 0C99.5 49.9 97 45 92 45c-3.2 0-4.7 4.9-4.7 14.7v3.2c0 8.2 1.6 12.3 4.7 12.3 5.1 0 7.5-5.2 7.5-15.5z"/><path d="M152.9 80.6h-14v-1.3c-1.4 1.5-3.8 2.3-7.2 2.3-5.9 0-10.7-2.3-14.2-6.9-3.2-4.1-4.8-9.1-4.8-14.9 0-5.8 1.8-10.6 5.3-14.6s8-6 13.5-6c3.1 0 5.6 1 7.5 3.1v-2l14-2.5v42.8zm-14-17.7v-3.2c0-9.8-1.6-14.7-4.7-14.7-5 0-7.5 4.9-7.5 14.7 0 10.3 2.5 15.5 7.5 15.5 3.2 0 4.7-4.1 4.7-12.3zM108.9 91.3c0 .5-.1.9-.2 1.1-.1.2-.3.3-.5.3h-2.8c.5.5.9 1.1 1.1 1.7.2.6.3 1.3.3 2 0 1.1-.2 2.1-.5 3-.4.9-.9 1.6-1.5 2.2-.7.6-1.5 1.1-2.4 1.4-.9.3-1.9.5-3.1.5-.8 0-1.5-.1-2.3-.3-.7-.2-1.3-.5-1.6-.8-.3.3-.5.6-.6.9-.2.3-.2.7-.2 1.1 0 .5.2.9.7 1.3.5.3 1.1.5 1.9.5l5.1.2c1 0 1.8.2 2.7.4.8.2 1.5.6 2.1 1 .6.4 1 1 1.4 1.6.3.6.5 1.4.5 2.2 0 .9-.2 1.7-.6 2.5-.4.8-.9 1.5-1.7 2.1-.8.6-1.8 1.1-2.9 1.4-1.2.4-2.6.5-4.2.5s-2.9-.1-4-.4c-1.1-.3-2-.6-2.7-1.1-.7-.5-1.2-1-1.5-1.6-.3-.6-.5-1.3-.5-2.1 0-.5.1-.9.2-1.4.1-.4.3-.9.5-1.3s.5-.8.9-1.2c.4-.4.8-.7 1.2-1.1-.7-.4-1.2-.8-1.6-1.4-.3-.5-.5-1.1-.5-1.8 0-.9.2-1.7.5-2.4.4-.7.8-1.3 1.3-1.9-.4-.5-.8-1.1-1.1-1.8-.3-.7-.4-1.5-.4-2.4 0-1.1.2-2.1.6-3 .4-.9.9-1.6 1.6-2.2.7-.6 1.5-1.1 2.4-1.4s1.9-.5 3-.5c.6 0 1.1 0 1.6.1s1 .2 1.4.3h5.9c.2 0 .4.1.5.4-.1.5 0 .9 0 1.4zm-3.8 20.5c0-.8-.3-1.5-1-1.9-.7-.5-1.6-.7-2.8-.7l-5-.2c-.5.4-.8.7-1.1 1-.3.3-.5.6-.7.9-.2.3-.3.6-.4.9-.1.3-.1.6-.1.9 0 .9.5 1.6 1.4 2.1.9.5 2.3.7 4 .7 1.1 0 2-.1 2.7-.3.7-.2 1.3-.5 1.8-.8.4-.3.8-.7 1-1.2.1-.5.2-.9.2-1.4zm-1.8-15.4c0-1.3-.4-2.4-1.1-3.1-.7-.7-1.8-1.1-3.1-1.1-.7 0-1.3.1-1.8.3-.5.2-.9.5-1.3.9-.3.4-.6.9-.8 1.4-.2.5-.2 1.1-.2 1.6 0 1.3.4 2.3 1.1 3 .7.7 1.7 1.1 3.1 1.1.7 0 1.3-.1 1.8-.3.5-.2.9-.5 1.3-.9.3-.4.6-.9.8-1.4.1-.4.2-.9.2-1.5zM122.8 91.7v.8c0 .2 0 .4-.1.5 0 .1-.1.2-.2.3-.1.1-.2.1-.3.1-.1 0-.3 0-.4-.1-.2-.1-.4-.1-.6-.2-.2-.1-.4-.1-.7-.2-.3-.1-.5-.1-.8-.1-.4 0-.7.1-1.1.2-.3.1-.7.4-1.1.7-.4.3-.8.8-1.2 1.3-.4.5-.9 1.2-1.4 2v12.8c0 .1 0 .2-.1.3-.1.1-.2.1-.3.2-.1.1-.3.1-.5.1h-1.8c-.2 0-.4-.1-.5-.1-.1-.1-.2-.1-.3-.2-.1-.1-.1-.2-.1-.3V90.4c0-.1 0-.2.1-.3 0-.1.1-.2.3-.2.1-.1.3-.1.5-.1h1.6c.2 0 .4.1.5.1.1.1.2.1.2.2.1.1.1.2.1.3v2.8c.5-.8 1-1.4 1.5-1.9s.9-.9 1.3-1.2c.4-.3.8-.5 1.2-.6.4-.1.8-.2 1.2-.2h.6c.2 0 .5.1.7.1.3.1.5.1.7.2.2.1.4.1.4.2l.2.2c0 .1.1.1.1.2v.4c.3.5.3.8.3 1.1zM143.2 99.9c0 1.6-.2 3-.6 4.4-.4 1.3-1 2.5-1.9 3.4-.8 1-1.9 1.7-3.1 2.3-1.2.5-2.7.8-4.3.8-1.6 0-3-.2-4.2-.7-1.2-.5-2.2-1.2-3-2.1-.8-.9-1.4-2-1.8-3.3-.4-1.3-.6-2.8-.6-4.4 0-1.6.2-3 .6-4.4.4-1.3 1-2.5 1.9-3.4.8-1 1.9-1.7 3.1-2.2 1.2-.5 2.7-.8 4.3-.8 1.6 0 3 .2 4.2.7 1.2.5 2.2 1.2 3 2.1.8.9 1.4 2 1.8 3.3.4 1.2.6 2.7.6 4.3zm-3.7.2c0-1-.1-2-.3-3-.2-.9-.5-1.8-1-2.5s-1.1-1.3-1.8-1.7c-.8-.4-1.7-.6-2.9-.6-1.1 0-2 .2-2.7.6-.8.4-1.4.9-1.9 1.6-.5.7-.9 1.5-1.1 2.4-.2.9-.4 2-.4 3.1s.1 2.1.3 3c.2.9.5 1.8 1 2.4.5.7 1.1 1.3 1.8 1.7.8.4 1.7.6 2.9.6 1 0 2-.2 2.7-.6.8-.4 1.4-.9 1.9-1.6.5-.7.9-1.5 1.1-2.4.3-.8.4-1.8.4-3zM163 109.8c0 .1 0 .2-.1.3-.1.1-.1.1-.3.2-.1.1-.3.1-.5.1h-1.6c-.2 0-.4-.1-.5-.1-.1-.1-.2-.1-.2-.2s-.1-.2-.1-.3v-2.6c-1.1 1.2-2.2 2.1-3.3 2.7s-2.2.8-3.3.8c-1.3 0-2.4-.2-3.3-.6-.9-.4-1.6-1-2.1-1.8-.5-.7-.9-1.6-1.2-2.6-.2-1-.4-2.2-.4-3.6V90.4c0-.1 0-.2.1-.3.1-.1.1-.2.3-.2.1-.1.3-.1.6-.1h1.8c.2 0 .4.1.5.1.1.1.2.1.3.2.1.1.1.2.1.3v11.3c0 1.1.1 2 .2 2.7.2.7.4 1.3.8 1.7.3.5.8.9 1.3 1.1.5.3 1.1.4 1.8.4.9 0 1.8-.3 2.7-.9.9-.6 1.8-1.6 2.8-2.8V90.4c0-.1 0-.2.1-.3.1-.1.1-.2.3-.2.1-.1.3-.1.5-.1h1.8c.2 0 .4.1.5.1.1.1.2.1.3.2.1.1.1.2.1.3v19.4zM185.5 99.8c0 1.7-.2 3.2-.5 4.6-.4 1.4-.9 2.5-1.6 3.4-.7.9-1.6 1.7-2.6 2.2-1 .5-2.2.8-3.6.8-.6 0-1.1-.1-1.6-.2s-1-.3-1.4-.5c-.5-.2-.9-.6-1.4-.9-.5-.4-.9-.8-1.5-1.3v9.7c0 .1 0 .2-.1.3-.1.1-.2.2-.3.2-.1.1-.3.1-.5.1h-1.8c-.2 0-.4-.1-.5-.1-.1-.1-.2-.1-.3-.2-.1-.1-.1-.2-.1-.3V90.4c0-.1 0-.2.1-.3 0-.1.1-.1.3-.2.1-.1.3-.1.5-.1h1.4c.2 0 .4.1.5.1.1.1.2.1.3.2.1.1.1.2.1.3V93c.6-.6 1.2-1.1 1.7-1.6.5-.4 1.1-.8 1.6-1.1.6-.3 1.1-.5 1.7-.7.6-.2 1.2-.2 1.8-.2 1.4 0 2.6.3 3.6.8s1.8 1.3 2.4 2.2c.6.9 1.1 2.1 1.4 3.3.2 1.4.4 2.7.4 4.1zm-3.7.4c0-1-.1-2-.2-2.9-.2-.9-.4-1.7-.8-2.5-.4-.7-.9-1.3-1.5-1.7-.6-.4-1.4-.6-2.3-.6-.5 0-.9.1-1.4.2-.4.1-.9.4-1.4.6-.5.3-.9.7-1.5 1.2-.5.5-1 1.1-1.6 1.8v7.7c1 1.2 1.9 2.1 2.8 2.7.9.6 1.8.9 2.8.9.9 0 1.7-.2 2.3-.6.6-.4 1.2-1 1.6-1.7.4-.7.7-1.5.9-2.4.2-.9.3-1.8.3-2.7z"/><path fill="#FFF" d="M815.5 229.5c.9-.4 1.9-.7 2.6-1.3 5.9-5.1 11.8-10.3 17.5-15.6 1.8-1.6 3.4-2.8 5.9-3.3 6.1-1.1 12.1-2.3 18-3.9 9.5-2.6 18.9-5.5 27-11.4 4.7-3.4 8.6-7.1 5.9-13.6.7-.3 1.2-.6 1.6-.7 16.4-3.1 29.7-11.4 40.4-24 5.5-6.5 8.9-14.1 7.4-23 4.8-4.2 5.3-9.5 4.1-15.2-2.2-10.1-6.4-19.3-11.9-27.9-3.8-5.8-8.6-10.9-13.6-17 0-3.3.3-7.7-.1-11.9-.4-4.4-1.4-8.8-5.2-12.2-6.4 4.6-5.6 11.8-7 18.3-2.8-.5-5.3-1.1-7.9-1.4-2.7-.3-5.4-.2-8.1-.3 5-6 10.3-11 15.7-15.9 5.7-5.1 11.8-9.8 17.3-15.1 2.4-2.3 4.2-5.6 5.6-8.7 2.4-5.7.6-11.1-4.6-14.4-2.5-1.6-5.4-2.7-8.2-3.6-8.2-2.5-16.7-2.7-25.2-2.9-3.3-.1-6.6.5-9.9.8-4.8.5-9.6.8-14.4 1.5-5.2.8-10.4 2.1-15.6 3.2-1.8-1.5-3.6-3-5.5-4.3-2.5-1.7-5-3.4-7.7-4.6-5.7-2.5-9.3-1-11.5 4.7-1.6 3.9-2.2 8-1.4 12.2 1.3 6.7 2.8 13.3 4.2 20 1.3 6.4-1 10.2-7.4 11.8-6.9 1.7-13.3 4.4-18.8 8.9-2.9 2.4-5.6 5-8.1 7.2-1.7-4.4-3.3-9.5-5.7-14.2-2.4-4.8-6.4-8.4-11.3-10.9-1.4-7.1-2-14.4-8.9-19.2-2.6 1.3-5 2.5-7.3 3.7-2.4 1.3-4.8 2.7-7.3 4.2-.8-1.8-1.3-3-1.9-4.2-4-7.5-15-11-22-2.1-2 2.6-3.7 5.5-5.1 8.5-4.5 10-6.1 20.7-8 31.4-1.2 6.4-2.3 12.8-3.5 19.5-1.3-1.4-2.2-2.5-3.9-4.3-.7 2.7-1.4 4.5-1.5 6.4-.5 9.6-1.2 19.3-1 28.9.1 6.4-1.2 12.2-3.4 18-.4 1.1-1.2 2.1-2.3 3.9-7.1-11.5-13.1-22.5-11.5-36 .3-2.3.2-4.7.1-7-.2-9.2-.5-18.3-.8-27.4-.3-8.2-1.7-16.2-4.1-24-.8-2.7-2.1-5.3-3.7-7.6-3.5-4.9-9-6.6-14.6-4.4-2.7 1.1-5.4 2.6-7.7 4.4-7.5 6-12.6 13.7-16 22.6-2.4 6.4-4.2 13.1-2.2 20 1.7 6.3 4.6 11.7 10.4 15 2.1-.7 4-1.2 5.7-1.8 2.4 1.9 3.3 4.3 3.7 6.7 1.4 8.2 2.8 16.4 4 24.6.9 6.1 1.3 12.2 2.3 18.3 1.3 7.8 4.1 15 9.1 21.6-1.9 2.4-3.5 4.6-5.3 6.4-3.2 3.2-6.9 3.4-10.2.2-4.9-4.8-8.4-10.6-8.6-17.5-.2-5.8.3-11.6.7-17.4.6-8.4.4-16.7-3.9-24.3-.6-1-1.6-1.9-2.8-3.3-1.5 2.4-2.8 4.1-3.8 6-3.6 6.8-5.7 14.2-7.5 21.7-2.1 8.9-3.8 17.9-8.1 26.2-.5.9-1.2 1.6-2.5 3.3.4-8.8.2-16.4 1.2-24 1.7-14 4-28 6.2-41.9 2.2-13.7 3.2-27.5 2.2-41.3-.3-4-.3-8.3-2.7-12-.7.3-1.4.4-1.5.7-3.3 8.5-6.5 16.9-9.8 25.8-.4-.9-.8-1.5-1.1-2.2-3.2-8.4-9.1-12.4-18.2-11.5-3.1.3-6.2.6-9.4.9-2.8-5.2-2.3-11.5-6.5-16.6-3.6 2.7-6.9 4.9-9.9 7.5-7.5 6.7-11.4 15.5-14.4 24.8-1.2 3.7-3.1 6.9-5.6 9.9-10.1 12.4-17.7 26.1-22.3 41.5-.1.2-.5.4-.8.6-1.1-.9-2.2-1.8-3.4-2.7-4 3.3-5.4 8.1-8.2 12.5-1.1-1.3-2.2-2.2-2.6-3.3-1.6-3.8-3.7-7.6-4.3-11.6-1.7-10.5-2.8-21.1-4.1-31.6-.9-7.7-2.4-15.2-7.1-21.6-2.3-3.2-4.8-6.4-8.8-7.8-3.6 3-2.8 7.8-4.9 11.4-5.2.2-10.6-.8-15.1 2.3-4.2 2.8-8 6.2-12.2 9.4-.3-.7-.7-1.2-.9-1.8-2.7-7.5-8.1-12-15.8-13.9-9-2.3-18.2-2.4-27.2-.4-5.1 1.2-9.5 4-12.2 9.1.5 1.4.8 2.9 1.4 4.2 3.7 7.3 7.4 14.5 11.3 21.7 1.5 2.8 3.2 5.5 5.2 7.9 3.3 4.1 7.7 5.2 12.5 3.1 1.7-.7 3.4-1.6 4.7-2.8 4.9-4.5 9.6-9.2 14.3-13.9 1.3-1.3 2.1-3.2 4.5-3.9 0 1.2.1 2 0 2.8-.2 2-.5 4-.7 5.9-1.8 14.3-6.6 27.5-15 39.2-1.6 2.3-3.5 4.5-5.7 6.3-5.4 4.5-12.1 4.3-17.3-.4-1.5-1.3-2.7-2.9-4-4.4-6.4-7.8-10.6-16.9-14.8-26-1-2.1-2-4.3-3.3-6.1-3.9-5.5-10.1-5.4-14.6-.4-4.4 5-9.1 9.7-13.9 14.3-2.6 2.5-6.1 2.7-9.4 1.9-7.4-1.8-13-11.9-10.4-19 1.1-3.1 2.8-6.1 4.9-8.6 4.4-5.4 9.2-10.5 13.7-15.8 1-1.2 1.7-2.6 2.4-3.9-.9-.7-1.2-1.1-1.6-1.4-5.4-2.8-10.8-2.8-16.4-.4-5.8 2.5-10.5 6.3-15.2 10.3-3.8 3.2-7.6 6.5-11.7 9.3-5.8 4-10 3.2-14.2-2.4-1-1.3-1.8-2.8-2.8-4.2-6.4-9-16-10.2-23.9-4.4-3.2 2.4-6.5 4.7-9.8 6.9-4.4 2.9-9.2 3.4-14.3 2-11.6-3.1-23.1-6.2-34.8-8.8-11.5-2.6-23.2-4.1-35.1-4.2-3.6 0-7.3.4-10.9.7-5.8.4-11.6.8-17.4 1.3-13.1 1.2-26.1 2.7-39.2 3.5-11.1.7-94.6 2.8-106.3 3.2-1 0-2 .4-3.5.7 1.9 1.9 75.4-.7 77-.8 8.1-.3 16.3-.6 24.4-.9 8.8-.4 17.6-.7 26.4-1.3 4.6-.3 9.2-1 13.9-1.5 8.4-.8 16.9-1.9 25.3-2.4 14.8-.8 29.7-.2 44.2 3.1 11.2 2.6 22.4 5.1 33.4 8.5 6.2 1.9 11.7 1.9 17.3-1.1 2.6-1.4 5.2-3.1 7.7-4.6 2-1.2 3.9-2.6 5.9-3.7 6.3-3.2 11-2.5 15.8 2.6 2.1 2.3 3.8 5 5.5 7.7 3.8 5.8 6.8 7 13 3.9 4.4-2.2 8.5-5.2 12.5-8.2 4.1-3.1 7.8-6.7 12-9.8 4.2-3.1 8.7-5.5 14.2-5.2 2.5.1 4.5.8 5.3 3.8-.7.9-1.4 1.8-2.2 2.6-3.4 3.5-6.9 6.8-10.1 10.4-2.5 2.9-4.7 6-6.8 9.2-5.6 8.7 1.4 21.6 8.5 24.7 3.6 1.5 7.2 1.9 10.6.2 2.4-1.2 4.8-2.5 6.7-4.3 3.8-3.5 7.4-7.2 10.8-11.1 1.8-2.1 3.8-3.7 6.4-4.2 2.6.3 3.9 2.1 5 4 2.7 5 5.5 9.9 8 15 3.2 6.5 6.7 12.7 11.4 18.1 7.6 8.7 18.6 9.1 26.8 1 1.5-1.5 2.9-3.2 4.1-5 10.2-15.4 15.5-32.3 15.9-50.8 0-1.4.2-3.2 1.1-4.2 4-4.4 7.9-9 13.7-11.4 3.5-1.5 7-1.7 10.7-.1.2 1 .5 2 .5 2.9.3 7 .5 14 1 20.9.5 7.9 2.3 15.5 5.4 22.7.9 2.1 2.3 3.9 3.5 5.7 3.4-.3 5.1-2.2 6.7-4.1 1.6-1.9 2.8-4.1 4.2-6.2 1.4 4.4 2.5 8.8 4.2 12.9 1.7 4.2 4 8 8.9 10.5 2-4.5 3.9-8.8 5.9-13.4 3.2 2.2 3.5 4.9 3.3 7.8-.3 4.9.3 9.7 1.9 14.3 1.1 3 2.2 6 5.8 6.7.5 1.6.8 3.1 1.3 4.5 2 5.5 3.6 11.1 6.3 16.3 6 11.8 18.3 15.5 30.2 9.8 5.1-2.4 9.2-6 12.6-10.4 2.2-2.8 4.4-5.6 7-8.9 2 6 1.9 12.2 6.6 17.9.9-2.8 1.6-4.4 1.9-6.1 1.6-8 3.2-16 4.5-24 2.4-15.1 4.4-30.3 8.4-45.1 1.9-7.2 2.9-14.7 3.5-22.1.4-5.2.9-10.3 2.3-15.2 1.6-5.6 3.4-11.2 5.1-16.7.3-1 .8-2 1.6-3.9.5 1.7.8 2.5.9 3.2 1.6 10 1 20-.2 29.9-2.4 19.1-5.5 38.2-7.8 57.3-.9 7.7-.5 15.6-.6 23.4 0 1.1.8 2.2 1.5 3.9 4.3-4 6.6-8.2 8.2-12.7 2.4-7.1 4.3-14.3 6.2-21.6 1.8-7.1 3.2-14.3 6.7-20.9.5-.9 1.4-1.5 2.4-2.7 2.2 5.5 2.7 10.6 2.6 15.8-.2 7.7-.6 15.3-.7 22.9-.1 7.4 2 14.2 7.4 19.5 5.4 5.3 11.6 5.5 17.4.6 1.4-1.2 2.6-2.5 4-3.8 2-.5 3.9-1.3 5.4-2.5 2.9-2.5 4.3-5.9 5.3-9.5 1.5-5.5 1.6-11.2 1.2-16.8-.4-5.3-.6-10.6-1-15.9 3.6 7.2 6.5 14.6 12.9 19.9 3.9-3.2 4.3-7.9 6.4-11.7 2.4-.9 4.8-1.8 6.9-2.5 0 4.5-.1 8.8 0 13.1.2 7.1 1.3 13.9 5.6 19.9.7 1 1.2 2.4 1.3 3.7.4 3.1.6 6.3.6 9.5.1 8 .4 16.3 3.6 23.6 3.2 7.2 6.1 14.6 9.8 21.6.3.6.8 1.1 1.1 1.6 7.1 9.7 16.7 16.1 27.8 20.5 11.3 4.4 22.6 3 33.6-.9 3.3-1.2 6.3-3.4 9.4-5.2 1.8-.9 3.4-1.9 5.1-2.9z"/><path d="M810.6 232.5c-3.1 1.8-6.1 4-9.4 5.2-11.1 3.9-22.3 5.3-33.6.9-11.1-4.3-20.6-10.8-27.8-20.5-.4-.5-.8-1-1.1-1.6-3.7-7-6.6-14.4-9.8-21.6-3.2-7.3-3.5-15.5-3.6-23.6 0-3.2-.3-6.3-.6-9.5-.1-1.3-.6-2.6-1.3-3.7-4.3-6-5.4-12.8-5.6-19.9-.1-4.3 0-8.6 0-13.1-2.1.8-4.5 1.7-6.9 2.5-2.1 3.8-2.5 8.5-6.4 11.7-6.5-5.3-9.3-12.7-12.9-19.9.3 5.3.6 10.6 1 15.9.4 5.7.4 11.3-1.2 16.8-1 3.6-2.5 7-5.3 9.5-1.5 1.3-3.4 2-5.4 2.5-1.3 1.3-2.6 2.6-4 3.8-5.8 4.9-12 4.7-17.4-.6-5.5-5.4-7.5-12.1-7.4-19.5.1-7.7.5-15.3.7-22.9.1-5.2-.5-10.2-2.6-15.8-1 1.1-1.9 1.8-2.4 2.7-3.5 6.5-4.9 13.8-6.7 20.9-1.9 7.2-3.8 14.5-6.2 21.6-1.5 4.5-3.9 8.7-8.2 12.7-.7-1.7-1.6-2.8-1.5-3.9.1-7.8-.4-15.7.6-23.4 2.3-19.2 5.5-38.2 7.8-57.3 1.2-9.9 1.8-19.9.2-29.9-.1-.8-.4-1.5-.9-3.2-.8 1.9-1.3 2.9-1.6 3.9-1.7 5.6-3.5 11.1-5.1 16.7-1.5 5-1.9 10.1-2.3 15.2-.6 7.4-1.6 14.9-3.5 22.1-3.9 14.8-6 30-8.4 45.1-1.3 8-2.9 16-4.5 24-.3 1.7-1 3.3-1.9 6.1-4.6-5.7-4.6-11.9-6.6-17.9-2.6 3.3-4.8 6.1-7 8.9-3.4 4.4-7.5 7.9-12.6 10.4-11.9 5.7-24.1 1.9-30.2-9.8-2.6-5.1-4.2-10.8-6.3-16.3-.5-1.4-.9-2.9-1.3-4.5-3.6-.8-4.7-3.8-5.8-6.7-1.6-4.6-2.2-9.4-1.9-14.3.2-2.9-.1-5.6-3.3-7.8-2 4.6-3.9 8.9-5.9 13.4-4.9-2.5-7.2-6.3-8.9-10.5-1.7-4.1-2.8-8.5-4.2-12.9-1.4 2.1-2.6 4.3-4.2 6.2-1.6 1.9-3.3 3.8-6.7 4.1-1.1-1.8-2.6-3.7-3.5-5.7-3.2-7.2-4.9-14.9-5.4-22.7-.4-7-.6-14-1-20.9 0-1-.3-1.9-.5-2.9-3.7-1.6-7.2-1.4-10.7.1-5.7 2.4-9.7 7-13.7 11.4-.9.9-1 2.7-1.1 4.2-.4 18.5-5.8 35.4-15.9 50.8-1.2 1.8-2.6 3.5-4.1 5-8.2 8.1-19.2 7.7-26.8-1-4.8-5.4-8.3-11.6-11.4-18.1-2.5-5.1-5.2-10-8-15-1.1-1.9-2.4-3.6-5-4-2.6.5-4.6 2.1-6.4 4.2-3.4 3.9-7 7.6-10.8 11.1-1.9 1.8-4.3 3.1-6.7 4.3-3.5 1.7-7.1 1.4-10.6-.2-7.1-3-14.1-15.9-8.5-24.7 2.1-3.2 4.3-6.4 6.8-9.2 3.2-3.6 6.7-6.9 10.1-10.4.8-.8 1.4-1.7 2.2-2.6-.8-3-2.9-3.7-5.3-3.8-5.5-.3-10.1 2.1-14.2 5.2s-7.8 6.7-12 9.8c-4 3-8.1 6-12.5 8.2-6.2 3.1-9.2 1.9-13-3.9-1.7-2.6-3.4-5.4-5.5-7.7-4.8-5.1-9.5-5.8-15.8-2.6-2.1 1-3.9 2.5-5.9 3.7-2.6 1.6-5.1 3.2-7.7 4.6-5.6 3-11.1 3-17.3 1.1-10.9-3.4-22.2-5.9-33.4-8.5-14.5-3.3-29.4-3.9-44.2-3.1-8.5.5-16.9 1.5-25.3 2.4-4.6.5-9.2 1.2-13.9 1.5-8.8.5-17.6.9-26.4 1.3-8.1.3-16.3.7-24.4.9-1.5 0-75.1 2.6-77 .8 1.5-.3 2.5-.7 3.5-.7 11.6-.4 95.1-2.6 106.7-3.3 13.1-.9 26.2-2.4 39.2-3.5 5.8-.5 11.6-.9 17.4-1.3 3.6-.3 7.3-.7 10.9-.7 11.9 0 23.6 1.6 35.1 4.2 11.7 2.6 23.3 5.7 34.8 8.8 5.2 1.4 9.9.9 14.3-2 3.4-2.2 6.6-4.5 9.8-6.9 7.9-5.8 17.6-4.5 23.9 4.4 1 1.4 1.8 2.8 2.8 4.2 4.1 5.6 8.3 6.5 14.2 2.4 4.1-2.8 7.9-6.1 11.7-9.3 4.7-4 9.5-7.9 15.2-10.3 5.5-2.4 11-2.4 16.4.4.4.2.8.6 1.6 1.4-.8 1.3-1.4 2.7-2.4 3.9-4.6 5.3-9.4 10.4-13.7 15.8-2.1 2.5-3.8 5.6-4.9 8.6-2.6 7.1 3.1 17.2 10.4 19 3.4.8 6.8.6 9.4-1.9 4.8-4.6 9.5-9.3 13.9-14.3 4.5-5 10.7-5.1 14.6.4 1.3 1.9 2.3 4 3.3 6.1 4.2 9.1 8.4 18.1 14.8 26 1.3 1.5 2.5 3.1 4 4.4 5.2 4.7 11.9 4.9 17.3.4 2.1-1.8 4-4 5.7-6.3 8.4-11.8 13.2-24.9 15-39.2.2-2 .5-4 .7-5.9.1-.8 0-1.6 0-2.8-2.4.7-3.1 2.6-4.5 3.9-4.7 4.7-9.4 9.4-14.3 13.9-1.3 1.2-3 2.1-4.7 2.8-4.8 2.1-9.3 1-12.5-3.1-1.9-2.5-3.7-5.2-5.2-7.9-3.9-7.2-7.6-14.4-11.3-21.7-.7-1.3-1-2.8-1.4-4.2 2.7-5.1 7.1-7.9 12.2-9.1 9-2.1 18.2-1.9 27.2.4 7.6 1.9 13 6.4 15.8 13.9.2.6.6 1.2.9 1.8 4.2-3.2 8-6.5 12.2-9.4 4.5-3.1 9.9-2 15.1-2.3 2.1-3.6 1.3-8.4 4.9-11.4 4.1 1.4 6.5 4.6 8.8 7.8 4.6 6.4 6.2 13.9 7.1 21.6 1.2 10.6 2.3 21.2 4.1 31.6.7 4 2.7 7.8 4.3 11.6.5 1.1 1.5 2 2.6 3.3 2.9-4.4 4.2-9.2 8.2-12.5 1.2 1 2.3 1.8 3.4 2.7.3-.2.7-.4.8-.6 4.6-15.4 12.3-29.1 22.3-41.5 2.4-3 4.4-6.1 5.6-9.9 3-9.2 6.9-18.1 14.4-24.8 2.9-2.6 6.3-4.8 9.9-7.5 4.3 5.1 3.7 11.4 6.5 16.6 3.2-.3 6.3-.5 9.4-.9 9.1-.9 15 3.1 18.2 11.5.3.7.7 1.4 1.1 2.2 3.4-8.8 6.6-17.3 9.8-25.8.1-.3.8-.4 1.5-.7 2.4 3.7 2.4 8 2.7 12 1 13.8 0 27.6-2.2 41.3-2.2 14-4.5 27.9-6.2 41.9-.9 7.5-.8 15.2-1.2 24 1.3-1.7 2.1-2.4 2.5-3.3 4.3-8.2 6-17.3 8.1-26.2 1.7-7.5 3.8-14.8 7.5-21.7 1-1.9 2.3-3.6 3.8-6 1.2 1.5 2.2 2.3 2.8 3.3 4.3 7.6 4.5 15.9 3.9 24.3-.4 5.8-.9 11.6-.7 17.4.2 7 3.7 12.7 8.6 17.5 3.2 3.2 7 3 10.2-.2 1.9-1.9 3.4-4 5.3-6.4-5-6.5-7.8-13.8-9.1-21.6-1-6.1-1.4-12.2-2.3-18.3-1.2-8.2-2.6-16.4-4-24.6-.4-2.4-1.3-4.8-3.7-6.7-1.8.6-3.6 1.1-5.7 1.8-5.8-3.3-8.7-8.8-10.4-15-1.9-6.9-.2-13.6 2.2-20 3.4-8.9 8.5-16.6 16-22.6 2.3-1.8 5-3.4 7.7-4.4 5.6-2.2 11.1-.5 14.6 4.4 1.6 2.3 2.8 4.9 3.7 7.6 2.4 7.8 3.8 15.8 4.1 24 .3 9.1.5 18.3.8 27.4.1 2.3.1 4.7-.1 7-1.6 13.5 4.4 24.4 11.5 36 1-1.8 1.8-2.8 2.3-3.9 2.2-5.8 3.5-11.6 3.4-18-.1-9.6.5-19.3 1-28.9.1-1.8.9-3.7 1.5-6.4 1.7 1.9 2.6 2.9 3.9 4.3 1.2-6.7 2.4-13.1 3.5-19.5 2-10.6 3.5-21.4 8-31.4 1.4-3 3-6 5.1-8.5 7-8.9 18-5.4 22 2.1.6 1.2 1.1 2.4 1.9 4.2 2.5-1.5 4.9-2.9 7.3-4.2 2.3-1.3 4.7-2.4 7.3-3.7 6.8 4.8 7.4 12.1 8.9 19.2 4.9 2.5 8.8 6.1 11.3 10.9 2.4 4.7 3.9 9.8 5.7 14.2 2.5-2.2 5.2-4.9 8.1-7.2 5.5-4.5 11.9-7.2 18.8-8.9 6.4-1.6 8.7-5.4 7.4-11.8-1.4-6.7-2.9-13.3-4.2-20-.8-4.2-.2-8.3 1.4-12.2 2.3-5.7 5.9-7.2 11.5-4.7 2.7 1.2 5.2 3 7.7 4.6 1.9 1.3 3.7 2.9 5.5 4.3 5.2-1.1 10.4-2.3 15.6-3.2 4.8-.8 9.6-1.1 14.4-1.5 3.3-.3 6.6-.9 9.9-.8 8.5.2 17 .4 25.2 2.9 2.8.8 5.7 2 8.2 3.6 5.2 3.3 7 8.7 4.6 14.4-1.3 3.2-3.1 6.4-5.6 8.7-5.5 5.3-11.6 10-17.3 15.1-5.4 4.9-10.7 9.9-15.7 15.9 2.7.1 5.4 0 8.1.3 2.6.3 5.2.9 7.9 1.4 1.4-6.5.6-13.7 7-18.3 3.8 3.4 4.8 7.8 5.2 12.2.4 4.3.1 8.6.1 11.9 4.9 6.1 9.8 11.2 13.6 17 5.6 8.5 9.8 17.8 11.9 27.9 1.2 5.7.7 11-4.1 15.2 1.4 8.9-1.9 16.4-7.4 23-10.6 12.6-24 21-40.4 24-.5.1-.9.4-1.6.7 2.7 6.5-1.2 10.2-5.9 13.6-8.1 5.9-17.5 8.8-27 11.4-5.9 1.6-12 2.9-18 3.9-2.5.4-4.2 1.6-5.9 3.3-5.8 5.3-11.6 10.4-17.5 15.6-.7.6-1.7.9-2.6 1.3 1.6-1.6 3.1-3.4 4.8-4.9 4.9-4.1 9.3-8.7 13.1-14.1-3.2.4-6.5.8-9.8 1.3-1.4 2.5-2.7 5-4.1 7.5-3.3 5.7-8.2 9.9-13 14.2-.1.1-.2.2-.2.3.1-.1.1-.3.2-.4 1.3-.3 2.7-.7 4-1l-.5.1zm26.9-84l-1 1-1 1-1 1c-.1.1-.2.2-.2.3.1-.1.1-.2.2-.4l1-1 1-1c.3-.3.6-.6 1-.9l.2-.3-.2.3zm-6 1c-.1.1-.2.2-.2.4 0-.2.1-.3.2-.4.3-.4.6-.7 1-1l2-2 1-1c.1-.1.2-.2.3-.4-.1.1-.1.3-.2.4l-1 1-2 2c-.4.3-.8.7-1.1 1zm-15 15.9c.4-.1.8-.2.2-.1.5-.2.2 0-.2.1l-.2.3.2-.3zm-10-57.9c-.3 1-.7 2-1 3-.9 1.9-2 3.7-2.8 5.7-.8 1.8-2 3.7.2 6.7 1-4.8 1.8-8.6 2.6-12.4.3-1 .6-2 1-3 .1-.4.4-.7.1-.2.1-.6 0-.2-.1.2zm-2 54c-.1-.1-.2-.2-.3-.2.1 0 .2.1.3.2.3 1.8.8 3.5 3 4 .1.1.2.3 0 0 .3.3.1.1 0 0-1-1.4-2-2.7-3-4zm64-88.1c.1.1.2.1.3.2-.1 0-.2-.1-.3-.2.1-2.2-1.2-3.6-2.5-4.9 0 2.1.5 3.9 2.5 4.9zm15 104c.1.1.2.1.3.2-.1 0-.2-.1-.3-.2-4.5-3.6-10.1-4.4-15.9-7 4.2 5.1 9.2 7.2 15.9 7zm-195-37.9c-1.8 6.6-3.7 13.2-5.5 19.9 0 .2.3.5.9 1.2 4.9-6.5 4.9-13.8 4.6-21.1.2-.9.4-1.8.7-2.7-.1 0-.3 0-.4-.1-.1.9-.2 1.9-.3 2.8zm137-79.1c2.9-2.1 5.8-4.1 9-6.4-.4-1.1-.8-2.3-1.1-3.2-2.2-.7-3.8-.3-4.6 1.5-1.2 2.7-2.2 5.5-3.3 8.1 0 .2-.1.2-.2.3 0 0 .1-.1.2-.3zm-216 83.1c-2.9 5.5-5.8 11.1-8.7 16.7 1 3.9.4 8.1 3.1 12 3.1-9.7 5.3-19.1 5.6-28.7.1-.4.3-.7.1-.2.1-.6 0-.2-.1.2zm175 25c-6.5 4.9-11.2 11.4-16.9 17.6 10.9.3 16.5-4.8 16.9-14.7.1-1 0-2 0-2.9 0-.1.1-.2.1-.3 0 .1 0 .2-.1.3zm40 21l-.2-.3.2.3c.4 3.2.9 6.6 1 9.9.1 3.2-.4 6.4-.6 10.2 3-.4 5.4-.9 7.9-1 3.5-.1 5.6-1.7 6.5-5.3-3.9-5.7-9.9-9.2-14.8-13.8zm-281.7-39.8c1.4 4.7 2.5 9.1 3.9 13.3 2.1 6.2 4.6 12.1 9.5 16.7 4.4 4.1 9.4 5.4 15.2 4.2 10.2-2 17.1-8.5 22.6-16.8 2.9-4.3 5.6-8.7 3.7-14.3-.3-.9-.1-2 0-3 .2-6 .7-12 .7-17.9 0-8.1-.5-16.3-.7-24.4-.4-14.3-2.7-28.4-5.4-42.5-.3-1.5-1-3-1.4-4.3-.9 0-1.3-.1-1.6 0-9.1 3.7-17.1 9-24 15.9-1.7 1.6-2.8 4.2-3.3 6.5-1.1 4.5-1.6 9.2-2.4 13.7-1.5 8.8-2.7 17.7-4.6 26.5-2.1 9.6-6.2 18.3-12.2 26.4zm146.5-71.9c.7-10.9-.7-20.9-2.4-30.9-.7-4.6-2.5-9-5.7-12.6-2.7-3.2-6.1-4.6-10.2-3.1-1.9.7-3.7 1.5-5.4 2.6-9.3 6.2-14.6 15.3-18 25.6-1.8 5.6-2 11.4-1 17.2.9 4.9 3 9.1 8.1 11.5 2.1-.8 4.2-1.6 6.4-2.4 3.1 3.7 4.1 8.1 5.3 12.4 2.7 9.5 3 19.3 4 29.1 1 8.8 2.3 17.5 6.1 25.6.7 1.6 1.7 3 3 5.2.9-2 1.6-3.2 1.9-4.4 1.9-7.7 4.3-15.4 5.4-23.3 1.6-11.3 2.9-22.6 0-34.1-1.9-7.5-1.8-15.5-2.5-23.2-.1-1.1.5-2.3.8-3.4.4 0 .8-.1 1.3-.1.9 2.5 1.8 5.1 2.9 8.3zm192.6-8.6c4.3-3.8 7.8-6.6 10.9-9.7 6.7-6.8 13.7-13 21.4-18.6 4-2.9 7.8-6.3 10.9-10.1 6.5-7.8 4.8-13.7-4.6-19.4-.6-.3-1.2-.5-1.8-.8-5.8-2.8-12.2-3.3-18.5-3.7-13.7-1-27.2.4-40.5 4-1.4.4-2.7 1-4.7 1.7 14.8 15.9 22.5 34.8 26.9 56.6zM836.6 140c12.1-7.4 15.6-13.7 16.7-29.8 0-.2-.2-.5-.3-.7-.8.5-1.5 1-2.9 1.9-.8-1.9-1.5-3.4-1.9-4.9-4-14.8-7.9-29.5-11.9-44.3-.4-1.5-.9-3-1.5-4.7-1.1.6-1.7.9-2.2 1.2-4.4 3-7.3 7.3-9.7 11.9-9 16.9-12.7 35.6-17.1 54-.5 2.3.5 3.8 2.8 4.7 4.3-3.2 8.4-6.6 14.1-8 2.2 3.1 4.4 6.3 6.6 9.3 2.4 3.2 4.9 6.3 7.3 9.4zm52 40.8c-16.1-1.7-18.6-3.2-25.5-11-10.9-.2-19.1-7-27.8-12.1-4.9 3.4-9.6 6.7-14.4 10-.9 8.1-.1 12.3 4.7 18.3 2.7 3.4 5.7 6.5 9 9.3 3.7 3.2 7.3 6.2 6.5 12.1 13.4-2.5 26.4-4.8 38.2-10.9 2.8-1.4 5.5-3.2 7.7-5.4 3.5-3.3 3.7-6 1.6-10.3zM727.8 163c-1.4 9 1.9 30.2 6 35.5 2.4-8.5 9-10.7 16.4-11.6 2.1-.3 4.3 0 6.4.3 4.1.6 7.3-.3 10.2-3.5 3.7-4.2 7.9-8.1 12-12 4.4-4.1 7.4-8.8 8.1-15 .5-4.1 1.7-8.1 2.6-11.8-2.2-2.4-4-4.4-5.9-6.6-4.8 5.7-9 11.2-13.8 16.1-5.1 5.2-11.4 8.4-18.4 10-4-3.6-4.4-8.7-6.6-12.2-5.7 3.7-11.2 7.1-17 10.8zM756 88.8c.8-18.4 6.1-34.7 20.3-47.9-.6-5.4-1.3-11.3-5.3-16.2-4.5 1.4-8.1 3.8-11.5 6.4-2 1.5-3 3.3-2.8 6 .4 9.5-1.8 18.5-4.6 27.4-5.3 17.1-12.6 33.3-23.1 48-1.4 1.9-2.4 3.9-2.4 6.4-.1 11.3-.6 22.6 0 33.9.1 1.9.8 3.7 1.3 5.7 1.8-.3 3.1-.2 4-.8 2.9-1.9 5.6-4.1 8.4-6.2 3.2-2.4 3.7-5.4 2.9-9.3-2.7-11.8-3.3-23.7-2.4-35.8.3-3.9 1.4-7.9 2.8-11.6 1.7-4.4 5.1-7.2 10.6-6.3.4.2 1.1.2 1.8.3zm-295.6-3.9c-1.6-9-6.8-15-14.6-17.4-9.9-3-19.6-2.5-29.4.7-1.1.4-2.2.8-3.2 1.4-2.6 1.5-3.2 3.1-2 5.8 4.5 9.4 8.2 19.2 14.2 27.9 5 7.3 8.4 8 15.5 2.6.3-.2.5-.4.8-.6 7-6 12.8-13.3 18.7-20.4zm140.7 67.6c5.5-10.1 10.1-20.4 12.2-31.6 2.4-12.7 4.1-25.6 6.6-38.3 1.2-6.1.1-11.6-2.4-16.9-4-8.6-15.9-12-23.1-5.9 2.9 15 5.2 30.4 6.5 45.9 1.2 15.6-1.3 31.2.2 46.8zm136.3 53.2c2.6 17.3 29.8 36.4 47.8 33.2-7.3-3.2-10-9-10.6-16.1-.2-3-.3-6.1.2-9 1.5-8.5 3.4-16.9 5.1-25.4.2-.7.2-1.5.2-2.5-5.7 1.5-11 2.8-16.7 4.2-1.9 2-4.1 4.3-6.4 6.4-5.5 5.3-11.3 10-19.6 9.2zm130.9-38.1c7 3.4 13.6 6.7 20.4 9.9 1.2.6 2.9.6 4.3.3 16.7-3.5 30.1-12.2 40.5-25.6 2.4-3.1 3.8-7 5.3-10.7.8-2.1 1.4-4.5-.2-7.1-1.5.4-3.1.7-4.2 1-1 2.5-1.6 4.6-2.6 6.5-1.8 3.5-4.6 6.1-8.6 7.1-3.3.7-5.8-.9-5.8-4.3-.1-2.6.5-5.3 1.1-7.8.3-1.6 1.1-3.1 1.8-4.8-2.6-1.5-4.2-4.2-7.7-5.1 0 3.5.2 6.5 0 9.5-.5 6.5-1.7 12.9-4.9 18.7-1.9 3.3-3.8 6.7-7.6 8.3-7.9-2.4-12-9.1-16.8-15.2-2.7 1.3-5 2.5-7.1 3.5-2.1 8.3-2.5 9.2-7.9 15.8zM785 184.5c-.8.7-1.2.9-1.3 1.1-3.4 11-6 22.2-5.8 33.7 0 3.8.7 7.7 2 11.2 2.1 6.1 9.1 9 15.1 6.6 10.3-4 17.9-11.2 23.7-20.5.8-1.3 1.3-2.9 2.2-5-18.2-1.3-31.6-8-35.9-27.1zm-31.6-152c-.1-3.5-1.5-6.1-3.3-8.6-2.9-4-8.5-4.9-12.4-1.8-1.5 1.2-3 2.8-3.8 4.5-2.6 5.7-5.7 11.4-7.2 17.5-3.2 13.1-5.4 26.3-8.1 39.5-.9 4.3-.5 8.5.5 12.8.9 4 1 8.2 1.5 12.4.3 2.4.6 4.8.9 7.3 3-1.1 2.6-3.3 2.8-5.2 1-9.7 1.6-19.6 3.3-29.2 3.4-18.9 10.6-36.1 25.8-49.2zm68 176.5c5.1-12-2.2-30.7-10.7-39-7.4 4.3-14.9 8.6-22.3 12.8.7 18.5 16 28.3 33 26.2zM779.6 44.6c-1.1 18.2-4.2 35.4-9 52.1 6.9 5.7 13.5 11.2 20.2 16.7 2-2 1.6-4.1 1-6.2-2.8-10.6-2.3-21 1-31.4.4-1.4.8-2.9.6-4.4-.5-6-1.6-11.9-4.3-17.3-1.9-4-4.2-7.6-9.5-9.5zM852.4 13c-2 1-3.5 1.6-4.9 2.5-5.1 3.3-6.3 7.5-3.5 12.8 1 1.9 2.2 3.8 3.5 5.4 9.3 11.4 17.2 23.7 23.8 36.9.5 1.1 1.5 2 2.4 3.3 2.1-1.5 3.8-2.7 5.5-3.9-3.9-21.4-12.2-40.3-26.8-57zm-26.6 38.8c-12.1 2.9-21.1 8.7-27.2 18.4-.9 1.5-1.6 3.4-1.5 5.1.8 10.3.2 20.6-1.3 30.8-.6 3.8.8 7 3.7 10.7 8.8-21.8 17.3-43 26.3-65zM781 135.5c-3-3.5-5.7-6.6-8.4-9.7-2.8-3.1-4.4-7.2-7.7-10-.5.5-.8.7-.9 1-3.9 10.3-9.1 19.9-15.1 29.1-.6.9-1.4 2.2-1.2 3.1 1 4.5 1.8 9.1 5.7 12.6 12.3-5.3 19.9-15.2 27.6-26.1zm101.2-62.7c.9 3.4 1.2 7.2 2.9 10.3 3.3 6.1 7.3 11.9 11.2 17.7 1.3 2 3.1 3.8 5 6.1 4.3-3.7 8.2-6.9 8.2-12.7 0-3.8 0-7.7-.1-11.5-.1-4.1-.2-8.3-.3-12-8.9-5.3-18.7-4.6-26.9 2.1zm-10 6.8c-5.4 4.4-8.7 9.5-11.6 14.9-.7 1.2-.8 2.9-.8 4.4.1 8.7-2 16.8-5.3 24.7-.4.9-.5 2-.9 3.6 6.1-4 11.7-5.1 18-.9 1.3-4.3 3.3-8 3.4-11.9.2-6.6.7-12.9 4.6-18.3-2.6-5.7-4.9-10.9-7.4-16.5zm-108.9 33c-2.4-7.1-4.6-13.3-6.8-19.8-5.6-2.6-9-1.3-11 4.4-.4 1.2-.8 2.5-1 3.8-2.2 13.1-1.3 26.1.8 39.1.2 1 .6 2 1.2 3.8 7.5-10.2 12.5-20.7 16.8-31.3zm-36.2-4.3c.4 0 .8.1 1.2.1.7-.9 1.4-1.9 2-2.8 9.1-14.3 15.6-29.7 20.1-46 1.6-5.7 2.5-11.7 3.7-17.5.3-1.7.6-3.5-.6-5.5-5 5-8.9 10.3-12.1 16.1-6.4 11.7-9.7 24.4-11.8 37.4-1 6.1-1.6 12.2-2.5 18.2zm123.7-97.2c-6-4.1-10.2-9.8-17.8-8.3-4 6.6-3.3 24.5 1.2 37.2 3.8 1.3 4 1.5 8.1 5.5 1.3 1.2 2.7 2.5 4.3 3.2 3.4 1.5 7 2.6 11.2 4.1-1.9-2.8-3.5-5.1-5-7.4-3.7-5.3-7.6-10.5-11-16.1-3.4-5.7-1.9-10.9 3.6-14.6 1.5-1.2 3-2.1 5.4-3.6zm69 66.4c-.8 2.4-1.3 4.1-1.9 5.8-1.3 3.8-2.3 7.7-3.9 11.3-1.5 3.4-1.4 6.6-1 10.4 3.2-2.4 6-4.6 8.9-6.8 9.8 5.6 10.5 15.2 12.1 23.6 2.6 2.5 4.8 4.6 7.5 7.1.4-2.5.8-4.4 1-6.4.6-6.7-1.4-12.8-3.9-18.9-4.3-9.8-9.8-18.7-18.8-26.1zm-360.4 5.8c-1.6 1.7-2.6 2.5-3.3 3.5-7.8 10.3-13.8 21.4-17.3 34-1.4 5.2-2.4 10.3.3 15.4 1 1.9 1.1 4.1 1.7 6.2.3.9.7 1.7 1.3 3.1 2.6-3.1 4.2-6.3 5.1-9.6 2.3-7.9 4.6-15.9 6.5-24 2.2-9.1 3.8-18.4 5.7-28.6zm217.1-37.9c-11 6.1-19.9 33.8-15.3 46.2 2.2 1.2 4.7 2.5 7.6 4 4.6-16.5 6.8-32.8 7.7-50.2zM494.4 75.3c-1.3 8.6-.6 17.1.8 25.4.9 5.7 2.7 11.3 4.3 16.9.4 1.4 1.6 2.6 2.6 4.1 4.2-2.8 5.6-6.7 6-10.5 1.7-14.3-3.6-26-13.7-35.9zm317.1 89.5c7.1-2.6 10.8-8.3 14.6-14.4-5.8-5.3-11.6-10.7-17.4-16.1-3.9 3.5-6.6 6.8-6.2 11.9.1 1.7-.2 3.4 0 5s.7 3.3 1.6 4.5c2.3 3.2 5 6.1 7.4 9.1zm58.4-36.7c-2.2-.7-3.7-1.6-5.2-1.7-6-.4-10.8 2.5-14.1 7-2.9 4-4.7 8.7-7 13.2 4 4.3 8.7 5.5 14.1 4.7 3-.4 5-1.9 6-5.1 1.3-4.5 3.2-8.7 4.8-13.1.5-1.3.8-2.8 1.4-5zm-87.1 4.7c3.3-5 5.8-9.9 7.3-15.1-5.7-7.2-12.6-12.2-20.2-17.5-1.3 3.8-2.3 7.1-3.3 10 4.3 8.4 9.5 15.6 16.2 22.6zm68.3-26c1.7-3.3 3.1-5.5 2.9-8.4-.6-5.8-.8-11.6-1.7-17.4-.8-5.4-2-10.8-3.5-16-1.4-4.7-4.9-7.2-10.5-8 3.5 16.7 7.7 32.7 12.8 49.8zm43 20.9c2-.9 4-1.8 5.9-2.7 3.7-1.7 4.8-4.2 3.4-8-.6-1.7-1.4-3.4-2.5-4.8-3.3-4.3-6.7-8.6-10.3-12.7-1.6-1.8-3.8-3.1-6.5-2.5-.2.7-.5 1.2-.4 1.6 3.4 9.6 6.9 19.2 10.4 29.1zm-28.3-50.8c-.8-2.6-1.4-5-2.4-7.3-1.8-4.1-3.6-8.2-5.9-12-2.2-3.7-5.9-5.5-10.1-6.9 4.7 13.4 10.7 25.9 12.6 40.5 3.4-4.6 6.4-8.5 9.5-12.7-1.4-.6-2.4-1-3.7-1.6zM586.5 43c-11.4 7.8-17.5 17.9-21.7 29.5 8.5-5.2 16.7-10.3 25.5-15.7-1-3.8-2.2-8.2-3.8-13.8zm241.4 105.5c2.5-2.3 4.6-4.2 7-6.4-4.6-6.1-8.9-11.9-13.2-17.7-4.8 1.3-7.4 4.9-11.2 7.9 5.8 5.4 11.5 10.7 17.4 16.2zm58.3-2.1c2.2 3.3 3.9 6.2 5.9 8.8 1.2 1.5 2.8 2.8 4.5 3.9 3.1 2.1 4.5 1.6 6.3-1.7.3-.6.4-1.2.5-1.4-1.8-3.2-3.8-5.9-5-8.9-1.9-4.9-.5-9.8.9-14.6.4-1.4 1.8-2.9.4-4.9-2.1 1.2-4 2.4-5.9 3.5-.2 6.2-2.5 11.2-7.6 15.3zm44.2-26.1c-.7-7.5-2.8-13.6-7.7-18.6-8.1 3.6-11.1 10.7-8.2 18.6h15.9zM787.6 180c6.6-4.1 12.2-7.5 18.1-11-3-3.8-4.7-7.6-5.5-12-.3-1.5-1.9-2.9-3.5-5.2-4.1 9.3-9.3 17-9.1 28.2zm49.4-24.8c7.4 5.9 14.3 11.2 24.2 12.2-2.5-3.4-5.9-5.5-5.6-9.4 1.4-2.3 4.7-2 6-5.2-7.5 1.5-14 1.3-19.8-3.8-1.6 2.2-3 3.9-4.8 6.2zm45.9-49.7c-6.3 10.2-3.8 19.8-.4 30.1 2.7-1.9 4.8-3.4 7-5-.5-8.8-3.8-16.6-6.6-25.1zm-145.8 97c6.8 1.8 15.9-3.4 22.7-13-4.4 0-8.5-.3-12.6.1-6.3.5-11 6.5-10.1 12.9zM508.7 90.4c.3-.1.7-.1 1-.2-1-4.7-1.8-9.4-2.9-14-1.2-4.7-3.8-8.8-6.9-12.5-.9-1.1-1.8-2.5-4.3-1.6-.4 2.8-.8 5.8-1.2 8.9 7.7 4.5 11.7 11.5 14.3 19.4zm397.5 34.5c-6.8 9.7-7 22.7-.8 27.2 4-8.7 4-17.4.8-27.2zm-113.9-4c-2.6 4.9-5 9.4-7.5 14.3 1.9 1.8 3.7 3.5 5.9 5.7 1.5-4.2 2.6-7.6 4-10.9 1.4-3.5.5-6.3-2.4-9.1zm137.7 12c1.6-4.8 1.5-6.2.2-9.7-5.2-1.2-12.1-1.1-15.9.2 3.4 4.3 3.7 4.5 7.5 5.8 1.8-1.4 3.5-2.7 6-4.6 1 3.4 1.6 5.8 2.2 8.3zM718 121c.7-6.6-.3-17.2-2.1-20.3-.7 7.9-4 14.9-2.6 23.5 2.1-1.5 3.5-2.4 4.7-3.2zm205.8 12.9c-3 6.1-3.4 8.8-2.1 12.4 5.5-.6 7.8-3.2 8.9-10.6-2.1-.6-4.3-1.2-6.8-1.8zm-6.3-62.5c0-7.2 1-13.4-2.7-19.6-2.9 5.5-3.5 10.8-2.8 16.7 1.6.8 3.1 1.7 5.5 2.9zm-194.1 81c.2 0 .5-.1.7-.1v-32.2c-2.6 1-2.7 2.8-2.7 4.7.1 6 0 11.9.3 17.9.2 3.3 1.1 6.5 1.7 9.7zm142.3 14.1c4.7-3.7 6.2-8.1 6.8-13.8-3 1.1-5.3 1.9-7.7 2.7-.1 3.7-1 7.1.9 11.1zm10.5-43.1c-.2-.1-.5-.1-.7-.2-.6 2-1.9 4-1.6 5.8.6 3.5 2.1 6.8 3.2 10.2 2.7-.9 2.6-2.6 2.1-4.5-1.1-3.7-2.1-7.5-3-11.3zm3.3-49.4c-2.2 1.3-3.5 2-5 2.9 1.9 4.2 3.6 7.9 5.2 11.7.3-.1.7-.2 1-.3-.4-4.5-.8-9-1.2-14.3zm33.2-1.3c-.5 5.6-1 10.7.5 15.8 1.3-3.6 2.3-7.2 3.1-10.9.6-2.5-.4-4.1-3.6-4.9zm-6.5 41.7c4.4-4.4 4.8-6.1 2.8-10-2 1.8-4 3.6-6.2 5.5 1.2 1.7 2.3 3.1 3.4 4.5zm-110.9 32.4c3.3-5.8 3.7-10.7 1.4-14.7-1 4.8-4.9 8.9-1.4 14.7zm42-93.1c2.9 1.1 5.6 2.2 9 3.5-1.6-2.9-2.8-5.2-4.1-7.6-2 .1-3.7.2-5.7.3.4 1.7.6 2.8.8 3.8zm-76.4 40.4c1 4.9 1.8 8.7 4.7 12.8.9-3.2 1.5-5.5 2.1-8-2.1-1.6-4-2.9-6.8-4.8zm105.5 52.7c6.8-3.4 7.7-6.8 4.4-12.9-1.3 4.1-2.7 8-4.4 12.9zm68.4-12.9c2-1.2 3.3-2 4.6-2.7-.9-3.2-2.2-5.4-5.6-6.5.3 3 .6 5.5 1 9.2zm-57.6 14.8c2-1.2 3.7-2.2 5.4-3.3-.8-1.9-1.4-3.2-2-4.8-3.2 1.7-4.8 3.7-3.4 8.1zm8.3-5.1c2.7-3 3.6-5.6 3.6-9.6-2.3 1.6-3.9 2.8-5.9 4.2.8 1.8 1.4 3.2 2.3 5.4zm-91.2-43.2V83.7c-1.6 5.6-2.5 11.1 0 16.7zm78.5 45.7c-2.6 2.7-6.4 2.6-7.2 6.4 6.1-.6 7.3-1.5 7.2-6.4zM714 87.5c-.4 0-.8 0-1.2.1v12.7c.6-4.3 2.6-8.5 1.2-12.8zm77.8 60.7c-.7 2.7-1.4 5.3-2 8 0 .1.4.3.8.6 1.1-2.9 5-4.9 1.2-8.6zm43.3-104.3c1.2 4.7 1.2 4.7 5.1 3.4-1.1-1.7-1.9-3.7-5.1-3.4zm-4 111.6c-.3-.3-.5-.6-.8-.9-2.8 2.3-5.5 4.5-8.3 6.8.3.3.5.7.8 1 2.8-2.3 5.5-4.6 8.3-6.9zm-293.9-16.1c-.4 3-.2 5.9 2.3 8.2-.8-2.8-1.5-5.5-2.3-8.2zm324.3 24.1c-.2-2.8-.3-4.5-.4-6.5-2.6 2.6-2.6 2.6.4 6.5zm22.3-69.3c1.2.1 2 .1 2.8.2-1.3-3.9-1.6-4.3-2.8-3.9v3.7zm-84.5 29.7c.6 2.5 1 4.4 1.4 6.3.8-2.1 2.2-4.4-1.4-6.3zm-4.7-8.9c-1 2.9.8 4.2 2.2 5.8.3-.2.6-.3.9-.5-1-1.8-2.1-3.6-3.1-5.3zm22.3 57.6c.2-.1.4-.1.6-.2-.1-1.2-.2-2.3-.4-3.7-.8.3-1.3.4-2.1.7.7 1.2 1.3 2.2 1.9 3.2zm-11.1-41.4c-.3-.1-.7-.1-1-.2v1.7c.2 0 .3.1.5.1.2-.5.4-1 .5-1.6zm-6.6 17.1h-.4c0 .4 0 .8.1 1.2h.5c-.1-.4-.2-.8-.2-1.2zm110.6-30.6h.3v-1.2h-.3v1.2zm-77.7-70.5c0 .2 0 .4-.1.7.1-.1.2-.2.2-.3.1-.1 0-.3-.1-.4zm93.9 83.7c.1-.1.3-.1.3-.2v-.4c-.2.1-.3.2-.5.3 0 0 .1.2.2.3zm-214-27.2l.2-.3-.2-.1v.4z"/><path d="M815.5 229.5c-1.6 1-3.3 2.1-4.9 3.1l-.1-.1c1.6-1.1 3.3-2 5-3z"/><path fill="#FFF" d="M542.8 149.7c6-8.1 10.1-16.8 12.2-26.3 1.9-8.8 3.1-17.7 4.6-26.5.8-4.6 1.3-9.2 2.4-13.7.6-2.3 1.7-4.9 3.3-6.5 6.9-6.8 14.9-12.2 24-15.9.3-.1.6 0 1.6 0 .4 1.3 1.1 2.8 1.4 4.3 2.6 14.1 4.9 28.2 5.4 42.5.2 8.1.6 16.3.7 24.4 0 6-.4 11.9-.7 17.9 0 1-.3 2.1 0 3 1.9 5.6-.8 10-3.7 14.3-5.5 8.3-12.4 14.8-22.6 16.8-5.8 1.2-10.8-.1-15.2-4.2-4.9-4.6-7.5-10.6-9.5-16.7-1.4-4.3-2.5-8.7-3.9-13.4zM689.3 77.8c-1.1-3.3-2-5.9-2.9-8.4-.4 0-.8.1-1.3.1-.3 1.1-.9 2.3-.8 3.4.7 7.8.6 15.8 2.5 23.2 2.9 11.5 1.6 22.8 0 34.1-1.1 7.9-3.5 15.5-5.4 23.3-.3 1.2-1 2.4-1.9 4.4-1.3-2.2-2.2-3.7-3-5.2-3.8-8.1-5.1-16.8-6.1-25.6-1.1-9.7-1.3-19.6-4-29.1-1.2-4.3-2.2-8.7-5.3-12.4-2.2.8-4.3 1.6-6.4 2.4-5-2.3-7.2-6.5-8.1-11.5-1.1-5.8-.9-11.6 1-17.2 3.4-10.3 8.8-19.4 18-25.6 1.6-1.1 3.5-1.9 5.4-2.6 4.1-1.5 7.5-.1 10.2 3.1 3.1 3.6 4.9 8 5.7 12.6 1.6 10.1 3.1 20.2 2.4 31zM881.9 69.2c-4.4-21.8-12.1-40.7-26.8-56.7 2-.7 3.3-1.3 4.7-1.7 13.3-3.6 26.8-4.9 40.5-4 6.3.4 12.6.9 18.5 3.7.6.3 1.3.4 1.8.8 9.4 5.7 11.1 11.7 4.6 19.4-3.2 3.8-6.9 7.2-10.9 10.1-7.7 5.6-14.8 11.9-21.4 18.6-3.2 3.2-6.7 5.9-11 9.8zM836.6 140c-2.4-3.1-4.9-6.2-7.3-9.4-2.3-3-4.4-6.2-6.6-9.3-5.7 1.4-9.8 4.9-14.1 8-2.2-.9-3.3-2.4-2.8-4.7 4.4-18.4 8.1-37.1 17.1-54 2.4-4.6 5.3-8.8 9.7-11.9.5-.4 1.1-.6 2.2-1.2.5 1.7 1.1 3.2 1.5 4.7 4 14.8 7.9 29.5 11.9 44.3.4 1.5 1.1 3 1.9 4.9 1.3-.9 2.1-1.4 2.9-1.9.1.2.4.5.3.7-1.1 16.1-4.6 22.4-16.7 29.8zM888.6 180.8c2.2 4.4 1.9 7.1-1.6 10.4-2.3 2.1-5 4-7.7 5.4-11.9 6-24.8 8.4-38.2 10.9.9-5.9-2.7-8.9-6.5-12.1-3.3-2.8-6.3-5.9-9-9.3-4.7-6-5.6-10.2-4.7-18.3 4.7-3.3 9.5-6.6 14.4-10 8.8 5.1 16.9 11.9 27.8 12.1 6.9 7.7 9.4 9.1 25.5 10.9zM727.8 163c5.8-3.7 11.2-7.1 17-10.8 2.2 3.5 2.6 8.6 6.6 12.2 7-1.6 13.3-4.9 18.4-10 4.8-4.9 9-10.5 13.8-16.1 1.9 2.1 3.8 4.2 5.9 6.6-.9 3.8-2.1 7.8-2.6 11.8-.7 6.2-3.7 10.9-8.1 15-4.1 3.9-8.3 7.8-12 12-2.9 3.3-6.2 4.1-10.2 3.5-2.1-.3-4.3-.6-6.4-.3-7.4.9-14 3.2-16.4 11.6-4.1-5.2-7.3-26.5-6-35.5zM756 88.8c-.7-.1-1.4-.1-2-.2-5.5-.9-8.9 1.8-10.6 6.3-1.4 3.7-2.5 7.6-2.8 11.6-.9 12-.2 24 2.4 35.8.9 3.9.4 6.9-2.9 9.3-2.8 2.1-5.5 4.3-8.4 6.2-.9.6-2.2.5-4 .8-.5-2-1.2-3.9-1.3-5.7-.6-11.3-.1-22.6 0-33.9 0-2.5 1-4.5 2.4-6.4 10.5-14.6 17.8-30.8 23.1-48 2.8-8.9 5-18 4.6-27.4-.1-2.6.8-4.5 2.8-6 3.5-2.6 7-5 11.5-6.4 4 5 4.8 10.8 5.3 16.2-14 13-19.3 29.4-20.1 47.8zM460.4 84.9c-6 7.1-11.8 14.3-18.7 20.5-.2.2-.5.4-.8.6-7 5.3-10.5 4.7-15.5-2.6-6-8.7-9.7-18.5-14.2-27.9-1.3-2.7-.6-4.3 2-5.8 1-.6 2.1-1 3.2-1.4 9.7-3.2 19.5-3.7 29.4-.7 7.8 2.4 13.1 8.3 14.6 17.3z"/><path fill="#FFF" d="M601.1 152.5c-1.4-15.6 1-31.2-.3-46.8-1.3-15.6-3.6-30.9-6.5-45.9 7.2-6.1 19.2-2.7 23.1 5.9 2.5 5.4 3.6 10.9 2.4 16.9-2.5 12.7-4.2 25.6-6.6 38.3-2.1 11.2-6.7 21.5-12.1 31.6zM737.4 205.7c8.3.8 14.1-3.9 19.7-9.1 2.3-2.2 4.5-4.5 6.4-6.4 5.7-1.4 11-2.8 16.7-4.2-.1 1-.1 1.8-.2 2.5-1.7 8.5-3.6 16.9-5.1 25.4-.5 2.9-.4 6-.2 9 .6 7 3.3 12.9 10.6 16.1-18.1 3.1-45.3-16-47.9-33.3zM868.3 167.6c5.3-6.6 5.8-7.5 7.8-15.8 2.1-1 4.4-2.2 7.1-3.5 4.7 6.1 8.8 12.8 16.8 15.2 3.8-1.6 5.7-5 7.6-8.3 3.2-5.8 4.4-12.2 4.9-18.7.2-3 0-6 0-9.5 3.5.9 5.1 3.6 7.7 5.1-.6 1.7-1.4 3.2-1.8 4.8-.5 2.6-1.1 5.2-1.1 7.8.1 3.3 2.6 5 5.8 4.3 4-.9 6.8-3.5 8.6-7.1 1-1.9 1.6-4 2.6-6.5 1.2-.3 2.7-.7 4.2-1 1.5 2.6 1 5 .2 7.1-1.5 3.7-2.9 7.6-5.3 10.7-10.4 13.3-23.8 22.1-40.5 25.6-1.4.3-3.1.3-4.3-.3-6.6-3.2-13.3-6.5-20.3-9.9z"/><path fill="#FFF" d="M785 184.5c4.3 19.1 17.8 25.9 35.9 27.2-.9 2.1-1.4 3.7-2.2 5-5.7 9.3-13.3 16.5-23.7 20.5-6.1 2.3-13-.5-15.1-6.6-1.2-3.6-1.9-7.5-2-11.2-.1-11.6 2.5-22.7 5.8-33.7.1-.3.5-.5 1.3-1.2zM753.4 32.5c-15.2 13.2-22.3 30.3-25.7 49.2-1.7 9.6-2.2 19.5-3.3 29.2-.2 1.9.2 4.1-2.8 5.2-.3-2.6-.7-4.9-.9-7.3-.5-4.1-.6-8.3-1.5-12.4-1-4.3-1.3-8.5-.5-12.8 2.7-13.2 4.9-26.5 8.1-39.5 1.5-6 4.6-11.7 7.2-17.5.8-1.7 2.2-3.4 3.8-4.5 3.9-3 9.4-2.2 12.4 1.8 1.7 2.4 3 5.1 3.2 8.6z"/><path fill="#FFF" d="M821.4 209c-17 2.1-32.3-7.7-33.1-26.2 7.4-4.3 14.9-8.6 22.3-12.8 8.6 8.3 15.9 26.9 10.8 39zM779.6 44.6c5.3 1.9 7.6 5.6 9.5 9.5 2.7 5.4 3.8 11.3 4.3 17.3.1 1.4-.2 3-.6 4.4-3.3 10.4-3.7 20.9-1 31.4.6 2.1.9 4.2-1 6.2-6.6-5.5-13.2-11-20.2-16.7 4.9-16.7 7.9-34 9-52.1zM852.4 13c14.6 16.7 22.9 35.6 26.8 57-1.7 1.2-3.4 2.4-5.5 3.9-.9-1.3-1.9-2.2-2.4-3.3-6.5-13.2-14.4-25.5-23.8-36.9-1.4-1.7-2.5-3.5-3.5-5.4-2.8-5.3-1.6-9.6 3.5-12.8 1.4-.9 2.9-1.5 4.9-2.5zM825.8 51.8c-8.9 22.1-17.5 43.3-26.3 65.1-2.9-3.7-4.3-6.9-3.7-10.7 1.5-10.2 2.1-20.5 1.3-30.8-.1-1.7.5-3.7 1.5-5.1 6.1-9.9 15-15.7 27.2-18.5zM781 135.5c-7.8 10.8-15.4 20.8-27.7 26.2-3.9-3.6-4.8-8.2-5.7-12.6-.2-.9.6-2.2 1.2-3.1 6.1-9.2 11.2-18.8 15.1-29.1.1-.3.4-.5.9-1 3.3 2.8 4.9 6.8 7.7 10 2.9 3 5.5 6.1 8.5 9.6zM882.2 72.8c8.2-6.7 18-7.4 27-2.2.1 3.8.2 7.9.3 12 .1 3.8 0 7.7.1 11.5 0 5.9-3.9 9-8.2 12.7-1.9-2.3-3.7-4-5-6.1-3.9-5.8-7.9-11.6-11.2-17.7-1.8-3-2.1-6.8-3-10.2zM872.2 79.6c2.5 5.6 4.9 10.8 7.4 16.5-3.9 5.4-4.3 11.8-4.6 18.3-.1 3.8-2.1 7.6-3.4 11.9-6.4-4.2-11.9-3-18 .9.4-1.7.5-2.7.9-3.6 3.3-7.9 5.4-16.1 5.3-24.7 0-1.5.1-3.1.8-4.4 2.8-5.4 6.2-10.6 11.6-14.9zM763.3 112.6c-4.2 10.6-9.3 21.1-16.8 31.4-.6-1.8-1.1-2.8-1.2-3.8-2.1-13-2.9-26-.8-39.1.2-1.3.6-2.6 1-3.8 2-5.7 5.4-7 11-4.4 2.2 6.4 4.3 12.6 6.8 19.7zM727.1 108.3c.8-6.1 1.5-12.1 2.5-18.2 2.1-13 5.3-25.7 11.8-37.4 3.2-5.8 7.1-11.2 12.1-16.1 1.1 2 .9 3.8.6 5.5-1.1 5.9-2.1 11.8-3.7 17.5-4.5 16.3-11 31.7-20.1 46-.6 1-1.3 1.9-2 2.8-.4 0-.8 0-1.2-.1z"/><path fill="#FFF" d="M850.8 11.1c-2.4 1.5-3.9 2.4-5.4 3.4-5.5 3.8-7 8.9-3.6 14.6 3.3 5.6 7.3 10.7 11 16.1 1.6 2.3 3.1 4.6 5 7.4-4.2-1.5-7.8-2.6-11.2-4.1-1.6-.7-3-2-4.3-3.2-4.1-4-4.3-4.2-8.1-5.5-4.5-12.6-5.2-30.5-1.2-37.2 7.6-1.3 11.9 4.4 17.8 8.5zM919.8 77.5c9 7.3 14.6 16.3 18.7 26.2 2.5 6.1 4.5 12.2 3.9 18.9-.2 2-.6 3.9-1 6.4-2.6-2.5-4.8-4.6-7.5-7.1-1.7-8.4-2.4-18.1-12.1-23.6-2.8 2.2-5.7 4.4-8.9 6.8-.4-3.8-.5-7 1-10.4 1.6-3.6 2.6-7.5 3.9-11.3.6-1.8 1.2-3.5 2-5.9zM559.4 83.3c-2 10.2-3.6 19.5-5.6 28.7-1.8 8.1-4.1 16-6.5 24-1 3.3-2.5 6.4-5.1 9.6-.6-1.4-1.1-2.2-1.3-3.1-.6-2.1-.8-4.4-1.7-6.2-2.7-5.2-1.7-10.2-.3-15.4 3.4-12.5 9.5-23.7 17.3-34 .7-1.1 1.7-2 3.2-3.6zM776.5 45.4c-.9 17.3-3.1 33.6-7.6 50.3-3-1.6-5.4-2.9-7.6-4-4.7-12.5 4.2-40.2 15.2-46.3zM494.4 75.3c10.1 9.9 15.4 21.6 13.7 35.8-.5 3.9-1.8 7.7-6 10.5-1-1.5-2.2-2.7-2.6-4.1-1.6-5.6-3.4-11.2-4.3-16.9-1.4-8.2-2.2-16.7-.8-25.3zM811.5 164.8c-2.5-3-5.1-6-7.5-9.1-.9-1.2-1.3-3-1.6-4.5-.3-1.6.1-3.3 0-5-.4-5 2.3-8.4 6.2-11.9 5.9 5.4 11.7 10.8 17.4 16.1-3.7 6.2-7.3 11.9-14.5 14.4zM869.9 128.1c-.6 2.2-.9 3.6-1.4 5-1.6 4.4-3.5 8.7-4.8 13.1-.9 3.3-3 4.7-6 5.1-5.4.8-10.2-.4-14.1-4.7 2.3-4.5 4.1-9.2 7-13.2 3.3-4.5 8.1-7.4 14.1-7 1.6.1 3.1 1 5.2 1.7zM782.8 132.8c-6.7-6.9-11.9-14.1-16.3-22.6 1-3 2.1-6.2 3.3-10 7.6 5.3 14.5 10.3 20.2 17.5-1.4 5.2-3.9 10-7.2 15.1zM851.1 106.8c-5.1-17.1-9.3-33.1-12.9-49.7 5.7.7 9.2 3.3 10.5 8 1.5 5.2 2.7 10.6 3.5 16 .9 5.7 1.1 11.6 1.7 17.4.3 2.8-1.1 5-2.8 8.3zM894.1 127.7c-3.6-9.9-7-19.5-10.5-29.1-.1-.4.2-.9.4-1.6 2.8-.6 5 .8 6.5 2.5 3.6 4.1 7 8.4 10.3 12.7 1.1 1.4 1.9 3.1 2.5 4.8 1.4 3.8.3 6.3-3.4 8-1.8.9-3.7 1.8-5.8 2.7zM865.8 76.9c1.4.6 2.4 1 3.6 1.6-3.1 4.2-6.1 8.1-9.5 12.7-1.9-14.6-7.9-27.1-12.6-40.5 4.3 1.3 8 3.2 10.1 6.9 2.2 3.9 4.1 8 5.9 12 1 2.3 1.6 4.7 2.5 7.3zM586.5 43c1.6 5.6 2.8 10 3.8 13.8-8.8 5.4-17.1 10.5-25.5 15.7 4.2-11.6 10.3-21.7 21.7-29.5zM827.9 148.5c-5.9-5.5-11.6-10.7-17.5-16.2 3.9-3 6.5-6.6 11.2-7.9 4.3 5.8 8.7 11.6 13.2 17.7-2.2 2.1-4.4 4.1-6.9 6.4zM886.2 146.4c5.1-4.1 7.4-9.1 7.5-15.3 1.9-1.1 3.9-2.3 5.9-3.5 1.4 2 0 3.5-.4 4.9-1.4 4.8-2.8 9.7-.9 14.6 1.2 3 3.1 5.7 5 8.9-.1.2-.2.9-.5 1.4-1.8 3.3-3.2 3.8-6.3 1.7-1.6-1.1-3.3-2.4-4.5-3.9-1.8-2.6-3.5-5.4-5.8-8.8z"/><path fill="#FFF" d="M930.4 120.3h-15.9c-2.9-7.9.2-15 8.2-18.6 4.8 4.9 7 11.1 7.7 18.6zM787.6 180c-.2-11.1 5-18.9 9.1-28.2 1.6 2.3 3.2 3.6 3.5 5.2.8 4.3 2.5 8.2 5.5 12-5.9 3.5-11.5 6.9-18.1 11zM837 155.2c1.8-2.3 3.2-4 4.9-6.2 5.7 5.1 12.2 5.3 19.8 3.8-1.3 3.2-4.6 2.9-6 5.2-.4 3.9 3.1 6 5.6 9.4-10-1-16.9-6.3-24.3-12.2zM882.9 105.5c2.8 8.5 6.1 16.3 6.6 25.1-2.2 1.6-4.3 3.1-7 5-3.4-10.3-5.9-19.9.4-30.1zM737.1 202.5c-.9-6.4 3.7-12.4 10.1-12.9 4.1-.3 8.2-.1 12.6-.1-6.8 9.6-15.9 14.8-22.7 13zM824.5 189.5c5 4.6 11 8.1 14.7 13.8-1 3.6-3 5.2-6.5 5.3-2.4.1-4.9.6-7.9 1 .3-3.8.7-7 .6-10.2 0-3.3-.5-6.6-.9-9.9zM508.7 90.4c-2.6-7.9-6.6-14.8-14.4-19.4.4-3.1.8-6.2 1.2-8.9 2.5-.8 3.4.6 4.3 1.6 3.2 3.7 5.7 7.8 6.9 12.5 1.2 4.6 2 9.3 2.9 14-.2 0-.5.1-.9.2zM906.2 124.9c3.2 9.8 3.3 18.5-.8 27.2-6.3-4.5-6-17.5.8-27.2zM815.5 229.5c-1.7 1-3.4 2-5 2.9-1.3.3-2.7.7-4 1l.1.1c4.8-4.3 9.7-8.5 13-14.2 1.4-2.4 2.7-4.9 4.1-7.5 3.3-.4 6.5-.9 9.8-1.3-3.8 5.4-8.2 10-13.1 14.1-1.8 1.5-3.3 3.3-4.9 4.9zM784.5 168.4c0 1 .1 2 .1 3-.4 9.9-6 14.9-16.9 14.7 5.6-6.2 10.3-12.7 16.8-17.7zM792.3 120.9c3 2.7 3.9 5.5 2.4 9.1-1.4 3.3-2.5 6.8-4 10.9-2.2-2.2-4-3.9-5.9-5.7 2.5-4.8 4.9-9.3 7.5-14.3zM609.5 143.5c-.3 9.7-2.5 19-5.5 28.7-2.7-3.9-2.1-8.1-3.1-12 2.9-5.6 5.7-11.1 8.6-16.7zM930 132.9c-.6-2.5-1.3-4.9-2.1-8.3-2.5 1.9-4.2 3.2-6 4.6-3.8-1.3-4.1-1.5-7.5-5.8 3.8-1.3 10.7-1.3 15.9-.2 1.2 3.4 1.3 4.9-.3 9.7zM718 121c-1.2.8-2.6 1.8-4.7 3.2-1.4-8.6 1.9-15.7 2.6-23.5 1.8 3 2.8 13.7 2.1 20.3zM923.8 133.9c2.5.6 4.7 1.2 6.8 1.7-1.1 7.4-3.4 10-8.9 10.6-1.3-3.5-.9-6.2 2.1-12.3zM917.5 71.4c-2.4-1.3-4-2.1-5.5-2.9-.7-5.8-.1-11.1 2.8-16.7 3.7 6.3 2.7 12.5 2.7 19.6zM723.4 152.4c-.6-3.2-1.5-6.4-1.7-9.7-.3-6-.2-11.9-.3-17.9 0-1.9.1-3.7 2.7-4.7v32.2c-.2 0-.4.1-.7.1zM865.7 166.5c-1.9-4-1-7.4-.9-11.1 2.4-.9 4.7-1.6 7.7-2.7-.6 5.6-2.1 10-6.8 13.8zM876.2 123.4l3 11.4c.5 1.9.6 3.6-2.1 4.5-1.2-3.5-2.7-6.8-3.2-10.2-.3-1.8 1-3.9 1.6-5.8.2 0 .4 0 .7.1zM879.5 74c.5 5.3.8 9.8 1.2 14.3-.3.1-.7.2-1 .3-1.7-3.8-3.4-7.5-5.2-11.7 1.5-.9 2.8-1.7 5-2.9zM912.7 72.7c3.2.7 4.2 2.4 3.7 4.9-.8 3.7-1.8 7.3-3.1 10.9-1.6-5.1-1.1-10.2-.6-15.8zM906.2 114.4c-1.1-1.4-2.2-2.8-3.5-4.5 2.2-1.9 4.2-3.7 6.2-5.5 2.2 3.9 1.7 5.6-2.7 10zM795.3 146.8c-3.4-5.9.5-10 1.4-14.7 2.2 4 1.8 9-1.4 14.7zM825.5 60.5c1.1-2.7 2.1-5.5 3.2-8.1.8-1.8 2.3-2.1 4.6-1.5.3.9.7 2.1 1.1 3.2-3.1 2.2-6 4.3-8.9 6.4zM837.3 53.7c-.2-1-.4-2.1-.7-3.8 2-.1 3.7-.2 5.7-.3 1.3 2.4 2.5 4.7 4.1 7.6-3.5-1.4-6.2-2.4-9.1-3.5zM688.5 139.5c.4 7.4.3 14.6-4.6 21.1-.6-.8-.9-1.1-.9-1.2 1.8-6.7 3.7-13.3 5.5-19.9zM760.9 94.1c2.9 2 4.7 3.3 6.8 4.7-.7 2.5-1.3 4.8-2.1 8-3-4.1-3.7-7.8-4.7-12.7zM866.4 146.8c1.7-4.9 3-8.7 4.4-12.9 3.4 6.1 2.4 9.5-4.4 12.9zM883.5 177.4c-6.7.1-11.7-2-15.9-7 5.8 2.6 11.4 3.4 15.9 7zM934.8 133.9c-.4-3.7-.7-6.2-1-9.3 3.4 1.1 4.7 3.3 5.6 6.5-1.3.8-2.6 1.6-4.6 2.8zM877.2 148.7c-1.5-4.4.2-6.4 3.4-8 .7 1.6 1.2 2.9 2 4.8-1.7 1-3.3 2-5.4 3.2zM885.5 143.6c-.9-2.2-1.5-3.7-2.3-5.4 1.9-1.4 3.6-2.5 5.9-4.2.1 4-.8 6.7-3.6 9.6zM794.3 100.4c-2.5-5.5-1.6-11.1 0-16.7v16.7zM872.8 146.1c0 4.9-1.1 5.8-7.2 6.4.8-3.8 4.6-3.7 7.2-6.4zM714 87.5c1.4 4.4-.6 8.6-1.2 12.8V87.6c.4-.1.8-.1 1.2-.1zM791.8 148.2c3.8 3.7-.2 5.8-1.2 8.7-.4-.3-.9-.5-.8-.6.7-2.8 1.4-5.4 2-8.1zM805.5 110.5c-.8 3.8-1.6 7.6-2.6 12.4-2.2-3-1-4.9-.2-6.7.9-2 1.9-3.8 2.8-5.7zM835.1 43.9c3.1-.3 4 1.6 5.1 3.4-3.8 1.3-3.8 1.3-5.1-3.4zM831.1 155.5c-2.7 2.3-5.5 4.6-8.2 6.8-.3-.3-.5-.7-.8-1 2.8-2.3 5.5-4.5 8.3-6.8.2.4.4.7.7 1zM537.2 139.4c.8 2.7 1.6 5.5 2.3 8.2-2.5-2.3-2.7-5.2-2.3-8.2z"/><path fill="#FFF" d="M861.5 163.5c-3-3.9-3-3.9-.4-6.5.1 2 .2 3.7.4 6.5zM883.8 94.2v-3.8c1.2-.4 1.5 0 2.8 3.9-.8 0-1.6 0-2.8-.1zM799.3 123.9c3.6 1.9 2.3 4.1 1.4 6.3-.4-1.9-.9-3.8-1.4-6.3zM794.6 115c1 1.8 2 3.5 3 5.3-.3.2-.6.3-.9.5-1.2-1.6-3.1-2.9-2.1-5.8zM816.9 172.6c-.6-1-1.2-2-1.9-3.2.8-.3 1.3-.4 2.1-.7.1 1.3.3 2.5.4 3.7-.3.1-.5.2-.6.2zM868.5 73.4c-2-1-2.5-2.8-2.5-4.9 1.3 1.4 2.6 2.8 2.5 4.9zM807.5 165.5c-2.2-.4-2.7-2.2-3-4l-.1.1c1.1 1.2 2.1 2.5 3.1 3.9zM688.5 139.5c.1-.9.1-1.9.2-2.8.1 0 .3 0 .4.1-.1.9-.4 1.8-.6 2.7zM805.8 131.2c-.2.5-.3 1.1-.5 1.6-.2 0-.3-.1-.5-.1V131c.4.1.7.2 1 .2zM832.5 148.5l2-2c-.7.6-1.4 1.3-2 2zM799.2 148.3c0 .4.1.8.1 1.2h-.5c0-.4 0-.8-.1-1.2h.5zM909.8 117.7c0-.4 0-.8-.1-1.2h.3v1.2h-.2zM805.5 110.5c.3-1 .7-2 1-3l-.1-.1c-.3 1.1-.6 2.1-.9 3.1zM806.5 107.5c.1-.4.2-.8.1-.2.3-.5.1-.2-.1.2zM609.5 143.5c.1-.4.2-.8.1-.2.3-.5.1-.2-.1.2zM832.1 47.2c.1.1.2.2.2.3 0 .1-.1.2-.2.3v-.6zM816.5 165.5c.3-.2.6-.4.2-.1.5-.2.2-.1-.2.1zM926 130.9c-.1-.1-.1-.2-.2-.3.2-.1.3-.2.5-.3 0 .1.1.3 0 .4-.1 0-.2.1-.3.2zM712 103.7l-.1-.4.3.1M835.5 145.5c.1-.1.1-.3.2-.4 0 .1-.1.2-.2.4zM835.5 145.4l-1 1c.3-.2.7-.6 1-1zM868.5 73.5c.1 0 .2.1.4.1-.2 0-.3-.1-.4-.1zM804.5 161.4c-.1-.1-.2-.1-.3-.2.1.1.2.2.3.2zM834.5 151.5c-.1.1-.1.2-.2.4.1-.2.1-.3.2-.4zM825.5 60.4c-.1.1-.1.2-.2.3.1 0 .2-.1.2-.3zM807.5 165.5c.1.1.3.2 0 0 .2.3.1.1 0 0zM816.5 165.4l-.2.3.2-.2M784.5 168.5c0-.1.1-.2.1-.3 0 .1-.1.2-.1.3zM834.5 151.5l1-1-.1-.1c-.3.4-.6.7-.9 1.1zM831.5 149.4c-.1.1-.1.3-.2.4.1-.1.1-.2.2-.4zM837.5 148.5c-.3.3-.7.6-1 1l.1.1c.3-.4.6-.8.9-1.1zM883.5 177.5c.1.1.2.1.4.2-.2-.1-.3-.2-.4-.2zM831.5 149.5l1-1c-.4.3-.7.6-1 1zM824.5 189.5l-.2-.3.2.3M835.5 150.5l1-1-.1-.1c-.3.4-.6.7-.9 1.1zM837.5 148.5l.2-.3-.2.3M806.5 233.4c-.1.1-.1.3-.2.4.1-.1.1-.2.2-.4z"/><path fill="none" d="M120.6 134.3h308v33h-308z"/><text transform="translate(120.625 145.798)" font-family="'Calibri-Bold'" font-size="17">Paediatric and infant Pain &amp; Anaesthesia</text></svg>