<svg xmlns="http://www.w3.org/2000/svg" viewBox="0 0 194.4 283.5"><path fill="#84CEF2" d="M2.2 1.5h190v280.3H2.2z"/><path fill="#fff" d="M3.7 279.6h187.1V3.6L3.7 3.7m190.7 279.8H0V0h194.4v283.5zM23.6 179.4h20.2c13.3 0 19.9 4.1 19.9 13.1 0 4.6-2.3 7.9-6.9 10 2.4 1.3 3.9 3.4 5.2 6.4l6.5 14.8H53.4l-4.3-9.9c-2.7-6.2-4.3-8.6-8.1-8.6h-2.1v18.6H23.6v-44.4zm18.1 18.2c4.9 0 7.3-1.2 7.3-5.1 0-3.8-2.3-5.2-7-5.2h-3.2v10.3h2.9zM96.6 190.3c-7.4 0-12.2 4.6-12.2 11.2 0 6.8 4.8 11.3 12.2 11.3 4.7 0 9-1.4 13.4-4.3l.4 12c-5.2 2.7-10.6 4-16.8 4-6.9 0-12.7-2.3-17.3-6.6-4.7-4.4-7.1-9.8-7.1-16.4 0-6.6 2.3-12 7.1-16.4 4.8-4.5 10.7-6.5 18.2-6.5 5.4 0 10.4 1.2 15.5 3.7v12.1c-4.4-2.7-8.8-4.1-13.4-4.1"/><path fill="#fff" d="M116.7 179.4h14.1l13 17.8 13-17.8h14.1v44.3h-15.3v-23.8l-11.8 16.2-11.8-16.2v23.8h-15.3zM164.2 89.9c0 23.9-12.6 44.9-31.4 56.8-7.5 4.7-15.9 7.9-25 9.4-3.4.5-7 .8-10.6.8-16.4 0-31.5-5.9-43.1-15.7-14.6-12.3-23.9-30.7-23.9-51.3 0-37 30-67 67-67s67 30 67 67"/><path fill="none" stroke="#fff" stroke-width="1.457" stroke-miterlimit="10" d="M164.2 89.9c0 23.9-12.6 44.9-31.4 56.8-7.5 4.7-15.9 7.9-25 9.4-3.4.5-7 .8-10.6.8-16.4 0-31.5-5.9-43.1-15.7-14.6-12.3-23.9-30.7-23.9-51.3 0-37 30-67 67-67s67 30 67 67z"/><path fill="#1C9CD8" d="M139.8 75.9c-1.5-2.4-4.8-4.3-9.2-5.3-4.9-1.2-7.6-.8-10.8-1.8-.5-.1-1.1-.8-1.6-1.5 4.5-3.3 7.1-9.6 6.4-16.4-1-9.6-8.1-16.7-15.9-15.9-7.8.8-13.3 9.2-12.3 18.8.8 7.5 5.3 13.4 10.9 15.3-.2.6-.5 1.1-.6 1.4-1 1.6-5.1 2.2-5.9 2.5-1.9.6-3.8.7-5.4 1.6-1.1.7-1.4.8-2.4 3.1-.6 1.7-.7 3.3-.8 5l-3.9 70.8v.2c6.4 2 13.2 3.1 20.3 3.1 3.6 0 7.5-2.5 11-3.1 8.8-1.4 13-7.1 20.3-11.6l-.6-.9c-4.7-6.5-5.3-6.1-9.4-12.3 0 0 8-5.5 10.9-8.9 3.5-4 5.1-4.3 6.2-14.4 1.1-9.6-2.7-22.3-7.2-29.7"/><path fill="#0059A2" d="M105.4 157.2c-16.7 0-35.3-1.3-47-11.2l-.5-.4.4-.5c.1-.1 6.9-9.6 7.7-10.9 0-.1 0-.2.1-.3.2-.8.2-.9 0-1l-2.7-.9c-2.8-1-5.4-1.9-8.2-3.3-2.1-1.1-4.5-3-6.1-4.8-2.3-2.9-3.1-5.9-2.5-9.3 1.4-7.8 3.5-13.2 5.4-17.4 2.8-6.3 5.4-12.3 10.6-16.5 2.5-2 4-2.9 7.7-4 .1 0 .5-.2 2.8-1.2 0 0 .8-.3 1.5-.9.7-.6 1.2-1.8 1.2-2 0-.1 0-.3.1-.5-5.3-4.1-7.2-12.1-4.6-19.7 2.6-7.6 9-13 15.8-13 1.3 0 2.7.2 3.9.6 7.7 2.6 11.4 12.4 8.2 21.7-2 5.8-6.1 10.3-11.2 12.1-.1.8-.1 1.7.1 2 1.6 1.3 4 1.3 6.2 1.2h1.3c2.6 0 5.8.4 7.1 1.3 3 2 6.8 6.4 8.4 8.5l.2.2c2.6 3.3 6.4 8.4 9.4 14.4 1.7 3.4 4.1 12.2 2.9 17.6-.7 3.1-2.3 5-3.9 6.4-3.4 3.2-7.2 4.7-11.1 6.3-1.2.5-2.4 1-3.7 1.5.9 3.4 2.3 5.6 4.3 8.7.5.8 1 1.6 1.6 2.5 1.5 2.4 2.4 4.4 3.4 6.8.3.7.6 1.4 1 2.3l.4.8-.9.1c-1.3.2-2.6.7-3.9 1.2-1.6.9-3.3 1.6-5.4 1.6M126.6 112.2c-5.6 6.1-14 7.6-18.7 3.2-4.7-4.3-4-12.8 1.6-18.9 5.6-6.1 14-7.6 18.7-3.2 4.7 4.3 4 12.8-1.6 18.9"/><path fill="#fff" d="M97.2 25c-35.8 0-64.9 29.1-64.9 64.9 0 19.2 8.4 37.3 23.1 49.7 11.7 9.8 26.5 15.2 41.8 15.2 3.4 0 6.9-.3 10.2-.8 8.6-1.4 16.8-4.4 24.2-9.1 19.1-12 30.5-32.5 30.5-55C162.2 54.1 133 25 97.2 25m0 133.5c-16.2 0-31.8-5.7-44.2-16.1-15.5-13.1-24.4-32.2-24.4-52.5 0-37.8 30.8-68.6 68.6-68.6s68.6 30.8 68.6 68.6c0 23.8-12 45.5-32.2 58.2-7.9 4.9-16.5 8.2-25.6 9.6-3.5.5-7.2.8-10.8.8"/><path fill="#0059A2" d="M31.8 240.3h-.1l-2.5 11.6h5.1l-2.5-11.6zm4.1 19.6l-1.2-4.9h-6.1l-1.2 4.9h-4l5.8-23.4h5l5.7 23.4h-4zM53.2 259.6c-1 .6-2.2.9-3.6.9-1.3 0-2.5-.3-3.6-.9s-2-1.5-2.7-2.6c-.7-1.1-1.3-2.4-1.7-3.9-.4-1.5-.6-3.1-.6-4.9 0-1.8.2-3.4.6-4.9.4-1.5 1-2.8 1.7-3.9.8-1.1 1.7-1.9 2.7-2.5 1.1-.6 2.2-.9 3.5-.9 1.3 0 2.5.2 3.5.7 1 .5 1.8 1.2 2.5 2.1l-2.3 2.8c-.9-1.3-2.1-1.9-3.5-1.9-.8 0-1.5.2-2.1.7-.6.5-1.1 1.1-1.5 1.8-.4.8-.7 1.7-.9 2.7-.2 1-.3 2.2-.3 3.3 0 1.2.1 2.3.3 3.3.2 1 .5 1.9.9 2.7.4.8.9 1.4 1.5 1.8.6.5 1.3.7 2.1.7s1.4-.2 2-.6c.6-.4 1-.9 1.4-1.4l2.3 2.7c-.5.9-1.3 1.7-2.2 2.2M68.5 259.6c-1 .6-2.2.9-3.6.9-1.3 0-2.5-.3-3.6-.9-1.1-.6-2-1.5-2.7-2.6-.7-1.1-1.3-2.4-1.7-3.9-.4-1.5-.6-3.1-.6-4.9 0-1.8.2-3.4.6-4.9.4-1.5 1-2.8 1.7-3.9s1.7-1.9 2.7-2.5c1.1-.6 2.2-.9 3.5-.9 1.3 0 2.5.2 3.5.7 1 .5 1.8 1.2 2.5 2.1l-2.3 2.8c-.9-1.3-2.1-1.9-3.5-1.9-.8 0-1.5.2-2.1.7-.6.5-1.1 1.1-1.5 1.8-.4.8-.7 1.7-.9 2.7-.2 1-.3 2.2-.3 3.3 0 1.2.1 2.3.3 3.3.2 1 .5 1.9.9 2.7.4.8.9 1.4 1.5 1.8.6.5 1.3.7 2.1.7s1.4-.2 2-.6c.6-.4 1-.9 1.4-1.4l2.3 2.7c-.5.9-1.3 1.7-2.2 2.2"/><path fill="#0059A2" d="M82.6 243.4c0-.7-.1-1.3-.3-1.7-.2-.5-.5-.8-.8-1.1-.3-.3-.7-.5-1.1-.6-.4-.1-.8-.2-1.2-.2H77v7.2h2.2c1 0 1.8-.3 2.4-.9.6-.6 1-1.5 1-2.7m.2 16.5l-3.6-10H77v10h-3.8v-23.4h6.7c1 0 1.9.1 2.7.4.8.3 1.5.7 2.1 1.2.6.6 1 1.2 1.4 2.1.3.8.5 1.8.5 3 0 .9-.1 1.7-.3 2.4-.2.7-.5 1.3-.9 1.8s-.7.9-1.2 1.2c-.4.3-.9.5-1.3.6l4.2 10.8h-4.3zM89.6 259.9v-23.4H100v3.5h-6.6v6.2h6.1v3.3h-6.1v6.9h7v3.5zM114.5 248.3c0-1.4-.1-2.6-.4-3.6-.3-1-.6-1.9-1.1-2.6-.5-.7-1-1.2-1.7-1.5-.6-.3-1.3-.5-2.1-.5h-1.9v16.4h1.9c.7 0 1.4-.2 2.1-.5.6-.3 1.2-.9 1.7-1.5.5-.7.8-1.5 1.1-2.6.3-1.1.4-2.3.4-3.6m4 0c0 3.7-.8 6.6-2.3 8.6-1.6 2-3.8 3.1-6.8 3.1h-5.8v-23.4h5.9c3 0 5.3 1 6.8 3.1 1.4 2 2.2 4.9 2.2 8.6"/><path fill="#0059A2" d="M121.3 236.5h4v23.4h-4zM135.9 239.9v20H132v-20h-4.3v-3.4h12.6v3.4zM142.5 259.9v-23.4H153v3.5h-6.7v6.2h6.2v3.3h-6.2v6.9h7v3.5zM166.9 248.3c0-1.4-.1-2.6-.4-3.6-.3-1-.6-1.9-1.1-2.6-.5-.7-1-1.2-1.6-1.5-.6-.3-1.3-.5-2.1-.5h-1.9v16.4h1.9c.7 0 1.4-.2 2.1-.5.6-.3 1.2-.9 1.6-1.5.5-.7.8-1.5 1.1-2.6.3-1.1.4-2.3.4-3.6m4 0c0 3.7-.8 6.6-2.3 8.6-1.5 2-3.8 3.1-6.8 3.1H156v-23.4h5.9c3 0 5.3 1 6.8 3.1 1.4 2 2.2 4.9 2.2 8.6"/></svg>