<svg xmlns="http://www.w3.org/2000/svg" viewBox="0 0 186 283.5"><defs><style>@import url("https://fonts.googleapis.com/css?family=Nunito:400,600,700");</style></defs><path fill="#1176BC" d="M7.9 30.8V50h-7V2.8h10.3c3 0 5.4.2 7.1.6 1.7.4 3.1 1.1 4.3 2C24 6.6 25 8 25.8 9.8c.8 1.8 1.2 3.8 1.2 5.9 0 3.8-.9 8-2.6 10.1-1.8 2.1-4.4 3.4-7.8 3.9l15 20.3h-8.4L9.3 30.8H7.9zm-.1-6.3h1.4c4.1 0 6.8-.5 8.2-1.5 1.3-1 2.9-3.3 2.9-6.4s-1.6-4.6-3-5.7c-1.4-1.1-4.1-1.6-8-1.6H7.8v15.2zM38.4 50V2.8h26.3v6.5H45.9v11.8h18.2v6.7H45.9v15.3h18.8V50H38.4zM174.9 9.3V50h-6.8V9.3H157V2.8h29v6.5h-11.1zM106.5 50h8.2l-23-50-23.1 50h8.1l5.1-11.4h19.7l5 11.4zM91.9 15.9l7 15.9-14.2-.1 7.2-15.8zM153.3 38.6c-2 1.6-4.1 2.9-6.2 3.8-2.4 1-5 1.5-7.7 1.5-4.6 0-8.4-1.6-11.5-4.9-3-3.3-4.5-7.5-4.5-12.5 0-5.2 1.6-9.5 4.7-12.8 3.1-3.3 7.1-4.9 12.1-4.9 2.6 0 5 .5 7.3 1.4 2 .8 3.9 1.9 5.8 3.4V5.7c-1.9-1.2-3.8-2.1-5.8-2.8-2.4-.8-5-1.2-7.6-1.2-3.4 0-6.5.6-9.5 1.8-2.9 1.2-5.5 2.9-7.8 5.2-2.3 2.3-4 4.9-5.2 8-1.2 3-1.8 6.2-1.8 9.7 0 3.4.6 6.7 1.8 9.7 1.2 3 2.9 5.7 5.1 7.9 2.2 2.3 4.8 4 7.8 5.2 2.9 1.2 6.2 1.8 9.6 1.8 2.7 0 5.3-.4 7.6-1.1 2-.6 3.9-1.6 5.7-2.8v-8.5zM32.3 220l14.3-22c-12.6-11.2-20.5-27.5-20.5-45.7 0-33.8 27.4-61.3 61.3-61.3 33.8 0 61.3 27.4 61.3 61.3 0 18.2-7.9 34.5-20.5 45.7l14.1 21.8c19.5-16 32-40.3 32-67.5 0-48.1-39-87.2-87.2-87.2S0 104.2 0 152.3c0 27.4 12.6 51.8 32.3 67.7z"/><path fill="#1176BC" d="M80.2 146.2l7.1-11 7.1 11 19.7 30.3c5.7-6.4 9.2-14.9 9.2-24.2 0-20-16.2-36.2-36.2-36.2-20 0-36.2 16.2-36.2 36.2 0 9.4 3.6 18 9.5 24.4l19.8-30.5z"/><path fill="#1176BC" d="M87.4 150.9l86.1 132.6-86.1-44.3-86.1 44.3"/></svg>