<svg xmlns="http://www.w3.org/2000/svg" viewBox="0 0 462.365 212.598"><path fill="#D8882E" d="M64.077 140.963c0-28.44-41.98-27.466-41.98-44.393 0-6.105 6.187-9.296 13.99-9.296 7.96 0 15.176 2.496 22.686 6.382l.294-14.982c-5.305-2.777-13.548-5.132-23.86-5.132-20.33 0-31.668 11.51-31.668 25.11 0 7.077 2.498 12.35 6.33 16.37 11.783 12.485 35.35 14.844 35.35 27.882 0 7.63-8.54 10.545-16.052 10.545-9.137 0-16.646-3.465-21.95-6.933L0 158.86c6.483 4.162 16.202 8.326 29.902 8.326 19.15 0 34.175-10.128 34.175-26.223M280.246 117.24c0-3.884 3.606-5.69 9.296-5.69 7.08 0 13.055 2.084 18.603 4.31v-13.88c-5.412-2.08-12.077-3.328-19.16-3.328-15.825 0-24.85 8.046-24.85 19.42 0 22.334 30.27 17.897 30.27 29.69 0 4.437-4.44 6.936-11.25 6.936-6.522 0-12.77-2.5-17.628-5.83l-5.416 12.207c5.417 3.338 13.468 6.11 24.3 6.11 14.16 0 26.65-5.69 26.65-20.393-.002-22.616-30.814-19.148-30.814-29.552M173.136 165.794h16.66v-43.56c0-17.62-10.693-23.583-20.69-23.583-8.592 0-15.494 3.12-22.35 8.097v-6.57H130.1v65.617h16.655v-45.92c5.142-3.878 10.833-6.937 16.66-6.937 8.47 0 9.72 7.495 9.72 14.293v38.564M97.78 98.652c-8.75 0-16.938 1.384-25.686 7.212l5.418 10.406c4.16-2.497 9.716-4.855 16.52-4.855 7.357 0 12.91 3.054 12.91 11.096v1.667l-11.658.42c-16.8.55-27.492 7.906-27.492 21.5 0 12.9 9.44 21.09 21.52 21.09 8.02 0 13.702-2.807 17.907-6.266v4.875h16.66V122.51c-.003-17.2-9.858-23.858-26.1-23.858m9.16 51.19c-2.217 1.94-5.966 4.16-11.798 4.16-6.942 0-10.69-3.742-10.69-9.154 0-5.55 4.026-8.604 13.05-8.88l9.44-.278v14.153zM256.04 161.916V77.73c0-4.56-3.697-8.256-8.256-8.256h-8.4v29.73c-2.36-.416-4.993-.552-8.327-.552-21.243 0-36.373 14.423-36.373 34.82 0 22.196 16.106 33.713 35.678 33.713 11.243 0 19.44-2.084 25.68-5.27m-44.698-29.276c0-12.9 8.467-20.81 20.267-20.81 3.608 0 5.558.415 7.772.973v39.67c-1.938.56-4.853.975-7.494.975-12.77 0-20.544-8.878-20.544-20.81z"/><path fill="#2F4C83" d="M12.265 193.648c-2.79-1.052-4-1.795-4-3.403 0-1.24 1.022-2.508 3.44-2.508 1.954 0 3.41.59 4.184.992l.9-3.1c-1.085-.527-2.73-1.02-4.99-1.02-4.557 0-7.408 2.565-7.408 6.002 0 2.974 2.2 4.837 5.673 6.038 2.633.96 3.687 1.89 3.687 3.468 0 1.708-1.362 2.85-3.78 2.85-1.954 0-3.845-.618-5.052-1.33l-.867 3.158c1.148.683 3.442 1.296 5.67 1.296 5.36 0 7.9-2.875 7.9-6.25 0-2.972-1.736-4.8-5.358-6.194M24.732 186.84l-3.753 1.048v2.824h-2.136v2.845h2.135v7.06c0 1.983.373 3.374 1.21 4.24.71.776 1.858 1.236 3.284 1.236 1.174 0 2.197-.18 2.758-.398l-.063-2.88c-.437.124-.806.154-1.49.154-1.455 0-1.948-.928-1.948-2.786v-6.627h3.622v-2.845h-3.622v-3.872M30.958 205.792v-15.08h3.812v15.08M32.88 184.42c-1.27 0-2.14.9-2.14 2.077 0 1.107.84 2.043 2.104 2.043h.034c1.303 0 2.137-.936 2.137-2.043-.03-1.175-.833-2.076-2.136-2.076M38.716 205.792V183.77h3.81v22.022M46.473 205.792V183.77h3.808v22.022M62.953 190.37c-2.264 0-3.907.955-4.834 2.415h-.064v-9.016h-3.813v17.81c0 1.514-.062 3.184-.125 4.214h3.253l.19-2.267h.062c1.084 1.862 2.816 2.602 4.77 2.602 3.41 0 6.848-2.692 6.848-8.112.032-4.586-2.606-7.648-6.287-7.648m-1.43 12.757c-1.64 0-2.974-1.116-3.375-2.665-.064-.278-.092-.593-.092-.9v-2.446c0-.37.063-.713.12-.988.404-1.672 1.833-2.788 3.383-2.788 2.538 0 3.808 2.17 3.808 4.832 0 3.062-1.458 4.955-3.845 4.955zM72.304 205.792v-15.08h3.815v15.08M74.23 184.42c-1.272 0-2.14.9-2.14 2.077 0 1.107.834 2.043 2.108 2.043h.03c1.3 0 2.135-.936 2.135-2.043-.03-1.175-.834-2.076-2.134-2.076M83.492 193.556H83.4l-.154-2.844h-3.28c.09 1.32.122 2.815.122 4.857v10.222h3.81v-7.837c0-.403.03-.807.092-1.15.34-1.73 1.612-2.874 3.41-2.874.466 0 .805.027 1.147.086v-3.558c-.31-.06-.52-.09-.9-.09-1.644.002-3.408 1.082-4.155 3.188M110.76 190.37c-.956 0-1.858.243-2.632.678-.777.402-1.423.987-1.89 1.7h-.06v-8.98h-3.812v22.024h3.81v-9.046c0-.404.03-.808.155-1.146.435-1.146 1.486-2.133 2.976-2.133 2.108 0 2.913 1.665 2.913 3.836v8.49h3.814V196.9c0-4.832-2.7-6.53-5.273-6.53M144.353 194.05h-3.443c-.337 2.197-.96 4.155-1.858 5.546-1.178-1.27-2.756-3.125-4.214-4.772v-.12c3.07-1.55 4.336-3.314 4.336-5.45 0-2.88-2.262-4.675-5.2-4.675-3.842 0-5.83 2.725-5.83 5.355 0 1.488.686 3 1.675 4.15v.12c-2.387 1.27-4.03 3.223-4.03 6.042 0 3.004 2.292 5.88 6.88 5.88 2.386 0 4.335-.738 5.89-2.07.647.68 1.112 1.202 1.644 1.734h4.458c-1.27-1.363-2.42-2.634-3.568-3.938 1.708-1.948 2.7-4.583 3.26-7.8m-10.572-7.03h.032c1.427 0 2.078 1.244 2.078 2.355 0 1.454-1.024 2.415-2.82 3.53-.896-1.088-1.487-2.11-1.487-3.347 0-1.328.774-2.54 2.197-2.54zm-.525 16.29h-.028c-2.294 0-3.814-1.644-3.814-3.687 0-1.73 1.116-2.846 2.105-3.498 1.986 2.258 3.968 4.464 5.238 5.76-.804.802-2.012 1.426-3.5 1.426zM161.953 190.37c-2.508 0-4.152 1.424-4.835 2.6h-.093l-.184-2.257h-3.316c.062 1.297.122 2.756.122 4.488v10.594h3.81v-8.892c0-.43.068-.893.185-1.212.405-1.142 1.46-2.222 2.982-2.222 2.072 0 2.882 1.64 2.882 3.802v8.524h3.806v-8.952c0-4.774-2.725-6.472-5.357-6.472M177.61 190.37c-4.835 0-7.377 3.93-7.377 8.11 0 4.612 2.882 7.613 7.784 7.613 2.165 0 3.963-.4 5.263-.953l-.558-2.602c-1.178.4-2.416.68-4.185.68-2.416 0-4.557-1.177-4.644-3.907h10.098c.06-.333.128-.89.128-1.603 0-3.313-1.612-7.337-6.508-7.337m-3.717 6.282c.152-1.545 1.142-3.683 3.498-3.683 2.546 0 3.16 2.29 3.13 3.682h-6.627zM194.11 190.37c-4.555 0-7.808 3.033-7.808 7.99 0 4.858 3.317 7.767 7.564 7.767h.03c3.81 0 7.71-2.476 7.71-8.016.002-4.582-3-7.74-7.495-7.74m-.12 13.002h-.032c-2.263 0-3.718-2.196-3.718-5.106 0-2.507 1.082-5.14 3.78-5.14 2.602 0 3.655 2.72 3.655 5.08 0 3.063-1.52 5.166-3.686 5.166zM212.917 190.37c-2.515 0-4.155 1.424-4.835 2.6h-.096l-.185-2.257h-3.312c.06 1.297.122 2.756.122 4.488v10.594h3.81v-8.892c0-.43.065-.893.185-1.212.404-1.142 1.46-2.222 2.98-2.222 2.074 0 2.878 1.64 2.878 3.802v8.524h3.81v-8.952c0-4.774-2.726-6.472-5.356-6.472M233.86 196.747c0-3.314-1.398-6.377-6.232-6.377-2.386 0-4.336.647-5.453 1.33l.747 2.48c1.02-.653 2.57-1.116 4.055-1.116 2.67 0 3.068 1.638 3.068 2.626v.248c-5.577-.025-8.956 1.923-8.956 5.7 0 2.29 1.705 4.488 4.74 4.488 1.99 0 3.564-.836 4.467-2.008h.09l.278 1.673h3.44c-.19-.935-.246-2.266-.246-3.63v-5.413m-3.722 3.746c0 .278 0 .558-.093.837-.373 1.09-1.455 2.077-3.002 2.077-1.212 0-2.17-.688-2.17-2.173 0-2.29 2.57-2.85 5.265-2.813v2.073zM241.86 186.84l-3.75 1.048v2.824h-2.137v2.845h2.138v7.06c0 1.983.37 3.374 1.213 4.24.71.776 1.858 1.236 3.283 1.236 1.18 0 2.2-.18 2.76-.398l-.07-2.88c-.428.124-.798.154-1.484.154-1.46 0-1.95-.928-1.95-2.786v-6.627h3.623v-2.845h-3.623v-3.872M260.128 196.747c0-3.314-1.4-6.377-6.23-6.377-2.386 0-4.335.647-5.455 1.33l.746 2.48c1.017-.653 2.57-1.116 4.056-1.116 2.67 0 3.072 1.638 3.072 2.626v.248c-5.578-.025-8.96 1.923-8.96 5.7 0 2.29 1.707 4.488 4.746 4.488 1.983 0 3.562-.836 4.458-2.008h.09l.283 1.673h3.442c-.188-.935-.25-2.266-.25-3.63v-5.413m-3.716 3.746c0 .278 0 .558-.093.837-.378 1.09-1.46 2.077-3.013 2.077-1.2 0-2.163-.688-2.163-2.173 0-2.29 2.568-2.85 5.27-2.813v2.073zM263.963 205.792V183.77h3.812v22.022M292.63 183.77h-3.81v8.547h-.063c-.683-1.116-2.168-1.947-4.245-1.947-3.627 0-6.79 3.003-6.755 8.05 0 4.644 2.852 7.707 6.482 7.707 2.163 0 3.99-1.05 4.892-2.72h.06l.19 2.386h3.37c-.058-1.03-.12-2.7-.12-4.25V183.77m-3.812 15.48c0 .404-.035.782-.13 1.117-.368 1.644-1.73 2.695-3.277 2.695-2.42 0-3.785-2.013-3.785-4.798 0-2.79 1.364-4.953 3.81-4.953 1.743 0 2.945 1.203 3.288 2.663.06.31.094.712.094 1.02v2.258zM303.005 190.37c-4.84 0-7.377 3.93-7.377 8.11 0 4.612 2.884 7.613 7.776 7.613 2.17 0 3.973-.4 5.27-.953l-.553-2.602c-1.182.4-2.416.68-4.187.68-2.413 0-4.558-1.177-4.65-3.907h10.107c.056-.333.124-.89.124-1.603 0-3.313-1.613-7.337-6.51-7.337m-3.72 6.282c.154-1.545 1.15-3.683 3.502-3.683 2.54 0 3.157 2.29 3.138 3.682h-6.64zM324.2 196.747c0-3.314-1.4-6.377-6.23-6.377-2.387 0-4.34.647-5.456 1.33l.744 2.48c1.02-.653 2.574-1.116 4.06-1.116 2.67 0 3.068 1.638 3.068 2.626v.248c-5.575-.025-8.956 1.923-8.956 5.7 0 2.29 1.708 4.488 4.745 4.488 1.982 0 3.562-.836 4.455-2.008h.095l.278 1.673h3.442c-.19-.935-.245-2.266-.245-3.63v-5.414m-3.726 3.747c0 .278 0 .558-.088.837-.37 1.09-1.455 2.077-3.008 2.077-1.205 0-2.164-.688-2.164-2.173 0-2.29 2.565-2.85 5.26-2.813v2.073zM332.2 186.84l-3.75 1.048v2.824h-2.138v2.845h2.138v7.06c0 1.983.368 3.374 1.21 4.24.712.776 1.863 1.236 3.288 1.236 1.17 0 2.196-.18 2.755-.398l-.065-2.88c-.428.124-.803.154-1.483.154-1.46 0-1.953-.928-1.953-2.786v-6.627h3.626v-2.845h-3.626v-3.872M346.92 190.37c-.96 0-1.862.243-2.636.678-.774.402-1.427.987-1.89 1.7h-.067v-8.98h-3.808v22.024h3.807v-9.046c0-.404.033-.808.162-1.146.43-1.146 1.484-2.133 2.974-2.133 2.107 0 2.913 1.665 2.913 3.836v8.49h3.813V196.9c0-4.832-2.7-6.53-5.27-6.53M370.593 193.338c1.363 0 2.257.282 2.888.593l.675-2.883c-.867-.37-2.292-.678-3.682-.678-5.306 0-8.403 3.49-8.403 8.015 0 4.677 3.063 7.708 7.776 7.708 1.896 0 3.472-.4 4.283-.773l-.534-2.814c-.746.31-1.703.588-3.003.588-2.603 0-4.613-1.764-4.613-4.862-.04-2.756 1.698-4.894 4.613-4.894M385.204 190.37c-.964 0-1.858.243-2.63.678-.782.402-1.425.987-1.896 1.7h-.056v-8.98h-3.815v22.024h3.815v-9.046c0-.404.03-.808.148-1.146.436-1.146 1.485-2.133 2.978-2.133 2.103 0 2.916 1.665 2.916 3.836v8.49h3.805V196.9c0-4.832-2.693-6.53-5.266-6.53M406.058 196.747c0-3.314-1.398-6.377-6.23-6.377-2.388 0-4.34.647-5.455 1.33l.742 2.48c1.03-.653 2.574-1.116 4.06-1.116 2.67 0 3.073 1.638 3.073 2.626v.248c-5.58-.025-8.96 1.923-8.96 5.7 0 2.29 1.707 4.488 4.74 4.488 1.988 0 3.567-.836 4.464-2.008h.09l.283 1.673h3.438c-.185-.935-.244-2.266-.244-3.63v-5.413m-3.72 3.746c0 .278 0 .558-.093.837-.378 1.09-1.46 2.077-3.005 2.077-1.214 0-2.17-.688-2.17-2.173 0-2.29 2.565-2.85 5.27-2.813v2.073zM413.277 193.556h-.095l-.15-2.844h-3.287c.09 1.32.124 2.815.124 4.857v10.222h3.81v-7.837c0-.403.026-.807.095-1.15.343-1.73 1.614-2.874 3.407-2.874.464 0 .807.027 1.143.086v-3.558c-.31-.06-.523-.09-.894-.09-1.644.002-3.412 1.082-4.153 3.188M420.665 205.792v-15.08h3.812v15.08M422.59 184.42c-1.273 0-2.14.9-2.14 2.077 0 1.107.833 2.043 2.113 2.043h.025c1.305 0 2.136-.936 2.136-2.043-.024-1.175-.83-2.076-2.135-2.076M432.725 186.84l-3.75 1.048v2.824h-2.143v2.845h2.143v7.06c0 1.983.368 3.374 1.21 4.24.712.776 1.854 1.236 3.278 1.236 1.18 0 2.206-.18 2.765-.398l-.065-2.88c-.428.124-.803.154-1.488.154-1.455 0-1.95-.928-1.95-2.786v-6.627h3.623v-2.845h-3.622v-3.872M446.654 198.762c-.316.953-.59 2.104-.814 2.936h-.086c-.213-.832-.56-1.983-.865-2.91l-2.702-8.075h-4.215l5.55 13.835c.154.373.188.593.188.743 0 .19-.093.404-.222.683-.528 1.02-1.39 1.923-2.103 2.386-.77.558-1.554.892-2.195 1.055l.857 3.185c.935-.12 2.48-.62 4-1.923 1.768-1.545 3.157-4.052 5.238-9.69l3.78-10.275h-4.06l-2.35 8.05M461.937 52.606C445.17 20.646 411.147 0 375.28 0c-37.337 0-71.962 21.717-88.218 55.335-.25.515-.373 1.064-.373 1.63 0 .43.064.844.205 1.246.33.95 1.017 1.713 1.918 2.15 1.872.905 4.13.12 5.03-1.75C308.85 27.58 340.81 7.528 375.28 7.528c15.803 0 31.53 4.37 45.49 12.63 13.904 8.235 25.38 19.93 33.183 33.82l.214.38-.214.38c-7.802 13.89-19.277 25.584-33.184 33.816-3.59 2.13-7.304 3.995-11.1 5.594 8.393-8.635 13.58-20.4 13.58-33.358 0-26.434-21.526-47.936-47.972-47.936-26.452 0-47.97 21.502-47.97 47.936 0 26.423 21.518 47.926 47.97 47.926 7.7 0 15.32-.957 22.703-2.77-5.853 5.46-10.48 10.298-11.2 16.152-.053.343-.095.687-.115 1.04-.768 9.62 5.893 17.997 14.866 18.7 8.974.714 16.867-6.514 17.63-16.136.44-5.57-1.607-10.715-5.144-14.204-3.763-3.556-4.607-8.214-.065-10.965 20.235-8.852 37.486-24.426 47.988-44.43.57-1.09.57-2.402 0-3.497M335.485 60.79c0-6.087 1.382-11.85 3.836-17.012 0 .197.02.404.052.633.5 3.872 2.318 6.396 2.954 7.348 1.46 2.193 2.304 2.84 2.73 3.682.248.98-1.6 2.2-2.387 5.1-.514 1.873-1.394 4.63-.673 7.488.58 2.324 1.258 4.67 2.28 6.952 6.684 14.92 22.61 22.816 38.006 19.973.326-.036.635-.087.935-.15 4.383-.974 7.16-1.695 7.957-6.784.695-4.453-.378-6.627-.378-6.627s3.22 4.32 4.546 5.493c1.316 1.16 3.446 1.968 5.153.084 1.73-1.886 1.92-6.667 1.897-7.778-.017-1.112.01-5.107-.343-5.635-.35-.52-1.58-1.178-2.705-.835-1.122.34-3.062 4.46-3.062 4.46l-2.353-5.936s.403.008 2.06-1.222c1.66-1.23 3.22-2.667 5.108-3.392 1.887-.717 3.334-1.245 4.076-1.576.746-.332 1.176-2.662.905-5.474-.29-2.817-.863-5.414-1.954-7.757-1.05-2.243-2.35-4.2-3.13-4.834-.775-.632-1.864-.666-2.388-.188-.523.48-.67 2.19-.48 3.7.187 1.513.308 2.646.352 3.96.042 1.15.148 2.715-.523 4.04-.62 1.216-1.314 2.542-4.133 3.924-2.81 1.39-4.794 1.9-4.794 1.9s-2.36-3.35-3.94-3.874c-1.587-.52-2.91-1.278-4.643-.5-1.734.776-2.98 2.68-2.842 4.34.13 1.657 1.305 4.563 1.305 4.563s-.523.474-.884.763c-.36.286-.79.968-.79.968s-1.123-3.056-2.523-4.513c-.43-.46-1.305-1.047-2.302-1.64.354-1.614.44-2.686.87-4.218.57-2.037 1.61-1.807 2.378-2.167.76-.36 1.868-1.14 1.922-1.837.06-.71-.885-1.466-.885-1.466s.756-.947.688-1.715c-.068-.76-.954-1.342-.954-1.342s.613-.802.395-1.713c-.214-.905-1.325-1.02-1.325-1.02s.217-1.064-.545-1.583c-.772-.526-1.812-.957-2.274-.895-.473.06-.85.68-.64 1.3.21.614.33 1.26.33 1.26l-.728.154s.202-.562-.077-1.647c-.27-1.09-.858-1.372-1.51-1.253-.335.063-.786.625-1.143 1.416v-.045c0-.683-.248-1.614-.31-1.984-.06-.373-.36-1.2-.36-1.2s1.014-1.107.945-1.67c-.062-.56-1.812-1.784-2.438-2.153-.618-.374-.7-.57-.76-2-.064-1.43-.64-2.86-1.232-3.837-.904-1.476-1.957-3.163-4.583-3.85-3.244-.847-5.918-.905-9.295-.03-1.213.315-2.346.826-3.313 1.367 7.166-6.972 16.95-11.272 27.715-11.272 21.938 0 39.782 17.833 39.782 39.758 0 21.92-17.845 39.757-39.782 39.757-21.938.002-39.796-17.837-39.796-39.755zm32.798-3.853c-.215 1.053-.722 2.965-1.272 4.693-3.827-1.41-4.238-2.37-4.433-3.476-.194-1.144.915-2.54 1.583-2.952.67-.414 1.824-1.073 2.507-1.635.688-.558.566-.926.622-1.613.065-.685.563-1.494 1.002-2.24.048-.084.08-.16.124-.243-.035.277-.057.56-.046.84.084 1.94.28 4.82-.088 6.627zM96.042 186.84l-3.748 1.048v2.824H90.16v2.845h2.134v7.06c0 1.983.373 3.374 1.208 4.24.712.776 1.86 1.236 3.287 1.236 1.177 0 2.2-.18 2.754-.398l-.06-2.88c-.436.124-.805.154-1.485.154-1.46 0-1.96-.928-1.96-2.786v-6.627h3.627v-2.845H96.04v-3.872"/></svg>