<svg xmlns="http://www.w3.org/2000/svg" viewBox="0 0 239.27 212.6"><path fill="#78B2CD" d="M153.327 34.708s-2.903.817-3.14 2.427c-.237 1.61-1.187 1.962-1.9 3.09-.71 1.126-.472 3.82 2.02.694 2.488-3.126 2.018-4.705 2.018-4.705"/><path fill="none" stroke="#78B2CD" stroke-width=".311" stroke-miterlimit="10" d="M150.457 38.217l16.58-21.553-11.23-8.365"/><path fill="none" stroke="#78B2CD" stroke-width=".155" stroke-miterlimit="10" d="M170.585 23.337s-2.968-2.438-3.443-5.135c-.188-1.063-.21-1.378-.21-1.378m11.865 8.366s-6.306-2.857-8.266-4.765c-1.96-1.906-3.39-3.495-3.39-3.495s1.536 2.382 3.497 4.343c1.96 1.958 4.82 4.185 4.82 4.185m5.14-3.126s-9.063-1.876-11.124-3.603c-2.278-1.906-2.278-1.432-2.278-1.432s4.246 3.275 6.093 4.344c3.39 1.958 6.94 2.223 6.94 2.223m1.322-4.764s-7.68-.316-9.217-.477c-1.534-.16-5.243-1.8-5.243-1.8s3.124 2.117 7.1 2.593c3.97.477 7.413.743 7.413.743m-.742-2.384s-7.29.416-10.22-.052c-2.65-.425-3.71-1.008-3.71-1.008m14.938.266s-9.375.582-11.23.426c-1.853-.16-3.392-.69-3.392-.69m12.08-1.112s-4.026 1.06-7.15 1.43c-3.125.373-5.35-.16-5.35-.16m10.646-2.065s-3.813 1.748-6.675 2.224c-2.86.478-4.026-.105-4.026-.105m8.53-3.71s-3.177 2.86-5.19 3.18c-2.013.316-3.072.21-3.072.21m7.362-3.917s-5.352 3.865-6.09 3.972c-.743.107-1.01-.053-1.01-.053m7.79-8.366s-2.545 4.078-4.396 5.824c-1.855 1.747-3.34 2.7-3.34 2.7m5.67-7.57s-2.44 3.65-3.393 5.027c-.952 1.378-2.277 2.596-2.277 2.596m3.446-10.96s-.744 3.6-1.644 6.407c-.902 2.807-1.75 4.235-1.75 4.235m1.22-8.683s-.054 4.396-.21 5.666c-.16 1.27-1.323 3.23-1.323 3.23m-1.01-12.973s.954 4.713 1.008 7.467c.053 2.754 0 4.923 0 4.923M162.535.037s2.49 6.885 3.126 10.326c.632 3.44 1.164 5.93 1.164 5.93M161.156.25s2.598 5.982 3.602 9.054c1.01 3.07 2.228 7.202 2.228 7.202M158.773 1.68s4.873 7.358 5.298 8.683 2.756 5.93 2.756 5.93m-8-11.54s7.31 9.212 8 11.223m-9.747-11.703s8.208 9.797 9.957 12.072m-10.7-11.012s9.43 9.586 10.54 10.91m-11.335-9.957s9.64 8.473 11.123 9.9m-13.4-3.176c.16-.054 6.94 2.225 8.634 2.595l4.925 1.06m-12.977-4.5s7.147 1.96 8.74 2.594c1.59.633 4.343 1.694 4.343 1.694m-11.228-6.144l10.54 5.877"/><path fill="#78B2CD" d="M103.178 95.378s2.82-.232 3.266-1.538c.444-1.304 1.378-1.453 2.2-2.283.816-.83.968-3.114-1.786-.892-2.756 2.22-2.534 3.61-2.534 3.61"/><path fill="none" stroke="#78B2CD" stroke-width=".311" stroke-miterlimit="10" d="M105.388 93.5l-18.456 15.42 9.325 8.716m6.92-22.258s2.822-.232 3.267-1.538c.444-1.304 1.378-1.453 2.2-2.283.816-.83.968-3.114-1.786-.892-2.756 2.22-2.534 3.61-2.534 3.61l-1.146 1.103z"/><path fill="none" stroke="#78B2CD" stroke-width=".155" stroke-miterlimit="10" d="M84.54 102.805s2.434 2.488 2.504 4.815c.028.917.007 1.182.007 1.182m-9.918-8.81s5.49 3.355 7.057 5.25c1.564 1.893 2.68 3.44 2.68 3.44s-1.103-2.227-2.663-4.164c-1.562-1.937-3.922-4.234-3.922-4.234m-5.23 1.814s8.2 2.963 9.888 4.72c1.862 1.943 1.928 1.546 1.928 1.546s-3.51-3.392-5.088-4.563c-2.893-2.158-6.17-2.925-6.17-2.925m-1.894 3.77s7.128 1.45 8.54 1.82c1.41.372 4.646 2.313 4.646 2.313s-2.625-2.253-6.267-3.262c-3.645-1.014-6.82-1.765-6.82-1.765m.363 2.104s6.862.78 9.535 1.624c2.412.764 3.322 1.413 3.322 1.413m-13.907-2.526s8.834.963 10.54 1.382c1.71.42 3.072 1.097 3.072 1.097m-11.43-.94s3.907-.26 6.876-.087c2.966.174 4.972.96 4.972.96m-10.227.077s3.802-.87 6.538-.822c2.737.044 3.745.71 3.745.71m-8.475 1.774s3.364-1.895 5.287-1.85c1.92.045 2.897.297 2.897.297m-7.415 2.134s5.53-2.398 6.236-2.37c.708.025.933.198.933.198m-8.43 5.78s2.94-3.01 4.91-4.183c1.974-1.172 3.49-1.737 3.49-1.737m-6.337 5.44s2.777-2.67 3.86-3.673c1.078-1.002 2.483-1.813 2.483-1.813m-4.728 8.613s1.19-2.89 2.42-5.092 2.218-3.265 2.218-3.265m-2.34 7.06s.656-3.66.98-4.698c.323-1.032 1.683-2.487 1.683-2.487m-.852 10.977s-.24-4.08.09-6.386c.332-2.306.684-4.108.684-4.108m2.026 14.136s-1.373-6.13-1.49-9.1c-.117-2.97-.268-5.13-.268-5.13m3.072 14.264s-1.597-5.393-2.113-8.11c-.515-2.72-1.082-6.354-1.082-6.354m5.615 13.64s-3.53-6.894-3.742-8.063c-.212-1.17-1.75-5.374-1.75-5.374m5.872 10.87s-5.553-8.82-5.917-10.605m7.48 11.273s-6.312-9.443-7.628-11.614m8.467 10.842s-7.478-9.452-8.333-10.73m9.21 10.058s-7.83-8.558-9.02-9.98m12.075 4.72c-.158.02-6.17-2.928-7.703-3.497l-4.452-1.646m11.492 5.762s-6.4-2.74-7.8-3.515c-1.395-.776-3.82-2.085-3.82-2.085m9.632 6.86l-9.027-6.534"/><path fill="#78B2CD" d="M102.23 89.66s2.675.93 3.61-.08c.934-1.014 1.85-.77 2.935-1.196 1.087-.428 2.15-2.452-1.268-1.54-3.424.912-3.782 2.273-3.782 2.273"/><path fill="none" stroke="#78B2CD" stroke-width=".311" stroke-miterlimit="10" d="M105.012 88.84l-23.13 6.602 4.985 11.75M102.23 89.66s2.675.93 3.61-.08c.934-1.014 1.85-.77 2.935-1.196 1.087-.428 2.15-2.452-1.268-1.54-3.424.912-3.782 2.273-3.782 2.273l-1.496.543z"/><path fill="none" stroke="#78B2CD" stroke-width=".155" stroke-miterlimit="10" d="M82.18 88.88s1.214 3.263.334 5.42c-.348.85-.474 1.083-.474 1.083m-5.487-12.08s3.65 5.297 4.313 7.662c.663 2.366 1.054 4.23 1.054 4.23s-.104-2.48-.744-4.885c-.636-2.403-1.863-5.46-1.863-5.46m-5.512-.465s6.29 6.037 7.117 8.328c.914 2.532 1.137 2.194 1.137 2.194s-1.833-4.522-2.796-6.233c-1.767-3.15-4.448-5.18-4.448-5.18m-3.265 2.677s5.922 4.22 7.063 5.133c1.14.91 3.31 3.998 3.31 3.998s-1.486-3.12-4.404-5.523c-2.92-2.402-5.518-4.382-5.518-4.382m-.524 2.07s5.956 3.497 8.06 5.353c1.892 1.678 2.46 2.64 2.46 2.64M70.31 87.503s7.68 4.464 9.07 5.54c1.393 1.08 2.36 2.25 2.36 2.25m-10.062-5.495s3.676 1.348 6.316 2.71c2.642 1.362 4.154 2.893 4.154 2.893m-9.376-4.078s3.83.748 6.31 1.9c2.483 1.15 3.133 2.168 3.133 2.168m-8.464-1.82s3.842-.362 5.582.46c1.74.822 2.527 1.447 2.527 1.447m-7.644-1.06s6.028.05 6.662.36c.637.312.77.563.77.563M71.603 97.2s3.906-1.56 6.185-1.828c2.28-.27 3.896-.172 3.896-.172m-8.003 2.4s3.625-1.313 5.02-1.79c1.39-.478 3.005-.647 3.005-.647m-7.82 5.95s2.263-2.156 4.28-3.67c2.017-1.517 3.352-2.086 3.352-2.086m-5.004 5.505s2.086-3.078 2.803-3.896c.715-.813 2.55-1.59 2.55-1.59m-5.24 9.685s1.44-3.825 2.68-5.797c1.237-1.97 2.29-3.477 2.29-3.477m-3.89 13.74s1.236-6.156 2.334-8.92c1.102-2.762 1.84-4.796 1.84-4.796m-2.985 14.283s.73-5.577 1.364-8.27c.632-2.693 1.59-6.244 1.59-6.244m-.406 14.743s-.428-7.733-.146-8.887c.28-1.157.58-5.625.58-5.625m.953 12.318s-1.493-10.313-1.1-12.092m2.258 13.336s-1.93-11.19-2.252-13.708m3.336 13.345s-2.996-11.675-3.26-13.19m4.33 12.93s-3.68-10.998-4.19-12.782m9.117 9.215c-.15-.044-4.45-5.182-5.62-6.324l-3.4-3.312m8.165 9.93s-4.74-5.103-5.7-6.376c-.963-1.278-2.647-3.458-2.647-3.458m6.02 10.18l-5.6-9.636"/><path fill="#78B2CD" d="M102.208 85.408s2.467 1.385 3.57.555c1.097-.833 1.953-.433 3.1-.66 1.145-.23 2.547-2.037-.98-1.74-3.528.295-4.12 1.575-4.12 1.575"/><path fill="none" stroke="#78B2CD" stroke-width=".311" stroke-miterlimit="10" d="M105.09 85.088l-23.927 2.437 2.842 12.444m18.203-14.562s2.467 1.385 3.57.555c1.097-.833 1.953-.433 3.1-.66 1.145-.23 2.547-2.037-.98-1.74-3.528.295-4.12 1.575-4.12 1.575l-1.57.27z"/><path fill="none" stroke="#78B2CD" stroke-width=".155" stroke-miterlimit="10" d="M82.61 81.12s.62 3.424-.626 5.393c-.49.776-.656.983-.656.983m-3.28-12.857s2.666 5.856 2.904 8.3c.234 2.446.294 4.354.294 4.354s.332-2.462.125-4.94c-.207-2.478-.874-5.705-.874-5.705m-5.35-1.427s5.133 7.047 5.544 9.448c.456 2.655.732 2.36.732 2.36s-1.01-4.772-1.655-6.628c-1.188-3.41-3.47-5.88-3.47-5.88m-3.684 2.063s5.09 5.192 6.053 6.29c.96 1.098 2.554 4.517 2.554 4.517s-.913-3.334-3.365-6.21c-2.45-2.88-4.66-5.283-4.66-5.283m-.88 1.944s5.25 4.49 6.99 6.688c1.57 1.983 1.962 3.03 1.962 3.03m-10.105-9.884s6.778 5.743 7.96 7.047c1.18 1.305 1.926 2.63 1.926 2.63m-8.942-7.178s3.382 1.97 5.745 3.776c2.36 1.804 3.583 3.577 3.583 3.577m-8.516-5.658s3.64 1.408 5.878 2.98c2.24 1.564 2.702 2.683 2.702 2.683m-8.013-3.276s3.847.314 5.415 1.43c1.564 1.112 2.23 1.866 2.23 1.866m-7.334-2.384s5.925 1.11 6.494 1.528c.57.416.662.685.662.685m-10.22.068s4.12-.85 6.412-.714c2.288.136 3.863.513 3.863.513m-8.3.96s3.8-.657 5.255-.88c1.458-.228 3.074-.11 3.074-.11m-8.745 4.485s2.61-1.728 4.86-2.863c2.253-1.137 3.666-1.463 3.666-1.463m-5.893 4.538s2.597-2.665 3.443-3.34c.85-.68 2.792-1.122 2.792-1.122m-6.86 8.618s2.09-3.517 3.653-5.238c1.57-1.723 2.868-3.022 2.868-3.022M74.58 100.66s2.295-5.846 3.862-8.372c1.565-2.527 2.652-4.398 2.652-4.398m-5.448 13.535s1.7-5.36 2.796-7.9c1.097-2.538 2.662-5.868 2.662-5.868m-2.99 14.442s.94-7.69 1.418-8.775c.48-1.09 1.56-5.436 1.56-5.436m-1.226 12.29s.34-10.412 1.042-12.096m-.118 13.528s.065-11.356.188-13.893m.938 13.723s-.896-12.017-.89-13.556m1.99 13.488S81.326 89.9 81.14 88.06m7.354 10.67c-.14-.07-3.47-5.882-4.42-7.21l-2.766-3.856M87.6 98.87s-3.77-5.853-4.49-7.28c-.723-1.424-2-3.866-2-3.866m4.14 11.078l-3.816-10.47"/><path fill="#78B2CD" d="M109.758 80.76s1.49 2.407 2.855 2.212c1.365-.197 1.92.566 3.033.923 1.112.353 3.216-.55-.018-1.997-3.23-1.447-4.367-.616-4.367-.616"/><path fill="none" stroke="#78B2CD" stroke-width=".311" stroke-miterlimit="10" d="M112.437 81.875l-22.12-9.44-3.536 12.267m22.978-3.942s1.49 2.407 2.855 2.212c1.365-.197 1.92.566 3.033.923 1.112.353 3.216-.55-.018-1.997-3.23-1.447-4.367-.616-4.367-.616l-1.502-.522z"/><path fill="none" stroke="#78B2CD" stroke-width=".155" stroke-miterlimit="10" d="M94.68 67.53s-1.114 3.295-3.155 4.416c-.806.44-1.05.544-1.05.544m3.35-12.84s-.5 6.415-1.477 8.67c-.977 2.255-1.85 3.95-1.85 3.95s1.483-1.992 2.5-4.263c1.022-2.27 1.997-5.415 1.997-5.415m-3.99-3.833s1.08 8.65.28 10.947c-.888 2.544-.503 2.42-.503 2.42s1.428-4.666 1.76-6.603c.61-3.56-.19-6.824-.19-6.824m-4.224.024s1.94 7.008 2.253 8.434c.313 1.425.05 5.187.05 5.187s.813-3.36.062-7.063c-.75-3.704-1.52-6.876-1.52-6.876m-1.714 1.277s2.422 6.47 2.882 9.232c.417 2.495.25 3.6.25 3.6M86.33 58.98s3.152 8.306 3.552 10.017c.403 1.712.416 3.232.416 3.232m-4.352-10.605s2.007 3.358 3.2 6.083c1.192 2.723 1.398 4.863 1.398 4.863m-4.706-9.07s2.498 2.99 3.703 5.45c1.202 2.457 1.066 3.655 1.066 3.655m-5.43-6.742s3.216 2.135 4.05 3.87c.83 1.73 1.048 2.714 1.048 2.714m-5.266-5.636s4.647 3.837 4.943 4.48c.3.642.25.92.25.92m-8.977-4.885s4.016 1.25 5.955 2.477c1.94 1.225 3.133 2.32 3.133 2.32m-7.727-3.177s3.644 1.263 5.025 1.77c1.383.51 2.746 1.393 2.746 1.393m-9.825-.305s3.116-.25 5.635-.157c2.522.093 3.917.494 3.917.494m-7.352 1.12s3.56-1.076 4.63-1.257c1.07-.182 2.982.37 2.982.37M80.17 76.596s3.53-2.065 5.733-2.816c2.205-.75 3.97-1.258 3.97-1.258m-11.677 8.222s4.84-4.005 7.432-5.456c2.595-1.452 4.45-2.568 4.45-2.568M78.76 81.93s4.08-3.87 6.272-5.563c2.19-1.692 5.172-3.846 5.172-3.846m-9.608 11.196s4.54-6.275 5.487-6.995c.946-.72 3.995-4 3.995-4m-7.02 10.164s5.336-8.948 6.763-10.083m-6.648 11.782s5.553-9.906 6.888-12.067m-5.82 12.463s5.03-10.952 5.78-12.293m-4.787 12.767s4.078-10.858 4.805-12.562m1.27 12.897c-.086-.13-.19-6.826-.376-8.45l-.556-4.714m.082 12.854s-.465-6.948-.407-8.544c.06-1.597.126-4.35.126-4.35m-1.74 11.697l1.723-11.01"/><path fill="#78B2CD" d="M108.036 79.228s.796 3.492 2.612 3.85c1.82.352 2.176 1.498 3.425 2.395 1.25.896 4.32.733.885-2.37-3.438-3.106-5.256-2.61-5.256-2.61"/><path fill="none" stroke="#78B2CD" stroke-width=".311" stroke-miterlimit="10" d="M110.923 81.7l-23.74-20.707m20.853 18.235s.796 3.492 2.612 3.85c1.82.352 2.176 1.498 3.425 2.395 1.25.896 4.32.733.885-2.37-3.438-3.106-5.256-2.61-5.256-2.61l-1.666-1.265z"/><path fill="none" stroke="#78B2CD" stroke-width=".155" stroke-miterlimit="10" d="M94.936 57.057s-2.91 3.425-6.002 3.877c-1.22.176-1.575.192-1.575.192m10.06-13.772s-3.542 7.386-5.8 9.64c-2.257 2.25-4.13 3.882-4.13 3.882s2.78-1.722 5.1-3.973c2.317-2.25 4.98-5.56 4.98-5.56m-3.316-6.26s-2.55 10.715-4.61 13.096c-2.272 2.63-1.73 2.65-1.73 2.65s3.92-4.914 5.22-7.065c2.386-3.956 2.85-8.17 2.85-8.17m-5.358-1.79s-.717 9.138-.97 10.96c-.252 1.823-2.29 6.17-2.29 6.17s2.553-3.632 3.278-8.344c.727-4.714 1.188-8.803 1.188-8.803m-2.744.78s.137 8.706-.533 12.182c-.604 3.134-1.313 4.372-1.313 4.372m.99-17.787s.228 11.197-.04 13.397c-.267 2.202-.938 4.012-.938 4.012m-.707-14.442s1.02 4.845 1.295 8.583c.28 3.74-.426 6.368-.426 6.368M85.56 48.475s1.81 4.623 2.218 8.05c.41 3.43-.305 4.793-.305 4.793m-3.82-10.324s3.104 3.914 3.373 6.326c.268 2.41.1 3.67.1 3.67m-4.117-8.946s4.147 6.546 4.23 7.434c.088.89-.106 1.197-.106 1.197m-9.15-9.65s4.52 3.21 6.42 5.498c1.9 2.287 2.916 4.096 2.916 4.096m-8.348-7.09s4.04 3.064 5.563 4.262c1.52 1.198 2.845 2.83 2.845 2.83m-12.307-4.587s4.062 1.043 7.21 2.24c3.15 1.194 4.735 2.27 4.735 2.27M77.2 58.71s4.997.257 6.437.5c1.437.244 3.61 1.72 3.61 1.72m-14.798.628s5.404-.93 8.536-.87c3.132.058 5.597.217 5.597.217m-18.513 4.72s7.942-2.665 11.884-3.27c3.945-.605 6.797-1.128 6.797-1.128M68.25 67.274s6.922-2.828 10.462-3.894c3.537-1.063 8.29-2.333 8.29-2.333m-17.238 9.13s8.595-5.485 10.12-5.93c1.523-.448 6.87-3.02 6.87-3.02M73.255 70.25s10.815-8.305 13.137-9.036m-13.76 11.096s11.52-9.352 14.19-11.334m-13.02 12.268s11.336-10.814 12.893-12.083M74.85 74.23s10.08-11.11 11.775-12.818M82.39 77.244c-.052-.192 2.85-8.173 3.352-10.176l1.432-5.823m-5.72 15.265s2.56-8.433 3.356-10.3c.796-1.868 2.13-5.105 2.13-5.105M79.435 74.22l7.17-12.305"/><path fill="#78B2CD" d="M125.56 66.97s-2.034 1.65-1.695 2.867c.337 1.22-.298 1.818-.495 2.873-.193 1.055.872 2.862 1.827-.255.952-3.118.06-4.054.06-4.054"/><path fill="none" stroke="#78B2CD" stroke-width=".311" stroke-miterlimit="10" d="M124.846 69.546l6.1-21.282-11.65-1.74m6.263 20.447s-2.034 1.65-1.695 2.867c.337 1.22-.298 1.818-.495 2.873-.193 1.055.872 2.862 1.827-.255.952-3.118.06-4.054.06-4.054l.302-1.43z"/><path fill="none" stroke="#78B2CD" stroke-width=".155" stroke-miterlimit="10" d="M135.948 51.646s-3.15-.62-4.415-2.343c-.497-.678-.617-.89-.617-.89m12.153 1.51s-5.94.314-8.118-.305c-2.18-.62-3.834-1.208-3.834-1.208s1.998 1.107 4.196 1.764c2.194.655 5.192 1.164 5.192 1.164m3.056-4.095s-7.808 2.025-10.006 1.573c-2.434-.502-2.277-.167-2.277-.167s4.442.737 6.254.807c3.332.128 6.236-.997 6.236-.997m-.51-3.842s-6.2 2.61-7.47 3.067c-1.27.456-4.75.67-4.75.67s3.174.337 6.48-.796c3.31-1.13 6.128-2.217 6.128-2.217m-1.366-1.402s-5.653 2.985-8.132 3.74c-2.24.678-3.27.66-3.27.66m11.94-5.33s-7.25 3.872-8.772 4.446c-1.523.573-2.917.767-2.917.767m9.22-5.243s-2.85 2.232-5.204 3.646c-2.358 1.414-4.296 1.864-4.296 1.864m7.767-5.384s-2.453 2.64-4.567 4.03c-2.11 1.39-3.228 1.41-3.228 1.41m5.554-5.755s-1.586 3.187-3.08 4.15c-1.492.97-2.368 1.284-2.368 1.284m4.56-5.474s-2.98 4.696-3.535 5.044c-.553.347-.815.334-.815.334m3.438-8.76s-.68 3.807-1.58 5.72c-.896 1.914-1.763 3.132-1.763 3.132m2.017-7.42s-.736 3.472-1.042 4.79c-.306 1.32-.958 2.667-.958 2.667m-.858-8.984s.59 2.808.796 5.116c.205 2.306 0 3.624 0 3.624m-1.876-6.56s1.397 3.11 1.687 4.065c.288.95.007 2.76.007 2.76m-5.05-8.756s2.302 2.964 3.243 4.883c.943 1.917 1.615 3.465 1.615 3.465m-8.886-9.645s4.228 3.923 5.86 6.11c1.63 2.187 2.866 3.743 2.866 3.743m-9.752-9.195s4.02 3.252 5.824 5.04c1.804 1.79 4.125 4.245 4.125 4.245m-11.372-7.4s6.277 3.377 7.05 4.153c.768.775 4.126 3.157 4.126 3.157m-10.127-5.17s8.817 3.785 10.02 4.946m-11.565-4.636s9.723 3.862 11.855 4.818m-12.095-3.8s10.62 3.264 11.938 3.785m-12.257-2.82s10.425 2.402 12.07 2.86m-11.676 2.712c.11-.097 6.236-.995 7.704-1.36l4.257-1.074m-11.774 1.626s6.315-1.264 7.786-1.402c1.468-.14 4-.41 4-.41m-10.92-.18l10.29.247"/><path fill="none" stroke="#78B2CD" stroke-width=".311" stroke-miterlimit="10" d="M124.202 71.81L119.22 38.2l-11.387 3.018"/><path fill="none" stroke="#78B2CD" stroke-width=".155" stroke-miterlimit="10" d="M125.153 39.326s-3.14.68-4.983-.402c-.725-.425-.92-.57-.92-.57m11.76-3.432s-5.33 2.64-7.573 2.937c-2.246.296-4 .41-4 .41s2.273.227 4.554-.043c2.277-.27 5.232-.988 5.232-.988m1.177-4.972s-6.364 4.952-8.565 5.407c-2.43.504-2.153.75-2.153.75s4.368-1.084 6.063-1.738c3.108-1.202 5.33-3.384 5.33-3.384m-1.994-3.326s-4.654 4.854-5.64 5.775c-.986.92-4.095 2.496-4.095 2.496s3.047-.948 5.636-3.297c2.59-2.35 4.75-4.46 4.75-4.46m-1.816-.747s-4.005 4.98-5.983 6.652c-1.785 1.51-2.738 1.9-2.738 1.9m8.85-9.618s-5.123 6.423-6.295 7.554c-1.17 1.133-2.37 1.86-2.37 1.86m6.385-8.464s-1.73 3.177-3.334 5.41c-1.606 2.234-3.207 3.413-3.207 3.413m5.002-8.023s-1.208 3.394-2.6 5.51c-1.386 2.112-2.4 2.573-2.4 2.573m2.814-7.48s-.193 3.55-1.18 5.028c-.988 1.48-1.668 2.117-1.668 2.117m2.017-6.833s-.873 5.492-1.242 6.03c-.375.54-.62.628-.62.628m-.315-9.405s.883 3.765.817 5.878c-.067 2.113-.38 3.575-.38 3.575m-1.085-7.61s.698 3.476.94 4.81c.242 1.334.177 2.83.177 2.83m-4.347-7.91s1.656 2.342 2.758 4.38c1.1 2.038 1.435 3.328 1.435 3.328m-4.323-5.28s2.518 2.304 3.16 3.065c.645.76 1.1 2.534 1.1 2.534m-8.102-6.04s3.285 1.81 4.913 3.195c1.627 1.387 2.855 2.54 2.855 2.54m-11.983-5.333s5.44 1.928 7.806 3.29c2.363 1.364 4.114 2.302 4.114 2.302m-12.598-4.582s4.98 1.394 7.344 2.32c2.367.93 5.47 2.266 5.47 2.266m-13.374-2.29s7.103.613 8.116 1.02c1.015.41 5.04 1.264 5.04 1.264m-11.344-.734s9.593-.02 11.162.57m-12.458.326s10.46-.308 12.797-.274m-12.615 1.305s11.047-1.21 12.46-1.253m-12.37 2.264s10.52-1.922 12.216-2.152m-9.643 7.112c.06-.13 5.33-3.383 6.53-4.298l3.48-2.67m-10.16 6.152s5.297-3.66 6.59-4.37c1.295-.71 3.512-1.963 3.512-1.963m-10.098 4.166l9.542-3.852"/><path fill="#78B2CD" d="M130.15 76.282s-1.073 1.46-.587 2.32c.485.86.166 1.38.247 2.183.082.803 1.195 2.014 1.214-.402.02-2.42-.79-3.006-.79-3.006"/><path fill="none" stroke="#78B2CD" stroke-width=".311" stroke-miterlimit="10" d="M130.15 76.282s-1.073 1.46-.587 2.32c.485.86.166 1.38.247 2.183.082.803 1.195 2.014 1.214-.402.02-2.42-.79-3.006-.79-3.006l-.083-1.095z"/><path fill="none" stroke="#78B2CD" stroke-width=".155" stroke-miterlimit="10" d="M134.216 63.724s-2.313-.086-3.546-1.214c-.485-.444-.61-.585-.61-.585m8.745-.317s-4.057.934-5.696.73c-1.642-.198-2.913-.44-2.913-.44s1.617.584 3.276.812c1.66.226 3.846.25 3.846.25m1.278-3.39s-5.002 2.42-6.624 2.344c-1.79-.084-1.612.146-1.612.146s3.234.02 4.505-.143c2.343-.296 4.128-1.472 4.128-1.472m-1.146-2.78s-3.767 2.66-4.557 3.148c-.788.484-3.16 1.054-3.16 1.054s2.27-.125 4.34-1.35c2.062-1.23 3.795-2.36 3.795-2.36m-1.238-.877s-3.31 2.873-4.876 3.722c-1.415.765-2.136.874-2.136.874m7.197-5.348s-4.237 3.718-5.178 4.318c-.94.604-1.867.912-1.867.912m5.324-4.96s-1.52 1.985-2.865 3.308c-1.35 1.323-2.604 1.886-2.604 1.886m4.292-4.9s-1.164 2.24-2.344 3.518c-1.182 1.28-1.95 1.426-1.95 1.426m2.67-4.912s-.447 2.543-1.285 3.434c-.838.89-1.383 1.228-1.383 1.228m2.044-4.586s-1.104 3.822-1.417 4.145c-.312.324-.495.344-.495.344m.584-6.887s.31 2.898.078 4.417c-.23 1.52-.58 2.523-.58 2.523m-.124-5.724s.202 2.653.26 3.665c.06 1.015-.117 2.085-.117 2.085m-2.442-6.542s.99 2.007 1.603 3.688c.616 1.683.746 2.682.746 2.682m-2.65-4.63s1.608 2.135 2.006 2.807c.395.67.573 2.04.573 2.04m-5.303-5.88s2.207 1.92 3.256 3.228c1.048 1.307 1.832 2.372 1.832 2.372m-8.152-6.085s3.744 2.403 5.326 3.83c1.582 1.425 2.758 2.43 2.758 2.43m-8.66-5.654s3.456 1.934 5.08 3.043c1.62 1.108 3.732 2.653 3.732 2.653m-9.412-4.134s5.052 1.76 5.744 2.242c.695.48 3.517 1.85 3.517 1.85m-8.095-2.632s6.9 1.76 7.976 2.478m-8.983-2.067s7.544 1.713 9.222 2.17m-9.18-1.388s8.044 1.164 9.065 1.393m-9.088-.643s7.728.55 8.967.695m-7.55 3.38c.058-.084 4.123-1.473 5.066-1.914l2.734-1.295m-7.836 2.588s4.128-1.677 5.117-1.955c.993-.272 2.694-.773 2.694-.773m-7.618 1.157l7.192-1.03m.693 16.395l-.14-16.46-8.444.085"/><path fill="#78B2CD" d="M143.722 68.955s-2.937-.24-3.668 1.106c-.734 1.35-1.72 1.35-2.737 2.112-1.02.763-1.663 3.23 1.632 1.285 3.293-1.944 3.362-3.502 3.362-3.502"/><path fill="none" stroke="#78B2CD" stroke-width=".311" stroke-miterlimit="10" d="M141.062 70.622l22.167-13.607-7.653-11.155m-11.855 23.095s-2.937-.24-3.668 1.106c-.734 1.35-1.72 1.35-2.737 2.112-1.02.763-1.663 3.23 1.632 1.285 3.293-1.944 3.362-3.502 3.362-3.502l1.41-1z"/><path fill="none" stroke="#78B2CD" stroke-width=".155" stroke-miterlimit="10" d="M164.356 64.113s-1.95-3.146-1.522-5.702c.168-1.004.244-1.29.244-1.29m8.238 11.368s-4.882-4.632-6.077-6.976c-1.19-2.344-2-4.23-2-4.23s.652 2.624 1.827 5.014 3.093 5.315 3.093 5.315m5.73-1.06s-7.737-4.675-9.08-6.894c-1.487-2.448-1.64-2.024-1.64-2.024s2.857 4.317 4.212 5.877c2.49 2.863 5.672 4.28 5.672 4.28m2.748-3.79s-6.964-2.836-8.327-3.486c-1.363-.65-4.246-3.342-4.246-3.342s2.194 2.918 5.7 4.662c3.5 1.743 6.584 3.124 6.584 3.124m.08-2.362s-6.842-2.056-9.39-3.445c-2.304-1.256-3.09-2.125-3.09-2.125m13.662 5.2s-8.814-2.6-10.47-3.356c-1.655-.758-2.9-1.738-2.9-1.738m11.47 3.027s-4.045-.398-7.04-1.11c-2.99-.71-4.87-1.918-4.87-1.918m10.46 1.707s-4.07.28-6.854-.247c-2.785-.528-3.672-1.432-3.672-1.432m9.038-.453s-3.84 1.48-5.796 1.095c-1.952-.39-2.896-.833-2.896-.833m8.032-1.032s-6.163 1.65-6.88 1.5c-.716-.15-.91-.382-.91-.382m9.85-4.835s-3.646 2.773-5.913 3.708c-2.265.932-3.938 1.284-3.938 1.284m7.645-4.83s-3.414 2.432-4.73 3.335c-1.318.905-2.93 1.544-2.93 1.544m6.683-8.58s-1.84 2.948-3.567 5.138c-1.728 2.19-2.968 3.178-2.968 3.178m3.907-7.3s-1.457 3.882-2.01 4.957c-.558 1.074-2.258 2.424-2.258 2.424m3.236-11.84s-.633 4.496-1.466 6.958c-.835 2.46-1.583 4.368-1.583 4.368m.97-15.796s.085 6.935-.435 10.197c-.52 3.265-.83 5.65-.83 5.65m-.07-16.117s.472 6.172.41 9.23c-.058 3.06-.26 7.127-.26 7.127m-2.8-15.883s2.124 8.15 2.09 9.466c-.037 1.315.63 6.178.63 6.178m-3.66-12.9s3.775 10.605 3.762 12.62M158.04 42.71s4.415 11.418 5.29 14.02m-6.313-13.327s5.604 11.635 6.203 13.182m-7.24-12.602s6.154 10.722 7.062 12.483m-11.315-7.273c.163.006 5.67 4.278 7.11 5.17l4.196 2.577m-10.497-8.306s5.95 4.115 7.21 5.207c1.258 1.09 3.454 2.947 3.454 2.947m-8.364-9.182l7.815 8.72"/><path fill="#78B2CD" d="M124.534 69.386s-.36 2.92.955 3.71c1.316.788 1.273 1.773 1.997 2.82.72 1.048 3.157 1.796 1.35-1.574-1.804-3.374-3.358-3.508-3.358-3.508"/><path fill="none" stroke="#78B2CD" stroke-width=".311" stroke-miterlimit="10" d="M126.09 72.114l-12.678-22.708-11.468 7.177m22.59 12.803s-.36 2.92.955 3.71c1.316.788 1.273 1.773 1.997 2.82.72 1.048 3.157 1.796 1.35-1.574-1.804-3.374-3.358-3.508-3.358-3.508l-.946-1.448z"/><path fill="none" stroke="#78B2CD" stroke-width=".155" stroke-miterlimit="10" d="M120.556 48.575s-3.23 1.816-5.766 1.28c-.996-.208-1.28-.3-1.28-.3m11.706-7.75s-4.834 4.685-7.227 5.776c-2.392 1.097-4.31 1.822-4.31 1.822s2.65-.54 5.088-1.614c2.436-1.074 5.44-2.872 5.44-2.872m-.82-5.762s-4.996 7.533-7.27 8.784c-2.508 1.382-2.092 1.55-2.092 1.55s4.434-2.672 6.05-3.962c2.967-2.37 4.512-5.487 4.512-5.487m-3.67-2.905s-3.123 6.84-3.832 8.173c-.707 1.333-3.516 4.104-3.516 4.104s3.01-2.073 4.896-5.5c1.89-3.426 3.396-6.45 3.396-6.45m-2.356-.176s-2.337 6.75-3.833 9.235c-1.352 2.248-2.252 3-2.252 3m5.768-13.428s-2.966 8.697-3.792 10.316c-.827 1.624-1.858 2.822-1.858 2.822m3.505-11.33s-.567 4.023-1.4 6.985c-.836 2.96-2.123 4.786-2.123 4.786m2.14-10.372s.115 4.077-.528 6.836c-.645 2.76-1.585 3.606-1.585 3.606m-.077-9.045s1.318 3.896.852 5.836c-.47 1.936-.956 2.856-.956 2.856m-.692-8.065s1.394 6.224 1.21 6.934c-.182.708-.42.892-.42.892m-4.42-10.04s2.618 3.762 3.46 6.064c.837 2.303 1.12 3.987 1.12 3.987m-4.513-7.84s2.29 3.512 3.137 4.867c.85 1.354 1.42 2.99 1.42 2.99m-8.293-7.035s2.87 1.958 4.986 3.776c2.116 1.816 3.05 3.095 3.05 3.095m-7.13-4.203s3.818 1.616 4.87 2.215c1.05.6 2.33 2.353 2.33 2.353m-11.703-3.722s4.47.82 6.892 1.756c2.425.935 4.302 1.758 4.302 1.758M97.226 47.54s6.934.207 10.174.86c3.24.656 5.612 1.064 5.612 1.064m-16.113-.6s6.187-.215 9.243-.027c3.052.188 7.11.56 7.11.56m-15.99 2.135s8.233-1.782 9.547-1.692c1.313.09 6.2-.375 6.2-.375m-13.045 3.117s10.757-3.326 12.77-3.23m-13.83 4.642s11.596-3.934 14.23-4.702m-13.583 5.753s11.863-5.114 13.43-5.646M100.09 56.1s10.973-5.7 12.77-6.53m-7.74 10.995c.012-.163 4.512-5.485 5.464-6.89l2.752-4.08m-8.74 10.14s4.36-5.772 5.503-6.983c1.144-1.212 3.09-3.328 3.09-3.328m-9.528 7.97l9.042-7.444"/><path fill="#78B2CD" d="M120.07 79.9s-.02 2.943 1.376 3.577c1.4.63 1.47 1.616 2.307 2.57.834.958 3.344 1.42 1.163-1.722-2.183-3.14-3.743-3.095-3.743-3.095"/><path fill="none" stroke="#78B2CD" stroke-width=".311" stroke-miterlimit="10" d="M121.93 82.43L106.726 61.33 96.16 69.775M120.07 79.9s-.02 2.943 1.376 3.577c1.4.63 1.47 1.616 2.307 2.57.834.958 3.344 1.42 1.163-1.722-2.183-3.14-3.743-3.095-3.743-3.095l-1.103-1.33z"/><path fill="none" stroke="#78B2CD" stroke-width=".155" stroke-miterlimit="10" d="M113.726 59.685s-2.997 2.173-5.575 1.937c-1.014-.096-1.308-.152-1.308-.152m10.735-9.045s-4.26 5.207-6.513 6.568c-2.248 1.36-4.07 2.303-4.07 2.303s2.572-.84 4.87-2.187c2.297-1.35 5.072-3.477 5.072-3.477M115.454 50s-4.097 8.06-6.208 9.56c-2.334 1.66-1.9 1.78-1.9 1.78s4.098-3.165 5.553-4.63c2.677-2.692 3.853-5.97 3.853-5.97m-3.982-2.46s-2.316 7.152-2.865 8.56-3.022 4.478-3.022 4.478 2.75-2.403 4.233-6.024c1.482-3.62 2.63-6.795 2.63-6.795m-2.36.092s-1.548 6.973-2.746 9.615c-1.086 2.387-1.895 3.235-1.895 3.235m4.187-14.002s-1.948 8.98-2.58 10.685c-.636 1.707-1.522 3.02-1.522 3.02m2.178-11.66s-.1 4.062-.587 7.1c-.486 3.04-1.558 5-1.558 5m.936-10.556s.58 4.035.26 6.852c-.323 2.814-1.16 3.763-1.16 3.763m-1.116-8.975s1.757 3.72 1.516 5.7c-.242 1.975-.618 2.946-.618 2.946m-1.617-7.93s2.097 6.02 1.998 6.747c-.1.725-.312.932-.312.932m-5.546-9.463s3.035 3.432 4.13 5.623c1.102 2.19 1.577 3.83 1.577 3.83m-5.388-7.264s2.676 3.226 3.678 4.476c.997 1.248 1.753 2.806 1.753 2.806m-9.048-6.036s3.076 1.618 5.387 3.18c2.313 1.562 3.39 2.723 3.39 2.723m-7.57-3.36s3.98 1.17 5.09 1.643c1.113.476 2.587 2.07 2.587 2.07m-12.054-2.356s4.534.303 7.05.952c2.513.65 4.476 1.254 4.476 1.254m-15.83.194s6.908-.595 10.206-.316c3.294.277 5.694.412 5.694.412M90.26 62.69s6.12-.923 9.18-1.09c3.055-.164 7.13-.26 7.13-.26m-15.64 3.958s7.974-2.715 9.286-2.778c1.316-.06 6.116-1.085 6.116-1.085m-12.6 4.594s10.3-4.54 12.312-4.677m-13.204 6.2s11.067-5.24 13.6-6.305m-12.835 7.274s11.196-6.44 12.692-7.15m-12.034 8.142s10.24-6.925 11.933-7.958M99.77 73.37c-.007-.163 3.852-5.97 4.638-7.47l2.26-4.372m-7.514 11.077s3.667-6.236 4.666-7.57c.996-1.334 2.686-3.66 2.686-3.66m-8.547 9.012l8.123-8.433"/><path fill="#78B2CD" d="M119.5 68.185s.493 3.765 2.192 4.247c1.7.48 1.956 1.72 3.076 2.75 1.118 1.027 4.05 1.033 1.013-2.47-3.032-3.502-4.795-3.084-4.795-3.084"/><path fill="none" stroke="#78B2CD" stroke-width=".311" stroke-miterlimit="10" d="M122.057 70.984l-21-23.41-10.51 13.247m28.953 7.365s.493 3.765 2.192 4.247c1.7.48 1.956 1.72 3.076 2.75 1.118 1.027 4.05 1.033 1.013-2.47-3.032-3.502-4.795-3.084-4.795-3.084l-1.485-1.443z"/><path fill="none" stroke="#78B2CD" stroke-width=".155" stroke-miterlimit="10" d="M108.717 43.843s-3.02 3.475-5.988 3.77c-1.174.116-1.516.11-1.516.11m10.595-14.05s-3.922 7.645-6.237 9.906c-2.314 2.26-4.217 3.89-4.217 3.89s2.77-1.67 5.144-3.927c2.372-2.254 5.148-5.62 5.148-5.62m-2.678-6.853s-3.23 11.245-5.366 13.657c-2.354 2.664-1.84 2.716-1.84 2.716s4.094-4.995 5.487-7.21c2.566-4.062 3.323-8.52 3.323-8.52m-4.955-2.214s-1.367 9.674-1.742 11.597c-.376 1.925-2.64 6.425-2.64 6.425s2.7-3.71 3.74-8.68c1.045-4.967 1.79-9.293 1.79-9.293m-2.665.67s-.526 9.266-1.42 12.92c-.81 3.3-1.58 4.573-1.58 4.573m2.276-18.858s-.624 11.92-1.04 14.247c-.417 2.33-1.193 4.208-1.193 4.208m.414-15.397s.604 5.212.586 9.204c-.018 3.995-.886 6.747-.886 6.747m-.802-13.696s1.372 5.02 1.502 8.69c.132 3.673-.65 5.08-.65 5.08M98.454 36.73s2.655 4.345 2.73 6.927c.07 2.58-.184 3.905-.184 3.905m-3.238-9.753s3.448 7.203 3.465 8.153c.015.95-.193 1.265-.193 1.265m-7.97-10.795s4.05 3.678 5.686 6.222c1.633 2.542 2.464 4.527 2.464 4.527m-7.4-8.028s3.61 3.495 4.965 4.858c1.353 1.362 2.488 3.174 2.488 3.174M89.924 41.59s3.778 1.348 6.682 2.805c2.904 1.457 4.333 2.69 4.333 2.69m-9.196-2.527s4.73.567 6.075.912c1.347.345 3.3 2.04 3.3 2.04m-14.106-.2s5.2-.67 8.174-.425c2.973.25 5.305.562 5.305.562m-17.946 3.93s7.746-2.368 11.54-2.78c3.792-.41 6.544-.8 6.544-.8m-18.04 5.345s6.793-2.602 10.237-3.524c3.44-.922 8.052-1.997 8.052-1.997M83.813 56.32s8.577-5.324 10.06-5.71c1.48-.387 6.757-2.81 6.757-2.81M87.13 56.6s10.897-8.195 13.158-8.838M86.383 58.758s11.646-9.27 14.332-11.222m-13.292 12.28s11.58-10.833 13.157-12.09M88.346 60.928s10.41-11.23 12.146-12.94m-5.21 16.584c-.036-.208 3.325-8.52 3.948-10.622l1.8-6.11m-6.58 15.9s3.063-8.82 3.96-10.758c.896-1.937 2.402-5.3 2.402-5.3M92.7 61.18l7.738-12.658"/><path fill="#78B2CD" d="M139.588 92.308s.49-2.67-.85-3.63c-1.34-.962-1.255-1.875-1.966-2.975-.712-1.102-3.222-2.216-1.472 1.243 1.745 3.458 3.36 3.85 3.36 3.85"/><path fill="none" stroke="#78B2CD" stroke-width=".311" stroke-miterlimit="10" d="M138.075 89.496l12.3 23.385 12.235-4.75m-23.022-15.822s.49-2.67-.85-3.63c-1.34-.962-1.255-1.875-1.966-2.975-.712-1.102-3.222-2.216-1.472 1.243 1.745 3.458 3.36 3.85 3.36 3.85l.928 1.512z"/><path fill="none" stroke="#78B2CD" stroke-width=".155" stroke-miterlimit="10" d="M142.902 112.44s3.435-1.147 6.055-.218c1.03.368 1.32.5 1.32.5m-12.502 5.25s5.222-3.555 7.758-4.166c2.536-.616 4.563-.97 4.563-.97s-2.782.054-5.365.643c-2.582.586-5.785 1.753-5.785 1.753m.63 5.53s5.506-6.187 7.923-6.972c2.67-.862 2.242-1.093 2.242-1.093s-4.73 1.744-6.464 2.673c-3.185 1.71-4.92 4.36-4.92 4.36m3.707 3.34s3.526-5.86 4.318-6.986c.795-1.128 3.83-3.24 3.83-3.24s-3.22 1.425-5.323 4.307c-2.103 2.882-3.793 5.452-3.793 5.452m2.448.568s2.708-5.91 4.364-7.98c1.5-1.866 2.467-2.417 2.467-2.417m-6.545 11.57s3.438-7.624 4.362-9c.927-1.377 2.05-2.32 2.05-2.32m-4.106 9.992s.75-3.664 1.74-6.292c.987-2.625 2.402-4.11 2.402-4.11m-2.647 9.334s.043-3.83.825-6.3c.78-2.47 1.794-3.103 1.794-3.103m-.282 8.47s-1.218-3.87-.65-5.602c.563-1.73 1.106-2.507 1.106-2.507m.4 7.658s-1.202-6.053-.986-6.687c.22-.63.473-.762.473-.762m4.208 10.136s-2.58-3.96-3.362-6.252c-.78-2.295-1.008-3.918-1.008-3.918m4.388 8.095s-2.245-3.673-3.073-5.084c-.83-1.41-1.364-3.035-1.364-3.035m8.363 7.987s-2.914-2.32-5.045-4.38c-2.136-2.06-3.06-3.412-3.06-3.412m7.267 5.143s-3.915-2.164-4.985-2.9c-1.072-.74-2.333-2.597-2.333-2.597m12.044 5.477s-4.623-1.53-7.112-2.817c-2.487-1.288-4.41-2.375-4.41-2.375m16.34 4.204s-7.213-1.373-10.567-2.537c-3.348-1.166-5.803-1.952-5.803-1.952m16.764 3.308s-6.456-.856-9.63-1.55c-3.176-.695-7.392-1.733-7.392-1.733m16.75.724s-8.65.263-10.015-.044c-1.365-.308-6.478-.706-6.478-.706m13.717-.69s-11.338 1.277-13.432.845m14.6-1.985s-12.242 1.7-15.02 1.97m14.384-3.063s-12.566 2.754-14.222 2.988m13.702-4.07s-11.658 3.458-13.566 3.932m8.507-8.96c-.02.15-4.925 4.36-5.973 5.507l-3.027 3.345m9.512-7.99s-4.775 4.653-6.015 5.592c-1.238.938-3.352 2.583-3.352 2.583m10.243-5.827l-9.716 5.417"/><path fill="#78B2CD" d="M140.24 86.33s-3.094 1.774-4.658.896c-1.565-.878-2.65-.354-4.197-.535-1.546-.178-3.643-2.155 1.074-2.068 4.716.084 5.668 1.512 5.668 1.512"/><path fill="none" stroke="#78B2CD" stroke-width=".311" stroke-miterlimit="10" d="M136.377 86.17l32.037 1.064-2.145 14.528M140.24 86.33s-3.094 1.774-4.658.896c-1.565-.878-2.65-.354-4.197-.535-1.546-.178-3.643-2.155 1.074-2.068 4.716.084 5.668 1.512 5.668 1.512l2.11.196z"/><path fill="none" stroke="#78B2CD" stroke-width=".155" stroke-miterlimit="10" d="M165.663 79.965s-.375 3.988 1.53 6.163c.752.854 1 1.083 1 1.083m2.67-15.036s-2.768 6.936-2.762 9.77c.008 2.83.177 5.028.177 5.028s-.76-2.81-.813-5.676c-.05-2.868.415-6.63.415-6.63m6.905-2.034s-5.883 8.486-6.115 11.28c-.26 3.088-.662 2.77-.662 2.77s.715-5.566 1.33-7.75c1.133-4.01 3.834-7.022 3.834-7.022m5.15 2.106s-6.07 6.35-7.203 7.68c-1.13 1.334-2.794 5.387-2.794 5.387s.774-3.905 3.648-7.396c2.873-3.49 5.49-6.417 5.49-6.417m1.416 2.173s-6.373 5.554-8.393 8.206c-1.827 2.396-2.204 3.63-2.204 3.63m12.103-12.113s-8.232 7.106-9.63 8.693c-1.394 1.588-2.21 3.168-2.21 3.168m10.917-8.915s-4.228 2.513-7.125 4.766c-2.893 2.25-4.278 4.38-4.278 4.38m10.548-7.137s-4.636 1.888-7.403 3.857c-2.77 1.97-3.234 3.288-3.234 3.288m10.198-4.354s-5.058.64-6.99 2.038c-1.932 1.397-2.72 2.313-2.72 2.313m9.417-3.28s-7.707 1.707-8.41 2.23c-.705.522-.784.84-.784.84m13.552-.668s-5.57-.678-8.59-.354c-3.018.32-5.055.874-5.055.874m11.127.5s-5.12-.48-7.082-.635c-1.96-.15-4.09.1-4.09.1m12.176 4.526s-3.678-1.8-6.81-2.94c-3.135-1.145-5.053-1.417-5.053-1.417m8.402 4.794s-3.783-2.877-5-3.593c-1.213-.716-3.844-1.084-3.844-1.084m10.217 9.417s-3.227-3.894-5.525-5.765c-2.3-1.867-4.193-3.27-4.193-3.27m9.944 14.333s-3.806-6.56-6.208-9.353c-2.41-2.792-4.09-4.87-4.09-4.87m8.984 15.183s-2.956-6.048-4.737-8.893c-1.786-2.84-4.297-6.558-4.297-6.558m5.848 16.406s-2.246-8.784-3.023-10c-.775-1.216-2.776-6.14-2.776-6.14m3.227 14.06s-1.81-11.962-2.956-13.85m1.92 15.56s-1.564-13.064-2.062-15.975m.546 15.866s-.378-13.898-.59-15.668m-.876 15.67s.743-13.33.75-15.465m-8.36 12.82c.177-.09 3.836-7.02 4.92-8.622l3.166-4.642m-6.88 13.362s4.23-7.016 5.003-8.708c.772-1.69 2.146-4.597 2.146-4.597m-4.04 13.055l3.697-12.327"/><path fill="#78B2CD" d="M127.62 84.85s-2.354-2.68-4.12-2.354c-1.762.325-2.62-.52-4.144-.852-1.52-.333-4.146.863.345 2.305 4.49 1.445 5.855.403 5.855.403"/><path fill="none" stroke="#78B2CD" stroke-width=".311" stroke-miterlimit="10" d="M123.913 83.753l30.658 9.354 2.67-14.44m-29.62 6.183s-2.354-2.68-4.12-2.354c-1.762.325-2.62-.52-4.144-.852-1.52-.333-4.146.863.345 2.305 4.49 1.445 5.855.403 5.855.403l2.064.497z"/><path fill="none" stroke="#78B2CD" stroke-width=".155" stroke-miterlimit="10" d="M149.613 99.094s.938-3.894 3.444-5.335c.988-.567 1.295-.702 1.295-.702m-2.34 15.09s-.376-7.46.55-10.135c.916-2.68 1.79-4.702 1.79-4.702s-1.625 2.413-2.602 5.108c-.977 2.697-1.753 6.408-1.753 6.408m5.875 4.156s-2.82-9.934-2.134-12.65c.754-3.006.27-2.837.27-2.837s-1.127 5.5-1.252 7.764c-.227 4.16 1.356 7.88 1.356 7.88m5.557-.324s-3.692-7.97-4.332-9.598c-.64-1.627-.9-6.002-.9-6.002s-.528 3.946 1.062 8.182c1.59 4.23 3.118 7.847 3.118 7.847m2.04-1.6s-4.232-7.313-5.286-10.478c-.953-2.86-.91-4.15-.91-4.15m7.535 15.376s-5.494-9.387-6.3-11.34c-.808-1.95-1.068-3.71-1.068-3.71m7.442 11.964s-3.184-3.745-5.194-6.81c-2.01-3.068-2.632-5.532-2.632-5.532m7.67 10.165s-3.777-3.284-5.755-6.043c-1.98-2.758-1.996-4.155-1.996-4.155m8.238 7.414s-4.58-2.242-5.957-4.19c-1.375-1.944-1.82-3.067-1.82-3.067m7.845 6.15s-6.738-4.11-7.235-4.832c-.494-.72-.47-1.046-.47-1.046m12.606 5.012s-5.49-1.16-8.24-2.443c-2.756-1.28-4.5-2.457-4.5-2.457m10.69 3.123s-5-1.203-6.907-1.692c-1.903-.49-3.836-1.415-3.836-1.415m12.984-.345s-4.063.51-7.395.578c-3.336.072-5.235-.292-5.235-.292m9.496-1.817s-4.513 1.5-5.893 1.782c-1.38.287-3.988-.212-3.988-.212m12.715-5.61s-4.313 2.638-7.095 3.665c-2.78 1.024-5.027 1.737-5.027 1.737m14.05-10.342s-5.72 4.978-8.907 6.842c-3.18 1.865-5.44 3.286-5.44 3.286m13.413-11.46s-4.75 4.768-7.358 6.883c-2.61 2.11-6.188 4.815-6.188 4.815m10.842-13.634s-4.97 7.583-6.1 8.484c-1.13.9-4.614 4.912-4.614 4.912m7.605-12.258s-5.584 10.73-7.276 12.146m6.85-14.102s-5.708 11.86-7.12 14.45m5.652-14.835s-4.855 13.03-5.625 14.635m4.238-15.11s-3.61 12.853-4.295 14.874m-3.76-14.832c.138.144 1.355 7.887 1.864 9.75l1.493 5.415m-2.187-14.87s1.736 8.01 1.92 9.86c.18 1.85.54 5.04.54 5.04m.4-13.656l-.488 12.86"/><path fill="#78B2CD" d="M138.054 86.75s-.862-3.187-2.34-3.7c-1.475-.516-1.837-1.57-2.89-2.505-1.06-.936-3.508-1.134-.556 2 2.95 3.135 4.373 2.898 4.373 2.898"/><path fill="none" stroke="#78B2CD" stroke-width=".311" stroke-miterlimit="10" d="M135.584 84.238l20.324 20.993 7.195-10.406m-25.05-8.074s-.86-3.187-2.34-3.7c-1.474-.516-1.836-1.57-2.89-2.505-1.06-.936-3.507-1.134-.555 2 2.95 3.135 4.373 2.898 4.373 2.898l1.414 1.307z"/><path fill="none" stroke="#78B2CD" stroke-width=".155" stroke-miterlimit="10" d="M149.958 107.855s2.108-2.712 4.555-2.767c.963-.02 1.247.01 1.247.01m-7.17 11.075s2.36-6.148 4.027-7.89c1.662-1.743 3.055-2.982 3.055-2.982s-2.112 1.22-3.824 2.954c-1.716 1.734-3.633 4.37-3.633 4.37m3.054 5.915s1.354-9.21 2.85-11.088c1.65-2.078 1.215-2.156 1.215-2.156s-2.822 3.917-3.725 5.68c-1.654 3.237-1.756 6.92-1.756 6.92m4.402 2.182s-.013-8.018.074-9.604c.083-1.587 1.438-5.212 1.438-5.212s-1.813 2.934-2.093 7.027c-.277 4.092-.384 7.668-.384 7.668m2.145-.385s-.664-7.73-.352-10.732c.282-2.71.773-3.725.773-3.725m.346 15.646s-.9-9.945-.83-11.866c.074-1.92.496-3.447.496-3.447m1.49 12.874s-1.125-4.405-1.585-7.75c-.46-3.346-.065-5.596-.065-5.596m2.302 11.53s-1.743-4.297-2.29-7.38c-.548-3.085-.062-4.212-.062-4.212m3.717 9.573s-2.733-3.812-3.104-5.98c-.365-2.167-.312-3.263-.312-3.263m3.865 8.387s-3.737-6.264-3.863-7.062c-.125-.796.008-1.046.008-1.046m7.942 9.567s-3.82-3.347-5.49-5.586c-1.666-2.24-2.594-3.955-2.594-3.955m7.132 7.21s-3.43-3.164-4.725-4.396c-1.293-1.23-2.458-2.823-2.458-2.823m10.143 5.44s-3.315-1.38-5.915-2.793c-2.596-1.41-3.935-2.538-3.935-2.538m7.974 2.72s-4.012-.783-5.178-1.163c-1.167-.377-3.004-1.926-3.004-1.926m11.805 1.097s-4.263.22-6.773-.18c-2.51-.402-4.497-.82-4.497-.82m14.513-2.116s-6.184 1.478-9.3 1.572c-3.123.093-5.37.24-5.37.24m14.424-3.29s-5.36 1.732-8.125 2.28c-2.763.544-6.485 1.144-6.485 1.144m13.21-6.167s-6.524 3.896-7.717 4.124c-1.192.224-5.306 1.908-5.306 1.908m10.22-6.487s-8.12 6.154-9.932 6.54m10.3-8.297s-8.616 7-10.627 8.46m9.63-9.416s-8.375 8.315-9.542 9.265m8.642-10.258s-7.355 8.72-8.602 10.042m2.375-13.55c.055.175-1.758 6.92-2.03 8.638l-.77 5m3.596-12.887s-1.506 7.188-2.025 8.75c-.518 1.565-1.375 4.284-1.375 4.284m5.166-10.778l-4.952 10.098"/><path fill="#78B2CD" d="M130.767 85.605s-1.46 1.204-2.36.882c-.896-.32-1.42.05-2.245.093-.824.042-2.097-.808.38-1.182 2.476-.375 3.102.29 3.102.29"/><path fill="none" stroke="#78B2CD" stroke-width=".311" stroke-miterlimit="10" d="M130.767 85.605s-1.46 1.204-2.36.882c-.896-.32-1.42.05-2.245.093-.824.042-2.097-.808.38-1.182 2.476-.375 3.102.29 3.102.29l1.123-.083z"/><path fill="none" stroke="#78B2CD" stroke-width=".155" stroke-miterlimit="10" d="M143.512 80.02s.156 2.12 1.35 3.09c.468.382.616.48.616.48m.064-8.11s-.833 3.876-.576 5.357c.252 1.482.538 2.618.538 2.618s-.647-1.402-.93-2.9c-.28-1.497-.372-3.507-.372-3.507m3.434-1.676s-2.327 4.966-2.2 6.45c.14 1.637-.103 1.508-.103 1.508s-.12-2.98.007-4.176c.238-2.2 1.387-4.02 1.387-4.02m2.885.65s-2.615 3.86-3.09 4.66c-.474.797-.986 3.067-.986 3.067s.06-2.112 1.255-4.195c1.195-2.082 2.31-3.845 2.31-3.845m.93 1.01s-2.84 3.473-3.666 5.04c-.743 1.418-.83 2.1-.83 2.1m5.26-7.417s-3.68 4.45-4.27 5.403c-.59.955-.877 1.854-.877 1.854m4.926-5.632s-1.99 1.69-3.308 3.125c-1.315 1.436-1.854 2.674-1.854 2.674m4.893-4.67s-2.262 1.396-3.533 2.672c-1.277 1.277-1.4 2.006-1.4 2.006m4.95-3.18s-2.59.783-3.478 1.686c-.887.903-1.217 1.454-1.217 1.454m4.636-2.554s-3.883 1.578-4.204 1.916c-.32.335-.338.51-.338.51m7.037-1.553s-2.976.14-4.528.577c-1.55.437-2.57.903-2.57.903m5.873-.725s-2.726.204-3.764.296c-1.042.094-2.135.415-2.135.415m6.78 1.292s-2.087-.615-3.828-.938c-1.742-.32-2.77-.292-2.77-.292m4.824 1.765s-2.236-1.17-2.938-1.438c-.697-.27-2.11-.23-2.11-.23m6.187 4.025s-2.033-1.75-3.404-2.526c-1.372-.78-2.486-1.342-2.486-1.342m6.478 6.62s-2.57-3.097-4.08-4.346c-1.507-1.248-2.572-2.186-2.572-2.186m6.05 7.152s-2.08-2.904-3.27-4.235c-1.185-1.33-2.832-3.054-2.832-3.054m4.517 8.07s-1.953-4.397-2.47-4.967c-.513-.567-1.998-2.967-1.998-2.967m2.938 7.073s-2.008-6.102-2.777-6.987m2.386 7.974s-1.98-6.703-2.496-8.18m1.692 8.258s-1.43-7.243-1.695-8.15m.928 8.28s-.794-7.044-.98-8.162m-3.237 7.45c.083-.06 1.383-4.015 1.81-4.948l1.247-2.71m-2.42 7.605s1.595-4.047 1.85-5.004c.253-.95.713-2.596.713-2.596m-.957 7.19l.842-6.78m-16.823 1.766l16.87-2.285.164 7.797"/><path fill="#78B2CD" d="M133.6 76.55s-2.794-.925-3.825.21c-1.033 1.134-1.99.9-3.16 1.403-1.164.5-2.378 2.745 1.284 1.633 3.658-1.11 4.093-2.608 4.093-2.608"/><path fill="none" stroke="#78B2CD" stroke-width=".311" stroke-miterlimit="10" d="M133.6 76.55s-2.794-.925-3.825.21c-1.033 1.134-1.99.9-3.16 1.403-1.164.5-2.378 2.745 1.284 1.633 3.658-1.11 4.093-2.608 4.093-2.608l1.606-.64z"/><path fill="none" stroke="#78B2CD" stroke-width=".155" stroke-miterlimit="10" d="M154.794 76.72s-1.148-3.518-.13-5.902c.4-.937.543-1.196.543-1.196m5.317 12.992s-3.65-5.655-4.254-8.215c-.604-2.558-.946-4.582-.946-4.582s.013 2.705.59 5.305c.577 2.6 1.75 5.893 1.75 5.893m5.82.323s-6.413-6.37-7.196-8.842c-.862-2.73-1.11-2.354-1.11-2.354s1.75 4.87 2.702 6.707c1.743 3.373 4.5 5.5 4.5 5.5m3.564-3.038s-6.098-4.397-7.266-5.353c-1.17-.957-3.34-4.252-3.34-4.252s1.444 3.356 4.437 5.877c2.99 2.52 5.66 4.59 5.66 4.59m.637-2.272s-6.16-3.615-8.307-5.57c-1.94-1.763-2.5-2.79-2.5-2.79m12.043 8.277s-7.95-4.607-9.38-5.736c-1.43-1.127-2.404-2.372-2.404-2.372m10.428 5.653s-3.834-1.343-6.578-2.74c-2.74-1.398-4.278-3.017-4.278-3.017m9.758 4.13s-4.02-.687-6.604-1.857c-2.582-1.17-3.226-2.26-3.226-2.26m8.888 1.695s-4.084.53-5.893-.31c-1.808-.837-2.613-1.492-2.613-1.492m8.046.9s-6.376.146-7.04-.17c-.66-.316-.793-.584-.793-.584m10.714-2.373s-4.2 1.832-6.623 2.202c-2.42.373-4.128.32-4.128.32m8.572-2.89s-3.896 1.557-5.39 2.124c-1.496.568-3.21.81-3.21.81m8.524-6.76s-2.485 2.43-4.68 4.15c-2.2 1.718-3.633 2.386-3.633 2.386m5.52-6.167s-2.336 3.425-3.125 4.34c-.794.913-2.766 1.824-2.766 1.824m5.942-10.745s-1.678 4.22-3.07 6.416c-1.394 2.193-2.567 3.87-2.567 3.87m4.674-15.118s-1.557 6.758-2.833 9.807c-1.276 3.05-2.14 5.292-2.14 5.292m3.74-15.68s-1.002 6.11-1.782 9.07c-.78 2.956-1.94 6.862-1.94 6.862m1.034-16.096s.136 8.422-.21 9.69c-.342 1.272-.843 6.153-.843 6.153m-.507-13.4s1.157 11.197.67 13.15m-1.847-14.47s1.59 12.14 1.827 14.878m-2.984-14.444s2.693 12.63 2.91 14.272m-4.055-13.953s3.442 11.87 3.91 13.797m-9.273-9.74c.155.043 4.497 5.5 5.687 6.708l3.464 3.493m-8.235-10.553s4.81 5.407 5.772 6.764c.965 1.36 2.662 3.682 2.662 3.682m-5.957-10.898l5.535 10.317m-24.36 8.79l24.757-7.985-4.8-12.646"/><path fill="#78B2CD" d="M131.67 75.302s-1.79-.243-2.295.57c-.5.813-1.105.78-1.76 1.225-.654.44-1.148 1.953.952.85 2.098-1.103 2.202-2.07 2.202-2.07"/><path fill="none" stroke="#78B2CD" stroke-width=".311" stroke-miterlimit="10" d="M131.67 75.302s-1.79-.243-2.295.57c-.5.813-1.105.78-1.76 1.225-.654.44-1.148 1.953.952.85 2.098-1.103 2.202-2.07 2.202-2.07l.9-.575z"/><path fill="none" stroke="#78B2CD" stroke-width=".155" stroke-miterlimit="10" d="M144.533 72.953s-1.074-2.02-.712-3.593c.145-.62.207-.795.207-.795m4.61 7.33s-2.818-3.034-3.457-4.528c-.642-1.496-1.064-2.692-1.064-2.692s.297 1.65.926 3.174c.628 1.52 1.692 3.4 1.692 3.4m3.56-.477s-4.57-3.153-5.31-4.575c-.816-1.57-.926-1.31-.926-1.31s1.584 2.772 2.355 3.786c1.418 1.86 3.316 2.84 3.316 2.84m1.84-2.262s-4.168-1.985-4.98-2.435c-.812-.45-2.48-2.214-2.48-2.214s1.237 1.884 3.32 3.08c2.084 1.195 3.925 2.153 3.925 2.153m.14-1.462s-4.122-1.5-5.634-2.443c-1.364-.853-1.813-1.42-1.813-1.42m8.186 3.67s-5.312-1.9-6.297-2.424c-.988-.524-1.714-1.172-1.714-1.172m6.928 2.25s-2.468-.377-4.28-.914c-1.81-.538-2.916-1.35-2.916-1.35m6.354 1.397s-2.51.043-4.197-.374c-1.69-.417-2.2-1.007-2.2-1.007m5.567.008s-2.416.796-3.602.494c-1.183-.305-1.744-.612-1.744-.612m4.974-.382s-3.852.83-4.284.712c-.434-.118-.542-.266-.542-.266m6.238-2.69s-2.352 1.606-3.777 2.113c-1.43.51-2.47.676-2.47.676m4.882-2.76s-2.19 1.402-3.035 1.922c-.846.52-1.858.864-1.858.864m4.436-5.117s-1.244 1.772-2.39 3.08c-1.147 1.305-1.948 1.88-1.948 1.88m2.685-4.416s-1.047 2.37-1.43 3.02c-.38.648-1.478 1.433-1.478 1.433m2.45-7.258s-.566 2.773-1.177 4.277c-.608 1.503-1.14 2.665-1.14 2.665m1.213-9.786s-.216 4.313-.663 6.323c-.446 2.013-.73 3.484-.73 3.484m.587-10.02s.045 3.854-.108 5.75c-.155 1.9-.438 4.423-.438 4.423m-1.1-9.96s.985 5.132.912 5.947c-.074.818.146 3.86.146 3.86m-1.742-8.134s1.903 6.712 1.817 7.963m-2.672-8.634s2.265 7.238 2.705 8.883m-3.358-8.486s2.988 7.41 3.296 8.392m-3.955-8.065s3.362 6.86 3.852 7.985m-6.667-4.882c.1.008 3.316 2.84 4.165 3.44L144 68.457m-6.12-5.5s3.49 2.748 4.224 3.467c.73.72 2.006 1.943 2.006 1.943m-4.78-5.976l4.462 5.67m-13.82 8.192l14.145-7.746-4.262-7.18"/><path fill="none" d="M68.036 0h114.21v175.164H68.036z"/><path fill="#78B2CD" d="M112.007 95.462s-.418 3.773-.168 7.465c.25 3.69 2.266 5.45 2.266 5.45s-.083-6.625-.083-8.47c0-1.846 2.18-1.345 2.18-1.345v2.52c0 2.516 1.344 5.283 1.344 5.283l.502-4.026s0 1.426.674 4.025c.67 2.602 2.63 2.98 2.63 2.98s-.952-1.72-1.466-5.56c-.45-3.394.585-6.728.585-6.728l2.926 1.755s-.294 4.096-.294 7.898-1.17 14.92.293 22.23c1.38 6.893 2.756 14.303 2.91 23.696h4.695c.018-1.664.05-3.14.05-4.25 0-4.697-1.345-15.264-3.19-22.06-1.846-6.79-1.004-21.137-.67-24.073.335-2.935.84-2.096 1.092.336.25 2.433 3.606 4.446 3.606 4.446s-.334-.587-.755-1.847c-.42-1.26-1.006-2.603-1.006-4.95 0-2.35 1.594-.838 2.184 1.932.584 2.767 3.607 5.535 3.607 5.535s-.168-.838-.84-2.854c-.67-2.012-2.768-10.65-2.602-13.755.17-3.104 1.01-.335 1.43 3.104.42 3.438 2.77 5.62 3.104 6.71.34 1.09-.166-4.11-.166-5.2 0-1.092.585-.925.838.334.252 1.26 2.182 4.363 2.182 4.363s-.42-3.19-.59-5.285c-.164-2.098.674-7.717 1.094-10.484.42-2.77-2.938-5.702-3.86-7.55-.922-1.844 0-4.864.083-5.786.086-.922-7.217-3.774-9.65-3.86-2.43-.082-7.886 1.178-8.64 2.018-.756.837-2.77 3.773-4.028 5.283-1.26 1.51-5.706 8.807-5.958 13.338-.256 4.526 3.687 7.38 3.687 7.38z"/><g fill="#7CAEC6"><path d="M77.582 132.75h-4.174c-.436 0-.71.058-.824.176-.113.12-.17.412-.17.88v14.578l.015.58c.05 1.162.696 1.85 1.944 2.07.348.058.52.168.52.333 0 .213-.14.318-.416.318-.12 0-.36-.028-.73-.09-.187-.03-.634-.043-1.34-.043l-1.085-.015-1.16.015c-.418 0-.77.014-1.058.044-.565.06-.898.09-.997.09-.298 0-.447-.106-.447-.318 0-.155.165-.25.49-.29.763-.1 1.278-.312 1.546-.633.267-.322.4-.9.4-1.733v-14.744l-.015-.387c0-.356-.05-.584-.155-.685-.104-.098-.344-.146-.72-.146H65.27c-.803 0-1.384.16-1.746.48-.36.322-.642.93-.84 1.82-.09.385-.223.573-.4.563s-.267-.144-.267-.4c0-.207.06-.586.178-1.14.147-.71.223-1.298.223-1.76 0-.456.053-.753.156-.897.104-.143.325-.214.662-.214h15.996c.544 0 .874.06.988.177.113.118.17.468.17 1.05s.024 1.005.074 1.27c.05.337.08.58.09.727.01.296-.095.454-.312.475-.178.01-.297-.144-.355-.46-.13-.704-.338-1.162-.624-1.375-.29-.213-.85-.318-1.68-.318zM85.395 141.378c1.274-1.574 2.664-2.36 4.166-2.36 1.396 0 2.524.48 3.39 1.44s1.298 2.218 1.298 3.772v4.708c0 .753.124 1.27.37 1.545.248.277.773.48 1.576.61.266.04.398.15.398.327 0 .18-.133.268-.398.268-.12 0-.362-.015-.73-.043-.73-.05-1.36-.076-1.886-.076-.87 0-1.515.026-1.93.078-.238.025-.393.04-.46.04-.27 0-.406-.09-.417-.273-.008-.124.09-.227.298-.306.505-.19.817-.36.937-.512s.18-.45.18-.895l.014-.46v-4.928c0-1.25-.322-2.246-.964-2.98-.644-.733-1.5-1.102-2.58-1.102-.83 0-1.58.26-2.25.78-.673.52-1.01 1.1-1.01 1.746v5.757c0 1.013.113 1.667.342 1.964.228.3.782.508 1.664.627.336.048.505.17.505.36 0 .166-.11.248-.327.248-.108 0-.382-.022-.82-.066-.355-.035-1.11-.054-2.262-.054-.396 0-.967.025-1.71.08-.33.025-.557.04-.686.04-.24 0-.363-.078-.372-.233-.01-.174.104-.293.342-.36.583-.177.942-.38 1.077-.61.132-.225.2-.766.2-1.615V133.43c0-1.215-.333-1.804-.997-1.766l-.757.044c-.08 0-.15-.016-.208-.045-.07-.042-.104-.108-.104-.2 0-.14.114-.243.343-.305.626-.148 1.32-.406 2.087-.772l1.163-.55c.12-.058.224-.088.313-.088.17 0 .253.107.253.327 0 .06-.01.178-.03.355-.01.17-.014.42-.014.76l-.005 10.188zM100.127 144.095l-.015.327c0 1.693.47 3.118 1.407 4.27.936 1.153 2.088 1.73 3.457 1.73 1.08 0 2.255-.484 3.525-1.455.08-.06.155-.094.225-.104.14-.01.208.068.208.235 0 .294-.347.713-1.04 1.257-1.287 1.004-2.647 1.508-4.084 1.508-1.612 0-2.967-.613-4.062-1.84-1.095-1.227-1.64-2.744-1.64-4.555 0-1.72.563-3.226 1.692-4.516 1.13-1.292 2.45-1.937 3.967-1.937 1.652 0 2.974.688 3.966 2.064.237.336.48.793.728 1.365.248.574.372.976.372 1.202 0 .327-.32.49-.966.49l-1.1-.014-1.014-.03-5.625.002zm.09-.816h5.035c.782 0 1.173-.16 1.173-.478 0-.77-.335-1.49-1.003-2.154-.667-.66-1.393-.994-2.175-.994-.813 0-1.488.324-2.028.973-.54.648-.875 1.533-1.003 2.652z"/></g><g fill="#7CAEC6"><path d="M25.24 153.746l.648 4.874.06.507-.06.205c-.068.122-.17.188-.306.203-.163.014-.406-.27-.73-.852-2.533-4.427-5.97-6.642-10.305-6.642-3.456 0-6.18 1.064-8.17 3.184-1.99 2.122-2.987 5.02-2.987 8.7 0 4.228 1.107 7.687 3.322 10.37 2.216 2.682 5.064 4.022 8.547 4.022 2.03 0 4.03-.542 5.994-1.63 1.966-1.086 3.326-2.4 4.085-3.95.352-.72.622-1.087.812-1.1.216-.013.325.115.325.39l-.02.224-.082.45-.467 2.487-.082.367c-.054.354-.373.717-.954 1.098-3.126 1.99-6.573 2.984-10.335 2.984-4.358 0-7.872-1.292-10.538-3.875-2.668-2.587-4-5.99-4-10.21s1.38-7.727 4.142-10.52c2.76-2.793 6.226-4.19 10.395-4.19 2.856 0 5.482.643 7.878 1.93l.813.426.325.143.345.12c.066 0 .17-.053.305-.16.298-.216.5-.326.61-.326.216 0 .358.256.426.772zM37.148 162.07c2.437 0 4.527.855 6.273 2.566 1.747 1.712 2.62 3.75 2.62 6.116 0 2.57-.858 4.692-2.578 6.368-1.72 1.677-3.893 2.515-6.518 2.515-2.572 0-4.688-.813-6.345-2.443-1.66-1.63-2.488-3.715-2.488-6.257 0-2.46.88-4.55 2.64-6.274 1.76-1.728 3.892-2.59 6.396-2.59zm-.516.814c-1.688 0-3.052.626-4.085 1.878-1.033 1.25-1.55 2.894-1.55 4.924 0 2.585.645 4.748 1.936 6.487s2.895 2.61 4.813 2.61c1.676 0 2.997-.617 3.963-1.85.964-1.23 1.448-2.904 1.448-5.016 0-2.667-.61-4.84-1.825-6.52-1.215-1.675-2.783-2.513-4.7-2.513zM53.403 164.812c1.516-1.828 3.302-2.74 5.36-2.74 1.19 0 2.163.228 2.92.688.76.46 1.47 1.247 2.133 2.355 1.55-2.03 3.407-3.046 5.564-3.046 1.835 0 3.267.585 4.29 1.756 1.026 1.17 1.54 2.806 1.54 4.902v6.538c0 1.042.202 1.815.608 2.315.406.502 1.076.8 2.01.896.325.028.487.173.487.438 0 .234-.162.354-.486.354-.148 0-.358-.02-.628-.06-.433-.068-1.106-.103-2.025-.103-1.796 0-2.916.03-3.36.094-.298.045-.5.067-.61.067-.35 0-.532-.132-.546-.395-.012-.154.104-.277.347-.376.596-.23.984-.453 1.167-.67.185-.216.275-.57.275-1.057l.02-.69v-6.642c0-1.827-.39-3.25-1.165-4.263-.777-1.015-1.86-1.522-3.25-1.522-.92 0-1.798.285-2.635.855-.838.57-1.256 1.172-1.256 1.804 0 .137.02.306.063.51.08.486.123.955.123 1.4v7.345c0 1.03.173 1.75.518 2.155.346.406.998.65 1.96.732.446.04.67.188.67.445 0 .242-.197.363-.59.363-.137 0-.354-.014-.652-.04-.746-.082-1.384-.125-1.914-.125-1.86 0-3.033.034-3.52.103-.26.043-.47.062-.632.062-.326 0-.488-.12-.488-.354 0-.153.122-.27.365-.355.717-.258 1.144-.51 1.28-.762.135-.25.202-.908.202-1.978v-7.52c0-1.42-.368-2.54-1.105-3.357-.736-.816-1.752-1.228-3.048-1.228-1.188 0-2.15.307-2.888.918-.736.612-1.105 1.416-1.105 2.412v8.716c0 .88.193 1.52.578 1.925.387.406 1.04.662 1.96.77.42.043.63.194.63.46 0 .25-.165.368-.49.354-.188-.014-.515-.047-.977-.1-.285-.043-.85-.063-1.69-.063h-1.363l-1.385.023c-.19 0-.428.016-.713.045-.353.046-.604.077-.753.092-.34.015-.51-.104-.51-.354 0-.21.148-.36.448-.46.623-.188 1.02-.43 1.197-.728.177-.297.265-.88.265-1.744v-9.084c0-.973-.105-1.642-.315-2.005-.21-.364-.6-.547-1.167-.547h-.894c-.137 0-.25-.035-.346-.104-.08-.042-.122-.11-.122-.21 0-.18.163-.32.49-.417 1.398-.366 2.696-.888 3.893-1.563.53-.298.85-.447.96-.447.203 0 .305.25.305.75v2.463h-.002zM83.67 165.077c2-2.003 3.992-3.006 5.97-3.006 2.03 0 3.726.765 5.085 2.293 1.36 1.527 2.04 3.435 2.04 5.72 0 2.636-.826 4.886-2.477 6.753-1.65 1.866-3.647 2.8-5.99 2.8-1.313 0-2.855-.4-4.63-1.2v4.083c0 1.488.21 2.48.63 2.974.42.494 1.252.74 2.498.74.42 0 .63.147.63.44 0 .235-.19.353-.568.353l-1.035-.02-1.93-.04h-2.13l-.855.015-.792.048-.955.017-.262-.042c-.123-.056-.184-.167-.184-.333 0-.223.177-.37.528-.438.623-.123 1.052-.41 1.29-.862.236-.453.355-1.197.355-2.238l-.02-.77v-15.16l-.042-.85c0-.772-.152-1.305-.457-1.602-.305-.298-.863-.444-1.675-.444h-.345c-.122 0-.218-.014-.284-.042-.095-.056-.144-.146-.144-.27 0-.225.17-.377.51-.46 2.26-.596 3.81-1.247 4.648-1.95.162-.136.284-.204.365-.204.216 0 .325.19.325.568l-.02.386-.08 2.74zm0 2.15v6.926c0 1.318.472 2.378 1.417 3.173.946.796 2.203 1.19 3.77 1.19 1.73 0 3.092-.58 4.085-1.743.993-1.16 1.49-2.75 1.49-4.765 0-2.392-.582-4.344-1.743-5.85-1.163-1.51-2.663-2.263-4.5-2.263-1.23 0-2.29.328-3.183.985s-1.338 1.44-1.338 2.347zM108.066 170.173v-2.503c0-1.55-.292-2.62-.873-3.21-.786-.806-1.842-1.21-3.167-1.21-1.787 0-2.68.75-2.68 2.253 0 .444.087.953.263 1.532.08.24.127.457.14.644.015.24-.12.362-.4.362-.634 0-1.208-.136-1.727-.408-.517-.27-.775-.568-.775-.893 0-.835.453-1.738 1.36-2.708 1.218-1.31 2.835-1.96 4.853-1.96 1.842 0 3.27.41 4.284 1.227 1.017.816 1.523 1.97 1.523 3.457v7.95c0 1.256.152 2.15.457 2.686s.815.8 1.533.8c.203 0 .366-.01.486-.034.244-.06.406-.087.487-.087.23-.015.338.08.325.283-.014.242-.333.49-.958.74s-1.235.376-1.833.376c-1.114 0-2.12-.69-3.015-2.07-1.96 1.49-3.778 2.234-5.453 2.234-1.27 0-2.28-.342-3.03-1.025s-1.125-1.6-1.125-2.75c0-1.557.71-2.766 2.127-3.626 1.42-.86 3.82-1.547 7.196-2.06zm0 .81c-2.1.19-3.72.664-4.864 1.425-1.144.762-1.715 1.733-1.715 2.92 0 .928.27 1.665.817 2.21.544.544 1.28.816 2.21.816 1.13 0 2.076-.37 2.844-1.11.47-.472.707-1.216.707-2.24v-4.02zM120.94 162.07c1.068 0 1.99.143 2.76.42l.896.3c.364.134.548.343.548.62v.327c0 .188.014.377.042.568l.08.792c.04.284.06.542.06.77 0 .528-.152.8-.457.814-.168.013-.32-.16-.46-.526-.744-2.058-2.138-3.087-4.18-3.087-.814 0-1.48.23-2 .693-.522.462-.782 1.047-.782 1.752 0 .746.28 1.35.843 1.814.563.46 1.696 1.024 3.402 1.69 1.69.662 2.865 1.36 3.52 2.098.66.736.986 1.726.986 2.97 0 1.528-.563 2.834-1.695 3.923-1.13 1.087-2.48 1.63-4.05 1.63-1.125 0-2.343-.316-3.656-.953-.312-.148-.508-.224-.59-.224l-.525-.062c-.313-.024-.48-.193-.51-.506l-.02-.87-.062-2.587.042-.606c.056-.364.207-.555.455-.567.25-.013.414.19.498.61.284 1.49.835 2.652 1.654 3.492s1.803 1.26 2.956 1.26c.987 0 1.797-.292 2.426-.876.628-.584.944-1.332.944-2.24 0-1.384-.765-2.417-2.294-3.094l-1.787-.796c-1.624-.703-2.775-1.43-3.452-2.18-.677-.747-1.014-1.663-1.014-2.743 0-1.298.52-2.39 1.562-3.283 1.042-.898 2.328-1.343 3.858-1.343zM134.16 162.07c1.067 0 1.988.143 2.76.42l.895.3c.366.134.55.343.55.62v.327c0 .188.01.377.04.568l.08.792c.042.284.06.542.06.77 0 .528-.15.8-.457.814-.167.013-.318-.16-.457-.526-.744-2.058-2.138-3.087-4.182-3.087-.813 0-1.48.23-2 .693-.52.462-.782 1.047-.782 1.752 0 .746.28 1.35.843 1.814.562.46 1.695 1.024 3.4 1.69 1.69.662 2.866 1.36 3.524 2.098.655.736.984 1.726.984 2.97 0 1.528-.565 2.834-1.696 3.923-1.13 1.087-2.48 1.63-4.052 1.63-1.124 0-2.34-.316-3.654-.953-.31-.148-.51-.224-.59-.224l-.527-.062c-.312-.024-.48-.193-.51-.506l-.02-.87-.06-2.587.04-.606c.056-.364.208-.555.457-.567s.415.19.497.61c.284 1.49.836 2.652 1.654 3.492.817.84 1.802 1.26 2.955 1.26.988 0 1.797-.292 2.426-.876.627-.584.943-1.332.943-2.24 0-1.384-.764-2.417-2.295-3.094l-1.785-.796c-1.625-.703-2.774-1.43-3.452-2.18-.677-.747-1.014-1.663-1.014-2.743 0-1.298.52-2.39 1.563-3.283 1.043-.898 2.33-1.343 3.86-1.343zM147.337 175.813c0 .962.106 1.606.314 1.932.21.327.654.536 1.333.63l.933.102c.49.066.727.238.712.517-.014.224-.195.337-.55.337-.228 0-.67-.03-1.322-.093-.366-.03-.842-.047-1.425-.047l-1.302-.022-1.485.082c-.27.013-.48.034-.63.06-.352.04-.597.06-.732.06-.366 0-.55-.124-.55-.374 0-.21.124-.354.366-.438l.386-.124c.434-.147.734-.404.904-.77.17-.365.253-.954.253-1.766v-8.84c0-1.12-.108-1.85-.326-2.187-.216-.338-.683-.506-1.4-.506-.515 0-.764-.106-.75-.318.013-.187.36-.384 1.04-.595.762-.258 1.726-.69 2.895-1.298l1.08-.51c.175.016.263.178.263.49v13.68h-.006zm-1.268-22.128c.325 0 .66.272.998.814l.492.775c.136.19.204.36.204.512.014.313-.22.748-.695 1.306s-.858.836-1.146.836c-.27 0-.633-.272-1.08-.816-.45-.544-.676-.974-.676-1.285 0-.314.248-.748.745-1.307.5-.56.884-.838 1.156-.838zM160.922 162.07c2.438 0 4.527.855 6.272 2.566 1.746 1.712 2.62 3.75 2.62 6.116 0 2.57-.86 4.692-2.578 6.368-1.72 1.677-3.894 2.515-6.52 2.515-2.57 0-4.687-.813-6.345-2.443-1.657-1.63-2.486-3.715-2.486-6.257 0-2.46.88-4.55 2.64-6.274 1.762-1.728 3.894-2.59 6.398-2.59zm-.517.814c-1.69 0-3.052.626-4.085 1.878-1.034 1.25-1.55 2.894-1.55 4.924 0 2.585.645 4.748 1.935 6.487 1.29 1.74 2.896 2.61 4.814 2.61 1.675 0 2.996-.617 3.963-1.85.965-1.23 1.448-2.904 1.448-5.016 0-2.667-.607-4.84-1.822-6.52-1.217-1.675-2.784-2.513-4.703-2.513zM177.573 165.3c1.813-2.153 3.694-3.23 5.645-3.23 2.166 0 3.878.888 5.138 2.663.865 1.22 1.298 3.077 1.298 5.57v4.86l-.02.608.06.98c.147.894.717 1.414 1.705 1.564l.85.122c.367.056.557.187.57.396.013.292-.21.436-.668.436-.148 0-.41-.022-.79-.068-.445-.063-1.27-.094-2.472-.094l-2.006.062h-.77l-.587.042-.283-.063c-.095-.055-.143-.16-.143-.313 0-.208.125-.34.366-.396l.61-.162c.542-.135.813-.62.813-1.46v-7c0-1.88-.436-3.328-1.304-4.35-.866-1.02-2.102-1.53-3.704-1.53-1.126 0-2.126.332-3 .995s-1.314 1.422-1.314 2.275v7.75l.02.61.022 1.017c.068 1.14 1.01 1.763 2.823 1.872.443.042.67.188.67.437 0 .25-.158.376-.47.376-.228 0-.574-.04-1.033-.116-.26-.03-.895-.046-1.908-.046-2.153 0-3.44.03-3.858.094-.42.046-.69.068-.813.068-.256 0-.377-.108-.364-.333.014-.167.143-.3.386-.396.69-.243 1.153-.542 1.392-.895.235-.352.355-.92.355-1.702v-9.166c0-.96-.116-1.61-.346-1.954-.23-.345-.663-.518-1.3-.518l-.873.02c-.12 0-.228-.026-.324-.082-.12-.057-.182-.153-.182-.293 0-.193.176-.326.526-.396.908-.162 1.78-.438 2.62-.832l1.077-.528c.42-.204.684-.332.792-.386.19-.108.35-.163.487-.163.243 0 .35.198.324.59-.013.218-.02.475-.02.77v2.299h.003zM203.604 170.173v-2.503c0-1.55-.29-2.62-.873-3.21-.785-.806-1.84-1.21-3.166-1.21-1.787 0-2.68.75-2.68 2.253 0 .444.087.953.264 1.532.08.24.127.457.142.644.014.24-.12.362-.403.362-.633 0-1.206-.136-1.726-.408-.516-.27-.773-.568-.773-.893 0-.835.453-1.738 1.36-2.708 1.218-1.31 2.834-1.96 4.853-1.96 1.84 0 3.27.41 4.28 1.227 1.018.816 1.524 1.97 1.524 3.457v7.95c0 1.256.153 2.15.458 2.686.305.534.813.8 1.532.8.203 0 .364-.01.486-.034.244-.06.408-.087.487-.087.23-.015.34.08.327.283-.014.242-.333.49-.958.74-.626.25-1.236.376-1.834.376-1.114 0-2.12-.69-3.014-2.07-1.96 1.49-3.777 2.234-5.452 2.234-1.27 0-2.28-.342-3.03-1.025-.75-.683-1.125-1.6-1.125-2.75 0-1.557.71-2.766 2.127-3.626 1.42-.86 3.82-1.547 7.197-2.06zm0 .81c-2.1.19-3.72.664-4.864 1.425-1.145.762-1.716 1.733-1.716 2.92 0 .928.272 1.665.816 2.21.544.544 1.28.816 2.21.816 1.13 0 2.078-.37 2.846-1.11.47-.472.707-1.216.707-2.24v-4.02zM216.644 164.53v10.212c0 1.326.19 2.186.568 2.58.556.582 1.348.87 2.374.87.828 0 1.523-.146 2.093-.444l1.055-.508.123-.042c.16 0 .243.075.243.223 0 .444-.534.924-1.603 1.44-1.067.517-2.063.775-2.984.775-3.114 0-4.67-1.622-4.67-4.866v-10.24h-1.81c-.35 0-.526-.104-.526-.31 0-.19.176-.434.527-.73 1.584-1.346 2.795-2.69 3.636-4.034.365-.598.623-.896.772-.896.188 0 .284.176.284.527l-.08 3.513h4.324c.594 0 1.056-.108 1.38-.326.206-.147.354-.23.447-.242.15-.026.217.048.202.226 0 .068-.06.24-.183.51l-.467 1.168c-.15.396-.444.595-.895.595h-4.81zM227.228 169.015l-.022.446c0 2.315.644 4.262 1.922 5.838 1.282 1.577 2.858 2.366 4.73 2.366 1.478 0 3.084-.662 4.817-1.99.11-.08.21-.127.308-.142.19-.015.285.094.285.322 0 .404-.477.98-1.422 1.718-1.76 1.375-3.62 2.062-5.586 2.062-2.204 0-4.058-.838-5.552-2.515-1.498-1.678-2.244-3.753-2.244-6.228 0-2.353.77-4.41 2.315-6.176 1.542-1.764 3.35-2.646 5.42-2.646 2.26 0 4.067.94 5.42 2.822.326.46.657 1.082.996 1.867.338.784.507 1.332.507 1.645 0 .445-.44.67-1.322.67l-1.504-.02-1.382-.042h-7.688v.002h.002zm.122-1.118h6.884c1.07 0 1.604-.216 1.604-.648 0-1.058-.458-2.037-1.37-2.943-.913-.91-1.905-1.36-2.975-1.36-1.11 0-2.034.442-2.77 1.33-.74.884-1.198 2.092-1.373 3.62z"/></g><g fill="#7CAEC6"><path d="M105.346 191.306v6.79l.017.328v.446c.046.31.37.46.976.46l1.47.035.564-.02 2.02-.033c1.05 0 1.813-.156 2.293-.473.478-.316.78-.855.905-1.624.048-.276.165-.413.354-.413.223 0 .323.178.3.53l-.103 1.698c-.013.218-.018.566-.018 1.048 0 1.337.022 2.187.068 2.553.022.22.034.378.034.48 0 .275-.106.41-.318.41-.225 0-.397-.277-.523-.842-.138-.606-.285-1.02-.445-1.236s-.427-.372-.804-.463c-.765-.194-1.888-.294-3.37-.294-1.37 0-2.256.03-2.66.088s-.63.19-.677.396c-.058.218-.084.563-.084 1.035v6.404c0 .907.24 1.634.72 2.175.48.54 1.13.813 1.942.813.39 0 .59.11.602.334.02.258-.15.388-.517.388-.253 0-.604-.025-1.05-.076-.38-.05-.94-.075-1.688-.075l-1.188-.022-1.326.018c-.285 0-.676.024-1.17.07-.4.022-.693.04-.878.052-.333.01-.5-.09-.5-.302 0-.18.18-.31.533-.387.733-.16 1.23-.472 1.495-.93.263-.46.396-1.25.396-2.375v-15.502c0-1.09-.178-1.927-.532-2.513-.23-.392-.48-.653-.757-.792-.274-.138-.75-.235-1.426-.292-.273-.024-.417-.125-.428-.303-.023-.293.206-.437.688-.437.15 0 .505.028 1.065.086 1.02.104 2.743.155 5.172.155 2.164 0 3.557-.018 4.174-.052l2.39-.12c1.03-.046 1.695-.098 1.992-.154.218-.045.407-.07.567-.07.25 0 .377.134.377.397 0 .138-.027.328-.085.568-.195.748-.292 1.748-.292 3 0 .53-.152.795-.458.795-.176 0-.274-.144-.3-.43-.033-.354-.095-.716-.187-1.083-.148-.583-.334-.96-.557-1.125-.223-.167-.716-.284-1.48-.353l-2.02-.207c-.64-.06-1.45-.086-2.43-.086-1.28 0-2.073.083-2.38.25-.308.17-.462.594-.462 1.28zM121.496 200.86c1.33-2.084 2.554-3.124 3.677-3.124.355 0 .822.21 1.4.635.577.426.88.77.9 1.03.01.172-.17.485-.546.946-.378.458-.646.693-.806.705-.08 0-.33-.138-.753-.412-.493-.343-.96-.515-1.405-.515-.696 0-1.28.252-1.75.758-.468.506-.703 1.134-.703 1.888v6.122c0 .96.13 1.645.39 2.05.257.405.706.638 1.347.694l.894.07c.367.02.55.136.55.342 0 .23-.16.344-.48.344-.08 0-.35-.028-.81-.086-.218-.023-.54-.035-.963-.035l-1.24-.018h-.76c-.896 0-1.532.027-1.91.087-.3.043-.506.072-.62.085-.31.01-.466-.1-.466-.337 0-.19.178-.318.534-.386.492-.113.81-.327.954-.636.143-.31.215-.97.215-1.977v-7.37c0-1.317-.63-1.978-1.892-1.978l-.582.018c-.264 0-.396-.117-.396-.353 0-.143.086-.247.26-.317.1-.025.227-.042.376-.052 1.077-.104 2.348-.608 3.814-1.515.147-.078.28-.125.395-.137.264-.01.395.184.395.584l-.018.327v2.56l.002.004zM132.99 209.363c0 .814.088 1.36.266 1.635.177.273.553.453 1.125.533l.79.087c.413.056.614.2.603.436-.013.19-.167.286-.465.286-.195 0-.57-.027-1.12-.08-.31-.025-.71-.038-1.205-.038l-1.102-.02-1.257.066c-.23.01-.408.027-.533.053-.3.035-.507.053-.62.053-.31 0-.465-.105-.465-.317 0-.176.104-.3.31-.37l.328-.103c.365-.126.62-.344.763-.652.143-.31.215-.805.215-1.49v-7.48c0-.95-.09-1.567-.273-1.854-.184-.285-.58-.428-1.186-.428-.435 0-.645-.09-.635-.27.012-.158.305-.326.88-.503.644-.218 1.46-.584 2.45-1.1l.912-.43c.148.01.225.147.225.412l-.002 11.576zm-1.074-18.725c.276 0 .56.23.847.69l.413.656c.115.16.174.308.174.433.01.265-.186.633-.588 1.104-.403.474-.727.71-.97.71-.227 0-.534-.23-.913-.69-.38-.46-.57-.823-.57-1.088 0-.266.21-.632.63-1.104.42-.473.747-.71.976-.71zM139.157 203.61l-.017.378c0 1.96.542 3.604 1.626 4.94 1.084 1.333 2.418 2 4 2 1.252 0 2.61-.562 4.08-1.684.092-.068.177-.11.258-.12.16-.01.24.08.24.273 0 .344-.4.827-1.2 1.453-1.49 1.162-3.064 1.742-4.728 1.742-1.867 0-3.433-.708-4.698-2.128-1.266-1.418-1.898-3.173-1.898-5.267 0-1.99.653-3.73 1.96-5.226 1.304-1.493 2.833-2.237 4.585-2.237 1.914 0 3.442.795 4.587 2.387.276.39.557.916.843 1.583.286.663.43 1.128.43 1.39 0 .377-.375.567-1.12.567l-1.274-.018-1.17-.034-6.503.003zm.104-.944h5.824c.904 0 1.357-.185 1.357-.55 0-.894-.385-1.725-1.16-2.49-.772-.768-1.61-1.15-2.516-1.15-.94 0-1.722.374-2.348 1.124-.62.75-1.007 1.772-1.155 3.066zM155.513 200.467c1.532-1.822 3.125-2.732 4.775-2.732 1.833 0 3.282.753 4.346 2.253.734 1.03 1.1 2.604 1.1 4.714v4.11l-.017.518.053.825c.126.758.605 1.197 1.442 1.324l.722.103c.31.043.47.156.48.335.01.244-.177.37-.564.37-.125 0-.35-.022-.668-.06-.377-.054-1.074-.078-2.09-.078l-1.698.053h-.65l-.497.034-.24-.056c-.08-.045-.12-.134-.12-.263 0-.176.103-.288.31-.334l.513-.14c.46-.112.688-.526.688-1.233v-5.92c0-1.59-.368-2.817-1.102-3.68-.734-.863-1.78-1.296-3.134-1.296-.952 0-1.8.28-2.54.842-.74.562-1.11 1.202-1.11 1.924v6.558l.02.518.016.86c.058.963.853 1.49 2.388 1.583.377.033.565.157.565.37 0 .208-.13.315-.394.315-.194 0-.487-.032-.876-.1-.217-.024-.756-.04-1.615-.04-1.82 0-2.91.026-3.264.08-.354.04-.583.06-.687.06-.217 0-.32-.097-.31-.284.012-.143.12-.252.327-.335.582-.207.976-.458 1.176-.755.2-.298.3-.78.3-1.44v-7.755c0-.813-.096-1.365-.292-1.656-.193-.293-.562-.438-1.098-.438l-.74.017c-.103 0-.194-.025-.275-.073-.102-.045-.153-.127-.153-.245 0-.164.148-.277.446-.335.768-.14 1.505-.373 2.217-.704l.91-.446c.356-.172.578-.28.67-.327.16-.092.298-.137.412-.137.207 0 .298.166.276.498-.01.184-.02.4-.02.653v1.94l.005.004zM180.854 210.052c-1.167 1-2.113 1.675-2.84 2.022-.726.347-1.547.52-2.46.52-1.728 0-3.176-.675-4.35-2.022-1.17-1.35-1.757-3.02-1.757-5.013 0-2.197.7-4.05 2.102-5.56 1.4-1.51 3.118-2.267 5.154-2.267 1.382 0 2.77.407 4.15 1.222v-6.775c0-2.173-.582-3.224-1.75-3.157l-.603.035c-.08 0-.152-.01-.222-.035-.115-.046-.178-.135-.19-.264-.022-.236.144-.378.5-.424 1.184-.15 2.528-.677 4.033-1.583.127-.08.236-.12.328-.12.173 0 .26.126.26.378l.018.312v21.836c0 1.295.395 1.94 1.185 1.94l1.015-.033.154.018c.125.044.188.135.188.27 0 .244-.208.39-.62.436-.473.046-.772.08-.897.103l-.964.154c-.76.114-1.265.234-1.518.36-.22.126-.392.19-.518.19-.263.01-.396-.272-.396-.855v-1.69zm0-2.08v-5.66c0-1.026-.25-1.78-.753-2.262-1.13-1.086-2.47-1.63-4.02-1.63-1.383 0-2.498.527-3.348 1.58-.85 1.052-1.275 2.437-1.275 4.152 0 1.875.557 3.503 1.668 4.88 1.113 1.38 2.43 2.068 3.945 2.068 1.12 0 2.028-.29 2.73-.867.703-.577 1.054-1.33 1.054-2.26zM191.816 197.735c.905 0 1.684.12 2.336.355l.756.254c.31.113.464.288.464.525v.274c0 .16.01.32.034.48l.07.67c.033.24.05.458.05.654 0 .443-.128.676-.386.687-.143.01-.27-.138-.387-.447-.63-1.74-1.81-2.61-3.542-2.61-.687 0-1.25.195-1.69.587-.44.392-.66.884-.66 1.48 0 .632.237 1.145.71 1.534.477.393 1.435.866 2.878 1.432 1.432.56 2.425 1.15 2.98 1.774.557.623.834 1.46.834 2.512 0 1.292-.48 2.397-1.436 3.318-.956.92-2.1 1.38-3.426 1.38-.95 0-1.983-.27-3.092-.808-.264-.125-.43-.188-.498-.188l-.447-.052c-.262-.024-.406-.166-.428-.428l-.018-.736-.052-2.19.036-.512c.047-.31.176-.467.386-.48.21-.01.352.16.42.516.242 1.26.708 2.245 1.4 2.955.693.712 1.526 1.065 2.5 1.065.837 0 1.522-.247 2.053-.74.532-.494.798-1.126.798-1.896 0-1.172-.646-2.045-1.94-2.62l-1.514-.673c-1.375-.595-2.348-1.21-2.92-1.844-.574-.634-.86-1.41-.86-2.323 0-1.097.442-2.02 1.322-2.775.888-.756 1.975-1.133 3.27-1.133z"/></g></svg>