<?xml version="1.0" encoding="utf-8"?>
<!-- Generator: Adobe Illustrator 21.0.2, SVG Export Plug-In . SVG Version: 6.00 Build 0)  -->
<svg version="1.1" id="Layer_1" xmlns="http://www.w3.org/2000/svg" xmlns:xlink="http://www.w3.org/1999/xlink" x="0px" y="0px"
	 width="757.2px" height="283.5px" viewBox="0 0 757.2 283.5" enable-background="new 0 0 757.2 283.5" xml:space="preserve">
<g>
	<defs>
		<rect id="SVGID_1_" y="0" width="757.2" height="283.5"/>
	</defs>
	<clipPath id="SVGID_2_">
		<use xlink:href="#SVGID_1_"  overflow="visible"/>
	</clipPath>
	<path clip-path="url(#SVGID_2_)" fill="#FFFFFF" d="M96,258l-1.6-1.1l-2.5-1.5c-2.5-1.5-6.2-3.6-10.5-6.3
		c-11.6-7.2-22.3-14.9-31.7-22.9c-30.5-25.7-46-51.6-46.1-77.2c0-14.8,0.1-100.7,0.1-111.7l184.5-0.1c0,11.1,0.1,98.9,0.1,111.8
		c0,25.3-15.2,50.9-44.9,76.3c-18.8,16-38.3,27.2-44.7,30.9l-1.5,0.9L96,258z"/>
	<path clip-path="url(#SVGID_2_)" fill="#0E4E9E" d="M56,214.9c-0.2-0.1-0.4-0.4-0.7-0.7c-0.2-0.1-0.5-0.2-0.7-0.2
		c0,0.1,0,0.2,0,0.4c-0.1-0.1-0.3-0.3-0.4-0.5c-0.2,0-0.4,0-0.6,0c0,0,0,0,0,0c0,0,0,0-0.1,0c-0.3,0-0.6,0-0.9,0.1
		c-1.6,0.2-1.3,1.3-4.1,0.2c-0.6-0.2-1.4-0.3-3.1,0.8c-1.3,0.8-1.2,2.4,0.2,3c3.1,1.3,3.9,1.6,5.5,0.7c1.7-1,2-0.7,2.6-0.8
		c0.4,0,1.1-0.1,1.7-0.2c-1.1-1-0.4-3-0.4-3c0.7,0.8,1.1,1.7,2.3,2.1l0.1-0.1c0.5-0.8,1.9-1.2,1.9-1.2c-1.7-0.3-2.6-0.7-3.2-0.9
		C56,214.7,56,214.8,56,214.9 M65.4,150.9c-0.2-0.1-0.4-0.4-0.7-0.7c-0.2-0.1-0.5-0.2-0.7-0.2c0,0.1,0,0.2,0,0.4
		c-0.1-0.1-0.3-0.3-0.4-0.5c-0.2,0-0.4,0-0.6,0c0,0,0,0,0,0c0,0,0,0-0.1,0c-0.3,0-0.6,0-0.9,0.1c-1.5,0.2-1.3,1.3-4.1,0.2
		c-0.6-0.2-1.4-0.3-3.1,0.8c-1.3,0.8-1.2,2.4,0.2,3c3.1,1.3,3.9,1.6,5.5,0.7c1.7-1,2-0.7,2.6-0.8c0.4,0,1.1-0.1,1.7-0.2
		c-1.1-1-0.4-3-0.4-3c0.7,0.8,1.1,1.7,2.3,2.1l0.1-0.1c0.5-0.8,1.8-1.2,1.8-1.2c-1.7-0.3-2.6-0.7-3.2-0.9
		C65.4,150.7,65.3,150.8,65.4,150.9 M18.9,150.9c-0.2-0.1-0.4-0.4-0.7-0.7c-0.2-0.1-0.5-0.2-0.7-0.2c0,0.1,0,0.2,0,0.4
		c-0.1-0.1-0.3-0.3-0.4-0.5c-0.2,0-0.4,0-0.6,0c0,0,0,0,0,0c0,0,0,0-0.1,0c-0.3,0-0.6,0-0.9,0.1c-1.5,0.2-1.3,1.3-4.1,0.2
		c-0.6-0.2-1.4-0.3-3.1,0.8c-1.3,0.8-1.2,2.4,0.2,3c3.1,1.3,3.9,1.6,5.5,0.7c1.7-1,2-0.7,2.6-0.8c0.4,0,1.1-0.1,1.7-0.2
		c-1.1-1-0.4-3-0.4-3c0.7,0.8,1.1,1.7,2.3,2.1l0.1-0.1c0.5-0.8,1.8-1.2,1.8-1.2c-1.7-0.3-2.6-0.7-3.2-0.9
		C18.9,150.7,18.9,150.8,18.9,150.9 M50.1,113.8c-0.3,0.2-0.6,0.5-0.9,0.7c-0.6,0.4-1,1-1.5,1.6c-0.2-0.1,1.6,0.9,4.2-0.3
		c-0.4-0.4-0.7-0.8-1.1-1.2C50.7,114.3,50.4,114,50.1,113.8 M3.7,129.8h92.2V37.4H3.7V129.8z M20.1,96.2c0.2,3.2-2.2,4.6-3.7,5.8
		c-1.5,1.2-1.5-0.4-0.9-1c0.6-0.6,1.4-2.9,1.5-3.7c0.1-0.8,0.1-0.9,0.4-1.2c0.2-0.4,0.5-0.5,0.7-1.2c0,0-0.5,0.2-1.1,0.8
		c-0.6,0.6-0.6,1.1-0.8,2.2c-0.2,1.1-0.7,2.4-1.7,3.5c-1,1.1-0.9-2-0.5-4.2c0.6-2.8,1.7-3.5,3-4.1c0,0,0.9-0.4,1.4-0.6l0.9-0.9
		l1.7,0.3C19.6,93.7,20,94.2,20.1,96.2 M39.9,75.4c4.5-0.2,5.7,2.9,5.7,2.8l0,0.1c0.1,0,0.1-0.1,0.2-0.1c-0.8-1.6-1.2-4.3,0.9-5.8
		c2.2,2.1,2.4,3.8,1.5,5.7c0.3-0.4,1-1.2,1-1.2c1-1.5,2.9-2.1,5.4-1.7c-0.9,3.3-3.1,4-4.4,4.6c2.1,0.4,3.3,1.2,4.3,3.1
		c-1.5,0.7-3,0.5-3.5,0.5c-0.4,0-1.9-0.9-2.4-1.6c0,0,0,0-0.1,0c1.2,2.1,0.7,4.3-0.8,6.3c-2.8-1.9-2.3-4.5-1.9-6.2l0,0
		c-1,1.8-1.2,3-5.2,3.3c0.7-2.9,1.2-4.3,2.2-4.8c0.2-0.1,0.3-0.1,0.4-0.2C42.1,79.6,40.7,78.3,39.9,75.4 M57.1,114.6
		c-0.1-0.1-0.2-0.1-0.2-0.2c0.3,0.3,0.5,0.6,0.6,0.9c1,2.1,0.2,3.9-1.8,3.1c-1.4-0.5-2.6-1.4-3.6-2.4c0.3,0.3,0.9,0.8,1.5,1.4
		c-0.1,0.1-1.5,1.2-2.2,1.5c-0.6,0.3-2.1,1.4-5.2,0.7c-0.3,1.2-0.2,2.1,0.5,3.5c-0.9-0.1-2-1.1-2.5-2.6c0,0,0.2,0.4,0.3,0.8
		c0,0-1.8,0.4-3.2-0.1c0.4-0.1,1.8-1.1,2.4-2c0.1-0.1,0.2-0.3,0.2-0.4c0,0,0,0,0,0c-2.1-1-3-2.4-3.2-2.8c-0.2-0.5-0.4-1.8,1.5-1.9
		c1.2,0,2.1,0.3,3,0.7c0.2-0.6,0.5-1.3,0.9-2.1c0.2-0.5,0.5-0.9,0.7-1.3c-0.4-0.2-0.7-0.4-0.8-0.5c-0.6-0.3-2.6-0.4-3.8,0.3
		c0.4-1.7,1.1-2.4,2.1-2.6c-0.2-1.2-0.3-2.1,1.3-3.6c0.4,2.9,0.7,4,2.7,4.6v0c1.7-1.6,3.5-1.8,4.9-1.7c2.1,0.1,2.1,1.2,0.9,2.5
		c-0.4,0.4-0.8,0.8-1.4,1.3c0,0,0,0,0,0c1,0.5,2,1.2,2.8,1.8c-0.2-0.1-0.3-0.2-0.3-0.2c0.6-1,0.8-1.5,0.6-3c1.1,1.1,1.2,1.7,1.2,2.7
		c1.2,0,2.1,0.7,2.5,1.5C58.5,114.1,58.2,114.2,57.1,114.6 M68.6,55l-4.2-2l3.3,5.2l-3.4-1.7l1.7,3.4l-3.5-2.3l1.8,5.8l-3.9-3.1
		l1.3,5.4l-3.5-3.3l-0.4,3.9l-2.4-3.1l-0.7,3.4l-2.2-2.4l-1,2.7l-2.3-2.4l-1.7,2.7l-1.5-2.8L43.5,67l-0.6-3.1l-2.3,1.5l-0.5-2.3
		l-2.4,2l0.1-3L35.4,64l0-3.7L31.1,63l2.4-5l-4.8,1.8l3.4-4.7l-3.8,0.6l4.2-4.1l-5.1,0.5l4.5-3.6l-3.1-0.6l3.9-1.9L29,44.9l4.4-1.3
		l-2.8-1.2l3.5-1.2l-2.4-2.4l9.9-0.2l-2.9,1.7l2.3,0.1l-1.6,2.1l2.4-0.5l-0.5,1.9l1.7-1v1.4l1.5-1.1l0.2,2.1l1.7-0.9l-0.1,2.3l2-1.8
		l0.7,1.6l0.8-1.4l0.9,1.9l0.7-2.7l1.6,1L53,43.2l2,1.6l-0.7-2.2l2.3,1l-1.5-2.2l2.4,0.3l-1.4-1.5l2.6-0.5l-2.6-1.2l10.8,0.2
		L63.1,41l5.7,2l-4.7,0.6l4.8,2.2L65,46l4.7,2.6l-4.7,0l6.5,3.6l-4.8-0.7L68.6,55z M85.6,95c0.3,0.8,0.2,1.4,0.4,2
		c0.1,0.7,0.9,1.4,1.1,1.5c-2.4-0.4-4.1-1-4.5-2.8c-0.4-1.8-1-2.2-1-2.2c0.6,1.3,0.6,2.1,0.7,2.8c0.2,0.7,0.8,1.2,1.1,1.4
		c0.3,0.2,2.1,1,2.8,1.1c-3.2-0.1-5.3-0.2-5.5-4.8c-0.2,1.3-0.2,2.6,0.4,3.4c0.5,0.8,1.2,1.2,1.2,1.2c-1.2,1.3-3.5,1.5-3.5,1.5
		c0.9-1.8,0.7-3,0.4-4.3c-0.3-1.3-0.1-1.4,0.1-2.1c0.3-0.7-0.2-0.4,0.1-0.8c0.9-1.2,3.1-1.6,3.1-1.6c0.4,0.5,0.9,0.3,1.5,0.4
		c0.6,0.1,1.4,0.8,2.3,1.7c0.9,1,2.3,1.2,2.8,1.2c-1.8,1.7-2.8,1.7-2.8,1.7c-0.4-1.9-1.1-3.4-3.1-3.8C84.4,93.4,85.3,94.2,85.6,95"
		/>
	<path clip-path="url(#SVGID_2_)" fill="#FDD7C6" d="M45.3,44.6c1.5-2.3,1.3-3.5,1.3-3.5l0-2.5l5.3-0.1c-0.5,0.9-0.5,2.9-0.5,2.9
		c0.7,5,0.2,4.9,0.2,4.9c-0.9,2-1.7,4.4-1.7,4.4l0.3,2.3c0.4,0.9-0.5,2.8-1.4,2.9c-0.8,0.1-0.8-1.1-0.8-1.1s0.1,0.2-0.3-1.1
		c-0.5-1.3-0.8-4.6-0.8-4.6c-0.4-0.1-1.3-0.2-1.3-0.2c-1.2,0-2.4-0.6-2.4-0.6c0.3-0.9,1.8-3.5,1.8-3.5L45.3,44.6z"/>
	<path clip-path="url(#SVGID_2_)" fill="#EF4436" d="M82.7,208.5c-0.5,0.4-1.9,1-4.5,1.3c1.2-0.2,2.5-0.7,3.7-2.9
		c-0.3,0.2-1.3,0.5-2.4,0.3c1.5-1.5,1.9-2.9,1.4-7.1c-0.9,3.4-3.8,3.9-3.8,3.9l-1.9,0.3c0.5-0.1,4.2-0.9,1.9-7.1c0,0-1.4,2.2-2,2.3
		c0,0-4.3,1.1-4.3,3.4c0,0-2.7-1.3-4.7,0.9c0,0-2.6-1-4.3,1.2c0,0-4-1.9-5.2-0.3c0,0,1.8-0.5,1.9,1.1c0,0,0.2,1-1.3,1.2
		c-1.5,0.2-1.5-0.2-1.5-0.2s-2.3-1-2.8-0.6c0,0-1-0.1-1.2,1.3c0,0-0.7,1.1-1.2,1.2c0,0-0.9,0.1-0.7,2.2c0.2,2,2.9,1,2.9,1
		s1.5-0.5,2.2,0.2l1.2-0.2c0.3,0.7,0.8,1.2,1.4,1.5c-0.3-0.3-0.2-0.7,0-0.8c0.3-0.2,1.2-0.6,1.5-1.8c0.3-1-0.6-1.8-0.6-1.8
		s0.6,0,1.2,0.4c0.6,0.4,0.9,1.1,0.9,2.1c0,1-0.2,1.7-1,2c-0.5,0.2-0.7,0.3-1,0.3c0.4,0.1,0.9,0.1,1.3,0.1c0.8-0.2,1.5-0.4,2.3-0.3
		c0.3-0.7,0.6-1.1,0.6-1.1c0.5,1.9,1.5,2.4,1.5,2.4c0,0,0,0-0.1,0c0,0,0,0,0,0c-0.3,0-0.5,0-0.6,0c-0.4,0.1-0.7,0.2-0.9,0.3l0,0
		c-0.1,0-0.1,0.1-0.2,0.1c0,0-0.1,0.1-0.1,0.1c0,0-0.1,0.1-0.1,0.1c-0.4,0.2-0.8,0.2-1.7-0.1c-1.1-0.3-2,0.1-2.6,0.8
		c-0.7,0.7-1.4,1.5-2.6,1.4l-2.2,0.2c0,0.1,0.1,1.4,0.6,1.5c0.5,0,0.7-0.1,1.3,0.5c2,2.1,3.2,0.7,3.8,0.2c0.6-0.5,1.2-0.7,1.9-0.4
		c0.7,0.2,2.2,0.1,2.9-0.2c0.7-0.3,1.4-0.7,2.8-0.1c1.4,0.5,4.1,0.7,7.4,0.2l0.1,0.1c0.1,0.1,0.6,0.8,1.6,1c-0.2-0.2-0.3-0.9-0.1-2
		c0.6,0.4,2.2,1.4,4.5,0.5c-0.7-0.4-1.3-1.1-2.9-2.2c0.9,0.6,2.5,0.7,3,0.3c0.5-0.3,1.6-0.5,3-3.7c-0.3,0.3-1.6,0.8-3.2,0.8
		c0.9-0.3,2.5-0.8,3.4-3.8c-0.2,0.3-0.9,0.6-2.5,1.1C81,211.3,81.9,210.6,82.7,208.5 M61.4,213.2c-0.5,0-1,0.2-1,0.2
		c0.7-0.6,0.7-1.1,0.7-1.3C61.6,212.7,61.4,213.2,61.4,213.2 M66.8,210.1c-0.7,0-1.2-0.6-1.2-1.2c0-0.7,0.5-1.2,1.2-1.2
		c0.7,0,1.2,0.6,1.2,1.2C68,209.5,67.5,210.1,66.8,210.1 M92.1,144.5c-0.5,0.4-1.9,1.1-4.5,1.3c1.2-0.2,2.5-0.7,3.7-2.9
		c-0.3,0.2-1.3,0.5-2.4,0.3c1.5-1.5,1.9-2.9,1.4-7.1c-0.9,3.4-3.8,3.9-3.8,3.9l-1.9,0.3c0.5-0.1,4.2-0.9,1.9-7.1c0,0-1.4,2.2-2,2.3
		c0,0-4.3,1.1-4.3,3.4c0,0-2.7-1.3-4.7,0.9c0,0-2.6-1-4.3,1.2c0,0-4-1.9-5.2-0.3c0,0,1.8-0.5,1.9,1.1c0,0,0.2,1-1.3,1.2
		C65,143.3,65,143,65,143s-2.3-1-2.8-0.6c0,0-1-0.1-1.2,1.2c0,0-0.7,1.1-1.2,1.2c0,0-0.9,0.2-0.7,2.2c0.2,2,2.9,1,2.9,1
		s1.5-0.5,2.2,0.2l1.2-0.2c0.3,0.7,0.8,1.2,1.4,1.5c-0.3-0.3-0.2-0.7,0-0.8c0.3-0.2,1.2-0.6,1.5-1.8c0.3-1-0.6-1.8-0.6-1.8
		s0.6,0,1.2,0.4c0.6,0.4,0.9,1.1,0.9,2.1c0,1-0.2,1.7-1,2c-0.5,0.2-0.7,0.3-1,0.3c0.4,0.1,0.9,0.1,1.3,0.1c0.8-0.2,1.5-0.4,2.3-0.3
		c0.3-0.7,0.6-1.1,0.6-1.1c0.5,1.8,1.5,2.4,1.5,2.4c0,0,0,0-0.1,0c0,0,0,0,0,0c-0.3,0-0.5,0-0.7,0c-0.4,0.1-0.7,0.2-0.9,0.3
		c0,0,0,0,0,0c-0.1,0-0.1,0.1-0.2,0.1c0,0-0.1,0-0.1,0.1c0,0-0.1,0.1-0.1,0.1c-0.4,0.2-0.8,0.2-1.7-0.1c-1.1-0.3-2,0.1-2.6,0.8
		c-0.7,0.7-1.4,1.5-2.6,1.4l-2.2,0.2c0,0.1,0.1,1.4,0.6,1.5c0.5,0,0.7-0.1,1.3,0.6c2,2.1,3.2,0.7,3.8,0.2c0.6-0.5,1.2-0.7,1.9-0.4
		c0.7,0.2,2.2,0.1,2.9-0.2c0.7-0.3,1.4-0.7,2.8-0.1c1.4,0.6,4.1,0.7,7.4,0.2l0.1,0.1c0.1,0.1,0.6,0.8,1.6,1c-0.2-0.3-0.3-0.9-0.1-2
		c0.6,0.4,2.2,1.4,4.4,0.5c-0.7-0.4-1.3-1.1-2.9-2.2c0.9,0.6,2.5,0.7,3,0.3c0.5-0.3,1.6-0.5,3-3.7c-0.3,0.3-1.6,0.8-3.2,0.8
		c0.9-0.3,2.5-0.8,3.4-3.8c-0.2,0.3-0.9,0.6-2.5,1.1C90.3,147.2,91.2,146.6,92.1,144.5 M70.8,149.2c-0.5,0-1,0.2-1,0.2
		c0.6-0.6,0.6-1.1,0.7-1.3C70.9,148.7,70.8,149.2,70.8,149.2 M76.1,146c-0.7,0-1.2-0.6-1.2-1.2c0-0.7,0.5-1.2,1.2-1.2
		c0.7,0,1.2,0.6,1.2,1.2C77.4,145.5,76.8,146,76.1,146 M46.9,79c-0.6,0-1,0.5-1,1c0,0.6,0.5,1,1,1c0.6,0,1-0.4,1-1
		C47.9,79.5,47.5,79,46.9,79 M45.6,144.5c-0.5,0.4-1.9,1.1-4.5,1.3c1.2-0.2,2.5-0.7,3.7-2.9c-0.3,0.2-1.3,0.5-2.4,0.3
		c1.5-1.5,1.9-2.9,1.4-7.1c-0.9,3.4-3.8,3.9-3.8,3.9l-1.9,0.3c0.5-0.1,4.2-0.9,1.9-7.1c0,0-1.4,2.2-2,2.3c0,0-4.4,1.1-4.3,3.4
		c0,0-2.7-1.3-4.7,0.9c0,0-2.6-1-4.3,1.2c0,0-4-1.9-5.2-0.3c0,0,1.8-0.5,1.9,1.1c0,0,0.2,1-1.3,1.2c-1.5,0.2-1.5-0.1-1.5-0.1
		s-2.3-1-2.8-0.6c0,0-1-0.1-1.2,1.2c0,0-0.7,1.1-1.2,1.2c0,0-0.9,0.2-0.7,2.2c0.2,2,2.9,1,2.9,1s1.5-0.5,2.2,0.2l1.2-0.2
		c0.3,0.7,0.8,1.2,1.4,1.5c-0.3-0.3-0.2-0.7,0-0.8c0.3-0.2,1.2-0.6,1.5-1.8c0.3-1-0.6-1.8-0.6-1.8s0.6,0,1.2,0.4
		c0.6,0.4,0.9,1.1,0.9,2.1c0,1-0.2,1.7-1,2c-0.5,0.2-0.7,0.3-1,0.3c0.4,0.1,0.9,0.1,1.3,0.1c0.8-0.2,1.5-0.4,2.3-0.3
		c0.3-0.7,0.5-1.1,0.5-1.1c0.5,1.8,1.5,2.4,1.5,2.4c0,0,0,0-0.1,0c0,0,0,0,0,0c-0.3,0-0.5,0-0.6,0c-0.4,0.1-0.7,0.2-0.9,0.3
		c0,0,0,0,0,0c-0.1,0-0.1,0.1-0.2,0.1c0,0-0.1,0-0.1,0.1c0,0-0.1,0.1-0.1,0.1c-0.4,0.2-0.8,0.2-1.7-0.1c-1.1-0.3-2,0.1-2.6,0.8
		c-0.7,0.7-1.4,1.5-2.6,1.4l-2.2,0.2c0,0.1,0.1,1.4,0.6,1.5c0.5,0,0.7-0.1,1.3,0.6c2,2.1,3.2,0.7,3.8,0.2c0.6-0.5,1.2-0.7,1.9-0.4
		c0.7,0.2,2.2,0.1,2.9-0.2c0.7-0.3,1.4-0.7,2.8-0.1c1.4,0.6,4.1,0.7,7.4,0.2l0.1,0.1c0.1,0.1,0.6,0.8,1.6,1c-0.2-0.3-0.3-0.9-0.1-2
		c0.6,0.4,2.2,1.4,4.5,0.5c-0.7-0.4-1.3-1.1-2.9-2.2c0.9,0.6,2.5,0.7,3,0.3c0.5-0.3,1.6-0.5,3-3.7c-0.3,0.3-1.6,0.8-3.2,0.8
		c0.9-0.3,2.5-0.8,3.4-3.8c-0.2,0.3-0.9,0.6-2.5,1.1C43.8,147.2,44.7,146.6,45.6,144.5 M24.3,149.2c-0.5,0-1,0.2-1,0.2
		c0.6-0.6,0.6-1.1,0.7-1.3C24.4,148.7,24.3,149.2,24.3,149.2 M29.6,146c-0.7,0-1.2-0.6-1.2-1.2c0-0.7,0.5-1.2,1.2-1.2
		c0.7,0,1.2,0.6,1.2,1.2C30.9,145.5,30.3,146,29.6,146 M188,37.4H172v36.3H188V37.4z M156.6,37.4h-15.1v36.3h15.1V37.4z M126.4,37.4
		h-14.9v36.3h14.9V37.4z M188.2,129.9c0,0-92.2-0.2-92.2,0c0,61.8-0.1,127.1,0,128.1c0.5-1.5,92.2-47.3,92.2-108.4
		C188.1,146,188.2,137,188.2,129.9 M135.2,140.6v-2.6h1.3v1.5h1.3v-1.5h1.4v1.5h1.3V138h1.1v2.6l-0.8,2.3l0.8,4.5h-6.4l0.8-4.5
		L135.2,140.6z M126,140.6L126,140.6l0-2.6h1.3v1.5h1.3V138h1.4v1.5h1.3V138h1.1v2.6l-0.8,2.3l0.8,4.5h-6.4l0.8-4.5L126,140.6z
		 M116.5,140.7L116.5,140.7v-2.6h1.3v1.5h1.3v-1.5h1.4v1.5h1.3v-1.5h1.1v2.6h0l-0.8,2.2l0.8,4.5h-6.4l0.8-4.5L116.5,140.7z
		 M149.4,205.1h-40.6V189l5.4-5.2h0.1l3.8-25.4l-4.1-3.4v-7.2l30.5,0l0,7.1l-4.2,3.4h0l3.9,25.4H144l5.4,5.4V205.1z"/>
	<path clip-path="url(#SVGID_2_)" fill="#85C556" d="M37.8,85.3c-3-1.2-6.7-1.1-10.3,0c-1.8,0.5-2.8,0.8-6,3.4
		c-1.4,1.2-2.3,2.4-2.8,3.1l0.3-0.4l1.7,0.3c0,0,0,0,0,0c1-1.8,6.1-5.4,9.6-5.7c1.8-0.2,4.8-1.1,8.7,0.9c0,0-2.4-0.9-4.8-0.7
		c-1.7,0.2-3.3,0.8-5.1,1.9c-2.1,1.3-4,3.9-3.5,8.6c0.3-0.2,3-2.7,3.4-3.3c1.1-1.5,1.9-2.9,3-3.8c3.2-2.6,7.3-2.4,10.4,0.4l1.2,0
		h0.8C42.5,87.1,40.5,86.5,37.8,85.3 M52.4,80.7c0.3-0.9,0.6-2.1,1-3.3l0,0c-1,1.4-2.4,1.9-3.3,2.4C51,80,51.7,80.3,52.4,80.7
		C52.4,80.7,52.4,80.7,52.4,80.7 M53.9,75.1L53.9,75.1c0.5-2.3,0.7-4.6,0.3-6.5c-0.3,1.1-2.2,4.8-3.1,6.6l0,0.2
		C51.8,75.1,52.8,75,53.9,75.1 M41.2,75.5L41.2,75.5c0.2,0,0.4,0.1,0.6,0.1c0.7,0.1,1.3,0.4,1.5,0.5c0,0,0.1,0,0.1,0l0,0
		c-1-2.8-3.2-7.8-3.2-8.3c-0.4,4.3,0.5,7.5,0.6,7.6C40.9,75.5,41,75.5,41.2,75.5 M34.9,77.9c1.4,0.7,2.7,1.6,6.4,4.8c0,0,0,0,0,0
		c0.2-0.5,0.4-0.9,0.6-1.2c0,0,0,0,0,0c0.2-0.3,0.4-0.6,0.7-0.8c-0.3-0.3-3-3.7-4.6-4.8c-0.9-0.6-1-0.7-1.9-1.2
		c-0.9-0.5-3.5-2.1-6.9-2.7C30.1,74.3,30.1,75.6,34.9,77.9 M45.4,84.5c-0.2-0.3-0.4-0.6-0.6-0.9c-0.2,0.3-0.5,0.5-0.8,0.8
		c0,0,0,0,0,0c-0.2,0.2-0.5,0.3-0.8,0.4c0,0,0,0,0,0c0.1,0.3,0.4,0.8,0.5,1.1c-0.2-0.3-0.5-0.7-0.9-1c0,0-0.1,0-0.1,0
		c-0.3,0.1-0.6,0.2-0.9,0.2c-0.4,0.1-0.8,0.1-1.3,0.2c0.2-0.7,0.3-1.3,0.5-1.9c-3.8-2.7-8.9-4.4-9.6-4.7c-0.7-0.2-2.6-0.8-3.6-0.8
		c-1-0.1-3.8-0.8-5.8-1.8c0,0,1.2,1.8,1.9,2.9c0.7,1.1,3.5,2,6.4,2.9c2.9,0.9,3.4,1,6.6,2.3c3.2,1.3,6.5,2.6,8.3,5.9l0.9,0v0h1.6
		c-0.2-0.9-0.5-1.7-0.8-2.5C45.8,86.7,45.4,85.6,45.4,84.5 M51.4,83.4C51.4,83.4,51.4,83.4,51.4,83.4c-0.3,0-0.5,0-0.6-0.1
		c-0.1,0-0.4-0.1-0.7-0.3c0,0-0.1,0-0.1-0.1c-0.3-0.2-0.6-0.4-0.9-0.6l-0.2,0.9v0c0.1,0.6,0.1,1.2,0,1.7c0,0,0,0.1,0,0.1
		c-0.1,0.5-0.3,1.1-0.5,1.6c0,0,0,0,0,0.1l-0.2,1.2c0,0,0,1-0.1,2l1.9,0C50,89.5,49.8,86.5,51.4,83.4C51.4,83.5,51.4,83.5,51.4,83.4
		 M68.1,84.8c2.3,0.3,3.9,0.4,6.4,1.9c1.3,0.8,3.7,3.3,4,3.7c0.3,0.4,0.8,0.7,0.8,1c0,0.3-0.1,0.6-0.1,1.1c0,0.3,0.1,0.5,0.2,0.8
		c0,0,0-0.1,0.1-0.1c0.9-1.2,3.1-1.6,3.1-1.6c0.1,0.1,0.2,0.2,0.3,0.3c-0.1,0-0.2-0.1-0.3-0.3c-0.4-0.5-0.9-0.8-1.3-0.8
		c-0.4,0-0.4,0-0.8-0.3c-0.4-0.3-0.7-0.7-2-2.3c-1.3-1.6-3.3-2.7-4.7-3.5c-1.5-0.7-4.6-0.9-5-0.9c0,0-0.9,0-1.5,0
		c0.7-0.1,1.9-0.4,3-0.5c0.5-0.1,4.1-0.2,4.9-0.1c5.1,0.7,9.5-3.5,8.4-3c-1.1,0.5-5.3,0-5.3,0c-5.5-0.7-13,2.4-13,2.4
		c-1.1,0.3-3,1.1-4.3,1.6c1.5-0.8,4.7-2.6,5.3-2.7c0,0,1.8-1.1,2.5-1.7c0.8-0.7,2.5-1.9,3.5-2.7c1.1-0.8,4.2-3.5,4.7-4.3
		c0.5-0.8,2.1-2,4.6-3.6c0,0-4.4-0.1-6.4,1.2c-0.8,0.5-3.2,1.8-4.7,3.4c-1,1.1-6.8,5.8-8.7,7.2c-2.2,1.6-4.2,3.6-4.9,4.4
		c-0.8,1-1.9,2-2.5,4.7l2.1,0.1c10.5-6.7,18,5.3,18,5.3c0.5,0.6,3.4,2.6,3.4,2.6c0.3-1.4,0-3.8,0-3.8c-3.4-12.3-18.5-7.7-18.5-7.7
		C60.9,86,66.1,84.5,68.1,84.8 M62.2,73.7c-3.9,2.4-5.3,4.2-8.2,7.9L53.7,82c0.2,0.3,0.4,0.6,0.6,0.9c-0.5,0.2-1,0.4-1.4,0.4
		l-0.5,0.9c-0.3,0.4-1.2,2.5-1.3,5.9l1.6,0h1.3c0.3-2.7,2.8-5.7,4.2-6.9C59.4,82,61.1,80.2,62.2,73.7"/>
	<path clip-path="url(#SVGID_2_)" fill="#FBAD43" d="M95.9,73.7h15.6V37.4H95.9V73.7z M156.6,73.7H172V37.4h-15.4V73.7z M126.4,73.7
		h15.1V37.4h-15.1V73.7z M39.5,42.5l2.4-0.6l-0.5,1.9l1.7-0.9v1.4l1.6-1.1l0.2,2l0.1-0.1c0.1-0.2,0.2-0.4,0.2-0.4l0.2-0.2
		c1.5-2.3,1.3-3.5,1.3-3.5l0-2.5l-5.1,0l-2.7,1.7l2.2,0.1L39.5,42.5z M42.2,58.2V48.1l-2,1.7v9.8c0,0,1.7,1.2,3.2,1.7
		c1.5,0.5,2.4,0.4,2.4,0.4s2,0,2.9,0.9c0,0,1.6-0.8,2.8-0.8c0,0,1.8,0,2.2-0.1c0,0,1.5,0.2,3.5-1.5V49.2l-0.7,0.4v-0.8L56,49.2v-0.7
		l-0.7,0.4v9.4c0,0-0.7,0.7-1.9,0.9c0,0-0.7,0.2-1.7,0c-1-0.1-2.9,0.7-2.9,0.7s-2-0.9-3.1-0.7C45.6,59.3,43.4,59.3,42.2,58.2
		 M55.7,95.1L55.7,95.1v-3.1h-12v3.1h0c1.4,2.5,2.6,5-0.1,8.5c-2.7,3.5-11.1,13-0.3,22.3v1.8h12.4v-1.8H56
		c10.8-9.3,2.4-18.8-0.2-22.4C53.1,100,54.3,97.6,55.7,95.1 M57.2,112.8c1.2,0,2.1,0.7,2.5,1.5c-1.2-0.2-1.5-0.1-2.6,0.3
		c-0.1-0.1-0.2-0.1-0.2-0.2c0.3,0.3,0.5,0.6,0.6,0.9c1,2.1,0.2,3.9-1.8,3.1c-1.4-0.5-2.6-1.4-3.6-2.4c0.3,0.3,0.9,0.8,1.5,1.4
		c-0.1,0.1-1.5,1.2-2.2,1.5c-0.6,0.3-2.1,1.4-5.2,0.7c-0.2,1.2-0.2,2.1,0.5,3.5c-0.9-0.1-2-1.1-2.5-2.6c0,0,0.2,0.4,0.3,0.8
		c0,0-1.8,0.4-3.2-0.1c0.4-0.1,1.8-1.1,2.4-2c0.1-0.1,0.2-0.3,0.2-0.4c0,0,0,0,0,0c-2.1-1-3-2.4-3.2-2.8c-0.2-0.5-0.4-1.8,1.5-1.9
		c1.2,0,2.1,0.3,3,0.7c0.2-0.6,0.5-1.3,0.9-2.1c0.2-0.5,0.5-0.9,0.7-1.3c-0.4-0.2-0.7-0.4-0.8-0.5c-0.6-0.3-2.6-0.4-3.8,0.3
		c0.4-1.7,1.1-2.4,2.1-2.6c-0.3-1.2-0.3-2.1,1.3-3.6c0.3,2.9,0.7,4,2.7,4.6c0,0,0,0,0,0c1.7-1.6,3.5-1.8,4.9-1.7
		c2.1,0.1,2.1,1.2,0.9,2.5c-0.4,0.4-0.8,0.8-1.4,1.3c0,0,0,0,0,0c1,0.5,2,1.2,2.8,1.8c-0.2-0.1-0.3-0.2-0.3-0.2c0.6-1,0.8-1.5,0.6-3
		C57.1,111.2,57.2,111.8,57.2,112.8 M51.9,44.5l1.3,0.8L53,43.2l2,1.5l-0.6-2.2l2.3,1l-1.5-2.1l2.4,0.3L56,40.2l2.6-0.5L56,38.5
		l-4,0c-0.5,1-0.4,2.8-0.4,2.8C51.7,42.8,51.8,43.8,51.9,44.5 M67.9,92.7c-2.3-4.7-8.4-4.9-10.9-1.2c-1.1,2.3-0.3,4.2,0,4.8
		c0.5,0.7,1.6,1.4,2.9,1.2c1.3-0.2,1.6-1.6,1.4-2.2c-0.1-0.6-1-1.4-1.5-1.5c-0.5,0-1.1,0.3-1.3,0.4c-0.1-1.3,0.1-1.7,0.7-2.3
		c0.5-0.5,1.6-1.3,3.7-0.8c2.1,0.5,3.9,3.5,3.3,5.2c-0.6,1.7-0.8,3.6-6,5.7c1.4,1.2,1.9,0.8,2.6,0.8c-2.4,3.8-3.7,7.9,0.2,12.1
		c1.1,0.9,3,1.1,3.8-0.3c0.7-1.2,0.4-2.4-0.1-2.8c-0.6-0.6-1.7-0.7-2.1-0.5c-0.4,0.3-0.7,0.9-0.7,0.9c-1.4-2.2-1.5-3.6-0.3-6.3
		C64.8,103.4,70.2,97.4,67.9,92.7 M50.1,113.8c-0.3,0.2-0.6,0.5-0.9,0.7c-0.6,0.4-1,1-1.5,1.6c-0.2-0.1,1.6,0.9,4.2-0.3
		c-0.4-0.4-0.7-0.8-1.1-1.2C50.7,114.3,50.4,114,50.1,113.8 M36.5,102.9c0.7,0,1.3,0.3,2.6-0.8c-5.2-2.2-5.4-4.1-6-5.8
		c-0.6-1.7,1.2-4.7,3.3-5.2c2.1-0.5,3.1,0.2,3.7,0.8c0.6,0.6,0.8,1,0.7,2.3c-0.2-0.1-0.8-0.4-1.3-0.4c-0.5,0-1.4,0.8-1.5,1.4
		c-0.2,0.6,0.1,1.9,1.4,2.2c1.3,0.3,2.4-0.4,2.9-1.1c0.4-0.6,1.2-2.5,0.1-4.8c-2.5-3.7-8.6-3.5-10.9,1.1c-2.4,4.7,3,10.7,4.2,13.3
		c1.2,2.7,1.1,4.1-0.3,6.3c0,0-0.3-0.6-0.7-0.9c-0.4-0.3-1.5-0.1-2.1,0.4c-0.5,0.5-0.8,1.7-0.1,2.8c0.8,1.5,2.7,1.3,3.8,0.4
		C40.2,110.8,38.9,106.7,36.5,102.9"/>
	<path clip-path="url(#SVGID_2_)" fill="#7F0D3F" d="M211,236.4c-8,0-15.1,3.5-19.7,9.7c-3,4.1-4.6,8.8-4.6,13.8
		c0,6.3,2.6,12.3,7.1,16.6c4.2,3.9,10.3,6.3,17.3,6.3c6.5,0,12.2-2.2,16.7-6.3c5-4.6,7.8-10.8,7.8-16.9c0-6.7-2.5-12.7-7.1-16.9
		C224.1,238.7,218,236.4,211,236.4 M210.9,278c-9.3,0-16.6-7.8-16.6-18.9c0-10.7,7.3-18,17-18c9.3,0,16.6,7.8,16.6,18.8
		C227.9,270.7,220.5,278,210.9,278 M743.2,220.5c3.4,2.9,3.6,6.2,3.6,10.8v35.4l-36.4-46.2h-12.5c3.4,2.9,3.6,6.2,3.6,10.8v39.8
		c0,4.6-0.3,7.9-3.6,10.9h14c-3.4-3-3.5-6.3-3.5-10.9v-37.4l31.7,40c4.6,5.9,8.2,9.5,13.4,9.7v-52.1c0-4.6,0.3-7.9,3.6-10.8H743.2z
		 M244.2,245.2v28.7c0,3.3-0.2,5.7-2.6,7.8h12.2c-2.4-2.2-2.6-4.5-2.6-7.8v-13.8h4.1c3.3,0,5.6,0.1,6.9,1.6v-6.5h-10.9v-12.5
		c2.5-0.5,4.7-0.9,6.6-0.9c3.3,0,5.9,0.7,8.1,2.4v-6.9h-24.3C244,239.5,244.2,241.9,244.2,245.2 M267.4,129.8h-16.9
		c3.4,2.9,3.5,6.2,3.5,10.8v30.7c0,5.3-0.8,8.7-3.6,11.1c-3,2.5-7,3.9-11.4,3.9c-5.4,0-9.4-1.5-11.8-4.4c-2.4-2.9-2.7-7.5-2.7-14.2
		v-27c0-4.6,0.3-7.9,3.6-10.8h-16.9c3.4,2.9,3.6,6.2,3.6,10.8v28.9c0,7.1,0.8,12.2,4.5,16.4c4.1,4.7,9.7,7.1,16.9,7.1
		c6.4,0,12.3-2.1,18.4-6.4v4.7h12.8c-3.4-3-3.6-6.2-3.6-10.9v-39.8C263.8,135.7,264.3,132.4,267.4,129.8 M443.8,191.3h37.4l4.3-12.1
		c-5.4,3.5-10.8,5.2-17,5.2c-2.7,0-6.5-0.4-11.3-1.1v-22h5.5c4.6,0,7.7,0.1,9.5,2.3v-9h-15.1v-17.3c3.4-0.7,6.5-1.2,9.2-1.2
		c4.6,0,8.2,1,11.2,3.4v-9.6h-33.7c3.4,2.9,3.6,6.2,3.6,10.8v39.8C447.5,185,447.2,188.3,443.8,191.3 M654.7,136.5v43.9
		c0,4.6-0.3,7.9-3.6,10.9H668c-3.4-3-3.6-6.3-3.6-10.9v-43.9h6.9c4.4,0,7.4,0.9,9.3,3.2l2.9-9.9h-44l-3.1,10.1
		c2.8-2.5,7.2-3.4,13.4-3.4H654.7z M575.4,227.7c-7.3-5.8-14.8-7.2-24.7-7.2h-21.4c3.4,2.9,3.5,6.2,3.5,10.8v39.8
		c0,4.6-0.2,7.9-3.5,10.9h18.5c13.8,0,23.2-2.5,30.3-10.2c5.4-5.8,8.1-13.1,8.1-21.5C586.2,240.9,582.5,233.3,575.4,227.7
		 M552.5,275.6c-2.4,0-5.8-0.4-10-1v-46.3c3.1-0.8,6.3-1.3,9.3-1.3c15,0,24.3,9.9,24.3,24.1C576.2,265.4,566.1,275.6,552.5,275.6
		 M495.2,191.3h16.9c-3.4-3-3.6-6.3-3.6-10.9v-43.9c2.9-0.5,5.2-0.8,6.7-0.8c7.2,0,11.8,4.4,11.8,10.5c0,6.8-5.1,10.8-15.8,13.2
		l18.3,25.3c3,4.2,7.5,6.4,12,6.4h0.7l4.8-0.3c-3.5-3.2-6.2-6-8-8.4l-16-21.3c7.9-3.3,13.8-7.9,13.8-15.7c0-8.9-7.7-15.6-20.3-15.6
		h-21.3c3.4,2.9,3.6,6.2,3.6,10.8v39.8C498.8,185,498.6,188.3,495.2,191.3 M281,191.3h14c-3.4-3-3.5-6.3-3.5-10.9v-37.4l31.7,40
		c4.6,5.9,8.2,9.5,13.4,9.7v-52.1c0-4.6,0.3-7.9,3.6-10.8h-14c3.4,2.9,3.6,6.2,3.6,10.8V176l-36.4-46.2H281
		c3.4,2.9,3.6,6.2,3.6,10.8v39.8C284.6,185,284.4,188.3,281,191.3 M609.5,191.3h16.9c-3.4-3-3.6-6.3-3.6-10.9v-39.8
		c0-4.6,0.3-7.9,3.6-10.8h-16.9c3.4,2.9,3.6,6.2,3.6,10.8v39.8C613.1,185,612.8,188.3,609.5,191.3 M708.1,180.4
		c0,4.6-0.3,7.9-3.6,10.9h17c-3.4-3-3.6-6.3-3.6-10.9v-16.8l21-33.8h-14.3c1.7,1.4,2.6,2.7,2.6,4.2c0,1.3-0.7,3.1-2,5.2l-10.8,17.4
		l-16-26.8h-13.6c3.4,2.6,6,5.6,8.3,9.3l15.1,24.4V180.4z M422.1,129.8c2,2.4,3.1,4.3,3.1,6.1c0,1.8-0.5,4.2-1.4,6.5l-14.1,36.6
		l-15-44c-0.5-1.6-0.8-3.3-0.9-5.3h-12.7c3.1,4.5,4.6,8.8,5.9,12.5l12.4,35.8c2.9,8.4,6.3,13.2,11.9,14.7l24.9-63H422.1z
		 M391.1,246.1c6.1-3,9.2-7,9.2-12c0-8.2-7.2-13.6-20.1-13.6h-21c3.4,2.9,3.6,6.2,3.6,10.8v39.8c0,4.6-0.3,7.9-3.6,10.9h19.8
		c17.3,0,26.8-7.8,26.8-19.4C405.7,254.5,400.7,248.8,391.1,246.1 M372.6,227c2.5-0.5,4.6-0.8,6.4-0.8c7.1,0,11.1,3.5,11.1,9.3
		c0,6.1-4.4,9.8-12.5,9.8c-1.5,0-3.2-0.1-5-0.4V227z M380.6,275.4c-1.8,0-4.5-0.3-8.1-0.6v-23.1c3.3-0.5,5.9-0.8,7.8-0.8
		c9.3,0,15.3,5.5,15.3,12.8C395.7,270.8,390.3,275.4,380.6,275.4 M590.3,162.3c-4.2-3.3-8.5-5.1-12.6-7c-8.8-4.2-13.9-6.9-13.9-12.3
		c0-4.6,4.4-8.2,11.7-8.2c5.6,0,10.7,1.9,15.7,5.7v-10.3c-5.7-1.1-10.6-1.6-14.7-1.6c-14.6,0-22.9,6.6-22.9,16.3
		c0,7.9,5.4,12.2,15.7,17.3c7.6,3.8,13,6,15.1,9.1c1,1.5,1.5,3.2,1.5,4.8c0,5.5-5.3,9.8-14.1,9.8c-6.6,0-13.3-2.4-20.4-7.1l2.9,11.2
		c6,1.9,11.4,3,16.3,3c15.2,0,25.4-8.9,25.4-19C596.1,169.4,594,165.2,590.3,162.3 M513.5,273.1l-16-21.3
		c7.9-3.3,13.8-7.9,13.8-15.7c0-8.9-7.7-15.6-20.3-15.6h-21.3c3.4,2.9,3.6,6.2,3.6,10.8v39.8c0,4.6-0.3,7.9-3.6,10.9h16.9
		c-3.4-3-3.6-6.3-3.6-10.9v-43.9c2.9-0.5,5.2-0.8,6.7-0.8c7.2,0,11.8,4.4,11.8,10.5c0,6.8-5.1,10.8-15.8,13.2l18.3,25.3
		c3,4.2,7.5,6.4,12,6.4h0.7l4.8-0.3C517.9,278.4,515.3,275.6,513.5,273.1 M431.6,274v-22h5.5c4.6,0,7.7,0.1,9.5,2.3v-9h-15V228
		c3.4-0.7,6.5-1.2,9.2-1.2c4.6,0,8.2,1,11.2,3.4v-9.6h-33.7c3.4,2.9,3.6,6.2,3.6,10.8v39.8c0,4.6-0.3,7.9-3.6,10.9h37.4l4.3-12.1
		c-5.3,3.5-10.8,5.2-17.1,5.2C440.2,275.1,436.3,274.8,431.6,274 M609.4,274v-22h5.5c4.6,0,7.7,0.1,9.5,2.3v-9h-15V228
		c3.4-0.7,6.5-1.2,9.2-1.2c4.6,0,8.2,1,11.2,3.4v-9.6h-33.7c3.4,2.9,3.6,6.2,3.6,10.8v39.8c0,4.6-0.3,7.9-3.6,10.9h37.4l4.3-12.1
		c-5.3,3.5-10.8,5.2-17.1,5.2C618,275.1,614.1,274.8,609.4,274 M354.2,191.3H371c-3.4-3-3.6-6.3-3.6-10.9v-39.8
		c0-4.6,0.3-7.9,3.6-10.8h-16.9c3.4,2.9,3.6,6.2,3.6,10.8v39.8C357.8,185,357.5,188.3,354.2,191.3 M343.5,272l-19.6-51.5h-14
		c1.5,1.1,2.2,2.2,2.2,3.7c0,1.2-0.4,2.8-1.1,4.5l-17.3,43.9c-1.7,4.4-3.4,7.4-6.2,9.3h14.5c-1.8-1.7-2.7-3.1-2.7-4.4
		c0-1.4,0.3-2.7,0.8-4L306,259h23l5.3,14.2c0.6,1.7,1.3,3.2,1.3,4.8c0,1.3-1,2.3-2.6,4h17.6C346.2,278.4,344.8,275.3,343.5,272
		 M308.5,252.8l9.4-23.8l8.7,23.8H308.5z M660.8,274v-22h5.5c4.6,0,7.7,0.1,9.5,2.3v-9h-15.1V228c3.4-0.7,6.5-1.2,9.2-1.2
		c4.6,0,8.2,1,11.2,3.4v-9.6h-33.7c3.3,2.9,3.6,6.2,3.6,10.8v39.8c0,4.6-0.3,7.9-3.6,10.9h37.4l4.3-12.1c-5.3,3.5-10.8,5.2-17,5.2
		C669.3,275.1,665.5,274.8,660.8,274 M190.5,14c0-3.5-2.8-6.1-6.9-6.1c-0.7,0-1.6,0.1-2.9,0.4l0.3-4.7c1-0.2,2-0.3,3.1-0.3
		c2.1,0,3.7,0.3,4.7,1.2V0.9h-10.5l-0.6,10.2c1.7-0.6,3.3-1,4.6-1c3.1,0,5,1.6,5,3.9c0,2.6-2.2,4.5-5.7,4.5c-1.5,0-3.1-0.4-4.8-1.2
		l1.2,3c1.4,0.3,2.8,0.4,4,0.4c1.8,0,3.3-0.3,4.5-0.9C189.1,18.6,190.5,16.4,190.5,14 M66.3,0.9h-3.8l-9.1,15.5h10.1v1.2
		c0,1.1-0.3,1.8-1.1,2.8h5c-0.8-1-1.1-1.7-1.1-2.8v-1.2h2.3l1.3-3.3c-1.1,0.7-2.3,1.1-3.6,1.2V0.9z M63.5,14.3h-1.9
		c-1.3,0-2.8-0.1-4.6-0.2l6.5-11.3V14.3z M124.4,0.6c-4.1,0-7.2,2.9-7.2,7c0,3.6,2.4,6.1,5.8,6.1c0.9,0,1.9-0.2,3.1-0.6l1.6-2.1
		c-1.3,0.5-2.4,0.8-3.3,0.8c-2.5,0-4.3-2.1-4.3-4.8c0-2.6,1.7-4.4,4.2-4.4c2.9,0,5,2.4,5,6.2c0,4.9-3,8.4-8.8,10.2l-1.1,1.6
		c4-0.7,7-1.9,9.2-3.9c2.4-2.2,3.8-5.2,3.8-8c0-2.1-0.8-4.1-2.1-5.7C128.7,1.5,126.7,0.6,124.4,0.6 M5.6,0C4.3,1.9,2.4,3.4,0,4.6
		c0.7,0.1,1.6,0.2,2.5,0.3v12.3c0,1-0.1,1.9-1.6,3.2h5.9c-1.2-1.3-1.2-2.2-1.2-3.2V0z"/>
	<path clip-path="url(#SVGID_2_)" d="M32.6,142.9c0,0,0.3-0.7,1-1.1c-1-0.4-1.3-0.6-3-0.3C31.5,141.6,31.8,142.1,32.6,142.9
		 M55.1,218.8l-0.3,0.2c0.5,1,0.8,1,1.4,1.3l0.2-0.3C55.7,219.7,55.6,219.8,55.1,218.8 M56.3,218.8L56.3,218.8L56.3,218.8
		L56.3,218.8z M29.3,153.3c0.6,0.5,0.6,1.4,0.7,1.4l0.3,0c0,0-0.1-1-0.8-1.6L29.3,153.3z M30.7,152.3c-1.1-0.3-1.7-0.9-1.9-1.6
		c-0.1-0.8-0.3-1.6-1.4-1.7l0,0.3c1,0.2,0.9,0.6,1.1,1.5c0.2,0.9,1,1.5,2.1,1.8c1.1,0.3,1.9,1.4,1.9,1.4l0.3-0.2
		C32.8,153.8,32,152.6,30.7,152.3 M30.5,153.2l-0.1,0.3c1,0.5,1.1,0.8,1.4,1.4l0.3-0.2C31.8,154.2,31.6,153.7,30.5,153.2
		 M30.4,153.4L30.4,153.4L30.4,153.4L30.4,153.4z M56.6,218.7l-0.3,0.1c0.1,0.5,0.3,0.8,0.5,0.9c0.1,0.1,0.2,0.1,0.3,0.2
		c0,0,0.1,0,0.1,0c0,0,0,0,0,0l0.2-0.2C57.2,219.5,56.8,219.5,56.6,218.7 M64.5,216.5l-0.3-0.1c0,0.1,0,0.3,0,0.4
		c0,0.6,0.2,1.2,0.4,1.5l0.3-0.2c-0.2-0.3-0.4-0.8-0.4-1.3C64.5,216.7,64.5,216.6,64.5,216.5 M63.6,217l-0.3,0c0,0.1,0,0.3,0,0.4
		c0,0.7,0.2,1.1,0.2,1.1l0.3-0.2c0,0-0.2-0.3-0.2-1C63.6,217.3,63.6,217.2,63.6,217 M66.5,217.4c0.6,0.5,0.6,1.3,0.6,1.3l0.3,0
		c0,0-0.1-1-0.8-1.6L66.5,217.4z M68.8,95.2c0-0.9-0.2-1.8-0.6-2.6c-1.3-2.7-3.8-4-6.2-4c-2,0-4,0.9-5.3,2.7c-0.5,1-0.6,1.8-0.6,2.6
		c0,1.2,0.4,2.1,0.7,2.6c0.5,0.7,1.4,1.4,2.6,1.4c0.2,0,0.4,0,0.6-0.1c1.3-0.2,1.7-1.4,1.7-2.2c0-0.2,0-0.3,0-0.4
		c-0.2-0.8-1.1-1.6-1.8-1.7c0,0,0,0-0.1,0c-0.3,0-0.7,0.1-0.9,0.2c0-0.9,0.2-1.1,0.6-1.6c0.4-0.4,1-0.8,2.1-0.8c0.4,0,0.8,0,1.2,0.2
		c1.6,0.4,3.2,2.6,3.1,4.2c0,0.2,0,0.4-0.1,0.6c-0.6,1.7-0.7,3.3-5.9,5.5l-0.5,0.2l0.4,0.3c0.9,0.8,1.5,1,2.1,1c0.1,0,0.1,0,0.2,0
		c-1.2,1.9-2,4-2,6.1c0,0.1,0,0.3,0,0.4c-1.3-2.8-3.2-5-4.2-6.4c-1.1-1.5-1.5-2.7-1.5-3.9c0-1.5,0.7-2.9,1.5-4.3
		c0.1-0.1,0.1-0.2,0-0.3c0,0,0,0,0,0v-3c0-0.1,0-0.1-0.1-0.2c-0.1,0-0.1-0.1-0.2-0.1h-12c-0.1,0-0.1,0-0.2,0.1c0,0-0.1,0.1-0.1,0.2
		v2.9c0,0,0,0,0,0c-0.1,0.1-0.1,0.2,0,0.3c0.8,1.4,1.5,2.8,1.5,4.3c0,1.1-0.4,2.4-1.5,3.9c-1,1.4-3,3.7-4.3,6.6
		c0-0.2,0.1-0.5,0.1-0.7c0-2.1-0.8-4.1-1.9-6c0.1,0,0.1,0,0.2,0c0.5,0,1.2-0.2,2.1-0.9l0.4-0.3l-0.5-0.2c-5.1-2.3-5.2-3.9-5.8-5.6
		c-0.1-0.2-0.1-0.4-0.1-0.6c0-1.5,1.5-3.8,3.2-4.2c0.5-0.1,0.9-0.1,1.2-0.1c1.2,0,1.8,0.5,2.2,0.8c0.5,0.5,0.6,0.7,0.6,1.6
		c-0.3-0.1-0.6-0.2-1-0.2c-0.1,0-0.1,0-0.1,0c-0.7,0.1-1.6,0.9-1.8,1.7c0,0.1,0,0.3,0,0.4c0,0.8,0.4,1.9,1.7,2.2
		c0.2,0,0.4,0.1,0.6,0.1c1.2,0,2.1-0.6,2.6-1.3c0.3-0.4,0.7-1.3,0.7-2.6c0-0.7-0.1-1.6-0.6-2.5c-1.2-1.8-3.3-2.8-5.3-2.8
		c-2.4,0-4.9,1.3-6.2,3.9c-0.4,0.9-0.6,1.8-0.6,2.7c0,4.3,3.9,8.8,4.8,10.9c0.5,1.2,0.8,2.1,0.8,3c0,0.8-0.2,1.6-0.8,2.5
		c-0.1-0.2-0.3-0.4-0.5-0.6c-0.2-0.2-0.5-0.2-0.8-0.2c-0.6,0-1.3,0.2-1.7,0.7c-0.4,0.4-0.6,1-0.6,1.7c0,0.5,0.1,1,0.4,1.6
		c0.5,0.9,1.3,1.3,2.2,1.3h0c0.8,0,1.5-0.3,2.1-0.8c0.6-0.7,1.1-1.3,1.5-2c-0.2,0.8-0.3,1.7-0.3,2.6c0,3.2,1.4,6.8,5.4,10.2v2h13.1
		v-1.8l0.1,0c4.1-3.5,5.5-7.1,5.5-10.4c0-0.7-0.1-1.5-0.2-2.2c0.3,0.5,0.7,1.1,1.2,1.6c0.6,0.5,1.4,0.8,2.2,0.8h0
		c0.8,0,1.6-0.4,2.1-1.2c0.3-0.5,0.4-1.1,0.4-1.6c0-0.7-0.2-1.3-0.6-1.6c-0.5-0.5-1.2-0.7-1.8-0.7c-0.3,0-0.5,0-0.8,0.2
		c-0.2,0.2-0.4,0.4-0.5,0.5c-0.5-0.9-0.8-1.7-0.8-2.5c0-0.9,0.3-1.8,0.8-3C64.8,104.1,68.8,99.5,68.8,95.2 M43.9,92.2h11.5v2.5h-5.8
		l-5.8,0V92.2z M36,114.8c-0.4,0.4-1.1,0.6-1.7,0.6c-0.7,0-1.2-0.3-1.6-0.9c-0.2-0.4-0.3-0.9-0.3-1.3c0-0.6,0.2-1,0.4-1.2
		c0.3-0.3,0.9-0.5,1.3-0.5h0c0.2,0,0.4,0,0.4,0.1c0.3,0.2,0.6,0.8,0.6,0.8l0.2,0.5l0.3-0.5c0.8-1.2,1.2-2.2,1.2-3.3
		c0-1-0.3-2-0.9-3.2c-1-2.2-4.8-6.7-4.8-10.6c0-0.8,0.2-1.6,0.6-2.4c1.2-2.4,3.4-3.5,5.6-3.5c1.9,0,3.7,0.8,4.8,2.4
		c0.4,0.8,0.5,1.5,0.5,2.2c0,1.1-0.4,1.9-0.6,2.3c-0.3,0.5-1.1,1-2,1c-0.2,0-0.3,0-0.5-0.1c-0.9-0.2-1.2-1-1.2-1.5
		c0-0.1,0-0.2,0-0.2c0.1-0.4,1-1.2,1.2-1.2c0,0,0,0,0,0c0.4,0,0.9,0.3,1.1,0.4l0.4,0.2l0-0.5c0-0.2,0-0.4,0-0.5c0-1-0.3-1.5-0.8-2.1
		c-0.4-0.4-1.3-1-2.6-1c-0.4,0-0.9,0-1.4,0.2c-2,0.5-3.7,2.9-3.7,4.8c0,0.3,0,0.5,0.1,0.8c0.5,1.6,0.9,3.6,5.7,5.8
		c-0.6,0.4-0.9,0.5-1.2,0.5c-0.2,0-0.5,0-0.8,0l-0.6,0l0.3,0.5c1.3,2,2.2,4.1,2.2,6.2C38.4,111.1,37.8,112.9,36,114.8 M55.4,127.4
		H43.6v-1.1l6,0v0v0l5.8,0V127.4z M55.9,125.6H44.3l-0.9,0c-3.9-3.4-5.2-6.7-5.2-9.8c0-5.3,3.9-9.8,5.6-12c1.2-1.6,1.6-3,1.6-4.3
		c0-1.5-0.6-2.8-1.3-4.1l5.5,0h5.5c-0.7,1.3-1.3,2.6-1.3,4.1c0,1.3,0.4,2.7,1.6,4.3c1.7,2.2,5.6,6.8,5.6,12
		C61,118.9,59.7,122.2,55.9,125.6 M62.4,109.2c0,1.1,0.4,2.1,1.2,3.3l0.3,0.5l0.2-0.5c0,0,0.3-0.6,0.6-0.8c0,0,0.2-0.1,0.4-0.1
		c0.4,0,1,0.2,1.3,0.5c0.2,0.2,0.4,0.6,0.4,1.2c0,0.4-0.1,0.8-0.4,1.3c-0.4,0.6-1,0.9-1.6,0.9c-0.6,0-1.3-0.2-1.7-0.6
		c-1.7-1.9-2.3-3.7-2.3-5.4c0-2.1,0.9-4.2,2.3-6.3l0.3-0.5l-0.6,0c-0.3,0-0.5,0-0.8,0c-0.3,0-0.7-0.1-1.2-0.5
		c4.8-2.1,5.2-4.1,5.7-5.7c0.1-0.3,0.1-0.5,0.1-0.8c0-1.9-1.6-4.3-3.7-4.8c-0.5-0.1-1-0.2-1.4-0.2c-1.3,0-2.1,0.6-2.6,1
		c-0.6,0.5-0.9,1.1-0.8,2.1c0,0.2,0,0.3,0,0.5l0,0.5l0.4-0.2c0.2-0.1,0.7-0.4,1.1-0.4l0,0c0.2,0,1.2,0.8,1.2,1.2c0,0.1,0,0.2,0,0.3
		c0,0.6-0.3,1.4-1.2,1.5c-0.2,0-0.3,0-0.5,0c-0.9,0-1.7-0.5-2-1.1c-0.2-0.3-0.6-1.1-0.6-2.2c0-0.7,0.1-1.4,0.5-2.3
		c1.1-1.5,2.8-2.3,4.7-2.3c2.2,0,4.5,1.2,5.6,3.6c0.4,0.7,0.5,1.5,0.5,2.3c0,3.9-3.8,8.4-4.8,10.6C62.7,107.1,62.4,108.2,62.4,109.2
		 M62.5,217.1L62.5,217.1c-0.1,0.3-0.1,0.6-0.1,0.8c0,0.5,0.1,0.8,0.1,0.8l0.3-0.1c0,0-0.1-0.3-0.1-0.8c0-0.2,0-0.5,0.1-0.8
		L62.5,217.1z M60,217.8l-0.3-0.1c0,0.1,0,0.2,0,0.3c0,0.5,0.1,1.1,0.1,1.1l0.3-0.1c0,0-0.1-0.6-0.1-1.1C60,217.9,60,217.8,60,217.8
		 M67.5,217.5L67.5,217.5L67.5,217.5L67.5,217.5z M57.6,218.5h-0.3c0,0.5,0.6,0.8,0.6,0.9l0.2-0.2C57.9,219,57.5,218.8,57.6,218.5
		 M55.9,115.9c0,0.1,0.1,0.2,0.2,0.2c0.1,0,0.2-0.1,0.2-0.2c0-0.1-0.1-0.2-0.2-0.2C56,115.7,55.9,115.8,55.9,115.9 M53.1,115.3
		c0,0.1,0,0.2,0,0.3l0.3-0.1c0-0.1,0-0.1,0-0.2c0-0.7,0.7-1.2,1.5-1.2v-0.3C54,113.7,53.1,114.3,53.1,115.3 M144.6,183.7l-3.8-25.1
		l4-3.3l0.2-0.4l0-7.1c0-0.1-0.1-0.3-0.2-0.4c-0.1-0.1-0.2-0.2-0.4-0.2l-2.5,0l-0.7-4.4l0.7-2.2c0,0,0,0,0-0.1c0,0,0,0,0-0.1V138
		c0-0.1,0-0.2-0.1-0.3c-0.1-0.1-0.2-0.1-0.3-0.1h-1.1c-0.1,0-0.2,0-0.3,0.1c-0.1,0.1-0.1,0.2-0.1,0.3v1.1h-0.6v-1.1
		c0-0.1,0-0.2-0.1-0.3c-0.1-0.1-0.2-0.1-0.3-0.1h-1.4c-0.1,0-0.2,0-0.3,0.1c-0.1,0.1-0.1,0.2-0.1,0.3v1.1h-0.6v-1.1
		c0-0.1,0-0.2-0.1-0.3c-0.1-0.1-0.2-0.1-0.3-0.1h-1.3c-0.1,0-0.2,0-0.3,0.1c-0.1,0.1-0.1,0.2-0.1,0.3v2.6c0,0,0,0,0,0.1c0,0,0,0,0,0
		l0.7,2.2l-0.7,4.4l-2.2,0L132,143l0.8-2.2c0,0,0,0,0-0.1c0,0,0,0,0-0.1V138c0-0.1,0-0.2-0.1-0.3c-0.1-0.1-0.2-0.1-0.3-0.1h-1.1
		c-0.1,0-0.2,0-0.3,0.1c-0.1,0.1-0.1,0.2-0.1,0.3v1.1h-0.6V138c0-0.1,0-0.2-0.1-0.3c-0.1-0.1-0.2-0.1-0.3-0.1h-1.4
		c-0.1,0-0.2,0-0.3,0.1c-0.1,0.1-0.1,0.2-0.1,0.3v1.1h-0.6V138c0-0.1,0-0.2-0.1-0.3c-0.1-0.1-0.2-0.1-0.3-0.1H126
		c-0.1,0-0.2,0-0.3,0.1c-0.1,0.1-0.1,0.2-0.1,0.3v2.6c0,0,0,0,0,0.1c0,0,0,0,0,0.1l0.7,2.2l-0.7,4.3h-2.3l-0.7-4.3l0.7-2.1
		c0,0,0,0,0,0c0,0,0,0,0-0.1v-2.6c0-0.1,0-0.2-0.1-0.3c-0.1-0.1-0.2-0.1-0.3-0.1h-1.1c-0.1,0-0.2,0-0.3,0.1
		c-0.1,0.1-0.1,0.2-0.1,0.3v1.1h-0.6v-1.1c0-0.1,0-0.2-0.1-0.3c-0.1-0.1-0.2-0.1-0.3-0.1h-1.4c-0.1,0-0.2,0-0.3,0.1
		c-0.1,0.1-0.1,0.2-0.1,0.3v1.1h-0.5v-1.1c0-0.1,0-0.2-0.1-0.3c-0.1-0.1-0.2-0.1-0.3-0.1h-1.3c-0.1,0-0.2,0-0.3,0.1
		c-0.1,0.1-0.1,0.2-0.1,0.3v2.6c0,0,0,0,0,0.1c0,0,0,0,0,0l0.7,2.1l-0.7,4.3h-2.2c-0.3,0-0.5,0.2-0.5,0.5v7.2l0.2,0.4l3.9,3.2
		l-3.7,24.8l0,0l-5.4,5.2l-0.2,0.4v16.1c0,0.1,0.1,0.3,0.2,0.4c0.1,0.1,0.2,0.2,0.4,0.2h40.7c0.1,0,0.3-0.1,0.4-0.2
		c0.1-0.1,0.2-0.2,0.2-0.4v-15.9l-0.2-0.4L144.6,183.7z M143.5,183.2h-4.6v-2.2h4.3L143.5,183.2z M127,143.1h4.2l0.7,4h-1.6v-1.8
		c-0.1-0.8-0.6-1.3-1.1-1.3c-0.5,0-1,0.5-1.1,1.3l0,1.9h-1.7L127,143.1z M126.5,141h5.4l-0.6,1.7H127L126.5,141z M131.5,148.9h-4.7
		v-0.6h4.7V148.9z M128.4,147.1v-1.8c0.1-0.7,0.5-0.9,0.8-0.9c0.3,0,0.7,0.3,0.8,1v1.8H128.4z M126.8,149.5h4.7v1.2h-4.7V149.5z
		 M128.9,157.8h-3.6L125,155h3.9L128.9,157.8z M124.5,175h1.6v0c0,0,0.1,0,0.1,0h6c0,0,0,0,0,0h1.5v2.5h-9.2V175z M123.1,172h2.9
		v2.4h-2.9V172z M122.7,166h3.3v2.4h-3.3V166z M120.8,162.2h3.4v3.2h-3.4V162.2z M135.7,166v2.4h-3.2l0-2.4H135.7z M134.2,162.2h3.4
		v3.2h-3.4V162.2z M133.6,165.4h-1.1c-0.1-1.7-1.5-3.1-3.2-3.1c-1.7,0-3.1,1.4-3.2,3.1h-1.3v-3.2h8.8V165.4z M132.5,174.4l0-2.4h2.8
		v2.4H132.5z M134.3,175h4v2.5h-4V175z M135.8,172h3.8v2.5h-3.8V172z M137.4,171.4h-4.9l0-2.4h4.9V171.4z M136.2,168.4V166h2.6
		l0,2.4H136.2z M138.1,165.4v-3.2h2.2l0.5,3.2H138.1z M136.6,161.6v-2.8h3.2l0.4,2.8H136.6z M133.5,157.8l0.4-2.9h4.6l-1.4,2.9
		H133.5z M136,161.6h-4v-2.8h4V161.6z M133,157.8h-3.5l0-2.9h3.9L133,157.8z M131.5,161.6h-4.7v-2.8h4.7V161.6z M126.3,161.6h-4
		v-2.8h4V161.6z M120.5,157.8l-1-2.9h5l0.3,2.9H120.5z M121.8,158.9v2.8h-3.6l0.4-2.8H121.8z M120.2,162.2v3.2h-2.7l0.5-3.2H120.2z
		 M119.7,166h2.5v2.4h-2.5V166z M121,169h5v2.5h-5V169z M122.5,174.4h-3.8V172h3.8V174.4z M120.1,175h3.9v2.5h-3.9V175z
		 M121.8,180.5h-4v-2.4h4V180.5z M120.1,181.1h4.3v2.2h-4.3V181.1z M122.3,178.1h4.7v2.4h-4.7V178.1z M124.9,181.1h4v2.2h-4V181.1z
		 M127.6,178.1h3.2v2.4h-3.2V178.1z M129.5,181.1h3.9v2.2h-3.9V181.1z M131.4,178.1h4.7v2.4h-4.7V178.1z M133.9,181.1h4.4v2.2h-4.4
		V181.1z M136.6,178.1h4v2.4h-4V178.1z M143.1,180.5h-1.9v-2.4h1.6L143.1,180.5z M142.6,177.5h-3.7V175h3.3L142.6,177.5z
		 M142.1,174.4h-1.9V172h1.5L142.1,174.4z M141.7,171.4h-3.8V169h3.4L141.7,171.4z M140.9,166l0.4,2.4h-1.9l0-2.4H140.9z M140,157.8
		h-2.3l1.4-2.9h4.4L140,157.8z M136.3,143h4.2l0.7,4h-1.6l0-1.8c-0.1-0.8-0.6-1.3-1.1-1.3c-0.5,0-1,0.5-1.1,1.3v1.8l-1.7,0
		L136.3,143z M135.7,140.9h5.4l-0.6,1.7h-4.2L135.7,140.9z M140.8,148.9h-4.8v-0.6h4.8V148.9z M137.7,147v-1.8c0.1-0.7,0.5-1,0.8-1
		c0.3,0,0.7,0.3,0.8,1v1.8H137.7z M136.1,149.5h4.8v1.2h-4.8V149.5z M141.4,148.3l2.6,0l0,2.4h-2.6V148.3z M143.9,151.3l0,3.1h-4.7
		l0-3.1H143.9z M135.6,138.3h0.6v1.1c0,0.1,0,0.2,0.1,0.3c0.1,0.1,0.2,0.1,0.3,0.1h1.3c0.1,0,0.2,0,0.3-0.1c0.1-0.1,0.1-0.2,0.1-0.3
		v-1.1h0.6v1.1c0,0.1,0,0.2,0.1,0.3c0.1,0.1,0.2,0.1,0.3,0.1h1.3c0.1,0,0.2,0,0.3-0.1c0.1-0.1,0.1-0.2,0.1-0.3v-1.1h0.4v1.9h-5.7
		V138.3z M138.7,154.4h-4.8v-3.1h4.8V154.4z M132.1,148.3h3.4v2.4h-3.4V148.3z M133.4,151.3v3.1h-4l0-3.1H133.4z M126.4,138.4h0.6
		l0,1.1c0,0.1,0,0.2,0.1,0.3c0.1,0.1,0.2,0.1,0.3,0.1h1.3c0.1,0,0.2,0,0.3-0.1c0.1-0.1,0.1-0.2,0.1-0.3v-1.1h0.6l0,1.1
		c0,0.1,0,0.2,0.1,0.3c0.1,0.1,0.2,0.1,0.3,0.1h1.3c0.1,0,0.2,0,0.3-0.1c0.1-0.1,0.1-0.2,0.1-0.3v-1.1h0.4v1.9h-5.7V138.4z
		 M128.9,151.3l0,3.1h-3.9v-3.1H128.9z M122.8,148.3h3.5v2.4h-3.5V148.3z M124.4,151.3v3.1h-5.1l0-3.1H124.4z M117.6,143.1h4.2
		l0.7,4h-1.6v-1.8c-0.1-0.8-0.6-1.3-1.1-1.3c-0.5,0-1,0.5-1.1,1.3l0,1.8l-1.7,0L117.6,143.1z M117.1,141.1h5.3l-0.6,1.6h-4.2
		L117.1,141.1z M122.2,149h-4.7v-0.7h4.7V149z M119,147v-1.8c0.1-0.7,0.5-0.9,0.8-0.9c0.3,0,0.7,0.3,0.8,1v1.8H119z M117.5,149.5
		h4.7v1.2h-4.7V149.5z M116.9,138.5h0.6v1.1c0,0.1,0,0.2,0.1,0.3c0.1,0.1,0.2,0.1,0.3,0.1h1.3c0.1,0,0.2,0,0.3-0.1
		c0.1-0.1,0.1-0.2,0.1-0.3v-1.1h0.6v1.1c0,0.1,0,0.2,0.1,0.3c0.1,0.1,0.2,0.1,0.3,0.1h1.3c0.1,0,0.2,0,0.3-0.1
		c0.1-0.1,0.1-0.2,0.1-0.3v-1.1h0.4v1.9h-5.7V138.5z M114.5,148.3h2.5v2.4h-2.5V148.3z M114.5,151.3h4.3v3.1h-4.3V151.3z M114.8,155
		h4.1l1,2.9h-1.6L114.8,155z M117.5,166h1.6v2.4h-2L117.5,166z M117,169h3.4v2.5h-3.8L117,169z M116.5,172h1.6v2.4h-2L116.5,172z
		 M116.1,175h3.4v2.5h-3.8L116.1,175z M115.6,178.1h1.6v2.4h-2L115.6,178.1z M115.2,181.1h4.3v2.2h-4.7L115.2,181.1z M114.3,184.3
		h29.5l1.8,1.8h-33.2L114.3,184.3z M111.8,186.7h34.3l2,2h-38.5L111.8,186.7z M144.3,198.9h-5.1v-2.4h5.1V198.9z M146.8,202h-4.7
		v-2.5h4.7V202z M134.5,196.5h4.1v2.4h-4.1V196.5z M136.3,202h-1.7v-2.5h1.7V202z M134.5,193.5h1.7v2.5h-1.7V193.5z M136.8,193.5
		h4.7v2.5h-4.7V193.5z M136.8,199.5h4.7v2.5h-4.7V199.5z M142.1,193.5h4.7v2.5h-4.7V193.5z M144,192.9h-4.8v-3.6h4.8V192.9z
		 M118.7,198.9h-5v-2.4h5V198.9z M121.2,202h-4.7v-2.5h4.7V202z M115.9,202h-4.7v-2.5h4.7V202z M111.2,193.5h4.7v2.5h-4.7V193.5z
		 M116.5,193.5h4.7v2.5h-4.7V193.5z M118.7,192.9H114v-3.6h4.7V192.9z M109.2,189.3h4.2v3.6h-4.2V189.3z M109.2,193.5h1.4v2.5h-1.4
		V193.5z M109.2,196.5h3.9v2.4h-3.9V196.5z M109.2,199.5h1.5v2.5h-1.5V199.5z M113.1,204.6h-3.9v-2h3.9V204.6z M118.8,204.6h-5.1v-2
		h5.1V204.6z M123.5,204.6h-4.1v-2h4.1V204.6z M123.5,202h-1.7v-2.5h1.7V202z M123.5,198.9h-4.2v-2.4h4.2V198.9z M123.5,195.9h-1.7
		v-2.5h1.7V195.9z M129.1,190.5c-2,0-4,0.8-5.3,2.4h-4.6v-3.6h19.4v3.6h-4.5C132.9,191.3,131,190.5,129.1,190.5 M138.7,204.6h-4.1
		v-2h4.1V204.6z M144.3,204.6h-5.1v-2h5.1V204.6z M148.8,204.6h-3.9v-2h3.9V204.6z M148.8,202h-1.5v-2.5h1.5V202z M148.8,198.9h-3.9
		v-2.4h3.9V198.9z M148.8,195.9h-1.5v-2.5h1.5V195.9z M148.8,192.9h-4.3v-3.6h4.2l0.1,0.1V192.9z M64.9,147c0.3-0.2,0.4-0.6,0.4-0.9
		c0-0.1,0-0.1,0-0.1c0-0.1-0.1-0.5-0.6-0.6c0,0-0.1,0-0.1,0c-0.6,0-0.7,0.7-0.7,0.7c0,0.1,0.1,0.3,0.3,0.4c-0.1,0.1-0.3,0.1-0.4,0.1
		h0l0,0c0,0-0.1,0-0.1,0.2c0.2,0.4,0.4,0.2,0.8,0.3C64.6,147.1,64.8,147.1,64.9,147 M64.3,146.1c0,0,0-0.1,0.1-0.2
		c0.1-0.1,0.1-0.2,0.3-0.2c0,0,0,0,0.1,0c0.4,0.1,0.3,0.2,0.4,0.4v0c0,0.1-0.2,0.6-0.2,0.6c-0.1,0-0.2,0.1-0.4,0.1
		c0.1-0.1,0.2-0.2,0.3-0.3c0,0,0-0.1,0-0.2c0-0.1-0.1-0.1-0.1-0.1C64.3,146.2,64.3,146.1,64.3,146.1 M18.4,147
		c0.3-0.2,0.4-0.6,0.4-0.9c0-0.1,0-0.1,0-0.1c0-0.1-0.1-0.5-0.6-0.6c0,0-0.1,0-0.1,0c-0.6,0-0.7,0.7-0.7,0.7c0,0.1,0.1,0.3,0.3,0.4
		c-0.1,0.1-0.3,0.1-0.4,0.1h0l0,0c0,0-0.1,0-0.1,0.2c0.2,0.4,0.4,0.2,0.8,0.3C18.1,147.1,18.3,147.1,18.4,147 M17.8,146.1
		c0,0,0-0.1,0.1-0.2c0.1-0.1,0.1-0.2,0.3-0.2c0,0,0,0,0.1,0c0.4,0.1,0.3,0.2,0.4,0.4v0c0,0.1-0.2,0.6-0.2,0.6
		c-0.1,0-0.2,0.1-0.3,0.1c0.1-0.1,0.2-0.2,0.3-0.3c0,0,0-0.1,0-0.2c0-0.1-0.1-0.1-0.1-0.1C17.8,146.2,17.8,146.1,17.8,146.1
		 M60.9,145.2c0,0-0.1,0-0.1,0c-0.3,0-0.7,0.1-0.8,0.5c-0.1,0.1-0.1,0.3-0.1,0.4c0.1,0.4,0,0.6,0.3,0.8c0.1,0,0.2-0.1,0.2-0.2v0
		c0,0,0-0.2,0.1-0.4c0.1,0.3,0.3,0.3,0.4,0.3c0,0,0.7-0.1,0.7-0.7c0-0.1,0-0.1,0-0.2C61.4,145.2,60.9,145.2,60.9,145.2 M60.8,146.3
		c0,0,0,0-0.1-0.4c0-0.1,0-0.1-0.1-0.1c0,0,0,0-0.1,0c0,0-0.1,0-0.1,0c-0.1,0.1-0.2,0.2-0.3,0.3V146c0-0.1,0-0.2,0.1-0.3
		c0-0.1,0.4-0.3,0.5-0.3c0,0,0,0,0,0v0c0.2,0.1,0.3,0,0.4,0.4c0,0,0,0.1,0,0.1C61.2,146.1,60.8,146.3,60.8,146.3 M189.3,36.2
		l-186.8,0c0,0-0.1,97-0.1,112.9c0,31.5,23.3,58.7,46.5,78.1c11.6,9.7,23.2,17.5,31.9,22.9c4.4,2.7,8,4.8,10.5,6.3
		c1,0.6,1.8,1,2.4,1.4l2.2,1.5l1.7-1.2c4.6-2.7,25.7-14.3,46.3-31.9c22.7-19.4,45.3-46.2,45.3-77.2
		C189.4,135.4,189.3,36.2,189.3,36.2 M52.2,38.7l3.4,0l0.3,0.1l1.7,0.8L56,39.9L55.4,40l1.2,1.2L55.2,41l-0.7-0.1l1.3,1.8l-1.2-0.5
		l-0.6-0.3l0.6,1.9l-1.2-0.9l-0.6-0.5l0.2,2.2l-0.7-0.4c-0.1-0.7-0.1-1.6-0.3-2.9c0,0,0-0.1,0-0.2C51.8,40.6,51.9,39.3,52.2,38.7
		 M46.9,41l0-2.2l4.7-0.1c-0.3,0.8-0.3,1.9-0.3,2.4c0,0.2,0,0.3,0,0.3c0.3,2.1,0.4,3.3,0.4,4c0,0.4,0,0.6-0.1,0.7l0,0
		c0,0,0,0-0.1,0.1c0,0,0,0,0,0.1c-0.9,2.1-1.7,4.4-1.7,4.4l0.3,2.4c0.1,0.2,0.1,0.3,0.1,0.5c0,0.9-0.8,2.1-1.2,2.1h-0.1
		c-0.3,0-0.4-0.6-0.4-0.8c0,0,0,0,0,0v0c0-0.1,0-0.1-0.1-0.3c0.1-0.1,0.3-0.2,0.5-0.2c0.1,0,0.2,0,0.2,0.1l0.3-0.2
		c-0.1-0.2-0.3-0.3-0.5-0.3c-0.3,0-0.5,0.1-0.6,0.2c0-0.1-0.1-0.3-0.2-0.6c-0.4-1.3-0.8-4.5-0.8-4.5l0-0.2l-0.1,0
		c-0.4-0.1-1.4-0.2-1.4-0.2c-0.6,0-1.1-0.1-1.6-0.3c-0.2-0.1-0.4-0.2-0.5-0.2c0.4-1,1.7-3.2,1.7-3.2l0.2-0.2l-0.2-0.1l0.2,0.1
		c1.2-2,1.4-3.2,1.4-3.6V41z M52.1,60.6c-1.2,0.1-1.7-0.1-3.1,0.6v-0.3c1.1-0.6,1.6-0.7,2.3-0.7c0.2,0,0.5,0,0.9,0
		c0.1,0,0.2,0,0.2,0c1.2,0,2.1-0.3,2.7-0.6C55.7,59.3,56,59,56,59l0.1,0v-9.7l0.3-0.2l0,10.2C55.1,60,55.3,60.4,52.1,60.6
		 M56.7,59.5l0.1-9.8l0.3-0.2l0,10.5c-1.5,1.3-3.3,1.5-4.6,1.5c-0.3,0-0.6,0-0.8,0c-0.1,0-0.1,0-0.2,0c-1,0-2.1,0.5-2.6,0.7v-0.6
		c1.5-0.8,1.8-0.6,3.1-0.7C55.3,60.8,55.4,60.3,56.7,59.5 M55.8,58.8c-0.3,0.3-1.4,1-3.5,1.1h-0.2c-0.3,0-0.6,0-0.9,0
		c-0.7,0-1.3,0.1-2.3,0.7V60c0.4-0.2,1.6-0.6,2.7-0.6c0.3,0,0.6,0,0.9,0.1c0.1,0,1.7-0.1,2.8-1.1l0.1-9.4l0.4-0.2V58.8z M55.1,58.3
		c-0.9,0.7-2.5,0.8-2.5,0.8C52.3,59,52,59,51.7,59c-1.1,0-2.2,0.4-2.7,0.6v-3.5c0,0,0,0,0.1,0c0.9-0.2,1.6-1.5,1.7-2.6
		c0-0.2,0-0.4-0.1-0.6l-0.3-2.2c0,0,0.2-0.6,0.6-1.5c0,0,0,0,0,0c1,0,1.8,0.2,1.8,0.2c0.1,0,0.2,0,0.2,0c0.9,0,1.7-0.4,2.2-0.6V58.3
		z M48.6,55.9v3.7c-0.4-0.2-1.4-0.6-2.9-0.6c-0.1,0-0.3,0-0.4,0c0,0,0,0,0,0c-0.3,0-2-0.1-2.9-1l0-9.9c0.7,0.3,1.9,0.8,2.9,1
		c0.3,0,1.3,0.1,1.6,0.1c0.1,0.7,0.4,3.3,0.8,4.4c0.2,0.7,0.3,0.9,0.3,1c0,0,0,0,0,0.1C48,54.9,48,55.7,48.6,55.9 M42.1,38.7h4.3
		l0,2.3v0.1c0,0.3-0.1,1.4-1.3,3.3L45,43.1l0-0.6l-1.5,1.1v-1.3L42,43.2l0.3-1.1l0.1-0.5L40.3,42l1-1.4l0.4-0.5L39.9,40l1.9-1.1
		L42.1,38.7z M40.4,38.9L38.6,40l-0.9,0.5l2.8,0.2l-1.2,1.6L38.8,43l2.7-0.6l-0.4,1.3l-0.2,0.8l1.9-1.1l0,0.8v0.6l1.6-1.1l0.1,1.5
		l0,0.1c-0.5,0.8-1.2,2.1-1.4,2.7c-0.3-0.1-0.7-0.3-0.9-0.4L42,47.6v10.5c1.1,1.2,2.9,1.2,3.2,1.2h0c0.2,0,0.3,0,0.4,0
		c0.8,0,1.6,0.2,2.1,0.3c0.5,0.2,0.8,0.3,0.8,0.3l0,0v0.5c-1.4-0.8-1.9-0.6-3.2-0.7c-1.3-0.1-2.5-0.4-3.7-1.2V48.6h-0.4v10.2
		l0.1,0.1c1.3,0.9,2.6,1.2,4,1.3c1.4,0.1,1.7-0.1,3.2,0.7v0.3c-1.4-0.7-1.9-0.6-3.1-0.6c-1.9-0.1-3.3-0.9-4.4-1.5V49h-0.4v10.2
		l0.1,0.1c1.1,0.7,2.6,1.5,4.6,1.6c1.4,0.1,1.7-0.1,3.2,0.7v0.5c-1.1-0.7-2.4-0.8-2.8-0.8c-0.1,0-0.1,0-0.1,0L44,61.2
		c-1.5-0.3-3.8-1.8-3.8-1.8l0.1-9.9H40v10.1c0.1,0.1,2.3,1.6,4,2l1.7,0.2c0,0,0.1,0,0.1,0c0.4,0,1.9,0.1,2.8,0.8l0.1,0.1l0.1,0
		c0,0,1.6-0.8,2.8-0.8c0.1,0,0.1,0,0.1,0c0.2,0,0.5,0,0.8,0c1.3,0,3.2-0.2,4.8-1.7l0.1-11.3l-0.7,0.4l0-0.7l-0.7,0.3v-0.8l-0.7,0.4
		l0-0.3l-0.3,0.1c0,0-1.2,0.6-2.3,0.6c-0.1,0-0.1,0-0.2,0c0,0-0.8-0.2-1.7-0.2c0.3-0.7,0.6-1.6,1-2.4c0.1-0.1,0.2-0.4,0.2-1.1
		c0-0.1,0-0.2,0-0.3l0.9,0.5l0.5,0.3l-0.2-2l1.4,1.1l0.8,0.6l-0.8-2.5l1.7,0.7l1.1,0.5l-1.8-2.5l1.6,0.2l0.9,0.1l-1.7-1.7l2-0.4
		l1-0.2l-2.1-1l8.1,0.2l-3.4,2.1l5.1,1.8l-4.5,0.5l4.7,2.1l-2.6,0.1l-1.1,0.1l4.6,2.5l-4.7,0l6.1,3.4L66,51.1l1.8,3.2l-4.2-2.1
		l3.3,5.2l-3.2-1.6l1.6,3.2l-3.2-2.1l1.8,5.6l-3.8-3l1.3,5.3l-3.2-3l-0.4,3.8l-2.3-3L54.5,66l-2.1-2.3l-1,2.7l-2.2-2.3l-1.7,2.6
		L46,64l-2.3,2.3l-0.5-2.4l-0.1-0.5l-2.3,1.5L40.4,63l-0.1-0.5l-2.2,1.9l0.1-2.3l0-0.7l-2.5,1.9l0-3l0-0.6l-4,2.5l2.3-4.7l-4.5,1.7
		l3.2-4.5l-3.6,0.6l4.1-4l-4.9,0.5l4.2-3.3L29.6,48l3.7-1.9L30.1,45l4.3-1.3l-2.8-1.2l3.2-1.1l-2.2-2.3L40.4,38.9z M95.1,255.8
		c-5.8-3.4-25.8-14.5-45.7-31.4c-9.8-8.3-19.5-18-27.3-28.8l29.4-15.6l43.7,24.7V255.8z M95.1,182.2l-43.7-24.7l-39.6,21
		c-4.3-9.3-7-19.1-7-29.4c0-3.2,0-9.9,0-18.3h90.2V182.2z M95.1,129H4.9V38.6l26.3,0l2.3,2.4l-3.8,1.4l2.7,1.2L28,44.9l3.7,1.3
		l-4.1,2l3.4,0.6l-4.8,3.8l5.3-0.5l-4.2,4.1l4.1-0.7l-3.6,4.9l5-1.9l-2.5,5.2l4.9-3.1l0,3.1l0,0.7l2.4-1.9l-0.1,2.3l0,0.7l2.6-2.1
		l0.4,1.8l0.1,0.5l2.2-1.5l0.5,2.6l0.1,0.6l2.6-2.6l1.6,2.9l1.8-2.8l2.4,2.5l1-2.7l2.3,2.4l0.7-3.3l2.5,3.2l0.5-4.1l3.9,3.6L61,61.1
		l3.9,3.2l-1.9-5.9l3.7,2.4L65,57.2l3.6,1.8l-3.3-5.3l4.1,2l-2.1-3.8l5.9,0.8l-6.9-3.8l4.7,0l-4.8-2.7l2.8-0.2l1.3-0.1l-5-2.2
		l4.9-0.6L63.8,41l3.7-2.3l27.6,0V129z M157.1,38.7h14.5v34.6h-14.5V38.7z M142,38.7h14v34.6h-14V38.7z M127,38.7H141v34.6H127V38.7
		z M112,38.7h14v34.6h-14V38.7z M96.9,38.7H111v34.6H96.9V38.7z M96.9,74.3h90c0,18,0,39.1,0,54.7H96.9V74.3z M141.4,225.3
		c-11.4,9.6-22.9,17.4-31.5,22.8c-4.3,2.7-7.9,4.8-10.4,6.3c-1.1,0.6-1.9,1.1-2.5,1.5v-125h90.1c0,8.5,0,15.1,0,18.3
		C187,179.3,164.3,206.1,141.4,225.3 M186.9,73.3h-14.3V38.7h14.4C186.9,42.8,186.9,56.6,186.9,73.3 M61.5,80.8
		c-2.2,1.6-4.1,3.5-4.9,4.4c0.6-0.7,1.2-1.4,1.6-1.8c1.4-1.2,3.1-3.2,4.2-9.7c0-0.1,0-0.2-0.1-0.3c-0.1-0.1-0.2-0.1-0.3,0
		c-3.9,2.4-5.4,4.2-8.3,8l0.2,0.2l-0.2-0.1c-0.3-0.4-0.7-0.7-1.1-0.9c0.3-0.8,0.5-1.7,0.8-2.7c0.5-0.6,1-1.5,1.3-2.6
		c0-0.1,0-0.1,0-0.2c0-0.1-0.1-0.1-0.2-0.1c-0.1,0-0.3,0-0.4,0c0.3-1.4,0.4-2.9,0.4-4.2c0-0.7-0.1-1.5-0.2-2.1
		c0-0.1-0.1-0.2-0.2-0.2c-0.1,0-0.2,0.1-0.3,0.2c-0.2,1-2.1,4.8-3.1,6.5l0,0.2c-0.8,0.3-1.4,0.8-1.9,1.5c0,0-0.1,0.1-0.2,0.3
		c0.1-0.4,0.2-0.8,0.2-1.2c0-1.3-0.7-2.5-2.1-3.8l-0.3,0c-1.2,0.9-1.6,2.2-1.6,3.4c0,0.6,0.1,1.2,0.3,1.8c-0.3-0.4-0.9-0.8-1.5-1.1
		c-1-2.8-3.1-7.8-3.2-8.2c0-0.1-0.1-0.2-0.3-0.2c-0.1,0-0.2,0.1-0.3,0.2c-0.1,0.7-0.1,1.4-0.1,2.1c0,2.7,0.5,4.7,0.6,5.3
		c-0.1,0-0.1,0-0.2,0c-0.1,0-0.2,0-0.4,0c-0.1,0-0.2,0-0.2,0.1c0,0.1-0.1,0.1,0,0.2c0.3,1.1,0.7,2,1.2,2.7c-0.9-1-1.9-2-2.7-2.5
		c-0.9-0.5-1-0.7-1.9-1.2c-0.9-0.5-3.5-2.2-7-2.7c-0.1,0-0.2,0-0.2,0.1c-0.1,0.1-0.1,0.2,0,0.3c1,2.3,1.1,3.7,6,6
		c1.4,0.6,2.6,1.5,6.2,4.7c0,0.1-0.1,0.2-0.1,0.3c-3.8-2.6-8.7-4.3-9.4-4.5c-0.7-0.2-2.6-0.8-3.6-0.9c-0.9-0.1-3.7-0.8-5.7-1.8
		c-0.1,0-0.2,0-0.3,0.1c-0.1,0.1-0.1,0.2,0,0.3c0,0,1.2,1.8,1.8,2.9c0.8,1.3,3.7,2.1,6.5,3c2.9,0.9,3.4,1,6.5,2.2
		c3.2,1.3,6.4,2.5,8.2,5.8l0.2,0.1l0.9,0l1.6,0c0.1,0,0.1,0,0.2-0.1c0,0,0.1,0.1,0.2,0.1l1.9,0c0.1,0,0.2-0.1,0.3-0.2
		c0.1-0.7-0.1-3.5,1.3-6.3c0.2,0,0.4,0,0.7,0l-0.1,0.2c-0.4,0.5-1.3,2.6-1.4,6.1c0,0.1,0,0.1,0.1,0.2c0.1,0,0.1,0.1,0.2,0.1l1.6-0.1
		h1.3c0,0,0.1,0,0.1,0c0,0,0.1,0.1,0.2,0.1l2.1,0.1c2.4-1.5,4.5-2,6.4-2c6.8,0,11.4,7.2,11.4,7.2c0.6,0.7,3.4,2.7,3.4,2.7
		c0.1,0,0.2,0.1,0.2,0c0.1,0,0.1-0.1,0.2-0.2c0.1-0.5,0.1-1.1,0.1-1.7c0-1.1-0.1-2.2-0.1-2.2c-2-7.2-8-8.8-12.6-8.7
		c-0.7,0-1.3,0-1.9,0.1c1.5-0.4,3.1-0.7,4.2-0.7c0.2,0,0.3,0,0.5,0c2.3,0.3,3.9,0.4,6.3,1.9c1.2,0.7,3.7,3.3,3.9,3.6
		c0.4,0.5,0.8,0.9,0.8,0.9c0,0,0,0.1,0,0.1c0,0.2-0.1,0.5-0.1,0.9c0,0,0,0.1,0,0.1c0,0.3,0.1,0.6,0.2,0.7c0,0,0,0,0,0
		c0,0.2,0.1,0.2,0.1,0.2c0,0.1,0,0.1,0,0.2c0,0,0,0,0,0c0,0.1-0.1,0.2-0.1,0.3c-0.1,0.2-0.2,0.5-0.2,0.8c0,0.1,0,0.2,0,0.3
		c0,0.1,0,0.2,0.1,0.4c0,0.1,0.1,0.3,0.1,0.5c0,0.2,0.1,0.3,0.1,0.4c0.1,0.5,0.2,0.9,0.2,1.4c0,0.7-0.1,1.4-0.6,2.3
		c0,0.1,0,0.2,0,0.3v0c0,0.1,0.1,0.1,0.2,0.1h0c0,0,2.4-0.2,3.7-1.6c0.1-0.1,0.1-0.1,0.1-0.2v0c0-0.1-0.1-0.1-0.1-0.2
		c0,0-0.1,0-0.2-0.1c1,0.6,2.4,0.7,4,0.7c0.1,0,0.1,0,0.2-0.1c0,0,0.1-0.1,0.1-0.2c0,0,0-0.1,0-0.1c0,0,0-0.1-0.1-0.1
		c0.2,0,0.4,0.1,0.6,0.1c0,0,0,0,0,0c0.1,0,0.2-0.1,0.3-0.2l0,0c0-0.1,0-0.3-0.1-0.3h0c-0.1,0-0.5-0.5-0.8-0.9
		c-0.1-0.1-0.1-0.3-0.2-0.4c0-0.1,0-0.3-0.1-0.4l0.2,0.1c0.1,0,1.2-0.1,3-1.8c0.1-0.1,0.1-0.2,0.1-0.3h0c0,0,0,0,0,0
		c0-0.1-0.1-0.2-0.2-0.2c-0.3,0-1.2-0.1-1.9-0.5c0,0-0.1-0.1-0.1-0.1c-0.2-0.1-0.4-0.3-0.6-0.4c-0.9-1-1.7-1.6-2.4-1.8
		c-0.2,0-0.4,0-0.6,0h-0.1c-0.1,0-0.1,0-0.1,0c-0.1,0-0.2,0-0.3,0c-0.1,0-0.2-0.1-0.2-0.2c0,0,0,0,0,0c-0.4-0.6-1.1-0.9-1.5-0.9
		c-0.5-0.1-0.3,0-0.6-0.2c-0.3-0.3-0.6-0.7-1.9-2.2c-1.3-1.6-3.3-2.8-4.8-3.5c-1.2-0.6-3-0.8-4.2-0.9c0.2,0,0.3-0.1,0.5-0.1
		c0.3-0.1,2.3-0.1,3.7-0.1c0.5,0,1,0,1.2,0c0.4,0.1,0.8,0.1,1.3,0.1c4.2-0.1,7.5-2.6,7.6-3.3c0-0.2-0.2-0.3-0.3-0.3
		c-0.1,0-0.2,0-0.2,0.1c-0.3,0.1-1,0.2-1.7,0.2c-1.6,0-3.4-0.2-3.4-0.2c-0.6-0.1-1.2-0.1-1.8-0.1c-5.3,0-11.4,2.6-11.4,2.6
		c-0.1,0-0.2,0-0.3,0.1c0.7-0.3,1.3-0.6,1.4-0.6c0.1,0,1.9-1.1,2.6-1.8c0.8-0.7,2.5-1.9,3.5-2.7c1.1-0.8,4.2-3.5,4.8-4.4
		c0.5-0.7,2.1-1.9,4.5-3.6c0.1-0.1,0.1-0.2,0.1-0.3c0-0.1-0.1-0.2-0.2-0.2c0,0-0.1,0-0.2,0c-0.9,0-4.5,0-6.4,1.2
		c-0.8,0.5-3.2,1.7-4.7,3.4C69.2,74.6,63.3,79.4,61.5,80.8 M52.3,80.3c-0.4-0.2-0.9-0.4-1.4-0.5c0.6-0.3,1.3-0.6,2-1.2
		C52.6,79.2,52.4,79.7,52.3,80.3 M54.1,69.7c0,0.3,0,0.7,0,1c0,1.3-0.2,2.7-0.4,4.1c-0.2,0-0.4-0.1-0.6-0.1c-0.6,0-1.1,0.1-1.6,0.2
		C52.2,73.6,53.4,71.2,54.1,69.7 M49.3,77c0.8-1.1,2-1.7,3.7-1.7c0.4,0,0.7,0,1.1,0.1c-0.9,3-2.9,3.6-4.2,4.2l0,0
		c-0.2,0-0.3-0.1-0.5-0.1c-0.1-0.6-0.5-1.2-1-1.6c0,0,0,0,0,0C48.9,77.5,49.3,77,49.3,77 M46.9,82c-1.1,0-1.9-0.9-1.9-1.9
		c0-0.1,0-0.1,0-0.2c0,0,0-0.1,0-0.1c0-0.1,0-0.3,0.1-0.4l0.2-0.4c0.3-0.5,0.9-0.8,1.5-0.8c1.1,0,1.9,0.9,1.9,1.9
		C48.9,81.1,48,82,46.9,82 M48.8,82.4L48.8,82.4C48.8,82.4,48.8,82.3,48.8,82.4C48.8,82.3,48.8,82.3,48.8,82.4 M46.6,72.5
		c1.3,1.2,1.8,2.3,1.8,3.3c0,0.6-0.2,1.1-0.4,1.8c-0.1-0.1-0.2-0.1-0.4-0.1c0,0-0.1,0-0.1,0c-0.2,0-0.3-0.1-0.5-0.1
		c-0.4,0-0.8,0.1-1.1,0.3c-0.3-0.7-0.5-1.5-0.5-2.3C45.3,74.3,45.7,73.3,46.6,72.5 M40.3,69.9c0-0.2,0-0.5,0-0.7
		c0.6,1.6,1.8,4.4,2.6,6.4c-0.4-0.2-1-0.4-1.6-0.4c-0.1,0-0.2,0-0.4,0C40.8,74.6,40.3,72.6,40.3,69.9 M40.2,75.7L40.2,75.7
		c2,0,3.3,0.7,4,1.3c0.4,0.3,0.7,0.7,0.8,0.9c0,0.1,0.1,0.1,0.1,0.1c-0.5,0.5-0.9,1.2-0.9,2C44.1,80,44,80,43.8,80
		c-0.2,0-0.4,0-0.6,0.1C42.2,79.4,41,78.2,40.2,75.7 M42.6,80.3C42.6,80.3,42.6,80.3,42.6,80.3C42.6,80.3,42.6,80.3,42.6,80.3
		c-0.1,0-0.1-0.1-0.2-0.2C42.5,80.2,42.6,80.2,42.6,80.3 M35,77.6c-4.5-2.2-4.7-3.3-5.5-5.3c3.2,0.6,5.5,2.1,6.4,2.6
		c0.9,0.5,1,0.7,1.9,1.2c1.4,0.9,3.8,3.7,4.4,4.5c-0.4,0.4-0.7,0.9-1,1.6C37.8,79.2,36.5,78.3,35,77.6 M42.9,80.8
		c0.4-0.2,0.7-0.2,1-0.2c0.2,0,0.4,0,0.5,0.1c0.1,0.6,0.5,1.2,0.9,1.6c-0.9,1.6-1.1,2.5-4.5,2.9C41.5,82.4,42.1,81.1,42.9,80.8
		 M45.2,83.4c0,0.1,0,0.3,0,0.4c0-0.1-0.1-0.1-0.1-0.2C45.1,83.5,45.2,83.5,45.2,83.4 M37,83.9c-3.1-1.2-3.7-1.3-6.6-2.3
		c-2.8-0.9-5.7-1.9-6.2-2.8c-0.4-0.6-0.9-1.5-1.4-2.1c1.9,0.8,4.1,1.4,5,1.5c0.9,0.1,2.9,0.6,3.5,0.8c0.6,0.2,5.7,2,9.4,4.5
		c-0.1,0.5-0.3,1.1-0.5,1.7c0,0,0,0.1,0,0.1C39.2,84.8,38.1,84.4,37,83.9 M46.1,89.8L46.1,89.8L46.1,89.8l-0.8,0
		c-1.1-2-2.8-3.3-4.7-4.3c0.8-0.1,1.5-0.2,2.1-0.3c0.3,0.3,0.5,0.5,0.7,0.7c0,0.1,0.1,0.2,0.1,0.2c0,0.1,0.1,0.2,0.1,0.2
		c0,0,0,0,0,0.1l0,0c0,0-0.1,0,0.2,0.1c0.1,0,0.1,0,0.2-0.1c0.1-0.1,0.1-0.1,0.1-0.2c0-0.2,0-0.1-0.1-0.3c0-0.1-0.1-0.2-0.2-0.3
		c-0.1-0.3-0.2-0.5-0.4-0.8c0.6-0.2,1-0.5,1.3-0.9c0.1,0.2,0.3,0.4,0.4,0.7c0,1.1,0.5,2.3,1.6,3.3c0.2,0.6,0.5,1.2,0.7,1.8H46.1z
		 M47.8,89.6c-0.1-0.3-0.2-0.6-0.3-0.9c0,0,0.1,0,0.1,0c0.1,0,0.2,0,0.2-0.1c0,0,0.1-0.1,0.1-0.2C47.9,88.7,47.9,89.1,47.8,89.6
		 M47.6,88.1c-1.5-1.1-1.9-2.4-1.9-3.6c0-0.7,0.1-1.3,0.3-1.8c0.3,0.1,0.6,0.2,0.6,0.2l1-0.1l0-0.1h0l0,0.1c0.2,0,0.3-0.1,0.4-0.2
		c0.1,0,0.1-0.1,0.2-0.1c0.1,0,0.1-0.1,0.2-0.1c0.4,0.7,0.6,1.4,0.6,2.2C48.8,85.7,48.4,86.9,47.6,88.1 M49.7,89.9l-1.4,0
		c0.1-0.6,0.1-1.1,0.1-1.4c0-0.2,0-0.3,0-0.3l0.1-0.6c0.5-0.9,0.8-1.9,0.8-2.9c0-0.4-0.1-0.8-0.2-1.2l0.1-0.6c0.6,0.5,1.3,0.8,1.7,1
		C49.7,86.4,49.8,89,49.7,89.9 M51.2,83.3c-0.3,0-1.9-1-2.3-1.5c0.2-0.2,0.3-0.4,0.3-0.4l0.1-0.3c0-0.1,0-0.2,0.1-0.3l0.1-0.3l0,0
		c0,0,0,0,0,0l0,0c0-0.1,0-0.1,0-0.2c0-0.1,0-0.2,0-0.2c2.5,0.3,3.7,1,4.7,2.9c-0.8,0.3-1.5,0.4-2.1,0.4
		C51.8,83.3,51.4,83.3,51.2,83.3 M53.7,89.8h-1.1l-1.4,0c0.1-3.2,1-5.2,1.3-5.5l0.4-0.6c0.6-0.1,1.2-0.2,1.9-0.5
		c0.1,0,0.1-0.1,0.1-0.2c0-0.1,0-0.1,0-0.2c-0.2-0.5-0.5-0.8-0.7-1.2l0.1-0.1c2.7-3.6,4.1-5.3,7.6-7.5c-1.1,6-2.7,7.7-3.9,8.8
		C56.6,84.2,54.1,87.1,53.7,89.8 M82.5,91.8c0.1,0.1,0.3,0.2,0.4,0.2c0,0,0,0,0,0c0.2,0,0.4,0,0.6,0c0.2,0,0.4,0,0.5,0
		c0.5,0.1,1.3,0.7,2.1,1.7c0.7,0.8,1.7,1.1,2.4,1.2c-1,0.9-1.7,1.1-2,1.2c-0.1-0.6-0.3-1.1-0.6-1.6c-0.5-1-1.3-1.9-2.7-2.2l0,0h0
		c-0.1,0-0.2,0-0.3,0.2c0,0.1,0,0.2,0.1,0.3c0.2,0.1,0.4,0.3,0.6,0.4c0.8,0.6,1.4,1.1,1.7,1.7c0,0,0.1,0.1,0.1,0.1
		c0.3,0.8,0.2,1.3,0.3,2c0,0.1,0.1,0.3,0.2,0.4c0.1,0.2,0.2,0.4,0.4,0.6c-1.5-0.3-2.5-0.7-3-1.5c-0.2-0.3-0.3-0.6-0.4-0.9
		c-0.1-0.6-0.3-1-0.4-1.3c-0.3-0.7-0.7-1-0.7-1c-0.1-0.1-0.2,0-0.3,0v0c0,0,0,0.1,0,0.1c0,0.1-0.1,0.1,0,0.2
		c0.1,0.2,0.1,0.3,0.2,0.4c0.4,1,0.4,1.7,0.6,2.4c0.2,0.8,0.9,1.4,1.3,1.6c0.1,0.1,0.5,0.3,1,0.5c-1.1-0.1-1.9-0.4-2.4-1.2
		c-0.5-0.7-0.7-1.6-0.8-3.2c0-0.1,0-0.1-0.1-0.2c0,0-0.1-0.1-0.2-0.1c-0.1,0-0.3,0.1-0.3,0.2c-0.1,0.5-0.1,1-0.1,1.4
		c0,0.8,0.1,1.5,0.5,2.1c0,0,0.1,0.1,0.1,0.1c0.3,0.5,0.7,0.9,1,1.1c-0.8,0.7-2,1-2.6,1.2c0.3-0.8,0.5-1.5,0.5-2.1
		c0-0.3,0-0.7-0.1-1c-0.1-0.3-0.1-0.6-0.2-1c0-0.2-0.1-0.3-0.1-0.4c0-0.2-0.1-0.4-0.1-0.6c0-0.1,0-0.2,0.1-0.4
		c0-0.2,0.1-0.3,0.2-0.6c0.1-0.2,0.1-0.3,0.1-0.4c0,0,0,0,0,0c0,0,0,0,0,0c0-0.1,0-0.1,0-0.2c0,0,0,0,0,0
		C80.3,92.4,81.9,91.9,82.5,91.8C82.4,91.8,82.5,91.8,82.5,91.8 M75.1,70.6c1.3-0.9,4-1.1,5.4-1.1c-2.1,1.4-3.4,2.4-4,3.2
		c-0.5,0.7-3.6,3.5-4.7,4.2c-1.1,0.8-2.8,2-3.6,2.7c-0.7,0.6-2.4,1.7-2.4,1.7c-0.4,0-1.8,0.8-3.3,1.6c-0.7,0.4-1.4,0.8-1.9,1
		c0,0-0.1,0.1-0.1,0.1c-0.4,0.2-0.7,0.3-0.9,0.5l0.1,0.1c0,0.1,0,0.1,0,0.2c0,0.1,0.1,0.1,0.2,0.1l0,0c0,0,0,0,0,0c0,0,0,0,0,0
		c0,0,0.1,0,0.1,0v0c0,0,0.2-0.1,0.6-0.3c1.2-0.6,3.3-1.4,4.4-1.7c0,0,6.1-2.5,11.2-2.5c0.6,0,1.2,0,1.7,0.1c0,0,1.9,0.2,3.5,0.2
		c0.5,0,0.9,0,1.2-0.1c-1.1,0.9-3.7,2.4-6.6,2.4c-0.4,0-0.8,0-1.2-0.1c-0.3,0-0.7,0-1.2,0c-1.4,0-3.3,0.1-3.7,0.1
		c-1.1,0.2-2.2,0.4-2.9,0.5c-0.4,0-0.7,0-0.9,0.1c0,0-0.1-0.1-0.2,0.3c0.1,0.3,0.3,0.2,0.3,0.3c0.1,0,0.4-0.1,0.8-0.1
		c0.2,0,0.4,0,0.5,0c0.5,0,1,0,1,0c0.4,0,3.5,0.2,4.9,0.9c1.4,0.7,3.4,1.9,4.6,3.4c1.3,1.5,1.6,1.9,2,2.3c0.3,0.3,0.6,0.3,0.9,0.4
		c0.3,0,0.6,0.2,0.8,0.4c-0.6,0.2-1.8,0.6-2.5,1.3c0-0.1,0-0.1,0-0.2c0-0.4,0.1-0.7,0.1-1c0-0.1,0-0.1,0-0.1
		c-0.1-0.5-0.6-0.7-0.9-1.1c-0.4-0.5-2.7-3-4.1-3.8c-2.5-1.5-4.2-1.6-6.5-1.9c-0.2,0-0.4,0-0.6,0c-2.4,0-6.9,1.4-8.5,2
		c-0.1,0-0.2,0.2-0.2,0.3c0,0.1,0.2,0.2,0.3,0.2c0,0,0,0,0,0l0,0c0,0,0,0,0.1,0c0.4-0.1,3-0.8,6-0.8c4.5,0,10.1,1.5,12.1,8.3
		c0,0,0.1,1,0.1,2.1c0,0.4,0,0.8-0.1,1.1c-0.8-0.6-2.6-1.9-3-2.3c0,0-4.6-7.4-11.8-7.4c-2,0-4.2,0.6-6.5,2.1l-1.6-0.1
		c0.6-2.4,1.6-3.3,2.4-4.3c0.7-0.8,2.7-2.8,4.9-4.4c1.9-1.4,7.7-6.1,8.7-7.3C72,72.4,74.3,71.2,75.1,70.6 M52.6,108.6
		c0-0.1-0.1-0.2-0.2-0.2c-0.1,0-0.2,0.1-0.2,0.2c0,0.1,0.1,0.2,0.2,0.2C52.5,108.8,52.6,108.7,52.6,108.6 M27,146.1l0.3-0.1
		c0,0-0.2-0.5-1-0.7c0.1-0.2,0.2-0.5,0.2-0.7c0-0.2,0-0.3-0.1-0.5c0.1-0.1,0.4-0.2,0.6-0.3c0.2,0.1,0.4,0.1,0.7,0.1
		c0.3,0,0.7,0,1.1-0.1c-0.3,0.3-0.5,0.6-0.5,1c0,0.8,0.6,1.4,1.4,1.4c0.1,0,0.2,0,0.3-0.1c0.2,0.4,0.3,0.7,0.3,0.7
		c0.3-1,1.6-0.9,1.6-0.9c-0.3-0.2-0.6-0.4-0.9-0.6c0-0.1,0-0.2,0-0.3c0-0.1,0.1-0.2,0.1-0.3c0-0.1,0-0.2-0.1-0.3c0-0.1,0-0.2,0-0.2
		c0,0,0,0,0-0.1c-0.1-0.3-0.3-0.5-0.6-0.6c-0.2-0.2-0.3-0.3-0.3-0.4l-0.2,0c-0.5,0.2-1.5,0.3-2.2,0.3c-0.3,0-0.6,0-0.6-0.1l-0.2,0
		c-0.3,0.2-0.8,0.4-0.8,0.4c0,0-0.1,0.1-0.1,0.1c0,0.1,0,0.1,0,0.1c0.1,0.1,0.1,0.2,0.1,0.4c0,0.4-0.2,0.8-0.2,0.8c0,0,0,0.1,0,0.1
		c0,0,0.1,0.1,0.1,0.1C26.8,145.7,27,146.1,27,146.1 M29.6,143.7c0.2,0,0.3,0,0.5,0.1c0.2,0.2,0.4,0.4,0.5,0.5c0,0,0,0.1,0,0.2v0.4
		c0,0.1,0,0.2,0,0.3c-0.5-0.4-0.9-0.8-1-1c0,0.6,0.1,1.2,0.2,1.7c-0.1,0-0.1,0-0.2,0c-0.6,0-1.1-0.5-1.1-1.1
		C28.6,144.2,29,143.7,29.6,143.7 M8.3,154.3c1.9,0.8,2.9,1.2,3.9,1.3h0c0.6,0,1.2-0.2,1.9-0.6c0.6-0.4,1-0.5,1.3-0.6
		c0,0.4,0.1,1.2,0.9,1.4c0.6,0.1,0.5-0.1,1,0.4c0.8,0.9,1.6,1.2,2.3,1.2h0c1,0,1.7-0.7,2-0.9c0.4-0.3,0.8-0.5,1.1-0.5
		c0.1,0,0.3,0,0.4,0.1c0.3,0.1,0.7,0.1,1,0.1c0.8,0,1.6-0.1,2.1-0.4c0.6-0.3,1-0.4,1.4-0.4c0.4,0,0.7,0.1,1.1,0.2
		c0.8,0.3,2,0.5,3.7,0.5c1,0,2.2-0.1,3.6-0.3l0,0c0.1,0.1,0.6,0.9,1.8,1.1l0.8,0.1l-0.4-0.6c-0.1-0.1-0.1-0.4-0.1-0.9
		c0-0.1,0-0.3,0-0.4c0.5,0.3,1.3,0.6,2.4,0.6c0.6,0,1.2-0.1,1.9-0.4l0.6-0.2l-0.6-0.4c-0.4-0.2-0.8-0.6-1.4-1c0.1,0,0.2,0,0.3,0
		c0.5,0,0.9-0.1,1.2-0.3c0.4-0.3,1.7-0.7,3.1-3.9l0.8-1.8l-1.3,1.4c-0.1,0.1-0.5,0.3-1.1,0.4c0.7-0.6,1.4-1.5,1.9-3.1l0.5-1.6
		l-1.1,1.3c-0.1,0.1-0.3,0.2-0.6,0.4c0.4-0.5,0.9-1.2,1.2-2.2l0.5-1.3l-1.1,1c-0.2,0.2-0.8,0.5-1.8,0.8c0.5-0.5,1.1-1.1,1.5-2
		l0.5-0.9l-0.9,0.4c-0.2,0.1-0.8,0.3-1.5,0.4c0.8-1,1.2-2.1,1.2-3.9c0-0.8-0.1-1.8-0.2-2.9l-0.2-1.7l-0.4,1.6
		c-0.9,3.3-3.5,3.6-3.5,3.6l0,0c0.6-0.7,1.2-1.7,1.2-3.2c0-0.9-0.2-2.1-0.8-3.4l-0.2-0.5l-0.3,0.4c-1.6,1.9-1.2,2.2-3.1,2.7
		c-1.5,0.4-2.8,1.5-3.3,2.8c-0.4-0.2-0.9-0.3-1.5-0.3c-0.9,0-2,0.4-3,1.3c-0.5-0.1-1-0.2-1.5-0.2c-0.9,0-1.7,0.3-2.3,1
		c-0.4,0.5-0.5,0.5-0.5,0.5c0,0-0.3-0.2-0.9-0.5c-0.5-0.2-1.3-0.5-2.2-0.5c-0.7,0-1.5,0.2-2.3,0.7l-1,0.7l1.2-0.1c0.2,0,0.3,0,0.4,0
		c1.1,0.1,1.2,0.3,1.2,0.8v0.1c0,0.5-0.6,0.7-0.9,0.7c0,0,0,0-0.2,0c-0.2,0-1.1-0.1-1.6-0.2c-0.3,0-0.7-0.4-1.7-0.6
		c-0.2-0.1-0.4-0.1-0.6-0.1c-0.7,0-1.4,0.3-1.7,0.9l0,0.1c0,0-0.1,0.9-1.3,1.6c-0.7,0.4-0.8,1.1-0.8,1.8c0,0.6,0.1,1.1,0.3,1.4
		c0.3,0.5,1,0.8,1.8,0.8c0.1,0,0.3,0,0.4-0.1c0.1,0.3,0.4,0.8,0.9,1.2c-0.1,0-0.2,0-0.3,0c-1.2,0.2-1.4,0.7-2.1,0.7
		c-0.4,0-0.9-0.1-1.8-0.5c-0.2-0.1-0.5-0.2-0.8-0.2c-0.6,0-1.4,0.3-2.6,1c-0.7,0.4-1.1,1.1-1.1,1.8C6.9,153.2,7.4,153.9,8.3,154.3
		 M42.1,142.9l-0.4,0.4l0.6,0.1c0.3,0.1,0.5,0.1,0.7,0.1c0.4,0,0.7,0,1-0.1c-1,1.4-1.9,1.8-2.9,2h0c0,0,0,0,0,0l0.1,0.7
		c1.7-0.2,2.9-0.5,3.7-0.8c-0.7,1.3-1.3,1.8-2,2.2l-0.3,0.2c-0.4,0-1,0.1-1.7,0.1c-0.7,0-1.5,0-2.3-0.1c0.5-0.6,1.8-2.1,2.5-3.5
		c0-0.1,0-0.1,0-0.2c0-0.1-0.1-0.1-0.2,0c0,0-0.5,0.2-1.2,0.2c1.1-0.7,2.5-1.5,3.8-4.1C43.4,141.3,43,142.1,42.1,142.9 M40.4,136.4
		c0,2.2-1.5,3.2-1.9,3.4l-0.4,0.1c-0.1,0-0.3,0-0.4,0.1c0.6-0.5,1.3-1.3,1.7-2l0.1-0.2l-0.2,0c0,0-0.6-0.1-1.2-0.1
		c0.6-0.3,1.4-0.8,2.3-1.9C40.4,136,40.4,136.2,40.4,136.4 M18.3,143.2c0.5,0.1,1.4,0.1,1.7,0.2l0.1,0v0c0.5,0,1.4-0.3,1.5-1.4v-0.1
		c0-0.6-0.4-1.1-1.1-1.3c0.3-0.1,0.5-0.1,0.8-0.1c0.7,0,1.4,0.3,1.9,0.5c0.5,0.2,0.7,0.5,1.2,0.5c0.4,0,0.7-0.3,1.1-0.8
		c0.4-0.6,1.1-0.8,1.8-0.8c0.3,0,0.6,0,0.9,0.1c-0.1,0.1-0.1,0.1-0.1,0.2l0.5,0.4c1.2-1.4,2.3-1.8,3.2-1.8c1.1,0,1.9,0.6,2.2,1
		c0,0,0,0,0,0c0,0,0,0,0,0l0.5-0.4c0,0-0.2-0.4-0.7-0.7c0.3-1.1,1.5-2.1,2.9-2.5c1.9-0.5,2-1,3.1-2.5c0.2,0.5,0.3,1,0.4,1.4
		c-1.4,1.7-2.4,2.1-3,2.4l-0.5,0.3l0.6,0c0.1,0,0.3,0,0.4,0c0.5,0,0.9,0,1.2,0.1c-0.5,0.8-1.5,1.7-2,2.1c-1.5,0.4-2.4,1.2-2.5,3.4
		l0.7,0c0.2-2.1,0.7-2.5,2.2-2.8l0,0c0,0,0.1,0,0.1-0.1c0.2,0,0.3-0.1,0.5-0.1l0.1,0c0.1,0,0.2,0,0.3,0c0.1,0,0.1,0,0.2-0.1l1.3-0.2
		c0,0,2.3-0.4,3.5-2.8c0,0.6,0.1,1,0.1,1.5c0,0,0,0,0,0c-1.6,3.5-3.2,4.1-4.6,5c-0.1,0-0.1,0.1-0.1,0.2c0,0.1,0.1,0.1,0.2,0.1h0.3
		c0.5,0,0.9-0.1,1.2-0.1c-0.9,1.6-2.5,3.3-2.5,3.3c0,0-0.1,0.1,0,0.2c0,0.1,0.1,0.1,0.1,0.1c0.9,0.2,1.8,0.2,2.6,0.2
		c0.4,0,0.8,0,1.1,0l-1.4,0.8l2.5-0.7c0.8-0.2,1.4-0.4,1.8-0.6c-0.9,2.1-2.1,2.4-2.8,2.7l-2.3,0.6h2.4c1,0,1.8-0.2,2.5-0.4
		c-0.5,1-0.9,1.6-1.3,1.9c-3.1-0.4-5.4-1.9-6-2.3l-0.2,0.3c0.6,0.4,2.8,1.9,5.9,2.3c-0.3,0.3-0.6,0.4-0.8,0.5
		c-0.1,0.1-0.4,0.2-0.8,0.1c-0.6,0-1.3-0.1-1.8-0.4c0,0,0,0-0.1,0h0h0l-0.4,0.5c0,0,0,0,0,0c0,0,0,0,0,0c1.2,0.8,1.8,1.4,2.4,1.8
		c-0.3,0.1-0.6,0.1-0.9,0.1c-2.3-1.3-3.7-3-3.7-3l-0.2,0.2c0,0,1.2,1.4,3.2,2.7c-1-0.1-1.6-0.5-2-0.8l-0.5-0.3l-0.1,0.5
		c0,0.4-0.1,0.7-0.1,1c0,0.2,0,0.4,0,0.5c-0.4-0.2-0.7-0.5-0.8-0.6l0.1-0.1c-0.7-0.6-1.2-2.4-1.2-2.4l-0.3,0.1c0,0,0.4,1.2,0.9,2.1
		c-1.4,0.2-2.7,0.3-3.7,0.3c-1.7,0-2.8-0.2-3.5-0.5c-0.4-0.2-0.9-0.3-1.3-0.3c-0.5,0-1.1,0.1-1.7,0.4c-0.4,0.2-1.2,0.3-1.8,0.3
		c-0.3,0-0.6,0-0.8-0.1c-0.2-0.1-0.5-0.1-0.7-0.1c-0.6,0-1.1,0.3-1.5,0.6c-0.4,0.3-0.9,0.8-1.6,0.8c-0.4,0-1-0.2-1.8-1
		c-0.5-0.7-1.1-0.6-1.5-0.6c0,0-0.1-0.1-0.2-0.4c-0.1-0.2-0.1-0.4-0.1-0.5c0.1,0,0.2,0,0.4,0h0.1c0.7,0,2.1-0.2,2.6-0.4
		c0.5-0.1,1.1-0.5,1.5-1.1c0-0.1,0.1-0.1,0.2-0.2c0.1-0.1,0.3-0.2,0.4-0.3c0.3-0.1,0.5-0.3,0.7-0.3c0.2,0,0.3-0.1,0.5-0.1
		c0.2,0,0.4,0,0.6,0.1c0.5,0.1,0.9,0.2,1.2,0.2c0.4,0,0.7-0.1,1-0.3c0.5-0.4,0.2-0.4,1.5-0.5c0.1,0,0.2-0.1,0.3-0.2
		c0.1-0.1,0-0.3-0.1-0.3c-0.4-0.4-0.7-0.7-1.1-1c-0.2-0.3-0.4-0.7-0.5-1.3c0-0.1-0.1-0.1-0.1-0.1c-0.1,0-0.1,0-0.2,0.1
		c0,0-0.2,0.3-0.4,0.8c0,0-0.1,0-0.1,0c0-0.3-0.1-0.8-0.5-1.4c0-0.1-0.1-0.1-0.2-0.1c-0.1,0-0.1,0.1-0.1,0.1c0,0.3-0.1,0.8-0.6,1.5
		c-0.1,0-0.3,0.1-0.4,0.1c0.3-0.3,0.6-0.7,0.7-1.3c0-0.3,0.1-0.6,0.1-0.9c0-1.3-0.7-2.4-2.7-2.6l-0.4,0l0.3,0.3
		c0.6,0.6,0.8,1.1,0.8,1.5c0,1-1.2,1.8-1.2,1.8c-0.2,0.1-0.3,0.2-0.4,0.4c-0.2-0.2-0.3-0.4-0.4-0.6c0.6-0.3,0.8-0.9,0.8-1.5
		c0-0.7-0.3-1.5-1-1.8c-0.9-0.5-0.8-0.9-1.2-1.5C18.1,143.1,18.2,143.2,18.3,143.2 M17.4,148.3c0.2,0.1,0.3,0.2,0.6,0.2
		c0.2,0,0.4-0.1,0.7-0.2c0.1,0.2,0.2,0.4,0.4,0.6c-0.2,0.3-0.4,0.8-0.4,1.7C18.2,150.2,17.7,149.4,17.4,148.3 M17.6,149.7
		C17.6,149.7,17.6,149.7,17.6,149.7C17.6,149.7,17.6,149.6,17.6,149.7C17.6,149.7,17.6,149.7,17.6,149.7 M20.2,148.4l0.1,0.1
		c0.1-0.1,0.3-0.2,0.5-0.4c0,0,0,0,0.1-0.1c0.1-0.1,0.2-0.2,0.3-0.4c0-0.1,0.1-0.1,0.1-0.2c0.1-0.1,0.2-0.3,0.2-0.5
		c0.1-0.1,0.1-0.3,0.1-0.4c0-0.1,0-0.2,0-0.3c0-0.1,0-0.3-0.1-0.4c0-0.1-0.1-0.2-0.1-0.2c0-0.1-0.1-0.2-0.2-0.3
		c-0.1-0.2-0.3-0.3-0.3-0.3s0.6,0,1.2,0.4c0.2,0.1,0.3,0.2,0.4,0.4c0.1,0.1,0.1,0.2,0.2,0.3c0,0,0.1,0.1,0.1,0.2
		c0.1,0.3,0.2,0.6,0.2,1c0,0.3,0,0.5-0.1,0.8c0,0,0,0.1,0,0.1c-0.1,0.7-0.5,1.2-1.1,1.4c-0.7,0.3-0.7,0.4-1.4,0.2
		c-0.5-0.2-0.7-0.6-0.6-0.9c0,0,0,0,0,0c0,0,0.1,0,0.1-0.1c0,0,0-0.1,0.1-0.1c0,0,0.1-0.1,0.1-0.1L20.2,148.4z M20.4,150.1
		c0.1,0,0.3,0.1,0.7,0.1c0.1,0,0.2,0,0.3,0c0.2,0,0.3,0.1,0.5,0.1c0.2,0,0.5,0,0.7-0.1c0.7-0.1,1.3-0.3,1.8-0.3c0.1,0,0.1,0,0.2,0
		c-0.1,0.5-0.3,1-0.3,1.5c-0.2,0-0.6-0.1-1-0.2c-0.3-0.1-0.5-0.1-0.8-0.1c-0.1,0-0.2,0-0.2,0c-1.7-0.3-2.5-0.7-3.1-0.9
		c0.1-0.6,0.2-0.9,0.3-1.1c0.1,0.1,0.2,0.2,0.3,0.3c0,0.1,0,0.2,0.1,0.2C19.9,149.9,20,149.9,20.4,150.1 M23.3,149.4
		c0.6-0.6,0.6-1.1,0.7-1.3c0.4,0.7,0.3,1.2,0.3,1.2C23.8,149.2,23.3,149.4,23.3,149.4 M18.1,150.5c0,0,0.1,0,0.1,0.1
		c0.2,0.2,0.3,0.4,0.5,0.5c0,0,0.1,0,0.1,0c0,0,0.1,0,0.1,0c0.1,0,0.1-0.1,0.1-0.2v0c0.5,0.2,1.1,0.4,2,0.6
		c-0.2,0.1-0.3,0.2-0.5,0.4c-0.1,0-0.1,0.1-0.1,0.1c0,0-0.1,0.1-0.1,0.1c-0.1,0.2-0.2,0.2-0.3,0.4c-1-0.4-1.4-1.1-2-1.9l-0.2-0.2
		C17.9,150.4,18,150.5,18.1,150.5 M17.8,151c0.5,0.7,0.9,1.3,1.8,1.7c-0.2,0.2-0.5,0.4-0.8,0.5c-0.1,0-0.4,0.1-0.8,0.1
		c-0.3-0.4-0.4-0.9-0.4-1.3C17.7,151.7,17.8,151.3,17.8,151 M24.5,151.4c0-0.2,0.1-0.3,0.1-0.4c0-0.3,0.2-1,0.2-1
		c0.1-0.3,0.4-0.9,0.4-1c0,0,0,0.1,0,0.1l0,0c0.4,1.4,1.2,1.9,1.2,1.9c-0.8,0.1-1,0.2-1.2,0.3c-0.2,0.2-0.5,0.4-0.7,0.3
		C24.6,151.4,24.5,151.4,24.5,151.4 M14.3,147.8c-0.6,0-1.1-0.3-1.2-0.5c-0.1-0.1-0.2-0.6-0.2-1.1c0-0.6,0.2-1.1,0.4-1.2
		c1.3-0.7,1.6-1.7,1.6-2c0.2-0.3,0.7-0.6,1.1-0.6c0.5,0,1,0.2,1.3,0.8c0.2,0.5,0.3,1.2,1.4,1.9c0.4,0.2,0.7,0.7,0.6,1.3
		c0,0.4-0.2,0.8-0.5,1c-0.5,0.3-0.8,0.3-0.9,0.3c-0.1,0-0.2-0.1-0.5-0.2c-0.4-0.2-0.7-0.3-1.1-0.3c-0.5,0-0.9,0.2-1.5,0.4
		C14.8,147.8,14.5,147.8,14.3,147.8 M16.1,148c0.1,0,0.3-0.1,0.4-0.1c0.2,0,0.4,0,0.6,0.1c0.1,0.3,0.1,0.6,0.2,0.9
		c0,0.3,0,0.5-0.1,1C16.9,149.6,16.4,149,16.1,148 M16.5,149.6C16.5,149.6,16.5,149.6,16.5,149.6C16.4,149.5,16.4,149.5,16.5,149.6
		C16.5,149.5,16.5,149.5,16.5,149.6 M15,148.4c0.1,0,0.1,0,0.2,0c0.2-0.1,0.4-0.2,0.6-0.2c0.1,0.2,0.1,0.4,0.2,0.6c0,0,0,0.1,0,0.1
		c0,0.2,0,0.5,0.1,0.8C15.5,149.2,15.2,148.7,15,148.4 M8.3,151.3c1.1-0.7,1.8-0.9,2.3-0.9c0.2,0,0.4,0,0.6,0.1
		c1,0.4,1.6,0.5,2.1,0.5c1.1,0,1.3-0.6,2.2-0.7c0.5-0.1,0.8-0.1,1.2-0.1c0.2,0,0.3,0,0.5,0c0.1,0.1,0.1,0.2,0.2,0.2c0,0,0.1,0,0.1,0
		c0,0,0,0,0,0c0.1,0,0.1-0.1,0.1-0.1l0,0c0,0,0.1,0,0.1,0.1l-0.1,0.2c0,0-0.2,0.7-0.2,1.4c0,0.5,0.1,1,0.4,1.4
		c-0.5,0.1-1,0.1-1.3,0.2c0,0-0.1,0-0.1,0c-0.1,0-0.3,0-0.5,0c-0.5,0-1,0.1-2.1,0.8c-0.6,0.4-1,0.5-1.5,0.5c-0.8,0-1.8-0.4-3.6-1.2
		c-0.7-0.3-1-0.8-1-1.2C7.6,152.1,7.8,151.6,8.3,151.3 M32,90c1.5-1.2,3.1-1.8,4.8-1.8c1.9,0,3.7,0.7,5.3,2.2l0.2,0.1l1.2,0h0.8
		c0.1,0,0.2,0,0.2-0.1c0-0.1,0-0.2,0-0.3c-1.8-3.2-3.9-3.8-6.6-4.9c-1.5-0.6-3.2-0.9-5-0.9c-1.8,0-3.7,0.3-5.5,0.9
		c-1.8,0.5-2.9,0.8-6.1,3.5c-1.4,1.2-2.3,2.4-2.8,3.1L18,92.1c-0.5,0.2-1.3,0.6-1.3,0.6c-1.3,0.6-2.6,1.5-3.1,4.3
		c-0.2,1-0.3,2.1-0.3,3c0,0.4,0,0.8,0.1,1.1c0,0.1,0.1,0.2,0.1,0.3c0,0,0,0,0,0.1c0.1,0.1,0.2,0.2,0.4,0.2c0.2,0,0.4-0.1,0.6-0.3
		c1.1-1.1,1.6-2.4,1.8-3.6c0.2-1.1,0.2-1.6,0.7-2.1c0.2-0.2,0.3-0.3,0.5-0.4c-0.1,0.2-0.2,0.3-0.4,0.5c-0.2,0.4-0.3,0.6-0.4,1.4
		c-0.1,0.7-0.9,3.1-1.4,3.6c-0.3,0.3-0.5,0.7-0.5,1.1c0,0.1,0,0.2,0,0.3c0.1,0.3,0.3,0.5,0.6,0.5c0.3,0,0.6-0.2,1.1-0.5
		c1.5-1.1,3.8-2.5,3.8-5.6c0-0.1,0-0.2,0-0.4c-0.1-0.9-0.1-1.5-0.1-2c0-0.7,0.1-1.2,0.8-2.3l0.1-0.1c1-1.7,6.1-5.2,9.3-5.5
		c0.9-0.1,2.1-0.4,3.6-0.4c0.3,0,0.6,0,0.9,0c-0.2,0-0.4,0-0.5,0c-1.7,0.2-3.4,0.8-5.2,1.9c-2,1.2-3.7,3.5-3.7,7.5
		c0,0.4,0,0.9,0.1,1.4c0,0.1,0.1,0.2,0.1,0.2c0.1,0,0.2,0,0.2,0c0.4-0.3,3-2.7,3.4-3.3C30.2,92.2,31,90.8,32,90 M19.7,94.2
		c0,0.6,0.1,1.2,0.1,2c0,0.1,0,0.2,0,0.3c0,2.8-2.1,4-3.6,5.2c-0.4,0.3-0.7,0.4-0.8,0.4c-0.1,0-0.1,0-0.1,0c0,0,0-0.1,0-0.2
		c0-0.2,0.1-0.6,0.3-0.8c0.7-0.8,1.4-3,1.5-3.9c0.1-0.8,0.1-0.8,0.3-1.1c0.2-0.3,0.6-0.5,0.7-1.3l0.1-0.4l-0.3,0.1c0,0,0,0,0,0
		c0,0-0.1,0-0.1,0c0,0-0.6,0.2-1.2,0.8c-0.7,0.6-0.7,1.3-0.9,2.4c-0.2,1.1-0.7,2.3-1.7,3.3c-0.1,0.1-0.2,0.1-0.2,0.1
		c0,0,0-0.1-0.1-0.2c-0.1-0.2-0.1-0.6-0.1-0.9c0-0.8,0.1-2,0.3-2.9c0.6-2.7,1.6-3.3,2.8-3.9c0,0,0.9-0.4,1.4-0.6l0.2-0.2
		c0.2-0.1,0.3-0.3,0.5-0.5l0.2-0.2l1.2,0.2C19.8,92.9,19.7,93.5,19.7,94.2 M28.7,93.4c-0.3,0.4-2.1,2.2-2.9,2.9c0-0.3,0-0.6,0-0.9
		c0-3.8,1.6-5.9,3.5-7c1.8-1.1,3.4-1.7,5-1.9c0.3,0,0.5,0,0.8,0c2,0,3.8,0.7,3.8,0.7l0.1-0.2l0.1-0.2l0,0v0h0c0,0,0,0,0,0
		c-2-1-3.7-1.3-5.2-1.3c-1.5,0-2.8,0.3-3.6,0.4c-3.5,0.3-8.4,3.8-9.6,5.7l-1.2-0.2c0.5-0.7,1.2-1.5,2.2-2.4c3.2-2.6,4.2-2.8,5.9-3.4
		c1.8-0.5,3.6-0.8,5.3-0.8c1.7,0,3.3,0.3,4.8,0.9c2.6,1.1,4.4,1.6,6.1,4.3h-0.4l-1.1,0c-1.6-1.5-3.6-2.3-5.6-2.3
		c-1.8,0-3.5,0.6-5.1,1.9C30.6,90.5,29.8,91.9,28.7,93.4 M42.5,114.9c0,0.1,0.1,0.2,0.2,0.2c0.1,0,0.2-0.1,0.2-0.2
		c0-0.1-0.1-0.2-0.2-0.2C42.6,114.7,42.5,114.8,42.5,114.9 M54.8,154.3c1.9,0.8,2.9,1.2,3.9,1.3h0c0.6,0,1.2-0.2,1.9-0.6
		c0.6-0.4,1-0.5,1.3-0.6c0,0.4,0.1,1.2,0.9,1.4c0.6,0.1,0.5-0.1,1,0.4c0.8,0.9,1.6,1.2,2.3,1.2h0c1,0,1.7-0.7,2-0.9
		c0.4-0.3,0.8-0.5,1.1-0.5c0.1,0,0.3,0,0.4,0.1c0.3,0.1,0.6,0.1,1,0.1c0.8,0,1.6-0.1,2.1-0.4c0.6-0.3,1-0.4,1.4-0.4
		c0.4,0,0.7,0.1,1.1,0.2c0.8,0.3,2,0.5,3.8,0.5c1,0,2.2-0.1,3.6-0.3l0,0c0.1,0.1,0.6,0.9,1.8,1.1l0.8,0.1l-0.4-0.6
		c0-0.1-0.1-0.4-0.1-0.9c0-0.1,0-0.3,0-0.4c0.5,0.3,1.3,0.6,2.4,0.6c0.6,0,1.2-0.1,1.9-0.4l0.6-0.2l-0.6-0.4c-0.4-0.2-0.8-0.6-1.4-1
		c0.1,0,0.2,0,0.3,0c0.5,0,0.9-0.1,1.2-0.3c0.4-0.3,1.7-0.7,3.1-3.9l0.8-1.8l-1.3,1.4c-0.1,0.1-0.5,0.3-1.1,0.4
		c0.7-0.6,1.4-1.5,1.9-3.1l0.5-1.6l-1.1,1.3c-0.1,0.1-0.3,0.2-0.6,0.4c0.4-0.5,0.9-1.2,1.2-2.2l0.5-1.3l-1.1,1
		c-0.2,0.2-0.8,0.5-1.8,0.8c0.5-0.5,1.1-1.1,1.5-2l0.5-0.9l-0.9,0.4c-0.2,0.1-0.8,0.3-1.5,0.4c0.8-1,1.2-2.1,1.2-3.9
		c0-0.8-0.1-1.8-0.2-2.9l-0.2-1.7l-0.4,1.6c-0.9,3.3-3.5,3.6-3.5,3.6l0,0c0.6-0.7,1.2-1.7,1.2-3.2c0-0.9-0.2-2.1-0.8-3.4l-0.2-0.5
		l-0.3,0.4c-1.6,1.9-1.2,2.2-3.1,2.7c-1.5,0.4-2.8,1.5-3.3,2.8c-0.4-0.2-0.9-0.3-1.5-0.3c-0.9,0-2,0.4-3,1.3c-0.5-0.1-1-0.2-1.5-0.2
		c-0.9,0-1.7,0.3-2.3,1c-0.4,0.5-0.5,0.5-0.5,0.5c0,0-0.3-0.2-0.9-0.5c-0.5-0.2-1.3-0.5-2.2-0.5c-0.7,0-1.5,0.2-2.3,0.7l-1,0.7
		l1.2-0.1c0.2,0,0.3,0,0.4,0c1.1,0.1,1.2,0.3,1.2,0.8v0.1c0,0.5-0.6,0.7-0.9,0.7c0,0,0,0-0.2,0c-0.2,0-1.1-0.1-1.6-0.2
		c-0.3,0-0.7-0.4-1.7-0.6c-0.2-0.1-0.4-0.1-0.6-0.1c-0.7,0-1.4,0.3-1.7,0.9l0,0.1c0,0-0.1,0.9-1.3,1.6c-0.7,0.4-0.8,1.1-0.8,1.8
		c0,0.6,0.1,1.1,0.3,1.4c0.3,0.5,1,0.8,1.8,0.8c0.1,0,0.3,0,0.4-0.1c0.1,0.3,0.4,0.8,0.9,1.2c-0.1,0-0.2,0-0.3,0
		c-1.2,0.2-1.4,0.7-2.1,0.7c-0.4,0-0.9-0.1-1.8-0.5c-0.2-0.1-0.5-0.2-0.8-0.2c-0.6,0-1.4,0.3-2.6,1c-0.7,0.4-1.1,1.1-1.1,1.8
		C53.4,153.2,53.9,153.9,54.8,154.3 M88.6,142.9l-0.4,0.4l0.6,0.1c0.3,0.1,0.5,0.1,0.7,0.1c0.4,0,0.7,0,1-0.1c-1,1.4-1.9,1.8-2.9,2
		c0,0,0,0,0,0l0.1,0.7c1.7-0.2,2.9-0.5,3.7-0.8c-0.7,1.3-1.3,1.8-2,2.2l-0.3,0.2c-0.4,0-1,0.1-1.7,0.1c-0.7,0-1.5,0-2.3-0.1
		c0.5-0.6,1.8-2.1,2.5-3.5c0-0.1,0-0.1,0-0.2c0-0.1-0.1-0.1-0.2,0c0,0-0.5,0.2-1.2,0.2c1.1-0.7,2.5-1.5,3.9-4.1
		C89.9,141.3,89.5,142.1,88.6,142.9 M86.9,136.4c0,2.2-1.5,3.2-1.9,3.4l-0.4,0.1c-0.1,0-0.3,0-0.4,0.1c0.6-0.5,1.3-1.3,1.7-2
		l0.1-0.2l-0.2,0c0,0-0.5-0.1-1.2-0.1c0.6-0.3,1.4-0.8,2.3-1.9C86.9,136,86.9,136.2,86.9,136.4 M64.8,143.2c0.5,0.1,1.4,0.1,1.7,0.2
		l0.1,0v0c0.5,0,1.4-0.3,1.5-1.4v-0.1c0-0.6-0.4-1.1-1.1-1.3c0.3-0.1,0.5-0.1,0.8-0.1c0.7,0,1.4,0.3,1.9,0.5
		c0.5,0.2,0.7,0.5,1.2,0.5c0.4,0,0.7-0.3,1.1-0.8c0.4-0.6,1.1-0.8,1.8-0.8c0.3,0,0.6,0,0.9,0.1c-0.1,0.1-0.1,0.1-0.1,0.2l0.5,0.4
		c1.2-1.4,2.3-1.8,3.2-1.8c1.1,0,1.9,0.6,2.2,1c0,0,0,0,0,0c0,0,0,0,0,0l0.5-0.4c0,0-0.2-0.4-0.7-0.7c0.3-1.1,1.5-2.1,2.9-2.5
		c1.9-0.5,2-1,3.1-2.5c0.2,0.5,0.3,1,0.4,1.4c-1.4,1.7-2.4,2.1-3,2.4l-0.5,0.3l0.6,0c0.1,0,0.3,0,0.4,0c0.5,0,0.9,0,1.2,0.1
		c-0.5,0.8-1.5,1.7-2,2.1c-1.5,0.4-2.4,1.2-2.5,3.4l0.7,0c0.2-2.1,0.7-2.5,2.2-2.8l0,0c0,0,0.1,0,0.1-0.1c0.2,0,0.3-0.1,0.5-0.1
		l0.1,0c0.1,0,0.2,0,0.3,0c0.1,0,0.1,0,0.2-0.1l1.3-0.2c0,0,2.3-0.4,3.5-2.8c0,0.6,0.1,1,0.1,1.5v0c-1.6,3.5-3.2,4.1-4.6,5
		c-0.1,0-0.1,0.1-0.1,0.2c0,0.1,0.1,0.1,0.1,0.1h0.3c0.5,0,0.9-0.1,1.2-0.1c-0.9,1.6-2.5,3.3-2.5,3.3c0,0-0.1,0.1,0,0.2
		c0,0.1,0.1,0.1,0.1,0.1c0.9,0.2,1.8,0.2,2.6,0.2c0.4,0,0.8,0,1.1,0l-1.4,0.8l2.5-0.7c0.8-0.2,1.4-0.4,1.8-0.6
		c-0.9,2.1-2.1,2.4-2.8,2.7l-2.3,0.6h2.4c1,0,1.8-0.2,2.5-0.4c-0.5,1-0.9,1.6-1.3,1.9c-3.1-0.4-5.4-1.9-6-2.3l-0.2,0.3
		c0.6,0.4,2.8,1.9,5.9,2.3c-0.3,0.3-0.6,0.4-0.8,0.5c-0.1,0.1-0.4,0.2-0.8,0.1c-0.6,0-1.3-0.1-1.8-0.4c0,0,0,0-0.1,0h0l-0.4,0.5v0
		l0,0c1.2,0.8,1.8,1.4,2.4,1.8c-0.3,0.1-0.6,0.1-0.9,0.1c-2.3-1.3-3.6-3-3.7-3l-0.2,0.2c0,0,1.2,1.4,3.2,2.7c-1-0.1-1.6-0.5-2-0.8
		l-0.5-0.3l-0.1,0.5c0,0.4-0.1,0.7-0.1,1c0,0.2,0,0.4,0,0.5c-0.4-0.2-0.7-0.5-0.8-0.6l0.1-0.1c-0.7-0.6-1.2-2.4-1.2-2.4l-0.3,0.1
		c0,0,0.4,1.2,0.9,2.1c-1.4,0.2-2.6,0.3-3.7,0.3c-1.7,0-2.8-0.2-3.5-0.5c-0.4-0.2-0.9-0.3-1.3-0.3c-0.5,0-1.1,0.1-1.7,0.4
		c-0.4,0.2-1.2,0.3-1.8,0.3c-0.3,0-0.6,0-0.8-0.1c-0.2-0.1-0.5-0.1-0.7-0.1c-0.6,0-1.1,0.3-1.5,0.6c-0.4,0.3-0.9,0.8-1.6,0.8
		c-0.4,0-1-0.2-1.8-1c-0.5-0.7-1.1-0.6-1.5-0.6c0,0-0.1-0.1-0.2-0.4c-0.1-0.2-0.1-0.4-0.1-0.5c0.1,0,0.2,0,0.4,0h0.1
		c0.7,0,2.1-0.2,2.6-0.4c0.5-0.1,1.1-0.5,1.5-1.1c0-0.1,0.1-0.1,0.2-0.2c0.1-0.1,0.3-0.2,0.4-0.3c0.3-0.1,0.5-0.3,0.7-0.3
		c0.2,0,0.3-0.1,0.5-0.1c0.2,0,0.4,0,0.6,0.1c0.5,0.1,0.9,0.2,1.2,0.2c0.4,0,0.7-0.1,1-0.3c0.5-0.4,0.2-0.4,1.5-0.5
		c0.1,0,0.2-0.1,0.3-0.2c0.1-0.1,0-0.3-0.1-0.3c-0.4-0.4-0.7-0.7-1.1-1c-0.2-0.3-0.4-0.7-0.5-1.3c0-0.1-0.1-0.1-0.1-0.1
		c-0.1,0-0.1,0-0.2,0.1c0,0-0.2,0.3-0.4,0.8c0,0-0.1,0-0.1,0c0-0.3-0.1-0.8-0.5-1.4c0-0.1-0.1-0.1-0.2-0.1c-0.1,0-0.1,0.1-0.1,0.1
		c0,0.3-0.1,0.8-0.6,1.5c-0.1,0-0.3,0.1-0.4,0.1c0.3-0.3,0.6-0.7,0.7-1.3c0-0.3,0.1-0.6,0.1-0.9c0-1.3-0.7-2.4-2.7-2.6l-0.4,0
		l0.3,0.3c0.6,0.6,0.8,1.1,0.8,1.5c0,1-1.2,1.8-1.2,1.8c-0.2,0.1-0.3,0.2-0.4,0.4c-0.2-0.2-0.3-0.4-0.4-0.6c0.6-0.3,0.8-0.9,0.8-1.5
		c0-0.7-0.3-1.5-1-1.8c-0.9-0.5-0.8-0.9-1.2-1.5C64.6,143.1,64.7,143.2,64.8,143.2 M63.9,148.3c0.2,0.1,0.3,0.2,0.6,0.2
		c0.2,0,0.4-0.1,0.7-0.2c0.1,0.2,0.2,0.4,0.4,0.6c-0.2,0.3-0.4,0.8-0.4,1.7C64.7,150.2,64.2,149.4,63.9,148.3 M64.1,149.7
		C64.1,149.7,64.1,149.7,64.1,149.7C64.1,149.7,64.1,149.6,64.1,149.7C64.1,149.7,64.1,149.7,64.1,149.7 M66.7,148.4l0.1,0.1
		c0.1-0.1,0.3-0.2,0.5-0.4c0,0,0,0,0.1-0.1c0.1-0.1,0.2-0.2,0.3-0.4c0-0.1,0.1-0.1,0.1-0.2c0.1-0.1,0.2-0.3,0.2-0.5
		c0-0.1,0.1-0.3,0.1-0.4c0-0.1,0-0.2,0-0.3c0-0.1,0-0.3-0.1-0.4c0-0.1-0.1-0.2-0.1-0.2c-0.1-0.1-0.1-0.2-0.2-0.3
		c-0.1-0.2-0.3-0.3-0.3-0.3s0.6,0,1.2,0.4c0.2,0.1,0.3,0.2,0.4,0.4c0.1,0.1,0.1,0.2,0.2,0.3c0,0,0.1,0.1,0.1,0.2
		c0.1,0.3,0.2,0.6,0.2,1c0,0.3,0,0.5-0.1,0.8c0,0,0,0.1,0,0.1c-0.1,0.7-0.5,1.2-1.1,1.4c-0.7,0.3-0.7,0.4-1.4,0.2
		c-0.5-0.2-0.7-0.6-0.6-0.9c0,0,0,0,0,0c0,0,0.1,0,0.1-0.1c0,0,0-0.1,0.1-0.1c0,0,0.1-0.1,0.1-0.1L66.7,148.4z M66.9,150.1
		c0.1,0,0.3,0.1,0.7,0.1c0.1,0,0.2,0,0.3,0c0.2,0,0.3,0.1,0.5,0.1c0.2,0,0.4,0,0.7-0.1c0.7-0.1,1.3-0.3,1.8-0.3c0.1,0,0.1,0,0.2,0
		c-0.1,0.5-0.3,1-0.3,1.5c-0.2,0-0.5-0.1-1-0.2c-0.3-0.1-0.5-0.1-0.8-0.1c-0.1,0-0.2,0-0.2,0c-1.7-0.3-2.5-0.7-3.1-0.9
		c0.1-0.6,0.2-0.9,0.3-1.1c0.1,0.1,0.2,0.2,0.3,0.3c0,0.1,0,0.2,0.1,0.2C66.4,149.9,66.5,149.9,66.9,150.1 M69.8,149.4
		c0.6-0.6,0.6-1.1,0.7-1.3c0.4,0.7,0.3,1.2,0.3,1.2C70.3,149.2,69.8,149.4,69.8,149.4 M64.6,150.5c0,0,0.1,0,0.1,0.1
		c0.2,0.2,0.3,0.4,0.5,0.5c0,0,0.1,0,0.1,0c0,0,0.1,0,0.1,0c0.1,0,0.1-0.1,0.1-0.2v0c0.5,0.2,1.1,0.4,2,0.6
		c-0.2,0.1-0.3,0.2-0.5,0.4c-0.1,0-0.1,0.1-0.1,0.1c0,0-0.1,0.1-0.1,0.1c-0.1,0.2-0.2,0.2-0.3,0.4c-1-0.4-1.4-1.1-2-1.9l-0.2-0.2
		C64.4,150.4,64.5,150.5,64.6,150.5 M64.3,151c0.5,0.7,0.9,1.3,1.8,1.7c-0.2,0.2-0.5,0.4-0.8,0.5c-0.1,0-0.4,0.1-0.8,0.1
		c-0.3-0.4-0.4-0.9-0.4-1.3C64.2,151.7,64.3,151.3,64.3,151 M71,151.4c0-0.2,0.1-0.3,0.1-0.4c0-0.3,0.2-1,0.2-1
		c0.1-0.3,0.4-0.9,0.4-1c0,0,0,0.1,0,0.1l0,0c0.4,1.4,1.2,1.9,1.2,1.9c-0.8,0.1-1,0.2-1.2,0.3c-0.2,0.2-0.5,0.4-0.7,0.3
		C71,151.4,71,151.4,71,151.4 M60.8,147.8c-0.6,0-1.1-0.3-1.2-0.5c-0.1-0.1-0.2-0.6-0.2-1.1c0-0.6,0.2-1.1,0.5-1.2
		c1.3-0.7,1.6-1.7,1.6-2c0.2-0.3,0.7-0.6,1.1-0.6c0.5,0,1,0.2,1.3,0.8c0.2,0.5,0.3,1.2,1.4,1.9c0.4,0.2,0.7,0.7,0.6,1.3
		c0,0.4-0.2,0.8-0.5,1c-0.5,0.3-0.8,0.3-0.9,0.3c-0.1,0-0.2-0.1-0.5-0.2c-0.4-0.2-0.7-0.3-1.1-0.3c-0.5,0-0.9,0.2-1.5,0.4
		C61.3,147.8,61,147.8,60.8,147.8 M62.6,148c0.1,0,0.3-0.1,0.4-0.1c0.2,0,0.4,0,0.6,0.1c0.1,0.3,0.1,0.6,0.2,0.9c0,0.3,0,0.5-0.1,1
		C63.4,149.6,62.9,149,62.6,148 M63,149.6C63,149.6,63,149.6,63,149.6C62.9,149.5,62.9,149.5,63,149.6C63,149.5,63,149.5,63,149.6
		 M61.5,148.4c0.1,0,0.1,0,0.2,0c0.2-0.1,0.4-0.2,0.6-0.2c0.1,0.2,0.1,0.4,0.2,0.6v0.1c0,0.2,0,0.5,0.1,0.8
		C62,149.2,61.7,148.7,61.5,148.4 M54.8,151.3c1.1-0.7,1.8-0.9,2.3-0.9c0.2,0,0.4,0,0.6,0.1c1,0.4,1.6,0.5,2.1,0.5
		c1.1,0,1.3-0.6,2.2-0.7c0.5-0.1,0.8-0.1,1.2-0.1c0.2,0,0.3,0,0.5,0c0.1,0.1,0.2,0.2,0.2,0.2c0,0,0.1,0,0.1,0c0,0,0,0,0,0
		c0.1,0,0.1-0.1,0.1-0.1l0,0c0,0,0.1,0,0.2,0.1l-0.1,0.2c0,0-0.2,0.7-0.2,1.4c0,0.5,0.1,1,0.4,1.4c-0.5,0.1-1,0.1-1.3,0.2
		c0,0-0.1,0-0.1,0c-0.1,0-0.3,0-0.5,0c-0.5,0-1,0.1-2.1,0.8c-0.6,0.4-1,0.5-1.5,0.5c-0.8,0-1.8-0.4-3.6-1.2c-0.7-0.3-1-0.8-1-1.2
		C54,152.1,54.3,151.6,54.8,151.3 M55.5,111.1c0,0.6-0.1,1-0.4,1.5c-0.6-0.4-1.2-0.8-1.8-1.1c0.4-0.3,0.7-0.7,1-1
		c0.5-0.6,0.9-1.1,0.9-1.7c0-0.8-0.8-1.3-2-1.3c-0.2,0-0.4,0-0.5,0c-1.3,0-3,0.4-4.5,1.7c-1.6-0.6-1.9-1.5-2.3-4.3
		c0-0.1-0.1-0.2-0.2-0.3c-0.1,0-0.2,0-0.3,0.1c-1.1,1.1-1.5,2-1.5,2.9c0,0.3,0,0.5,0.1,0.8c-0.9,0.3-1.6,1.2-2,2.7
		c0,0.1,0,0.3,0.1,0.3c0.1,0.1,0.2,0.1,0.4,0c0.6-0.3,1.4-0.4,2.2-0.4c0.6,0,1.1,0.1,1.3,0.2c0.1,0,0.3,0.1,0.5,0.3
		c-0.2,0.3-0.4,0.7-0.6,1.1c-0.3,0.7-0.6,1.3-0.8,1.8c-0.8-0.4-1.6-0.6-2.7-0.6c0,0-0.1,0-0.2,0c-1.4,0-1.9,0.8-1.9,1.5
		c0,0.3,0.1,0.6,0.2,0.8c0.2,0.5,1.1,1.9,3,2.9c0,0,0,0.1,0,0.1c-0.5,0.8-1.9,1.8-2.3,1.9c-0.1,0-0.2,0.2-0.2,0.3
		c0,0.1,0.1,0.3,0.2,0.3c0.6,0.2,1.2,0.2,1.7,0.2c0.6,0,1.1-0.1,1.4-0.1c0.6,1,1.4,1.6,2.3,1.7c0,0,0,0,0.1,0c0.1,0,0.2,0,0.3-0.1
		c0.1-0.1,0.1-0.2,0-0.3c-0.4-1-0.6-1.6-0.6-2.3c0-0.2,0-0.5,0.1-0.7c0.6,0.1,1.1,0.2,1.6,0.2h0c2,0,3.1-0.8,3.5-1
		c0.7-0.3,1.8-1.1,2.1-1.4c0.6,0.4,1.2,0.7,1.8,1c0.4,0.1,0.7,0.2,1,0.2c1,0,1.6-0.9,1.6-1.9c0-0.6-0.2-1.2-0.5-1.9
		c-0.1-0.1-0.2-0.2-0.2-0.3c0.5-0.2,0.8-0.3,1.2-0.3c0.2,0,0.5,0,0.9,0.1c0.1,0,0.2,0,0.3-0.1c0.1-0.1,0.1-0.2,0-0.3
		c-0.4-0.8-1.3-1.5-2.5-1.7c0-0.9-0.3-1.6-1.3-2.6c-0.1-0.1-0.2-0.1-0.4-0.1c-0.1,0.1-0.2,0.2-0.2,0.3
		C55.5,110.5,55.5,110.9,55.5,111.1 M46.1,110.6c-0.4-0.2-0.9-0.2-1.6-0.2c-0.6,0-1.2,0.1-1.8,0.2c0.4-1,0.8-1.4,1.3-1.6
		c0.1,0.3,0.1,0.6,0.1,0.6c0,0.2,0.2,0.3,0.4,0.2c0.2,0,0.3-0.2,0.2-0.4v0c0,0,0,0,0-0.1c0-0.2-0.1-0.3-0.1-0.5c0-0.1,0-0.2,0-0.3
		c0-0.1,0-0.1-0.1-0.1c-0.1-0.3-0.1-0.6-0.1-0.8c0-0.6,0.2-1.1,0.8-1.9c0.3,2.2,0.9,3.3,2.4,4c-0.4,0.4-0.7,0.8-1,1.3
		C46.4,110.8,46.2,110.7,46.1,110.6 M46.4,112.8c1-2.1,2.1-3.3,3.3-3.9c0.2,0.9,0.3,1.3,1.1,1.8l0.2-0.3c-0.8-0.6-0.8-0.7-1-1.7
		c0.9-0.5,1.9-0.6,2.7-0.6c0.2,0,0.3,0,0.5,0c0.9,0.1,1.3,0.3,1.4,0.5c-1,0.1-1.4,0.4-1.5,0.6l0.2,0.2c0.1-0.1,0.4-0.4,1.3-0.5
		c0,0.3-0.2,0.7-0.7,1.1c-1.2,1.2-3.6,3.1-5,4.1c-0.5,0.4-1,0.9-1.4,1.5c-0.1-0.1-0.2-0.1-0.3-0.2c-0.6-0.3-1.1-0.6-1.5-0.8
		C45.8,114.1,46,113.6,46.4,112.8 M49.9,114.2c0.2,0.2,0.4,0.4,0.6,0.6c0.3,0.3,0.5,0.6,0.8,0.9c-1,0.4-1.6,0.6-2,0.6
		c-0.3,0-0.7-0.1-1.1-0.3c0.3-0.5,0.7-0.9,1.1-1.2C49.4,114.5,49.7,114.4,49.9,114.2 M44.6,121.1c-0.1-0.4-0.3-0.7-0.3-0.7
		c-0.1-0.2-0.3-0.2-0.4-0.2c-0.2,0.1-0.2,0.2-0.2,0.4c0,0.2,0.1,0.3,0.2,0.4c-0.3,0-0.7,0.1-1.1,0.1c-0.2,0-0.5,0-0.7,0
		c0.6-0.4,1.3-1,1.8-1.7c0-0.1,0.1-0.1,0.1-0.2c0.5,0.2,1,0.4,1.6,0.6c0,0,0.1,0,0.1,0c-0.1,0.3-0.1,0.6-0.1,0.9
		c0,0.6,0.1,1.2,0.4,1.9C45.5,122.2,45,121.7,44.6,121.1 M51.2,118.5c-0.6,0.2-1.4,0.9-3.3,0.9c-0.6,0-1.3-0.1-2.1-0.3
		c-3.3-0.8-4.6-2.9-4.8-3.3c-0.1-0.2-0.1-0.4-0.1-0.6c0,0,0-0.1,0-0.1c0.7,0.1,1,0.3,1.2,0.7l0.3-0.1c-0.2-0.5-0.7-0.8-1.4-0.9
		c0.1-0.2,0.4-0.4,1.1-0.4c0.1,0,0.1,0,0.2,0c1,0,1.8,0.2,2.6,0.7c0,0.1,0,0.2,0,0.3c0,0.6-0.2,1-0.8,1.2l0.1,0.3
		c0.8-0.3,1-0.9,1-1.5c0-0.1,0-0.1,0-0.2c0.4,0.2,0.9,0.5,1.5,0.8c1,0.5,1.6,0.8,2.4,0.8c0.7,0,1.4-0.3,2.5-0.8
		c0.2,0.2,0.5,0.5,0.8,0.8c0,0,0.1,0.1,0.1,0.1c0.1,0.1,0.2,0.2,0.3,0.3C52.5,117.7,51.6,118.3,51.2,118.5 M57.4,117
		c0,0.4-0.1,0.7-0.3,0.9c-0.6-0.6-1.2-1.2-1.9-1.4l-0.1,0.3c0.6,0.2,1.1,0.7,1.7,1.3c-0.1,0.1-0.3,0.1-0.4,0.1c-0.2,0-0.5,0-0.8-0.2
		c-1.3-0.5-2.4-1.4-3.4-2.4c-0.1-0.1-0.2-0.2-0.2-0.2l-0.2-0.2c-0.3-0.3-0.6-0.7-0.9-1c-0.2-0.2-0.3-0.4-0.5-0.6
		c0.8-0.6,1.6-1.2,2.3-1.8c0.9,0.5,1.7,1,2.5,1.6c0.1,0.1,0.2,0.1,0.3,0.2c0.1,0.1,0.1,0.1,0.2,0.2c0.1,0.1,0.2,0.2,0.3,0.3
		c0.1,0.1,0.3,0.2,0.4,0.4l0,0c0.3,0.3,0.5,0.6,0.6,0.9C57.3,116,57.4,116.5,57.4,117 M56.2,111.1L56.2,111.1c0.5,0.5,0.5,1,0.5,1.7
		c0,0.2,0.1,0.3,0.3,0.3c0.8,0,1.4,0.3,1.8,0.8c-0.1,0-0.2,0-0.3,0c-0.5,0-0.9,0.1-1.5,0.3c-0.4-0.4-0.8-0.7-1.1-1
		c0,0-0.1-0.1-0.1-0.1c0,0-0.1-0.1-0.1-0.1C56,112.4,56.2,111.8,56.2,111.1 M61.9,217.4l-0.3,0c0,0.2,0,0.5,0,0.8c0,0.5,0,0.9,0,0.9
		l0.3,0c0,0,0-0.4,0-0.9C61.9,217.9,61.9,217.6,61.9,217.4 M71.9,153.1L71.9,153.1c-0.1,0.3-0.1,0.6-0.1,0.8c0,0.5,0.1,0.8,0.1,0.8
		l0.3-0.1c0,0-0.1-0.3-0.1-0.8c0-0.2,0-0.5,0.1-0.8L71.9,153.1z M71.3,153.4l-0.3,0v0c0,0.2,0,0.5,0,0.8c0,0.5,0,0.9,0,0.9l0.3,0
		c0,0,0-0.4,0-0.9C71.2,153.9,71.2,153.6,71.3,153.4 M73,153l-0.3,0c0,0.1,0,0.3,0,0.4c0,0.7,0.2,1.1,0.2,1.1l0.3-0.2
		c0,0-0.2-0.3-0.2-1C73,153.3,73,153.2,73,153 M64.5,154.8l-0.3,0.1c0.5,1,0.8,1,1.4,1.3l0.2-0.3C65.1,155.7,65,155.8,64.5,154.8
		 M69.4,153.7l-0.3-0.1c0,0.1,0,0.2,0,0.3c0,0.5,0.2,1.1,0.2,1.1l0.3-0.1c0,0-0.1-0.6-0.1-1.1C69.4,153.9,69.4,153.8,69.4,153.7
		 M66.9,154.5h-0.3c0,0.5,0.6,0.8,0.6,0.9l0.2-0.2C67.3,155,66.9,154.8,66.9,154.5 M67.7,217.2l-0.1,0.3c1,0.5,1.1,0.8,1.4,1.4
		l0.3-0.2C68.9,218.2,68.8,217.7,67.7,217.2 M65.9,154.7l-0.3,0.1c0.1,0.5,0.3,0.8,0.5,0.9c0.1,0.1,0.2,0.1,0.3,0.2c0,0,0.1,0,0.1,0
		c0,0,0,0,0,0l0.2-0.2C66.5,155.5,66.2,155.5,65.9,154.7 M73.8,152.5l-0.3-0.1c0,0.1,0,0.3,0,0.4c0,0.6,0.2,1.2,0.4,1.5l0.3-0.2
		c-0.2-0.3-0.4-0.8-0.4-1.3C73.8,152.7,73.8,152.6,73.8,152.5 M18,154.8l-0.3,0.1c0.5,1,0.8,1,1.4,1.3l0.2-0.3
		C18.6,155.7,18.5,155.8,18,154.8 M79,142.9c0,0,0.3-0.7,1-1.1c-1-0.4-1.3-0.6-3-0.3C78,141.6,78.2,142.1,79,142.9 M75.8,153.3
		c0.6,0.5,0.7,1.4,0.7,1.4l0.3,0c0,0-0.1-1-0.8-1.6L75.8,153.3z M73.5,146.1l0.3-0.1c0,0-0.2-0.5-1-0.7c0.1-0.2,0.2-0.5,0.2-0.7
		c0-0.2,0-0.3-0.1-0.5c0.2-0.1,0.4-0.2,0.6-0.3c0.2,0.1,0.4,0.1,0.7,0.1c0.3,0,0.7,0,1.1-0.1c-0.3,0.3-0.5,0.6-0.5,1
		c0,0.8,0.6,1.4,1.4,1.4c0.1,0,0.2,0,0.3-0.1c0.2,0.4,0.3,0.7,0.3,0.7c0.3-1,1.6-0.9,1.6-0.9c-0.3-0.2-0.6-0.4-0.9-0.6
		c0-0.1,0-0.2,0-0.3c0-0.1,0.1-0.2,0.1-0.3c0-0.1,0-0.2-0.1-0.3c0-0.1,0-0.2,0-0.2c0,0,0,0,0-0.1c-0.1-0.3-0.3-0.5-0.6-0.6
		c-0.2-0.2-0.3-0.3-0.3-0.4l-0.2,0c-0.5,0.2-1.5,0.3-2.2,0.3c-0.3,0-0.6,0-0.7-0.1l-0.2,0c-0.3,0.2-0.7,0.4-0.7,0.4
		c0,0-0.1,0.1-0.1,0.1c0,0.1,0,0.1,0,0.1c0.1,0.1,0.1,0.2,0.1,0.4c0,0.4-0.2,0.8-0.2,0.8c0,0,0,0.1,0,0.1c0,0,0.1,0.1,0.1,0.1
		C73.3,145.7,73.5,146.1,73.5,146.1 M76.1,143.7c0.2,0,0.3,0,0.5,0.1c0.2,0.2,0.4,0.4,0.5,0.5c0,0,0,0.1,0,0.2c0,0.1,0,0.2,0,0.4
		c0,0.1,0,0.2,0,0.3c-0.5-0.4-0.9-0.8-1-1c0,0.6,0.1,1.2,0.2,1.7c-0.1,0-0.1,0-0.2,0c-0.6,0-1.1-0.5-1.1-1.1
		C75.1,144.2,75.5,143.7,76.1,143.7 M77.2,152.3c-1.1-0.3-1.7-0.9-1.9-1.6c-0.1-0.8-0.3-1.6-1.4-1.7l-0.1,0.3c1,0.2,0.9,0.6,1.1,1.5
		c0.2,0.9,1,1.5,2.1,1.8c1.1,0.3,1.9,1.4,1.9,1.4l0.3-0.2C79.3,153.8,78.5,152.6,77.2,152.3 M76.9,153.4L76.9,153.4L76.9,153.4
		L76.9,153.4z M77,153.2l-0.1,0.3c1,0.5,1.1,0.8,1.4,1.4l0.3-0.2C78.3,154.2,78.1,153.7,77,153.2 M65.6,154.8L65.6,154.8L65.6,154.8
		L65.6,154.8z M25.4,153.1L25.4,153.1c-0.1,0.3-0.1,0.6-0.1,0.8c0,0.5,0.1,0.8,0.1,0.8l0.3-0.1c0,0-0.1-0.3-0.1-0.8
		c0-0.2,0-0.5,0.1-0.8L25.4,153.1z M26.5,153l-0.3,0c0,0.1,0,0.3,0,0.4c0,0.7,0.2,1.1,0.2,1.1l0.3-0.2c0,0-0.2-0.3-0.2-1
		C26.5,153.3,26.5,153.2,26.5,153 M64.1,210.1l0.3-0.1c0,0-0.2-0.5-1-0.7c0.1-0.2,0.2-0.4,0.2-0.7c0-0.2,0-0.3-0.1-0.5
		c0.1-0.1,0.4-0.2,0.6-0.3c0.2,0.1,0.4,0.1,0.7,0.1c0.3,0,0.7,0,1.1-0.1c-0.3,0.3-0.5,0.6-0.5,1c0,0.8,0.6,1.4,1.4,1.4
		c0.1,0,0.2,0,0.3-0.1c0.2,0.4,0.3,0.7,0.3,0.7c0.3-1.1,1.6-0.9,1.6-0.9c-0.3-0.2-0.6-0.4-0.9-0.6c0-0.1,0-0.2,0-0.3
		c0-0.1,0.1-0.2,0.1-0.3c0-0.1,0-0.2-0.1-0.3c0-0.1,0-0.2,0-0.2c0,0,0,0-0.1-0.1c-0.1-0.3-0.3-0.5-0.6-0.6c-0.2-0.2-0.3-0.3-0.3-0.4
		l-0.2,0c-0.5,0.2-1.5,0.3-2.2,0.3c-0.3,0-0.6,0-0.7-0.1l-0.2,0c-0.3,0.2-0.7,0.4-0.7,0.4c0,0-0.1,0.1-0.1,0.1c0,0.1,0,0.1,0,0.1
		c0.1,0.1,0.1,0.2,0.1,0.4c0,0.4-0.2,0.8-0.2,0.8c0,0,0,0.1,0,0.1c0,0,0.1,0.1,0.1,0.1C64,209.7,64.1,210.1,64.1,210.1 M66.8,207.7
		c0.2,0,0.3,0,0.5,0.1c0.2,0.2,0.4,0.4,0.5,0.5c0,0,0,0.1,0,0.2c0,0.1,0,0.2,0,0.4c0,0.1,0,0.2,0,0.3c-0.5-0.4-0.9-0.8-1-1
		c0,0.6,0.1,1.2,0.2,1.7c-0.1,0-0.1,0-0.2,0c-0.6,0-1.1-0.5-1.1-1.1C65.7,208.2,66.2,207.7,66.8,207.7 M27.3,152.5l-0.3-0.1
		c0,0.1,0,0.3,0,0.4c0,0.6,0.2,1.2,0.4,1.5l0.3-0.2c-0.2-0.3-0.4-0.8-0.4-1.3C27.3,152.7,27.3,152.6,27.3,152.5 M67.9,216.3
		c-1.1-0.3-1.8-0.9-1.9-1.6c-0.1-0.8-0.3-1.6-1.4-1.7l0,0.3c1,0.2,0.9,0.6,1.1,1.5c0.2,0.9,1,1.5,2.1,1.8c1.1,0.3,1.9,1.4,1.9,1.4
		l0.3-0.2C70,217.8,69.1,216.6,67.9,216.3 M14.4,145.2c0,0-0.1,0-0.1,0c-0.3,0-0.7,0.1-0.8,0.5c-0.1,0.1-0.1,0.3-0.1,0.4
		c0.1,0.4,0,0.6,0.3,0.8c0.1,0,0.2-0.1,0.2-0.2v0c0,0,0-0.2,0.1-0.4c0.1,0.3,0.3,0.3,0.4,0.3c0,0,0.6-0.1,0.7-0.7c0-0.1,0-0.1,0-0.2
		C14.9,145.2,14.4,145.2,14.4,145.2 M14.3,146.3c0,0-0.1,0-0.1-0.4c0-0.1,0-0.1-0.1-0.1c0,0,0,0-0.1,0c0,0-0.1,0-0.1,0
		c-0.1,0.1-0.2,0.2-0.3,0.3V146c0-0.1,0-0.2,0.1-0.3c0-0.1,0.4-0.3,0.5-0.3c0,0,0,0,0,0v0c0.2,0.1,0.3,0,0.4,0.4c0,0,0,0.1,0,0.1
		C14.7,146.1,14.3,146.3,14.3,146.3 M19.1,154.8L19.1,154.8L19.1,154.8L19.1,154.8z M69.7,206.9c0,0,0.3-0.7,1-1.1
		c-1-0.4-1.3-0.6-3-0.3C68.7,205.6,68.9,206.1,69.7,206.9 M20.4,154.5h-0.3c0,0.5,0.6,0.8,0.6,0.9l0.2-0.2
		C20.8,155,20.4,154.8,20.4,154.5 M50.2,208.5c-0.7,0.4-0.8,1.1-0.8,1.8c0,0.6,0.1,1.1,0.3,1.4c0.3,0.5,1,0.8,1.8,0.8
		c0.1,0,0.3,0,0.4-0.1c0.1,0.3,0.4,0.8,0.9,1.2c-0.1,0-0.2,0-0.3,0c-1.2,0.2-1.4,0.7-2.1,0.7c-0.4,0-0.9-0.1-1.8-0.5
		c-0.2-0.1-0.5-0.2-0.8-0.2c-0.6,0-1.4,0.3-2.6,1c-0.7,0.4-1.1,1.1-1.1,1.8c0,0.8,0.5,1.5,1.4,1.8c1.9,0.8,2.9,1.3,3.9,1.3h0
		c0.6,0,1.2-0.2,1.9-0.6c0.6-0.4,1-0.5,1.3-0.6c0,0.4,0.1,1.2,0.9,1.4c0.6,0.1,0.5-0.1,1,0.4c0.8,0.9,1.6,1.2,2.3,1.2h0
		c1,0,1.7-0.7,2-0.9c0.4-0.3,0.8-0.5,1.1-0.5c0.1,0,0.3,0,0.4,0.1c0.3,0.1,0.6,0.1,1,0.1c0.8,0,1.6-0.1,2.1-0.4
		c0.6-0.3,1-0.4,1.4-0.4c0.4,0,0.7,0.1,1.1,0.2c0.8,0.3,2,0.5,3.7,0.5c1,0,2.2-0.1,3.6-0.3l0,0c0.1,0.1,0.6,0.9,1.8,1.1l0.8,0.1
		l-0.4-0.6c-0.1-0.1-0.1-0.4-0.1-0.9c0-0.1,0-0.3,0-0.4c0.5,0.3,1.3,0.6,2.4,0.6c0.6,0,1.2-0.1,1.9-0.4l0.6-0.2l-0.6-0.4
		c-0.4-0.2-0.8-0.6-1.4-1c0.1,0,0.2,0,0.3,0c0.5,0,0.9-0.1,1.2-0.3c0.4-0.3,1.7-0.7,3.1-3.9l0.8-1.8l-1.3,1.4
		c-0.1,0.1-0.5,0.3-1.1,0.4c0.7-0.6,1.4-1.5,1.9-3.1l0.5-1.6l-1.1,1.3c-0.1,0.1-0.3,0.2-0.6,0.4c0.4-0.5,0.9-1.2,1.3-2.2l0.5-1.3
		l-1,1c-0.2,0.2-0.8,0.5-1.8,0.8c0.5-0.5,1.1-1.1,1.5-2l0.5-0.9l-0.9,0.4c-0.2,0.1-0.8,0.3-1.5,0.4c0.8-1,1.2-2.1,1.2-3.9
		c0-0.8-0.1-1.8-0.2-2.9l-0.2-1.7l-0.4,1.6c-0.9,3.3-3.5,3.6-3.5,3.6l0,0c0.6-0.7,1.2-1.7,1.2-3.2c0-0.9-0.2-2.1-0.8-3.4l-0.2-0.5
		l-0.3,0.4c-1.6,1.9-1.2,2.2-3.1,2.7c-1.5,0.4-2.8,1.5-3.3,2.8c-0.4-0.2-0.9-0.3-1.5-0.3c-0.9,0-2,0.4-3,1.3c-0.5-0.2-1-0.2-1.5-0.2
		c-0.9,0-1.7,0.3-2.3,1c-0.4,0.5-0.5,0.5-0.5,0.5c0,0-0.4-0.2-0.9-0.5c-0.5-0.2-1.3-0.5-2.2-0.5c-0.7,0-1.5,0.2-2.3,0.7l-1,0.7
		l1.2-0.1c0.2,0,0.3,0,0.4,0c1.1,0.1,1.2,0.3,1.2,0.8v0.1c0,0.5-0.6,0.7-0.9,0.7c0,0,0,0-0.2,0c-0.2,0-1.1-0.1-1.6-0.2
		c-0.3,0-0.7-0.4-1.7-0.6c-0.2-0.1-0.4-0.1-0.6-0.1c-0.7,0-1.4,0.3-1.7,0.9l0,0.1C51.5,207,51.4,207.9,50.2,208.5 M52.2,212.4
		c0.1,0,0.1,0,0.2,0c0.2-0.1,0.4-0.2,0.6-0.2c0.1,0.2,0.1,0.4,0.2,0.6c0,0,0,0,0,0.1c0,0.2,0,0.5,0.1,0.8
		C52.6,213.2,52.3,212.7,52.2,212.4 M50.8,218.4c-0.6,0.4-1,0.5-1.5,0.5c-0.8,0-1.8-0.4-3.6-1.2c-0.7-0.3-1-0.8-1-1.2
		c0-0.4,0.2-0.9,0.8-1.2c1.1-0.7,1.8-0.9,2.3-0.9c0.2,0,0.4,0,0.6,0.1c1,0.4,1.6,0.5,2.1,0.5c1.1,0,1.3-0.6,2.2-0.7
		c0.5-0.1,0.8-0.1,1.2-0.1c0.2,0,0.3,0,0.5,0c0.1,0.1,0.2,0.2,0.2,0.2c0,0,0.1,0.1,0.1,0.1c0,0,0,0,0,0c0.1,0,0.1-0.1,0.1-0.1l0,0
		l0.1,0l-0.1,0.2c0,0-0.2,0.7-0.2,1.4c0,0.4,0.1,0.9,0.4,1.4c-0.5,0.1-1,0.1-1.3,0.2c0,0-0.1,0-0.1,0c-0.1,0-0.3,0-0.5,0
		C52.5,217.6,52,217.7,50.8,218.4 M53.3,212.1c0.1,0,0.3-0.1,0.4-0.1c0.2,0,0.4,0,0.6,0.1c0.1,0.3,0.1,0.6,0.2,0.9
		c0,0.3,0,0.5-0.1,1C54,213.6,53.5,213,53.3,212.1 M53.6,213.6C53.6,213.6,53.6,213.6,53.6,213.6C53.6,213.6,53.6,213.5,53.6,213.6
		C53.6,213.5,53.6,213.5,53.6,213.6 M57.4,212.4l0.1,0.1c0.1-0.1,0.3-0.2,0.5-0.4c0,0,0.1,0,0.1-0.1c0.1-0.1,0.2-0.2,0.3-0.4
		c0-0.1,0.1-0.1,0.1-0.2c0.1-0.1,0.2-0.3,0.2-0.5c0-0.1,0.1-0.3,0.1-0.4c0-0.1,0-0.2,0-0.3c0-0.1,0-0.3-0.1-0.4
		c0-0.1-0.1-0.2-0.1-0.2c0-0.1-0.1-0.2-0.2-0.3c-0.1-0.2-0.3-0.3-0.3-0.3s0.6,0,1.2,0.4c0.2,0.1,0.3,0.2,0.4,0.4
		c0.1,0.1,0.1,0.2,0.2,0.3c0,0.1,0.1,0.1,0.1,0.2c0.1,0.3,0.2,0.6,0.2,1c0,0.3,0,0.5-0.1,0.8c0,0,0,0.1,0,0.1
		c-0.1,0.7-0.5,1.2-1.1,1.4c-0.7,0.3-0.7,0.4-1.4,0.2c-0.5-0.2-0.7-0.6-0.6-0.9c0,0,0,0,0,0c0,0,0.1,0,0.1-0.1c0,0,0-0.1,0.1-0.1
		c0,0,0.1-0.1,0.1-0.1L57.4,212.4z M57.6,214.1c0.1,0,0.3,0.1,0.7,0.1c0.1,0,0.2,0,0.3,0c0.2,0,0.3,0.1,0.5,0.1c0.2,0,0.4,0,0.7-0.1
		c0.7-0.1,1.3-0.3,1.8-0.3c0.1,0,0.1,0,0.2,0c-0.1,0.4-0.3,0.9-0.3,1.5c-0.2,0-0.6-0.1-1-0.2c-0.3-0.1-0.5-0.1-0.8-0.1
		c-0.1,0-0.2,0-0.2,0c-1.7-0.3-2.5-0.7-3.1-0.9c0.1-0.6,0.2-0.9,0.3-1.1c0.1,0.1,0.2,0.2,0.3,0.3c0,0.1,0,0.2,0.1,0.2
		C57.1,213.9,57.1,213.9,57.6,214.1 M60.4,213.4c0.6-0.6,0.6-1.1,0.7-1.3c0.4,0.7,0.3,1.2,0.3,1.2C61,213.2,60.4,213.4,60.4,213.4
		 M55.1,214.6l-0.2-0.2c0.1,0,0.3,0.1,0.4,0.1c0,0,0.1,0,0.1,0.1c0.2,0.2,0.3,0.4,0.5,0.5c0,0,0.1,0,0.1,0c0,0,0,0,0.1,0
		c0.1,0,0.1-0.1,0.1-0.2v0c0.5,0.2,1.1,0.4,2,0.6c-0.2,0.1-0.3,0.2-0.5,0.4c0,0-0.1,0.1-0.1,0.1c0,0-0.1,0.1-0.1,0.1
		c-0.1,0.1-0.2,0.2-0.3,0.4C56.1,216.1,55.7,215.4,55.1,214.6 M56.8,216.8c-0.2,0.2-0.5,0.4-0.8,0.5c-0.1,0-0.4,0.1-0.8,0.1
		c-0.3-0.4-0.4-0.9-0.4-1.3c0-0.4,0.1-0.8,0.1-1C55.5,215.7,55.9,216.4,56.8,216.8 M55.8,214.6c-0.4-0.4-0.9-1.2-1.2-2.3
		c0.2,0.1,0.3,0.2,0.6,0.2c0.2,0,0.4-0.1,0.7-0.2c0.1,0.2,0.2,0.4,0.4,0.6C56.1,213.1,55.8,213.6,55.8,214.6 M54.8,213.7
		C54.8,213.7,54.8,213.7,54.8,213.7C54.8,213.7,54.8,213.7,54.8,213.7C54.8,213.7,54.8,213.7,54.8,213.7 M79.3,206.9l-0.4,0.4
		l0.6,0.1c0.3,0.1,0.5,0.1,0.7,0.1c0.4,0,0.7,0,1-0.1c-1,1.4-1.9,1.8-2.9,2c0,0,0,0,0,0l0.1,0.7c1.7-0.2,2.9-0.5,3.7-0.8
		c-0.7,1.3-1.3,1.8-2,2.2l-0.3,0.2c-0.4,0-1,0.1-1.7,0.1c-0.7,0-1.5,0-2.3-0.1c0.5-0.5,1.8-2.1,2.5-3.5c0-0.1,0-0.1,0-0.2
		c0-0.1-0.1-0.1-0.2,0c0,0-0.5,0.2-1.2,0.2c1.1-0.7,2.5-1.5,3.8-4.1C80.6,205.3,80.1,206.1,79.3,206.9 M77.6,200.4
		c0,2.2-1.5,3.2-1.9,3.4l-0.4,0.1c-0.1,0-0.3,0-0.4,0.1c0.6-0.5,1.3-1.3,1.7-2l0.1-0.2l-0.2,0c0,0-0.6-0.1-1.2-0.1
		c0.6-0.3,1.4-0.8,2.3-1.9C77.6,200,77.6,200.2,77.6,200.4 M55.5,207.2c0.5,0.1,1.4,0.1,1.7,0.2l0.1,0v0c0.5,0,1.4-0.3,1.5-1.4v-0.1
		c0-0.6-0.4-1.1-1.1-1.3c0.3-0.1,0.5-0.1,0.8-0.1c0.7,0,1.4,0.2,1.9,0.5c0.5,0.2,0.7,0.5,1.2,0.5c0.4,0,0.7-0.3,1.1-0.8
		c0.4-0.6,1.1-0.8,1.8-0.8c0.3,0,0.6,0,0.9,0.1c0,0.1-0.1,0.1-0.1,0.2l0.5,0.4c1.2-1.4,2.3-1.8,3.2-1.8c1.1,0,1.9,0.6,2.2,1
		c0,0,0,0,0,0c0,0,0,0,0,0l0.5-0.4c0,0-0.2-0.4-0.7-0.7c0.3-1.1,1.5-2.1,2.9-2.5c1.9-0.5,2-1,3.1-2.5c0.2,0.5,0.3,1,0.4,1.5
		c-1.4,1.7-2.4,2.1-3,2.4L74,202l0.6,0c0.1,0,0.2,0,0.4,0c0.5,0,0.9,0,1.2,0.1c-0.5,0.8-1.5,1.7-2,2.1c-1.5,0.4-2.4,1.2-2.5,3.4
		l0.7,0c0.2-2.1,0.7-2.5,2.2-2.8l0,0c0,0,0.1,0,0.1,0c0.2,0,0.3-0.1,0.5-0.1l0.1,0c0.1,0,0.2,0,0.3,0c0.1,0,0.1,0,0.2-0.1l1.3-0.2
		c0,0,2.3-0.4,3.5-2.8c0,0.6,0.1,1,0.1,1.5v0c-1.6,3.5-3.2,4.1-4.6,5c-0.1,0-0.1,0.1-0.1,0.2c0,0.1,0.1,0.1,0.1,0.1h0.3
		c0.5,0,0.9-0.1,1.2-0.1c-0.9,1.6-2.5,3.3-2.5,3.3c0,0-0.1,0.1,0,0.2c0,0.1,0.1,0.1,0.1,0.1c0.9,0.2,1.8,0.2,2.6,0.2
		c0.4,0,0.8,0,1.1,0l-1.4,0.8l2.5-0.7c0.8-0.2,1.4-0.4,1.8-0.6c-0.9,2.1-2.1,2.4-2.8,2.7l-2.3,0.6h2.4c1,0,1.8-0.2,2.5-0.4
		c-0.5,1-0.9,1.6-1.3,1.9c-3.1-0.4-5.4-1.9-6-2.3l-0.2,0.3c0.6,0.4,2.8,1.9,5.9,2.3c-0.3,0.3-0.6,0.4-0.8,0.5
		c-0.1,0.1-0.4,0.2-0.8,0.2c-0.6,0-1.3-0.2-1.8-0.4c0,0,0,0-0.1,0h0l-0.4,0.6c0,0,0,0,0,0c0,0,0,0,0,0c1.2,0.8,1.8,1.4,2.4,1.8
		c-0.3,0.1-0.6,0.1-0.9,0.1c-2.2-1.3-3.6-3-3.7-3l-0.2,0.2c0,0,1.2,1.5,3.2,2.7c-0.9-0.1-1.6-0.5-2-0.7l-0.5-0.3l-0.1,0.6
		c0,0.4-0.1,0.7-0.1,1c0,0.2,0,0.4,0,0.6c-0.4-0.2-0.7-0.5-0.8-0.6l0.1-0.1c-0.7-0.6-1.2-2.4-1.2-2.4l-0.3,0.1c0,0,0.3,1.3,0.9,2.1
		c-1.4,0.2-2.6,0.3-3.7,0.3c-1.7,0-2.8-0.2-3.5-0.5c-0.4-0.2-0.9-0.3-1.3-0.3c-0.5,0-1.1,0.1-1.7,0.4c-0.4,0.2-1.2,0.3-1.8,0.3
		c-0.3,0-0.6,0-0.8-0.1c-0.2-0.1-0.5-0.1-0.7-0.1c-0.6,0-1.1,0.3-1.5,0.6c-0.4,0.3-0.9,0.8-1.6,0.8c-0.4,0-1-0.2-1.8-1
		c-0.5-0.7-1.1-0.6-1.5-0.6c0,0-0.1-0.1-0.2-0.4c-0.1-0.2-0.1-0.4-0.1-0.5c0.1,0,0.2,0,0.4,0h0.1c0.7,0,2.1-0.2,2.6-0.4
		c0.5-0.1,1.1-0.5,1.5-1.1c0-0.1,0.1-0.1,0.2-0.2c0.1-0.1,0.3-0.2,0.4-0.3c0.3-0.1,0.5-0.3,0.7-0.3c0.2-0.1,0.3-0.1,0.5-0.1
		c0.2,0,0.4,0,0.6,0.1c0.5,0.1,0.9,0.2,1.2,0.2c0.4,0,0.7-0.1,1-0.3c0.5-0.4,0.2-0.4,1.5-0.5c0.1,0,0.2-0.1,0.3-0.2
		c0.1-0.1,0-0.3-0.1-0.3c-0.4-0.4-0.7-0.7-1.1-1c-0.2-0.3-0.4-0.7-0.5-1.3c0-0.1-0.1-0.1-0.1-0.1c-0.1,0-0.1,0-0.2,0.1
		c0,0-0.2,0.3-0.4,0.8c0,0-0.1,0-0.1,0c0-0.3-0.1-0.8-0.5-1.4c0-0.1-0.1-0.1-0.2-0.1c-0.1,0-0.1,0.1-0.1,0.1c0,0.3-0.1,0.8-0.6,1.5
		c-0.1,0-0.3,0.1-0.4,0.1c0.3-0.3,0.6-0.7,0.7-1.3c0-0.3,0.1-0.6,0.1-0.9c0-1.3-0.7-2.4-2.7-2.6l-0.4,0l0.3,0.3
		c0.6,0.6,0.8,1.1,0.8,1.5c0,1-1.2,1.8-1.2,1.8c-0.2,0.1-0.3,0.2-0.4,0.4c-0.2-0.2-0.3-0.4-0.4-0.6c0.6-0.3,0.8-0.9,0.8-1.5
		c0-0.7-0.3-1.5-1-1.8c-0.9-0.5-0.8-0.9-1.2-1.5C55.3,207.1,55.4,207.2,55.5,207.2 M61.7,215.4c0-0.2,0.1-0.3,0.1-0.4
		c0-0.3,0.2-1,0.2-1c0.1-0.3,0.4-0.9,0.4-1c0,0,0,0.1,0,0.1l0,0c0.4,1.4,1.2,1.9,1.2,1.9c-0.7,0.1-1,0.2-1.2,0.3
		c-0.2,0.2-0.5,0.4-0.7,0.3C61.7,215.4,61.7,215.4,61.7,215.4 M52.1,207.1c0.2-0.3,0.7-0.6,1.1-0.6c0.5,0,1,0.2,1.3,0.8
		c0.2,0.5,0.3,1.2,1.4,1.9c0.4,0.2,0.7,0.7,0.7,1.3c0,0.4-0.2,0.8-0.5,1c-0.5,0.3-0.8,0.3-0.9,0.3c-0.1,0-0.2-0.1-0.5-0.2
		c-0.4-0.2-0.7-0.3-1.1-0.3c-0.5,0-0.9,0.2-1.5,0.4c-0.2,0.1-0.5,0.1-0.7,0.1c-0.6,0-1.1-0.3-1.2-0.5c-0.1-0.1-0.2-0.6-0.2-1.1
		c0-0.6,0.2-1.1,0.5-1.2C51.8,208.4,52.1,207.4,52.1,207.1 M55.6,211c0.3-0.2,0.4-0.6,0.4-0.9c0,0,0-0.1,0-0.1
		c0-0.1-0.1-0.5-0.6-0.6c0,0-0.1,0-0.1,0c-0.6,0-0.7,0.7-0.7,0.7c0,0.1,0.1,0.3,0.3,0.4c-0.1,0.1-0.3,0.1-0.4,0.1c0,0,0,0,0,0
		l-0.1,0c0,0-0.1,0-0.1,0.2c0.2,0.4,0.4,0.2,0.7,0.3C55.3,211.1,55.4,211.1,55.6,211 M54.9,210.1c0,0,0-0.1,0.1-0.2
		c0.1-0.1,0.1-0.2,0.3-0.2c0,0,0,0,0.1,0c0.4,0.1,0.3,0.2,0.4,0.4v0c0,0.1-0.2,0.6-0.2,0.6c-0.1,0-0.2,0.1-0.3,0.1
		c0.1-0.1,0.2-0.2,0.3-0.3c0,0,0-0.1,0-0.2c0,0-0.1-0.1-0.1-0.1C54.9,210.2,54.9,210.1,54.9,210.1 M19.4,154.7l-0.3,0.1
		c0.1,0.5,0.3,0.8,0.5,0.9c0.1,0.1,0.2,0.1,0.3,0.2c0,0,0.1,0,0.1,0c0,0,0,0,0,0l0.2-0.2C20,155.5,19.7,155.5,19.4,154.7
		 M24.8,153.4l-0.3,0v0c0,0.2,0,0.5,0,0.8c0,0.5,0,0.9,0,0.9l0.3,0c0,0,0-0.4,0-0.9C24.7,153.9,24.7,153.6,24.8,153.4 M22.9,153.7
		l-0.3-0.1c0,0.1,0,0.2,0,0.3c0,0.5,0.2,1.1,0.2,1.1l0.3-0.1c0,0-0.1-0.6-0.1-1.1C22.9,153.9,22.9,153.8,22.9,153.7 M50.8,210.8
		c0.1,0,0.2-0.1,0.2-0.2v0c0,0,0-0.2,0.1-0.4c0.1,0.3,0.3,0.3,0.4,0.3c0,0,0.6-0.1,0.7-0.7c0-0.1,0-0.1,0-0.2
		c-0.1-0.5-0.6-0.6-0.6-0.6c0,0-0.1,0-0.1,0c-0.3,0-0.7,0.1-0.9,0.5c-0.1,0.1-0.1,0.3-0.1,0.4C50.6,210.5,50.5,210.7,50.8,210.8
		 M50.8,210c0-0.1,0-0.2,0.1-0.3c0-0.1,0.4-0.3,0.5-0.3h0v0c0.2,0.1,0.3,0,0.4,0.4c0,0,0,0.1,0,0.1c0,0.2-0.4,0.4-0.4,0.4
		c0,0,0,0-0.1-0.4c0-0.1,0-0.1-0.1-0.1c0,0,0,0-0.1,0c0,0-0.1,0-0.1,0C51,209.9,50.9,210,50.8,210L50.8,210z"/>
</g>
</svg>
