<svg xmlns="http://www.w3.org/2000/svg" viewBox="0 0 141.8 18"><path d="M16.9 4.8l-1.8 8.1H15l-1.7-8.1H8.7l-1.6 8.1H7L5.1 4.8H0l4 12.9h5l1.9-7.9h.1l1.9 7.9h5L22 4.8M33.9 0h4.8v17.7h-4.8zM39.7 0h4.8v17.7h-4.8zM51.4 18c-4 0-6.9-2.3-6.9-6.8 0-4.1 3-6.8 7.1-6.8 3.3 0 6.4 1.7 6.5 5.5h-4.6c0-1.3-.7-2-1.8-2-1.8 0-2.2 1.7-2.2 3.3 0 2.1.6 3.3 2.1 3.3 1.3 0 1.9-.9 2.1-1.9h4.6c-.7 3.5-3.5 5.4-6.9 5.4"/><path d="M66.6 11.3c0 1.4-.3 3.3-2.2 3.3-1.9 0-2.2-1.9-2.2-3.3S62.5 8 64.4 8c1.9 0 2.2 1.9 2.2 3.3m4.8 0c0-3.6-2.2-6.8-7-6.8s-7 3.2-7 6.8 2.2 6.8 7 6.8c4.8-.1 7-3.3 7-6.8"/><path d="M87.7 17.7v-7c0-1.2-.1-2.4-1.7-2.4-1.3 0-1.7 1-1.7 2.4v7h-4.9v-7c0-1.2-.1-2.4-1.7-2.4-1.3 0-1.7 1-1.7 2.4v7h-4.8V4.8H76v1.7h.1c1-1.5 2.5-2.1 4.2-2.1 1.4 0 2.9.7 3.5 2.1.1-.1.2-.3.5-.5 0-.1.1-.1.2-.2.7-.6 1.8-1.3 3.7-1.3 3.3 0 4.4 2.3 4.4 4.3v8.9h-4.9"/><path d="M101.9 9.9h-4.8c.2-1.5 1.1-2.3 2.5-2.3s2.3 1 2.3 2.3m4.7 2.5c0-5-2.2-7.8-7.2-7.8-4.2 0-6.9 3.1-6.9 6.8 0 4.3 3 6.7 7.1 6.7 3 0 5.7-1.3 6.7-4h-4.5c-.4.6-1.3.9-2.1.9-1.6 0-2.5-1.1-2.6-2.6h9.5zM29.7 9.9h-4.8c.2-1.5 1.1-2.3 2.5-2.3s2.3 1 2.3 2.3m4.6 2.5c0-5-2.2-7.8-7.2-7.8-4.2 0-6.9 3.1-6.9 6.8 0 4.3 3 6.7 7.1 6.7 3 0 5.7-1.3 6.7-4h-4.5c-.4.6-1.3.9-2.1.9-1.6 0-2.5-1.1-2.6-2.6h9.5zM111.2 12.5c-1.6 0-2.3-.4-2.3-2.1V4.3h-1.6V2.9h1.6V0h1.6v2.9h1.9v1.4h-1.9v6c0 .7.2.9 1.2.9h.7v1.4h-1.2M115.2 8.5v4.1h-1.6V2.9h1.5V5c.8-1.3 1.9-2 3.6-2v1.7c-2.6-.1-3.5 1.3-3.5 3.8M126 12.5v-1.4c-.7 1.1-1.8 1.6-3.1 1.6-2.5 0-3.4-1.5-3.4-3.5V2.9h1.6v6.5c0 1.3.7 2 2 2 1.9 0 2.8-1.3 2.8-3V2.9h1.6v9.7l-1.5-.1M132.4 12.8c-2.2 0-4-.9-4.1-3.3h1.6c0 1.4 1.2 1.9 2.6 1.9 1 0 2.3-.2 2.3-1.4s-1.6-1.4-3.2-1.8c-1.6-.3-3.2-.9-3.2-2.7 0-2 1.9-2.8 3.6-2.8 2.1 0 3.8.7 3.9 3h-1.6c-.1-1.2-1.1-1.7-2.3-1.7-1 0-2 .3-2 1.3 0 1.1 1.7 1.4 3.2 1.7 1.6.4 3.2.9 3.2 2.7.1 2.3-1.9 3.1-4 3.1M140.5 12.5c-1.6 0-2.3-.4-2.3-2.1V4.3h-1.6V2.9h1.6V0h1.6v2.9h1.9v1.4h-1.9v6c0 .7.2.9 1.2.9h.7v1.4h-1.2"/></svg>