<svg xmlns="http://www.w3.org/2000/svg" viewBox="0 0 151.242 212.599"><path fill="#524186" d="M6.993 174.11h1.84l4.435 13.94 4.524-13.94h1.548l4.503 13.94 4.455-13.94h1.73l-5.412 16.963h-1.548l-4.546-14.028-4.526 14.028h-1.568M32.904 174.11h11.14v1.704H34.7v5.57h9.12v1.683H34.7v6.255h9.436v1.637H32.904M47.303 174.11H49.1v15.212h8.96v1.637H47.302M60.834 174.11h1.797v15.212h8.96v1.637H60.833M74.4 174.11h7.32c3.707 0 5.364 1.364 5.364 4.093 0 1.932-.818 3.435-2.318 3.888 1.842.453 2.73 1.843 2.73 4.208 0 3.412-2.025 4.66-5.958 4.66h-7.14v-16.847zm7.365 7.297c2.774 0 3.503-1.272 3.503-2.977 0-1.752-1.004-2.686-3.503-2.686h-5.617v5.662h5.617zm-.045 7.937c2.73 0 3.98-.932 3.98-3.206 0-2.135-1.23-3.09-4.028-3.09h-5.524v6.296h5.572zM90.83 174.11h11.144v1.704h-9.347v5.57h9.12v1.683h-9.12v6.255h9.44v1.637H90.83M105.833 174.11h1.655v16.848h-1.655zM111.534 174.11h1.954l10.072 13.893V174.11h1.73v16.85h-1.64l-10.392-14.302v14.3h-1.724M128.604 182.523c0-6.072 3.002-8.685 8.37-8.685 3.224 0 5.046 1.043 6.136 2.09l-1.27 1.295c-1.07-.932-2.48-1.682-4.866-1.682-4.39 0-6.596 2.23-6.596 7.005 0 4.773 1.818 7.072 6.57 7.072 4.526 0 5.526-1.933 5.526-5.664v-.545h-5.685v-1.66h7.456v1.912c0 4.57-1.182 7.55-7.366 7.55-5.98 0-8.276-2.935-8.276-8.687M7.537 203.888c0-6.184 3.298-8.685 8.687-8.685s8.71 2.5 8.71 8.685c0 6.208-3.32 8.71-8.71 8.71s-8.687-2.502-8.687-8.71m14.623.046c0-3.845-1.705-6.072-5.936-6.072-4.206 0-5.91 2.228-5.91 6.072 0 3.864 1.704 6.095 5.91 6.095 4.23-.002 5.936-2.232 5.936-6.096M27.95 195.475H39.5v2.637h-8.797v4.526h8.572v2.616h-8.572v7.072H27.95M47.11 195.475h2.865l3.798 12.39 3.887-12.39h2.456l3.91 12.39 3.775-12.39h2.708l-5.276 16.962h-2.456l-3.956-12.505-3.934 12.505h-2.48M71.776 203.888c0-6.184 3.295-8.685 8.686-8.685 5.39 0 8.71 2.5 8.71 8.685 0 6.208-3.32 8.71-8.71 8.71-5.39 0-8.686-2.502-8.686-8.71m14.62.046c0-3.845-1.704-6.072-5.935-6.072-4.206 0-5.91 2.228-5.91 6.072 0 3.864 1.704 6.095 5.91 6.095 4.232-.002 5.935-2.232 5.935-6.096M92.25 195.475h3.595l5.342 12.936 5.346-12.935h3.546v16.85h-2.707V200.09l-5.092 12.236h-2.274l-5.094-12.213v12.213h-2.66M114.008 195.475H125.9v2.637h-9.14v4.23h8.913v2.613h-8.912v4.777h9.23v2.594H114.01M129.332 195.475h2.978l8.87 12.166v-12.165h2.68v16.85h-2.524l-9.324-12.76v12.76h-2.68M90.667 55.182l28.855-7.475-20.75 20.6 2.677 3.06 43.568-9.42-2.714-6.066L106.09 66.3l20.738-20.447-2.777-2.2-27.11 3.74 29.68-29.085-7.09-4.494-31.25 36.254M70.065 90.27l-13.25 3.218 3.838-18.322-2.556-2.91-47.696 28.38 12.2 1.658L56.404 77.6l-5.362 21.037 2.35 2.044 14.644-5.248-19.573 44.07 10.556-1.01 13.424-46.265M83.268 93.75l31.617 13.772 6.74-5.12-21.65-17.706L147.35 95.58l3.892-6.412-54.165-8.765-2.298 5.56 17.18 15.48-29.242-12.945-4.628 3.27 14.9 60.356 6.382-9.416"/><path fill="#009CDB" d="M23.92 9.244l6.23-7.638L58.44 43.81l-.35-30.814 4.146-3.766L80.56 34.744 81.81 0l6.052 2.157-4.848 40.258-2.35.947L63.01 21.26l-1.614 27.894-2.65.807"/><path fill="#524186" d="M49.977 69.79L32.442 55.423l21.784 3.466.666-3.344L17.056 21.45l-.048 10.976 32.782 23.12-24.807-3.533-.692 3.105 20.245 14.99-41.07 2.936L0 82.606l47.806-9.228"/></svg>