<svg xmlns="http://www.w3.org/2000/svg" xmlns:xlink="http://www.w3.org/1999/xlink" x="0px" y="0px"
	 width="834.79999px" height="283.5px" viewBox="0 0 834.79999 283.5" 

<g>
	<path fill="#BC955C" d="M350.20001,279.79999c-3.29999-1.89999-5.79999-4.60001-7.5-8.20001s-2.60001-7.79999-2.60001-12.60001
		c0-4.8,0.89999-9,2.60001-12.60001s4.29999-6.3,7.5-8.2c3.29999-1.89999,7.10001-2.89999,11.5-2.89999
		c2.89999,0,5.60001,0.39999,8.20001,1.3c2.60001,0.89999,4.79999,2.2,6.79999,3.89999c0.79999,0.7,1.20001,1.5,1.20001,2.60001
		c0,0.8-0.20001,1.5-0.70001,2c-0.39999,0.5-1,0.8-1.60001,0.8c-0.70001,0-1.5-0.3-2.20001-0.89999
		c-2.10001-1.60001-4-2.7-5.70001-3.3s-3.70001-0.89999-5.89999-0.89999c-4.79999,0-8.5,1.60001-11.10001,4.7
		c-2.60001,3.10001-3.89999,7.60001-3.89999,13.40001c0,5.89999,1.29999,10.29999,3.89999,13.39999S356.99997,277,361.79999,277
		c2.10001,0,4-0.29999,5.70001-1s3.70001-1.70001,5.89999-3.29999c0.89999-0.60001,1.60001-0.89999,2.20001-0.89999
		s1.10001,0.29999,1.60001,0.79999c0.39999,0.5,0.70001,1.20001,0.70001,2c0,1.10001-0.39999,2-1.20001,2.60001
		c-1.89999,1.70001-4.20001,3-6.79999,3.89999s-5.29999,1.29999-8.20001,1.29999
		C357.29999,282.70001,353.5,281.70001,350.20001,279.79999z"/>
	<path fill="#BC955C" d="M384.60001,281.70001c-0.60001-0.5-0.89999-1.29999-0.89999-2.39999v-40.5c0-1,0.29999-1.8,0.89999-2.39999
		c0.60001-0.5,1.39999-0.8,2.39999-0.8s1.79999,0.3,2.39999,0.8s0.89999,1.3,0.89999,2.39999v40.5
		c0,1-0.29999,1.79999-0.89999,2.39999C388.79999,282.20001,388,282.5,387,282.5S385.20001,282.20001,384.60001,281.70001z"/>
	<path fill="#BC955C" d="M398.20001,242c-0.70001-0.7-1.10001-1.60001-1.10001-2.8c0-1.10001,0.39999-2,1.10001-2.7s1.70001-1,3-1
		c1.20001,0,2.20001,0.3,3,1s1.10001,1.60001,1.10001,2.7c0,1.10001-0.39999,2.10001-1.10001,2.8s-1.70001,1-3,1
		C400,243.10001,399,242.7,398.20001,242z M398.89999,281.70001c-0.60001-0.5-0.89999-1.29999-0.89999-2.39999v-26.60001
		c0-1,0.29999-1.8,0.89999-2.39999c0.60001-0.5,1.39999-0.8,2.39999-0.8s1.79999,0.3,2.39999,0.8s0.89999,1.3,0.89999,2.39999
		v26.60001c0,1-0.29999,1.79999-0.89999,2.39999c-0.60001,0.5-1.39999,0.79999-2.39999,0.79999S399.5,282.20001,398.89999,281.70001
		z"/>
	<path fill="#BC955C" d="M440.89999,262.29999v17.10001c0,1-0.29999,1.79999-0.89999,2.29999s-1.39999,0.79999-2.5,0.79999
		c-1,0-1.79999-0.29999-2.39999-0.89999s-0.89999-1.29999-0.89999-2.29999v-16.70001c0-2.70001-0.5-4.70001-1.60001-6
		c-1.10001-1.3-2.70001-1.89999-5-1.89999c-2.70001,0-4.79999,0.8-6.39999,2.5c-1.60001,1.69998-2.39999,3.89999-2.39999,6.70001
		v15.39999c0,1-0.29999,1.70001-0.89999,2.29999c-0.60001,0.60001-1.39999,0.89999-2.39999,0.89999
		s-1.79999-0.29999-2.39999-0.89999s-0.89999-1.29999-0.89999-2.29999v-26.7c0-0.89999,0.29999-1.7,0.89999-2.3
		s1.39999-0.89999,2.39999-0.89999s1.70001,0.3,2.29999,0.89999c0.60001,0.60001,0.89999,1.3,0.89999,2.2v2.7
		c1.10001-1.89999,2.5-3.39999,4.39999-4.39999s4-1.5,6.39999-1.5C437.10001,249.39999,440.89999,253.7,440.89999,262.29999z"/>
	<path fill="#BC955C" d="M448.70001,242c-0.70001-0.7-1.10001-1.60001-1.10001-2.8c0-1.10001,0.39999-2,1.10001-2.7s1.70001-1,3-1
		c1.20001,0,2.20001,0.3,3,1s1.10001,1.60001,1.10001,2.7c0,1.10001-0.39999,2.10001-1.10001,2.8s-1.79999,1-3,1
		C450.5,243.10001,449.5,242.7,448.70001,242z M449.39999,281.70001c-0.60001-0.5-1-1.29999-1-2.39999v-26.60001
		c0-1,0.29999-1.8,1-2.39999c0.60001-0.5,1.39999-0.8,2.39999-0.8s1.70001,0.3,2.39999,0.8c0.60001,0.5,0.89999,1.3,0.89999,2.39999
		v26.60001c0,1-0.29999,1.79999-0.89999,2.39999c-0.60001,0.5-1.39999,0.79999-2.39999,0.79999S450,282.20001,449.39999,281.70001z"
		/>
	<path fill="#BC955C" d="M468.29999,280.60001c-2.29999-1.39999-4.20001-3.29999-5.39999-5.79999
		c-1.29999-2.5-1.89999-5.39999-1.89999-8.70001c0-3.29999,0.70001-6.29999,2-8.79999s3.20001-4.5,5.60001-5.89999
		s5.20001-2.10001,8.29999-2.10001c1.70001,0,3.29999,0.2,5,0.7s3.20001,1.10001,4.5,2c1.39999,1,2.10001,2.10001,2.10001,3.3
		c0,0.70001-0.20001,1.39999-0.60001,1.89999S487,258,486.39999,258c-0.39999,0-0.79999-0.10001-1.20001-0.29999
		s-0.89999-0.5-1.5-0.89999c-1.10001-0.70001-2.10001-1.2-3.10001-1.60001c-0.89999-0.39999-2.10001-0.60001-3.39999-0.60001
		c-3,0-5.29999,1-6.89999,3s-2.5,4.79999-2.5,8.39999s0.79999,6.39999,2.39999,8.29999s3.89999,2.89999,6.89999,2.89999
		c1.29999,0,2.5-0.20001,3.5-0.60001s2-0.89999,3.10001-1.60001c0.5-0.29999,1-0.60001,1.39999-0.79999
		c0.5-0.20001,0.89999-0.29999,1.29999-0.29999c0.60001,0,1.10001,0.29999,1.5,0.79999s0.60001,1.10001,0.60001,1.89999
		c0,0.60001-0.20001,1.20001-0.5,1.70001s-0.89999,1-1.70001,1.5c-1.29999,0.89999-2.79999,1.60001-4.60001,2
		c-1.79999,0.5-3.5,0.70001-5.29999,0.70001C473.29999,282.60001,470.60001,281.89999,468.29999,280.60001z"/>
	<path fill="#BC955C" d="M515.70001,252.60001c2.09998,2.10001,3.09998,5.39999,3.09998,9.79999v17
		c0,1-0.29999,1.79999-0.90002,2.29999c-0.59998,0.5-1.40002,0.79999-2.40002,0.79999s-1.70001-0.29999-2.29999-0.89999
		s-0.90002-1.29999-0.90002-2.29999v-2.39999c-0.79999,1.79999-2.10001,3.20001-3.70001,4.20001s-3.60001,1.5-5.70001,1.5
		s-4-0.39999-5.79999-1.29999s-3.10001-2-4.10001-3.60001c-1-1.5-1.5-3.20001-1.5-5.10001c0-2.29999,0.60001-4.10001,1.79999-5.5
		c1.20001-1.29999,3.20001-2.29999,6-2.89999s6.60001-0.89999,11.39999-0.89999h1.5v-1.89999c0-2.39999-0.5-4.20001-1.5-5.29999
		c-1-1.10001-2.60001-1.60001-4.89999-1.60001c-1.5,0-3,0.2-4.29999,0.60001c-1.39999,0.39999-2.79999,1-4.5,1.70001
		c-1.20001,0.70001-2,1-2.5,1c-0.70001,0-1.20001-0.20001-1.60001-0.70001s-0.60001-1.10001-0.60001-1.8s0.20001-1.2,0.60001-1.7
		s1-1,1.79999-1.5c1.5-0.8,3.29999-1.5,5.39999-2s4-0.8,6-0.8C510.5,249.39999,513.70001,250.39999,515.70001,252.60001z
		 M510.10001,275.20001c1.5-1.60001,2.30002-3.70001,2.30002-6.29999v-1.70001h-1.20001c-3.39999,0-6,0.20001-7.89999,0.5
		c-1.79999,0.29999-3.10001,0.79999-3.89999,1.5s-1.20001,1.79999-1.20001,3.10001c0,1.60001,0.60001,2.89999,1.70001,3.89999
		s2.60001,1.5,4.29999,1.5C506.60001,277.70001,508.60001,276.89999,510.10001,275.20001z"/>
	<path fill="#BC955C" d="M527.29999,281.70001c-0.59998-0.5-0.90002-1.29999-0.90002-2.39999v-40.5c0-1,0.29999-1.8,0.90002-2.39999
		c0.59998-0.5,1.40002-0.8,2.40002-0.8s1.79999,0.3,2.40002,0.8c0.59998,0.5,0.90002,1.3,0.90002,2.39999v40.5
		c0,1-0.29999,1.79999-0.90002,2.39999c-0.59998,0.5-1.40002,0.79999-2.40002,0.79999S527.90002,282.20001,527.29999,281.70001z"/>
	<path fill="#BC955C" d="M569.09998,281.5c-0.59998-0.60001-1-1.5-1-2.5v-37.5H555c-2.09998,0-3.09998-0.89999-3.09998-2.8
		c0-0.89999,0.29999-1.60001,0.79999-2.10001s1.29999-0.7,2.29999-0.7h33.09998c1,0,1.79999,0.2,2.29999,0.7
		s0.79999,1.2,0.79999,2.10001c0,1.89999-1,2.8-3.09998,2.8H575V279c0,1-0.29999,1.79999-0.90002,2.5
		c-0.59998,0.60001-1.40002,0.89999-2.5,0.89999C570.59998,282.5,569.79999,282.20001,569.09998,281.5z"/>
	<path fill="#BC955C" d="M609.29999,252.2c0,1-0.20001,1.7-0.70001,2.2s-1.29999,0.8-2.5,0.89999l-2,0.2
		c-2.79999,0.3-4.79999,1.2-6.09998,2.90001s-2,3.70001-2,6v15c0,1-0.29999,1.79999-0.90002,2.39999
		c-0.59998,0.5-1.40002,0.79999-2.40002,0.79999s-1.79999-0.29999-2.40002-0.79999c-0.59998-0.5-1-1.29999-1-2.39999v-26.7
		c0-1,0.29999-1.8,1-2.3c0.59998-0.5,1.40002-0.8,2.40002-0.8c0.90002,0,1.59998,0.3,2.20001,0.8
		c0.59998,0.5,0.90002,1.3,0.90002,2.3v3.2C596.70001,254,597.89996,252.5,599.59998,251.5s3.5-1.60001,5.59998-1.8l0.90002-0.10001
		C608.20001,249.39999,609.29999,250.3,609.29999,252.2z"/>
	<path fill="#BC955C" d="M612.09998,242C611.39996,241.3,611,240.39999,611,239.2c0-1.10001,0.40002-2,1.09998-2.7
		c0.70001-0.7,1.70001-1,3-1c1.20001,0,2.20001,0.3,3,1s1.09998,1.60001,1.09998,2.7c0,1.10001-0.40002,2.10001-1.09998,2.8
		c-0.70001,0.7-1.70001,1-3,1C613.90002,243.10001,612.90002,242.7,612.09998,242z M612.70001,281.70001
		c-0.59998-0.5-0.90002-1.29999-0.90002-2.39999v-26.60001c0-1,0.29999-1.8,0.90002-2.39999c0.59998-0.5,1.40002-0.8,2.40002-0.8
		s1.79999,0.3,2.40002,0.8c0.59998,0.5,0.90002,1.3,0.90002,2.39999v26.60001c0,1-0.29999,1.79999-0.90002,2.39999
		c-0.59998,0.5-1.40002,0.79999-2.40002,0.79999C614.20001,282.5,613.40002,282.20001,612.70001,281.70001z"/>
	<path fill="#BC955C" d="M649,252.60001c2.09998,2.10001,3.09998,5.39999,3.09998,9.79999v17c0,1-0.29999,1.79999-0.90002,2.29999
		c-0.59998,0.5-1.40002,0.79999-2.40002,0.79999s-1.70001-0.29999-2.29999-0.89999s-0.90002-1.29999-0.90002-2.29999v-2.39999
		c-0.79999,1.79999-2.09998,3.20001-3.70001,4.20001c-1.59998,1-3.59998,1.5-5.70001,1.5c-2.09998,0-4-0.39999-5.79999-1.29999
		s-3.09998-2-4.09998-3.60001c-1-1.5-1.5-3.20001-1.5-5.10001c0-2.29999,0.59998-4.10001,1.79999-5.5
		c1.20001-1.29999,3.20001-2.29999,6-2.89999s6.59998-0.89999,11.40002-0.89999h1.5v-1.89999c0-2.39999-0.5-4.20001-1.5-5.29999
		c-1-1.10001-2.59998-1.60001-4.90002-1.60001c-1.5,0-3,0.2-4.29999,0.60001c-1.40002,0.39999-2.79999,1-4.5,1.70001
		c-1.20001,0.70001-2,1-2.5,1c-0.70001,0-1.20001-0.20001-1.59998-0.70001c-0.40002-0.5-0.59998-1.10001-0.59998-1.8
		s0.20001-1.2,0.59998-1.7c0.40002-0.5,1-1,1.79999-1.5c1.5-0.8,3.29999-1.5,5.40002-2c2.09998-0.5,4-0.8,6-0.8
		C643.79999,249.39999,646.90002,250.39999,649,252.60001z M643.40002,275.20001c1.5-1.60001,2.29999-3.70001,2.29999-6.29999
		v-1.70001H644.5c-3.40002,0-6,0.20001-7.90002,0.5c-1.79999,0.29999-3.09998,0.79999-3.90002,1.5
		c-0.79999,0.70001-1.20001,1.79999-1.20001,3.10001c0,1.60001,0.59998,2.89999,1.70001,3.89999c1.09998,1,2.59998,1.5,4.29999,1.5
		C639.90002,277.70001,641.90002,276.89999,643.40002,275.20001z"/>
	<path fill="#BC955C" d="M660.5,281.70001c-0.59998-0.5-0.90002-1.29999-0.90002-2.39999v-40.5c0-1,0.29999-1.8,0.90002-2.39999
		c0.59998-0.5,1.40002-0.8,2.40002-0.8s1.79999,0.3,2.40002,0.8c0.59998,0.5,0.90002,1.3,0.90002,2.39999v40.5
		c0,1-0.29999,1.79999-0.90002,2.39999c-0.59998,0.5-1.40002,0.79999-2.40002,0.79999
		C662,282.5,661.20001,282.20001,660.5,281.70001z"/>
	<path fill="#BC955C" d="M674.09998,279.89999c-0.79999-0.5-1.29999-1-1.70001-1.5s-0.5-1.10001-0.5-1.79999
		c0-0.70001,0.20001-1.29999,0.59998-1.79999c0.40002-0.5,0.90002-0.70001,1.5-0.70001s1.5,0.39999,2.70001,1.10001
		c1.29999,0.70001,2.59998,1.29999,3.79999,1.70001c1.20001,0.39999,2.79999,0.70001,4.70001,0.70001
		c2.09998,0,3.70001-0.39999,4.90002-1.10001s1.79999-1.79999,1.79999-3.10001c0-0.89999-0.20001-1.60001-0.70001-2.10001
		s-1.29999-1-2.40002-1.39999c-1.09998-0.39999-2.79999-0.89999-5.09998-1.29999c-3.79999-0.79999-6.59998-2-8.29999-3.39999
		s-2.5-3.39999-2.5-5.79999c0-1.89999,0.5-3.60001,1.59998-5.10001s2.59998-2.7,4.5-3.5s4.09998-1.2,6.59998-1.2
		c1.70001,0,3.5,0.2,5.09998,0.7c1.70001,0.5,3.09998,1.10001,4.40002,2c1.40002,1,2.20001,2.10001,2.20001,3.3
		c0,0.7-0.20001,1.3-0.59998,1.8c-0.40002,0.5-0.90002,0.70001-1.5,0.70001c-0.40002,0-0.79999-0.10001-1.20001-0.29999
		c-0.40002-0.20001-0.90002-0.5-1.59998-0.89999c-1.20001-0.70001-2.29999-1.2-3.29999-1.60001
		c-1-0.39999-2.29999-0.60001-3.79999-0.60001c-1.79999,0-3.29999,0.39999-4.40002,1.2c-1.09998,0.8-1.70001,1.90001-1.70001,3.2
		c0,1.20001,0.5,2.20001,1.5,2.89999c1,0.70001,3,1.29999,5.79999,1.89999c2.90002,0.60001,5.20001,1.29999,6.90002,2.10001
		c1.70001,0.79999,2.90002,1.79999,3.59998,2.89999c0.70001,1.20001,1.09998,2.60001,1.09998,4.39999
		c0,2.79999-1.20001,5.10001-3.59998,6.89999c-2.40002,1.70001-5.59998,2.60001-9.5,2.60001
		C680.59998,282.60001,676.90002,281.70001,674.09998,279.89999z"/>
	<path fill="#BC955C" d="M724.79999,277.89999C721.59998,274.69998,720,270,720,263.79999V239
		c0-1.10001,0.29999-1.89999,0.90002-2.5c0.59998-0.60001,1.40002-0.89999,2.40002-0.89999s1.79999,0.3,2.40002,0.89999
		c0.59998,0.60001,0.90002,1.39999,0.90002,2.5v25.29999c0,4.20001,1,7.5,3.09998,9.60001
		c2,2.20001,5.09998,3.29999,9.09998,3.29999s7-1.10001,9-3.29999c2.09998-2.20001,3.09998-5.39999,3.09998-9.60001V239
		c0-1,0.29999-1.8,0.90002-2.5c0.59998-0.60001,1.40002-0.89999,2.40002-0.89999s1.79999,0.3,2.40002,0.89999
		c0.59998,0.60001,0.90002,1.39999,0.90002,2.5v24.79999c0,6.20001-1.59998,10.89999-4.79999,14.10001s-7.90002,4.79999-14,4.79999
		C732.70001,282.70001,728,281.10001,724.79999,277.89999z"/>
	<path fill="#BC955C" d="M794.40002,262.29999v17.10001c0,1-0.29999,1.79999-0.90002,2.29999
		c-0.59998,0.5-1.40002,0.79999-2.5,0.79999c-1,0-1.79999-0.29999-2.40002-0.89999
		c-0.59998-0.60001-0.90002-1.29999-0.90002-2.29999v-16.70001c0-2.70001-0.5-4.70001-1.59998-6
		c-1.09998-1.3-2.70001-1.89999-5-1.89999c-2.70001,0-4.79999,0.8-6.40002,2.5c-1.59998,1.70001-2.40002,3.89999-2.40002,6.70001
		v15.39999c0,1-0.29999,1.70001-0.90002,2.29999c-0.59998,0.60001-1.40002,0.89999-2.40002,0.89999
		s-1.79999-0.29999-2.40002-0.89999c-0.59998-0.60001-0.90002-1.29999-0.90002-2.29999v-26.7c0-0.89999,0.29999-1.7,1-2.3
		c0.59998-0.60001,1.40002-0.89999,2.40002-0.89999s1.70001,0.3,2.29999,0.89999c0.59998,0.60001,0.90002,1.3,0.90002,2.2v2.7
		c1.09998-1.89999,2.5-3.39999,4.40002-4.39999s4-1.5,6.40002-1.5C790.59998,249.39999,794.40002,253.7,794.40002,262.29999z"/>
	<path fill="#BC955C" d="M802.20001,242c-0.70001-0.7-1.09998-1.60001-1.09998-2.8c0-1.10001,0.40002-2,1.09998-2.7
		c0.70001-0.7,1.70001-1,3-1c1.20001,0,2.20001,0.3,3,1s1.09998,1.60001,1.09998,2.7c0,1.10001-0.40002,2.10001-1.09998,2.8
		c-0.70001,0.7-1.70001,1-3,1C804,243.10001,803,242.7,802.20001,242z M802.90002,281.70001c-0.59998-0.5-1-1.29999-1-2.39999
		v-26.60001c0-1,0.29999-1.8,1-2.39999c0.59998-0.5,1.40002-0.8,2.40002-0.8s1.70001,0.3,2.40002,0.8
		c0.59998,0.5,0.90002,1.3,0.90002,2.39999v26.60001c0,1-0.29999,1.79999-0.90002,2.39999
		c-0.59998,0.5-1.40002,0.79999-2.40002,0.79999C804.29999,282.5,803.5,282.20001,802.90002,281.70001z"/>
	<path fill="#BC955C" d="M833.90002,278.20001c0.40002,0.39999,0.59998,1,0.59998,1.70001c0,0.89999-0.29999,1.5-1,2
		s-1.70001,0.60001-3,0.60001l-1.79999-0.10001c-3.5-0.29999-6.20001-1.29999-7.90002-3.20001
		c-1.70001-1.89999-2.59998-4.70001-2.59998-8.39999v-15.39999h-3.90002c-1.90002,0-2.90002-0.89999-2.90002-2.60001
		c0-0.8,0.29999-1.39999,0.79999-1.89999s1.20001-0.7,2.09998-0.7h3.90002v-6.8c0-1,0.29999-1.8,0.90002-2.39999
		c0.59998-0.60001,1.40002-0.89999,2.40002-0.89999s1.79999,0.3,2.40002,0.89999s0.90002,1.39999,0.90002,2.39999v6.8h6.5
		c0.90002,0,1.59998,0.2,2.09998,0.7s0.79999,1.10001,0.79999,1.89999c0,0.8-0.29999,1.5-0.79999,1.89999s-1.20001,0.7-2.09998,0.7
		h-6.5v15.90001c0,2.10001,0.40002,3.60001,1.29999,4.5c0.90002,1,2.20001,1.5,3.90002,1.60001l1.79999,0.10001
		C832.79999,277.5,833.5,277.79999,833.90002,278.20001z"/>
</g>
<path fill="#5F4776" d="M446.79999,28.9c1.79999,1.9,2.60001,4.3,2.60001,7.3v119.5c0,3-0.89999,5.39999-2.70001,7.3
	c-1.79999,1.89999-4.20001,2.8-7,2.8c-3.39999,0-6-1.3-7.79999-3.89999L355.20001,60.8V155.7c0,3-0.89999,5.39999-2.60001,7.3
	c-1.79999,1.89999-4.10001,2.8-6.89999,2.8c-2.89999,0-5.20001-0.89999-6.79999-2.7c-1.70001-1.8-2.5-4.3-2.5-7.39999V36.2
	c0-3,0.89999-5.4,2.70001-7.3c1.79999-1.9,4.20001-2.8,7-2.8c3.39999,0,6,1.3,7.79999,3.9l76.70001,101.3V36.2
	c0-3,0.79999-5.4,2.5-7.3s4-2.8,6.79999-2.8C442.70001,26,445.10001,27,446.79999,28.9"/>
<path fill="#5F4776" d="M484.29999,163.10001c-1.79999-1.8-2.70001-4.3-2.70001-7.39999V36.8c0-3,0.89999-5.4,2.60001-7.1
	c1.79999-1.8,4.20001-2.6,7.29999-2.6h47.10001c14.59998,0,25.90002,3.6,34,10.8s12.09998,17.3,12.09998,30.5
	c0,13-4,23.2-12.09998,30.5s-19.40002,11-34,11h-37v46c0,3.10001-0.89999,5.60001-2.60001,7.39999c-1.79999,1.8-4.29999,2.7-7.5,2.7
	C488.5,165.89999,486.10001,165,484.29999,163.10001 M536.5,93.5c19.29999,0,28.90002-8.4,28.90002-25.2
	c0-16.7-9.70001-25-28.90002-25h-34.79999v50.3H536.5V93.5z"/>
<path fill="#5F4776" d="M611.70001,162.3c-1.79999-1.8-2.59998-4.10001-2.59998-7.10001V36.8c0-3,0.90002-5.4,2.59998-7.1
	C613.5,27.9,615.90002,27.1,619,27.1h72c3,0,5.29999,0.7,6.90002,2.2c1.59998,1.4,2.40002,3.5,2.40002,6.1s-0.79999,4.6-2.40002,6
	C696.30005,42.8,694,43.5,691,43.5h-62.20001v43.4h58.29999c3,0,5.29999,0.7,6.90002,2.2c1.59998,1.4,2.40002,3.5,2.40002,6.1
	s-0.79999,4.6-2.40002,6.1c-1.59998,1.4-3.90002,2.2-6.90002,2.2h-58.29999v45.59999H691c6.29999,0,9.40002,2.7,9.40002,8
	c0,2.60001-0.79999,4.60001-2.40002,6.10001c-1.59998,1.39999-3.90002,2.2-6.90002,2.2h-72
	C615.90002,164.89999,613.5,164,611.70001,162.3"/>
<path fill="#5F4776" d="M736.79999,152.2c-9.5-9.5-14.29999-23.5-14.29999-42.1V36.2c0-3.1,0.90002-5.6,2.70001-7.4
	s4.20001-2.7,7.20001-2.7s5.40002,0.9,7.20001,2.7c1.79999,1.8,2.70001,4.3,2.70001,7.4v75.3c0,12.6,3,22.2,9.09998,28.8
	c6.09998,6.5,15.09998,9.8,27.09998,9.8c11.90002,0,20.90002-3.3,27-9.8s9.20001-16.1,9.20001-28.8V36.2
	c0-3,0.90002-5.4,2.70001-7.3s4.20001-2.8,7.20001-2.8s5.40002,0.9,7.20001,2.7c1.79999,1.8,2.70001,4.3,2.70001,7.4v73.9
	c0,18.39999-4.79999,32.39999-14.40002,42c-9.59998,9.60001-23.5,14.39999-41.79999,14.39999
	C760.29999,166.5,746.29999,161.7,736.79999,152.2"/>
<path fill="#5F4776" d="M178.8,77.3c0-42.7-34.59999-77.3-77.3-77.3C58.7,0,24.1,34.6,24.1,77.3s34.6,77.3,77.3,77.3
	C144.2,154.7,178.8,120.1,178.8,77.3"/>
<path fill="#BC955C" d="M283.39999,65.4C289.19998,50.7,282,34,267.29999,28.2c-14.7-5.8-31.39999,1.4-37.2,16.1
	S231.49998,75.7,246.2,81.5C261,87.4,277.60001,80.2,283.39999,65.4"/>
<path fill="#BC955C" d="M158.7,191.10001c8.60001,1.10001,36.5,4.39999,74-18.2c27.8-16.7,46.00002-41.09999,47.8-55.6
	c1.70001-11.7-6.5-22.6-18.20001-24.2c-5-0.7-9.10001,0.3-13.8,2.7c-14.60001,7.6-18.10001,34.5-31.7,54.5
	c-20.2,29.60001-45.39999,30.7-57.5,31.2c-2.60001,0-4.8,2.10001-4.8,4.8C154.5,188.8,156.39999,190.8,158.7,191.10001"/>
<path fill="#5F4776" d="M275.89999,153.89999c-12.70001,15.7-51,50-97.39999,50c-46.5,0-69.5-23.3-104.2-37.7
	c-27.2-11.5-58.6,1.3-70.1,28.5C-4.3,214.8,0.5,237.2,14.6,252.10001c23.7,26,71.9,44.79999,150.10001,18.79999
	S280.80002,170,286.20001,160.2c1.5-3,0.20001-6.5-2.79999-8C280.70001,150.89999,277.60001,151.7,275.89999,153.89999"/>
</svg>
