<?xml version="1.0" encoding="utf-8"?>
<!-- Generator: Adobe Illustrator 15.1.0, SVG Export Plug-In . SVG Version: 6.00 Build 0)  -->
<!DOCTYPE svg PUBLIC "-//W3C//DTD SVG 1.1//EN" "http://www.w3.org/Graphics/SVG/1.1/DTD/svg11.dtd">
<svg version="1.1" id="Layer_1" xmlns="http://www.w3.org/2000/svg" xmlns:xlink="http://www.w3.org/1999/xlink" x="0px" y="0px"
	 viewBox="0 0 318.992 212.6" xml:space="preserve">
<path fill="#757474" d="M33.531,91.487L75.91,74.665c0,0,6.318-3.539,17.364,15.511c11.047,19.051,18.613,29.951,18.613,29.951
	s8.828,12.207,15.803,9.696c6.968-2.512-43.457,17.249-43.457,17.249s-7.668,2.011-15.885-14.297
	c-8.218-16.311-12.942-23.192-15.784-27.215C49.723,101.539,41.973,88.907,33.531,91.487"/>
<path fill="#8F8E8D" d="M33.531,91.487L75.91,74.665c0,0,6.318-3.539,17.364,15.511c11.047,19.051,18.613,29.951,18.613,29.951
	s8.828,12.207,15.803,9.696c6.968-2.512-43.457,17.249-43.457,17.249s-7.668,2.011-15.885-14.297
	c-8.218-16.311-12.942-23.192-15.784-27.215C49.723,101.539,41.973,88.907,33.531,91.487"/>
<path fill="#9C9B9B" d="M68.2,132.483c0.052,0.101,0.098,0.189,0.149,0.292c6.776,13.447,13.176,14.439,15.211,14.373l4.198-23.28
	C85.793,131.262,74.401,132.178,68.2,132.483z"/>
<path fill="#A9A8A8" d="M83.869,115.115l-6.546,45.122c0,0-0.089,7.238-22.108,7.315c-22.02,0.078-35.244,1.194-35.244,1.194
	s-14.983,1.567-16.284,8.863c-1.3,7.293,6.718-46.269,6.718-46.269s2.08-7.65,20.312-6.639c18.238,1.01,26.558,0.346,31.463-0.111
	C67.084,124.135,81.896,123.714,83.869,115.115"/>
<path fill="#9C9B9B" d="M44.322,146.273c-5.59-5.037-1.451-15.33,1.121-21.056c-4.029-0.04-8.859-0.189-14.726-0.514
	c-5.904-0.327-10.107,0.255-13.104,1.191L44.322,146.273z"/>
<path fill="#757474" d="M38.094,148.41L1.843,120.751c0,0-6.282-3.589,4.355-22.874c10.637-19.28,16.081-31.383,16.081-31.383
	s5.917-13.855,0.172-18.537c-5.744-4.682,37.169,28.36,37.169,28.36s5.677,5.533-4.069,20.979
	c-9.749,15.444-13.212,23.04-15.196,27.547C38.371,129.35,31.539,142.502,38.094,148.41"/>
<path fill="#828181" d="M59.216,90.164L33.531,100.36c5.745-1.757,11.173,3.539,14.948,8.362c1.9-3.301,4.208-7.142,7.071-11.679
	C57.168,94.484,58.353,92.202,59.216,90.164z"/>
<path fill="#8F8E8D" d="M52.565,105.559c1.804,2.555,4.368,6.269,8.098,12.801c8.375-11.817,19.47-21.629,34.091-25.648
	c-0.488-0.833-0.977-1.667-1.48-2.534c-11.046-19.05-17.365-15.512-17.365-15.512L33.531,91.489
	C41.973,88.907,49.723,101.539,52.565,105.559z"/>
<g>
	<g>
		<path fill="#233A5C" d="M171.854,78.449v8.598h8.049v6.331h-8.049v14.791c0,4.058,1.103,6.191,4.334,6.191
			c1.584,0,2.34-0.14,3.301-0.414l0.139,6.465c-1.238,0.483-3.439,0.896-6.122,0.896c-3.098,0-5.71-1.101-7.294-2.82
			c-1.786-1.926-2.609-4.952-2.609-9.355V93.377h-4.818v-6.331h4.818v-6.189L171.854,78.449z"/>
		<path fill="#233A5C" d="M227.033,106.172c0.207,6.053,4.951,8.667,10.318,8.667c3.922,0,6.741-0.551,9.287-1.513l1.24,5.847
			c-2.893,1.169-6.879,2.132-11.693,2.132c-10.871,0-17.27-6.741-17.27-16.989c0-9.289,5.639-18.026,16.373-18.026
			c10.938,0,14.445,8.943,14.445,16.305c0,1.582-0.137,2.821-0.277,3.579L227.033,106.172L227.033,106.172z M241.754,100.254
			c0.068-3.095-1.306-8.186-6.949-8.186c-5.226,0-7.427,4.748-7.771,8.186H241.754z"/>
		<path fill="#233A5C" d="M254.898,97.021c0-3.853-0.065-7.088-0.272-9.976h7.429l0.413,5.022h0.205
			c1.445-2.615,5.093-5.778,10.665-5.778c5.846,0,11.9,3.785,11.9,14.378v19.881h-8.463v-18.917c0-4.814-1.787-8.463-6.396-8.463
			c-3.371,0-5.708,2.407-6.604,4.953c-0.278,0.757-0.346,1.789-0.346,2.751v19.676h-8.531V97.021L254.898,97.021z"/>
		<path fill="#233A5C" d="M318.271,112.5c0,3.027,0.141,5.984,0.483,8.049h-7.636l-0.552-3.716h-0.205
			c-2.065,2.614-5.572,4.472-9.905,4.472c-6.742,0-10.524-4.883-10.524-9.973c0-8.463,7.494-12.728,19.877-12.66v-0.549
			c0-2.201-0.895-5.847-6.811-5.847c-3.301,0-6.74,1.03-9.012,2.478l-1.648-5.502c2.475-1.515,6.812-2.96,12.106-2.96
			c10.731,0,13.826,6.81,13.826,14.104v12.106V112.5L318.271,112.5z M310.017,104.176c-5.985-0.139-11.695,1.17-11.695,6.261
			c0,3.3,2.135,4.813,4.817,4.813c3.369,0,5.85-2.198,6.602-4.606c0.21-0.62,0.276-1.308,0.276-1.857V104.176z"/>
		<path fill="#233A5C" d="M202.924,86.29c-2.132,0-4.125,0.551-5.777,1.513c-1.721,0.896-3.162,2.271-4.194,3.854h-0.138V75.614
			h-8.531v44.935h8.531V100.53c0-0.962,0.067-1.858,0.344-2.544c0.892-2.546,3.234-4.748,6.535-4.748
			c4.678,0,6.465,3.646,6.465,8.531v18.78h8.463v-19.747C214.622,90.074,208.637,86.29,202.924,86.29z"/>
		<path fill="#233A5C" d="M144.637,75.614h-9.84l-14.398,44.935h8.734l3.991-13.14h12.835l4.198,13.14h9.08L144.637,75.614z
			 M134.501,101.01l4.975-16.398l5.038,16.398H134.501z"/>
	</g>
	<g>
		<g>
			<g>
				<path fill="#233A5C" d="M178.45,156.671c2.28,1.17,5.786,2.339,9.399,2.339c3.895,0,5.957-1.612,5.957-4.063
					c0-2.334-1.785-3.671-6.289-5.285c-6.229-2.168-10.293-5.618-10.293-11.069c0-6.397,5.344-11.294,14.186-11.294
					c4.23,0,7.343,0.891,9.568,1.892l-1.891,6.843c-1.503-0.725-4.171-1.782-7.841-1.782s-5.453,1.671-5.453,3.618
					c0,2.391,2.113,3.45,6.952,5.284c6.622,2.448,9.736,5.896,9.736,11.183c0,6.285-4.84,11.684-15.129,11.684
					c-4.283,0-8.512-1.171-10.627-2.34L178.45,156.671z"/>
				<path fill="#233A5C" d="M212.881,165.403l-8.9-37.493h9.069l2.835,15.409c0.836,4.507,1.615,9.347,2.225,13.129h0.111
					c0.614-4.06,1.504-8.565,2.448-13.186l3.171-15.353h9.014l3.004,15.799c0.836,4.396,1.445,8.4,2,12.572h0.113
					c0.555-4.172,1.391-8.568,2.17-13.019l3.06-15.353h8.62l-9.676,37.494h-9.18l-3.171-16.132
					c-0.726-3.782-1.335-7.288-1.78-11.571h-0.109c-0.668,4.228-1.283,7.79-2.174,11.571l-3.559,16.132L212.881,165.403
					L212.881,165.403L212.881,165.403z"/>
				<path fill="#233A5C" d="M261.704,155.78l-2.672,9.623h-8.786l11.458-37.493h11.124l11.629,37.493h-9.123l-2.895-9.623H261.704z
					 M271.218,149.441l-2.336-7.958c-0.669-2.224-1.338-5.006-1.892-7.232h-0.111c-0.559,2.227-1.111,5.064-1.727,7.232
					l-2.225,7.958H271.218z"/>
				<path fill="#233A5C" d="M287.834,165.403V127.91h9.9l7.793,13.741c2.224,3.951,4.449,8.624,6.118,12.851h0.165
					c-0.556-4.951-0.723-10.014-0.723-15.688V127.91h7.788v37.494h-8.899l-8.014-14.461c-2.225-4.008-4.671-8.849-6.507-13.242
					l-0.168,0.055c0.221,4.953,0.333,10.238,0.333,16.356v11.291H287.834z"/>
			</g>
		</g>
	</g>
</g>
<g>
	<path fill="#757474" d="M50.287,204.099c2.076,1.061,5.263,2.123,8.552,2.123c3.541,0,5.412-1.466,5.412-3.693
		c0-2.124-1.619-3.338-5.717-4.808c-5.666-1.972-9.359-5.107-9.359-10.064c0-5.817,4.857-10.272,12.902-10.272
		c3.845,0,6.678,0.812,8.702,1.722l-1.721,6.224c-1.366-0.659-3.795-1.621-7.134-1.621c-3.338,0-4.957,1.52-4.957,3.291
		c0,2.176,1.922,3.136,6.324,4.807c6.021,2.225,8.853,5.362,8.853,10.17c0,5.717-4.402,10.624-13.762,10.624
		c-3.895,0-7.74-1.062-9.662-2.124L50.287,204.099z"/>
	<path fill="#757474" d="M84.067,180.421c0,2.126-1.619,3.848-4.148,3.848c-2.43,0-4.048-1.722-3.997-3.848
		c-0.052-2.226,1.567-3.895,4.046-3.895S84.018,178.195,84.067,180.421z M76.124,212.041v-24.739h7.69v24.739H76.124z"/>
	<path fill="#757474" d="M89.154,176.121h7.689v35.92h-7.689V176.121z"/>
	<path fill="#757474" d="M107.891,187.302l3.34,11.485c0.606,2.073,1.062,4.046,1.415,6.021h0.152
		c0.406-2.023,0.811-3.896,1.366-6.021l3.188-11.485h8.095l-9.207,24.739h-7.692l-9.005-24.739H107.891z"/>
	<path fill="#757474" d="M133.186,202.126c0.253,3.188,3.39,4.703,6.982,4.703c2.631,0,4.755-0.353,6.829-1.01l1.012,5.21
		c-2.529,1.013-5.615,1.568-8.955,1.568c-8.399,0-13.206-4.906-13.206-12.647c0-6.274,3.896-13.207,12.496-13.207
		c7.995,0,11.029,6.223,11.029,12.345c0,1.315-0.151,2.479-0.254,3.036L133.186,202.126L133.186,202.126z M142.243,196.865
		c0-1.873-0.811-5.01-4.352-5.01c-3.238,0-4.554,2.935-4.755,5.008L142.243,196.865L142.243,196.865z"/>
	<path fill="#757474" d="M153.428,195.447c0-3.643-0.102-6.021-0.202-8.146h6.627l0.252,4.554h0.205
		c1.263-3.592,4.299-5.111,6.676-5.111c0.709,0,1.062,0,1.619,0.102v7.286c-0.558-0.151-1.215-0.255-2.076-0.255
		c-2.831,0-4.754,1.52-5.26,3.896c-0.102,0.507-0.152,1.113-0.152,1.722v12.546h-7.689V195.447L153.428,195.447z"/>
	<path fill="#757474" d="M190.05,203.288l-2.43,8.754h-7.993l10.423-34.099h10.117l10.573,34.099h-8.297l-2.631-8.754H190.05z
		 M198.699,197.523l-2.125-7.236c-0.607-2.022-1.213-4.554-1.721-6.578h-0.102c-0.506,2.024-1.012,4.607-1.568,6.578l-2.024,7.236
		H198.699z"/>
	<path fill="#757474" d="M218.301,187.302l1.973,10.117c0.508,2.531,1.014,5.313,1.418,8.146h0.102
		c0.506-2.833,1.215-5.668,1.82-8.095l2.631-10.17h6.07l2.479,9.865c0.658,2.782,1.315,5.565,1.819,8.398h0.103
		c0.354-2.833,0.859-5.615,1.417-8.45l2.124-9.813h7.538l-7.587,24.739h-7.235l-2.328-8.7c-0.605-2.428-1.062-4.604-1.568-7.69
		h-0.102c-0.453,3.087-0.961,5.415-1.617,7.69l-2.48,8.7h-7.234l-7.185-24.739L218.301,187.302L218.301,187.302z"/>
	<path fill="#757474" d="M271.057,206.021c0,2.378,0.101,4.652,0.354,6.021h-6.933l-0.457-2.479h-0.151
		c-1.619,1.976-4.149,3.035-7.083,3.035c-5.01,0-7.993-3.644-7.993-7.59c0-6.423,5.767-9.51,14.521-9.459v-0.353
		c0-1.318-0.709-3.188-4.502-3.188c-2.53,0-5.211,0.859-6.83,1.87l-1.418-4.957c1.722-0.96,5.111-2.177,9.613-2.177
		c8.246,0,10.877,4.857,10.877,10.674v8.603H271.057z M263.566,200.354c-4.047-0.051-7.182,0.912-7.182,3.896
		c0,1.973,1.313,2.937,3.034,2.937c1.922,0,3.492-1.268,3.996-2.833c0.103-0.405,0.151-0.86,0.151-1.315V200.354L263.566,200.354z"
		/>
	<path fill="#757474" d="M276.297,195.447c0-3.643-0.102-6.021-0.201-8.146h6.627l0.252,4.554h0.205
		c1.262-3.592,4.299-5.111,6.678-5.111c0.707,0,1.061,0,1.617,0.102v7.286c-0.557-0.151-1.213-0.255-2.072-0.255
		c-2.834,0-4.756,1.52-5.262,3.896c-0.101,0.507-0.151,1.113-0.151,1.722v12.546h-7.69L276.297,195.447L276.297,195.447z"/>
	<path fill="#757474" d="M318.79,176.121v28.534c0,2.781,0.101,5.716,0.202,7.387h-6.829l-0.356-3.644h-0.101
		c-1.569,2.782-4.553,4.199-7.74,4.199c-5.869,0-10.573-5.009-10.573-12.699c-0.051-8.346,5.159-13.153,11.08-13.153
		c3.035,0,5.413,1.064,6.527,2.783h0.101V176.12L318.79,176.121L318.79,176.121z M311.099,197.774c0-0.403-0.051-0.962-0.101-1.365
		c-0.456-2.076-2.125-3.795-4.503-3.795c-3.489,0-5.313,3.137-5.313,7.032c0,4.199,2.074,6.83,5.263,6.83
		c2.225,0,3.996-1.519,4.45-3.693c0.152-0.557,0.204-1.112,0.204-1.771V197.774L311.099,197.774L311.099,197.774z"/>
</g>
<g>
	<path fill="#757474" d="M21.672,1.847c1.759-0.294,4.063-0.547,6.999-0.547c3.604,0,6.243,0.839,7.921,2.349
		c1.508,1.343,2.472,3.396,2.472,5.906c0,2.561-0.752,4.568-2.179,6.038c-1.97,2.056-5.069,3.103-8.633,3.103
		c-1.091,0-2.096-0.045-2.932-0.255V29.76h-3.647L21.672,1.847L21.672,1.847z M25.319,15.466c0.795,0.212,1.801,0.294,3.016,0.294
		c4.4,0,7.084-2.18,7.084-5.993c0-3.771-2.684-5.577-6.665-5.577c-1.594,0-2.81,0.127-3.437,0.296L25.319,15.466L25.319,15.466z"/>
	<path fill="#757474" d="M43.184,15.801c0-2.388-0.041-4.439-0.168-6.325h3.227l0.168,4.021h0.125
		c0.921-2.723,3.186-4.443,5.659-4.443c0.377,0,0.67,0.041,1.004,0.088v3.479c-0.376-0.088-0.755-0.088-1.255-0.088
		c-2.6,0-4.443,1.93-4.948,4.697c-0.083,0.5-0.124,1.133-0.124,1.715V29.76h-3.689L43.184,15.801L43.184,15.801z"/>
	<path fill="#757474" d="M74.833,19.449c0,7.502-5.238,10.771-10.1,10.771c-5.448,0-9.724-4.023-9.724-10.437
		c0-6.745,4.487-10.729,10.06-10.729C70.894,9.053,74.833,13.284,74.833,19.449z M58.781,19.656c0,4.445,2.515,7.799,6.119,7.799
		c3.521,0,6.162-3.313,6.162-7.88c0-3.438-1.719-7.753-6.079-7.753C60.666,11.822,58.781,15.845,58.781,19.656z"/>
	<path fill="#757474" d="M96.473,24.186c0,2.135,0.041,3.979,0.167,5.573h-3.27l-0.208-3.313h-0.085
		c-0.921,1.636-3.1,3.771-6.706,3.771c-3.183,0-6.998-1.802-6.998-8.885V9.475h3.688v11.189c0,3.854,1.216,6.497,4.527,6.497
		c2.473,0,4.19-1.719,4.862-3.396c0.208-0.504,0.333-1.173,0.333-1.888V9.475h3.689L96.473,24.186L96.473,24.186z"/>
	<path fill="#757474" d="M120.081,0v24.52c0,1.802,0.084,3.854,0.166,5.239h-3.268l-0.168-3.523h-0.127
		c-1.088,2.266-3.519,3.982-6.83,3.982c-4.903,0-8.719-4.15-8.719-10.311c-0.04-6.746,4.193-10.855,9.095-10.855
		c3.145,0,5.198,1.469,6.122,3.063h0.083V0H120.081z M116.436,17.728c0-0.459-0.044-1.089-0.17-1.55
		c-0.544-2.307-2.557-4.235-5.323-4.235c-3.813,0-6.077,3.355-6.077,7.801c0,4.104,2.055,7.5,5.996,7.5
		c2.473,0,4.735-1.677,5.405-4.399c0.126-0.506,0.17-1.008,0.17-1.595L116.436,17.728L116.436,17.728z"/>
	<path fill="#757474" d="M139.589,4.611v4.864h5.282v2.807h-5.282v10.938c0,2.517,0.711,3.942,2.766,3.942
		c1.004,0,1.592-0.086,2.138-0.253l0.167,2.811c-0.713,0.248-1.844,0.501-3.27,0.501c-1.717,0-3.101-0.588-3.982-1.548
		c-1.005-1.136-1.424-2.938-1.424-5.325V12.282h-3.143V9.475h3.143V5.704L139.589,4.611z"/>
	<path fill="#757474" d="M167.13,19.449c0,7.502-5.237,10.771-10.1,10.771c-5.448,0-9.724-4.023-9.724-10.437
		c0-6.745,4.487-10.729,10.059-10.729C163.191,9.053,167.13,13.284,167.13,19.449z M151.079,19.656c0,4.445,2.514,7.799,6.119,7.799
		c3.519,0,6.161-3.313,6.161-7.88c0-3.438-1.719-7.753-6.08-7.753C152.964,11.822,151.079,15.845,151.079,19.656z"/>
	<path fill="#757474" d="M180.686,0h3.691v12.702h0.08c0.588-1.051,1.508-2.011,2.643-2.64c1.09-0.628,2.387-1.01,3.771-1.01
		c2.722,0,7.085,1.676,7.085,8.636v12.07h-3.691V18.107c0-3.271-1.214-5.992-4.695-5.992c-2.389,0-4.229,1.675-4.942,3.644
		c-0.211,0.547-0.249,1.089-0.249,1.761v12.24h-3.691V0L180.686,0z"/>
	<path fill="#757474" d="M222.314,19.449c0,7.502-5.236,10.771-10.102,10.771c-5.447,0-9.722-4.023-9.722-10.437
		c0-6.745,4.485-10.729,10.058-10.729C218.377,9.053,222.314,13.284,222.314,19.449z M206.266,19.656
		c0,4.445,2.517,7.799,6.119,7.799c3.52,0,6.161-3.313,6.161-7.88c0-3.438-1.718-7.753-6.079-7.753
		C208.148,11.822,206.266,15.845,206.266,19.656z"/>
	<path fill="#757474" d="M226.982,0h3.686v29.76h-3.686V0z"/>
	<path fill="#757474" d="M254.355,0v24.52c0,1.802,0.082,3.854,0.168,5.239h-3.27l-0.168-3.523h-0.127
		c-1.09,2.266-3.52,3.982-6.833,3.982c-4.899,0-8.718-4.15-8.718-10.311c-0.041-6.746,4.193-10.855,9.096-10.855
		c3.146,0,5.199,1.469,6.121,3.063h0.083V0H254.355z M250.708,17.728c0-0.459-0.041-1.089-0.167-1.55
		c-0.548-2.307-2.559-4.235-5.322-4.235c-3.814,0-6.08,3.355-6.08,7.801c0,4.104,2.055,7.5,5.994,7.5
		c2.473,0,4.736-1.677,5.408-4.399c0.125-0.506,0.167-1.008,0.167-1.595V17.728L250.708,17.728z"/>
	<path fill="#757474" d="M283.669,24.895c0,1.761,0.08,3.479,0.292,4.864h-3.311l-0.295-2.557h-0.125
		c-1.129,1.593-3.309,3.016-6.2,3.016c-4.108,0-6.204-2.889-6.204-5.826c0-4.902,4.359-7.586,12.193-7.545V16.43
		c0-1.634-0.457-4.696-4.608-4.652c-1.927,0-3.896,0.543-5.324,1.504l-0.837-2.468c1.677-1.05,4.152-1.763,6.707-1.763
		c6.201,0,7.712,4.23,7.712,8.255V24.895L283.669,24.895z M280.105,19.409c-4.021-0.086-8.59,0.627-8.59,4.566
		c0,2.431,1.592,3.522,3.435,3.522c2.684,0,4.401-1.677,4.989-3.396c0.125-0.424,0.166-0.841,0.166-1.177V19.409L280.105,19.409z"/>
	<path fill="#757474" d="M289.629,14.965c0-2.14-0.042-3.814-0.166-5.491h3.27l0.211,3.351h0.082
		c1.007-1.884,3.354-3.771,6.708-3.771c2.807,0,7.165,1.676,7.165,8.636v12.07h-3.689v-11.69c0-3.271-1.216-5.998-4.693-5.998
		c-2.389,0-4.272,1.721-4.943,3.774c-0.167,0.461-0.252,1.091-0.252,1.717v12.197h-3.688L289.629,14.965L289.629,14.965z"/>
	<path fill="#757474" d="M312.066,12.825c0-1.548,1.049-2.638,2.472-2.638c1.513,0,2.474,1.09,2.474,2.638
		c0,1.468-0.961,2.599-2.516,2.599C313.072,15.424,312.066,14.293,312.066,12.825z M312.066,27.622c0-1.554,1.049-2.642,2.472-2.642
		c1.513,0,2.474,1.088,2.474,2.642c0,1.467-0.961,2.597-2.516,2.597C313.072,30.219,312.066,29.09,312.066,27.622z"/>
</g>
</svg>
