<svg xmlns="http://www.w3.org/2000/svg" viewBox="0 0 532.88 201.57"><defs><style>@import url("https://fonts.googleapis.com/css?family=Nunito:400,600,700");</style></defs><defs><style>.cls-1{fill:#0561b9;}.cls-2{fill:#282324;}.cls-3{fill:#0b65bb;}</style></defs><title>Asset 1</title><g id="Layer_2" data-name="Layer 2"><g id="Layer_1-2" data-name="Layer 1"><path class="cls-1" d="M321.92 84.78V0h211v84.78zm20.59-76.55l-14.63 68.12h17.27l9.44-46.64h.5l14.2 46.67h22.89l14.5-68.11h-17.27l-9.55 46.85h-.44l-14-46.92zm115.38 68.18l14.22-68.1h-18.34l-5.38 25.83h-21.81l5.31-25.84h-18.34l-14.22 68.08h18.34l6.08-29h21.82l-6 29zm62.78-52.92l4.39-13.57c-1.29-.43-2.31-.87-3.38-1.12a70.29 70.29 0 0 0-26.62-1.14 31.38 31.38 0 0 0-12.13 4.25c-8.11 5-10.39 13.34-9.17 21.34a13.09 13.09 0 0 0 6.88 9.64c3.26 1.82 6.79 3.17 10.17 4.78a43.55 43.55 0 0 1 6.55 3.33 6.21 6.21 0 0 1-.39 10.63 14.15 14.15 0 0 1-4.91 1.91 38.44 38.44 0 0 1-22-2.38c-.49-.21-1-.37-1.63-.6l-4.2 13.58a69.78 69.78 0 0 0 29.21 3.1 38.8 38.8 0 0 0 15-4.53 19.42 19.42 0 0 0 9.92-13.18c2.13-10.06-1-17.54-10.28-22-2.08-1-4.26-1.82-6.37-2.77s-4.26-1.83-6.28-3-3.42-2.9-3.13-5.47a5.38 5.38 0 0 1 4.4-4.81 38.35 38.35 0 0 1 7.33-1 36.48 36.48 0 0 1 16.64 3.01z"/><path class="cls-2" d="M503.37 123.88h-7.16L500 109h8.8z"/><path d="M0 108.41h8.54v35.87h16.52V151H0zM29.4 106h8.17v7.81H29.4zm0 13.54h8.17V151H29.4zM42.15 119.57h8.78l7.81 22.88h.12l7.56-22.87h8.17L63.06 151H53.8zM104.19 149.28a21.75 21.75 0 0 1-10.8 2.44q-16.23-.24-16.41-16.29a18.74 18.74 0 0 1 3.66-11.77q3.66-4.7 10.92-4.82 8.6.06 11.9 5.31 3.11 5.25 3.05 13.66H84.79a8 8 0 0 0 2.75 5.79 9.1 9.1 0 0 0 6.22 2.13 16 16 0 0 0 5.61-1 24.6 24.6 0 0 0 4.82-2.2zM98.7 132.2a9.16 9.16 0 0 0-1.64-5.2 6 6 0 0 0-5-2.2 6.83 6.83 0 0 0-5.19 2.07 8.77 8.77 0 0 0-2.07 5.31zM112.55 119.57h7.26v7.14h.12a10.14 10.14 0 0 1 2.68-5.06 7.72 7.72 0 0 1 5.92-2.81 13.39 13.39 0 0 1 2.5.24v8.23a8 8 0 0 0-3.66-.67 5.11 5.11 0 0 0-3.78 1.34 7.89 7.89 0 0 0-2 3.35 17 17 0 0 0-.73 4.15q-.12 2.14-.12 4V151h-8.17zM135.54 119.57h7.81V124h.12q2.62-5 9.76-5.19 7.14.12 10.25 4.88a20.78 20.78 0 0 1 2.93 11.47 21 21 0 0 1-2.93 11.47q-3.11 4.94-10.43 5.06a11.36 11.36 0 0 1-9.21-4.33h-.12v16.44h-8.17zm9.94 9a13.6 13.6 0 0 0-1.71 6.65 13.44 13.44 0 0 0 1.65 6.71 7.88 7.88 0 0 0 2.2 2.44 5.32 5.32 0 0 0 3.35 1 5.58 5.58 0 0 0 3.42-1 6.66 6.66 0 0 0 2.07-2.44 13.67 13.67 0 0 0 1.16-3.35 24.68 24.68 0 0 0 .24-3.35 17.21 17.21 0 0 0-1.34-6.65 6.09 6.09 0 0 0-2.07-2.44 5.82 5.82 0 0 0-3.36-.92 6.1 6.1 0 0 0-5.6 3.32zM175.01 123.23a17.81 17.81 0 0 1 23.42 0q4.63 4.39 4.7 12.26a16.16 16.16 0 0 1-4.27 11.51q-4.27 4.64-12.2 4.76-7.81-.12-12.08-4.76a16 16 0 0 1-4.33-11.47q.06-7.91 4.76-12.3zm3.9 13.11q.12 1 .3 2a12.12 12.12 0 0 0 1.22 3.54 6.85 6.85 0 0 0 2.44 2.5 6.39 6.39 0 0 0 3.78 1 7.44 7.44 0 0 0 4-1 6.86 6.86 0 0 0 2.44-2.5 10.15 10.15 0 0 0 1.22-3.54 24.23 24.23 0 0 0 .3-3.84 11.22 11.22 0 0 0-1.89-6.53 7.15 7.15 0 0 0-6-2.81 6.8 6.8 0 0 0-5.86 2.87 10.64 10.64 0 0 0-2 6.47 13.71 13.71 0 0 0 .05 1.85zM211.73 123.23a17.81 17.81 0 0 1 23.42 0q4.63 4.39 4.7 12.26a16.16 16.16 0 0 1-4.27 11.51q-4.27 4.64-12.2 4.76-7.81-.12-12.08-4.76a16 16 0 0 1-4.33-11.47q.09-7.91 4.76-12.3zm3.9 13.11q.12 1 .3 2a12.12 12.12 0 0 0 1.22 3.54 6.85 6.85 0 0 0 2.44 2.5 6.39 6.39 0 0 0 3.78 1 7.44 7.44 0 0 0 4-1 6.86 6.86 0 0 0 2.44-2.5 10.15 10.15 0 0 0 1.22-3.54 24.23 24.23 0 0 0 .3-3.84 11.22 11.22 0 0 0-1.89-6.53 7.15 7.15 0 0 0-6-2.81 6.8 6.8 0 0 0-5.86 2.87 10.64 10.64 0 0 0-2 6.47 13.71 13.71 0 0 0 .06 1.85zM245.89 105.24h8.17V151h-8.17zM274.93 108.41h9l7.93 34h.12l7.26-34h11.59l7.5 34h.12l8-34h8.3L323.6 151h-11l-7.69-34h-.12l-7.56 34h-11zM341.72 123.23a17.81 17.81 0 0 1 23.42 0q4.63 4.39 4.7 12.26a16.16 16.16 0 0 1-4.27 11.51q-4.27 4.64-12.2 4.76-7.81-.12-12.08-4.76a16 16 0 0 1-4.33-11.47q.1-7.91 4.76-12.3zm3.9 13.11q.12 1 .3 2a12.12 12.12 0 0 0 1.22 3.54 6.85 6.85 0 0 0 2.44 2.5 6.39 6.39 0 0 0 3.78 1 7.44 7.44 0 0 0 4-1 6.86 6.86 0 0 0 2.44-2.5 10.15 10.15 0 0 0 1.22-3.54 24.23 24.23 0 0 0 .3-3.84 11.22 11.22 0 0 0-1.89-6.53 7.15 7.15 0 0 0-6-2.81 6.8 6.8 0 0 0-5.86 2.87 10.64 10.64 0 0 0-2 6.47 13.71 13.71 0 0 0 .06 1.85zM375.58 119.57h7.63V124h.12a11.59 11.59 0 0 1 4.51-4 12 12 0 0 1 4.82-1.1q6.59-.06 9.27 5.55a9.49 9.49 0 0 1 4.27-4.21 12 12 0 0 1 5.55-1.34q5.73.06 7.93 3.48a16.5 16.5 0 0 1 2 8.84V151h-8.17v-18.74a16.16 16.16 0 0 0-.55-4.64 3.89 3.89 0 0 0-1.34-1.77 4.93 4.93 0 0 0-2.81-.67 4.59 4.59 0 0 0-3.17 1 6.1 6.1 0 0 0-1.89 2.68 13.07 13.07 0 0 0-.79 3.35 27.43 27.43 0 0 0-.24 3.48V151h-8.17v-18.74a16.13 16.13 0 0 0-.55-4.64 3.89 3.89 0 0 0-1.34-1.77 4.93 4.93 0 0 0-2.81-.67 4.58 4.58 0 0 0-3.17 1 6.1 6.1 0 0 0-1.89 2.68 13 13 0 0 0-.79 3.35 27.26 27.26 0 0 0-.24 3.48V151h-8.17zM454.57 149.28a21.75 21.75 0 0 1-10.8 2.44q-16.23-.24-16.41-16.29a18.74 18.74 0 0 1 3.7-11.77q3.66-4.7 10.92-4.82 8.6.06 11.89 5.31 3.11 5.25 3 13.66h-21.7a8 8 0 0 0 2.75 5.79 9.1 9.1 0 0 0 6.22 2.13 16 16 0 0 0 5.61-1 24.61 24.61 0 0 0 4.82-2.2zm-5.51-17.08a9.15 9.15 0 0 0-1.65-5.19 6 6 0 0 0-5-2.2 6.83 6.83 0 0 0-5.18 2.07 8.77 8.77 0 0 0-2.07 5.31zM462.74 119.57h7.75v4.27h.12a12.23 12.23 0 0 1 10.31-5q5.55.06 8.17 3.48a14.61 14.61 0 0 1 2.5 8.84V151h-8.17v-16.79q0-1.52-.06-3.11a8 8 0 0 0-.61-2.87 4.41 4.41 0 0 0-1.52-2.26 5.43 5.43 0 0 0-3.11-.79 5.63 5.63 0 0 0-3.54 1 8.15 8.15 0 0 0-2.2 2.62 12 12 0 0 0-1.1 3.35 17.47 17.47 0 0 0-.37 3.42V151h-8.17zM529.72 126.16a24.92 24.92 0 0 0-3.42-1 21.75 21.75 0 0 0-3.9-.31 7.53 7.53 0 0 0-3.17.67 3 3 0 0 0-1.65 2.81q.06 1.77 2.26 2.5a21.92 21.92 0 0 0 2.32.79q1.28.37 2.56.85a15.54 15.54 0 0 1 2.68 1.1 11.37 11.37 0 0 1 2.2 1.71 7.67 7.67 0 0 1 1.65 2.5 11.07 11.07 0 0 1 .55 3.72q-.12 5.43-4 7.87a17.23 17.23 0 0 1-9.15 2.38 36 36 0 0 1-9.27-1.34l.49-6.71a16.72 16.72 0 0 0 8.05 2.07 8 8 0 0 0 3.48-.85 3.06 3.06 0 0 0 1.89-3 3.46 3.46 0 0 0-.55-2 4.16 4.16 0 0 0-1.65-1.16 43.32 43.32 0 0 0-4.88-1.59 22.26 22.26 0 0 1-2.56-1 9 9 0 0 1-2.32-1.59 6.34 6.34 0 0 1-1.59-2.44 8 8 0 0 1-.67-3.48q.06-5.12 3.84-7.44a15.13 15.13 0 0 1 8.48-2.32 35.88 35.88 0 0 1 5 .31q2.07.37 3.9.85z"/><path class="cls-3" d="M126.47 173.52h6.79l10.51 20.62h.08v-20.62h5.29v27.58h-6.75l-10.55-20.62h-.08v20.62h-5.29zM155.54 173.52h5.52v11.14h11.06v-11.14h5.53v27.58h-5.53V189h-11.06v12.1h-5.53zM193.54 177.4a6.53 6.53 0 0 0-1.42.16 4.19 4.19 0 0 0-1.42.59 3.13 3.13 0 0 0-1.07 1.19 3.74 3.74 0 0 0-.43 1.9 2.06 2.06 0 0 0 .55 1.46 5.82 5.82 0 0 0 1.38 1.07 16.93 16.93 0 0 0 2 .87l2.17.91a16.9 16.9 0 0 1 2.21 1 8 8 0 0 1 1.94 1.54 7.46 7.46 0 0 1 1.38 2.09 8.67 8.67 0 0 1 .47 3q-.08 4.46-3 6.4a13.08 13.08 0 0 1-7.31 1.94 17.38 17.38 0 0 1-3.59-.32q-1.5-.28-3.48-.75l.51-5a12.76 12.76 0 0 0 6.24 1.7 6.72 6.72 0 0 0 3.28-.87 3 3 0 0 0 1.62-2.69 3 3 0 0 0-.51-1.59 4.64 4.64 0 0 0-1.38-1.18 36.9 36.9 0 0 0-4.15-1.82 15.21 15.21 0 0 1-2.17-1.11 10.47 10.47 0 0 1-2-1.42 7.41 7.41 0 0 1-1.38-2.09 7 7 0 0 1-.55-2.88q.08-4.58 3-6.56a11.79 11.79 0 0 1 6.6-1.86 21.25 21.25 0 0 1 6.6 1l-.51 4.54a14.49 14.49 0 0 0-5.58-1.22zM217.83 173.52h15.33v4.34h-9.8v6.79h9.32V189h-9.32v12.1h-5.53zM239.16 183.12a11.53 11.53 0 0 1 15.17 0q3 2.84 3 7.94a10.46 10.46 0 0 1-2.77 7.43q-2.77 3-7.9 3.08-5.06-.08-7.82-3.08a11.51 11.51 0 0 1 .28-15.37zm2.53 8.49q.08.67.2 1.26a7.84 7.84 0 0 0 .79 2.29 4.45 4.45 0 0 0 1.58 1.62 4.14 4.14 0 0 0 2.45.67 4.82 4.82 0 0 0 2.57-.63 4.43 4.43 0 0 0 1.58-1.62 6.58 6.58 0 0 0 .79-2.29 15.57 15.57 0 0 0 .2-2.49 7.26 7.26 0 0 0-1.22-4.23 4.63 4.63 0 0 0-3.91-1.82 4.4 4.4 0 0 0-3.79 1.86 6.89 6.89 0 0 0-1.3 4.19 8.94 8.94 0 0 0 .06 1.2zM280.48 201.1h-5v-2.76h-.08a8.27 8.27 0 0 1-6.68 3.24q-3.59 0-5.21-2.29a9.07 9.07 0 0 1-1.7-5.69v-12.85h5.25v10.86a5.43 5.43 0 0 0 .08.91v1a9 9 0 0 0 .36 1.94 3.54 3.54 0 0 0 1 1.42 2.93 2.93 0 0 0 1.94.59 3.76 3.76 0 0 0 2.41-.75 4.34 4.34 0 0 0 1.38-1.7 6.4 6.4 0 0 0 .71-2.17 15.81 15.81 0 0 0 .16-2.13v-10h5.29zM286.2 180.75h5v2.76h.08a7.91 7.91 0 0 1 6.67-3.24 6.34 6.34 0 0 1 5.29 2.25 9.46 9.46 0 0 1 1.62 5.73v12.85h-5.29v-10.87-2a5.18 5.18 0 0 0-.39-1.86 2.86 2.86 0 0 0-1-1.46 3.52 3.52 0 0 0-2-.51 3.65 3.65 0 0 0-2.29.67 5.26 5.26 0 0 0-1.42 1.7 7.76 7.76 0 0 0-.71 2.17 11.3 11.3 0 0 0-.24 2.21v10h-5.29zM324.16 198.81h-.1a7.8 7.8 0 0 1-6.24 2.76q-4.62-.08-6.6-3.28a15.21 15.21 0 0 1 0-14.85q2-3.08 6.6-3.16a7.35 7.35 0 0 1 6.08 2.84h.08v-11.65h5.29v29.63h-5.11zm-8.37-3.59a4.69 4.69 0 0 0 1.38 1.58 3.28 3.28 0 0 0 2.13.67 3.58 3.58 0 0 0 2.25-.67 4.54 4.54 0 0 0 1.42-1.58 7.43 7.43 0 0 0 .79-2.13 13 13 0 0 0 .2-2.21 9.07 9.07 0 0 0-1.07-4.31 5 5 0 0 0-1.46-1.58 4 4 0 0 0-2.21-.59 3.67 3.67 0 0 0-3.48 2.17 7.5 7.5 0 0 0-.67 2.09 10.9 10.9 0 0 0-.24 2.21 9.8 9.8 0 0 0 .96 4.34zM335.93 181.82a17.81 17.81 0 0 1 7.07-1.54q8.89-.12 8.77 8.57v2.61q0 3 .08 5.1t.24 4.54h-4.66a25 25 0 0 1-.24-3h-.08a6.54 6.54 0 0 1-2.65 2.57 7.49 7.49 0 0 1-3.63.95 8.18 8.18 0 0 1-4.86-1.58 5.19 5.19 0 0 1-2.25-4.46 6.19 6.19 0 0 1 1-3.71 5.7 5.7 0 0 1 2.45-2.09 11.21 11.21 0 0 1 3.36-1 32.16 32.16 0 0 1 3.48-.2h2.92a4.45 4.45 0 0 0-1.11-3.44 5.28 5.28 0 0 0-3.48-.95 10.2 10.2 0 0 0-6.28 2.21zm3.83 15.25a4.06 4.06 0 0 0 2.37.63 4.36 4.36 0 0 0 3.71-1.82 7.34 7.34 0 0 0 1.11-4.19h-3.2a5.75 5.75 0 0 0-.95.08 7.75 7.75 0 0 0-1.94.47 3.36 3.36 0 0 0-1.46 1.07 2.75 2.75 0 0 0-.63 1.9 2 2 0 0 0 1 1.86zM359 184.62h-3.94v-3.87h3.91v-4.07l5.29-1.7v5.77h4.7v3.87h-4.7v9.48a4.21 4.21 0 0 0 .51 2.29 2.06 2.06 0 0 0 2 1.07 4.59 4.59 0 0 0 2.41-.55l.16 4.19a13.79 13.79 0 0 1-3.91.47q-6.4-.16-6.44-6.6zM373.06 172h5.29v5h-5.29zm0 8.77h5.29v20.33h-5.29zM385.94 183.12a11.53 11.53 0 0 1 15.17 0q3 2.84 3 7.94a10.46 10.46 0 0 1-2.77 7.43q-2.77 3-7.9 3.08-5.06-.08-7.82-3.08a11.51 11.51 0 0 1 .28-15.37zm2.53 8.49q.08.67.2 1.26a7.84 7.84 0 0 0 .79 2.29 4.44 4.44 0 0 0 1.58 1.62 4.14 4.14 0 0 0 2.45.67 4.82 4.82 0 0 0 2.57-.63 4.44 4.44 0 0 0 1.58-1.62 6.6 6.6 0 0 0 .79-2.29 15.69 15.69 0 0 0 .2-2.49 7.27 7.27 0 0 0-1.22-4.23 4.63 4.63 0 0 0-3.91-1.82 4.4 4.4 0 0 0-3.79 1.86 6.89 6.89 0 0 0-1.3 4.19 8.78 8.78 0 0 0 .06 1.2zM408.57 180.75h5v2.76h.08a7.91 7.91 0 0 1 6.67-3.24 6.34 6.34 0 0 1 5.29 2.25 9.46 9.46 0 0 1 1.62 5.73v12.85h-5.27v-10.87-2a5.18 5.18 0 0 0-.39-1.86 2.86 2.86 0 0 0-1-1.46 3.52 3.52 0 0 0-2-.51 3.65 3.65 0 0 0-2.29.67 5.26 5.26 0 0 0-1.42 1.7 7.76 7.76 0 0 0-.71 2.17 11.3 11.3 0 0 0-.24 2.21v10h-5.29zM449.73 177.87h-7.9v-4.34h21.33v4.34h-7.9v23.23h-5.53zM462.69 180.75h4.7v4.62h.08a6.57 6.57 0 0 1 1.74-3.28 5 5 0 0 1 3.83-1.82 8.71 8.71 0 0 1 1.62.16v5.33a5.22 5.22 0 0 0-2.37-.43 3.31 3.31 0 0 0-2.45.87 5.11 5.11 0 0 0-1.3 2.17 11 11 0 0 0-.47 2.69q-.08 1.38-.08 2.57v7.47h-5.29zM497.06 201.1h-5v-2.76h-.08a8.27 8.27 0 0 1-6.68 3.24q-3.59 0-5.21-2.29a9.07 9.07 0 0 1-1.7-5.69v-12.85h5.29v10.86a5.43 5.43 0 0 0 .08.91v1a9 9 0 0 0 .36 1.94 3.54 3.54 0 0 0 1 1.42 2.93 2.93 0 0 0 1.94.59 3.76 3.76 0 0 0 2.41-.75 4.34 4.34 0 0 0 1.38-1.7 6.4 6.4 0 0 0 .71-2.17 15.81 15.81 0 0 0 .16-2.13v-10h5.34zM514.46 185a16.21 16.21 0 0 0-2.21-.67 14.06 14.06 0 0 0-2.53-.2 4.88 4.88 0 0 0-2.05.43 1.92 1.92 0 0 0-1.07 1.82q0 1.15 1.46 1.62a14.26 14.26 0 0 0 1.5.51q.83.24 1.66.55a10 10 0 0 1 1.74.71 7.36 7.36 0 0 1 1.42 1.11 5 5 0 0 1 1.07 1.62 7.14 7.14 0 0 1 .36 2.41 5.72 5.72 0 0 1-2.61 5.1 11.16 11.16 0 0 1-5.93 1.54 23.32 23.32 0 0 1-6-.87l.32-4.35a10.83 10.83 0 0 0 5.21 1.34 5.15 5.15 0 0 0 2.25-.55 2 2 0 0 0 1.22-1.94 2.24 2.24 0 0 0-.36-1.3 2.69 2.69 0 0 0-1.07-.75 27.94 27.94 0 0 0-3.16-1 14.33 14.33 0 0 1-1.66-.67 5.82 5.82 0 0 1-1.5-1 4.11 4.11 0 0 1-1-1.58 5.2 5.2 0 0 1-.43-2.25 5.31 5.31 0 0 1 2.49-4.82 9.79 9.79 0 0 1 5.49-1.5 23.18 23.18 0 0 1 3.24.2q1.34.24 2.53.55zM521.64 184.62h-3.91v-3.87h3.91v-4.07l5.29-1.7v5.77h4.7v3.87h-4.7v9.48a4.21 4.21 0 0 0 .51 2.29 2.06 2.06 0 0 0 2 1.07 4.59 4.59 0 0 0 2.41-.55l.16 4.19a13.79 13.79 0 0 1-3.91.47q-6.4-.16-6.44-6.6z"/></g></g></svg>