<svg xmlns="http://www.w3.org/2000/svg" viewBox="0 0 959.661 283.464"><path fill="#78B5D7" d="M86.705 174.828h14.54v108.637H85.617v-84.537l-33.4 42h-2.874l-33.79-42v84.537H0V174.828h14.73l36.095 44.618 35.88-44.618z"/><path fill="#0077AD" d="M127.56 174.828h15.557v108.637H127.56V174.828z"/><path fill="#78B5D7" d="M255.28 174.828h14.778v108.637h-13.374l-72.63-83.67v83.67h-14.62V174.828h12.594l73.252 84.375v-84.375z"/><path fill="#0077AD" d="M296.378 174.828h15.55v108.637h-15.55V174.828zM330.34 283.464V58.32h76.016c30.664 0 54.926 4.6 72.787 13.798 17.866 9.2 32.068 22.734 42.606 40.59 10.543 17.865 15.815 37.34 15.815 58.423 0 15.068-2.905 29.486-8.715 43.26-5.81 13.77-14.09 25.875-24.854 36.312-10.975 10.76-23.725 18.882-38.25 24.37-8.5 3.334-16.3 5.562-23.402 6.69-7.1 1.13-20.658 1.7-40.67 1.7H330.34zm72.626-196.418h-40.348v167.69h41.316c16.14 0 28.68-1.097 37.604-3.313 8.93-2.195 16.38-5.003 22.352-8.393 5.972-3.39 11.432-7.553 16.38-12.503 15.93-16.14 23.887-36.528 23.887-61.172 0-24.21-8.177-43.947-24.532-59.23-6.02-5.697-12.933-10.377-20.74-14.04-7.794-3.654-15.196-6.075-22.19-7.264-6.987-1.176-18.236-1.774-33.73-1.774zM566.81 58.32h127.822v28.727H599.09V155.8h92.314v28.89H599.09v70.048h98.607v28.728H566.81V58.32zM914.36 57.996h39.008l-90.2 108.746 96.493 116.723h-38.98l-76.8-93.467-77.5 93.467h-39.443l97.04-116.74-90.1-108.728h39.395l70.77 86.113 70.317-86.114zM89.664 152.125l-27.146-47.01 27.146-47.02h54.297l27.146 47.02-27.145 47.01"/><path fill="#78B5D7" d="M183.114 94.032l-27.152-47.02L183.114 0H237.4l27.146 47.013-27.145 47.02"/><path fill="#0077AD" d="M276.546 152.125l-27.144-47.01 27.144-47.02h54.302l27.147 47.02-27.147 47.01"/></svg>