<svg xmlns="http://www.w3.org/2000/svg" viewBox="0 0 690.943 212.598"><path fill="#161113" d="M463.952 53.16c-2.112 0-3.785.616-5.02 1.852-1.462 1.462-2.194 3.69-2.194 6.678v3.754h-4.146v2.388h4.146v21.01h2.925v-21.01h7.51v-2.387h-7.51V61.69c0-2.273.454-3.865 1.364-4.776.78-.78 1.854-1.168 3.217-1.168 1.334 0 2.487.325 3.462.976l1.17-2.05c-1.2-1.008-2.846-1.51-4.926-1.51m-19.617 31.1c-1.35 1.722-3.213 2.583-5.583 2.583-2.21 0-4.038-.9-5.486-2.708-1.446-1.802-2.168-4.166-2.168-7.09 0-2.924.688-5.264 2.07-7.02 1.382-1.756 3.228-2.632 5.533-2.632 2.212 0 4.038.918 5.48 2.753 1.45 1.84 2.176 4.2 2.176 7.094 0 2.958-.677 5.297-2.023 7.02m2.19-16.064c-1.9-2.224-4.444-3.335-7.627-3.335-3.347 0-5.987 1.113-7.922 3.336-1.938 2.227-2.902 5.21-2.902 8.946 0 3.735.964 6.718 2.902 8.943 1.932 2.226 4.493 3.34 7.677 3.34 3.283 0 5.892-1.096 7.823-3.29 1.936-2.194 2.9-5.13 2.9-8.8.002-3.867-.946-6.914-2.85-9.142M411.45 86.016c-.39.132-.763.264-1.12.39-.812.23-1.592.343-2.34.343-1.722 0-2.81-.537-3.266-1.608-.262-.586-.39-1.934-.39-4.046V67.833h7.508v-2.388h-7.508v-6.63h-2.922v6.63h-4.096v2.388h4.096V81.68c0 1.688.063 2.875.19 3.558.163 1.042.558 1.87 1.174 2.486 1.104 1.104 2.714 1.657 4.824 1.657 1.596 0 3.137-.373 4.632-1.118l-.78-2.246zm-18.278-11.258c0-1.983-.08-3.398-.242-4.242-.292-1.495-.926-2.73-1.902-3.703-1.3-1.304-3.104-1.95-5.412-1.95-2.696 0-5.263.76-7.7 2.288v-1.706h-2.78v23.4h2.926V69.735c.26-.26 1.04-.648 2.34-1.17 1.754-.748 3.364-1.122 4.827-1.122 1.556 0 2.778.44 3.653 1.317.616.62 1.025 1.496 1.222 2.63.096.684.145 1.95.145 3.805v13.65h2.926V74.76h-.004zm-40.315.486c.13-2.405.91-4.323 2.34-5.754 1.428-1.43 3.187-2.145 5.264-2.145 2.082 0 3.69.88 4.827 2.63.908 1.466 1.364 3.222 1.364 5.27h-13.793zm14.187-7.46c-1.658-1.95-3.866-2.922-6.63-2.922-3.25 0-5.843 1.13-7.776 3.385-1.934 2.26-2.9 5.275-2.9 9.044 0 3.61.967 6.518 2.898 8.726 1.934 2.212 4.576 3.316 7.926 3.316 2.01 0 3.997-.375 5.945-1.12 1.4-.585 2.193-1.008 2.388-1.267L367.58 84.7c-2.535 1.27-4.793 1.903-6.777 1.903-2.564 0-4.55-.812-5.945-2.438-1.398-1.625-2.097-3.77-2.097-6.437h16.77c0-.193.016-.486.048-.876.033-.39.05-.617.05-.682 0-3.542-.86-6.338-2.584-8.385m-22.473 8.68c0-2.73-.08-4.584-.244-5.56-.293-1.656-.976-3.02-2.046-4.09-1.303-1.304-3.04-1.952-5.218-1.952-2.7 0-5.524.91-8.48 2.73-1.303-1.822-3.235-2.73-5.8-2.73-2.407 0-4.875.762-7.412 2.29v-1.708h-2.778v23.4h2.924v-19.11c2.245-1.494 4.565-2.243 6.97-2.243 1.463 0 2.6.408 3.413 1.22.586.584.96 1.496 1.12 2.73.098.714.15 2.242.15 4.582v12.82h2.92v-13.6c0-3.088-.144-4.94-.44-5.56 2.44-1.43 4.814-2.143 7.12-2.143 1.528 0 2.696.406 3.51 1.22.91.91 1.367 2.958 1.367 6.143v13.94h2.925v-12.38zm-38.22 9.552c-.39.132-.763.264-1.12.39-.815.23-1.594.342-2.342.342-1.723 0-2.812-.537-3.264-1.607-.26-.587-.39-1.934-.39-4.047V67.833h7.504v-2.388h-7.503v-6.63h-2.924v6.63h-4.096v2.388h4.095V81.68c0 1.688.062 2.875.192 3.558.165 1.042.554 1.87 1.17 2.486 1.106 1.104 2.714 1.657 4.83 1.657 1.59 0 3.135-.373 4.628-1.118l-.78-2.245zM287 64.814c-2.892 0-5.363 1.234-7.41 3.705v-3.073h-2.777v23.4h2.924v-17.26c.26-.388.536-.78.83-1.17.648-.78 1.412-1.412 2.292-1.9 1.2-.684 2.533-1.025 3.997-1.025.584 0 1.22.05 1.9.145l.685-2.437c-.782-.26-1.595-.39-2.44-.39m-26.13 21.938c-1.722 0-3.038-.455-3.948-1.366-.812-.812-1.22-1.85-1.22-3.12 0-3.54 3.462-5.312 10.383-5.312h1.318v7.896c-2.727 1.268-4.906 1.9-6.53 1.902m9.457-12.967c0-1.656-.083-2.86-.244-3.606-.23-1.236-.763-2.276-1.608-3.12-1.495-1.496-3.606-2.242-6.337-2.242-2.047 0-3.964.374-5.75 1.12-1.17.488-1.936.912-2.293 1.267l1.22 2.048c2.176-1.234 4.34-1.853 6.482-1.853 2.082 0 3.56.456 4.437 1.364.78.812 1.17 2.454 1.17 4.923v.877h-1.22c-9.002 0-13.5 2.55-13.5 7.654 0 2.112.69 3.826 2.07 5.142 1.38 1.314 3.192 1.975 5.435 1.975 1.72 0 3.46-.357 5.215-1.07l2.243-1.172v1.756h2.68V73.78zm-26.982 10.166c-1.544 1.867-3.584 2.8-6.118 2.8-1.69 0-3.48-.52-5.363-1.56V69.733c1.82-1.53 3.915-2.292 6.288-2.292 2.21 0 4.014.843 5.412 2.534 1.397 1.69 2.095 3.885 2.095 6.582 0 3.055-.773 5.518-2.315 7.388m2.51-15.845c-1.884-2.16-4.354-3.24-7.41-3.24-2.535 0-4.778.728-6.728 2.193v-1.608h-2.778v33.783h2.924V88.016c1.397.88 3.167 1.316 5.313 1.316 3.38 0 6.142-1.18 8.288-3.536 2.145-2.356 3.216-5.404 3.216-9.14.002-3.54-.942-6.394-2.824-8.555m-39.194 7.144c.13-2.405.91-4.323 2.34-5.754 1.43-1.43 3.184-2.144 5.266-2.144 2.08 0 3.687.88 4.827 2.63.91 1.466 1.365 3.22 1.365 5.27h-13.798zm14.187-7.46c-1.66-1.95-3.87-2.923-6.632-2.923-3.25 0-5.842 1.13-7.776 3.387-1.933 2.26-2.9 5.275-2.9 9.043 0 3.61.967 6.517 2.9 8.726 1.934 2.21 4.575 3.315 7.922 3.315 2.015 0 3.997-.373 5.945-1.12 1.396-.584 2.195-1.006 2.39-1.266l-1.317-2.245c-2.536 1.27-4.794 1.9-6.775 1.9-2.57 0-4.55-.81-5.947-2.436-1.397-1.625-2.095-3.77-2.095-6.437h16.77c0-.192.016-.486.05-.875.032-.39.048-.618.048-.682 0-3.54-.863-6.337-2.584-8.386m-28.91 15.064c-1.462 1.463-3.217 2.44-5.263 2.923-1.43.326-3.543.49-6.337.49h-4.437V58.912h3.218c3.542 0 6.095.18 7.654.538 1.95.42 3.607 1.316 4.973 2.68 2.57 2.57 3.852 5.965 3.852 10.19 0 4.58-1.223 8.09-3.66 10.528m2.146-22.473c-1.69-1.688-3.835-2.83-6.434-3.414-1.92-.42-4.795-.632-8.63-.632h-6.238v32.515h7.362c3.444 0 6.028-.208 7.75-.634 2.37-.585 4.437-1.756 6.19-3.513 3.12-3.118 4.68-7.213 4.68-12.283 0-4.905-1.56-8.918-4.68-12.04m-49.82 26.374c-2.212 0-4.024-.846-5.437-2.536-1.414-1.688-2.123-3.883-2.123-6.582 0-3.052.782-5.516 2.342-7.383 1.56-1.868 3.606-2.804 6.14-2.804 1.723 0 3.496.52 5.314 1.56V84.46c-2.176 1.527-4.256 2.29-6.24 2.29m9.215-33.003h-2.974v12.43c-1.462-.877-3.235-1.313-5.313-1.313-3.38 0-6.143 1.176-8.288 3.532-2.146 2.356-3.217 5.4-3.217 9.14 0 3.54.943 6.393 2.828 8.553 1.884 2.162 4.37 3.244 7.458 3.244 2.698 0 4.972-.747 6.825-2.242v1.756h2.677V53.746h.002zm-25.3 0h-2.925v35.1h2.925v-35.1zm-25.205 21.5c.13-2.406.912-4.324 2.34-5.755 1.43-1.43 3.184-2.144 5.266-2.144 2.08 0 3.688.878 4.827 2.63.91 1.465 1.366 3.22 1.366 5.27h-13.798zm14.187-7.46c-1.658-1.95-3.868-2.923-6.63-2.923-3.25 0-5.843 1.13-7.776 3.385-1.935 2.26-2.9 5.275-2.9 9.044 0 3.61.966 6.518 2.9 8.726 1.934 2.212 4.574 3.316 7.922 3.316 2.015 0 3.997-.375 5.946-1.12 1.398-.585 2.195-1.008 2.39-1.267l-1.317-2.246c-2.536 1.27-4.794 1.903-6.774 1.903-2.57 0-4.55-.812-5.948-2.438-1.398-1.625-2.097-3.77-2.097-6.437h16.77c0-.193.016-.486.052-.876.03-.39.046-.617.046-.682 0-3.542-.862-6.338-2.584-8.385m-22.812-2.34h-2.925v23.4h2.925v-23.4zm-.074-9.285c-.374-.373-.836-.56-1.39-.56-.52 0-.973.187-1.364.56-.392.373-.584.836-.584 1.388 0 .522.193.975.584 1.365.39.39.845.587 1.365.587.553 0 1.015-.196 1.39-.585.372-.39.56-.845.56-1.367 0-.552-.19-1.015-.56-1.388m-10.946-3c-2.11 0-3.785.616-5.02 1.852-1.462 1.462-2.194 3.69-2.194 6.678v3.754h-4.144v2.388h4.144v21.01h2.926v-21.01h7.508v-2.387h-7.508V61.69c0-2.273.456-3.865 1.365-4.776.78-.78 1.853-1.168 3.218-1.168 1.332 0 2.486.325 3.46.976l1.168-2.05c-1.202-1.007-2.843-1.512-4.922-1.512m-17.645 0c-2.113 0-3.787.616-5.02 1.852-1.463 1.462-2.195 3.69-2.195 6.678v3.754h-4.144v2.388h4.144v21.01h2.925v-21.01h7.507v-2.387h-7.507V61.69c0-2.273.455-3.865 1.366-4.776.78-.78 1.852-1.168 3.218-1.168 1.33 0 2.486.325 3.46.976l1.168-2.05c-1.203-1.01-2.843-1.513-4.92-1.512M49.792 65.444H46.87v19.013c-.814.39-1.626.796-2.438 1.217-1.69.715-3.268 1.074-4.728 1.074-1.495 0-2.707-.462-3.633-1.39-.924-.925-1.388-2.916-1.388-5.973V65.443h-2.924V78.8c0 2.178.05 3.624.146 4.338.292 1.724.942 3.09 1.95 4.096 1.395 1.4 3.28 2.096 5.655 2.096 2.728 0 5.263-.78 7.602-2.34v1.852h2.683l-.002-23.398zm-25.3-9.115h-2.876l.098 28.177L5.385 56.33H1.97v32.515h2.875l-.1-27.934 16.186 27.936h3.56V56.33zm664.48 50.4h-4.97v22.434h-26.158V106.73h-4.965v51.773h4.965v-25.146h26.158v25.146h4.97V106.73zm-45.257 0H607.39v4.192h15.68v47.58h4.967v-47.58h15.68v-4.192zm-33.067 47.427H588.37V106.73h-4.968v51.773h27.245v-4.346zm-66.445-14.748l9.78-27.478 9.855 27.477h-19.635zm12.73-32.68h-5.587l-18.866 51.773h4.97l5.28-14.825h22.588l5.277 14.825h5.283l-18.946-51.773zm-30.272 47.427h-23.056v-20.724h21.037v-4.115h-21.04V110.92h22.44v-4.19h-27.328v51.774h27.945l.003-4.347zm-41.297-47.427h-4.97v22.434h-26.154V106.73h-4.97v51.773h4.97v-25.146h26.155v25.146h4.97V106.73zm-68.072 0h-4.58l.155 44.866-26.006-44.866h-5.434v51.775h4.58l-.154-44.48 25.77 44.48h5.668V106.73zm-56.86 42.152c-3.182 4.188-7.465 6.282-12.847 6.282-5.123 0-9.352-2.132-12.693-6.4-3.336-4.27-5.005-9.717-5.005-16.344 0-6.726 1.592-12.133 4.773-16.222 3.183-4.088 7.415-6.13 12.69-6.13 5.23 0 9.51 2.044 12.85 6.13 3.337 4.09 5.008 9.395 5.008 15.914 0 6.988-1.595 12.58-4.776 16.77m3.686-35.632c-4.243-4.968-9.65-7.452-16.223-7.452-6.883 0-12.483 2.537-16.804 7.607-4.322 5.073-6.48 11.62-6.48 19.64 0 7.658 2.145 13.973 6.44 18.94 4.296 4.966 9.706 7.452 16.224 7.452 6.884 0 12.473-2.51 16.767-7.53 4.295-5.02 6.444-11.516 6.444-19.485 0-7.81-2.125-14.203-6.37-19.172m-50.45-6.518h-4.97v51.773h4.97V106.73v.002zm-14.13 0H263.21v4.19h15.68v47.58h4.968v-47.58h15.678v-4.192.002zM235.42 139.41l9.78-27.48 9.86 27.48h-19.64zm12.73-32.68h-5.59l-18.86 51.773h4.967l5.28-14.825h22.587l5.28 14.825h5.28L248.15 106.73zm-31.515 47.427h-22.277V106.73h-4.967v51.773h27.244v-4.346zm-39.818-47.427h-4.89v27.403c0 5.847-.13 9.625-.39 11.333-.414 2.536-1.474 4.656-3.184 6.362-2.224 2.228-5.33 3.336-9.314 3.336-4.348 0-7.74-1.213-10.17-3.647-1.5-1.5-2.46-3.363-2.872-5.588-.26-1.294-.39-3.443-.39-6.442V106.73h-4.89v28.022c0 5.64.158 9.392.466 11.255.57 3.467 1.914 6.264 4.04 8.384 3.363 3.365 7.89 5.048 13.58 5.048 5.693 0 10.172-1.632 13.43-4.89 2.28-2.275 3.674-5.46 4.192-9.55.257-1.862.39-6.313.39-13.352V106.73zm-54.183 23.365c-1.395 1.395-3.337 2.276-5.82 2.64-1.398.206-4.09.31-8.075.31h-4.27v-22.28h6.443c3.104 0 5.302.104 6.598.313 2.278.31 4.01 1.06 5.2 2.253 2.122 2.123 3.184 4.863 3.184 8.226 0 3.52-1.086 6.366-3.26 8.54m4.036-19.33c-1.71-1.707-3.96-2.845-6.753-3.416-1.917-.413-4.76-.62-8.54-.62H99.58v51.775h4.89V137.08h4.58c4.863 0 8.124-.156 9.78-.464 3.156-.57 5.795-1.913 7.917-4.036 2.742-2.745 4.114-6.396 4.114-10.946.002-4.452-1.396-8.073-4.19-10.87m-48.09 38.118c-3.18 4.188-7.464 6.282-12.844 6.282-5.124 0-9.353-2.132-12.692-6.4-3.338-4.27-5.007-9.717-5.007-16.342 0-6.728 1.592-12.134 4.773-16.224 3.185-4.086 7.413-6.13 12.693-6.13 5.226 0 9.508 2.044 12.846 6.13 3.335 4.09 5.006 9.395 5.006 15.914 0 6.988-1.59 12.58-4.775 16.77m3.69-35.63c-4.246-4.968-9.654-7.453-16.224-7.453-6.884 0-12.488 2.535-16.806 7.605-4.322 5.073-6.482 11.62-6.482 19.64 0 7.658 2.147 13.973 6.442 18.94 4.293 4.968 9.702 7.453 16.222 7.453 6.883 0 12.47-2.51 16.766-7.53 4.296-5.02 6.444-11.517 6.444-19.486.002-7.81-2.12-14.203-6.363-19.17m-55.967 16.843c-1.397 1.396-3.34 2.278-5.823 2.64-1.396.206-4.088.31-8.072.31h-4.27v-22.278h6.446c3.104 0 5.303.104 6.597.312 2.28.31 4.01 1.06 5.202 2.253 2.12 2.122 3.184 4.86 3.184 8.225 0 3.52-1.088 6.368-3.26 8.54m4.035-19.332c-1.705-1.706-3.957-2.844-6.75-3.417-1.916-.413-4.762-.62-8.54-.62H3.25v51.774h4.89V137.08h4.58c4.863 0 8.125-.155 9.78-.463 3.156-.57 5.796-1.915 7.918-4.038 2.743-2.744 4.115-6.396 4.115-10.946 0-4.448-1.4-8.072-4.192-10.868"/></svg>