<?xml version="1.0" encoding="utf-8"?>
<!-- Generator: Adobe Illustrator 15.1.0, SVG Export Plug-In . SVG Version: 6.00 Build 0)  -->
<!DOCTYPE svg PUBLIC "-//W3C//DTD SVG 1.1//EN" "http://www.w3.org/Graphics/SVG/1.1/DTD/svg11.dtd">
<svg version="1.1" id="npeu-logo" xmlns="http://www.w3.org/2000/svg" xmlns:xlink="http://www.w3.org/1999/xlink" x="0px" y="0px"
	 width="142.62px" height="125px" viewBox="0 0 142.62 125" enable-background="new 0 0 142.62 125" xml:space="preserve">
<g id="text">
	<g id="npeu">
		<path fill="#748797" d="M7.845,63.353c2.59-4.188,6.55-6.397,11.729-6.397c8.454,0,11.653,5.026,11.653,14.852v15.156
			c0,3.2,0.457,4.8,3.884,5.256v1.219c-2.132-0.305-3.732-0.533-4.874-0.533c-0.762,0-1.98,0.152-3.732,0.533
			c0.457-2.971,0.686-5.637,0.686-7.921v-13.71c0-7.845-1.904-11.653-8.53-11.653c-7.312,0-10.739,4.267-10.739,12.721v14.089
			c0,3.2,0.457,4.8,3.885,5.256v1.219c-2.818-0.381-4.799-0.533-5.865-0.533c-1.066,0-3.122,0.152-5.941,0.533v-1.219
			c3.428-0.456,3.885-2.056,3.885-5.256V63.962c0-2.514-0.534-3.122-2.361-3.275l-1.447-0.152v-1.142
			c2.513-0.381,5.179-1.448,8.226-3.123C8.074,59.239,7.845,61.601,7.845,63.353z"/>
		<path fill="#748797" d="M43.108,64.647c3.275-5.103,7.463-7.692,12.643-7.692c8.759,0,15.614,7.465,15.614,18.812
			c0,10.208-7.007,18.052-15.995,18.052c-4.875,0-9.064-2.438-12.262-7.235v13.71c0,3.198,0.457,4.722,3.884,5.255v1.218
			c-2.59-0.304-4.494-0.532-5.865-0.532c-1.37,0-3.351,0.229-5.94,0.532v-1.218c3.427-0.533,3.884-2.057,3.884-5.255V63.962
			c0-2.514-0.533-3.122-2.361-3.275l-1.447-0.152v-1.142c2.437-0.305,5.103-1.448,8.302-3.123
			C43.336,58.858,43.108,61.601,43.108,64.647z M43.032,75.311c0,9.826,5.637,15.462,11.882,15.462
			c6.169,0,11.882-5.636,11.882-14.092c0-10.205-5.332-16.604-12.339-16.604C48.82,60.077,43.032,65.714,43.032,75.311z"/>
		<path fill="#748797" d="M77.991,73.864c0,0,0,0.608,0,1.828c0,7.768,6.169,15.08,14.776,15.08c3.808,0,7.388-1.828,10.815-5.408
			l-0.458,4.417c-3.428,2.896-7.464,4.418-11.576,4.418c-10.282,0-18.127-8.225-18.127-18.965c0-10.587,7.463-18.584,16.604-18.584
			c9.063,0,15.08,6.169,15.08,15.994c0,0.382,0,0.762,0,1.22H77.991z M100.687,71.046c0-6.779-5.103-11.577-10.586-11.577
			c-6.093,0-11.043,4.493-11.958,11.729h22.543C100.687,71.122,100.687,71.122,100.687,71.046z"/>
		<path fill="#748797" d="M132.981,86.659c-2.59,4.722-6.474,7.159-11.729,7.159c-7.997,0-11.652-4.569-11.652-13.634V63.962
			c0-2.971-0.763-3.352-3.809-3.428v-1.065c2.513-0.381,5.103-1.524,8.148-3.199c-0.304,1.371-0.304,2.97-0.304,4.798
			c0,0.687,0,1.447,0,2.285v15.614c0,0.152,0,0.304,0,0.456c0,7.54,2.132,11.196,8.454,11.196c7.084,0,10.738-4.645,10.738-13.938
			V63.962c0-2.971-0.685-3.352-3.73-3.428v-1.065c2.513-0.381,5.103-1.524,8.148-3.199c-0.38,2.057-0.456,4.417-0.456,7.083v23.61
			c0,3.2,0.456,4.8,3.884,5.256v1.219c-1.676-0.457-3.275-0.533-4.874-0.533c-1.296,0-2.361,0.152-3.352,0.533
			C132.828,91.533,132.905,89.249,132.981,86.659z"/>
	</g>
	<g id="strap">
		<path fill="#A4AA9A" d="M52.074,110.398c0.439-0.059,0.629-0.236,0.629-0.616c0-0.036,0-0.144,0-0.321v-5.512
			c0-0.119-0.012-0.226-0.012-0.308c0-0.345-0.178-0.5-0.618-0.571v-0.238c0.451,0.061,0.808,0.084,1.057,0.084
			c0.226,0,0.522-0.023,0.855-0.072l4.062,6.083v-4.966c0-0.617-0.083-0.808-0.701-0.902v-0.227
			c0.404,0.049,0.749,0.084,1.045,0.084c0.286,0,0.629-0.023,1.021-0.084v0.227c-0.594,0.095-0.641,0.309-0.641,0.879v6.664h-0.819
			l-4.526-6.735v5.606c0,0.618,0.06,0.831,0.725,0.926v0.238c-0.404-0.06-0.761-0.095-1.057-0.095c-0.345,0-0.677,0.035-1.021,0.095
			V110.398z"/>
		<path fill="#A4AA9A" d="M65.354,110.637c-0.237-0.06-0.511-0.095-0.796-0.095c-0.19,0-0.44,0.023-0.76,0.071l0.036-1.069
			c-0.452,0.76-1.176,1.176-2.031,1.176c-1.058,0-1.794-0.701-1.794-1.615c0-0.583,0.273-1.081,0.736-1.366
			c0.417-0.261,1.058-0.296,1.877-0.404c0.772-0.106,1.14-0.178,1.14-0.796c0-0.628-0.475-1.093-1.295-1.093
			c-0.878,0-1.52,0.439-1.698,1.129h-0.238c0.071-0.463,0.107-0.867,0.107-1.176c0-0.048,0-0.095,0-0.131
			c0.629-0.285,1.235-0.415,1.877-0.415c1.556,0,2.257,0.677,2.257,2.09v2.648c0,0.097,0,0.155,0,0.203
			c0,0.392,0.19,0.604,0.582,0.604V110.637z M61.077,108.986c0,0.546,0.439,0.997,1.069,0.997c0.95,0,1.651-0.725,1.651-1.948
			c0-0.236,0-0.356,0-0.356C62.086,108.023,61.077,107.988,61.077,108.986z"/>
		<path fill="#A4AA9A" d="M67.42,103.355c-0.226,0.321-0.487,0.522-0.832,0.629v1.01h-0.713v0.606h0.713v3.338
			c0,1.212,0.487,1.793,1.521,1.793c0.392,0,0.76-0.106,1.116-0.321l0.036-0.723c-0.308,0.201-0.582,0.308-0.867,0.308
			c-0.642,0-0.808-0.416-0.808-1.152v-3.242h1.556v-0.606h-1.556v-1.639H67.42z"/>
		<path fill="#A4AA9A" d="M69.854,110.398c0.523-0.071,0.582-0.331,0.582-0.854v-3.492c0-0.463-0.095-0.547-0.57-0.57v-0.201
			c0.499-0.06,1.021-0.238,1.616-0.499c-0.047,0.368-0.06,0.748-0.06,1.141v3.622c0,0.535,0.071,0.796,0.593,0.854v0.227
			c-0.403-0.06-0.771-0.095-1.092-0.095c-0.273,0-0.629,0.035-1.069,0.095V110.398z M70.876,102.654c0.356,0,0.665,0.31,0.665,0.701
			c0,0.368-0.297,0.666-0.688,0.666c-0.356,0-0.654-0.298-0.654-0.678C70.199,102.987,70.485,102.654,70.876,102.654z"/>
		<path fill="#A4AA9A" d="M72.682,107.822c0-1.782,1.271-3.005,2.863-3.005c1.58,0,2.85,1.223,2.85,2.944
			c0,1.771-1.271,3.005-2.862,3.005C73.952,110.767,72.682,109.556,72.682,107.822z M75.687,110.174
			c0.915,0,1.675-0.843,1.675-2.019c0-1.712-0.892-2.745-1.961-2.745c-0.914,0-1.686,0.856-1.686,2.032
			C73.715,109.14,74.618,110.174,75.687,110.174z"/>
		<path fill="#A4AA9A" d="M81.223,110.375v0.25c-0.463-0.06-0.808-0.095-1.069-0.095c-0.273,0-0.63,0.035-1.069,0.095v-0.25
			c0.439-0.023,0.583-0.213,0.583-0.676v-3.458c0-0.498,0-0.617-0.583-0.688v-0.238c0.416-0.06,0.916-0.273,1.544-0.546
			c-0.047,0.439-0.071,0.902-0.071,1.377c0.226-0.771,0.914-1.259,1.782-1.259c1.389,0,1.877,0.855,1.877,2.613v2.198
			c0,0.463,0.142,0.652,0.582,0.676v0.25c-0.321-0.06-0.617-0.095-0.902-0.095c-0.167,0-0.404,0-0.725,0.059
			c0.036-0.38,0.059-0.748,0.059-1.104c0-0.047,0-0.178,0-0.439v-2.031c0-0.938-0.285-1.377-0.986-1.377
			c-0.546,0-1.08,0.309-1.354,0.807c-0.226,0.404-0.238,0.844-0.238,1.367c0,0.095,0,0.189,0,0.284v1.604
			C80.652,110.162,80.783,110.352,81.223,110.375z"/>
		<path fill="#A4AA9A" d="M90.784,110.637c-0.237-0.06-0.51-0.095-0.795-0.095c-0.191,0-0.439,0.023-0.76,0.071l0.036-1.069
			c-0.451,0.76-1.176,1.176-2.031,1.176c-1.058,0-1.794-0.701-1.794-1.615c0-0.583,0.273-1.081,0.736-1.366
			c0.416-0.261,1.058-0.296,1.877-0.404c0.772-0.106,1.14-0.178,1.14-0.796c0-0.628-0.475-1.093-1.295-1.093
			c-0.878,0-1.52,0.439-1.698,1.129h-0.238c0.071-0.463,0.108-0.867,0.108-1.176c0-0.048,0-0.095,0-0.131
			c0.629-0.285,1.235-0.415,1.877-0.415c1.556,0,2.257,0.677,2.257,2.09v2.648c0,0.097,0,0.155,0,0.203
			c0,0.392,0.189,0.604,0.581,0.604V110.637z M86.508,108.986c0,0.546,0.439,0.997,1.069,0.997c0.949,0,1.65-0.725,1.65-1.948
			c0-0.236,0-0.356,0-0.356C87.517,108.023,86.508,107.988,86.508,108.986z"/>
		<path fill="#A4AA9A" d="M91.438,110.625c0.427-0.06,0.783-0.095,1.057-0.095c0.32,0,0.688,0.035,1.092,0.095v-0.227
			c-0.534-0.071-0.581-0.331-0.581-0.854v-6.592c0-0.356,0.012-0.748,0.06-1.141c-0.582,0.249-1.117,0.439-1.627,0.499v0.214
			c0.475,0.023,0.581,0.095,0.581,0.558v6.462c0,0.523-0.048,0.783-0.581,0.854V110.625z"/>
		<path fill="#A4AA9A" d="M97.257,110.398c0.57-0.095,0.642-0.296,0.642-0.831v-5.643c0-0.533-0.083-0.748-0.642-0.843v-0.226h2.804
			c2.102,0,3.171,0.855,3.171,2.411c0,1.259-0.986,2.245-2.482,2.245c-0.737,0-1.212-0.167-1.212-0.332
			c0-0.071,0.095-0.131,0.273-0.131c0.143,0,0.25,0.012,0.345,0.012c1.247,0,1.948-0.7,1.948-1.723c0-1.164-0.808-1.771-2.436-1.771
			h-0.677v5.999c0,0.571,0.106,0.748,0.677,0.831v0.238c-0.463-0.06-0.867-0.095-1.224-0.095c-0.392,0-0.784,0.035-1.188,0.095
			V110.398z"/>
		<path fill="#A4AA9A" d="M104.216,107.679c0.024,1.402,0.915,2.316,2.139,2.316c0.665,0,1.246-0.261,1.781-0.796l-0.118,0.868
			c-0.559,0.439-1.26,0.676-1.938,0.676c-1.662,0-2.933-1.294-2.933-3.017c0-1.663,1.199-2.886,2.743-2.886
			c1.45,0,2.459,1.009,2.459,2.625c0,0.071-0.013,0.142-0.013,0.213H104.216z M105.833,105.457c-0.808,0-1.485,0.618-1.604,1.641
			h3.065C107.27,106.111,106.604,105.457,105.833,105.457z"/>
		<path fill="#A4AA9A" d="M108.992,110.398c0.521-0.071,0.582-0.331,0.582-0.854v-3.492c0-0.463-0.096-0.547-0.57-0.57v-0.201
			c0.51-0.06,1.033-0.238,1.591-0.499c-0.035,0.356-0.047,0.784-0.047,1.247c0.416-0.725,1.01-1.117,1.639-1.117
			c0.132,0,0.25,0.024,0.368,0.071l0.108,1.129h-0.144c-0.166-0.166-0.356-0.286-0.629-0.286c-0.772,0-1.331,0.689-1.331,1.974
			v1.745c0,0.535,0.083,0.808,0.63,0.854v0.227c-0.427-0.06-0.783-0.095-1.104-0.095c-0.31,0-0.666,0.035-1.093,0.095V110.398z"/>
		<path fill="#A4AA9A" d="M112.922,110.398c0.523-0.071,0.583-0.331,0.583-0.854v-3.492c0-0.463-0.095-0.547-0.571-0.57v-0.201
			c0.5-0.06,1.022-0.238,1.617-0.499c-0.048,0.368-0.06,0.748-0.06,1.141v3.622c0,0.535,0.071,0.796,0.593,0.854v0.227
			c-0.403-0.06-0.771-0.095-1.093-0.095c-0.273,0-0.629,0.035-1.069,0.095V110.398z M113.945,102.654
			c0.356,0,0.665,0.31,0.665,0.701c0,0.368-0.297,0.666-0.689,0.666c-0.356,0-0.653-0.298-0.653-0.678
			C113.267,102.987,113.552,102.654,113.945,102.654z"/>
		<path fill="#A4AA9A" d="M117.294,109.699v-1.604c0-0.095,0-0.189,0-0.284c0-0.523,0.012-0.963,0.236-1.367
			c0.273-0.498,0.81-0.807,1.354-0.807c0.701,0,0.986,0.438,0.986,1.377v2.031c0,0.262,0,0.393,0,0.439
			c0,0.356-0.023,0.725-0.059,1.104c0.319-0.059,0.558-0.059,0.724-0.059c0.285,0,0.582,0.035,0.903,0.095v-0.25
			c-0.439-0.023-0.583-0.213-0.583-0.676v-2.198c0-1.758-0.486-2.613-1.877-2.613c-0.866,0-1.556,0.487-1.78,1.259
			c0-0.475,0.023-0.938,0.071-1.377c-0.63,0.272-1.129,0.486-1.544,0.546v0.238c0.581,0.07,0.581,0.189,0.581,0.688v3.458
			c0,0.463-0.143,0.652-0.581,0.676v0.25c0.438-0.06,0.795-0.095,1.068-0.095c0.261,0,0.605,0.035,1.068,0.095v-0.25
			C117.424,110.352,117.294,110.162,117.294,109.699z"/>
		<path fill="#A4AA9A" d="M127.426,110.637c-0.237-0.06-0.512-0.095-0.796-0.095c-0.19,0-0.44,0.023-0.76,0.071l0.035-1.069
			c-0.452,0.76-1.177,1.176-2.031,1.176c-1.058,0-1.794-0.701-1.794-1.615c0-0.583,0.273-1.081,0.736-1.366
			c0.417-0.261,1.058-0.296,1.877-0.404c0.771-0.106,1.14-0.178,1.14-0.796c0-0.628-0.475-1.093-1.294-1.093
			c-0.878,0-1.521,0.439-1.699,1.129h-0.236c0.07-0.463,0.106-0.867,0.106-1.176c0-0.048,0-0.095,0-0.131
			c0.63-0.285,1.234-0.415,1.877-0.415c1.556,0,2.257,0.677,2.257,2.09v2.648c0,0.097,0,0.155,0,0.203
			c0,0.392,0.19,0.604,0.582,0.604V110.637z M123.15,108.986c0,0.546,0.438,0.997,1.069,0.997c0.95,0,1.651-0.725,1.651-1.948
			c0-0.236,0-0.356,0-0.356C124.16,108.023,123.15,107.988,123.15,108.986z"/>
		<path fill="#A4AA9A" d="M129.493,103.355c-0.227,0.321-0.486,0.522-0.831,0.629v1.01h-0.713v0.606h0.713v3.338
			c0,1.212,0.486,1.793,1.521,1.793c0.392,0,0.76-0.106,1.116-0.321l0.035-0.723c-0.309,0.201-0.582,0.308-0.866,0.308
			c-0.642,0-0.808-0.416-0.808-1.152v-3.242h1.556v-0.606h-1.556v-1.639H129.493z"/>
		<path fill="#A4AA9A" d="M137.238,110.398c-0.394,0-0.583-0.213-0.583-0.604c0-0.048,0-0.106,0-0.203v-2.648
			c0-1.413-0.7-2.09-2.257-2.09c-0.642,0-1.246,0.13-1.876,0.415c0,0.036,0,0.083,0,0.131c0,0.309-0.036,0.713-0.106,1.176h0.236
			c0.179-0.689,0.82-1.129,1.699-1.129c0.819,0,1.294,0.465,1.294,1.093c0,0.618-0.368,0.689-1.14,0.796
			c-0.82,0.108-1.462,0.144-1.877,0.404c-0.463,0.285-0.736,0.783-0.736,1.366c0,0.914,0.736,1.615,1.793,1.615
			c0.855,0,1.58-0.416,2.031-1.176l-0.035,1.069c0.32-0.048,0.57-0.071,0.76-0.071c0.285,0,0.559,0.035,0.797,0.095V110.398z
			 M135.681,107.679c0,0,0,0.12,0,0.356c0,1.224-0.7,1.948-1.651,1.948c-0.63,0-1.069-0.451-1.069-0.997
			C132.96,107.988,133.971,108.023,135.681,107.679z"/>
		<path fill="#A4AA9A" d="M137.89,110.398c0.535-0.071,0.583-0.331,0.583-0.854v-6.462c0-0.463-0.108-0.534-0.583-0.558v-0.214
			c0.512-0.06,1.046-0.25,1.628-0.499c-0.048,0.393-0.061,0.784-0.061,1.141v6.592c0,0.523,0.049,0.783,0.583,0.854v0.227
			c-0.403-0.06-0.772-0.095-1.093-0.095c-0.273,0-0.63,0.035-1.058,0.095V110.398z"/>
		<path fill="#A4AA9A" d="M57.751,114.987c0,0.617,0.059,1.188,0.142,1.722h-0.226c-0.154-0.962-0.486-1.01-1.366-1.01h-2.506v2.613
			h1.65c0.57,0,0.785-0.048,0.879-0.641h0.214c-0.036,0.356-0.071,0.676-0.071,0.984c0,0.31,0.012,0.643,0.059,0.999h-0.202
			c-0.094-0.595-0.309-0.654-0.879-0.654h-1.65v3.006h2.589c1.093,0,1.414-0.178,1.592-1.282h0.226
			c-0.119,0.628-0.178,1.294-0.19,2.007h-5.951v-0.238c0.57-0.095,0.642-0.296,0.642-0.831v-5.606c0-0.534-0.083-0.749-0.642-0.844
			v-0.225H57.751z"/>
		<path fill="#A4AA9A" d="M60.816,124.655v0.25c-0.452-0.06-0.808-0.095-1.069-0.095c-0.285,0-0.641,0.035-1.069,0.095v-0.25
			c0.44-0.023,0.582-0.213,0.582-0.678v-5.606c0-0.51-0.012-0.616-0.582-0.688v-0.238c0.476-0.083,0.987-0.273,1.544-0.546
			c-0.047,0.416-0.071,0.808-0.071,1.188c0.392-0.688,1.093-1.081,1.924-1.081c1.616,0,2.708,1.105,2.708,2.887
			c0,1.663-1.176,2.945-2.72,2.945c-0.867,0-1.473-0.296-1.817-0.879v2.019C60.246,124.442,60.376,124.632,60.816,124.655z
			 M61.837,122.174c1.116,0,1.876-0.868,1.876-2.245c0-1.379-0.748-2.245-1.912-2.245c-1.058,0-1.592,0.748-1.592,2.245
			C60.209,121.425,60.732,122.174,61.837,122.174z"/>
		<path fill="#A4AA9A" d="M65.483,122.53c0.523-0.072,0.582-0.333,0.582-0.856v-3.492c0-0.463-0.095-0.546-0.57-0.57v-0.201
			c0.499-0.06,1.022-0.238,1.616-0.499c-0.047,0.368-0.06,0.749-0.06,1.141v3.622c0,0.535,0.071,0.796,0.594,0.856v0.225
			c-0.404-0.06-0.772-0.095-1.093-0.095c-0.273,0-0.629,0.035-1.069,0.095V122.53z M66.505,114.785c0.356,0,0.665,0.309,0.665,0.7
			c0,0.369-0.297,0.666-0.688,0.666c-0.356,0-0.654-0.297-0.654-0.678C65.828,115.117,66.114,114.785,66.505,114.785z"/>
		<path fill="#A4AA9A" d="M73.645,115.26v6.426c0,0.571,0.071,0.808,0.617,0.845v0.225c-0.368-0.048-0.664-0.083-0.878-0.083
			s-0.463,0.023-0.772,0.083c0.047-0.31,0.059-0.666,0.083-1.093c-0.439,0.76-1.117,1.164-1.876,1.164
			c-1.414,0-2.482-1.2-2.482-2.897c0-1.688,1.081-2.887,2.554-2.887c0.725,0,1.295,0.297,1.758,0.914v-2.352
			c0-0.643-0.059-0.855-0.642-0.855c-0.012,0-0.036,0-0.047,0v-0.202c0.559-0.095,1.14-0.308,1.747-0.605
			C73.668,114.334,73.645,114.772,73.645,115.26z M69.416,119.868c0,1.366,0.725,2.257,1.627,2.257c0.89,0,1.627-0.831,1.627-2.22
			c0-1.402-0.713-2.198-1.615-2.198C70.164,117.707,69.416,118.515,69.416,119.868z"/>
		<path fill="#A4AA9A" d="M75.937,119.809c0.024,1.402,0.914,2.316,2.137,2.316c0.666,0,1.249-0.261,1.782-0.796l-0.118,0.868
			c-0.559,0.439-1.26,0.676-1.936,0.676c-1.664,0-2.934-1.294-2.934-3.017c0-1.663,1.199-2.886,2.743-2.886
			c1.45,0,2.459,1.009,2.459,2.625c0,0.071-0.012,0.142-0.012,0.213H75.937z M77.552,117.588c-0.808,0-1.485,0.618-1.603,1.64h3.064
			C78.989,118.241,78.324,117.588,77.552,117.588z"/>
		<path fill="#A4AA9A" d="M80.711,122.53c0.523-0.072,0.583-0.333,0.583-0.856v-3.492c0-0.463-0.095-0.546-0.571-0.57v-0.201
			c0.512-0.06,1.034-0.238,1.591-0.499c-0.035,0.428-0.047,0.831-0.059,1.176c0.345-0.677,0.975-1.069,1.676-1.069
			c0.795,0,1.341,0.416,1.544,1.152c0.345-0.736,0.985-1.14,1.77-1.14c1.009,0,1.651,0.665,1.651,1.793
			c0,0.083,0.012,0.226,0.012,0.451v2.043c0,0.748,0.071,1.152,0.581,1.213v0.225c-0.355-0.06-0.664-0.095-0.926-0.095
			c-0.177,0-0.416,0.023-0.725,0.083c0.071-0.606,0.095-1.081,0.095-1.379v-1.815c0-1.164-0.237-1.735-1.056-1.735
			c-0.868,0-1.295,0.63-1.295,1.865v1.995c0,0.535,0.059,0.808,0.618,0.856v0.225c-0.463-0.06-0.819-0.095-1.081-0.095
			c-0.286,0-0.642,0.035-1.081,0.095v-0.225c0.534-0.072,0.583-0.333,0.583-0.856v-2.149c0-1.128-0.191-1.711-1.045-1.711
			c-0.868,0-1.295,0.63-1.295,1.865v1.995c0,0.535,0.072,0.796,0.594,0.856v0.225c-0.404-0.06-0.772-0.095-1.093-0.095
			c-0.274,0-0.63,0.035-1.069,0.095V122.53z"/>
		<path fill="#A4AA9A" d="M90.154,122.53c0.523-0.072,0.583-0.333,0.583-0.856v-3.492c0-0.463-0.095-0.546-0.571-0.57v-0.201
			c0.5-0.06,1.022-0.238,1.616-0.499c-0.048,0.368-0.06,0.749-0.06,1.141v3.622c0,0.535,0.072,0.796,0.594,0.856v0.225
			c-0.403-0.06-0.771-0.095-1.093-0.095c-0.273,0-0.63,0.035-1.069,0.095V122.53z M91.176,114.785c0.356,0,0.665,0.309,0.665,0.7
			c0,0.369-0.297,0.666-0.689,0.666c-0.356,0-0.653-0.297-0.653-0.678C90.499,115.117,90.784,114.785,91.176,114.785z"/>
		<path fill="#A4AA9A" d="M92.982,119.952c0-1.782,1.271-3.005,2.861-3.005c1.58,0,2.852,1.223,2.852,2.945
			c0,1.77-1.271,3.006-2.863,3.006C94.252,122.898,92.982,121.686,92.982,119.952z M95.987,122.304c0.914,0,1.674-0.843,1.674-2.019
			c0-1.711-0.89-2.745-1.959-2.745c-0.916,0-1.688,0.856-1.688,2.032C94.014,121.27,94.917,122.304,95.987,122.304z"/>
		<path fill="#A4AA9A" d="M99.384,122.53c0.533-0.072,0.581-0.333,0.581-0.856v-6.462c0-0.463-0.106-0.533-0.581-0.558v-0.214
			c0.51-0.06,1.044-0.25,1.627-0.499c-0.048,0.393-0.06,0.784-0.06,1.141v6.592c0,0.523,0.048,0.784,0.581,0.856v0.225
			c-0.403-0.06-0.771-0.095-1.093-0.095c-0.272,0-0.629,0.035-1.056,0.095V122.53z"/>
		<path fill="#A4AA9A" d="M102.199,119.952c0-1.782,1.271-3.005,2.863-3.005c1.579,0,2.85,1.223,2.85,2.945
			c0,1.77-1.271,3.006-2.861,3.006C103.469,122.898,102.199,121.686,102.199,119.952z M105.204,122.304
			c0.914,0,1.675-0.843,1.675-2.019c0-1.711-0.891-2.745-1.96-2.745c-0.914,0-1.687,0.856-1.687,2.032
			C103.232,121.27,104.134,122.304,105.204,122.304z"/>
		<path fill="#A4AA9A" d="M113.993,117.755c-0.201,0.035-0.344,0.035-0.415,0.035c-0.225,0-0.463-0.012-0.713-0.071
			c0.368,0.345,0.547,0.713,0.547,1.188c0,1.093-0.986,2.043-2.304,2.043c-0.465,0-0.856-0.118-1.248-0.356
			c-0.309,0.214-0.476,0.356-0.476,0.582c0,0.511,0.606,0.606,1.807,0.631c1.781,0.035,2.778,0.225,2.778,1.329
			c0,1.046-1.032,1.865-2.767,1.865c-1.343,0-2.092-0.595-2.092-1.354c0-0.178,0.061-0.344,0.155-0.522l0.974-0.368
			c-0.13,0.227-0.189,0.428-0.189,0.63c0,0.605,0.51,1.046,1.317,1.046c0.916,0,1.521-0.488,1.521-1.034
			c0-0.547-0.498-0.713-1.436-0.713c-0.167,0-0.333,0-0.488,0c-0.701,0-1.259-0.012-1.71-0.19c-0.488-0.201-0.796-0.617-0.796-1.129
			c0-0.106,0.012-0.248,0.048-0.392c0.463-0.201,0.819-0.392,1.045-0.593c-0.368-0.393-0.559-0.855-0.559-1.354
			c0-1.2,0.939-2.043,2.352-2.043c0.606,0,1.225,0.225,2.009,0.225c0.308,0,0.581-0.023,0.843-0.083L113.993,117.755z
			 M109.944,118.812c0,0.891,0.641,1.532,1.354,1.532c0.63,0,1.176-0.535,1.176-1.283c0-0.843-0.594-1.497-1.318-1.497
			C110.501,117.563,109.944,118.052,109.944,118.812z"/>
		<path fill="#A4AA9A" d="M114.587,118.253c-0.202-0.546-0.368-0.843-0.76-0.914v-0.238c0.333,0.06,0.701,0.083,1.104,0.083
			c0.368,0,0.725-0.023,1.093-0.083v0.227c-0.368,0.035-0.535,0.142-0.535,0.368c0,0.083,0.023,0.201,0.071,0.356l1.2,3.468
			l1.152-3.468c0.048-0.144,0.071-0.273,0.071-0.38c0-0.227-0.167-0.321-0.547-0.345v-0.227c0.309,0.048,0.63,0.071,0.938,0.071
			c0.31,0,0.594-0.012,0.902-0.071v0.227c-0.38,0.059-0.534,0.345-0.713,0.854l-1.65,4.74c-0.475,1.354-0.843,2.055-1.747,2.055
			c-0.236,0-0.438-0.06-0.628-0.203c-0.012-0.415-0.049-0.831-0.108-1.234h0.215c0.059,0.356,0.262,0.547,0.569,0.547
			c0.392,0,0.713-0.262,0.845-0.666l0.213-0.63L114.587,118.253z"/>
		<path fill="#A4AA9A" d="M123.639,115.059c0.403,0,0.783-0.024,1.188-0.097v0.238c-0.56,0.083-0.63,0.285-0.63,0.831v3.612
			c0,1.674,0.368,2.519,1.817,2.519c1.438,0,1.817-0.845,1.817-2.519v-3.624c0-0.546-0.072-0.736-0.642-0.831v-0.227
			c0.415,0.061,0.808,0.085,1.188,0.085c0.403,0,0.796-0.024,1.188-0.085v0.227c-0.581,0.095-0.641,0.297-0.641,0.831v3.624
			c0,2.221-0.773,3.241-2.91,3.241c-2.162,0-2.923-1.021-2.923-3.241v-3.612c0-0.521-0.047-0.736-0.642-0.831v-0.238
			C122.854,115.022,123.246,115.059,123.639,115.059z"/>
		<path fill="#A4AA9A" d="M132.308,122.505v0.25c-0.463-0.06-0.807-0.095-1.067-0.095c-0.273,0-0.63,0.035-1.069,0.095v-0.25
			c0.439-0.023,0.581-0.213,0.581-0.676v-3.458c0-0.498,0-0.616-0.581-0.688v-0.238c0.416-0.06,0.914-0.273,1.544-0.546
			c-0.047,0.439-0.071,0.902-0.071,1.377c0.226-0.771,0.914-1.259,1.781-1.259c1.39,0,1.877,0.855,1.877,2.613v2.198
			c0,0.463,0.143,0.652,0.582,0.676v0.25c-0.32-0.06-0.618-0.095-0.902-0.095c-0.167,0-0.404,0-0.725,0.06
			c0.036-0.381,0.06-0.749,0.06-1.105c0-0.047,0-0.178,0-0.439v-2.03c0-0.938-0.285-1.378-0.986-1.378
			c-0.546,0-1.081,0.309-1.354,0.808c-0.227,0.403-0.238,0.843-0.238,1.366c0,0.095,0,0.189,0,0.284v1.604
			C131.739,122.292,131.87,122.481,132.308,122.505z"/>
		<path fill="#A4AA9A" d="M136.562,122.53c0.521-0.072,0.581-0.333,0.581-0.856v-3.492c0-0.463-0.095-0.546-0.569-0.57v-0.201
			c0.498-0.06,1.021-0.238,1.615-0.499c-0.048,0.368-0.06,0.749-0.06,1.141v3.622c0,0.535,0.071,0.796,0.594,0.856v0.225
			c-0.404-0.06-0.772-0.095-1.092-0.095c-0.273,0-0.63,0.035-1.069,0.095V122.53z M137.583,114.785c0.356,0,0.665,0.309,0.665,0.7
			c0,0.369-0.297,0.666-0.688,0.666c-0.356,0-0.652-0.297-0.652-0.678C136.907,115.117,137.191,114.785,137.583,114.785z"/>
		<path fill="#A4AA9A" d="M140.944,115.485v1.639h1.556v0.606h-1.556v3.242c0,0.736,0.167,1.152,0.808,1.152
			c0.285,0,0.56-0.106,0.868-0.308l-0.035,0.725c-0.356,0.213-0.725,0.319-1.117,0.319c-1.033,0-1.521-0.581-1.521-1.793v-3.338
			h-0.713v-0.606h0.713v-1.008c0.344-0.108,0.605-0.31,0.832-0.631H140.944z"/>
	</g>
</g>
<g id="figure-2">
	<g id="arm-2-base">
		<path fill="#748797" d="M74.928,32.068c13.031,1.169,16.694-9.548,16.694-9.548c2.258-5.979,8.746-5.269,8.746-5.269
			c9.148,1.754-2.398,12.235-2.398,12.235c-8.286,6.712-17.75,5.516-23.523,3.765c0,0-0.721-0.173-0.642-0.739
			C73.805,32.513,73.836,31.831,74.928,32.068z"/>
		<path fill="#798B9B" d="M100.322,17.507c8.835,1.725-2.52,12.001-2.52,12.001c-8.294,6.689-17.558,5.463-23.352,3.74
			c0,0-0.709-0.171-0.63-0.736c0,0,0.044-0.658,1.136-0.419c13.031,1.169,16.762-9.435,16.762-9.435
			C94.017,16.705,100.322,17.507,100.322,17.507z"/>
		<path fill="#7E90A0" d="M100.274,17.763c8.522,1.696-2.641,11.768-2.641,11.768c-8.3,6.664-17.364,5.409-23.18,3.714
			c0,0-0.696-0.168-0.617-0.734c0,0,0.058-0.631,1.149-0.394c13.031,1.169,16.829-9.321,16.829-9.321
			C94.154,16.869,100.274,17.763,100.274,17.763z"/>
		<path fill="#8294A4" d="M100.228,18.019c8.21,1.666-2.763,11.533-2.763,11.533c-8.308,6.641-17.173,5.355-23.008,3.689
			c0,0-0.685-0.167-0.605-0.731c0,0,0.072-0.606,1.163-0.369c13.032,1.169,16.896-9.207,16.896-9.207
			C94.291,17.032,100.228,18.019,100.228,18.019z"/>
		<path fill="#8798A8" d="M100.181,18.274c7.896,1.638-2.885,11.3-2.885,11.3c-8.314,6.617-16.979,5.301-22.835,3.664
			c0,0-0.673-0.164-0.593-0.729c0,0,0.085-0.582,1.176-0.344c13.032,1.169,16.963-9.093,16.963-9.093
			C94.427,17.196,100.181,18.274,100.181,18.274z"/>
		<path fill="#8C9DAC" d="M100.133,18.531c7.584,1.607-3.005,11.065-3.005,11.065c-8.323,6.591-16.787,5.248-22.665,3.638
			c0,0-0.66-0.161-0.58-0.726c0,0,0.099-0.555,1.189-0.319c13.032,1.17,17.029-8.979,17.029-8.979
			C94.564,17.36,100.133,18.531,100.133,18.531z"/>
		<path fill="#91A2B1" d="M100.086,18.787c7.271,1.578-3.126,10.831-3.126,10.831c-8.33,6.568-16.594,5.194-22.493,3.613
			c0,0-0.648-0.158-0.568-0.723c0,0,0.112-0.53,1.202-0.294c13.032,1.17,17.096-8.865,17.096-8.865
			C94.701,17.524,100.086,18.787,100.086,18.787z"/>
		<path fill="#97A6B5" d="M100.041,19.042c6.957,1.549-3.249,10.597-3.249,10.597c-8.337,6.544-16.401,5.141-22.32,3.588
			c0,0-0.638-0.156-0.556-0.721c0,0,0.126-0.505,1.215-0.269c13.034,1.17,17.163-8.751,17.163-8.751
			C94.837,17.688,100.041,19.042,100.041,19.042z"/>
		<path fill="#9CABBA" d="M99.993,19.298c6.645,1.52-3.369,10.364-3.369,10.364c-8.344,6.52-16.208,5.086-22.149,3.562
			c0,0-0.625-0.153-0.543-0.718c0,0,0.139-0.479,1.229-0.244c13.033,1.171,17.23-8.637,17.23-8.637
			C94.974,17.852,99.993,19.298,99.993,19.298z"/>
		<path fill="#A2B0BE" d="M75.188,32.287c13.034,1.17,17.297-8.524,17.297-8.524c2.625-5.747,7.46-4.208,7.46-4.208
			c6.331,1.49-3.491,10.13-3.491,10.13c-8.351,6.496-16.016,5.033-21.977,3.537c0,0-0.613-0.151-0.531-0.716
			C73.947,32.505,74.1,32.051,75.188,32.287z"/>
	</g>
	<g id="arm-2-blend">
		<path fill="#A2B0BE" d="M75.188,32.287c13.034,1.17,17.297-8.524,17.297-8.524c2.625-5.747,7.46-4.208,7.46-4.208
			c6.331,1.49-3.491,10.13-3.491,10.13c-8.351,6.496-16.016,5.033-21.977,3.537c0,0-0.613-0.151-0.531-0.716
			C73.947,32.505,74.1,32.051,75.188,32.287z"/>
		<path fill="#A9B7C4" d="M99.799,19.848c6.061,1.442-2.994,9.466-3.449,9.859c-8.006,6.277-15.83,4.981-21.729,3.516
			c0,0-0.641-0.15-0.567-0.696c0,0,0.145-0.419,1.229-0.194c12.774,1.123,17.111-8.138,17.176-8.244
			C95.022,18.613,99.548,19.78,99.799,19.848z"/>
		<path fill="#B0BDC9" d="M99.655,20.142c5.79,1.394-2.501,8.802-3.41,9.589c-7.658,6.057-15.643,4.928-21.479,3.495
			c0,0-0.669-0.151-0.604-0.677c0,0,0.137-0.385,1.215-0.17c12.517,1.075,16.923-7.754,17.055-7.965
			C94.933,19.211,99.153,20.006,99.655,20.142z"/>
		<path fill="#B9C4D0" d="M99.509,20.436c5.519,1.346-2.006,8.139-3.371,9.318c-7.311,5.839-15.455,4.876-21.229,3.475
			c0,0-0.698-0.15-0.641-0.658c0,0,0.129-0.351,1.204-0.146c12.257,1.027,16.737-7.369,16.936-7.686
			C94.844,19.809,98.755,20.231,99.509,20.436z"/>
		<path fill="#C1CBD6" d="M99.363,20.73c5.248,1.297-1.511,7.474-3.33,9.048c-6.965,5.62-15.268,4.824-20.98,3.455
			c0,0-0.726-0.15-0.676-0.64c0,0,0.121-0.315,1.19-0.12c11.999,0.978,16.55-6.985,16.815-7.407
			C94.755,20.407,98.36,20.457,99.363,20.73z"/>
		<path fill="#C9D2DC" d="M99.218,21.023c4.977,1.25-1.017,6.812-3.291,8.778c-6.618,5.4-15.081,4.771-20.729,3.433
			c0,0-0.755-0.148-0.713-0.62c0,0,0.113-0.281,1.177-0.097c11.741,0.931,16.364-6.6,16.694-7.128
			C94.667,21.005,97.962,20.684,99.218,21.023z"/>
		<path fill="#D2DAE2" d="M99.073,21.317c4.705,1.201-0.522,6.147-3.25,8.508c-6.272,5.181-14.895,4.719-20.482,3.413
			c0,0-0.782-0.148-0.748-0.602c0,0,0.105-0.247,1.164-0.072c11.482,0.882,16.177-6.216,16.573-6.85
			C94.579,21.603,97.566,20.909,99.073,21.317z"/>
		<path fill="#DBE1E8" d="M98.926,21.611c4.435,1.153-0.026,5.484-3.21,8.237c-5.925,4.963-14.707,4.668-20.232,3.393
			c0,0-0.812-0.148-0.785-0.583c0,0,0.097-0.212,1.152-0.047c11.223,0.834,15.99-5.83,16.453-6.57
			C94.489,22.201,97.169,21.135,98.926,21.611z"/>
		<path fill="#E4E9EE" d="M98.782,21.905c4.164,1.104,0.467,4.819-3.171,7.967c-5.578,4.743-14.52,4.615-19.982,3.372
			c0,0-0.84-0.148-0.822-0.563c0,0,0.089-0.178,1.139-0.023c10.965,0.786,15.804-5.446,16.332-6.292
			C94.401,22.798,96.773,21.361,98.782,21.905z"/>
		<path fill="#EEF1F4" d="M76.041,32.704c10.706,0.738,15.617-5.061,16.211-6.012c2.06-3.296,4.125-5.105,6.384-4.493
			c3.894,1.056,0.963,4.156-3.13,7.696c-5.231,4.524-14.333,4.563-19.733,3.351c0,0-0.868-0.147-0.857-0.544
			C74.915,32.702,74.997,32.559,76.041,32.704z"/>
	</g>
	<path id="arm-2-highlight" fill="#FFFFFF" d="M101.482,18.559c-1.179-0.501-2.362-0.264-2.886,0.001
		c0.64,0.116,1.607,0.141,2.646,0.585c1.081,0.356,1.483,1.174,1.533,1.844C103.202,20.504,102.815,18.94,101.482,18.559z"/>
	<g id="head-2-base">
		<path fill="#748797" d="M100.609,14.519c3.787-0.763,6.244-4.455,5.479-8.248c-0.763-3.788-4.456-6.241-8.243-5.478
			c-3.391,0.683-5.693,3.711-5.599,7.054c0.01-3.112,2.202-5.894,5.372-6.532c3.623-0.73,7.153,1.616,7.883,5.239
			c0.73,3.624-1.616,7.153-5.239,7.883c-1.316,0.265-2.616,0.114-3.777-0.345C97.742,14.629,99.167,14.809,100.609,14.519z"/>
		<path fill="#748797" d="M100.261,14.437c3.623-0.73,5.97-4.259,5.239-7.883c-0.729-3.623-4.26-5.969-7.883-5.239
			c-3.17,0.638-5.362,3.419-5.372,6.532c0.012,0.393,0.036,0.789,0.116,1.188c0.004,0.02,0.014,0.038,0.019,0.058
			c-0.657-3.573,1.658-7.027,5.233-7.747c3.611-0.728,7.13,1.61,7.858,5.222c0.728,3.612-1.611,7.13-5.223,7.857
			c-1.327,0.268-2.639,0.115-3.807-0.357c0.015,0.006,0.026,0.016,0.041,0.022C97.645,14.551,98.945,14.702,100.261,14.437z"/>
		<path fill="#758898" d="M100.25,14.426c3.611-0.727,5.95-4.245,5.223-7.857c-0.729-3.612-4.247-5.95-7.858-5.222
			c-3.575,0.72-5.891,4.174-5.233,7.747c0.004,0.019,0.012,0.035,0.016,0.053C91.712,5.569,94.03,2.1,97.609,1.379
			c3.601-0.725,7.106,1.605,7.833,5.206c0.725,3.601-1.606,7.107-5.206,7.832c-1.336,0.269-2.657,0.114-3.831-0.367
			c0.014,0.006,0.025,0.014,0.038,0.02C97.611,14.541,98.922,14.694,100.25,14.426z"/>
		<path fill="#768999" d="M100.236,14.417c3.6-0.725,5.931-4.231,5.206-7.832c-0.727-3.6-4.232-5.931-7.833-5.206
			c-3.579,0.721-5.896,4.19-5.213,7.768c0.006,0.022,0.017,0.043,0.021,0.065c-0.721-3.586,1.602-7.079,5.188-7.801
			c3.588-0.723,7.084,1.6,7.806,5.188c0.724,3.588-1.6,7.084-5.188,7.807c-1.365,0.275-2.716,0.104-3.906-0.405
			c0.03,0.015,0.058,0.034,0.088,0.048C97.579,14.53,98.9,14.686,100.236,14.417z"/>
		<path fill="#778A9A" d="M100.223,14.407c3.589-0.723,5.912-4.219,5.188-7.807c-0.722-3.588-4.218-5.911-7.806-5.188
			c-3.587,0.722-5.909,4.215-5.188,7.801c0.096,0.423,0.219,0.833,0.384,1.218c-0.156-0.383-0.286-0.784-0.371-1.206
			c-0.721-3.577,1.595-7.061,5.172-7.781s7.062,1.595,7.78,5.172c0.721,3.577-1.594,7.061-5.171,7.782
			c-1.76,0.354-3.493-0.032-4.89-0.935c0.313,0.21,0.65,0.382,0.995,0.54C97.507,14.511,98.858,14.682,100.223,14.407z"/>
		<path fill="#788B9B" d="M100.211,14.397c3.577-0.721,5.892-4.205,5.171-7.782c-0.719-3.577-4.203-5.893-7.78-5.172
			s-5.893,4.205-5.172,7.781c0.085,0.422,0.215,0.822,0.371,1.206c0.007,0.015,0.018,0.027,0.023,0.042
			c-0.164-0.393-0.296-0.807-0.382-1.24c-0.72-3.565,1.588-7.038,5.153-7.756c3.566-0.718,7.038,1.59,7.756,5.155
			c0.72,3.566-1.589,7.039-5.154,7.756c-1.768,0.356-3.51-0.035-4.908-0.951c0.012,0.007,0.021,0.018,0.032,0.026
			C96.718,14.365,98.452,14.751,100.211,14.397z"/>
		<path fill="#798C9C" d="M100.198,14.387c3.565-0.718,5.874-4.19,5.154-7.756c-0.718-3.564-4.189-5.873-7.756-5.155
			c-3.565,0.718-5.873,4.191-5.153,7.756c0.086,0.434,0.218,0.847,0.382,1.24c0.177,0.4,0.381,0.783,0.622,1.136
			c-0.469-0.697-0.815-1.495-0.991-2.37c-0.717-3.554,1.583-7.015,5.137-7.73c3.554-0.716,7.016,1.585,7.731,5.138
			c0.717,3.554-1.584,7.015-5.138,7.731c-2.032,0.41-4.017-0.191-5.492-1.424c0.196,0.167,0.386,0.34,0.596,0.484
			C96.688,14.352,98.43,14.743,100.198,14.387z"/>
		<path fill="#7A8D9C" d="M100.186,14.376c3.554-0.716,5.854-4.177,5.138-7.731c-0.716-3.553-4.178-5.854-7.731-5.138
			c-3.554,0.716-5.854,4.177-5.137,7.73c0.176,0.875,0.522,1.673,0.991,2.37c0.009,0.011,0.019,0.019,0.025,0.03
			c-0.478-0.701-0.827-1.508-1.005-2.393c-0.714-3.542,1.578-6.992,5.121-7.706c3.542-0.713,6.992,1.58,7.705,5.121
			c0.714,3.542-1.578,6.992-5.122,7.706c-2.212,0.446-4.389-0.282-5.885-1.754c0.126,0.125,0.273,0.224,0.407,0.34
			C96.169,14.186,98.154,14.786,100.186,14.376z"/>
		<path fill="#7B8D9D" d="M100.171,14.367c3.544-0.714,5.836-4.164,5.122-7.706c-0.713-3.542-4.163-5.834-7.705-5.121
			c-3.543,0.713-5.835,4.164-5.121,7.706c0.178,0.885,0.527,1.691,1.005,2.393c0.243,0.35,0.516,0.676,0.814,0.975
			C95.783,14.084,97.959,14.813,100.171,14.367z"/>
		<circle fill="#7B8D9D" cx="98.873" cy="7.964" r="6.52"/>
		<circle fill="#7C8E9E" cx="98.873" cy="7.964" r="6.52"/>
		<circle fill="#7C8E9E" cx="98.863" cy="7.975" r="6.499"/>
		<circle fill="#7D8F9F" cx="98.863" cy="7.975" r="6.499"/>
		<circle fill="#7D8F9F" cx="98.855" cy="7.987" r="6.478"/>
		<circle fill="#7E90A0" cx="98.855" cy="7.987" r="6.477"/>
		<circle fill="#7E90A0" cx="98.848" cy="7.997" r="6.456"/>
		<circle fill="#7F91A1" cx="98.848" cy="7.997" r="6.456"/>
		<circle fill="#7F91A1" cx="98.838" cy="8.008" r="6.434"/>
		<circle fill="#8092A2" cx="98.838" cy="8.008" r="6.434"/>
		<circle fill="#8092A2" cx="98.831" cy="8.02" r="6.413"/>
		<circle fill="#8193A3" cx="98.83" cy="8.02" r="6.413"/>
		<circle fill="#8193A3" cx="98.821" cy="8.031" r="6.392"/>
		<circle fill="#8294A4" cx="98.821" cy="8.031" r="6.392"/>
		<circle fill="#8294A4" cx="98.813" cy="8.042" r="6.37"/>
		<circle fill="#8395A5" cx="98.813" cy="8.042" r="6.37"/>
		<circle fill="#8395A5" cx="98.806" cy="8.052" r="6.349"/>
		<circle fill="#8596A6" cx="98.805" cy="8.052" r="6.349"/>
		<circle fill="#8596A6" cx="98.796" cy="8.063" r="6.327"/>
		<circle fill="#8697A6" cx="98.796" cy="8.063" r="6.327"/>
		<circle fill="#8697A6" cx="98.788" cy="8.074" r="6.306"/>
		<circle fill="#8798A7" cx="98.788" cy="8.075" r="6.305"/>
		<circle fill="#8798A7" cx="98.779" cy="8.086" r="6.284"/>
		<circle fill="#8899A8" cx="98.779" cy="8.086" r="6.284"/>
		<circle fill="#8899A8" cx="98.771" cy="8.097" r="6.263"/>
		<circle fill="#899AA9" cx="98.771" cy="8.097" r="6.263"/>
		<circle fill="#899AA9" cx="98.763" cy="8.107" r="6.241"/>
		<circle fill="#8A9BAA" cx="98.763" cy="8.107" r="6.241"/>
		<circle fill="#8A9BAA" cx="98.754" cy="8.119" r="6.22"/>
		<circle fill="#8B9CAB" cx="98.754" cy="8.119" r="6.22"/>
		<circle fill="#8B9CAB" cx="98.746" cy="8.13" r="6.198"/>
		<circle fill="#8C9DAC" cx="98.747" cy="8.13" r="6.198"/>
		<circle fill="#8C9DAC" cx="98.737" cy="8.141" r="6.177"/>
		<circle fill="#8D9EAD" cx="98.737" cy="8.141" r="6.177"/>
		<circle fill="#8D9EAD" cx="98.729" cy="8.152" r="6.155"/>
		<circle fill="#8E9FAE" cx="98.729" cy="8.152" r="6.155"/>
		<circle fill="#8E9FAE" cx="98.721" cy="8.163" r="6.134"/>
		<circle fill="#8FA0AF" cx="98.721" cy="8.163" r="6.133"/>
		<circle fill="#8FA0AF" cx="98.712" cy="8.174" r="6.112"/>
		<circle fill="#90A1B0" cx="98.712" cy="8.174" r="6.112"/>
		<circle fill="#90A1B0" cx="98.704" cy="8.185" r="6.09"/>
		<circle fill="#91A2B1" cx="98.704" cy="8.185" r="6.091"/>
		<circle fill="#91A2B1" cx="98.695" cy="8.196" r="6.069"/>
		<circle fill="#93A3B2" cx="98.695" cy="8.196" r="6.07"/>
		<circle fill="#93A3B2" cx="98.687" cy="8.208" r="6.047"/>
		<circle fill="#94A4B3" cx="98.687" cy="8.208" r="6.048"/>
		<circle fill="#94A4B3" cx="98.679" cy="8.218" r="6.026"/>
		<circle fill="#95A5B3" cx="98.679" cy="8.218" r="6.026"/>
		<circle fill="#95A5B3" cx="98.67" cy="8.229" r="6.004"/>
		<circle fill="#96A6B4" cx="98.67" cy="8.229" r="6.005"/>
		<circle fill="#96A6B4" cx="98.662" cy="8.24" r="5.983"/>
		<circle fill="#97A7B5" cx="98.662" cy="8.24" r="5.984"/>
		<circle fill="#97A7B5" cx="98.653" cy="8.252" r="5.961"/>
		<circle fill="#98A8B6" cx="98.653" cy="8.252" r="5.962"/>
		<circle fill="#98A8B6" cx="98.645" cy="8.263" r="5.94"/>
		<circle fill="#99A9B7" cx="98.645" cy="8.263" r="5.939"/>
		<circle fill="#99A9B7" cx="98.637" cy="8.273" r="5.919"/>
		<circle fill="#9BAAB8" cx="98.637" cy="8.273" r="5.918"/>
		<circle fill="#9BAAB8" cx="98.628" cy="8.284" r="5.897"/>
		<circle fill="#9CABB9" cx="98.627" cy="8.284" r="5.896"/>
		<circle fill="#9CABB9" cx="98.62" cy="8.296" r="5.876"/>
		<circle fill="#9DACBA" cx="98.62" cy="8.295" r="5.875"/>
		<circle fill="#9DACBA" cx="98.611" cy="8.307" r="5.854"/>
		<circle fill="#9EADBB" cx="98.611" cy="8.307" r="5.854"/>
		<circle fill="#9EADBB" cx="98.603" cy="8.318" r="5.833"/>
		<circle fill="#9FAEBC" cx="98.603" cy="8.318" r="5.832"/>
		<circle fill="#9FAEBC" cx="98.595" cy="8.329" r="5.811"/>
		<circle fill="#A1AFBD" cx="98.595" cy="8.329" r="5.81"/>
		<circle fill="#A1AFBD" cx="98.586" cy="8.34" r="5.789"/>
		<circle fill="#A2B0BE" cx="98.585" cy="8.34" r="5.789"/>
		<circle fill="#A2B0BE" cx="98.578" cy="8.351" r="5.768"/>
		<circle fill="#A3B1BF" cx="98.578" cy="8.351" r="5.768"/>
		<circle fill="#A3B1BF" cx="98.568" cy="8.362" r="5.746"/>
		<circle fill="#A4B2C0" cx="98.569" cy="8.362" r="5.746"/>
		<circle fill="#A4B2C0" cx="98.561" cy="8.373" r="5.725"/>
		<circle fill="#A6B4C1" cx="98.561" cy="8.373" r="5.725"/>
		<circle fill="#A6B4C1" cx="98.551" cy="8.384" r="5.703"/>
		<circle fill="#A7B5C2" cx="98.551" cy="8.384" r="5.703"/>
		<circle fill="#A7B5C2" cx="98.543" cy="8.395" r="5.682"/>
		<circle fill="#A8B6C3" cx="98.544" cy="8.395" r="5.682"/>
		<circle fill="#A8B6C3" cx="98.536" cy="8.406" r="5.66"/>
		<circle fill="#A9B7C4" cx="98.536" cy="8.406" r="5.66"/>
		<circle fill="#A9B7C4" cx="98.526" cy="8.417" r="5.639"/>
		<circle fill="#ABB8C5" cx="98.526" cy="8.417" r="5.639"/>
		<circle fill="#ABB8C5" cx="98.519" cy="8.428" r="5.617"/>
		<circle fill="#ACB9C6" cx="98.519" cy="8.428" r="5.617"/>
		<circle fill="#ACB9C6" cx="98.509" cy="8.439" r="5.596"/>
		<circle fill="#ADBAC7" cx="98.509" cy="8.439" r="5.596"/>
		<circle fill="#ADBAC7" cx="98.501" cy="8.45" r="5.574"/>
		<circle fill="#AEBBC8" cx="98.501" cy="8.45" r="5.575"/>
		<circle fill="#AEBBC8" cx="98.494" cy="8.461" r="5.553"/>
		<circle fill="#B0BCC9" cx="98.494" cy="8.461" r="5.553"/>
		<circle fill="#B0BCC9" cx="98.484" cy="8.472" r="5.532"/>
		<circle fill="#B1BECA" cx="98.484" cy="8.473" r="5.531"/>
		<circle fill="#B1BECA" cx="98.477" cy="8.484" r="5.51"/>
		<circle fill="#B2BFCB" cx="98.477" cy="8.484" r="5.51"/>
		<circle fill="#B2BFCB" cx="98.467" cy="8.494" r="5.488"/>
		<circle fill="#B4C0CC" cx="98.467" cy="8.494" r="5.489"/>
		<circle fill="#B4C0CC" cx="98.459" cy="8.505" r="5.467"/>
		<circle fill="#B5C1CD" cx="98.459" cy="8.505" r="5.467"/>
		<circle fill="#B5C1CD" cx="98.452" cy="8.517" r="5.445"/>
		<circle fill="#B6C2CE" cx="98.451" cy="8.517" r="5.446"/>
		<circle fill="#B6C2CE" cx="98.442" cy="8.528" r="5.423"/>
		<circle fill="#B8C3CF" cx="98.442" cy="8.528" r="5.424"/>
		<circle fill="#B8C3CF" cx="98.435" cy="8.539" r="5.402"/>
		<circle fill="#B9C5D0" cx="98.435" cy="8.539" r="5.403"/>
		<circle fill="#B9C5D0" cx="98.425" cy="8.55" r="5.381"/>
		<circle fill="#BAC6D1" cx="98.425" cy="8.55" r="5.381"/>
		<circle fill="#BAC6D1" cx="98.417" cy="8.561" r="5.359"/>
		<circle fill="#BCC7D2" cx="98.417" cy="8.561" r="5.359"/>
		<circle fill="#BCC7D2" cx="98.41" cy="8.572" r="5.338"/>
		<circle fill="#BDC8D3" cx="98.41" cy="8.572" r="5.339"/>
		<circle fill="#BDC8D3" cx="98.409" cy="8.572" r="5.316"/>
		<circle fill="#BDC8D3" cx="98.41" cy="8.572" r="5.317"/>
		<circle fill="#BDC8D3" cx="98.38" cy="8.61" r="5.244"/>
		<circle fill="#BFC9D4" cx="98.38" cy="8.61" r="5.243"/>
		<circle fill="#BFC9D4" cx="98.352" cy="8.647" r="5.171"/>
		<circle fill="#C0CBD5" cx="98.352" cy="8.647" r="5.171"/>
		<circle fill="#C0CBD5" cx="98.322" cy="8.686" r="5.098"/>
		<circle fill="#C2CCD6" cx="98.323" cy="8.686" r="5.098"/>
		<circle fill="#C2CCD6" cx="98.293" cy="8.724" r="5.026"/>
		<circle fill="#C3CDD7" cx="98.293" cy="8.724" r="5.026"/>
		<circle fill="#C3CDD7" cx="98.265" cy="8.762" r="4.953"/>
		<circle fill="#C5CED8" cx="98.265" cy="8.762" r="4.953"/>
		<circle fill="#C5CED8" cx="98.236" cy="8.799" r="4.88"/>
		<circle fill="#C6D0D9" cx="98.236" cy="8.799" r="4.88"/>
		<circle fill="#C6D0D9" cx="98.207" cy="8.837" r="4.808"/>
		<circle fill="#C7D1DA" cx="98.207" cy="8.837" r="4.808"/>
		<circle fill="#C7D1DA" cx="98.178" cy="8.876" r="4.735"/>
		<circle fill="#C9D2DB" cx="98.178" cy="8.876" r="4.735"/>
		<circle fill="#C9D2DB" cx="98.149" cy="8.913" r="4.662"/>
		<circle fill="#CAD3DD" cx="98.149" cy="8.913" r="4.662"/>
		<circle fill="#CAD3DD" cx="98.12" cy="8.951" r="4.59"/>
		<circle fill="#CCD5DE" cx="98.12" cy="8.951" r="4.59"/>
		<circle fill="#CCD5DE" cx="98.091" cy="8.99" r="4.516"/>
		<circle fill="#CED6DF" cx="98.091" cy="8.99" r="4.516"/>
		<circle fill="#CED6DF" cx="98.063" cy="9.027" r="4.444"/>
		<circle fill="#CFD7E0" cx="98.063" cy="9.027" r="4.444"/>
		<circle fill="#CFD7E0" cx="98.033" cy="9.065" r="4.372"/>
		<circle fill="#D1D9E1" cx="98.033" cy="9.065" r="4.372"/>
		<circle fill="#D1D9E1" cx="98.004" cy="9.103" r="4.299"/>
		<circle fill="#D2DAE2" cx="98.004" cy="9.103" r="4.299"/>
		<circle fill="#D2DAE2" cx="97.976" cy="9.141" r="4.226"/>
		<circle fill="#D4DBE3" cx="97.976" cy="9.141" r="4.226"/>
		<circle fill="#D4DBE3" cx="97.946" cy="9.179" r="4.153"/>
		<circle fill="#D5DDE4" cx="97.946" cy="9.179" r="4.153"/>
		<circle fill="#D5DDE4" cx="97.918" cy="9.217" r="4.081"/>
		<circle fill="#D7DEE5" cx="97.918" cy="9.217" r="4.081"/>
		<circle fill="#D7DEE5" cx="97.889" cy="9.255" r="4.008"/>
		<circle fill="#D9DFE6" cx="97.889" cy="9.255" r="4.008"/>
		<circle fill="#D9DFE6" cx="97.86" cy="9.292" r="3.935"/>
		<circle fill="#DAE1E7" cx="97.86" cy="9.292" r="3.935"/>
		<circle fill="#DAE1E7" cx="97.831" cy="9.331" r="3.862"/>
		<circle fill="#DCE2E8" cx="97.831" cy="9.331" r="3.862"/>
		<circle fill="#DCE2E8" cx="97.802" cy="9.369" r="3.79"/>
		<circle fill="#DDE3E9" cx="97.802" cy="9.369" r="3.79"/>
		<circle fill="#DDE3E9" cx="97.772" cy="9.406" r="3.717"/>
		<circle fill="#DFE5EB" cx="97.772" cy="9.406" r="3.717"/>
		<circle fill="#DFE5EB" cx="97.744" cy="9.444" r="3.644"/>
		<circle fill="#E1E6EC" cx="97.744" cy="9.444" r="3.644"/>
		<circle fill="#E1E6EC" cx="97.715" cy="9.483" r="3.572"/>
		<circle fill="#E2E7ED" cx="97.715" cy="9.483" r="3.572"/>
		<circle fill="#E2E7ED" cx="97.686" cy="9.52" r="3.499"/>
		<circle fill="#E4E9EE" cx="97.686" cy="9.52" r="3.499"/>
		<circle fill="#E4E9EE" cx="97.657" cy="9.558" r="3.426"/>
		<circle fill="#E6EAEF" cx="97.657" cy="9.558" r="3.426"/>
		<circle fill="#E6EAEF" cx="97.628" cy="9.596" r="3.354"/>
		<circle fill="#E7ECF0" cx="97.628" cy="9.596" r="3.354"/>
		<circle fill="#E7ECF0" cx="97.599" cy="9.634" r="3.281"/>
		<circle fill="#E9EDF1" cx="97.599" cy="9.634" r="3.281"/>
		<circle fill="#E9EDF1" cx="97.57" cy="9.672" r="3.209"/>
		<circle fill="#EBEEF2" cx="97.57" cy="9.672" r="3.209"/>
		<circle fill="#EBEEF2" cx="97.542" cy="9.71" r="3.136"/>
		<circle fill="#ECF0F3" cx="97.542" cy="9.71" r="3.136"/>
		<circle fill="#ECF0F3" cx="97.513" cy="9.748" r="3.063"/>
		<circle fill="#EEF1F4" cx="97.513" cy="9.748" r="3.063"/>
		<circle fill="#EEF1F4" cx="97.513" cy="9.748" r="2.99"/>
		<circle fill="#EEF1F4" cx="97.513" cy="9.748" r="2.99"/>
		<circle fill="#EEF1F4" cx="97.42" cy="9.868" r="2.777"/>
		<circle fill="#F0F3F5" cx="97.42" cy="9.868" r="2.777"/>
		<circle fill="#F0F3F5" cx="97.33" cy="9.988" r="2.563"/>
		<circle fill="#F2F4F7" cx="97.33" cy="9.988" r="2.563"/>
		<circle fill="#F2F4F7" cx="97.237" cy="10.108" r="2.35"/>
		<circle fill="#F4F6F8" cx="97.237" cy="10.108" r="2.35"/>
		<circle fill="#F4F6F8" cx="97.146" cy="10.228" r="2.136"/>
		<circle fill="#F5F7F9" cx="97.146" cy="10.228" r="2.136"/>
		<circle fill="#F5F7F9" cx="97.055" cy="10.348" r="1.923"/>
		<circle fill="#F7F9FA" cx="97.055" cy="10.348" r="1.923"/>
		<circle fill="#F7F9FA" cx="96.962" cy="10.468" r="1.709"/>
		<circle fill="#F9FAFC" cx="96.962" cy="10.468" r="1.709"/>
		<circle fill="#F9FAFC" cx="96.872" cy="10.588" r="1.495"/>
		<circle fill="#FBFCFD" cx="96.872" cy="10.588" r="1.495"/>
		<circle fill="#FBFCFD" cx="96.78" cy="10.708" r="1.282"/>
		<circle fill="#FDFDFE" cx="96.78" cy="10.708" r="1.282"/>
		<circle fill="#FDFDFE" cx="96.689" cy="10.828" r="1.068"/>
		<circle fill="#FFFFFF" cx="96.689" cy="10.828" r="1.068"/>
	</g>
	<path id="head-2-highlight" fill="#FFFFFF" d="M102.668,2.595c-1.766-1.153-3.723-0.968-4.608-0.613
		c0.988,0.017,2.69,0.108,4.264,1.132c1.555,1.052,2.299,2.587,2.698,3.492C105.006,5.65,104.417,3.774,102.668,2.595z"/>
</g>
<g id="figure-1">
	<g id="arm-1-base_1_">
		<path fill="#A4AA9A" d="M108.794,26.857c-5.066,10.081-15.729,24.25-36.047,25.936c0,0-21.491,1.941-18.684-12.993
			c0,0,2.301-11.019,16.637-4.226c0,0,20.477,10.286,36.368-9.829c0,0,0.665-0.944,1.473-0.384
			C108.542,25.362,109.276,25.887,108.794,26.857z"/>
		<path fill="#A8AD9E" d="M108.333,25.736c0,0,0.694,0.508,0.213,1.478c-5.072,9.83-15.524,23.873-35.842,25.558
			c0,0-21.354,1.938-18.528-12.87c0,0,2.293-10.773,16.629-3.98c0,0,20.249,10.103,35.988-9.747
			C106.792,26.176,107.525,25.176,108.333,25.736z"/>
		<path fill="#ACB1A2" d="M108.124,26.11c0,0,0.654,0.491,0.174,1.461c-5.078,9.578-15.32,23.494-35.638,25.181
			c0,0-21.217,1.935-18.373-12.746c0,0,2.285-10.528,16.62-3.735c0,0,20.021,9.919,35.609-9.664
			C106.516,26.607,107.317,25.55,108.124,26.11z"/>
		<path fill="#AFB4A6" d="M107.915,26.484c0,0,0.614,0.473,0.134,1.444c-5.084,9.326-15.116,23.117-35.432,24.802
			c0,0-21.08,1.933-18.218-12.622c0,0,2.276-10.282,16.612-3.489c0,0,19.793,9.736,35.23-9.582
			C106.24,27.037,107.108,25.924,107.915,26.484z"/>
		<path fill="#B3B8A9" d="M107.706,26.858c0,0,0.574,0.456,0.094,1.427c-5.09,9.075-14.911,22.739-35.227,24.425
			c0,0-20.943,1.93-18.063-12.499c0,0,2.268-10.037,16.604-3.244c0,0,19.565,9.553,34.851-9.5
			C105.963,27.468,106.899,26.298,107.706,26.858z"/>
		<path fill="#B7BCAE" d="M107.497,27.232c0,0,0.534,0.439,0.055,1.41c-5.096,8.824-14.707,22.361-35.023,24.048
			c0,0-20.806,1.926-17.908-12.375c0,0,2.259-9.792,16.595-2.999c0,0,19.337,9.37,34.471-9.417
			C105.686,27.898,106.691,26.671,107.497,27.232z"/>
		<path fill="#BBBFB2" d="M107.288,27.606c0,0,0.494,0.422,0.015,1.393c-5.102,8.572-14.502,21.984-34.818,23.67
			c0,0-20.668,1.923-17.752-12.252c0,0,2.251-9.547,16.586-2.754c0,0,19.109,9.187,34.091-9.334
			C105.41,28.329,106.482,27.045,107.288,27.606z"/>
		<path fill="#BEC3B6" d="M107.079,27.98c0,0,0.454,0.405-0.025,1.375c-5.107,8.32-14.298,21.606-34.612,23.292
			c0,0-20.532,1.921-17.598-12.128c0,0,2.242-9.301,16.578-2.508c0,0,18.881,9.003,33.712-9.252
			C105.133,28.759,106.273,27.419,107.079,27.98z"/>
		<path fill="#C2C7BA" d="M106.87,28.354c0,0,0.414,0.388-0.064,1.358c-5.113,8.069-14.094,21.228-34.408,22.915
			c0,0-20.395,1.917-17.442-12.004c0,0,2.234-9.056,16.569-2.263c0,0,18.653,8.82,33.333-9.17
			C104.857,29.189,106.065,27.793,106.87,28.354z"/>
		<path fill="#C6CABF" d="M106.556,30.069c-5.119,7.817-13.889,20.851-34.203,22.537c0,0-20.257,1.914-17.287-11.881
			c0,0,2.226-8.811,16.561-2.018c0,0,18.425,8.637,32.954-9.088c0,0,1.275-1.452,2.08-0.892
			C106.661,28.728,107.035,29.099,106.556,30.069z"/>
	</g>
	<g id="arm-1-blend">
		<path fill="#C6CABF" d="M106.556,30.069c-5.119,7.817-13.889,20.851-34.203,22.537c0,0-20.257,1.914-17.287-11.881
			c0,0,2.226-8.811,16.561-2.018c0,0,18.425,8.637,32.954-9.088c0,0,1.275-1.452,2.08-0.892
			C106.661,28.728,107.035,29.099,106.556,30.069z"/>
		<path fill="#CBCFC4" d="M106.147,29.451c0,0,0.326,0.435-0.198,1.415c-5.33,7.803-13.926,19.951-33.414,21.633
			c0,0-20.262,1.871-17.23-11.557c0,0,2.186-8.476,16.326-1.845c0,0,18.105,8.298,32.442-8.725
			C104.073,30.371,105.345,28.896,106.147,29.451z"/>
		<path fill="#D0D4CA" d="M105.633,30.173c0,0,0.278,0.5-0.292,1.488c-5.542,7.788-13.963,19.051-32.624,20.728
			c0,0-20.267,1.829-17.174-11.232c0,0,2.147-8.142,16.091-1.673c0,0,17.786,7.959,31.931-8.361
			C103.566,31.123,104.833,29.625,105.633,30.173z"/>
		<path fill="#D6D9D0" d="M105.12,30.896c0,0,0.23,0.563-0.387,1.561c-5.752,7.773-14,18.151-31.833,19.823
			c0,0-20.271,1.785-17.117-10.908c0,0,2.108-7.808,15.855-1.5c0,0,17.466,7.619,31.42-7.998
			C103.058,31.875,104.323,30.354,105.12,30.896z"/>
		<path fill="#DBDED5" d="M104.606,31.619c0,0,0.183,0.628-0.48,1.634c-5.963,7.759-14.037,17.251-31.043,18.919
			c0,0-20.276,1.742-17.06-10.583c0,0,2.068-7.473,15.62-1.328c0,0,17.146,7.28,30.909-7.634
			C102.551,32.626,103.811,31.082,104.606,31.619z"/>
		<path fill="#E0E2DB" d="M104.091,32.342c0,0,0.137,0.692-0.573,1.707C97.343,41.793,89.444,50.4,73.265,52.063
			c0,0-20.28,1.7-17.003-10.258c0,0,2.03-7.139,15.385-1.155c0,0,16.827,6.941,30.397-7.271
			C102.043,33.378,103.3,31.811,104.091,32.342z"/>
		<path fill="#E5E7E1" d="M103.578,33.064c0,0,0.089,0.756-0.667,1.78c-6.386,7.73-14.112,15.452-29.463,17.11
			c0,0-20.285,1.657-16.947-9.934c0,0,1.99-6.804,15.149-0.983c0,0,16.507,6.603,29.887-6.907
			C101.537,34.13,102.789,32.539,103.578,33.064z"/>
		<path fill="#EAECE7" d="M103.064,33.788c0,0,0.041,0.82-0.762,1.853c-6.596,7.715-14.148,14.552-28.673,16.206
			c0,0-20.29,1.613-16.89-9.61c0,0,1.951-6.47,14.914-0.81c0,0,16.188,6.263,29.375-6.544
			C101.029,34.881,102.278,33.268,103.064,33.788z"/>
		<path fill="#F0F1ED" d="M102.55,34.51c0,0-0.007,0.885-0.855,1.926c-6.808,7.701-14.186,13.652-27.883,15.3
			c0,0-20.294,1.571-16.833-9.285c0,0,1.912-6.136,14.679-0.638c0,0,15.868,5.924,28.865-6.181
			C100.522,35.633,101.766,33.997,102.55,34.51z"/>
		<path fill="#F5F6F4" d="M101.087,37.232c-7.019,7.686-14.223,12.752-27.093,14.396c0,0-20.299,1.528-16.776-8.96
			c0,0,1.873-5.801,14.443-0.465c0,0,15.548,5.585,28.353-5.817c0,0,1.241-1.66,2.022-1.152
			C102.037,35.233,101.982,36.182,101.087,37.232z"/>
	</g>
	<path id="arm-1-highlight" fill="#FFFFFF" d="M65.938,35.812c-2.789-0.878-5.571-0.418-6.729,0.461
		c1.378-0.447,3.843-0.556,6.528,0.272c2.672,0.732,4.945,1.908,6.405,2.081C70.848,38.031,68.771,36.599,65.938,35.812z"/>
	<g id="head-1-base">
		<path fill="#A4AA9A" d="M77.961,28.354c7.749-1.562,12.77-9.112,11.208-16.868C87.606,3.74,80.055-1.276,72.308,0.284
			c-7.333,1.478-12.215,8.323-11.39,15.62C60.34,9.068,64.961,2.736,71.848,1.35c7.411-1.494,14.629,3.304,16.123,10.715
			c1.493,7.411-3.305,14.629-10.715,16.122c-2.674,0.539-5.319,0.249-7.683-0.678C72.133,28.591,75.032,28.945,77.961,28.354z"/>
		<path fill="#A4AA9A" d="M77.256,28.186c7.41-1.493,12.208-8.71,10.715-16.122C86.477,4.653,79.259-0.144,71.848,1.35
			c-6.886,1.387-11.508,7.719-10.93,14.554c0.047,0.411,0.101,0.823,0.185,1.236c0.008,0.038,0.021,0.073,0.028,0.11
			C59.793,9.954,64.537,2.904,71.837,1.434c7.381-1.487,14.568,3.291,16.056,10.671c1.486,7.38-3.291,14.568-10.671,16.055
			c-2.737,0.552-5.446,0.238-7.851-0.747c0.069,0.03,0.134,0.066,0.202,0.095C71.937,28.435,74.582,28.725,77.256,28.186z"/>
		<path fill="#A5AB9B" d="M77.222,28.16c7.381-1.487,12.158-8.675,10.671-16.055c-1.487-7.38-8.675-12.158-16.056-10.671
			c-7.301,1.47-12.044,8.521-10.707,15.816c0.096,0.455,0.207,0.901,0.343,1.335c-0.102-0.354-0.201-0.71-0.275-1.079
			c-1.48-7.35,3.277-14.508,10.627-15.989c7.351-1.48,14.509,3.277,15.99,10.627s-3.277,14.508-10.626,15.989
			c-3.149,0.634-6.257,0.117-8.904-1.251c0.354,0.193,0.717,0.366,1.086,0.53C71.775,28.397,74.485,28.711,77.222,28.16z"/>
		<path fill="#A6AC9C" d="M77.189,28.134c7.349-1.481,12.107-8.639,10.626-15.989S79.176,0.037,71.826,1.517
			c-7.35,1.481-12.107,8.64-10.627,15.989c0.074,0.369,0.173,0.725,0.275,1.079c0.027,0.088,0.064,0.169,0.093,0.255
			c-0.132-0.429-0.244-0.867-0.335-1.316c-1.474-7.319,3.264-14.448,10.583-15.923c7.319-1.475,14.449,3.264,15.923,10.583
			c1.475,7.319-3.264,14.448-10.583,15.923c-3.575,0.72-7.099-0.049-9.946-1.87c0.348,0.232,0.709,0.444,1.077,0.645
			C70.932,28.251,74.04,28.768,77.189,28.134z"/>
		<path fill="#A7AD9D" d="M77.155,28.108c7.319-1.475,12.058-8.604,10.583-15.923c-1.474-7.32-8.604-12.058-15.923-10.583
			c-7.32,1.475-12.058,8.604-10.583,15.923c0.091,0.449,0.203,0.887,0.335,1.316c0.146,0.44,0.311,0.871,0.497,1.289
			c-0.345-0.818-0.615-1.683-0.797-2.587c-1.468-7.289,3.25-14.389,10.539-15.857c7.289-1.468,14.388,3.25,15.857,10.54
			c1.468,7.289-3.25,14.388-10.539,15.856c-3.634,0.732-7.221-0.075-10.086-1.97c0.059,0.04,0.113,0.087,0.172,0.126
			C70.056,28.059,73.58,28.829,77.155,28.108z"/>
		<path fill="#A8AE9E" d="M77.123,28.082c7.289-1.468,12.006-8.568,10.539-15.856c-1.469-7.29-8.568-12.008-15.857-10.54
			c-7.289,1.468-12.007,8.568-10.539,15.857c0.182,0.904,0.452,1.769,0.797,2.587c0.357,0.805,0.777,1.571,1.265,2.282
			c-0.963-1.426-1.668-3.059-2.029-4.851c-1.462-7.258,3.236-14.328,10.495-15.79c7.258-1.462,14.328,3.236,15.79,10.495
			c1.462,7.258-3.237,14.328-10.495,15.79c-4.511,0.909-8.949-0.565-12.013-3.553c0.604,0.596,1.264,1.129,1.961,1.609
			C69.902,28.007,73.489,28.814,77.123,28.082z"/>
		<path fill="#A9AF9F" d="M77.089,28.056c7.258-1.462,11.958-8.532,10.495-15.79c-1.462-7.259-8.532-11.957-15.79-10.495
			c-7.259,1.462-11.957,8.532-10.495,15.79c0.361,1.792,1.066,3.425,2.029,4.851c0.518,0.755,1.104,1.455,1.748,2.091
			C68.14,27.49,72.578,28.964,77.089,28.056z"/>
		<circle fill="#A9AF9F" cx="74.419" cy="14.942" r="13.35"/>
		<circle fill="#AAB0A0" cx="74.419" cy="14.942" r="13.35"/>
		<circle fill="#AAB0A0" cx="74.396" cy="14.971" r="13.294"/>
		<circle fill="#ABB1A1" cx="74.396" cy="14.971" r="13.294"/>
		<circle fill="#ABB1A1" cx="74.374" cy="15" r="13.238"/>
		<circle fill="#ACB2A3" cx="74.374" cy="15" r="13.238"/>
		<circle fill="#ACB2A3" cx="74.352" cy="15.029" r="13.181"/>
		<circle fill="#ADB3A4" cx="74.352" cy="15.029" r="13.182"/>
		<circle fill="#ADB3A4" cx="74.331" cy="15.058" r="13.125"/>
		<circle fill="#AEB4A5" cx="74.331" cy="15.058" r="13.125"/>
		<circle fill="#AEB4A5" cx="74.309" cy="15.087" r="13.069"/>
		<circle fill="#AFB5A6" cx="74.308" cy="15.087" r="13.069"/>
		<circle fill="#AFB5A6" cx="74.286" cy="15.116" r="13.012"/>
		<circle fill="#B0B6A7" cx="74.286" cy="15.116" r="13.012"/>
		<circle fill="#B0B6A7" cx="74.264" cy="15.145" r="12.956"/>
		<circle fill="#B1B7A8" cx="74.264" cy="15.145" r="12.956"/>
		<circle fill="#B1B7A8" cx="74.241" cy="15.175" r="12.9"/>
		<circle fill="#B2B8A9" cx="74.241" cy="15.175" r="12.9"/>
		<circle fill="#B2B8A9" cx="74.219" cy="15.204" r="12.843"/>
		<circle fill="#B4B9AA" cx="74.219" cy="15.204" r="12.843"/>
		<circle fill="#B4B9AA" cx="74.198" cy="15.232" r="12.787"/>
		<circle fill="#B5B9AB" cx="74.198" cy="15.233" r="12.787"/>
		<circle fill="#B5B9AB" cx="74.176" cy="15.261" r="12.731"/>
		<circle fill="#B6BAAC" cx="74.176" cy="15.262" r="12.731"/>
		<circle fill="#B6BAAC" cx="74.153" cy="15.291" r="12.675"/>
		<circle fill="#B7BBAD" cx="74.153" cy="15.291" r="12.675"/>
		<circle fill="#B7BBAD" cx="74.131" cy="15.32" r="12.618"/>
		<circle fill="#B8BCAF" cx="74.131" cy="15.32" r="12.618"/>
		<circle fill="#B8BCAF" cx="74.108" cy="15.349" r="12.562"/>
		<circle fill="#B9BDB0" cx="74.108" cy="15.349" r="12.562"/>
		<circle fill="#B9BDB0" cx="74.086" cy="15.378" r="12.506"/>
		<circle fill="#BABEB1" cx="74.086" cy="15.378" r="12.506"/>
		<circle fill="#BABEB1" cx="74.064" cy="15.407" r="12.45"/>
		<circle fill="#BBBFB2" cx="74.063" cy="15.407" r="12.449"/>
		<circle fill="#BBBFB2" cx="74.043" cy="15.436" r="12.393"/>
		<circle fill="#BCC0B3" cx="74.042" cy="15.436" r="12.393"/>
		<circle fill="#BCC0B3" cx="74.021" cy="15.465" r="12.337"/>
		<circle fill="#BDC1B4" cx="74.02" cy="15.465" r="12.337"/>
		<circle fill="#BDC1B4" cx="73.998" cy="15.494" r="12.28"/>
		<circle fill="#BEC2B5" cx="73.998" cy="15.494" r="12.28"/>
		<circle fill="#BEC2B5" cx="73.976" cy="15.523" r="12.224"/>
		<circle fill="#BFC4B7" cx="73.976" cy="15.523" r="12.225"/>
		<circle fill="#BFC4B7" cx="73.954" cy="15.552" r="12.168"/>
		<circle fill="#C0C5B8" cx="73.954" cy="15.552" r="12.168"/>
		<circle fill="#C0C5B8" cx="73.931" cy="15.581" r="12.112"/>
		<circle fill="#C1C6B9" cx="73.931" cy="15.581" r="12.112"/>
		<circle fill="#C1C6B9" cx="73.91" cy="15.61" r="12.055"/>
		<circle fill="#C2C7BA" cx="73.91" cy="15.61" r="12.056"/>
		<circle fill="#C2C7BA" cx="73.888" cy="15.64" r="11.999"/>
		<circle fill="#C3C8BB" cx="73.888" cy="15.64" r="11.999"/>
		<circle fill="#C3C8BB" cx="73.865" cy="15.669" r="11.943"/>
		<circle fill="#C4C9BD" cx="73.866" cy="15.668" r="11.943"/>
		<circle fill="#C4C9BD" cx="73.843" cy="15.698" r="11.886"/>
		<circle fill="#C5CABE" cx="73.843" cy="15.698" r="11.886"/>
		<circle fill="#C5CABE" cx="73.82" cy="15.727" r="11.83"/>
		<circle fill="#C7CBBF" cx="73.821" cy="15.727" r="11.83"/>
		<circle fill="#C7CBBF" cx="73.798" cy="15.755" r="11.774"/>
		<circle fill="#C8CCC0" cx="73.798" cy="15.755" r="11.774"/>
		<circle fill="#C8CCC0" cx="73.776" cy="15.784" r="11.718"/>
		<circle fill="#C9CDC1" cx="73.776" cy="15.784" r="11.718"/>
		<circle fill="#C9CDC1" cx="73.755" cy="15.814" r="11.661"/>
		<circle fill="#CACEC3" cx="73.755" cy="15.814" r="11.661"/>
		<circle fill="#CACEC3" cx="73.733" cy="15.843" r="11.605"/>
		<circle fill="#CBCFC4" cx="73.732" cy="15.843" r="11.605"/>
		<circle fill="#CBCFC4" cx="73.71" cy="15.872" r="11.548"/>
		<circle fill="#CCD0C5" cx="73.71" cy="15.872" r="11.548"/>
		<circle fill="#CCD0C5" cx="73.688" cy="15.901" r="11.492"/>
		<circle fill="#CDD1C6" cx="73.688" cy="15.901" r="11.492"/>
		<circle fill="#CDD1C6" cx="73.665" cy="15.929" r="11.436"/>
		<circle fill="#CED2C8" cx="73.665" cy="15.93" r="11.436"/>
		<circle fill="#CED2C8" cx="73.643" cy="15.959" r="11.38"/>
		<circle fill="#CFD3C9" cx="73.643" cy="15.959" r="11.379"/>
		<circle fill="#CFD3C9" cx="73.622" cy="15.988" r="11.323"/>
		<circle fill="#D1D4CA" cx="73.622" cy="15.988" r="11.323"/>
		<circle fill="#D1D4CA" cx="73.6" cy="16.017" r="11.267"/>
		<circle fill="#D2D5CB" cx="73.6" cy="16.017" r="11.267"/>
		<circle fill="#D2D5CB" cx="73.577" cy="16.046" r="11.21"/>
		<circle fill="#D3D6CD" cx="73.577" cy="16.046" r="11.211"/>
		<circle fill="#D3D6CD" cx="73.555" cy="16.075" r="11.154"/>
		<circle fill="#D4D7CE" cx="73.555" cy="16.075" r="11.154"/>
		<circle fill="#D4D7CE" cx="73.533" cy="16.104" r="11.098"/>
		<circle fill="#D5D8CF" cx="73.532" cy="16.104" r="11.098"/>
		<circle fill="#D5D8CF" cx="73.51" cy="16.134" r="11.041"/>
		<circle fill="#D6D9D0" cx="73.51" cy="16.134" r="11.042"/>
		<circle fill="#D6D9D0" cx="73.49" cy="16.162" r="10.985"/>
		<circle fill="#D7DAD2" cx="73.489" cy="16.163" r="10.985"/>
		<circle fill="#D7DAD2" cx="73.467" cy="16.191" r="10.929"/>
		<circle fill="#D8DCD3" cx="73.467" cy="16.191" r="10.929"/>
		<circle fill="#D8DCD3" cx="73.467" cy="16.191" r="10.873"/>
		<circle fill="#D8DCD3" cx="73.466" cy="16.191" r="10.873"/>
		<circle fill="#D8DCD3" cx="73.39" cy="16.292" r="10.683"/>
		<circle fill="#DADDD4" cx="73.39" cy="16.292" r="10.683"/>
		<circle fill="#DADDD4" cx="73.313" cy="16.392" r="10.492"/>
		<circle fill="#DBDED6" cx="73.313" cy="16.392" r="10.492"/>
		<circle fill="#DBDED6" cx="73.237" cy="16.492" r="10.302"/>
		<circle fill="#DCDFD7" cx="73.237" cy="16.492" r="10.302"/>
		<circle fill="#DCDFD7" cx="73.16" cy="16.592" r="10.112"/>
		<circle fill="#DDE0D8" cx="73.16" cy="16.592" r="10.112"/>
		<circle fill="#DDE0D8" cx="73.084" cy="16.693" r="9.921"/>
		<circle fill="#DEE1DA" cx="73.084" cy="16.693" r="9.921"/>
		<circle fill="#DEE1DA" cx="73.007" cy="16.793" r="9.731"/>
		<circle fill="#E0E2DB" cx="73.007" cy="16.793" r="9.731"/>
		<circle fill="#E0E2DB" cx="72.932" cy="16.893" r="9.541"/>
		<circle fill="#E1E3DC" cx="72.932" cy="16.893" r="9.541"/>
		<circle fill="#E1E3DC" cx="72.855" cy="16.993" r="9.35"/>
		<circle fill="#E2E4DE" cx="72.855" cy="16.993" r="9.35"/>
		<circle fill="#E2E4DE" cx="72.779" cy="17.094" r="9.161"/>
		<circle fill="#E3E6DF" cx="72.779" cy="17.094" r="9.161"/>
		<circle fill="#E3E6DF" cx="72.703" cy="17.194" r="8.97"/>
		<circle fill="#E4E7E0" cx="72.703" cy="17.194" r="8.97"/>
		<circle fill="#E4E7E0" cx="72.626" cy="17.294" r="8.78"/>
		<circle fill="#E6E8E2" cx="72.626" cy="17.294" r="8.78"/>
		<circle fill="#E6E8E2" cx="72.549" cy="17.394" r="8.59"/>
		<circle fill="#E7E9E3" cx="72.549" cy="17.394" r="8.59"/>
		<circle fill="#E7E9E3" cx="72.472" cy="17.494" r="8.399"/>
		<circle fill="#E8EAE4" cx="72.472" cy="17.494" r="8.399"/>
		<circle fill="#E8EAE4" cx="72.397" cy="17.595" r="8.209"/>
		<circle fill="#E9EBE6" cx="72.397" cy="17.595" r="8.209"/>
		<circle fill="#E9EBE6" cx="72.32" cy="17.695" r="8.019"/>
		<circle fill="#EBECE7" cx="72.32" cy="17.695" r="8.019"/>
		<circle fill="#EBECE7" cx="72.244" cy="17.795" r="7.828"/>
		<circle fill="#ECEDE9" cx="72.244" cy="17.795" r="7.828"/>
		<circle fill="#ECEDE9" cx="72.167" cy="17.895" r="7.638"/>
		<circle fill="#EDEEEA" cx="72.167" cy="17.895" r="7.638"/>
		<circle fill="#EDEEEA" cx="72.091" cy="17.995" r="7.448"/>
		<circle fill="#EEF0EB" cx="72.091" cy="17.995" r="7.448"/>
		<circle fill="#EEF0EB" cx="72.015" cy="18.096" r="7.258"/>
		<circle fill="#EFF1ED" cx="72.015" cy="18.096" r="7.258"/>
		<circle fill="#EFF1ED" cx="71.938" cy="18.196" r="7.068"/>
		<circle fill="#F1F2EE" cx="71.938" cy="18.196" r="7.068"/>
		<circle fill="#F1F2EE" cx="71.861" cy="18.296" r="6.877"/>
		<circle fill="#F2F3F0" cx="71.861" cy="18.296" r="6.877"/>
		<circle fill="#F2F3F0" cx="71.785" cy="18.396" r="6.687"/>
		<circle fill="#F3F4F1" cx="71.785" cy="18.396" r="6.687"/>
		<circle fill="#F3F4F1" cx="71.709" cy="18.497" r="6.497"/>
		<circle fill="#F4F5F3" cx="71.709" cy="18.497" r="6.497"/>
		<circle fill="#F4F5F3" cx="71.632" cy="18.597" r="6.306"/>
		<circle fill="#F5F6F4" cx="71.632" cy="18.597" r="6.306"/>
		<circle fill="#F5F6F4" cx="71.632" cy="18.597" r="6.116"/>
		<circle fill="#F5F6F4" cx="71.632" cy="18.597" r="6.116"/>
		<circle fill="#F5F6F4" cx="71.391" cy="18.913" r="5.57"/>
		<circle fill="#F7F8F6" cx="71.391" cy="18.913" r="5.57"/>
		<circle fill="#F7F8F6" cx="71.151" cy="19.228" r="5.024"/>
		<circle fill="#F8F9F7" cx="71.151" cy="19.228" r="5.024"/>
		<circle fill="#F8F9F7" cx="70.911" cy="19.544" r="4.478"/>
		<circle fill="#FAFAF9" cx="70.911" cy="19.544" r="4.478"/>
		<circle fill="#FAFAF9" cx="70.67" cy="19.859" r="3.931"/>
		<circle fill="#FBFBFA" cx="70.67" cy="19.859" r="3.931"/>
		<circle fill="#FBFBFA" cx="70.429" cy="20.175" r="3.386"/>
		<circle fill="#FCFDFC" cx="70.429" cy="20.175" r="3.386"/>
		<circle fill="#FCFDFC" cx="70.189" cy="20.49" r="2.84"/>
		<circle fill="#FEFEFD" cx="70.189" cy="20.49" r="2.84"/>
		<circle fill="#FEFEFD" cx="69.948" cy="20.806" r="2.293"/>
		<circle fill="#FFFFFF" cx="69.948" cy="20.806" r="2.293"/>
	</g>
	<path id="head-1-highlight" fill="#FFFFFF" d="M82.169,3.683c-3.601-2.407-7.654-2.102-9.499-1.36
		c2.018-0.099,5.632,0.075,8.901,2.258c3.283,2.165,4.845,5.429,5.532,7.328C87.078,9.923,85.786,6.066,82.169,3.683z"/>
</g>
</svg>
