<svg xmlns="http://www.w3.org/2000/svg" viewBox="0 0 690.943 212.598"><path fill="#22284B" d="M0 0h690.943v212.598H0z"/><g fill="#FFF"><path d="M281.51 132.575c0 19.704-15.21 34.01-34.21 34.01-19.37 0-34.216-14.467-34.216-33.306 0-19.718 15.205-34.024 34.216-34.024 19.368 0 34.21 14.485 34.21 33.32zm-10.872.355c0-17.916-8.685-30.417-23.34-30.417-15.93 0-23.357 15.012-23.357 30.417 0 17.906 8.693 30.396 23.36 30.396 15.925 0 23.338-15.008 23.338-30.396zM490.392 132.575c0 19.704-15.208 34.01-34.21 34.01-19.374 0-34.214-14.467-34.214-33.306 0-19.718 15.206-34.024 34.214-34.024 19.366 0 34.21 14.485 34.21 33.32zm-10.86.355c0-17.916-8.695-30.417-23.35-30.417-15.93 0-23.35 15.012-23.35 30.417 0 17.906 8.69 30.396 23.35 30.396 15.924 0 23.35-15.008 23.35-30.396zM516.815 133.28h8.147c12.312 0 15.03-7.77 15.03-15.203 0-5.61-2.538-10.86-8.33-13.39-3.076-1.27-5.976-1.27-9.957-1.27h-4.89v29.862zm15.03 10.49c-3.807-5.428-5.257-7.408-9.958-7.408h-5.072v22.084c0 1.81.727 2.7 2.722 3.07l7.418 1.628v2.365H497.81v-2.366l6.7-1.628c1.986-.533 2.713-1.26 2.713-3.07V107.4c0-1.814-.727-2.534-2.712-3.073l-6.7-1.63v-2.362h28.418c5.98 0 10.14.55 13.578 1.808 7.06 2.724 11.04 9.433 11.04 15.75 0 7.977-5.972 14.683-15.93 17.008v.364c1.995.924 3.08 2.183 10.14 11.428l8.868 11.755c1.266 1.81 2.897 2.886 4.89 3.258l6.516 1.44v2.365h-15.565c-1.81 0-2.716-.554-4.345-2.733l-13.576-19.006zM404.23 122.602h2.72v21.726h-2.72l-1.63-6.513c-.547-2.364-1.99-3.262-4.162-3.262h-15.75v23.893c0 1.81.724 2.7 2.716 3.07l7.42 1.628v2.365h-29.138v-2.366l6.697-1.628c1.99-.533 2.716-1.26 2.716-3.07V107.4c0-1.814-.726-2.534-2.717-3.073l-6.697-1.63v-2.362h49.232v16.31h-2.715l-3.076-9.79c-.724-2.527-1.81-3.438-3.984-3.438h-20.456v28.054h15.75c2.172 0 3.438-.893 4.163-3.26l1.63-5.608zM570.574 165.51v-2.366l6.7-1.628c1.992-.533 2.713-1.26 2.713-3.07V107.4c0-1.814-.72-2.534-2.714-3.073l-6.7-1.63v-2.362h30.596c8.324 0 14.3 1.088 19.188 3.26 12.308 5.616 17.92 17.74 17.92 29.684 0 11.6-4.347 22.446-15.386 28.236-5.065 2.73-12.13 3.993-21.357 3.993h-30.96zm19.01-62.094v56.104c0 2.365.54 2.92 2.896 2.92h7.963c7.604 0 13.214-1.108 17.195-3.994 6.697-4.882 9.776-13.752 9.776-24.98 0-11.04-3.08-21.89-12.126-27.146-3.8-2.18-8.69-2.904-16.296-2.904h-9.408zM307.032 163.144v2.365h-22.988v-2.366l5.785-1.44c2.182-.557 3.62-1.263 5.067-2.89l19.916-24.98-19.916-26.434c-1.263-1.814-2.886-2.712-4.885-3.26l-5.433-1.444v-2.36h28.6v2.36l-6.148 1.262c-2.177.37-1.633 1.268-.55 2.72l14.662 20.996h.362l15.025-20.995c1.088-1.455 1.454-1.993-.54-2.54l-5.793-1.444v-2.36h22.99v2.36l-5.796 1.445c-2.165.547-3.615 1.264-5.067 2.894L323.5 130.76l20.994 27.686c1.274 1.81 2.897 2.7 4.89 3.258l5.434 1.44v2.365h-28.602v-2.366l6.152-1.26c2.175-.368 1.812-1.074.725-2.55l-15.93-22.442h-.36l-16.11 22.29c-1.087 1.443-1.45 1.965.542 2.52l5.797 1.442zM238.463 69.667c-1.8 1.8-4.5 3-8.268 3-3.284 0-6.328-1.033-8.39-3.094-2.812-2.81-2.68-6.397-2.68-10.23V41.216h3.696V60.69c0 2.463-.075 4.863 1.83 6.767 1.317 1.318 3.348 2.03 5.687 2.03 2.284 0 4.12-.787 5.26-1.932 2.118-2.117 1.983-4.425 1.983-10.002V41.217h3.642v15.376c0 5.844.238 10.078-2.76 13.074zM271.267 72.087l-14.87-25.306.09 25.307h-3.395V41.215h3.788l14.926 25.446-.094-25.445h3.398v30.872h-3.843zM287.98 72.084V41.217h3.715v30.868h-3.715zM314.79 72.084h-4.252l-10.644-30.868h3.872l9.003 27.252 9.27-27.252h3.596L314.79 72.084zM334.037 72.084V41.217h16.785v3.078h-13.145v10.188h12.34v3h-12.34v11.43h13.51v3.17h-17.15zM374.657 45.863c-1.77-1.77-4.065-1.69-6.582-1.69h-3.42v11.528h1.23c3.113 0 6.47.163 8.59-1.955 1.02-1.022 1.595-2.458 1.595-4.024 0-1.734-.686-3.128-1.413-3.857zm3.37 26.22l-3.545-8c-2.197-4.92-3.2-5.426-7.676-5.426h-2.15v13.427h-3.642V41.217h6.66c4.12 0 7.227-.028 9.655 2.4 1.543 1.545 2.406 3.6 2.406 6.174 0 2.147-.624 3.93-1.915 5.306-1.11 1.183-2.95 2.22-4.95 2.436 1.087.062 1.985.647 2.566 1.232.84.84 1.453 2.112 2.357 4.13l4.1 9.19h-3.866zM417.953 72.084V41.217h3.715v30.868h-3.715zM442.858 44.294v27.79h-3.71v-27.79h-9.178v-3.078h22.037v3.078h-9.15zM469.774 59.885v12.2h-3.668v-12.2l-9.798-18.668h4.245l7.605 14.476 7.39-14.478h4.025l-9.8 18.67zM514.2 43.787c-6.048 0-9.976 5.108-9.976 12.807 0 7.67 4.373 12.894 10.175 12.894 6.45 0 10.04-5.49 10.04-13.137 0-7.53-4.238-12.563-10.24-12.563zm.01 28.88c-7.986 0-13.83-6.598-13.83-15.877 0-9.533 5.78-16.158 14.117-16.158 8.08 0 13.787 6.554 13.787 15.874 0 9.557-5.717 16.162-14.073 16.162zM542.12 44.294v10.188h11.934v3H542.12v14.602h-3.687V41.217h16.394v3.078H542.12zM389.376 48.748c0-4.743 3.816-8.12 9.393-8.12 5.645 0 8.352 2.914 8.63 3.215l-1.814 2.193c-.69-.533-3.162-2.348-6.574-2.348-3.938 0-6.118 2.058-6.118 4.852 0 1.353.555 2.325 1.444 3.125 1.06.95 2.604 1.652 4.267 2.417 2.07.952 4.907 2.02 6.81 3.994 1.314 1.362 2.308 3.136 2.308 5.57 0 5.133-3.563 9.043-9.97 9.043-5.46 0-8.906-3.008-9.23-3.31l1.7-2.504c.877.65 4.305 2.678 7.44 2.678 4.645 0 6.382-2.543 6.382-5.61 0-1.425-.646-2.57-1.61-3.494-1.44-1.387-3.618-2.316-5.707-3.27-2.074-.948-4.072-1.94-5.487-3.426-.933-.98-1.864-2.58-1.864-5.006z"/></g><path fill="#FFF" d="M105.67 83.07c0-2.728-.924-4.93-2.924-6.105-1.252-.736-2.947-.976-5.04-.976l-15.216-.003v30.723h16.56c3.82 0 6.063.86 6.258 4.283h.363V83.07zM107.795 83.07c0-2.728.926-4.93 2.924-6.105 1.254-.736 2.95-.976 5.042-.976l15.322-.003v30.723h-16.667c-3.817 0-6.062.86-6.258 4.283h-.367l.002-27.922z"/><path fill="#FFF" d="M134.29 78.26v32.477h-23.55l-.27.663c-.408 1.014-1.143 1.95-3.71 1.95s-3.298-.937-3.71-1.95l-.27-.663H79.293V78.26H77.17v.988l-2.04-.625c-.235-.802-.97-1.392-1.846-1.392-1.066 0-1.935.868-1.935 1.936 0 1.07.868 1.935 1.934 1.935.467 0 .89-.17 1.223-.447l2.662.817v2.61l-2-.357c-.296-.69-.982-1.175-1.78-1.175-1.066 0-1.934.866-1.934 1.935 0 1.07.868 1.934 1.934 1.934.552 0 1.047-.234 1.4-.604l2.38.426v2.66l-2.09-.09c-.338-.564-.95-.946-1.654-.946-1.066 0-1.935.867-1.935 1.935s.87 1.935 1.936 1.935c.645 0 1.21-.318 1.563-.803l2.18.096v2.893l-2.137.077c-.352-.49-.923-.814-1.572-.814-1.065 0-1.934.867-1.934 1.935s.868 1.935 1.935 1.935c.7 0 1.308-.376 1.648-.932l2.06-.073v2.666l-2.335.4c-.353-.374-.85-.613-1.407-.613-1.066 0-1.935.866-1.935 1.935 0 1.068.87 1.934 1.936 1.934.793 0 1.474-.48 1.772-1.163l1.97-.34v2.618l-2.554.78c-.334-.275-.757-.448-1.225-.448-1.067 0-1.935.867-1.935 1.935 0 1.07.868 1.934 1.934 1.934.877 0 1.61-.588 1.847-1.39l1.93-.59v2.53l-2.82 1.22c-.307-.202-.67-.32-1.064-.32-1.066 0-1.935.865-1.935 1.935 0 1.068.87 1.936 1.935 1.936.952 0 1.74-.69 1.9-1.598l1.985-.855v2.312h24.302c.99 1.723 2.697 2.614 5.288 2.614 2.593 0 4.302-.893 5.288-2.615h24.366V78.26h-2.123z"/><g fill="#FFF"><ellipse cx="90.77" cy="69.134" rx="8.893" ry="1.706"/><path d="M103.014 56.773L97.88 60.38l-.043.367 1.22.548c.244.12.244.315.12.432l-3.225 2.722-.305-.027-2.284-3.368c-.16-.218-.1-.436.174-.482l1.532-.25v-.387l-3.977-5.617h-.653l-3.976 5.616v.387l1.535.25c.273.046.33.264.173.482l-2.287 3.368-.303.026-3.013-2.723c-.122-.117-.122-.312.12-.432l1.22-.548-.044-.366-5.347-3.607-.435.17 3.138 9.593c1.595-.716 5.256-1.22 9.54-1.24 4.29.02 7.95.524 9.543 1.24l3.14-9.593-.432-.17z"/></g><g fill="#FFF"><ellipse cx="106.72" cy="133.466" rx="8.895" ry="1.706"/><path d="M118.965 121.105l-5.133 3.61-.044.365 1.22.548c.242.12.243.313.122.43l-3.226 2.724-.308-.027-2.284-3.366c-.157-.22-.1-.438.176-.484l1.534-.25v-.386l-3.977-5.618h-.652l-3.976 5.618v.387l1.534.25c.275.046.332.263.175.482l-2.287 3.365-.306.027-3.01-2.723c-.124-.118-.122-.312.12-.432l1.22-.548-.044-.366-5.348-3.61-.434.17 3.142 9.596c1.594-.718 5.253-1.222 9.54-1.24 4.287.02 7.947.522 9.54 1.24l3.14-9.595-.433-.17z"/></g><g fill="#FFF"><path d="M122.636 67.428c-4.916 0-8.897.764-8.897 1.706 0 .943 3.98 1.706 8.896 1.706 4.91 0 8.89-.762 8.89-1.706-.002-.942-3.982-1.706-8.89-1.706zM134.877 56.773l-5.133 3.608-.045.367 1.22.548c.24.12.242.315.12.432l-3.225 2.722-.305-.027-2.285-3.368c-.158-.218-.1-.436.174-.482l1.53-.25v-.387l-3.975-5.617h-.652l-3.976 5.616v.387l1.534.25c.276.046.334.264.177.482l-2.284 3.368-.31.026-3.01-2.76c-.122-.115-.12-.31.12-.43l1.22-.513-.043-.366-5.35-3.607-.432.17 3.14 9.593c1.59-.716 5.253-1.22 9.54-1.24 4.29.02 7.946.524 9.54 1.24l3.142-9.593-.433-.17z"/></g><g fill="#22284B"><path d="M86.42 80.86c.833 0 1.525.165 1.978.604.318.305.582.806.582 1.39 0 1.686-1.28 2.41-2.845 2.41H84.39V85c.493-.04.548-.09.548-.82v-2.235c0-.73-.056-.78-.497-.82v-.264h1.98zm-.332 3.327c0 .602.15.718.475.718.583 0 1.172-.643 1.172-1.843 0-1.456-.738-1.862-1.314-1.862-.156 0-.244.02-.29.048-.036.012-.042.17-.042.337v2.602zM94.114 83.008c0 1.45-.99 2.357-2.288 2.357-1.368 0-2.256-.996-2.256-2.242 0-1.097.73-2.364 2.35-2.364 1.237 0 2.194.907 2.194 2.248zm-3.286-.115c0 1.227.46 2.12 1.125 2.12.584 0 .9-.56.9-1.788 0-1.36-.487-2.112-1.07-2.112-.52 0-.955.595-.955 1.78zM100.095 80.86v.266c-.517.048-.543.074-.52.786l.065 2.268c.022.75.037.772.523.82v.264h-2.118V85c.507-.048.526-.068.52-.82l-.02-2.384h-.028L97.21 85.19h-.365l-1.24-3.157h-.016l-.048 1.503c-.02.583-.012.907.015 1.116.026.25.176.313.615.347v.263H94.5V85c.325-.028.453-.095.494-.347.035-.21.075-.568.108-1.185l.073-1.367c.05-.852-.006-.926-.54-.974v-.265h1.592l1.185 2.683 1.036-2.682h1.647zM102.295 84.18c0 .73.053.78.52.82v.264h-2.194V85c.468-.04.524-.09.524-.82v-2.235c0-.73-.056-.78-.523-.82v-.264h2.195v.266c-.467.04-.52.088-.52.82v2.234z"/></g><g fill="#22284B"><path d="M91.388 93.438h-.582L88.3 90.24h-.015v1.247c0 .71.028 1.083.054 1.293.033.238.216.325.663.347v.264h-1.685v-.263c.296-.015.472-.108.507-.347.026-.21.053-.582.053-1.293V90.24c0-.5-.013-.59-.15-.778-.1-.142-.267-.188-.512-.21v-.264h1.497l2.253 2.81h.016v-.906c0-.712-.028-1.084-.056-1.293-.032-.238-.218-.326-.664-.347v-.265h1.726v.265c-.337.014-.513.11-.548.346-.026.208-.053.58-.053 1.292v2.546zM94.13 93.438c-.468-1.22-1.105-2.892-1.348-3.53-.223-.58-.357-.616-.683-.656v-.265h2.185v.265l-.23.027c-.25.026-.25.087-.175.325.12.378.656 1.713.907 2.376.21-.575.645-1.868.75-2.187.143-.414.102-.488-.2-.52l-.206-.022v-.264h1.643v.265c-.388.048-.482.083-.75.7-.04.093-.866 2.105-1.373 3.487h-.52zM97.186 91.995c.14.394.54 1.145 1.207 1.145.352 0 .62-.23.62-.67 0-.4-.263-.624-.676-.814l-.103-.048c-.554-.257-1.184-.608-1.184-1.333 0-.765.554-1.39 1.617-1.39.21 0 .426.028.624.083.155.04.265.066.353.095.026.264.073.595.15 1.055l-.3.048c-.15-.447-.385-.927-.92-.927-.347 0-.59.263-.59.588 0 .338.265.535.697.73l.148.07c.627.283 1.16.63 1.16 1.42 0 .833-.67 1.442-1.72 1.442-.27 0-.55-.054-.73-.115-.203-.068-.347-.122-.426-.163-.056-.31-.144-.677-.224-1.13l.298-.087z"/></g><g fill="#22284B"><path d="M88.376 100.434c0 .73.053.778.52.82v.263h-2.193v-.264c.466-.042.52-.088.52-.82V98.2c0-.732-.055-.78-.52-.82v-.265h2.194v.265c-.47.04-.52.088-.52.82v2.234zM91.057 100.52c0 .353.013.522.135.583.11.054.265.06.475.06.217 0 .51-.018.65-.196.11-.127.223-.31.333-.67l.292.05c-.04.256-.183.96-.245 1.17H89.34v-.264c.513-.042.568-.088.568-.82V98.2c0-.732-.056-.78-.508-.82v-.265h2.2v.265c-.488.04-.543.088-.543.82v2.32zM94.837 100.52c0 .353.013.522.133.583.108.054.264.06.475.06.218 0 .51-.018.65-.196.108-.127.224-.31.33-.67l.294.05c-.042.256-.186.96-.246 1.17h-3.36v-.264c.517-.042.57-.088.57-.82V98.2c0-.732-.054-.78-.51-.82v-.265h2.203v.265c-.49.04-.54.088-.54.82v2.32zM98.073 101.564c-.47-1.22-1.104-2.892-1.348-3.53-.224-.58-.36-.615-.686-.655v-.266h2.187v.265l-.23.025c-.25.027-.25.088-.174.326.12.38.656 1.714.905 2.378.21-.576.645-1.87.753-2.188.145-.413.104-.488-.204-.52l-.2-.022v-.265h1.637v.265c-.387.047-.48.08-.746.698-.042.094-.867 2.106-1.374 3.487h-.52z"/></g><g fill="#22284B"><path d="M116.264 80.86v.266c-.516.048-.543.074-.52.786l.065 2.268c.02.75.036.772.522.82v.264h-2.118V85c.507-.048.526-.068.52-.82l-.02-2.384h-.028l-1.308 3.393h-.363l-1.238-3.157h-.015l-.048 1.503c-.02.583-.013.907.013 1.116.025.25.174.313.615.347v.263h-1.67V85c.324-.028.452-.095.493-.347.035-.21.075-.568.108-1.185l.073-1.367c.05-.852-.003-.926-.54-.974v-.265h1.592l1.185 2.683 1.037-2.682h1.644zM118.462 84.18c0 .73.054.78.52.82v.264h-2.193V85c.466-.04.522-.09.522-.82v-2.235c0-.73-.056-.78-.523-.82v-.264h2.193v.266c-.467.04-.52.088-.52.82v2.234zM123.5 85.31h-.58l-2.507-3.196h-.013v1.247c0 .71.026 1.084.056 1.293.034.238.215.326.664.347v.264h-1.688V85c.297-.015.475-.108.507-.347.027-.21.055-.582.055-1.292v-1.246c0-.5-.013-.59-.15-.78-.1-.14-.27-.188-.512-.208v-.265h1.494l2.257 2.812h.01v-.907c0-.71-.025-1.083-.05-1.293-.038-.237-.218-.325-.668-.345v-.265h1.73v.265c-.34.013-.517.108-.55.345-.024.21-.055.582-.055 1.293v2.546zM126.332 85l.204-.028c.253-.033.265-.1.177-.346l-.243-.69h-1.112l-.202.65c-.088.29-.088.36.22.393l.198.02v.264h-1.58V85c.35-.048.45-.076.675-.644l1.353-3.5.466-.096.462 1.28c.29.806.58 1.605.836 2.296.218.588.34.623.672.664v.264h-2.128V85zm-.857-1.47h.864l-.427-1.294h-.02l-.418 1.294z"/></g><g fill="#22284B"><path d="M116.21 92.307c0 .73.054.778.622.82v.264h-2.37v-.263c.54-.042.596-.09.596-.82V89.34h-.114c-.454 0-.637.082-.746.204-.08.1-.164.277-.25.656h-.285c.026-.57.07-1.036.08-1.38h.21c.103.154.172.167.353.167h2.7c.18 0 .212-.04.32-.168h.21c.007.283.04.86.074 1.36l-.3.02c-.1-.406-.173-.582-.274-.698-.117-.123-.34-.163-.667-.163h-.16v2.967zM119.756 92.307c0 .73.056.778.52.82v.264h-2.194v-.263c.47-.042.523-.09.523-.82v-2.235c0-.73-.054-.78-.523-.82v-.264h2.194v.265c-.464.04-.52.088-.52.82v2.234zM125.387 91.135c0 1.45-.99 2.356-2.288 2.356-1.37 0-2.255-.995-2.255-2.24 0-1.097.728-2.364 2.348-2.364 1.24 0 2.194.908 2.194 2.25zm-3.286-.116c0 1.226.462 2.12 1.126 2.12.584 0 .9-.563.9-1.79 0-1.36-.487-2.11-1.07-2.11-.52 0-.955.594-.955 1.78z"/></g><g fill="#22284B"><path d="M118.21 97.115v.265c-.517.047-.543.075-.522.786l.07 2.27c.018.75.03.77.518.818v.264h-2.118v-.264c.507-.047.53-.068.52-.82l-.02-2.384h-.027l-1.306 3.394h-.366l-1.238-3.156h-.016l-.047 1.504c-.02.582-.012.907.015 1.116.026.25.174.313.617.346v.264h-1.675v-.264c.325-.028.456-.095.495-.346.035-.21.075-.568.108-1.185l.073-1.368c.05-.853-.002-.928-.538-.975v-.265h1.59l1.186 2.682 1.036-2.682h1.645zM119.256 98.198c0-.73-.056-.78-.505-.82v-.264h3.21l.074 1.117-.297.022c-.067-.332-.144-.52-.252-.63-.107-.115-.333-.155-.69-.155h-.116c-.256 0-.272 0-.272.236v1.307h.337c.583 0 .605-.04.675-.554h.294v1.597h-.294c-.07-.595-.092-.636-.675-.636h-.337v1.104c0 .353.016.522.136.583.108.054.264.06.475.06.27 0 .57-.04.717-.2.114-.124.23-.374.333-.7l.296.047c-.03.332-.176 1.022-.237 1.206h-3.446v-.264c.52-.042.574-.088.574-.82V98.2zM124.744 101.253l.202-.028c.25-.033.265-.1.177-.346l-.246-.69h-1.107l-.207.65c-.088.29-.088.358.224.392l.195.02v.265h-1.575v-.264c.343-.047.448-.075.67-.644l1.354-3.502.47-.095.457 1.28c.293.806.583 1.605.84 2.296.22.587.34.62.672.663v.264h-2.126v-.264zm-.862-1.47h.87l-.43-1.293h-.02l-.42 1.293z"/></g><path fill="#FFF" d="M100.613 156.002c0 .98-.794 1.77-1.77 1.77-.98 0-1.774-.79-1.774-1.77s.793-1.772 1.773-1.772c.976 0 1.77.794 1.77 1.772z"/><circle fill="#FFF" cx="116.803" cy="158.949" r="1.772"/><path fill="#FFF" d="M49.748 59.417zM124.17 27.408zM152.75 62.6zM166.523 120.203zM108.424 30.95c0 .98-.792 1.77-1.774 1.77-.98 0-1.768-.792-1.768-1.77s.79-1.77 1.768-1.77c.98 0 1.774.79 1.774 1.77z"/><circle fill="#FFF" cx="148.802" cy="47.454" r="1.773"/><path fill="#FFF" d="M61.743 123.555c.68.98 1.024 2.027 1.022 3.113-.002 1.237-.416 2.24-2.63 3.774L53.74 135l-1.177-1.693s6.55-4.663 6.658-4.738c1.13-.78 1.612-1.353 1.614-2.248 0-.566-.207-1.185-.617-1.775-.64-.92-1.462-1.217-2.187-1.217-.658-.002-1.366.46-2.625 1.34l-6.014 4.077-1.154-1.66 5.723-3.88c1.59-1.116 2.86-1.884 4.038-1.883 1.72.002 2.975 1.12 3.745 2.23zM41.306 111.07l12.168-4.268.672 1.844-6.96 8.504 8.796-3.48.656 1.796-12.028 4.62-.672-1.843 6.996-8.516-8.973 3.14-.654-1.798zM39.485 101.38l12.737-1.89.3 2.04-12.734 1.89-.303-2.04zM39.108 86.025l.05-2.137 12.71 5.165-.09 2.12-13.052 3.893.014-2.14 10.583-2.967-10.215-3.935zM50.73 57.22c-1.82.003-2.66 1.044-3.822 3.144l-1.512 2.71 11.34 6.154.98-1.77-4.713-2.574.275-.51c.793-1.434 1.067-1.65 3.09-1.48l3.673.325 1.05-1.904-4.232-.36c-.85-.08-1.522-.143-2.065.015-.182.054-.4.165-.61.313.05-.23.138-.454.14-.688.003-.363-.05-.722-.158-1.05-.247-.755-.786-1.368-1.602-1.82-.607-.335-1.216-.506-1.833-.505zm-2.29 3.902c.756-1.373 1.293-1.893 2.092-1.89.296 0 .67.074 1.044.28.482.27.852.713.99 1.192.053.186.075.37.073.556-.007.764-.433 1.533-.88 2.337l-.263.478-3.628-1.95.57-1.003zM64.822 39.024l1.64-1.25 7.812 10.233-1.638 1.25-7.814-10.233zM71.892 34.004l8.33-4.336.812 1.563-3.24 1.688 5.132 9.86-1.828.95-5.134-9.857-3.26 1.698-.812-1.564zM92.67 25.752l2.17-.606-1.747 8.613 1.414 4.89-1.963.567-1.383-4.853-6.113-6.38 2.117-.613 4.4 4.584 1.105-6.202zM131.957 43.354l6.538-11.093 6.152 3.625-.895 1.52-4.394-2.59-1.806 3.07 4.133 2.435-.873 1.485-4.135-2.436-2.958 5.022-1.763-1.038zM165.038 72.036l4.688-5.61.73 2.22-3.488 3.995 5.184 1.166.687 2.093-7.095-1.72-5.038 6.04-.718-2.183 3.802-4.433-5.685-1.296-.694-2.112 7.625 1.84zM161.358 84.687l12.835-1.047.582 7.118-1.758.144-.413-5.082-3.55.29.39 4.783-1.718.14-.39-4.784-5.81.473-.168-2.036zM167.033 96.166c-1.488 0-2.856.4-3.938 1.188-1.94 1.408-2.295 3.43-2.295 4.614 0 4.353 4.088 6.093 7.162 6.093 1.475.004 2.826-.398 3.89-1.17 2.17-1.57 2.286-3.93 2.286-4.69 0-3.798-3.49-6.034-7.105-6.034zm1.015 9.81c-2.51 0-5.438-1.366-5.438-3.894 0-.916.316-2.146 1.45-2.968.765-.555 1.758-.85 2.87-.85 1.28 0 3.582.358 4.79 2.025.417.573.628 1.24.624 1.95 0 .987-.4 2.16-1.458 2.924-.747.543-1.733.813-2.838.813zM159.56 53.306c-1.3 0-2.686.413-4.023 1.26-2.473 1.57-3.375 3.818-3.375 5.458 0 1.062.292 2.104.9 3.062 1.37 2.167 3.433 2.696 4.826 2.69 1.327-.007 2.73-.447 4.052-1.287 1.592-1.01 3.366-2.888 3.366-5.428 0-1.056-.3-2.093-.91-3.056-1.127-1.777-2.894-2.7-4.835-2.7zm-2.004 10.49c-1.154 0-2.2-.485-2.918-1.62-.37-.58-.543-1.202-.55-1.834-.006-1.456.918-2.95 2.605-4.022 1.12-.708 2.215-1.057 3.196-1.053 1.24 0 2.252.546 2.924 1.61.398.627.582 1.294.582 1.96 0 1.422-.902 2.815-2.533 3.85-1.142.724-2.295 1.11-3.307 1.11zM124.433 26.787c-2.682 0-5.02 1.806-5.962 5.017-.207.712-.34 1.42-.34 2.103 0 1.286.216 2.304.744 3.266 1.19 2.18 3.37 2.922 5.026 2.922.938 0 1.838-.214 2.667-.666 2.17-1.19 3.606-3.946 3.606-6.584 0-1.145-.223-2.225-.732-3.15-1.044-1.9-2.978-2.91-5.007-2.91zm-.66 11.484c-.934 0-2.28-.456-3.035-1.83-.363-.666-.526-1.474-.526-2.31 0-2.305 1.538-5.54 4.343-5.54 1.575 0 3.555 1.172 3.555 4.083 0 1.857-1.308 5.598-4.338 5.598zM53.117 73.482l1.73.49-1.953 7.07-12.46-3.416 2.128-7.155 1.694.48-1.563 5.155 3.437.943 1.324-4.683 1.657.47-1.32 4.668 3.887 1.067 1.44-5.088zM56.385 46.582c1.79-2.004 3.618-1.867 3.618-1.867l.313 1.7s-1.41.044-2.515 1.28c-.48.54-.72 1.103-.72 1.61 0 .417.16.78.488 1.073.893.794 2.417-.09 3.37-.472.735-.304 1.777-.728 2.82-.728.777 0 1.58.22 2.315.877.857.766 1.287 1.727 1.287 2.736 0 1.094-.425 2.067-1.28 3.024-1.643 1.84-3.85 2.04-3.85 2.04l-.44-1.722c1.303-.3 2.287-.8 2.884-1.472.47-.525.7-1.114.7-1.632 0-.486-.202-.938-.6-1.294-.322-.286-.714-.39-1.14-.38-.83 0-1.818.473-2.637.812-1.563.646-3.214 1.167-4.69-.152-.752-.67-1.15-1.516-1.15-2.453 0-.99.39-2.04 1.228-2.978zM157.938 112.83l4.868 2.2-.242.548c-.664 1.5-.916 1.742-2.946 1.75l-3.687.004-.875 1.986 4.247-.014c.86.002 1.53.002 2.055-.2.168-.064.362-.173.543-.316-.013.108-.05.217-.05.326-.006.474.08.942.262 1.353.58 1.36 2.164 2.027 3.325 2.024 2.05-.002 2.834-1.227 3.83-3.482.034-.084 1.194-2.76 1.194-2.76l-11.705-5.272-.817 1.853zm7.6 7.633c-.578 0-1.563-.334-1.937-1.292-.093-.244-.13-.49-.13-.74.007-.706.342-1.438.687-2.208l.218-.496 3.712 1.668-.412.993c-.693 1.573-1.143 2.073-2.136 2.076zM151.157 125.008c-1.334 1.672-2.348 3.166-2.348 5.097 0 1.638.743 3.504 2.627 5.006 1.248.997 2.66 1.538 4.115 1.538 1.792 0 3.227-.537 5.46-3.334l2.032-2.558-10.063-8.033-1.823 2.285zm4.588 9.693c-1.02 0-1.982-.393-2.982-1.19-1.012-.81-2.087-2.07-2.087-3.68 0-1.116.606-2.185 1.54-3.354l.854-1.066 7.354 5.868-.564.703c-1.365 1.71-2.297 2.72-4.115 2.72z"/><path fill="#FFF" d="M180.5 92.455c0-40.606-33.092-73.643-73.762-73.643s-73.76 33.037-73.76 73.643c0 24.362 12.03 47.068 32.186 60.828 1.983 7.38 8.735 12.84 16.763 12.84 2.17 0 4.274-.41 6.274-1.185 2.7.89 5.488 1.63 8.27 2.202-.784 2.236-1.926 4.356-3.016 6.19l.06-.014c-.02.015-.042.023-.063.038l1.54 1.538c.39-.217.834-.35 1.312-.35 1.518 0 2.754 1.236 2.754 2.755 0 1.518-1.236 2.754-2.754 2.754-1.326 0-2.49-.85-3.1-1.757 0 0-.357 1.238-.357 2.87-.012 5.292 5.763 11.335 13.77 13.882 8.003-2.49 13.776-8.578 13.775-13.872 0-1.822-.36-2.88-.36-2.88-.615.74-1.61 1.758-3.116 1.758-1.516 0-2.754-1.235-2.754-2.753 0-1.52 1.238-2.754 2.754-2.754.532 0 1.025.158 1.45.422l1.487-1.49.058.014c-.844-2.018-1.458-3.87-1.876-5.65 13.263-1.786 24.45-7.4 33.347-16.754l-.005-.01c18.506-14.064 29.125-35.403 29.125-58.62zM81.926 164.05c-8.375 0-15.188-6.83-15.188-15.23 0-2.63.67-5.106 1.845-7.268.782.71 1.618 1.446 2.485 2.188-.737 1.562-1.162 3.296-1.162 5.133 0 4.567 2.304 8.34 6.664 10.913 2.503 1.477 5.337 2.81 8.337 3.97-.974.195-1.97.294-2.98.294zm24.812-22.158c-3.16 0-6.27-.304-9.32-.887-2.945-5.77-8.978-9.484-15.492-9.484-1.602 0-3.144.234-4.618.642-12.523-9.307-19.993-24.105-19.993-39.707 0-27.26 22.17-49.436 49.422-49.436 27.252 0 49.425 22.176 49.425 49.435 0 27.26-22.172 49.437-49.424 49.437zm11 .88c-1.483 2.115-2.365 5.056-2.63 8.03-4.677-1.204-8.922-2.824-12.624-4.513.705-1.363 2.72-2.33 4.254-2.33 3.775 0 7.45-.415 11-1.188zm-15.67.973c-.63.47-1.133 1.028-1.493 1.644-1.866-.906-4.21-2.075-5.745-2.934 2.17.48 5.007 1.09 7.24 1.29zM81.927 133.59c5.087 0 9.85 2.61 12.64 6.79-2.443-.62-4.846-1.426-7.185-2.425l-.01.015-.075-.044c-1.638-.77-3.388-1.163-5.212-1.163-4.055 0-7.642 1.99-9.856 5.03-.934-.52-1.866-1.062-2.78-1.63 2.743-3.964 7.31-6.572 12.48-6.572zm34.987 38.83c-2.72 0-4.95 1.925-4.95 4.878 0 2.89 2.262 4.878 4.95 4.878.41 0 .8-.07 1.18-.167-.57 4.09-5.333 8.667-11.478 10.725-6.095-2.042-10.857-6.653-11.487-10.723.376.097.766.164 1.173.164 2.932 0 4.95-2.054 4.95-4.878 0-2.693-2.117-4.808-4.843-4.867.832-1.52 1.632-3.14 2.22-4.874 3.38.587 6.71.91 9.81.91 2.54 0 5.006-.14 7.414-.383.32 1.396.795 2.854 1.352 4.36-.098-.003-.19-.023-.29-.023zm-8.477-6.026c-9.89 0-22.233-3.36-30.715-8.364-2.57-1.516-5.632-4.336-5.632-9.155 0-1.3.255-2.543.706-3.686 3.166 2.617 6.44 5.07 8.49 6.194.472.26.746.385 1.294.385 1.32 0 2.385-1.073 2.385-2.396 0-1.01-.548-1.83-1.453-2.227-1.753-.768-5.425-2.284-9.378-4.333 1.828-2.413 4.708-3.98 7.95-3.98 1.483 0 2.912.318 4.243.946l2.71 1.58c8.62 5.264 30.792 18.764 57.565 11.346-10.16 9.17-22.678 13.688-38.164 13.688zM149.96 149.5c-11.983 4.237-23.167 3.947-32.708 1.817.312-4.263 2.074-8.815 4.772-9.662 21.013-6.518 36.317-26.108 36.317-49.2 0-28.402-23.15-51.507-51.603-51.507S55.134 64.054 55.134 92.455c0 15.8 7.38 30.81 19.803 40.54-2.95 1.298-5.466 3.394-7.286 6.004-.94-.643-1.85-1.308-2.69-1.997l-.47.47c.564.68 1.434 1.575 2.482 2.578-1.53 2.575-2.416 5.57-2.416 8.772 0 .498.034.99.075 1.477-18.485-13.475-29.47-34.892-29.47-57.845 0-39.465 32.11-71.572 71.578-71.572s71.58 32.107 71.58 71.572c0 22.606-10.337 43.375-28.358 57.045z"/></svg>