<svg xmlns="http://www.w3.org/2000/svg" viewBox="0 0 788.3 283.5"><g fill="#BC955C"><path d="M323.4 265.9c-.6-.6-.9-1.4-.9-2.4v-37.7c0-.9.3-1.7.8-2.3.6-.6 1.3-.8 2.3-.8h14.9c4.6 0 8.2 1.1 10.8 3.4 2.6 2.3 3.8 5.5 3.8 9.7 0 4.1-1.3 7.3-3.8 9.7-2.6 2.3-6.2 3.5-10.8 3.5h-11.7v14.6c0 1-.3 1.8-.8 2.4-.6.6-1.4.9-2.4.9-.8-.2-1.6-.4-2.2-1zm16.6-22.1c6.1 0 9.2-2.7 9.2-8s-3.1-7.9-9.2-7.9h-11v15.9h11zM396.1 264.2c0 .7-.3 1.4-.9 1.9-.6.5-1.3.8-2.1.8-1.2 0-2.1-.5-2.8-1.5l-8.3-12.9c-1-1.5-2-2.5-3-3.1-1.1-.6-2.5-.9-4.2-.9h-7v15.1c0 1-.3 1.8-.8 2.4-.6.6-1.3.9-2.3.9-1 0-1.7-.3-2.3-.9-.6-.6-.9-1.4-.9-2.4v-37.7c0-.9.3-1.7.8-2.3.6-.6 1.3-.8 2.3-.8H380c4.8 0 8.5 1.1 11.1 3.2 2.5 2.1 3.8 5.3 3.8 9.4 0 3.4-1 6.2-2.9 8.3-1.9 2.1-4.7 3.5-8.3 4.1 1.1.3 2 .8 2.9 1.5s1.7 1.8 2.5 3.1l6.4 10c.4.6.6 1.2.6 1.8zm-16.8-20.9c3.2 0 5.6-.6 7.2-1.9 1.5-1.3 2.3-3.2 2.3-5.9s-.8-4.6-2.3-5.8c-1.5-1.2-3.9-1.8-7.2-1.8h-11.6v15.4h11.6zM406.9 262.4c-3-3-4.5-7.5-4.5-13.3v-23.4c0-1 .3-1.8.9-2.4.6-.6 1.3-.9 2.3-.9s1.7.3 2.3.9c.6.6.9 1.4.9 2.4v23.8c0 4 1 7 2.9 9.1 1.9 2.1 4.8 3.1 8.6 3.1s6.6-1 8.5-3.1c1.9-2.1 2.9-5.1 2.9-9.1v-23.8c0-.9.3-1.7.9-2.3.6-.6 1.3-.9 2.3-.9.9 0 1.7.3 2.3.9.6.6.9 1.4.9 2.4v23.4c0 5.8-1.5 10.3-4.6 13.3-3 3-7.4 4.6-13.2 4.6-6-.2-10.4-1.7-13.4-4.7zM445.7 251.8c-.5-.4-.7-1-.7-1.8s.2-1.4.7-1.9c.5-.5 1.2-.7 2.2-.7h13.2c.9 0 1.7.2 2.2.7.5.5.7 1.1.7 1.9 0 .8-.2 1.4-.7 1.8-.5.4-1.2.7-2.2.7h-13.2c-1-.1-1.7-.3-2.2-.7zM512.4 223.4c.6.6.9 1.4.9 2.3v38c0 1-.3 1.7-.8 2.2-.5.5-1.2.8-2.1.8-.9 0-1.5-.3-2-.8s-.7-1.3-.7-2.2v-28.8L495.4 258c-.8 1.4-1.8 2.2-3 2.2s-2.3-.7-3-2.2l-12.2-22.9v28.6c0 1-.2 1.7-.7 2.2s-1.2.8-2.1.8c-.9 0-1.6-.3-2.1-.8s-.8-1.3-.8-2.2v-38c0-.9.3-1.7.9-2.3.6-.6 1.3-.9 2.2-.9 1.3 0 2.3.7 3.1 2.2l14.8 28.3 14.7-28.3c.8-1.5 1.8-2.2 3-2.2.8 0 1.6.3 2.2.9zM557 223.4c.6.6.8 1.4.8 2.3v37.8c0 1-.3 1.7-.9 2.3-.6.6-1.3.9-2.2.9-1.1 0-1.9-.4-2.5-1.2l-24.3-32v30c0 1-.3 1.7-.8 2.3-.6.6-1.3.9-2.2.9s-1.6-.3-2.2-.9c-.5-.6-.8-1.4-.8-2.4v-37.8c0-.9.3-1.7.9-2.3.6-.6 1.3-.9 2.2-.9 1.1 0 1.9.4 2.5 1.2l24.3 32.1v-30.1c0-.9.3-1.7.8-2.3.5-.6 1.3-.9 2.2-.9.9.1 1.6.4 2.2 1zM602.7 223.4c.6.6.9 1.4.9 2.3v37.8c0 1-.3 1.7-.9 2.3-.6.6-1.3.9-2.3.9-1 0-1.7-.3-2.3-.9-.6-.6-.9-1.4-.9-2.4v-16.7h-24.4v16.7c0 1-.3 1.7-.9 2.3-.6.6-1.3.9-2.3.9-1 0-1.7-.3-2.3-.9-.6-.6-.9-1.4-.9-2.4v-37.8c0-.9.3-1.7.9-2.3.6-.6 1.3-.9 2.3-.9.9 0 1.7.3 2.3.9.6.6.9 1.4.9 2.3v16h24.4v-16c0-.9.3-1.7.9-2.3.6-.6 1.3-.9 2.3-.9.9.2 1.7.5 2.3 1.1zM620.3 264.2c-3.1-1.8-5.5-4.4-7.1-7.7-1.7-3.4-2.5-7.3-2.5-11.9 0-4.5.8-8.5 2.5-11.9 1.7-3.4 4-5.9 7.1-7.7s6.7-2.7 10.9-2.7c2.7 0 5.3.4 7.7 1.3 2.4.8 4.6 2.1 6.4 3.7.8.6 1.2 1.4 1.2 2.5 0 .7-.2 1.4-.6 1.9s-.9.8-1.5.8c-.7 0-1.4-.3-2-.8-2-1.5-3.8-2.5-5.4-3.1-1.6-.6-3.5-.9-5.5-.9-4.5 0-8 1.5-10.5 4.4-2.4 2.9-3.7 7.1-3.7 12.6s1.2 9.8 3.7 12.7c2.4 2.9 5.9 4.4 10.5 4.4 2 0 3.8-.3 5.4-.9 1.6-.6 3.5-1.7 5.5-3.1.8-.5 1.5-.8 2-.8.6 0 1.1.3 1.5.8.4.5.6 1.1.6 1.9 0 1-.4 1.9-1.2 2.5-1.8 1.6-3.9 2.8-6.4 3.7-2.4.8-5 1.3-7.7 1.3-4.2-.3-7.8-1.2-10.9-3z"/></g><path fill="#BC955C" d="M316.4 190.8c0-2.2 1.8-4 4-4h464c2.2 0 4 1.8 4 4s-1.8 4-4 4h-464c-2.3 0-4-1.8-4-4"/><path fill="#5F4776" d="M421.9 27.3c1.7 1.8 2.5 4.1 2.5 6.9V147c0 2.8-.9 5.1-2.6 6.9-1.7 1.8-3.9 2.7-6.7 2.7-3.2 0-5.7-1.2-7.4-3.7l-72.4-95.5V147c0 2.8-.8 5.1-2.5 6.9-1.7 1.8-3.8 2.7-6.6 2.7-2.7 0-4.9-.9-6.5-2.6-1.6-1.7-2.4-4.1-2.4-7V34.2c0-2.8.9-5.1 2.6-6.9 1.7-1.8 3.9-2.7 6.7-2.7 3.2 0 5.7 1.2 7.4 3.7l72.4 95.7V34.2c0-2.8.8-5.1 2.4-6.9 1.6-1.8 3.8-2.7 6.5-2.7 2.8 0 5 .9 6.6 2.7M457.3 154c-1.7-1.7-2.6-4.1-2.6-7V34.7c0-2.8.8-5.1 2.5-6.7 1.7-1.7 4-2.5 6.9-2.5h44.5c13.8 0 24.5 3.4 32.1 10.2 7.6 6.8 11.4 16.4 11.4 28.8 0 12.3-3.8 21.9-11.4 28.8-7.6 6.9-18.3 10.3-32.1 10.3h-34.9V147c0 3-.8 5.3-2.5 7-1.7 1.7-4 2.6-7.1 2.6-2.8 0-5.1-.8-6.8-2.6m49.3-65.7c18.2 0 27.3-7.9 27.3-23.8 0-15.8-9.1-23.6-27.3-23.6h-32.9v47.5h32.9zM577.6 153.2c-1.7-1.7-2.5-3.9-2.5-6.7V34.7c0-2.8.8-5.1 2.5-6.7 1.7-1.7 4-2.5 6.9-2.5h68c2.8 0 5 .7 6.6 2s2.3 3.3 2.3 5.7c0 2.5-.8 4.3-2.3 5.6-1.5 1.3-3.7 1.9-6.6 1.9h-58.7v41h55c2.8 0 5 .7 6.6 2 1.5 1.4 2.3 3.3 2.3 5.7s-.8 4.4-2.3 5.7c-1.5 1.4-3.7 2-6.6 2h-55v43h58.7c5.9 0 8.9 2.5 8.9 7.6 0 2.5-.8 4.4-2.3 5.7s-3.7 2-6.6 2h-68c-2.9.3-5.2-.5-6.9-2.2M695.7 143.7c-9-9-13.5-22.2-13.5-39.7V34.2c0-3 .9-5.3 2.6-7 1.7-1.7 4-2.6 6.8-2.6s5.1.9 6.8 2.6c1.7 1.7 2.6 4.1 2.6 7v71.1c0 11.9 2.9 21 8.6 27.2 5.7 6.2 14.3 9.2 25.6 9.2 11.2 0 19.7-3.1 25.5-9.2 5.8-6.2 8.7-15.2 8.7-27.2V34.2c0-2.8.9-5.1 2.6-6.9 1.7-1.8 4-2.7 6.8-2.7s5.1.9 6.8 2.6c1.7 1.7 2.6 4.1 2.6 7V104c0 17.4-4.5 30.6-13.6 39.6-9.1 9.1-22.2 13.6-39.4 13.6-17.3 0-30.5-4.5-39.5-13.5M168.8 73c0-40.3-32.7-73-73-73s-73 32.7-73 73 32.7 73 73 73c40.3.1 73-32.6 73-73"/><path fill="#BC955C" d="M267.6 61.8c5.5-13.9-1.3-29.6-15.2-35.1-13.9-5.5-29.6 1.3-35.1 15.2-5.5 13.9 1.3 29.6 15.2 35.1 13.9 5.5 29.7-1.3 35.1-15.2M149.9 180.4c8.1 1 34.4 4.1 69.9-17.2 26.3-15.8 43.5-38.8 45.1-52.5 1.6-11.1-6.1-21.3-17.2-22.9-4.7-.7-8.6.2-13 2.6-13.8 7.2-17.1 32.5-30 51.5-19 27.9-42.9 29-54.3 29.5-2.5 0-4.5 2-4.5 4.5 0 2.4 1.8 4.3 4 4.5"/><path fill="#5F4776" d="M260.5 145.4c-12 14.8-48.1 47.2-92 47.2s-65.6-22-98.4-35.6c-25.7-10.8-55.3 1.2-66.2 26.9-8 19-3.5 40.1 9.8 54.2 22.4 24.6 67.9 42.3 141.7 17.8 73.8-24.6 109.6-95.2 114.8-104.5 1.4-2.8.2-6.1-2.6-7.6-2.5-1.3-5.5-.6-7.1 1.6"/></svg>