<svg id="Layer_1" xmlns="http://www.w3.org/2000/svg" viewBox="0 0 257 141"><style>.st0{fill:#6c6f70}.st1{fill:#fff}.st2{font-family:&apos;ArialMT&apos;}.st3{font-size:16.5245px}.st4{fill:#163964}.st5{fill:#9a9a9b}.st6{opacity:.4}.st7{fill:none}.st8{fill:#6f6f72}.st9{fill:#838384}</style><path class="st0" d="M82.8 101.2c-16.7 0-30.3-13.6-30.3-30.3s13.6-30.3 30.3-30.3V2C44.8 2 14 32.8 14 70.9c0 38 30.8 68.9 68.9 68.9 38 0 68.9-30.8 68.9-68.9h-38.6c-.1 16.7-13.7 30.3-30.4 30.3"/><path class="st1" d="M49.9 32.5l3.3-2.7-2.5-3.1-3.7 3-.8-.9 4.8-4 7.1 8.6-4.6 3.8-.8-.9 3.5-2.9-2.2-2.7-3.3 2.7-.8-.9zM38.6 38c.1-.6.6-1.6 1.5-2.6 2-2.4 5-3 7.8-.7 2.7 2.2 3 5.5.8 8.2-.9 1.1-1.7 1.6-2.1 1.7l-.7-1c.6-.3 1.2-.7 1.8-1.4 1.7-2 1.5-4.4-.8-6.3-2.1-1.7-4.5-1.6-6.2.5-.6.7-1 1.5-1.1 2.1l-1-.5zM45.2 47.6l-5.9-3c-2.2-1.1-3.7-.6-4.3.7-.7 1.5-.2 2.9 2 4l5.9 3-.7 1.3-5.8-2.9c-3.1-1.5-3.5-3.8-2.4-5.9 1-2 3-3 6-1.4l5.9 2.9-.7 1.3z"/><text transform="rotate(107.056 -4.182 37.223)" class="st1 st2 st3"></text><path class="st1" d="M28.5 67.7c-.1-.7-.4-2-.2-3.5.2-1.7.8-3 2-3.9 1-.8 2.6-1.2 4.3-1 3.3.4 5.4 3 4.9 6.7-.2 1.3-.6 2.2-.9 2.7l-1.1-.5c.3-.6.6-1.3.8-2.4.4-2.7-1.1-4.7-3.9-5-2.8-.4-4.7 1.1-5 3.7-.1.9-.1 1.6 0 1.9l3.3.4.3-2.2 1.1.1-.5 3.6-5.1-.6zM33.7 77.4l-.3-4.4-4 .3.3 4.8-1.2.1-.4-6.2 11.1-.8.4 6-1.2.1-.3-4.6-3.5.3.3 4.3-1.2.1zM29.2 82.5l10.7-3.1.4 1.5-4.4 5c-1 1.2-2 2.1-2.9 2.9 1.4-.5 2.7-1 4.4-1.4l4.5-1.3.4 1.3-10.7 3.1-.4-1.4 4.4-5c1-1.1 2-2.2 3-3-1.3.5-2.6.9-4.4 1.4l-4.6 1.3-.4-1.3zM42.9 89.6c.5.7 1.2 1.6 1.7 2.5 1 1.8 1.3 3.3 1 4.6-.3 1.3-1.1 2.5-2.7 3.3-1.6.9-3.1 1.1-4.6.8-1.4-.4-2.8-1.6-3.8-3.5-.5-.9-.9-1.7-1.2-2.3l9.6-5.4zM35 95.7c.1.3.4.8.6 1.3 1.5 2.7 3.8 3.3 6.5 1.8 2.3-1.3 3-3.4 1.5-6-.4-.6-.7-1.1-1-1.4L35 95.7zM48.2 107l-2.9-3.2-3 2.7 3.2 3.6-.9.8-4.1-4.7 8.3-7.4 4 4.5-.9.8-3-3.4-2.6 2.3 2.9 3.2-1 .8zM54.3 104.9c.7.3 1.5.9 2.3 1.5 1.2.9 1.8 1.8 2 2.7.1.7-.1 1.5-.6 2.2-.9 1.2-2.2 1.4-3.4 1 .5.8.4 1.7-.1 2.8-.7 1.5-1.1 2.5-1.2 2.9l-1.2-.9c0-.4.4-1.3 1-2.6.7-1.4.6-2.2-.4-3.1l-1.1-.8-2.9 3.8-1.1-.9 6.7-8.6zm-1.9 4.9l1.2.9c1.2.9 2.5.9 3.3-.1.9-1.1.4-2.3-.8-3.2-.5-.4-1-.7-1.2-.8l-2.5 3.2z"/><text transform="rotate(29.12 -202.586 165.656)" class="st1 st2 st3"></text><path class="st1" d="M69.5 125.2c-.6.1-1.7 0-2.9-.5-2.9-1.1-4.5-3.8-3.2-7.2 1.2-3.3 4.2-4.7 7.5-3.5 1.3.5 2 1.1 2.3 1.4l-.7 1c-.4-.4-1.1-.9-2-1.2-2.5-.9-4.7.1-5.7 2.8-.9 2.6-.1 4.7 2.5 5.7.8.3 1.7.4 2.4.4l-.2 1.1zM76.4 115.7l-.6 4.6 5.3.7.6-4.6 1.4.2-1.4 11-1.4-.2.7-5.2-5.3-.7-.7 5.2-1.4-.2 1.4-11 1.4.2zM87.1 124.1l-.9 3.6-1.5.1 2.9-11.4 1.7-.1 4.6 10.8-1.5.1-1.4-3.4-3.9.3zm3.5-1.4l-1.3-3.1c-.3-.7-.5-1.4-.7-2-.1.7-.2 1.4-.4 2.1l-.8 3.3 3.2-.3zM94.9 115.5c.7-.3 1.6-.7 2.6-1 1.5-.4 2.5-.4 3.3 0 .7.3 1.2 1 1.4 1.8.4 1.4-.2 2.6-1.2 3.3.9 0 1.6.7 2.2 1.7.8 1.4 1.3 2.3 1.7 2.7l-1.4.4c-.3-.3-.8-1.1-1.5-2.3-.8-1.4-1.5-1.8-2.8-1.4l-1.2.3 1.4 4.6-1.4.4-3.1-10.5zm2.8 4.5l1.4-.4c1.5-.4 2.2-1.5 1.8-2.7-.4-1.4-1.6-1.7-3-1.3-.7.2-1.1.4-1.3.5l1.1 3.9zM106.2 112.6l-3 1.6-.6-1.1 7.3-3.8.6 1.1-3 1.6 4.6 8.8-1.3.7-4.6-8.9zM118.5 109.1l-3.4 2.7 2.5 3.1 3.8-3 .8.9-4.9 3.9-6.9-8.7 4.7-3.7.8.9-3.6 2.9 2.2 2.8 3.4-2.7.6.9zM117 102.9c.4-.6 1-1.5 1.6-2.2 1-1.2 1.9-1.7 2.8-1.9.7-.1 1.5.2 2.2.7 1.1 1 1.3 2.3.8 3.4.8-.5 1.7-.3 2.8.2 1.4.7 2.4 1.2 2.9 1.3l-1 1.1c-.4-.1-1.2-.5-2.5-1.2-1.4-.8-2.2-.7-3.1.3l-.9 1 3.7 3.1-.9 1.1-8.4-6.9zm4.7 2.2l1-1.1c1-1.2 1-2.5 0-3.3-1.1-.9-2.2-.6-3.2.6-.5.5-.7.9-.8 1.2l3 2.6z"/><path class="st4" d="M172.5 14.6v3.8h3.6v2.8h-3.6v6.6c0 1.8.5 2.8 1.9 2.8.7 0 1-.1 1.5-.2l.1 2.9c-.6.2-1.5.4-2.7.4-1.4 0-2.6-.5-3.3-1.3-.8-.9-1.2-2.2-1.2-4.2v-7h-2.2v-2.8h2.2v-2.8l3.7-1zM197.2 27c.1 2.7 2.2 3.9 4.6 3.9 1.8 0 3-.2 4.1-.7l.6 2.6c-1.3.5-3.1 1-5.2 1-4.9 0-7.7-3-7.7-7.6 0-4.1 2.5-8.1 7.3-8.1 4.9 0 6.5 4 6.5 7.3 0 .7-.1 1.3-.1 1.6h-10.1zm6.5-2.6c0-1.4-.6-3.7-3.1-3.7-2.3 0-3.3 2.1-3.5 3.7h6.6zM209.6 22.9c0-1.7 0-3.2-.1-4.5h3.3l.2 2.2h.1c.6-1.2 2.3-2.6 4.8-2.6 2.6 0 5.3 1.7 5.3 6.4v8.9h-3.8V25c0-2.2-.8-3.8-2.9-3.8-1.5 0-2.6 1.1-3 2.2-.1.3-.2.8-.2 1.2v8.8h-3.8l.1-10.5zM237.9 29.9c0 1.4.1 2.7.2 3.6h-3.4l-.2-1.7h-.1c-.9 1.2-2.5 2-4.4 2-3 0-4.7-2.2-4.7-4.5 0-3.8 3.4-5.7 8.9-5.7v-.2c0-1-.4-2.6-3-2.6-1.5 0-3 .5-4 1.1l-.7-2.5c1.1-.7 3-1.3 5.4-1.3 4.8 0 6.2 3 6.2 6.3v5.5h-.2zm-3.7-3.8c-2.7-.1-5.2.5-5.2 2.8 0 1.5 1 2.2 2.1 2.2 1.5 0 2.6-1 3-2.1.1-.3.1-.6.1-.8v-2.1zM186.4 18.1c-1 0-1.8.2-2.6.7-.8.4-1.4 1-1.9 1.7h-.1v-7.2H178v20.1h3.8v-8.9c0-.4 0-.8.2-1.1.4-1.1 1.4-2.1 2.9-2.1 2.1 0 2.9 1.6 2.9 3.8v8.4h3.8v-8.8c0-4.9-2.7-6.6-5.2-6.6M160.4 13.4H156l-6.4 20.1h3.9l1.8-5.9h5.7l1.9 5.9h4.1l-6.6-20.1zm-4.6 11.3l1.9-6.2h.7l1.9 6.2h-4.5zM175.5 49.6c1 .5 2.6 1 4.2 1 1.7 0 2.7-.7 2.7-1.8 0-1-.8-1.6-2.8-2.4-2.8-1-4.6-2.5-4.6-4.9 0-2.9 2.4-5 6.3-5 1.9 0 3.3.4 4.3.8l-.8 3.1c-.7-.3-1.9-.8-3.5-.8s-2.4.7-2.4 1.6c0 1.1.9 1.5 3.1 2.4 3 1.1 4.4 2.6 4.4 5 0 2.8-2.2 5.2-6.8 5.2-1.9 0-3.8-.5-4.7-1l.6-3.2zM190.8 53.5l-4-16.8h4.1l1.3 6.9c.4 2 .7 4.2 1 5.9.3-1.8.7-3.8 1.1-5.9l1.4-6.9h4l1.3 7.1c.4 2 .6 3.8.9 5.6h.1c.2-1.9.6-3.8 1-5.8l1.4-6.9h3.9L204 53.5h-4.1l-1.4-7.2c-.3-1.7-.6-3.3-.8-5.2-.3 1.9-.6 3.5-1 5.2l-1.6 7.2h-4.3zM212.7 49.2l-1.2 4.3h-3.9l5.1-16.8h5l5.2 16.8h-4.1l-1.3-4.3h-4.8zm4.2-2.8l-1-3.6c-.3-1-.6-2.2-.8-3.2h-.1c-.2 1-.5 2.3-.8 3.2l-1 3.6h3.7zM224.3 53.5V36.7h4.4l3.5 6.1c1 1.8 2 3.9 2.7 5.7h.1c-.2-2.2-.3-4.5-.3-7v-4.9h3.5v16.8h-4l-3.6-6.5c-1-1.8-2.1-4-2.9-5.9h-.1c.1 2.2.1 4.6.1 7.3v5h-3.4v.2z"/><path class="st0" d="M172.3 65.7c.5.3 1.3.5 2 .5 1 0 1.5-.5 1.5-1.2 0-.6-.4-1-1.5-1.4-1.4-.5-2.3-1.2-2.3-2.5 0-1.4 1.2-2.4 3-2.4.9 0 1.6.2 2 .4l-.4 1.2c-.3-.2-.9-.4-1.7-.4-1 0-1.4.5-1.4 1 0 .7.5 1 1.6 1.4 1.5.6 2.2 1.3 2.2 2.5 0 1.4-1 2.5-3.2 2.5-.9 0-1.8-.3-2.3-.5l.5-1.1zM180.5 59.5c0 .5-.3.8-.9.8-.5 0-.9-.4-.9-.8 0-.5.4-.8.9-.8s.8.3.9.8zm-1.7 7.8v-6.1h1.6v6.1h-1.6zM182 58.4h1.6v8.9H182v-8.9zM186.2 61.2l1 3.1c.2.5.3 1 .4 1.5.1-.5.3-1 .4-1.5l1-3.1h1.6l-2.3 6.1h-1.5l-2.3-6.1h1.7zM192.5 64.7c0 1.1.9 1.6 1.9 1.6.7 0 1.2-.1 1.7-.3l.2 1.1c-.5.2-1.3.4-2.1.4-2 0-3.1-1.2-3.1-3.1 0-1.7 1-3.3 3-3.3s2.6 1.6 2.6 3v.7l-4.2-.1zm2.7-1.1c0-.6-.2-1.5-1.3-1.5-1 0-1.4.9-1.4 1.5h2.7zM197.9 63.2c0-.8 0-1.4-.1-2h1.3v1.2c.3-.9 1-1.3 1.7-1.3h.4v1.5c-.1 0-.3-.1-.5-.1-.7 0-1.2.5-1.4 1.2v3.7h-1.5v-4.2h.1zM206.7 64.9l-.7 2.4h-1.6l2.7-8.5h2l2.7 8.5h-1.7l-.8-2.4h-2.6zm2.4-1.1l-.7-2.1c-.2-.5-.3-1.1-.4-1.6-.1.5-.3 1.1-.4 1.6l-.7 2.1h2.2zM213.5 61.2l.6 2.8c.1.7.3 1.3.4 2 .1-.7.3-1.3.5-2l.8-2.8h1.3l.8 2.7c.2.7.4 1.4.5 2 .1-.7.2-1.3.4-2l.7-2.7h1.5l-1.9 6.1h-1.4l-.7-2.5c-.2-.6-.3-1.2-.5-2-.1.8-.3 1.4-.5 2l-.8 2.5h-1.4l-1.8-6.1h1.5zM225.3 67.3l-.1-.7c-.4.5-1 .8-1.8.8-1.2 0-1.9-.9-1.9-1.8 0-1.5 1.4-2.3 3.6-2.3v-.1c0-.4-.2-1.1-1.2-1.1-.6 0-1.2.2-1.6.5l-.3-1c.5-.3 1.2-.5 2.2-.5 2 0 2.5 1.2 2.5 2.6v2.2c0 .6 0 1.1.1 1.5h-1.5v-.1zm-.2-2.9c-1.1 0-2.1.2-2.1 1.1 0 .6.4.9.9.9.6 0 1.1-.4 1.2-.8v-1.2zM228.2 63.2c0-.8 0-1.4-.1-2h1.3v1.2h.1c.3-.9 1-1.3 1.7-1.3h.4v1.5c-.1 0-.3-.1-.5-.1-.7 0-1.2.5-1.4 1.2v3.7h-1.5v-4.2zM238.2 58.4v7.2c0 .6 0 1.3.1 1.7h-1.4l-.1-1c-.4.7-1.1 1.1-2 1.1-1.5 0-2.6-1.2-2.6-3.1 0-2 1.3-3.3 2.7-3.3.8 0 1.4.4 1.7.8v-3.5h1.6v.1zm-1.5 5.4v-.4c-.1-.6-.6-1.1-1.3-1.1-1 0-1.5.9-1.5 2s.6 1.9 1.5 1.9c.6 0 1.2-.4 1.3-1.1v-1.3z"/><path class="st5" d="M110.7 20.6l18.9-7.5s2.8-1.6 7.8 6.9c4.9 8.5 8.3 13.4 8.3 13.4s3.9 5.5 7.1 4.3c3.1-1.1-19.4 7.7-19.4 7.7s-3.4.9-7.1-6.4c-3.7-7.3-5.8-10.4-7.1-12.2-1.3-1.7-4.7-7.4-8.5-6.2"/><g class="st6"><path class="st7" d="M126.2 35.1h8.7v10.4h-8.7z"/><path class="st8" d="M126.2 38.9s0 .1 0 0c3.1 6.1 6 6.6 6.9 6.5L135 35c-.9 3.4-6 3.8-8.8 3.9"/></g><path class="st9" d="M133.2 31.2l-2.9 20.2s0 3.2-9.9 3.3c-9.8 0-15.7.5-15.7.5s-6.7.7-7.3 4c-.6 3.3 3-20.7 3-20.7s.9-3.4 9.1-3c8.1.5 11.9.2 14.1 0 2.1-.3 8.7-.5 9.6-4.3"/><g class="st6"><path class="st7" d="M103.6 35.4H116v9.7h-12.4z"/><path class="st8" d="M115.5 45.1c-2.5-2.2-.6-6.8.5-9.4-1.8 0-4-.1-6.6-.2-2.6-.1-4.5.1-5.9.5l12 9.1z"/></g><path class="st8" d="M112.7 45.9L96.5 33.6s-2.8-1.6 1.9-10.2c4.8-8.6 7.2-14 7.2-14s2.6-6.2.1-8.3c-2.6-2.1 16.6 12.7 16.6 12.7s2.5 2.5-1.8 9.4c-4.4 6.9-5.9 10.3-6.8 12.3-.8 1.9-3.9 7.8-1 10.4"/><g class="st6"><path class="st7" d="M110.7 20h11.5v8.3h-11.5z"/><path class="st9" d="M122.2 20l-11.5 4.6c2.6-.8 5 1.6 6.7 3.7.8-1.5 1.9-3.2 3.2-5.2.7-1.2 1.2-2.2 1.6-3.1"/></g><path class="st5" d="M119.2 26.9c.8 1.1 2 2.8 3.6 5.7 3.7-5.3 8.7-9.7 15.2-11.5-.2-.4-.4-.7-.7-1.1-4.9-8.5-7.8-6.9-7.8-6.9l-18.9 7.5c3.9-1.2 7.3 4.5 8.6 6.3"/></svg>