<svg xmlns="http://www.w3.org/2000/svg" width="294.7" height="283.5" viewBox="0 0 294.7 283.5"><path fill="#FFF" d="M0 136.8h294.7v9.5H0z"/><path fill="#D11242" d="M0 145.2h294.7v138.3H0z"/><path fill="#FFF" d="M69.4 235.9l6-14 5.5 14H69.4zm24.3 11.7l-14.4-32.9c-.5-1.2-.9-2.1-2.4-2.1H76l-16.6 35.3c-.3.7-.4 1.1-.4 1.7 0 .7.8.8 1.4.8h3.7c-.1-.2-.1-.6-.1-.8 0-.6.1-1.3.4-2.1l3.5-8.6h14.2l3.9 9.6c.5 1.2 1 1.8 2.4 1.8h7.1c-.6-.4-1.5-1.9-1.8-2.7m-56.9-67.3c-.7 0-1.6-.1-2.1-.1v-11.5l2.7-.1c3.5-.1 6.2 1.4 6.2 5.3 0 4.3-3 6.4-6.8 6.4m2.2-14l-9.7-.1c.4.6.6 2.8.6 4.8.1 3.9 0 7.8 0 11.6 0 2.7-.1 5.3-.1 8 0 1.2.6 2.2 1.9 2.2H35c-.3-3.2-.3-7-.3-10.4.8.1 1.7.1 2.5.1 5.5 0 11.4-2.6 11.4-8.9-.1-5.6-4.8-7.2-9.6-7.3M62.6 180h-1.5v-2.7c0-2 .1-6.8.1-8.9.8 0 1.6-.1 2.4-.1 3.5 0 6.8 2 6.8 5.8 0 4.7-4 6-7.8 5.9m5.9 1.5c3.6-1.1 6.7-3.6 6.7-7.9 0-5.7-5-7.4-9.8-7.4-2.1 0-4.4-.1-6.5-.1-1 0-2.1.1-3.2.1.3.5.6 1.2.6 1.8.2 3 .1 7.5.1 11.3 0 2.6-.1 5.3-.1 8-.1 1.3-.1 2.6-.1 3.9 0 1.2.8 1.7 1.9 1.7 1.2 0 2.4-.1 3.5-.1-.4-2.2-.5-7.1-.5-10.4H64c2.1 3.3 4.1 6.5 6.5 9.7 2 2.8 4.3 3.9 7.7 3.9h1.5c-1.7-1.3-7.6-8.9-11.2-14.5m62.7 53.3c-1.7 0-3.2.1-4.8.1v-8.4c0-5 .1-10.6.4-15.5 1.5-.1 3.1-.3 4.7-.3 7.1 0 12.7 3.7 12.7 11.3 0 7.7-5.6 12.8-13 12.8m8.7 1.9c7.2-2.3 12.4-7.9 12.4-15.8 0-10-8.9-13.6-17.6-13.6-5.6 0-11.3.1-16.9.2.7 1.2 1 4 1 5.5 0 6.8.1 13.1.1 17.8 0 13.2-.6 20.8-.6 23.3 0 1 .4 1.2 1.3 1.2 3 0 5.8-.1 8.7-.1-.4-.4-.7-1.4-.9-2.6-.6-4.4-.9-9.6-.9-14.4 1.9 0 4-.1 5.9-.1 2.4 3.9 5.5 8.4 8.9 12.9 5.2 6.8 12.3 14.7 20.5 14.7 2.1 0 4-.2 6.1-.4-9.6-3.4-22.2-19.9-28-28.6m37.1 14.6h-5.9c-1.4 0-2.1-.5-2.3-1.9-.2-1.4-.3-3.4-.3-4.8-.1-3.1-.2-7.7-.2-11.6 0-7.1.3-14.2.6-21.3 1.7-.3 3.4-.4 5.1-.4 12.3 0 20.8 7 20.8 19.9 0 11.4-5.5 20.1-17.8 20.1m-.1-43.6c-6.2 0-12.9.1-18.2.1 1 1.5 1.5 4.2 1.7 9.8.2 4.1.3 8.2.3 12.4 0 5-.1 10.1-.2 15.1-.1 2.8-.3 5.5-.3 8.2 0 1.3 1.1 2 2.3 2h13.8c15.3 0 26.8-8.5 26.8-24.6.1-16.4-10.9-23-26.2-23m66.6 52.4h-4.8c-1.2 0-1.9-.6-1.9-1.5-.3-4.6-.4-8.7-.4-13.3 0-5.7.1-11.8.5-17.3 1.5-.2 2.5-.3 4.1-.3.7 0 1.4 0 2 .1 0 5.6-.1 11.2-.4 16.8 0 1 .8 1.6 1.9 1.6h11.2c.7 0 1.4 0 2.1-.1-.8 8.1-5.2 14-14.3 14m12.6-17.2h-4.7c-1.2 0-1.8-.6-1.9-1.6-.3-4.1-.5-8.3-.5-12 5.1 2.3 8.4 7 8.7 13.6-.5-.1-1 0-1.6 0m8.4-2.4c-1-9.4-6.8-14-15.3-15.3 0-5.2.2-9.7.4-14.4 1.6-.2 2.4-.3 4.1-.3 10 0 16.9 5.9 16.9 16.2-.1 5.9-2 11-6.1 13.8m-8.2-32.9c-4.9 0-10 0-15 .1.6.8 1 2.4 1.1 3.5.3 4.6.6 9 .6 13.6-4.7 0-9.7 0-14.4.1.6.8 1 2.4 1.1 3.5.4 4.9.6 9.5.6 14.5 0 6.3-.1 12.7-.4 18.9-.1 1 .8 1.7 1.9 1.7H243c12.1 0 21.1-6.5 21.7-18.7 7.7-2.6 12.7-8.9 12.7-18.5-.1-13.5-8.7-18.7-21.1-18.7m-26.7-17c-6.2 0-9.3-5.3-9.3-10.9 0-5.7 3.1-11 9.3-11 6.3 0 9.4 5.1 9.4 11 0 6.3-2.3 10.9-9.4 10.9m0-24.7c-8.8 0-14.9 4.7-14.9 13.8 0 8.5 6.6 13.7 14.9 13.7s14.9-5.1 14.9-13.7-6.6-13.8-14.9-13.8M65.9 207.1c-4.7-2.4-10.8-3.8-16.3-3.8-18.5 0-30.8 14.9-30.8 33.2 0 17.7 13.5 29.2 30.7 29.2 5.7 0 13.4-1.7 18-5.2l-.7-5.9c-3.1 3.2-9.3 5.9-13.8 5.9-15.3 0-25.4-12.7-25.4-27.4 0-12.6 7.2-25 21-25 4.6 0 9.3 1.5 12.8 4.5 1.7 1.5 3.8 4.4 4 6.5 1.3-2 3.5-5.5 3.5-7.9 0-1.9-1.6-3.3-3-4.1m46 26.7c-2.8 1.4-6.4 1.4-10.4 1.4-1 0-1.2-.6-1.2-1.9v-9.7c3.7 0 7.7.1 10.2 1l.1-2.1c.1-1.5-.8-2-2.8-2-2.2 0-4.8.3-7.6.3 0-1.7.1-3.8.1-5.5 0-1.4.1-3.5.1-4.8 8.1 0 10.1.7 11.3 1.2v-1.5c0-1.4-1-2.7-2.6-2.7H93.8c.7.8.8 3.5.8 4.5.1 4.1.1 9.9.1 14.9 0 2.9-.1 5.9-.2 8.9-.1 1.5.3 2.4 1.9 2.4h13.1c1.4 0 2.5-.7 2.5-2.1v-2.3zm-21-55.6c0-5.3.3-6.6.3-9.9 0-1.5-.6-2.3-2.2-2.3h-3.2c.3 2.6.4 5.5.4 12.4 0 6.6-.3 8.1-.3 12.2 0 1.4.7 2.2 2.1 2.2h3.3c-.2-2.9-.4-7.4-.4-14.6m28.2-12h-15.2l.3 4.2c.1 2.6.1 8 .1 9.9 0 4.6-.2 7.1-.2 10.7 0 1.4.8 1.9 2.1 1.9h3.3c-.2-3.1-.4-6.1-.4-9.3v-3.5c2.4 0 8.5.1 10.6.7 0-1.2.3-3.6-1.5-3.6-2 0-5.5.4-9.1.4V172c0-1 .1-2.1.1-3.1 2.8 0 8.7-.1 11.4 1 .1-1.3.5-3.7-1.5-3.7m30.7-.2l-3.6.1c0 1-1.5 3.6-3 6.2-1.5 2.4-3 4.8-3.7 5.8-2.1-3.5-4.2-7-6.3-10.4-.7-1.2-1.7-1.5-3-1.5h-4.4c3.7 5.1 7.2 10.4 10.5 15.8v3c.1 2.5-.2 5.2-.2 6.6 0 1.1 1 1.4 1.8 1.4h3.7c-.4-3.8-.4-7.7-.4-11.6 1.9-3.3 4.1-6.5 6.4-9.6.9-1.4 1.9-2.7 2.8-4 .1-.3.3-.6.3-.9 0-.6-.4-.9-.9-.9m10.8 6.3c0-2.4 2.1-3.8 4.4-3.8 2.5 0 4.5 1.4 5.8 3.3.5-.8 1.5-2.1 1.5-3.3 0-2.3-5.2-2.8-6.9-2.8-4.6 0-9.2 2.6-9.2 7.6 0 9 12.6 6.5 12.6 12.4 0 2.8-2 4.6-4.8 4.6-2.9 0-6.1-1.6-7.7-3.9-.2 1-.7 2.1-.7 3.2s.4 1.9 1.5 2.4c1.7.9 3.8 1.3 5.7 1.3 5.3 0 10.4-3 10.4-8.8 0-8.5-12.6-6-12.6-12.2m70.5 40.2h-4.4c.1.6-.1 1.7-.3 2.2-.9 1.9-2 3.8-3 5.7-1.2 2.1-3.3 5.7-4.4 7.4-2.7-4.4-5-8.9-7.4-13.3-.6-1-1.5-1.9-3.5-1.9h-5.4c4.6 6.6 8.2 12.7 12.1 19.2 0 3.8.1 8.7-.3 12.7-.1 1.2.7 1.9 2.2 1.9h4.9c-.5-4.8-.5-10.3-.5-14.9 3.2-5.7 6.8-11.1 10.8-16.9.3-.4.4-.8.3-1.2 0-.5-.3-.9-1.1-.9m-26.2-32.8l-3 .1c.3 1 .3 3.9.3 5.8 0 1.3-.1 2.6-.1 3.9-1.6.7-4 .9-5.7.9-6.4 0-10.2-4.6-10.2-10.7 0-6.2 3.5-11 10-11 3.5 0 7.2 2.1 8.9 3.7l.8-2.3c.3-1.2-.1-2-.9-2.4-2.8-1.2-5-1.8-8.9-1.8-9 0-15.6 4.2-15.6 13.8 0 9.1 6.7 13.7 15.3 13.7 3.2 0 7.8-.9 11.1-1.9V188c0-2.1 0-4.1.1-6.3.2-1.1-.6-2.1-2.1-2m63.8 9.2c-1.6 1-7.7 1-11.5 1-.1-4.5-.1-9.4-.1-14 0-2.5.1-5.2.2-7.8.1-1.3-.3-2-2.7-2h-2.8c.2 3.4.3 6.7.3 9.9v7.3c0 2.6-.1 5.1-.2 7.7-.1 1 .1 2 2.5 2h12.4c1 0 1.8-1.2 1.8-1.9v-2.2z"/><path fill="#D11242" d="M0 0h294.7v138.3H0z"/><path fill="#FFF" d="M115.8 47.6c-1.7 0-3.2.1-4.8.1v-8.4c0-5 .1-10.6.4-15.5 1.5-.1 3.1-.3 4.7-.3 7.1 0 12.7 3.7 12.7 11.3 0 7.8-5.6 12.8-13 12.8m8.7 2c7.2-2.3 12.4-8 12.4-15.8 0-10-8.9-13.6-17.6-13.6-5.6 0-11.3.1-16.9.2.7 1.2 1 4 1 5.5 0 6.8.1 13.1.1 17.8 0 13.2-.6 20.8-.6 23.3 0 1 .4 1.2 1.3 1.2 3 0 5.8-.1 8.7-.1-.4-.4-.7-1.4-.9-2.6-.6-4.4-.9-9.6-.9-14.5 1.9 0 4-.1 5.9-.1 2.4 3.9 5.5 8.4 8.9 12.9 5.2 6.8 12.3 14.7 20.5 14.7 2.1 0 4-.2 6.1-.4-9.6-3.4-22.2-19.8-28-28.5m-52.3-1.1l6.1-14 5.5 14H72.2zm24.3 11.8L82.1 27.4c-.6-1.2-.9-2.1-2.3-2.1l-.9.1-16.6 35.2c-.3.8-.4 1.1-.4 1.7 0 .6.8.8 1.4.8H67c-.1-.2-.1-.6-.1-.8 0-.6.1-1.3.4-2.1l3.5-8.6H85l3.9 9.7c.5 1.2 1 1.7 2.4 1.7h7.1c-.7-.5-1.5-2-1.9-2.7m71.2 44.1h-1.5v-2.7c0-2 .1-6.8.2-8.9.8 0 1.5-.1 2.3-.1 3.5 0 6.8 2 6.8 5.8 0 4.6-4 5.9-7.8 5.9m5.9 1.4c3.6-1 6.7-3.5 6.7-7.8 0-5.7-5-7.4-9.8-7.4-2.1 0-4.3-.1-6.5-.1-1 0-2.1 0-3.2.1.4.5.6 1.2.6 1.8.2 3 .1 7.5.1 11.2 0 2.7-.1 5.4-.1 8-.1 1.2-.1 2.6-.1 3.8 0 1.3.8 1.7 1.9 1.7s2.4-.1 3.5-.1c-.4-2.2-.5-7.1-.5-10.4h2.8c2.1 3.3 4.1 6.4 6.5 9.7 2 2.8 4.3 3.9 7.7 3.9h1.4c-1.5-1.2-7.3-8.8-11-14.4m-10.7-41.7H157c-1.5 0-2.1-.5-2.4-1.9-.3-1.4-.3-3.3-.3-4.8-.1-3.1-.2-7.7-.2-11.6 0-7.1.3-14.2.6-21.4 1.7-.3 3.5-.3 5.2-.3 12.3 0 20.7 7 20.7 19.9 0 11.3-5.4 20.1-17.7 20.1m-.1-43.6c-6.2 0-12.9.1-18.2.1 1 1.5 1.4 4.3 1.7 9.9.3 4.1.3 8.2.3 12.4 0 5-.1 10-.2 15.1-.1 2.8-.3 5.5-.3 8.3 0 1.2 1.1 2 2.3 2h13.8c15.4 0 26.9-8.5 26.9-24.6 0-16.7-10.9-23.2-26.3-23.2M52.1 90.4h-2.5c.4 2.8.5 4.6.5 7.5 0 1.6-.1 4.5-.1 6.8 0 5.5-1.7 9.7-8 9.7-7.3 0-8.1-4.4-8.1-10.6 0-4 .4-8.7.4-12.1 0-.9-.6-1.2-1.5-1.2H29c.2 3 .3 4.9.3 9.5 0 1.9-.1 4.6-.1 6.6 0 8 4.5 11.1 12.1 11.1 7.3 0 11.8-3.9 12.1-11.3.2-7.1.6-12.2.6-14.5-.1-1.2-.9-1.5-1.9-1.5m33.1.2h-2.8c.2 4.5.3 9 .3 13.5v4.6c-6.5-6-12.5-12.2-18.9-18.4h-1.9c.1 1.2.1 2.6.1 3.9 0 5.2.1 12.2-.2 15.6-.2 3.5-.5 4.4-.5 6.4 0 .9.5 1.2 1.4 1.2 1 0 1.9-.1 3-.1-.4-2.8-.5-5.7-.5-8.6 0-3.3.1-6.4.1-9.7 6.4 6.3 12.8 12.2 18.9 18.8h1.9c-.1-4.5-.2-9-.2-13.4 0-2.5.2-4.8.3-7.1.1-1.9.3-4.1.3-5.3 0-1-.5-1.4-1.3-1.4m14.5 12c0-5.3.3-6.6.3-9.9 0-1.5-.5-2.3-2.1-2.3h-3.2c.3 2.6.4 5.5.4 12.4 0 6.6-.3 8.2-.3 12.2 0 1.4.7 2.2 2.1 2.2h3.2c-.3-3-.4-7.5-.4-14.6M66 19.8C61.4 17.4 55.3 16 49.8 16c-18.6 0-30.9 15-30.9 33.2 0 17.8 13.5 29.2 30.7 29.2 5.7 0 13.4-1.7 18-5.2l-.6-5.9c-3.1 3.3-9.3 5.9-13.9 5.9-15.2 0-25.4-12.6-25.4-27.4 0-12.6 7.2-25 21-25 4.6 0 9.3 1.5 12.8 4.5 1.6 1.4 3.8 4.3 4 6.5 1.3-2.1 3.5-5.6 3.5-8 .1-1.8-1.5-3.2-3-4m65.5 70.6h-3.7c.3 1-.5 3.4-.9 4.3-2.1 5.1-4.8 11.5-7 15.9-1.4-2.9-3.5-8.1-5.2-12.2-.9-2.1-1.6-3.9-2.5-6-.7-1.6-1.7-1.9-3.4-1.9-1 0-2.3-.1-3.4-.1 4.1 8.9 8.3 17.8 12 26.9h3.5c3.5-8.6 7.5-16.9 11.5-25.3.1-.1.1-.3.1-.5-.1-.6-.4-1.1-1-1.1m22.1 22.8c-2.1 1-5.7 1.1-8.1 1.1h-1.9c-1 0-1-.6-1-1.5-.1-.7-.1-5.6-.1-6.3v-2.1c2.7 0 7.3.1 9.7.8.1-.7.1-1.5.1-2.1 0-1.2-.9-1.6-2-1.6-2.6 0-5.3.3-7.9.3v-4.6c0-1.3.1-2.7.2-4.1 2.6 0 8.3 0 10.6 1 0-1.6 0-3.7-2.3-3.7H137c.3.3.5 1.1.6 1.5.2 3.2.2 6.5.2 9.7 0 4.5-.2 9-.2 13.5 0 1.1.3 1.8 1.6 1.8h12.4c1.2 0 2.1-.6 2.1-1.9v-1.8zm38.6-16.6c0-2.4 2.1-3.7 4.4-3.7 2.5 0 4.5 1.3 5.8 3.2.5-.8 1.5-2.1 1.5-3.3 0-2.3-5.2-2.8-6.8-2.8-4.7 0-9.3 2.5-9.3 7.5 0 9 12.6 6.5 12.6 12.4 0 2.8-2 4.6-4.8 4.6-2.9 0-6.2-1.7-7.7-4-.2 1-.7 2.1-.7 3.2s.4 1.9 1.4 2.4c1.7.9 3.8 1.4 5.7 1.4 5.3 0 10.4-3 10.4-8.9 0-8.3-12.5-5.7-12.5-12m24.3 6c0-5.3.3-6.6.3-9.9 0-1.5-.6-2.3-2.2-2.3h-3.2c.3 2.6.4 5.5.4 12.4 0 6.6-.3 8.2-.3 12.2 0 1.4.7 2.2 2.1 2.2h3.3c-.3-3-.4-7.5-.4-14.6m26.9-12h-19.6c-1.4 0-2.9.8-2.9 2.4v1.5c2-.4 6.4-.5 8.8-.5.1 3.2.1 6.3.1 9.5 0 5.5-.3 8-.3 12 0 1.4.8 1.8 2.1 1.8h3.3c-.4-3.8-.4-7.6-.4-13.6 0-3.2-.1-7.3.1-9.7 2.6 0 5.2.3 7.1.3 1.3 0 1.7-1.3 1.7-2.4v-1.3zm26.1-.1l-3.5.1c-.1.9-1.5 3.6-3 6.2-1.5 2.4-3 4.8-3.7 5.7-2.2-3.4-4.2-6.9-6.4-10.4-.7-1.2-1.6-1.5-2.9-1.5h-4.4c3.8 5.1 7.3 10.4 10.6 15.8v3c0 2.6-.3 5.1-.3 6.6 0 1 1 1.4 1.9 1.4h3.6c-.3-3.8-.4-7.6-.4-11.5 1.9-3.3 4.1-6.5 6.4-9.6 1-1.4 1.9-2.7 2.8-4 .2-.3.3-.6.3-.9 0-.7-.5-.9-1-.9M203.9 45c0-3.9.1-7.9.2-11.8.1-2.1.3-4.2.3-6.3 0-1-1-1.6-1.9-1.6h-6.6c1 4.9.9 13.1.9 18.3 0 3.8-.1 7.7-.2 11.5 0 1.7-.1 3.6-.1 5.3 0 1.3.8 2.3 2.1 2.3 2.1 0 4.2-.1 6.4-.1-1-3.1-1.1-13.9-1.1-17.6m34.7-24.7H214c1.4 2.4 1.3 19.6 1.3 23.1 0 7.4-.7 18-.7 22.2 0 1.4.6 2.7 2.2 2.7h7.3c-.7-1.9-1-5.2-1.2-9.5-.1-3.9-.1-8.6-.1-14 1 0 3-.2 4.3-.2 3.9 0 7.7.1 11.3 1.6 0-1 .3-2.1.3-3.1 0-1.6-1.4-2.3-2.8-2.3H223c0-5.5.3-10.9.5-16.3 1.6 0 3.2-.1 4.8-.1 4.5 0 10.9.1 14.9 2v-.2c-.1-3.2-1-5.9-4.6-5.9m36.4-3.1h-28.5c1 5.6 1.1 15.8 1.1 27.5 0 9.5-.8 25.5-.8 28.3 0 1.8 1 2.8 2.8 2.8h7.3c-.5-1.1-.7-2.8-.8-4-.6-8.5-.8-17.1-.8-25.6 1.2-.1 3.9-.3 4.4-.3 4.1 0 9.7 0 13.5 1.6.3-.9.8-1.9.8-2.8 0-2.1-2.2-2.6-3.9-2.6h-14.7c0-6.9.3-13.8.6-20.7h4.6c4.1 0 14.7 0 18 2 .3-1 .3-2.1.3-3.2-.2-2-1.9-3-3.9-3"/></svg>