<svg version="1.1" id="Layer_1" xmlns="http://www.w3.org/2000/svg" x="0" y="0" width="301.1" height="283.5" viewBox="0 0 301.1 283.5" xml:space="preserve"><style>.st2{fill:#007b7f}</style><linearGradient id="SVGID_1_" gradientUnits="userSpaceOnUse" x1="114.148" y1="135.621" x2="191.939" y2="60.34"><stop offset="0" stop-color="#ffec00"/><stop offset="1" stop-color="#007375"/></linearGradient><path d="M261.4 33.2c0-18.3-14.9-33.2-33.2-33.2-17 0-31 12.8-33 29.3-12.5-6.2-26.9-9.6-42.1-9.6-22.9 0-43.7 7.8-59.3 20.7l14.4 14.4C120 45 135.8 39 153.1 39c36.3 0 65.8 26.3 65.8 58.7 0 17.9-8.9 33.9-23 44.6l14.4 14.5c18.5-14.3 30.2-35.5 30.2-59.1 0-11.3-2.7-22-7.5-31.7 16.1-2.3 28.4-16.1 28.4-32.8z" fill="url(#SVGID_1_)"/><linearGradient id="SVGID_2_" gradientUnits="userSpaceOnUse" x1="113.474" y1="134.926" x2="191.266" y2="59.643"><stop offset="0" stop-color="#ffec00"/><stop offset="1" stop-color="#007375"/></linearGradient><path d="M153.1 156.5c-15.1 0-29-4.5-40.1-12.2 1 .2 2.2.4 3.3.4 7.7 0 13.9-6.3 13.9-13.9 0-7.7-6.3-14-13.9-14-7.7 0-14 6.3-14 14 0 2 .4 3.9 1.2 5.6-10.1-10.4-16.2-23.9-16.2-38.7 0-14.5 5.9-27.8 15.7-38.1L88.5 45.1C74.3 59 65.7 77.5 65.7 97.7c0 43.1 39.1 78.1 87.4 78.1 19.1 0 36.8-5.5 51.2-14.8l-14.5-14.5c-10.5 6.3-23.1 10-36.7 10z" fill="url(#SVGID_2_)"/><path class="st2" d="M21.3 212.6h-9.4c-.6 0-1 .1-1.2.4-.2.2-.4.6-.3 1.2v2.4c0 .6.1 1 .3 1.2.2.2.6.3 1.2.3h4.7v1.4c0 .7-.2 1.2-.6 1.7-.4.5-1 .9-1.7 1.2-.8.3-1.7.5-2.8.5-1.7 0-3-.4-3.8-1.1-.9-.8-1.3-2-1.3-3.5v-7.9c0-1.5.5-2.7 1.3-3.5.9-.8 2.1-1.2 3.8-1.2 1.3 0 2.3.2 3.1.7.8.5 1.4 1.2 1.7 2.1.1.4.3.6.5.8.2.2.4.3.6.3.2 0 .5 0 .9-.1l3-1.1c.6-.2.9-.4 1.1-.7.1-.3.1-.7-.1-1.2-.8-2.1-2-3.7-3.8-4.8-1.8-1.1-4.1-1.7-7-1.7-2.5 0-4.5.4-6.2 1.3-1.7.8-3 2-3.8 3.6-.9 1.5-1.4 3.4-1.4 5.5v7.8c0 2.2.5 4 1.4 5.6.9 1.5 2.2 2.7 3.8 3.6 1.7.9 3.8 1.3 6.2 1.3 1.8 0 3.5-.2 4.9-.7 1.4-.5 2.6-1.1 3.6-1.9 1-.9 1.7-1.8 2.2-2.9.5-1.1.7-2.3.7-3.7v-5.3c0-.6-.1-1-.4-1.2-.2-.3-.6-.4-1.2-.4zm13 14.1V201c0-.5-.1-.9-.3-1.1-.2-.2-.6-.3-1.1-.3h-3c-.5 0-.9.1-1.1.3-.2.2-.3.6-.3 1.1v25.7c0 .6.1.9.3 1.1.2.2.6.3 1.1.3h3c.6 0 .9-.1 1.1-.3.1-.2.3-.5.3-1.1zm5.4-11.1v5c0 1.7.4 3.1 1 4.3.7 1.2 1.7 2.1 3.1 2.8 1.4.7 3.1 1 5.1 1 2 0 3.7-.3 5.1-1 1.4-.6 2.4-1.6 3.1-2.8.7-1.2 1-2.7 1-4.3v-5c0-1.7-.4-3.1-1-4.4-.7-1.2-1.7-2.1-3.1-2.8-1.4-.7-3.1-1-5.1-1-2 0-3.7.3-5.1 1-1.4.6-2.4 1.6-3.1 2.8-.7 1.3-1 2.7-1 4.4zm12.6-.1v5.1c0 .9-.3 1.6-.9 2.1-.6.5-1.4.7-2.6.7-1.1 0-2-.2-2.5-.7-.6-.5-.9-1.2-.9-2.1v-5.1c0-1 .3-1.7.9-2.2.6-.5 1.4-.7 2.5-.7s2 .2 2.6.7c.6.6.9 1.3.9 2.2zm15.6-16h-3c-.5 0-.9.1-1.1.3-.2.2-.3.6-.3 1.1v24.3c0 .4 0 .7.1 1 .1.2.2.4.4.6.2.2.5.4.9.6.5.2 1.1.4 1.8.6.7.2 1.6.4 2.5.5 1 .1 2 .2 3.1.2 3.1 0 5.3-.7 6.8-2.2 1.5-1.4 2.3-3.5 2.2-6.3v-4.8c0-1.7-.3-3.1-.9-4.3-.6-1.2-1.5-2.1-2.8-2.7-1.2-.6-2.8-.9-4.7-.9-.7 0-1.3 0-1.9.1-.6.1-1.2.1-1.7.3V201c0-.5-.1-.9-.3-1.1-.2-.3-.5-.4-1.1-.4zm7.5 16v4.8c0 1.1-.3 1.9-.9 2.4-.6.5-1.5.8-2.7.8-.4 0-.9 0-1.3-.1-.4 0-.8-.1-1.2-.2 0 0-.1 0-.1-.1v-10c.4-.1.8-.2 1.3-.3.5-.1 1-.1 1.6-.1 1 0 1.8.2 2.4.7.7.5.9 1.2.9 2.1zm11.1-4c-.2.5-.3 1-.2 1.3.1.3.5.6 1 .8l2.1.9c.3.1.6.2.8.2.2 0 .4-.1.6-.2.1-.1.4-.4.5-.6.4-.5.8-.8 1.3-1.1.5-.2 1.2-.4 1.9-.4 1.1 0 1.8.2 2.3.7.5.5.7 1.2.7 2.1v.9h-2.7c-1.6 0-3 .1-4.1.3-1.1.2-2.1.6-2.8 1-.7.5-1.2 1.1-1.6 2-.4.8-.5 1.8-.5 3.1 0 1 .1 1.9.4 2.7.2.8.7 1.5 1.4 2 .6.5 1.6 1 2.7 1.2 1.1.3 2.6.4 4.4.4 1.7 0 3.1-.1 4.3-.3 1.2-.2 2.2-.4 3-.7.4-.1.7-.3.9-.5.2-.2.4-.4.4-.7.1-.2.1-.6.1-1.1v-9.9c0-1.2-.1-2.3-.4-3.3-.3-1-.7-1.9-1.4-2.6-.7-.7-1.5-1.3-2.7-1.7-1.1-.4-2.5-.6-4.1-.6-2.1 0-3.8.4-5.2 1-1.4.8-2.4 1.8-3.1 3.1zm11.1 9v3.3c0 .1 0 .1-.1.2 0 0-.1.1-.2.1-.2.1-.6.1-1.1.1h-1.9c-.7 0-1.3-.1-1.6-.2-.4-.1-.6-.4-.8-.7-.1-.3-.2-.6-.2-1s0-.6.2-.9c.1-.3.4-.5.8-.7.4-.1.9-.3 1.7-.3h2.3c.3.1.6.1.9.1zm17.4 6.2V201c0-.5-.1-.9-.3-1.1-.2-.2-.6-.3-1.1-.3h-3c-.5 0-.9.1-1.1.3-.2.2-.3.6-.3 1.1v25.7c0 .6.1.9.3 1.1.2.2.6.3 1.1.3h3c.5 0 .9-.1 1.1-.3.2-.2.3-.5.3-1.1zm47.4-26h-2.7c-.4 0-.7 0-1 .1-.2.1-.4.2-.6.4-.1.2-.3.4-.5.7l-7.1 13.1-7.1-13.1c-.2-.3-.4-.5-.5-.7-.2-.2-.4-.3-.6-.4-.3-.1-.6-.1-1-.1h-2.5c-.6 0-1 .1-1.2.4-.2.2-.4.6-.4 1.2v24.4c0 .6.1 1 .4 1.2.2.2.6.4 1.2.4h2.8c.6 0 1-.1 1.2-.4.2-.2.4-.6.4-1.2V218v-1.9c0-.6-.1-1.3-.2-2s-.2-1.4-.4-2.2c-.2-.8-.4-1.7-.6-2.7h.4c.4 1.4.8 2.7 1.3 3.9.4 1.2 1 2.3 1.6 3.3l2.8 4.9c.1.3.3.5.5.7.1.2.3.3.5.4.2.1.5.1.8.1h1.8c.3 0 .6-.1.8-.1.2-.1.4-.2.5-.4.1-.1.3-.4.4-.6l2.7-4.9c.6-1.1 1.1-2.2 1.7-3.4.5-1.2 1-2.5 1.4-3.8h.4c-.3 1.3-.6 2.4-.7 3.5-.2 1-.3 2-.4 2.8-.1.9-.1 1.7-.1 2.5v8.8c0 .6.1 1 .4 1.2.2.2.6.4 1.2.4h2.9c.6 0 1-.1 1.2-.4.2-.2.4-.6.4-1.2v-24.4c0-.6-.1-1-.4-1.2-.6-.5-1.1-.6-1.7-.6zm7.8 10.8c-.3.5-.3 1-.2 1.3.1.3.5.6 1 .8l2.1.9c.4.1.6.2.9.2.2 0 .4-.1.6-.2.2-.1.4-.4.6-.6.4-.5.7-.8 1.3-1.1.5-.2 1.2-.4 1.9-.4 1.1 0 1.8.2 2.3.7.5.5.7 1.2.7 2.1v.9h-2.7c-1.6 0-3 .1-4.1.3-1.1.2-2.1.6-2.8 1-.7.5-1.2 1.1-1.6 2-.4.8-.5 1.8-.5 3.1 0 1 .1 1.9.4 2.7.3.8.7 1.5 1.4 2 .6.5 1.6 1 2.7 1.2 1.1.3 2.6.4 4.3.4 1.7 0 3.1-.1 4.4-.3 1.2-.2 2.2-.4 3-.7.4-.1.7-.3.9-.5.2-.2.4-.4.5-.7.1-.2.1-.6.1-1.1v-9.9c0-1.2-.1-2.3-.4-3.3-.3-1-.7-1.9-1.4-2.6-.7-.7-1.6-1.3-2.7-1.7-1.1-.4-2.5-.6-4.1-.6-2.1 0-3.8.4-5.2 1-1.7.8-2.7 1.8-3.4 3.1zm11.1 9v3.3c0 .1 0 .1-.1.2-.1 0-.1.1-.2.1-.2.1-.6.1-1.1.1h-2c-.7 0-1.2-.1-1.6-.2-.4-.1-.6-.4-.7-.7-.1-.3-.2-.6-.2-1s0-.6.2-.9c.1-.3.4-.5.8-.7.4-.1.9-.3 1.7-.3h2.3c.3.1.6.1.9.1zm17.7-17.1h-3c-.5 0-.9.1-1.1.3-.2.2-.3.6-.3 1.1v3.2h-2.1c-.5 0-.9.1-1.1.3-.2.2-.3.6-.3 1.1v2.3c0 .5.1.9.3 1.1.2.2.6.3 1.1.3h2.1v6.7c0 1.7.2 3.1.5 4.3.4 1.1.9 2.1 1.7 2.7.8.7 1.7 1.1 2.9 1.4 1.2.3 2.6.4 4.3.3.4 0 .6-.1.9-.1.2-.1.4-.2.5-.5.1-.2.1-.5.1-.9v-2.5c0-.6-.1-.9-.3-1.1-.2-.2-.6-.3-1.1-.3-.6 0-1.2 0-1.6-.1-.5-.1-.8-.3-1.1-.5-.3-.2-.5-.6-.6-1.1-.1-.5-.2-1.1-.2-1.8v-6.5h3.6c.5 0 .9-.1 1.1-.3.2-.2.3-.6.3-1.1v-2.3c0-.5-.1-.9-.3-1.1-.2-.2-.6-.3-1.1-.3h-3.6v-3.2c0-.5-.1-.9-.3-1.1-.5-.2-.8-.3-1.3-.3zm10.6 12.6v4.1c0 1.2.2 2.3.5 3.4.4 1 .9 2 1.6 2.7.7.8 1.7 1.4 2.9 1.8 1.2.4 2.6.6 4.2.6 2.2 0 4-.3 5.4-.9 1.4-.6 2.5-1.5 3.1-2.7.3-.5.4-1 .4-1.3-.1-.4-.4-.7-1-1l-1.9-1c-.4-.2-.7-.3-1-.3-.2 0-.5 0-.7.2-.2.1-.4.4-.6.7-.4.5-.8.8-1.4 1.1-.6.3-1.4.4-2.3.4-1.1 0-1.9-.2-2.6-.7-.6-.5-.9-1.3-.9-2.3v-1h10.8c.7 0 1.2-.2 1.6-.5.3-.4.5-.8.4-1.4v-2.4c0-1.1-.2-2.2-.5-3.1-.4-1-1-1.9-1.7-2.6-.8-.8-1.7-1.4-2.9-1.8-1.2-.4-2.6-.6-4.2-.6-2 0-3.7.3-5.1 1-1.4.7-2.4 1.6-3.1 2.9-.7 1.3-1 2.9-1 4.7zm12.7-.9v.6h-6.9v-.6c0-1 .3-1.7.9-2.2.6-.5 1.5-.8 2.6-.8s2 .3 2.6.8c.5.5.8 1.2.8 2.2zm19.9-7.6c-1.8.1-3.3.2-4.5.4-1.2.2-2.2.5-3 .7-.4.2-.7.4-1 .5-.2.2-.4.4-.5.7-.1.3-.1.6-.1 1.1v15.8c0 .6.1.9.3 1.1.2.2.6.3 1.1.3h3c.5 0 .9-.1 1.1-.3.2-.2.3-.6.3-1.1v-13.5-.2s.1-.1.2-.1c.4-.1.9-.2 1.3-.2h2.9c.5 0 .9-.1 1.1-.3.2-.2.3-.6.3-1.1v-2.4c0-.5-.1-.9-.3-1.1-.2-.2-.6-.3-1.1-.3h-1.1zm8.5 1.3c-.4.1-.7.3-1 .5-.2.2-.4.4-.5.7-.1.2-.1.6-.1 1v15.6c0 .6.1.9.3 1.1.2.2.6.3 1.1.3h3c.5 0 .9-.1 1.1-.3.2-.2.3-.6.3-1.1v-13.4-.1h.1c.4-.1.8-.2 1.3-.3.4-.1.9-.1 1.4-.1 1.1 0 2 .2 2.5.7.5.5.8 1.2.8 2.2v11.1c0 .6.1.9.3 1.1.2.2.6.3 1.1.3h3c.5 0 .9-.1 1.1-.3.2-.2.3-.6.3-1.1v-11.2c0-1.7-.3-3.1-.9-4.3-.6-1.2-1.5-2.1-2.7-2.7-1.2-.6-2.8-.9-4.7-.9-1.3 0-2.4.1-3.4.2s-1.9.3-2.6.5c-.6.1-1.2.3-1.8.5zm21.9 2.7c-.3.5-.3 1-.2 1.3.1.3.5.6 1 .8l2.1.9c.4.1.6.2.9.2.2 0 .4-.1.6-.2.2-.1.4-.4.6-.6.3-.5.7-.8 1.3-1.1.5-.2 1.2-.4 1.9-.4 1.1 0 1.8.2 2.3.7.5.5.7 1.2.7 2.1v.9h-2.7c-1.6 0-3 .1-4.1.3-1.1.2-2.1.6-2.8 1-.7.5-1.3 1.1-1.6 2-.4.8-.5 1.8-.5 3.1 0 1 .1 1.9.4 2.7.3.8.7 1.5 1.4 2 .6.5 1.5 1 2.7 1.2 1.1.3 2.6.4 4.3.4 1.7 0 3.1-.1 4.4-.3 1.2-.2 2.2-.4 3-.7.4-.1.7-.3.9-.5.2-.2.4-.4.5-.7.1-.2.1-.6.1-1.1v-9.9c0-1.2-.1-2.3-.4-3.3-.3-1-.8-1.9-1.4-2.6-.7-.7-1.6-1.3-2.7-1.7-1.1-.4-2.5-.6-4.1-.6-2.1 0-3.8.4-5.2 1-1.7.8-2.7 1.8-3.4 3.1zm11.1 9v3.3c0 .1 0 .1-.1.2-.1 0-.1.1-.2.1-.2.1-.6.1-1.1.1h-2c-.7 0-1.2-.1-1.6-.2-.4-.1-.6-.4-.7-.7-.1-.3-.2-.6-.2-1s.1-.6.2-.9c.1-.3.4-.5.8-.7.4-.1.9-.3 1.7-.3h2.3c.3.1.6.1.9.1zm17.4 6.2V201c0-.5-.1-.9-.3-1.1-.2-.2-.6-.3-1.1-.3h-3c-.5 0-.9.1-1.1.3-.2.2-.3.6-.3 1.1v25.7c0 .6.1.9.3 1.1.2.2.6.3 1.1.3h3c.5 0 .9-.1 1.1-.3.2-.2.3-.5.3-1.1zM23.9 255.2c0 1.4.2 2.6.7 3.6.4 1 1 1.7 1.8 2.3.7.6 1.6 1.1 2.5 1.4.9.3 1.9.6 2.9.7 1 .2 2 .3 2.9.4.7.1 1.4.2 2 .3.6.1 1.2.3 1.7.5s.9.5 1.1.8c.2.3.4.7.4 1.2 0 1.1-.4 1.8-1.3 2.3-.9.5-2.2.7-3.8.7-1.2 0-2.3-.2-3.1-.7-.9-.5-1.5-1.1-1.9-2-.1-.4-.3-.7-.5-.9-.2-.2-.4-.3-.6-.3-.2 0-.5 0-.9.2l-2.8 1c-.5.2-.9.4-1 .7-.2.3-.1.7 0 1.3.5 1.4 1.2 2.5 2.1 3.5 1 .9 2.1 1.6 3.6 2.1s3.2.7 5.2.7c1.8 0 3.4-.2 4.8-.6 1.4-.4 2.6-1 3.6-1.8s1.8-1.7 2.3-2.8c.5-1.1.8-2.3.8-3.6 0-1.4-.2-2.5-.6-3.5-.4-.9-1-1.7-1.6-2.3-.7-.6-1.5-1.1-2.3-1.5-.9-.4-1.7-.6-2.7-.9-.9-.2-1.8-.3-2.8-.4-.8-.1-1.5-.2-2.2-.3-.7-.1-1.3-.3-1.8-.5s-.9-.5-1.2-.8c-.3-.3-.5-.7-.5-1.2 0-.9.4-1.6 1.1-2.1.7-.4 1.9-.6 3.4-.6.8 0 1.5.1 2.1.3.6.2 1.1.5 1.5.9.4.4.7.9 1 1.4.2.4.4.6.5.8.2.2.4.2.6.2.2 0 .5-.1.8-.2l3-1.3c.5-.2.9-.5 1-.8.1-.3.1-.7-.2-1.3-.6-1.2-1.3-2.3-2.2-3.1-.9-.9-2-1.5-3.3-1.9-1.3-.4-2.9-.6-4.8-.6-1.8 0-3.4.2-4.8.7-1.4.4-2.5 1-3.4 1.8-.9.8-1.6 1.7-2.1 2.7-.8 1.1-1 2.2-1 3.5zm26.7 7.3v4.1c0 1.2.2 2.3.5 3.4.4 1 .9 1.9 1.6 2.7.7.8 1.7 1.4 2.8 1.8 1.2.4 2.6.6 4.3.7 2.2 0 4-.4 5.4-1 1.4-.6 2.4-1.5 3.1-2.7.3-.5.4-1 .3-1.3-.1-.4-.4-.7-.9-1l-1.9-1c-.4-.2-.7-.3-.9-.3-.2 0-.5 0-.7.2-.2.1-.4.4-.6.6-.3.5-.8.9-1.4 1.1-.6.2-1.4.4-2.2.4-1.1 0-2-.3-2.6-.7-.6-.5-.9-1.3-.9-2.3v-1h10.8c.7 0 1.2-.2 1.6-.5.3-.3.4-.8.4-1.4V262c0-1.1-.2-2.2-.6-3.2-.4-1-.9-1.9-1.7-2.6-.8-.7-1.7-1.4-2.9-1.8-1.2-.4-2.6-.6-4.2-.6-2 0-3.7.4-5.1 1-1.4.6-2.4 1.6-3.1 2.9-.7 1.3-1.1 2.9-1.1 4.8zm12.8-1v.6h-6.9v-.6c0-1 .3-1.7.9-2.2.6-.5 1.4-.7 2.6-.7 1.1 0 2 .2 2.6.7.5.5.8 1.2.8 2.2zm12.5-6.4c-.4.1-.7.3-1 .5-.2.2-.4.4-.5.7-.1.2-.1.6-.1 1v24.3c0 .5.1.9.3 1.1.2.2.6.3 1.1.3h3c.5 0 .9-.1 1.1-.3.2-.2.3-.6.3-1.1v-6.8c.5.1 1 .2 1.5.2s1 .1 1.6.1c3 0 5.2-.7 6.7-2.2 1.5-1.4 2.2-3.5 2.2-6.3v-4.9c0-1.7-.3-3.1-.9-4.3-.6-1.2-1.6-2.1-2.8-2.7-1.2-.6-2.8-1-4.7-1-1.3 0-2.4.1-3.4.2s-1.8.3-2.6.4c-.7.4-1.3.6-1.8.8zm10.4 6.8v4.8c0 1.1-.3 1.9-.9 2.4-.6.5-1.5.8-2.6.8-.5 0-.9 0-1.4-.1-.4-.1-.9-.1-1.2-.2v-10.1-.1c0-.1.1-.1.1-.1.4-.1.8-.1 1.2-.2.5 0 .9-.1 1.5-.1 1.1 0 1.8.3 2.4.7.6.6.8 1.3.9 2.2zM96.8 260.3c0 1.2.2 2.2.7 3 .4.8 1 1.4 1.8 1.8.7.5 1.6.8 2.5 1 1 .2 2 .4 3 .5 1 .1 1.8.2 2.4.3.6.1 1 .3 1.3.5.2.2.4.6.4 1 0 .6-.3 1-.9 1.2-.5.2-1.4.4-2.5.4-1 0-1.8-.1-2.3-.4-.5-.2-1-.6-1.2-1.1-.1-.4-.3-.6-.5-.7-.2-.1-.4-.2-.6-.2-.2 0-.5.1-.8.2l-2.4.8c-.5.1-.8.4-1 .7-.1.3-.1.7.1 1.2.6 1.5 1.6 2.6 3.1 3.4 1.5.8 3.4 1.2 5.8 1.2 1.9 0 3.5-.3 4.8-.9 1.3-.6 2.3-1.4 2.9-2.3.7-1 1-2.2 1-3.5 0-1.1-.2-2.1-.5-2.8-.4-.8-.9-1.4-1.6-1.8-.7-.5-1.6-.9-2.6-1.1-1-.2-2.2-.4-3.4-.5-.9-.1-1.6-.2-2.2-.3-.5-.1-.9-.3-1.2-.5-.2-.2-.4-.5-.4-.9 0-.3.1-.6.3-.8s.5-.4.9-.5c.4-.1 1-.1 1.7-.1.6 0 1.2.1 1.6.2.4.1.8.3 1.1.5.3.2.5.5.7.7.2.3.4.5.6.7.1.1.4.2.6.2.2 0 .5-.1.9-.2l2.3-1c.5-.2.9-.5 1-.8.1-.3 0-.7-.2-1.2-.5-.9-1.1-1.6-1.8-2.2-.7-.6-1.7-1.1-2.8-1.4-1.1-.3-2.4-.5-4-.5-1.8 0-3.4.3-4.6.9-1.2.5-2.1 1.3-2.8 2.2-.9.8-1.2 1.9-1.2 3.1zm25.9-13.5h-.8c-.7 0-1.2.1-1.6.2-.4.2-.7.5-.9.9-.2.4-.2 1-.2 1.6v.4c0 .7.1 1.2.2 1.6.2.4.5.7.9.9.4.2 1 .3 1.6.2h.8c.7 0 1.2-.1 1.6-.2.4-.1.7-.4.9-.9.2-.4.2-.9.2-1.6v-.4c0-.7-.1-1.2-.2-1.6-.2-.4-.4-.7-.9-.9-.4-.2-1-.2-1.6-.2zm1.1 7.6h-3c-.5 0-.9.1-1.1.3-.2.2-.3.6-.3 1.1V273c0 .5.1.9.3 1.1.2.2.6.3 1.1.3h3c.5 0 .9-.1 1.1-.3.2-.2.3-.6.3-1.1v-17.2c0-.5-.1-.9-.3-1.1-.2-.2-.6-.3-1.1-.3zm6.7 5.9c0 1.2.2 2.2.6 3 .5.8 1 1.4 1.8 1.8.7.5 1.6.8 2.6 1 .9.2 1.9.4 3 .5 1 .1 1.8.2 2.4.3.6.1 1 .3 1.3.5.2.2.4.6.4 1 0 .6-.3 1-.9 1.2-.5.2-1.4.4-2.5.4-1 0-1.8-.1-2.3-.4-.6-.2-1-.6-1.2-1.1-.1-.4-.3-.6-.5-.7-.2-.1-.4-.2-.6-.2-.2 0-.5.1-.9.2l-2.3.8c-.5.1-.9.4-1 .7-.2.3-.1.7.1 1.2.6 1.5 1.6 2.6 3.1 3.4 1.5.8 3.4 1.2 5.8 1.2 1.9 0 3.4-.3 4.8-.9 1.3-.6 2.3-1.4 2.9-2.3.7-1 1-2.2 1-3.5 0-1.1-.2-2.1-.6-2.8-.4-.8-.9-1.4-1.6-1.8-.7-.5-1.6-.9-2.6-1.1-1-.2-2.2-.4-3.5-.5-.9-.1-1.6-.2-2.2-.3-.6-.1-1-.3-1.2-.5-.2-.2-.4-.5-.4-.9 0-.3.1-.6.3-.8.2-.2.5-.4.9-.5.4-.1 1-.1 1.7-.1.6 0 1.2.1 1.6.2.5.1.8.3 1.1.5.3.2.5.5.7.7.2.3.4.5.5.7.1.1.4.2.6.2.2 0 .5-.1.9-.2l2.3-1c.5-.2.9-.5 1-.8.1-.3.1-.7-.2-1.2-.5-.9-1-1.6-1.8-2.2-.7-.6-1.7-1.1-2.8-1.4-1.1-.3-2.5-.5-4-.5-1.8 0-3.4.3-4.6.9-1.2.5-2.2 1.3-2.8 2.2-.7.8-.9 1.9-.9 3.1zm37.6-5.1c0 1.4.2 2.6.7 3.6.4 1 1 1.7 1.7 2.3.7.6 1.6 1.1 2.5 1.4.9.3 1.9.6 2.9.7 1 .2 2 .3 2.9.4.7.1 1.4.2 2 .3.6.1 1.2.3 1.7.5s.9.5 1.1.8c.2.3.4.7.4 1.2 0 1.1-.5 1.8-1.4 2.3-.9.5-2.1.7-3.8.7-1.2 0-2.3-.2-3.1-.7-.8-.5-1.5-1.1-1.9-2-.1-.4-.3-.7-.5-.9-.2-.2-.4-.3-.6-.3-.3 0-.5 0-.9.2l-2.8 1c-.5.2-.9.4-1.1.7-.1.3-.1.7.1 1.3.5 1.4 1.2 2.5 2.1 3.5.9.9 2.1 1.6 3.6 2.1s3.2.7 5.2.7c1.8 0 3.4-.2 4.8-.6 1.4-.4 2.6-1 3.6-1.8s1.7-1.7 2.3-2.8c.5-1.1.8-2.3.8-3.6 0-1.4-.2-2.5-.6-3.5-.4-.9-1-1.7-1.6-2.3-.7-.6-1.5-1.1-2.3-1.5-.9-.4-1.8-.6-2.7-.9-.9-.2-1.8-.3-2.8-.4-.8-.1-1.5-.2-2.2-.3-.7-.1-1.3-.3-1.9-.5-.5-.2-1-.5-1.2-.8-.3-.3-.5-.7-.5-1.2 0-.9.4-1.6 1.1-2.1.7-.4 1.9-.6 3.5-.6.8 0 1.5.1 2.1.3.6.2 1.1.5 1.5.9.4.4.7.9 1 1.4.2.4.4.6.6.8.2.2.4.2.6.2.2 0 .5-.1.9-.2l3-1.3c.5-.2.9-.5 1-.8.1-.3.1-.7-.2-1.3-.6-1.2-1.4-2.3-2.2-3.1-.9-.9-2-1.5-3.3-1.9-1.3-.4-2.9-.6-4.8-.6-1.8 0-3.4.2-4.8.7-1.4.4-2.5 1-3.5 1.8-.9.8-1.6 1.7-2.1 2.7-.7 1.1-.9 2.2-.9 3.5zm33.3-5.4h-3c-.5 0-.9.1-1.1.3-.2.2-.3.6-.3 1.1v3.2h-2c-.5 0-.9.1-1.1.3-.2.2-.3.6-.3 1.1v2.3c0 .5.1.9.3 1.1.2.2.6.3 1.1.3h2v6.8c0 1.7.2 3.1.6 4.3.4 1.1.9 2 1.7 2.7.7.7 1.7 1.2 2.9 1.4 1.2.3 2.6.4 4.3.3.4 0 .6 0 .9-.1.2-.1.4-.2.4-.4.1-.2.1-.5.1-.9v-2.4c0-.6-.1-1-.3-1.2-.2-.2-.6-.3-1.1-.3-.6 0-1.2 0-1.7-.1-.4-.1-.8-.2-1.1-.5-.3-.3-.5-.6-.6-1.1-.1-.5-.2-1.1-.2-1.8v-6.5h3.6c.5 0 .9-.1 1.1-.3.2-.2.3-.6.3-1.1V256c0-.5-.1-.9-.3-1.1-.2-.2-.6-.3-1.1-.3h-3.6v-3.2c0-.5-.1-.9-.3-1.1-.3-.4-.7-.5-1.2-.5zm27.5 4.6h-3c-.5 0-.9.1-1.1.3-.2.2-.3.6-.3 1.1v13.3c0 .1 0 .2-.1.3 0 0-.1.1-.2.1-.3.1-.5.1-.8.1-.2 0-.5.1-.8.1h-1c-1.1 0-1.9-.2-2.5-.7-.6-.5-.8-1.2-.8-2.2v-11.1c0-.5-.1-.9-.3-1.1-.2-.2-.6-.3-1.1-.3h-3c-.5 0-.9.1-1.1.3-.2.2-.3.6-.3 1.1v11.2c0 1.7.3 3.2.9 4.3.6 1.2 1.5 2.1 2.7 2.7 1.2.6 2.8.9 4.7 1 1.3 0 2.4-.1 3.4-.2s1.9-.3 2.6-.5c.7-.2 1.4-.4 1.9-.7.4-.1.7-.3.9-.5.2-.2.4-.4.5-.7.1-.2.1-.6.1-1v-15.6c0-.5-.1-.9-.3-1.1-.1-.1-.5-.2-1-.2zm6.8 7.9v4.9c0 1.7.3 3.2.9 4.3.6 1.2 1.6 2.1 2.8 2.7 1.3.6 2.9.9 4.9 1 1.2 0 2.3-.1 3.3-.2.9-.1 1.8-.3 2.5-.5s1.3-.4 1.8-.6c.4-.2.7-.4 1-.5.3-.2.4-.4.5-.6.1-.3.1-.6.1-1v-24.4c0-.5-.1-.9-.3-1.1-.2-.2-.6-.3-1.1-.3h-3c-.5 0-.9.1-1.1.3-.2.2-.3.6-.3 1.1v6.8c-.5-.1-1-.1-1.6-.2-.6 0-1.2-.1-1.9-.1-2.8 0-4.9.7-6.3 2.2-1.5 1.4-2.2 3.4-2.2 6.2zm11.9-2.9v10.2l-.1.1c-.4.1-.8.2-1.3.2s-1 .1-1.5.1c-1 0-1.9-.2-2.4-.7-.6-.5-.9-1.2-.9-2.1v-4.8c0-1.1.3-1.9.9-2.4.6-.5 1.5-.8 2.7-.8.5 0 1 0 1.4.1.4-.1.9 0 1.2.1zm28-5h-3c-.5 0-.9.1-1.1.3-.2.2-.3.6-.3 1.1v12.5c-.4.1-.9.1-1.4.2-.5 0-1 .1-1.5.1-1.1 0-1.9-.2-2.5-.7-.6-.5-.8-1.2-.8-2.2v-9.9c0-.5-.1-.9-.3-1.1-.2-.2-.6-.3-1.1-.3h-3c-.5 0-.9.1-1.1.3-.2.2-.3.6-.3 1.1V266c0 1.7.3 3.1.9 4.3.6 1.2 1.5 2.1 2.7 2.7 1.2.6 2.8 1 4.7 1 .7 0 1.4 0 2-.1.6 0 1.1-.1 1.7-.2v1.6c0 1-.3 1.8-.8 2.3-.5.5-1.3.8-2.3.8-.8 0-1.4-.1-1.9-.4-.5-.2-.9-.6-1.2-1.1-.2-.3-.4-.5-.6-.7-.2-.1-.5-.2-.7-.2-.2 0-.6.1-.9.4l-2.2 1.1c-.5.2-.8.6-.9 1-.1.4 0 .8.4 1.3.7 1.2 1.7 2 3.1 2.7 1.4.6 3.1.9 5.2.9 1.6 0 2.9-.2 4-.6 1.1-.4 2-1 2.7-1.8.7-.7 1.2-1.7 1.6-2.7.3-1.1.5-2.2.5-3.5v-19c0-.5-.1-.9-.3-1.1-.4-.2-.8-.3-1.3-.3z"/></svg>