<svg version="1.1" id="Layer_1" xmlns="http://www.w3.org/2000/svg" x="0" y="0" width="655.5" height="283.5" viewBox="0 0 655.5 283.5" xml:space="preserve"><style>.st1{fill:#007dc5}.st2{fill:#696a6d}</style><path d="M655.5 140.7c0 24.3-20.3 44.1-45.4 44.1-25.1 0-45.4-19.7-45.4-44.1 0-24.3 20.3-44 45.4-44 25.1 0 45.4 19.7 45.4 44" fill="#636466"/><path class="st1" d="M567 198.3c0 14.2-11.9 25.8-26.5 25.8-14.7 0-26.5-11.5-26.5-25.8 0-14.2 11.9-25.8 26.5-25.8S567 184 567 198.3"/><path d="M334.6 196.9c0 2.8-2.4 5.1-5.3 5.1s-5.3-2.3-5.3-5.1 2.4-5.1 5.3-5.1c3 0 5.3 2.3 5.3 5.1"/><path class="st1" d="M8.3 234.9H.9v-27.2h6.9v3.9c1.2-1.8 2.2-3.1 3.2-3.6.9-.6 2-.9 3.2-.9 1.7 0 3.3.5 4.8 1.4l-2.3 6.3c-1.2-.8-2.4-1.2-3.5-1.2-1 0-1.9.3-2.6.8-.7.5-1.3 1.6-1.7 3-.4 1.5-.6 4.5-.6 9.1v8.4zM38.8 219c0-2.1-.6-3.7-1.7-4.8-1.1-1.1-2.3-1.6-3.8-1.6-1.6 0-2.9.6-4 1.7-1 1.1-1.6 2.7-1.6 4.7h11.1zm-.4 7.3l7.3 1.2c-1 2.6-2.5 4.6-4.5 6-2 1.4-4.6 2.1-7.7 2.1-4.8 0-8.4-1.5-10.8-4.6-1.8-2.5-2.8-5.6-2.8-9.4 0-4.5 1.2-8 3.6-10.6 2.4-2.6 5.5-3.9 9.2-3.9 4.2 0 7.4 1.3 9.8 4 2.4 2.7 3.6 6.8 3.6 12.3H27.6c.1 2.1.7 3.8 1.8 5 1.1 1.2 2.5 1.8 4.2 1.8 1.2 0 2.2-.3 2.9-.9.8-.7 1.4-1.6 1.9-3M49.5 227.2l7.4-1.1c.3 1.4 1 2.5 1.9 3.2 1 .7 2.3 1.1 4.1 1.1 1.9 0 3.3-.3 4.3-1 .7-.5 1-1.1 1-1.9 0-.5-.2-1-.6-1.3-.4-.4-1.2-.7-2.5-1-5.9-1.3-9.7-2.5-11.3-3.5-2.2-1.5-3.3-3.5-3.3-6.1 0-2.4 1-4.3 2.9-6 1.9-1.6 4.9-2.4 8.9-2.4 3.8 0 6.7.6 8.5 1.8 1.9 1.2 3.1 3 3.9 5.4l-7 1.3c-.3-1.1-.9-1.9-1.7-2.5-.8-.6-2-.8-3.6-.8-2 0-3.4.3-4.2.8-.6.4-.8.9-.8 1.5 0 .5.2 1 .7 1.3.7.5 3 1.2 6.9 2 3.9.9 6.7 1.9 8.2 3.2 1.6 1.3 2.3 3 2.3 5.3 0 2.5-1.1 4.6-3.2 6.4-2.1 1.8-5.3 2.7-9.5 2.7-3.8 0-6.8-.8-9.1-2.3-2-1.5-3.5-3.5-4.2-6.1M98.7 219c-.1-2.1-.6-3.7-1.7-4.8-1-1.1-2.3-1.6-3.8-1.6-1.6 0-2.9.6-4 1.7-1 1.1-1.6 2.7-1.6 4.7h11.1zm-.4 7.3l7.3 1.2c-1 2.6-2.5 4.6-4.5 6-2 1.4-4.6 2.1-7.7 2.1-4.9 0-8.4-1.5-10.8-4.6-1.8-2.5-2.8-5.6-2.8-9.4 0-4.5 1.2-8 3.6-10.6 2.4-2.6 5.5-3.9 9.2-3.9 4.2 0 7.4 1.3 9.8 4 2.4 2.7 3.6 6.8 3.6 12.3H87.5c0 2.1.6 3.8 1.8 5 1.1 1.2 2.6 1.8 4.2 1.8 1.2 0 2.1-.3 2.9-.9.9-.7 1.5-1.6 1.9-3M127.5 221.9c-.9.3-2.5.7-4.5 1.1-2 .4-3.4.8-4 1.3-1 .7-1.5 1.5-1.5 2.5s.4 1.9 1.2 2.6c.8.7 1.8 1.1 3 1.1 1.3 0 2.6-.4 3.8-1.2.9-.7 1.5-1.5 1.8-2.4.2-.6.3-1.8.3-3.5v-1.5zm-9.9-5.8l-6.7-1.2c.8-2.6 2.1-4.6 3.9-5.9 1.8-1.3 4.6-1.9 8.2-1.9 3.3 0 5.8.4 7.4 1.1 1.6.8 2.7 1.7 3.4 2.9.6 1.2 1 3.3 1 6.4l-.1 8.4c0 2.4.1 4.1.4 5.3.2 1.2.7 2.4 1.3 3.6H129c-.2-.5-.4-1.2-.7-2.1l-.3-.9c-1.3 1.2-2.6 2.1-4.1 2.7-1.4.6-3 .9-4.6.9-2.9 0-5.1-.8-6.8-2.3-1.7-1.5-2.5-3.4-2.5-5.8 0-1.5.4-2.9 1.1-4.1.8-1.2 1.8-2.1 3.2-2.8 1.3-.6 3.3-1.2 5.9-1.7 3.5-.6 5.8-1.2 7.2-1.8v-.7c0-1.4-.4-2.4-1-3-.7-.6-2-.9-4-.9-1.3 0-2.3.3-3.1.8-.7.8-1.3 1.7-1.7 3M149.1 234.9h-7.4v-27.2h6.9v3.9c1.2-1.8 2.2-3.1 3.2-3.6.9-.6 2-.9 3.2-.9 1.7 0 3.3.5 4.9 1.4l-2.3 6.3c-1.3-.8-2.4-1.2-3.5-1.2-1 0-1.9.3-2.6.8-.7.5-1.3 1.6-1.7 3-.4 1.5-.6 4.5-.6 9.1v8.4zM187.4 215.8l-7.3 1.3c-.3-1.4-.8-2.5-1.7-3.2-.9-.7-2-1.1-3.4-1.1-1.8 0-3.3.6-4.4 1.8-1.1 1.2-1.6 3.3-1.6 6.2 0 3.2.6 5.5 1.7 6.9 1.1 1.3 2.6 2 4.5 2 1.4 0 2.6-.4 3.5-1.2.9-.8 1.5-2.1 1.9-4l7.2 1.2c-.7 3.2-2.2 5.7-4.3 7.3-2.1 1.7-5 2.5-8.6 2.5-4.1 0-7.3-1.3-9.8-3.8-2.4-2.5-3.6-6-3.6-10.4 0-4.5 1.2-8 3.7-10.5 2.4-2.5 5.7-3.8 9.9-3.8 3.4 0 6.1.7 8.1 2.1 1.8 1.6 3.3 3.8 4.2 6.7M200.4 197.4v13.8c2.4-2.7 5.2-4.1 8.5-4.1 1.7 0 3.3.3 4.6.9 1.4.6 2.4 1.4 3.1 2.4.7 1 1.1 2 1.4 3.2.3 1.2.4 3 .4 5.4v15.9H211v-14.4c0-2.8-.1-4.6-.4-5.4-.3-.8-.8-1.4-1.5-1.8-.7-.5-1.6-.7-2.7-.7-1.2 0-2.3.3-3.3.9-1 .6-1.7 1.5-2.1 2.6-.4 1.2-.7 2.9-.7 5.2v13.6H193v-37.6h7.4zM237.7 207.8h4.1v-2.1c0-2.3.3-4 .8-5.1.5-1.1 1.4-2 2.7-2.7 1.3-.7 3-1.1 5.1-1.1 2.1 0 4.2.3 6.2.9l-1 5c-1.2-.3-2.3-.4-3.4-.4s-1.8.2-2.3.7c-.5.5-.7 1.4-.7 2.8v1.9h5.5v5.7h-5.5v21.5h-7.4v-21.5h-4.1v-5.6zM264.7 221.4c0 2.7.7 4.8 2 6.2 1.3 1.4 2.9 2.1 4.9 2.1 1.9 0 3.6-.7 4.9-2.1 1.3-1.4 2-3.5 2-6.3 0-2.6-.6-4.7-2-6.1-1.3-1.4-2.9-2.2-4.9-2.2-1.9 0-3.6.7-4.9 2.2-1.3 1.4-2 3.5-2 6.2m-7.5-.4c0-2.4.6-4.7 1.8-6.9 1.2-2.2 2.9-4 5.1-5.1 2.2-1.2 4.7-1.8 7.4-1.8 4.2 0 7.7 1.3 10.4 4s4.1 6.1 4.1 10.1c0 4.1-1.4 7.5-4.1 10.2-2.7 2.7-6.1 4.1-10.3 4.1-2.6 0-5-.6-7.3-1.7s-4.1-2.8-5.3-5c-1.2-2.2-1.8-4.8-1.8-7.9M298.9 234.9h-7.4v-27.2h6.9v3.9c1.2-1.8 2.2-3.1 3.2-3.6.9-.6 2-.9 3.2-.9 1.7 0 3.3.5 4.9 1.4l-2.3 6.3c-1.2-.8-2.4-1.2-3.5-1.2-1 0-1.9.3-2.6.8-.7.5-1.3 1.6-1.7 3-.4 1.5-.6 4.5-.6 9.1v8.4z"/><path d="M325.7 207.8h7.4V235h-7.4zM340.3 207.8h6.8v3.7c2.4-2.9 5.3-4.3 8.7-4.3 1.8 0 3.3.4 4.7 1.1 1.3.7 2.4 1.8 3.2 3.2 1.2-1.4 2.6-2.5 4-3.2 1.4-.7 2.9-1.1 4.5-1.1 2.1 0 3.8.4 5.2 1.2 1.4.8 2.5 2 3.2 3.6.5 1.2.8 3.1.8 5.7v17.4H374v-15.6c0-2.7-.2-4.4-.7-5.2-.7-1-1.8-1.5-3.2-1.5-1 0-2 .3-2.9.9-.9.6-1.6 1.5-2 2.7-.4 1.2-.6 3.1-.6 5.6v13.1h-7.4V220c0-2.7-.1-4.4-.4-5.1-.3-.8-.7-1.3-1.2-1.7-.6-.4-1.3-.6-2.2-.6-1.2 0-2.2.3-3.1.9-.9.6-1.6 1.5-2 2.6-.4 1.1-.6 3-.6 5.6v13.2h-7.4v-27.1zM396 220.9c0 3.1.6 5.3 1.9 6.8 1.2 1.5 2.8 2.2 4.5 2.2 1.7 0 3.2-.7 4.3-2 1.1-1.4 1.7-3.5 1.7-6.6 0-2.9-.6-5-1.8-6.4-1.2-1.4-2.6-2.1-4.4-2.1-1.8 0-3.3.7-4.5 2-1.1 1.4-1.7 3.4-1.7 6.1m-7.4-13.1h6.9v4c.9-1.4 2.1-2.5 3.6-3.3 1.5-.9 3.2-1.3 5.1-1.3 3.3 0 6 1.2 8.3 3.7 2.3 2.5 3.4 5.9 3.4 10.4s-1.2 8.1-3.4 10.6c-2.3 2.5-5 3.8-8.3 3.8-1.6 0-2.9-.3-4.2-.9-1.3-.6-2.6-1.6-4-3.1v13.7h-7.4v-37.6zM437.2 221.9c-.9.3-2.5.7-4.5 1.1-2 .4-3.4.8-4 1.3-1 .7-1.5 1.5-1.5 2.5s.4 1.9 1.2 2.6c.8.7 1.8 1.1 3 1.1 1.3 0 2.6-.4 3.8-1.2.9-.7 1.5-1.5 1.8-2.4.2-.6.3-1.8.3-3.5v-1.5zm-9.9-5.8l-6.7-1.2c.8-2.6 2.1-4.6 3.9-5.9 1.8-1.3 4.6-1.9 8.2-1.9 3.3 0 5.8.4 7.4 1.1 1.6.8 2.7 1.7 3.4 2.9.6 1.2 1 3.3 1 6.4l-.1 8.4c0 2.4.1 4.1.4 5.3.2 1.2.7 2.4 1.3 3.6h-7.3c-.2-.5-.4-1.2-.7-2.1l-.3-.9c-1.3 1.2-2.6 2.1-4.1 2.7-1.4.6-3 .9-4.6.9-2.9 0-5.1-.8-6.8-2.3-1.7-1.5-2.5-3.4-2.5-5.8 0-1.5.4-2.9 1.1-4.1.8-1.2 1.8-2.1 3.2-2.8 1.3-.6 3.3-1.2 5.9-1.7 3.5-.6 5.9-1.2 7.2-1.8v-.7c0-1.4-.3-2.4-1-3-.7-.6-2-.9-4-.9-1.3 0-2.4.3-3.1.8-.7.8-1.3 1.7-1.8 3M476.2 215.8l-7.3 1.3c-.3-1.4-.8-2.5-1.7-3.2-.9-.7-2-1.1-3.4-1.1-1.8 0-3.3.6-4.4 1.8-1.1 1.2-1.6 3.3-1.6 6.2 0 3.2.5 5.5 1.7 6.9 1.1 1.3 2.6 2 4.5 2 1.4 0 2.6-.4 3.5-1.2.9-.8 1.5-2.1 1.9-4l7.2 1.2c-.7 3.2-2.2 5.7-4.3 7.3-2.1 1.7-5 2.5-8.6 2.5-4.1 0-7.4-1.3-9.8-3.8-2.4-2.5-3.6-6-3.6-10.4 0-4.5 1.2-8 3.7-10.5 2.4-2.5 5.7-3.8 9.9-3.8 3.4 0 6.1.7 8.1 2.1 1.9 1.6 3.3 3.8 4.2 6.7M494.6 207.8v5.7h-5.1v10.9c0 2.2 0 3.5.1 3.9l.7.9c.3.2.8.4 1.2.4.7 0 1.7-.2 3-.7l.6 5.6c-1.7.7-3.7 1.1-5.8 1.1-1.3 0-2.5-.2-3.6-.7-1.1-.4-1.9-1-2.4-1.7s-.8-1.6-1-2.8c-.1-.8-.2-2.5-.2-5.1v-11.8h-3.4v-5.7h3.4v-5.4l7.4-4.2v9.6h5.1z"/><path class="st2" d="M122.3 55.2V21.9h4.2v12c2-2.2 4.4-3.3 7.4-3.3 1.8 0 3.4.4 4.8 1.1 1.3.7 2.3 1.7 2.9 2.9.6 1.2.9 3 .9 5.4v15.3h-4.2V39.9c0-2.1-.5-3.5-1.4-4.5-.9-.9-2.2-1.4-3.8-1.4-1.3 0-2.4.3-3.5 1-1.1.6-1.9 1.5-2.3 2.6-.5 1.1-.7 2.6-.7 4.4v13.2h-4.3zM165.5 55.2v-3.6c-1.9 2.7-4.5 4.1-7.8 4.1-1.5 0-2.8-.3-4.1-.8-1.3-.5-2.2-1.2-2.8-2-.6-.8-1.1-1.8-1.3-3-.2-.8-.3-2.1-.3-3.8v-15h4.2v13.4c0 2.1.1 3.6.3 4.3.3 1.1.8 1.9 1.7 2.5.8.6 1.9.9 3.2.9 1.3 0 2.4-.3 3.5-.9 1.1-.6 1.9-1.5 2.3-2.6.5-1.1.7-2.7.7-4.7V31.1h4.2v24.1h-3.8zM176.2 55.2V31.1h3.7v3.4c.8-1.2 1.8-2.1 3.1-2.9 1.3-.7 2.8-1.1 4.4-1.1 1.8 0 3.4.4 4.5 1.1 1.2.7 2 1.8 2.5 3.1 2-2.8 4.5-4.2 7.7-4.2 2.5 0 4.3.7 5.7 2 1.3 1.3 2 3.4 2 6.1v16.6h-4.2V40c0-1.6-.1-2.8-.4-3.5-.3-.7-.8-1.3-1.5-1.7-.7-.4-1.6-.7-2.5-.7-1.7 0-3.2.6-4.3 1.7-1.2 1.1-1.7 2.9-1.7 5.4v14H191V39.5c0-1.8-.3-3.2-1-4.1-.7-.9-1.8-1.4-3.3-1.4-1.2 0-2.3.3-3.3.9-1 .6-1.7 1.5-2.2 2.7-.4 1.2-.7 2.9-.7 5v12.5h-4.3zM232.1 43.1c-1.5.6-3.8 1.1-6.8 1.6-1.7.3-3 .5-3.7.8-.7.3-1.3.7-1.7 1.3-.4.6-.6 1.2-.6 2 0 1.1.4 2 1.3 2.7.9.7 2.1 1.1 3.7 1.1s3-.3 4.3-1c1.3-.7 2.2-1.6 2.8-2.8.5-.9.7-2.3.7-4.1v-1.6zm.4 9.1c-1.6 1.3-3.1 2.2-4.5 2.7s-3 .8-4.6.8c-2.7 0-4.8-.6-6.3-1.9-1.5-1.3-2.2-2.9-2.2-5 0-1.2.3-2.3.8-3.2.6-1 1.3-1.8 2.2-2.4.9-.6 1.9-1 3-1.3.8-.2 2.1-.4 3.7-.6 3.4-.4 5.9-.9 7.5-1.4v-1c0-1.7-.4-2.8-1.2-3.5-1.1-.9-2.7-1.4-4.8-1.4-2 0-3.4.3-4.4 1-.9.7-1.7 1.9-2.1 3.6l-4.1-.5c.4-1.7 1-3.1 1.8-4.2.9-1.1 2.1-1.9 3.7-2.4 1.6-.6 3.5-.9 5.6-.9 2.1 0 3.8.2 5.2.7 1.3.5 2.3 1.1 2.9 1.8.6.7 1.1 1.7 1.3 2.8.1.7.2 2 .2 3.8v5.4c0 3.8.1 6.2.3 7.2.2 1 .5 2 1.1 2.9h-4.4c-.3-.9-.6-1.9-.7-3M243.3 55.2V31.1h3.8v3.4c1.8-2.7 4.4-4 7.9-4 1.5 0 2.9.3 4.1.8 1.3.5 2.2 1.2 2.8 2.1.6.8 1 1.9 1.3 3 .2.8.3 2.1.3 4v14.8h-4.2V40.5c0-1.7-.2-2.9-.5-3.7-.3-.8-.9-1.5-1.7-2-.8-.5-1.8-.7-2.9-.7-1.8 0-3.3.6-4.6 1.7-1.3 1.1-1.9 3.2-1.9 6.3v13.2h-4.4zM.5 97.9V73.8h3.8v3.6c1-1.7 1.9-2.8 2.7-3.4.8-.5 1.7-.8 2.7-.8 1.4 0 2.8.4 4.3 1.3l-1.4 3.8c-1-.6-2-.9-3.1-.9-.9 0-1.7.3-2.5.8-.7.5-1.2 1.3-1.6 2.3-.5 1.4-.7 3-.7 4.8v12.6H.5zM20 83.5h13.8c-.2-2-.7-3.6-1.6-4.6-1.3-1.6-3.1-2.4-5.2-2.4-1.9 0-3.6.6-4.9 1.9-1.3 1.3-2 3-2.1 5.1m13.7 6.6l4.3.5c-.7 2.5-1.9 4.4-3.8 5.7-1.9 1.4-4.2 2-7.1 2-3.6 0-6.5-1.1-8.6-3.3-2.1-2.2-3.2-5.2-3.2-9.2 0-4.1 1.1-7.2 3.2-9.5 2.1-2.2 4.9-3.4 8.4-3.4 3.3 0 6 1.1 8.1 3.3 2.1 2.2 3.2 5.3 3.2 9.3v1.1H19.7c.2 2.6.9 4.7 2.3 6.1 1.4 1.4 3.1 2.1 5.2 2.1 1.5 0 2.9-.4 3.9-1.2 1.1-.5 2-1.8 2.6-3.5M47.5 85.9c0 3.1.6 5.4 1.9 6.9 1.3 1.5 2.9 2.2 4.7 2.2 1.9 0 3.5-.8 4.8-2.3 1.3-1.5 2-3.9 2-7.2 0-3.1-.7-5.4-2-6.9s-2.9-2.3-4.7-2.3c-1.8 0-3.4.8-4.7 2.4-1.3 1.8-2 4.1-2 7.2m-3.8 21.2V73.7h3.8v3.1c.9-1.2 1.9-2.1 3.1-2.8 1.1-.6 2.5-.9 4.1-.9 2.1 0 4 .5 5.6 1.6 1.6 1.1 2.8 2.6 3.7 4.5.8 1.9 1.2 4 1.2 6.3 0 2.5-.5 4.7-1.4 6.7-.9 2-2.2 3.5-4 4.5-1.7 1.1-3.6 1.6-5.5 1.6-1.4 0-2.7-.3-3.8-.9-1.1-.6-2-1.3-2.7-2.2v11.7h-4.1zM70.5 97.9V73.8h3.8v3.6c1-1.7 1.9-2.8 2.7-3.4.8-.5 1.7-.8 2.7-.8 1.4 0 2.8.4 4.3 1.3l-1.4 3.8c-1-.6-2.1-.9-3.1-.9-.9 0-1.7.3-2.5.8-.7.5-1.2 1.3-1.5 2.3-.5 1.4-.7 3-.7 4.8v12.6h-4.3zM89.5 85.8c0 3.1.7 5.4 2.1 6.9 1.4 1.5 3.1 2.3 5.2 2.3s3.8-.8 5.2-2.3c1.4-1.5 2.1-3.9 2.1-7 0-3-.7-5.3-2.1-6.8-1.4-1.5-3.1-2.3-5.2-2.3s-3.8.8-5.2 2.3c-1.4 1.5-2.1 3.8-2.1 6.9m-4.3 0c0-4.5 1.3-7.8 3.8-9.9 2.1-1.8 4.7-2.7 7.8-2.7 3.4 0 6.2 1.1 8.4 3.3 2.2 2.2 3.2 5.2 3.2 9 0 3.1-.5 5.6-1.4 7.3-1 1.8-2.3 3.2-4.2 4.1-1.8 1-3.8 1.5-6 1.5-3.5 0-6.2-1.1-8.4-3.3-2.1-2.1-3.2-5.2-3.2-9.3M116.5 85.8c0 3.1.7 5.4 2 6.9s2.9 2.3 4.7 2.3c1.8 0 3.4-.7 4.6-2.2 1.3-1.5 1.9-3.7 1.9-6.7 0-3.3-.7-5.7-2-7.3-1.3-1.5-2.9-2.3-4.8-2.3s-3.4.7-4.7 2.2c-1.1 1.6-1.7 3.9-1.7 7.1m13.3 12.1v-3c-1.6 2.4-3.9 3.6-6.9 3.6-2 0-3.8-.5-5.4-1.6-1.7-1.1-2.9-2.5-3.8-4.4-.9-1.9-1.4-4.1-1.4-6.5 0-2.4.4-4.6 1.2-6.6.8-2 2.1-3.5 3.7-4.5s3.5-1.6 5.5-1.6c1.5 0 2.8.3 4 .9 1.2.6 2.1 1.4 2.8 2.4v-12h4.2v33.3h-3.9zM156.8 97.9v-3.6c-1.9 2.7-4.5 4.1-7.8 4.1-1.5 0-2.8-.3-4.1-.8-1.3-.5-2.2-1.2-2.8-2-.6-.8-1-1.8-1.3-3-.2-.8-.3-2.1-.3-3.8v-15h4.2v13.4c0 2.1.1 3.6.3 4.3.3 1.1.8 1.9 1.7 2.5.9.6 1.9.9 3.2.9 1.2 0 2.4-.3 3.5-.9 1.1-.6 1.9-1.5 2.4-2.6s.7-2.7.7-4.7V73.8h4.2v24.1h-3.9zM183.7 89l4.1.5c-.5 2.8-1.6 4.9-3.5 6.5-1.9 1.6-4.2 2.3-6.9 2.3-3.4 0-6.1-1.1-8.2-3.2-2.1-2.2-3.1-5.2-3.1-9.3 0-2.6.4-4.9 1.3-6.8.9-2 2.2-3.4 4.1-4.4 1.8-1 3.8-1.5 5.9-1.5 2.7 0 4.9.7 6.6 2 1.7 1.3 2.8 3.2 3.3 5.6l-4.1.6c-.4-1.6-1.1-2.8-2.1-3.6-1-.8-2.2-1.2-3.6-1.2-2.1 0-3.9.7-5.2 2.2-1.3 1.5-2 3.8-2 7s.6 5.6 1.9 7.1c1.3 1.5 2.9 2.2 5 2.2 1.6 0 3-.5 4.1-1.5 1.4-.9 2.1-2.4 2.4-4.5M200.9 94.2l.6 3.6c-1.2.2-2.3.4-3.2.4-1.5 0-2.7-.2-3.5-.7-.8-.5-1.4-1.1-1.8-1.9-.3-.8-.5-2.4-.5-4.8V76.9h-3.1v-3.2h3.1v-6l4.2-2.4v8.4h4.2v3.2h-4.2V91c0 1.2.1 1.9.2 2.3l.7.8c.3.2.8.3 1.4.3.5 0 1.1-.1 1.9-.2"/><g><path class="st2" d="M205.3 97.9h4.2V73.7h-4.2v24.2zm0-28.6h4.2v-4.7h-4.2v4.7z"/></g><g><path class="st2" d="M219 85.8c0 3.1.7 5.4 2.1 6.9 1.4 1.5 3.1 2.3 5.2 2.3s3.8-.8 5.2-2.3c1.4-1.5 2.1-3.9 2.1-7 0-3-.7-5.3-2.1-6.8-1.4-1.5-3.1-2.3-5.2-2.3s-3.8.8-5.2 2.3c-1.4 1.5-2.1 3.8-2.1 6.9m-4.3 0c0-4.5 1.3-7.8 3.8-9.9 2.1-1.8 4.7-2.7 7.8-2.7 3.4 0 6.2 1.1 8.4 3.3 2.2 2.2 3.2 5.2 3.2 9 0 3.1-.5 5.6-1.4 7.3-1 1.8-2.4 3.2-4.2 4.1-1.8 1-3.8 1.5-6 1.5-3.5 0-6.3-1.1-8.4-3.3-2.1-2.1-3.2-5.2-3.2-9.3M243.3 97.9V73.8h3.8v3.4c1.8-2.7 4.4-4 7.9-4 1.5 0 2.9.3 4.1.8 1.3.5 2.2 1.2 2.8 2.1.6.8 1 1.9 1.3 3 .2.8.3 2.1.3 4v14.8h-4.2V83.2c0-1.6-.2-2.9-.5-3.7-.3-.8-.9-1.5-1.7-2-.8-.5-1.8-.7-2.9-.7-1.8 0-3.3.6-4.6 1.7-1.3 1.1-1.9 3.2-1.9 6.3V98h-4.4zM26.7 128.6c0 3.1.7 5.4 1.9 6.9 1.3 1.5 2.9 2.2 4.7 2.2 1.9 0 3.5-.8 4.8-2.3 1.3-1.5 2-3.9 2-7.2 0-3.1-.6-5.4-2-6.9-1.3-1.5-2.9-2.3-4.6-2.3-1.8 0-3.4.8-4.7 2.4-1.4 1.7-2.1 4.1-2.1 7.2m-3.8 21.2v-33.3h3.8v3.1c.9-1.2 1.9-2.1 3.1-2.8 1.1-.6 2.5-.9 4.1-.9 2.1 0 4 .5 5.6 1.6 1.6 1.1 2.8 2.6 3.7 4.5.8 1.9 1.2 4 1.2 6.3 0 2.5-.5 4.7-1.4 6.7-.9 2-2.2 3.5-4 4.5-1.7 1-3.6 1.6-5.5 1.6-1.4 0-2.6-.3-3.8-.9-1.1-.6-2-1.3-2.7-2.2v11.7h-4.1zM49.8 140.5v-24.1h3.8v3.6c1-1.7 1.9-2.8 2.7-3.4.8-.5 1.7-.8 2.7-.8 1.4 0 2.8.4 4.3 1.3l-1.4 3.8c-1-.6-2.1-.9-3.1-.9-.9 0-1.7.3-2.5.8-.7.5-1.2 1.3-1.5 2.3-.5 1.4-.7 3-.7 4.8v12.6h-4.3zM68.8 128.5c0 3.1.7 5.4 2.1 6.9 1.4 1.5 3.1 2.3 5.2 2.3s3.8-.8 5.2-2.3c1.4-1.5 2.1-3.9 2.1-7 0-3-.7-5.3-2.1-6.8-1.4-1.5-3.1-2.3-5.2-2.3s-3.8.8-5.2 2.3c-1.4 1.5-2.1 3.8-2.1 6.9m-4.3 0c0-4.5 1.3-7.8 3.8-9.9 2.1-1.8 4.7-2.7 7.8-2.7 3.4 0 6.2 1.1 8.4 3.3 2.2 2.2 3.2 5.2 3.2 9 0 3.1-.5 5.6-1.4 7.3-.9 1.8-2.3 3.2-4.2 4.1-1.8 1-3.8 1.5-6 1.5-3.5 0-6.2-1.1-8.4-3.3-2.1-2.1-3.2-5.3-3.2-9.3M95.6 128c0 3.2.7 5.5 1.9 6.9 1.3 1.4 2.9 2.2 4.8 2.2s3.6-.7 4.9-2.2c1.3-1.4 2-3.7 2-6.8 0-2.9-.7-5.2-2-6.7s-3-2.3-4.9-2.3c-1.9 0-3.4.7-4.8 2.2-1.2 1.7-1.9 3.8-1.9 6.7m-3.4 14.5l4.1.6c.2 1.2.6 2.1 1.4 2.7 1 .8 2.5 1.1 4.3 1.1 2 0 3.5-.4 4.5-1.1 1.1-.8 1.8-1.8 2.1-3.2.2-.8.3-2.6.3-5.3-1.8 2.1-4.1 3.2-6.8 3.2-3.4 0-6-1.2-7.9-3.6-1.9-2.4-2.8-5.3-2.8-8.6 0-2.3.4-4.4 1.3-6.4.9-1.9 2.1-3.5 3.7-4.5 1.6-1.1 3.5-1.6 5.7-1.6 2.9 0 5.3 1.2 7.2 3.5v-2.9h3.8v20.8c0 3.7-.4 6.4-1.2 8-.8 1.6-2 2.8-3.7 3.7-1.7.9-3.8 1.4-6.3 1.4-2.9 0-5.3-.7-7.2-2-1.7-1.2-2.6-3.2-2.5-5.8M119.8 140.5v-24.1h3.8v3.6c1-1.7 1.9-2.8 2.7-3.4.8-.5 1.7-.8 2.7-.8 1.4 0 2.8.4 4.3 1.3l-1.4 3.8c-1-.6-2-.9-3.1-.9-.9 0-1.7.3-2.5.8-.7.5-1.2 1.3-1.5 2.3-.5 1.4-.7 3-.7 4.8v12.6h-4.3zM151.8 128.4c-1.5.6-3.8 1.1-6.8 1.6-1.7.3-3 .5-3.7.8-.7.3-1.3.7-1.7 1.3-.4.6-.6 1.2-.6 2 0 1.1.4 2 1.3 2.7.9.7 2.1 1.1 3.7 1.1s3-.3 4.3-1c1.3-.7 2.2-1.6 2.8-2.8.5-.9.7-2.3.7-4.1v-1.6zm.4 9.2c-1.6 1.3-3.1 2.2-4.5 2.7s-3 .8-4.6.8c-2.7 0-4.8-.6-6.3-1.9-1.5-1.3-2.2-2.9-2.2-5 0-1.2.3-2.3.8-3.2.5-1 1.3-1.8 2.2-2.4.9-.6 1.9-1 3-1.3.8-.2 2.1-.4 3.7-.6 3.4-.4 5.9-.9 7.5-1.4v-1c0-1.7-.4-2.8-1.2-3.5-1.1-.9-2.7-1.4-4.8-1.4-2 0-3.4.3-4.4 1-.9.7-1.6 1.9-2.1 3.6l-4.1-.5c.4-1.7 1-3.1 1.8-4.2.9-1.1 2.1-1.9 3.7-2.4 1.6-.6 3.5-.9 5.6-.9 2.1 0 3.9.2 5.2.7 1.3.5 2.3 1.1 2.9 1.8.6.7 1.1 1.7 1.3 2.8.1.7.2 2 .2 3.8v5.4c0 3.8.1 6.2.3 7.2.2 1 .5 2 1.1 2.9h-4.4c-.3-.9-.6-1.9-.7-3M163 140.5v-24.1h3.7v3.4c.8-1.2 1.8-2.1 3.1-2.9 1.3-.7 2.8-1.1 4.4-1.1 1.8 0 3.4.4 4.5 1.1 1.2.7 2 1.8 2.5 3.1 2-2.8 4.5-4.2 7.7-4.2 2.5 0 4.3.7 5.7 2 1.3 1.3 2 3.4 2 6.1v16.6h-4.2v-15.2c0-1.6-.1-2.8-.4-3.5-.3-.7-.8-1.3-1.5-1.7-.7-.4-1.6-.7-2.5-.7-1.7 0-3.2.6-4.3 1.7-1.2 1.1-1.7 2.9-1.7 5.4v14h-4.2v-15.7c0-1.8-.3-3.2-1-4.1-.7-.9-1.8-1.4-3.3-1.4-1.2 0-2.3.3-3.3.9-1 .6-1.7 1.5-2.2 2.7-.4 1.2-.7 2.9-.7 5v12.5H163zM203.1 140.5v-24.1h3.7v3.4c.8-1.2 1.8-2.1 3.1-2.9 1.3-.7 2.8-1.1 4.4-1.1 1.9 0 3.4.4 4.5 1.1 1.2.7 2 1.8 2.5 3.1 2-2.8 4.5-4.2 7.7-4.2 2.5 0 4.3.7 5.7 2 1.3 1.3 2 3.4 2 6.1v16.6h-4.2v-15.2c0-1.6-.1-2.8-.4-3.5-.3-.7-.8-1.3-1.5-1.7-.7-.4-1.6-.7-2.5-.7-1.7 0-3.2.6-4.3 1.7-1.2 1.1-1.7 2.9-1.7 5.4v14h-4.2v-15.7c0-1.8-.3-3.2-1-4.1-.7-.9-1.8-1.4-3.3-1.4-1.2 0-2.3.3-3.3.9-1 .6-1.7 1.5-2.2 2.7-.4 1.2-.7 2.9-.7 5v12.5h-4.3zM246.4 126.2h13.9c-.2-2-.7-3.6-1.6-4.6-1.3-1.6-3.1-2.4-5.2-2.4-1.9 0-3.6.6-4.9 1.9-1.3 1.3-2.1 3-2.2 5.1m13.8 6.6l4.3.5c-.7 2.5-1.9 4.4-3.8 5.7-1.9 1.4-4.2 2-7.1 2-3.6 0-6.5-1.1-8.6-3.2-2.1-2.2-3.2-5.2-3.2-9.2 0-4.1 1.1-7.2 3.2-9.4s4.9-3.4 8.4-3.4c3.3 0 6 1.1 8.1 3.3 2.1 2.2 3.2 5.3 3.2 9.3v1.1h-18.5c.1 2.6.9 4.7 2.3 6.1 1.4 1.4 3.1 2.1 5.2 2.1 1.5 0 2.9-.4 3.9-1.2 1.1-.7 2-2 2.6-3.7"/><path class="st1" d="M363.5 140.7V81.3c0-4.6-.5-8.8-1.5-12.6-1-3.8-2.7-7-5-9.8-2.3-2.7-5.2-4.8-8.9-6.3-3.6-1.5-8-2.2-13-2.2-4.8 0-9.1.9-13.1 2.7-4 1.8-7.4 4.3-10.3 7.4-2.9 3.1-5.1 6.8-6.7 11.1-1.6 4.2-2.4 8.8-2.4 13.7v55.3h-13.7V0h13.7v42.6c0 2.2 0 4.4-.1 6.7s-.2 4.4-.3 6.3c-.1 1.9-.1 3.6-.2 4.9-.1 1.3-.2 2.1-.2 2.3h.4c4.2-7.6 9.4-13.3 15.6-17 6.1-3.7 13.5-5.5 22.1-5.5 6.6 0 12.2.9 16.8 2.7 4.7 1.8 8.5 4.4 11.5 7.7s5.2 7.2 6.6 11.9c1.4 4.6 2.1 9.8 2.1 15.6v62.7h-13.4zM432.9 51c-4.6 0-8.6 1.1-12 3.3-3.4 2.2-6.3 5.2-8.6 8.8-2.3 3.7-4 7.9-5.1 12.7-1.1 4.8-1.7 9.7-1.7 14.9v50h-13.7V66.4v-7.3c0-2.7-.1-5.3-.2-7.7-.1-2.4-.1-4.5-.1-6.3 0-1.7-.1-2.8-.1-3.2h12.4c0 .2.1 1.3.2 3.2.1 1.9.2 4.1.3 6.5.1 2.4.1 4.9.2 7.3.1 2.4.1 4.3.1 5.5h.4c1.4-4.1 2.9-7.6 4.6-10.6 1.7-3 3.8-5.5 6.3-7.5 2.4-2 5.2-3.5 8.3-4.5 3.1-1 6.7-1.6 10.7-1.6 3 0 5.3.3 7 1v10.9c-1.2-.4-2.5-.7-4.1-.9-1.3-.1-3-.2-4.9-.2M536.1 91c0-6.3-.7-12-2.1-17-1.4-5-3.5-9.3-6.4-12.8-2.8-3.5-6.4-6.2-10.7-8.1-4.3-1.9-9.3-2.9-15-2.9-4.6 0-8.9.7-13.1 2.2-4.1 1.5-7.8 3.8-10.9 7.1-3.1 3.2-5.7 7.5-7.6 12.7-1.9 5.3-2.8 11.7-2.8 19.4 0 7.5.9 13.9 2.8 19.1 1.9 5.2 4.4 9.4 7.5 12.6 3.1 3.2 6.7 5.5 10.9 6.9 4.1 1.4 8.5 2.1 13.1 2.1 11.1 0 19.6-3.6 25.5-10.7 5.8-7.1 8.8-17.3 8.8-30.6m14.1 0c0 7.3-.9 14.2-2.8 20.5-1.8 6.3-4.6 11.8-8.3 16.4-3.7 4.6-8.4 8.2-14.1 10.8-5.7 2.6-12.3 3.9-19.9 3.9-8.5 0-16.1-1.8-22.5-5.3-6.5-3.6-11.4-8.5-14.8-14.7h-.4c0 .1 0 .7.1 1.8 0 1.1 0 2.6.1 4.3 0 1.8 0 3.7.1 5.8.1 2.1.1 4.2.1 6.2v47.1h-13.7V63v-7.4c0-2.4-.1-4.5-.1-6.4-.1-1.9-.1-3.5-.1-4.7 0-1.3-.1-2.1-.1-2.5h12.8c.1.2.1.9.2 2.2.1 1.3.2 2.9.2 4.7.1 1.9.2 4 .3 6.1.1 2.1.1 4.1.1 5.9h.4c3.8-6.7 8.9-11.8 15.2-15.4 6.3-3.6 14.3-5.4 24-5.4 7.4 0 13.8 1.3 19.2 3.8 5.4 2.6 9.9 6.1 13.4 10.7s6.2 10 7.9 16.2c1.8 6.2 2.7 12.9 2.7 20.2"/><path d="M11.3 266.4h2.3v9.7c0 1.7-.2 3-.6 4-.4 1-1.1 1.8-2.1 2.4-1 .6-2.4.9-4 .9s-2.9-.3-4-.8c-1-.5-1.8-1.3-2.2-2.3-.4-1-.7-2.4-.7-4.2v-9.7h2.3v9.7c0 1.5.1 2.5.4 3.2.3.7.8 1.2 1.4 1.6.7.4 1.5.6 2.5.6 1.7 0 2.9-.4 3.6-1.1.7-.7 1.1-2.2 1.1-4.3v-9.7z"/></g><g><path d="M17.1 283.2v-16.8h2.4l9 13.2v-13.2h2.2v16.8h-2.4l-9-13.2v13.2z"/></g><g><path d="M36.6 281.2h3.7c1.1 0 2-.1 2.7-.3.7-.2 1.2-.5 1.5-.9.5-.5 1-1.2 1.3-2.1.3-.9.5-2 .5-3.2 0-1.7-.3-3.1-.9-4-.6-.9-1.3-1.6-2.2-1.9-.6-.2-1.6-.4-2.9-.4h-3.6v12.8zm-2.3 2v-16.7h5.9c1.3 0 2.4.1 3.1.2 1 .2 1.8.6 2.5 1.2.9.7 1.6 1.7 2 2.9.4 1.2.7 2.5.7 4 0 1.3-.2 2.4-.5 3.4s-.7 1.8-1.2 2.4c-.5.6-1 1.1-1.6 1.5-.6.4-1.3.6-2.1.8-.8.2-1.7.3-2.8.3h-6zM53.8 274.4h4.4c1.5 0 2.5-.3 3.1-.8.6-.5.9-1.3.9-2.2 0-.7-.2-1.3-.5-1.8-.4-.5-.8-.8-1.4-1-.4-.1-1.1-.2-2.1-.2h-4.4v6zm-2.3 8.8v-16.7H58c1.1 0 2 .1 2.6.2.8.1 1.5.4 2.1.8.6.4 1 .9 1.4 1.6.3.7.5 1.5.5 2.3 0 1.4-.5 2.6-1.4 3.6-.9 1-2.6 1.5-5 1.5h-4.4v6.8h-2.3zM72.8 274.8c0 .5-.2.9-.5 1.2-.4.3-.8.5-1.3.5s-.9-.2-1.3-.5-.5-.8-.5-1.2c0-.5.2-.9.5-1.3.4-.3.8-.5 1.3-.5s.9.2 1.3.5c.4.4.5.8.5 1.3M89.7 266.4H92v9.7c0 1.7-.2 3-.6 4-.4 1-1.1 1.8-2.1 2.4-1 .6-2.4.9-4 .9s-2.9-.3-4-.8c-1-.5-1.8-1.3-2.2-2.3-.4-1-.7-2.4-.7-4.2v-9.7h2.3v9.7c0 1.5.1 2.5.4 3.2.3.7.8 1.2 1.4 1.6.7.4 1.5.6 2.5.6 1.7 0 2.9-.4 3.6-1.1.7-.7 1.1-2.2 1.1-4.3v-9.7z"/></g><g><path d="M95.6 283.2v-16.8h2.3l9 13.2v-13.2h2.2v16.8h-2.3l-9-13.2v13.2zM112.9 283.2v-16.8h11.6v2h-9.3v5.2h8v2h-8v7.6z"/></g><g><path d="M129.6 274.4h4.4c1.5 0 2.5-.3 3.1-.8.6-.5.9-1.3.9-2.2 0-.7-.2-1.3-.5-1.8-.4-.5-.8-.8-1.4-1-.4-.1-1.1-.2-2.1-.2h-4.4v6zm-2.3 8.8v-16.7h6.5c1.1 0 2 .1 2.6.2.8.1 1.5.4 2.1.8.6.4 1 .9 1.4 1.6.3.7.5 1.5.5 2.3 0 1.4-.5 2.6-1.4 3.6-.9 1-2.6 1.5-5 1.5h-4.4v6.8h-2.3zM146.2 276.3h5.8l-1.8-4.6c-.5-1.4-.9-2.6-1.2-3.5-.2 1.1-.5 2.1-.9 3.2l-1.9 4.9zm-4.9 6.9l6.6-16.7h2.5l7 16.7h-2.6l-2-5.1h-7.2l-1.9 5.1h-2.4zM165.1 274.8c0 .5-.2.9-.5 1.2-.4.3-.8.5-1.3.5s-.9-.2-1.3-.5-.5-.8-.5-1.2c0-.5.2-.9.5-1.3.4-.3.8-.5 1.3-.5s.9.2 1.3.5c.3.4.5.8.5 1.3M182.6 266.4h2.3v9.7c0 1.7-.2 3-.6 4-.4 1-1.1 1.8-2.1 2.4-1 .6-2.4.9-4 .9s-2.9-.3-4-.8c-1-.5-1.8-1.3-2.2-2.3-.4-1-.7-2.4-.7-4.2v-9.7h2.3v9.7c0 1.5.1 2.5.4 3.2.3.7.8 1.2 1.4 1.6.7.4 1.5.6 2.5.6 1.7 0 2.9-.4 3.6-1.1.7-.7 1.1-2.2 1.1-4.3v-9.7z"/></g><g><path d="M188.5 283.2v-16.8h2.3l9.1 13.2v-13.2h2.2v16.8h-2.4l-9-13.2v13.2zM206.1 266.5h2.3v16.7h-2.3z"/></g><g><path d="M224.5 277.3l2.3.6c-.5 1.8-1.3 3.2-2.6 4.2-1.2 1-2.8 1.4-4.5 1.4-1.8 0-3.3-.4-4.5-1.1-1.2-.7-2-1.8-2.7-3.2-.6-1.4-.9-2.9-.9-4.5 0-1.7.3-3.3 1-4.6.7-1.3 1.7-2.3 2.9-3 1.3-.7 2.7-1 4.2-1 1.7 0 3.2.4 4.3 1.3 1.2.9 2 2.1 2.4 3.6l-2.2.5c-.4-1.2-1-2.1-1.7-2.7-.8-.6-1.7-.8-2.9-.8-1.3 0-2.4.3-3.3.9-.9.6-1.5 1.4-1.9 2.5-.4 1-.5 2.1-.5 3.2 0 1.4.2 2.7.6 3.7.4 1.1 1.1 1.9 2 2.4.9.5 1.9.8 2.9.8 1.3 0 2.4-.4 3.2-1.1 1-.6 1.6-1.7 1.9-3.1"/></g><g><path d="M229.4 283.2v-16.8h12.5v2h-10.2v5.2h9.5v1.9h-9.5v5.7h10.6v2zM245.3 283.2v-16.8h11.6v2h-9.3v5.2h8.1v2h-8.1v7.6z"/></g><g><path d="M265.9 274.8c0 .5-.2.9-.5 1.2-.4.3-.8.5-1.3.5s-.9-.2-1.3-.5-.5-.8-.5-1.2c0-.5.2-.9.5-1.3.4-.3.8-.5 1.3-.5s.9.2 1.3.5c.3.4.5.8.5 1.3M275.8 283.2l-4.6-16.7h2.3l2.6 11c.3 1.2.5 2.3.7 3.4.4-1.8.7-2.8.8-3.1l3.3-11.3h2.8l2.5 8.5c.6 2.1 1.1 4.1 1.3 5.9.2-1.1.5-2.3.9-3.6l2.7-10.8h2.3l-4.7 16.7h-2.2l-3.6-12.7c-.3-1.1-.5-1.7-.5-2-.2.8-.4 1.4-.5 2l-3.7 12.7h-2.4z"/></g><g><path d="M295.4 283.2v-16.8h2.3v6.9h8.9v-6.9h2.3v16.8h-2.3v-7.9h-8.9v7.9z"/></g><g><path d="M314.2 275.1c0 2 .6 3.6 1.7 4.8 1.1 1.2 2.5 1.7 4.2 1.7 1.7 0 3.1-.6 4.2-1.8 1.1-1.2 1.7-2.8 1.7-5 0-1.4-.2-2.5-.7-3.6-.5-1-1.2-1.8-2.1-2.4-.9-.6-1.9-.8-3.1-.8-1.6 0-3 .5-4.2 1.6-1.2 1.2-1.7 2.9-1.7 5.5m-2.4-.1c0-2.8.8-5 2.3-6.5 1.5-1.6 3.5-2.4 5.9-2.4 1.6 0 3 .4 4.3 1.1 1.3.7 2.2 1.8 2.9 3.1.7 1.3 1 2.8 1 4.5 0 1.7-.4 3.2-1.1 4.5-.7 1.3-1.7 2.4-3 3-1.3.7-2.7 1-4.2 1-1.6 0-3.1-.4-4.3-1.1-1.3-.8-2.2-1.8-2.9-3.1-.6-1.2-.9-2.6-.9-4.1M337.2 274.8c0 .5-.2.9-.5 1.2-.4.3-.8.5-1.3.5s-.9-.2-1.3-.5-.5-.8-.5-1.2c0-.5.2-.9.5-1.3.4-.3.8-.5 1.3-.5s.9.2 1.3.5c.3.4.5.8.5 1.3M345.8 283.2l-4.6-16.7h2.3l2.6 11c.3 1.2.5 2.3.7 3.4.4-1.8.7-2.8.8-3.1l3.3-11.3h2.7l2.5 8.5c.6 2.1 1.1 4.1 1.3 5.9.2-1.1.5-2.3.9-3.6l2.7-10.8h2.3l-4.7 16.7h-2.2l-3.6-12.7c-.3-1.1-.5-1.7-.5-2-.2.8-.4 1.4-.5 2l-3.7 12.7h-2.3zM366.9 275.1c0 2 .6 3.6 1.7 4.8 1.1 1.2 2.5 1.7 4.2 1.7 1.7 0 3.1-.6 4.2-1.8 1.1-1.2 1.7-2.8 1.7-5 0-1.4-.2-2.5-.7-3.6-.5-1-1.2-1.8-2.1-2.4-.9-.6-1.9-.8-3.1-.8-1.6 0-3 .5-4.2 1.6-1.1 1.2-1.7 2.9-1.7 5.5m-2.3-.1c0-2.8.8-5 2.3-6.5 1.5-1.6 3.5-2.4 5.9-2.4 1.6 0 3 .4 4.3 1.1 1.3.7 2.2 1.8 2.9 3.1.7 1.3 1 2.8 1 4.5 0 1.7-.4 3.2-1.1 4.5-.7 1.3-1.7 2.4-3 3-1.3.7-2.7 1-4.2 1-1.6 0-3.1-.4-4.3-1.1-1.3-.8-2.2-1.8-2.9-3.1-.6-1.2-.9-2.6-.9-4.1M386.1 273.8h4.9c1 0 1.9-.1 2.4-.3.6-.2 1-.5 1.3-1 .3-.5.5-1 .5-1.5 0-.8-.3-1.4-.9-2-.6-.5-1.5-.8-2.8-.8h-5.4v5.6zm-2.3 9.4v-16.7h7.6c1.5 0 2.7.1 3.5.5.8.3 1.4.8 1.9 1.6s.7 1.6.7 2.5c0 1.2-.4 2.2-1.2 3-.8.8-2 1.3-3.7 1.5.6.3 1.1.6 1.4.8.7.6 1.3 1.3 1.9 2.2l3 4.6h-2.8l-2.3-3.5c-.7-1-1.2-1.8-1.6-2.3-.4-.5-.8-.9-1.2-1.1l-1-.4c-.3-.1-.7-.1-1.3-.1h-2.6v7.4h-2.3z"/></g><g><path d="M400.9 283.2v-16.8h2.2v14.8h8.5v2z"/></g><g><path d="M416.4 281.2h3.7c1.1 0 2-.1 2.7-.3.7-.2 1.2-.5 1.5-.9.5-.5 1-1.2 1.3-2.1.3-.9.5-2 .5-3.2 0-1.7-.3-3.1-.9-4-.6-.9-1.3-1.6-2.2-1.9-.6-.2-1.6-.4-2.9-.4h-3.6v12.8zm-2.2 2v-16.7h5.9c1.3 0 2.4.1 3.1.2 1 .2 1.8.6 2.5 1.2.9.7 1.6 1.7 2 2.9.4 1.2.7 2.5.7 4 0 1.3-.2 2.4-.5 3.4s-.7 1.8-1.2 2.4c-.5.6-1 1.1-1.6 1.5-.6.4-1.3.6-2.1.8-.8.2-1.7.3-2.8.3h-6zM440 281.2h4.3c.7 0 1.2 0 1.5-.1.5-.1 1-.2 1.3-.5l.9-.9c.2-.4.3-.9.3-1.4 0-.6-.2-1.2-.5-1.6-.3-.5-.8-.8-1.4-1-.6-.2-1.4-.3-2.5-.3h-4v5.8zm0-7.7h3.7c1 0 1.7-.1 2.2-.2.6-.2 1-.5 1.3-.8.3-.4.4-.9.4-1.5 0-.5-.1-1-.4-1.5-.3-.4-.7-.7-1.2-.9s-1.4-.2-2.6-.2H440v5.1zm-2.3 9.7v-16.7h6.5c1.3 0 2.4.2 3.2.5.8.3 1.4.9 1.9 1.6.4.7.7 1.4.7 2.2 0 .7-.2 1.4-.6 2-.4.6-1 1.1-1.8 1.5 1 .3 1.9.8 2.4 1.5.6.7.8 1.6.8 2.5 0 .8-.2 1.5-.5 2.2-.3.7-.8 1.2-1.3 1.6-.5.4-1.1.6-1.9.8-.8.2-1.7.3-2.8.3h-6.6zM456.8 276.3h5.8l-1.8-4.6c-.5-1.4-.9-2.6-1.2-3.5-.2 1.1-.5 2.1-.9 3.2l-1.9 4.9zm-5 6.9l6.6-16.7h2.5l7 16.7h-2.6l-2-5.1h-7.2l-1.9 5.1h-2.4z"/></g><g><path d="M469.5 283.2v-16.8h2.3l9.1 13.2v-13.2h2.2v16.8h-2.4l-9-13.2v13.2zM486.6 283.2v-16.8h2.3v8.4l8.5-8.4h3.1l-7.2 6.8 7.5 10h-3l-6.1-8.5-2.8 2.7v5.8z"/></g></svg>