<svg xmlns="http://www.w3.org/2000/svg" width="1080.5" height="283.5" viewBox="0 0 1080.5 283.5"><path fill="#003C70" d="M0 119.3V5.7h22.3v113.6H0zM55 47.7h.3c5.4-7.3 15.6-11.5 25-11.5 9.9 0 18.5 4.1 23.2 11.5 6.6-6.5 16.9-11.4 26.2-11.5 17.8-.2 27.2 11 27.5 29.7v53.2h-21V69.8c0-9.4-3.2-19.1-13.6-19.1-10.1 0-16.4 6.2-16.4 20.3v48.4h-21V69.8c0-11.4-4.9-19.1-13.9-19.1-10 0-16.1 7-16.1 20.8v47.9h-21V38.1H55v9.6zM210 49.2c12 0 18 14 18 27.9 0 14.3-4.7 31.2-18.8 31.2-11.4 0-19.4-11.5-19.4-28.6 0-18.7 6.9-30.5 20.2-30.5zm-20.2-11.1h-21v121.7h21v-50.6c5.9 7.2 14.1 12 23.7 12 22.6 0 36.8-22.9 36.8-44.3 0-17.9-10.1-40.7-34.9-40.7-9.5 0-19.7 4.9-25.3 13.1h-.3V38.1zM280.4 69c-.2-10.9 5.2-20.8 17.2-20.8 10.4 0 14.7 8.4 13.9 20.8h-31.1zm50.8 11.6c1.6-24.2-8.7-44.5-33.3-44.5-22.6 0-40.3 15.9-40.3 40.9 0 26.8 17.8 44.1 41.7 44.1 9 0 20.2-2.6 31-9.1l-6-11.4c-5.2 3.7-13.4 6.5-21.2 6.5-13.1 0-23.5-11.4-23-26.6h51.1zM362.2 52.4h.3l4.3-6.3c2.5-3.4 7.1-9.9 13.6-9.9 4.7 0 9.8 2.6 14.2 7.3l-7.9 14.9c-3.5-1.8-5.7-2.8-10-2.8-7.3 0-14.4 6-14.4 23.5v40.1h-21V38.1h20.9v14.3zM422.3 38.1v81.1h-21V38.1h21zm-23-24.3c0-6.2 5.1-12.5 12.2-12.5 7.3 0 13 6.2 13 12.5 0 7-4.9 13.6-12.6 13.6-7.6 0-12.6-6.6-12.6-13.6zM479.4 72.2c1.6 23.8-9.3 34.6-17.7 34.6-5.1 0-9.5-4.9-9.5-12 0-9.2 5.2-15.4 15.5-18.7l11.7-3.9zm-.4 35.2c0 4.4.5 9.1 2 11.8h22.3c-2.5-5.7-3.3-13.3-3.3-19.8v-33c0-25.3-17.8-30.2-32.4-30.2-10.9 0-20.5 2.8-30.3 11l6.8 10.2c5.5-4.9 11.9-8.3 20.9-8.3 6.8 0 13.3 4.7 14.4 12.2L460.7 67c-18.3 5.3-29.2 14.1-29.2 29.5 0 14.9 10.3 24.7 22.6 24.7 7.3 0 14.4-5 20.2-9.7l4.7-4.1zM513.2 119.3V0h21v119.3h-21zM672.8 26.3c-5.4-2.9-14.4-6.3-22.9-6.3-22.7 0-39.2 16.4-39.2 42.2 0 26.9 18.2 42.8 39.8 42.8 8.5 0 16.4-2.4 22.3-5.7l6.2 14.1c-6.8 4.1-18.6 7.8-29.4 7.8-38.4 0-62.6-26-62.6-59.4 0-31 24-58.1 62.9-58.1 11.5 0 22.3 4.2 29.9 8.8l-7 13.8z"/><path fill="#003C70" d="M720.6 109.2c-15 0-19.1-17.2-19.1-31.5 0-13.5 4.7-29.5 19.1-29.5 14.7 0 19.3 16.1 19.3 29.5 0 14.3-4 31.5-19.3 31.5zm0 12c24.8 0 41.5-18.3 41.5-43.5 0-26.3-20.2-41.5-41.5-41.5-21.2 0-41.4 15.3-41.4 41.5 0 25.2 16.8 43.5 41.4 43.5zM771.2 119.3V0h21v119.3h-21zM805.4 119.3V0h21v119.3h-21zM857.9 69c-.2-10.9 5.2-20.8 17.2-20.8 10.4 0 14.7 8.4 13.9 20.8h-31.1zm50.9 11.6c1.6-24.2-8.7-44.5-33.3-44.5-22.6 0-40.3 15.9-40.3 40.9 0 26.8 17.9 44.1 41.7 44.1 9 0 20.2-2.6 31-9.1l-6-11.4c-5.2 3.7-13.4 6.5-21.2 6.5-13.1 0-23.5-11.4-23.1-26.6h51.2zM1029.5 69c-.2-10.9 5.2-20.8 17.2-20.8 10.4 0 14.7 8.4 13.9 20.8h-31.1zm50.8 11.6c1.6-24.2-8.7-44.5-33.3-44.5-22.6 0-40.3 15.9-40.3 40.9 0 26.8 17.8 44.1 41.7 44.1 9 0 20.2-2.6 31-9.1l-6-11.4c-5.2 3.7-13.4 6.5-21.2 6.5-13.1 0-23.5-11.4-23.1-26.6h51.2zM957.9 49.2c12.6 0 19.1 13.1 19.1 27.3 0 16.2-6 31.8-20.1 31.8-12.2 0-18.1-15.3-18.1-31 0-15.8 5.5-28.1 19.1-28.1zM998 38.1h-21V48h-.3c-4.4-7.3-13.9-11.8-23.5-11.8-21.5 0-36.6 20.4-36.6 41.5 0 26 13.7 43.5 34.8 43.5 12 0 20.2-6.8 25.4-13.6h.3v10.7c0 18.8-10.7 27.6-24.6 27.6-10.7 0-19.7-2.1-27.5-7l-4.1 13.3c9.3 4.9 21.3 7.6 33.2 7.6 23.5 0 44.1-11.9 44.1-47.9V38.1zM0 168h22.4v98.3h47.2v15.3H0V168zM192.9 210c7.5-7.8 17.9-11.5 28.4-11.5 19.4 0 28.8 10.4 28.8 30.8v52.2H229v-49.8c0-11.4-5.2-18.8-16.6-18.8-10.8 0-19.3 7-19.3 20.3v48.4H172v-81.1h20.9v9.5zM304.7 211.4c13.3 0 20.1 13.1 20.1 27.2 0 16.2-6.3 31.8-21.1 31.8-12.8 0-19.1-15.3-19.1-31s5.9-28 20.1-28zm20.2 70.1H346V162.3h-21.1v47.5h-.3c-5-7.2-14.6-11.4-25.4-11.4-22.3 0-37.9 20.4-37.9 41.5 0 26 14.5 43.5 36.2 43.5 13 0 21.6-6.8 27.1-13.6h.3v11.7zM400.8 271.5c-15.8 0-20.1-17.2-20.1-31.5 0-13.5 5-29.5 20.1-29.5 15.5 0 20.3 16.1 20.3 29.5 0 14.3-4.1 31.5-20.3 31.5zm0 12c26.1 0 43.7-18.3 43.7-43.5 0-26.3-21.3-41.5-43.7-41.5-22.3 0-43.6 15.3-43.6 41.5.1 25.1 17.7 43.5 43.6 43.5zM477 210c7.5-7.8 18-11.5 28.4-11.5 19.4 0 28.8 10.4 28.8 30.8v52.2H513v-49.8c0-11.4-5.2-18.8-16.6-18.8-10.8 0-19.3 7-19.3 20.3v48.4H456v-81.1h21v9.5zM116.4 271.5c-15.8 0-20.1-17.2-20.1-31.5 0-13.5 5-29.5 20.1-29.5 15.5 0 20.3 16.1 20.3 29.5 0 14.3-4.2 31.5-20.3 31.5zm0 12c26.1 0 43.7-18.3 43.7-43.5 0-26.3-21.3-41.5-43.7-41.5-22.3 0-43.6 15.3-43.6 41.5.1 25.1 17.7 43.5 43.6 43.5z"/></svg>