<svg xmlns="http://www.w3.org/2000/svg" viewBox="0 0 482.5 177.6"><path fill="#74CBC8" d="M235.6 93.9c-4.3-3.1-8.9-4.8-13.4-4.8-5.4 0-8.9 2.6-8.9 6.8 0 2.4 1.3 4.6 3.8 6.5 1 .7 2.1 1.3 5.9 3.2 10.5 5.6 14.8 10.9 14.8 19.1 0 11.1-9.7 19.1-23.4 19.1-5.1 0-10.5-1.2-16.1-3.5V126c5.9 3.9 10.7 5.8 15 5.8 5.3 0 9.2-3 9.2-7.1 0-3.5-1.8-5.3-9.9-9.5-4.6-2.4-6-3.3-8-5.1-4.5-3.9-6.5-8.2-6.5-13.6 0-11.6 9.2-19.6 22.5-19.6 5 0 8.5.8 15 3.5v13.5M281 93.9c-4.3-3.1-8.9-4.8-13.4-4.8-5.4 0-8.9 2.6-8.9 6.8 0 2.4 1.3 4.6 3.8 6.5 1 .7 2.1 1.3 5.9 3.2 10.5 5.6 14.8 10.9 14.8 19.1 0 11.1-9.7 19.1-23.4 19.1-5.1 0-10.5-1.2-16.1-3.5V126c5.9 3.9 10.7 5.8 15 5.8 5.3 0 9.2-3 9.2-7.1 0-3.5-1.8-5.3-9.9-9.5-4.6-2.4-6-3.3-8-5.1-4.5-3.9-6.5-8.2-6.5-13.6 0-11.6 9.2-19.6 22.5-19.6 5 0 8.5.8 15 3.5v13.5M305.4 77.8l34 40.7V77.8h14.7V143h-13.3l-34.3-41.1V143h-14.7V77.8h13.6M426.7 143h-15.8l-5.5-13.3h-28.3l-5 13.3h-14.7l25-65.2H399l27.7 65.2m-36.4-49.7l-9.5 26.2h20.4l-10.9-26.2zM461.2 77.8c5.5 0 10.6 1.7 13.9 4.3 4.5 3.7 7.3 9.9 7.3 15.8 0 11.1-8.8 18.9-21.4 18.9h-10.2V143H436V77.8h25.2m-4.1 27.4c6.3 0 9.7-2.8 9.7-8s-3.3-7.9-9.7-7.9h-6.3v15.9h6.3z"/><linearGradient id="a" gradientUnits="userSpaceOnUse" x1="136.706" y1=".173" x2="136.706" y2="148.738"><stop offset="0" stop-color="#9bd5bd"/><stop offset="1" stop-color="#74cbc8"/></linearGradient><path fill="url(#a)" d="M94.9 147.7c-.1-4.1 0-8.2.1-12.4.2-4.1.4-8.2.8-12.4.8-8.2 2-16.4 4.4-24.4 1.2-4 2.7-8 4.9-11.6 2.3-3.5 4.6-6.9 7.4-10.1 1.4-1.6 2.9-3.1 4.6-4.4 1.7-1.3 3.6-2.4 5.7-3.2 2.1-.8 4.2-1.2 6.3-1.5 2.1-.3 4.2-.5 6.2-.6 4.1-.3 8-.9 11.9-2.1 1.9-.5 3.8-1.2 5.8-2 1-.4 2-.7 3-1 .5-.2 1.1-.3 1.6-.4l1.5-.3c2-.4 4.1-.8 6.2-1.1 2.1-.2 4.3-.4 6.5 0 1.1.2 2.2.6 3.3 1.2 1 .6 1.9 1.5 2.5 2.6.3.5.5 1.1.7 1.6.2.6.3 1.1.3 1.8.1 1.2-.2 2.5-.8 3.5-1.1 2.1-2.9 3.5-4.7 4.6-1.8 1.1-3.7 2.1-5.6 2.9-3.9 1.6-7.8 2.9-11.7 4.1l-5.9 1.8c-2 .6-4 1.1-6 1.7-2 .6-4 1.1-5.8 2-1.9.9-3.5 2.1-5.1 3.4 1.5-1.4 3.1-2.8 4.9-3.8 1.8-1 3.8-1.6 5.8-2.3 2-.6 3.9-1.3 5.9-1.9l5.8-2.1c3.9-1.4 7.8-2.7 11.4-4.4 1.8-.9 3.6-1.8 5.3-2.9 1.6-1.1 3.1-2.4 3.9-4 .4-.8.6-1.6.5-2.4 0-.4-.1-.8-.3-1.3-.1-.4-.3-.8-.5-1.2-.9-1.5-2.5-2.3-4.3-2.6-1.8-.3-3.8-.2-5.8.1-2 .3-4 .7-6 1.1l-1.5.3c-.5.1-.9.2-1.4.3-.9.3-1.9.6-2.8 1-1.9.7-3.9 1.5-5.9 2.1-4.1 1.2-8.2 1.9-12.4 2.2-4.1.4-8.2.6-11.8 1.9-3.6 1.3-6.7 3.9-9.4 6.9-2.7 3-5.1 6.3-7.3 9.7-2.1 3.4-3.6 7.1-4.9 11-2.5 7.8-4 15.9-5.1 24-1.2 8.2-1.8 16.4-2.2 24.6"/><linearGradient id="b" gradientUnits="userSpaceOnUse" x1="156.45" y1=".173" x2="156.45" y2="148.738"><stop offset="0" stop-color="#9bd5bd"/><stop offset="1" stop-color="#74cbc8"/></linearGradient><path fill="url(#b)" d="M126.5 147.3c-1.1-3.3-1.9-6.6-2.5-10-.6-3.4-.9-6.9-.6-10.4.2-1.8.6-3.5 1.6-5.2.9-1.6 2.6-3 4.5-3.5 3.4-.9 6.8-1.4 10.3-1.9 3.4-.5 6.8-.9 10.2-1.4 3.3-.6 6.6-1.3 9.5-2.8.7-.4 1.4-.8 2-1.3.6-.5 1.3-1.1 1.9-1.6 1.3-1.1 2.5-2.3 3.8-3.4 2.5-2.3 4.9-4.8 7.2-7.3s4.6-5 6.7-7.7c2.1-2.6 4.1-5.4 5.5-8.3.3-.7.6-1.5.7-2.2 0-.2.1-.3.1-.5V78l-.2-5.1c-.1-3.4-.3-6.9-.5-10.3-.2-3.4-.6-6.8-1.1-10.2-.3-1.7-.6-3.3-1.1-4.9-.3-.8-.6-1.5-1-2.1-.2-.3-.4-.4-.6-.5h-1.1c-1.6.1-3.2.6-4.4 1.7-1.2 1.1-1.9 2.6-2.4 4.2s-.8 3.3-1 5l-.8 5.1c.4-3.4.4-6.9 1.2-10.3.4-1.7 1.1-3.4 2.4-4.8 1.3-1.3 3.2-2 4.9-2.2.2 0 .4-.1.7-.1.2 0 .4-.1.8 0 .7.1 1.2.5 1.5.9.7.8 1 1.6 1.4 2.5.6 1.7 1 3.4 1.4 5.1.7 3.4 1.1 6.9 1.5 10.3.3 3.4.6 6.9.8 10.3l.2 5.2.1 1.3v.8c0 .3 0 .5-.1.8-.2 1-.5 1.9-.8 2.7-.7 1.7-1.7 3.2-2.6 4.7-1 1.5-2 2.9-3.1 4.3-2.2 2.7-4.5 5.4-6.8 7.9-2.4 2.5-4.8 5-7.4 7.3-1.3 1.2-2.6 2.4-3.9 3.5-.7.6-1.3 1.1-2.1 1.7-.8.6-1.6 1-2.4 1.5-3.3 1.6-6.8 2.3-10.3 2.9-3.5.5-6.9.8-10.3 1.2-3.4.4-6.8.8-10.1 1.5-1.5.3-2.7 1.2-3.6 2.6-.8 1.3-1.3 2.9-1.6 4.6-.5 3.3-.4 6.8 0 10.2.2 1.7.5 3.4.8 5.1-.1 1.6.2 3.2.7 4.9"/><linearGradient id="c" gradientUnits="userSpaceOnUse" x1="171.715" y1=".173" x2="171.715" y2="148.738"><stop offset="0" stop-color="#9bd5bd"/><stop offset="1" stop-color="#74cbc8"/></linearGradient><path fill="url(#c)" d="M155.6 107c.7.3 1.5.1 2.2-.1.7-.3 1.3-.6 1.9-1 1.2-.8 2.3-1.9 3.3-2.9 1-1.1 2-2.2 2.9-3.4.9-1.2 1.9-2.3 2.9-3.4 2-2.3 4.1-4.4 6.1-6.6 2.1-2.2 4.1-4.3 6-6.6 4-4.4 5.2-10.3 5.4-16.2.1-3 .1-5.9-.1-8.9-.1-3-.5-6-.8-9 1.3 5.8 2.3 11.8 2.3 17.9 0 3-.3 6.1-1.1 9.1-.2.7-.5 1.5-.7 2.2-.3.7-.6 1.5-1 2.2-.8 1.4-1.7 2.6-2.7 3.8-3.9 4.7-8.4 8.7-12.5 13-1 1.1-2.1 2.2-3.1 3.3-1 1.1-2 2.2-3.2 3.3-1.1 1-2.3 2-3.7 2.7-.7.4-1.4.7-2.1.9-.5 0-1.3.1-2-.3"/><linearGradient id="d" gradientUnits="userSpaceOnUse" x1="52.969" y1=".173" x2="52.969" y2="148.738"><stop offset="0" stop-color="#9bd5bd"/><stop offset="1" stop-color="#74cbc8"/></linearGradient><path fill="url(#d)" d="M94.8 147.7c-.4-8.2-1.1-16.4-2.2-24.6-1.1-8.1-2.6-16.2-5.1-24-1.3-3.9-2.8-7.6-4.9-11-2.2-3.4-4.6-6.7-7.3-9.7-2.7-3-5.7-5.6-9.4-6.9-3.6-1.3-7.7-1.5-11.8-1.9-4.1-.4-8.3-1-12.4-2.2-2-.6-4-1.3-5.9-2.1-1-.4-1.9-.7-2.8-1-.5-.1-.9-.2-1.4-.3l-1.5-.3c-2-.4-4-.9-6-1.1-2-.3-4-.4-5.8-.1-1.8.3-3.5 1.1-4.3 2.6-.2.4-.4.8-.5 1.2-.1.4-.2.9-.3 1.3-.1.8.1 1.7.5 2.4.8 1.6 2.3 2.9 3.9 4s3.4 2 5.3 2.9c3.7 1.7 7.6 3.1 11.4 4.4l5.8 2.1c1.9.7 3.9 1.3 5.9 1.9 2 .7 3.9 1.3 5.8 2.3 1.8 1 3.4 2.3 4.9 3.8-1.6-1.3-3.2-2.6-5.1-3.4-1.8-.9-3.8-1.4-5.8-2-2-.5-4-1.1-6-1.7l-5.9-1.8C30 81.3 26 80 22.2 78.4c-1.9-.8-3.8-1.7-5.6-2.9-1.8-1.2-3.6-2.5-4.7-4.6-.6-1-.9-2.3-.8-3.5 0-.6.2-1.2.3-1.8.2-.6.4-1.1.7-1.6.6-1.1 1.5-2 2.5-2.6 1-.6 2.2-1 3.3-1.2 2.2-.4 4.4-.3 6.5 0 2.1.2 4.2.7 6.2 1.1l1.5.3c.5.1 1.1.2 1.6.4 1.1.3 2 .7 3 1 1.9.7 3.8 1.4 5.8 2 3.9 1.1 7.9 1.7 11.9 2.1 2 .2 4.1.4 6.2.6 2.1.3 4.2.7 6.3 1.5 2.1.8 4 1.9 5.7 3.2 1.7 1.3 3.2 2.8 4.6 4.4 2.8 3.2 5.1 6.6 7.4 10.1 2.2 3.7 3.7 7.6 4.9 11.6 2.4 8 3.6 16.2 4.4 24.4.4 4.1.6 8.2.8 12.4.2 4.1.2 8.3.1 12.4"/><linearGradient id="e" gradientUnits="userSpaceOnUse" x1="33.224" y1=".173" x2="33.224" y2="148.738"><stop offset="0" stop-color="#9bd5bd"/><stop offset="1" stop-color="#74cbc8"/></linearGradient><path fill="url(#e)" d="M63.2 147.3c.4-1.7.8-3.4 1.1-5 .3-1.7.6-3.4.8-5.1.4-3.4.5-6.8 0-10.2-.3-1.6-.7-3.3-1.6-4.6-.8-1.3-2.1-2.3-3.6-2.6-3.3-.7-6.7-1.2-10.1-1.5-3.4-.4-6.9-.7-10.3-1.2-3.4-.6-6.9-1.3-10.3-2.9-.8-.4-1.6-.9-2.4-1.5-.7-.6-1.4-1.1-2.1-1.7-1.3-1.1-2.6-2.3-3.9-3.5-2.5-2.4-5-4.8-7.4-7.3-2.4-2.5-4.7-5.1-6.8-7.9-1.1-1.4-2.1-2.8-3.1-4.3s-1.9-3-2.6-4.7c-.4-.9-.7-1.7-.9-2.7.1-.1 0-.4 0-.6v-.8l.1-1.3.2-5.2c.2-3.5.4-6.9.8-10.3.4-3.4.8-6.9 1.5-10.3.3-1.7.7-3.4 1.4-5.1.3-.8.7-1.7 1.4-2.5.3-.4.8-.8 1.5-.9h.8c.2 0 .5.1.7.1 1.8.3 3.6.9 4.9 2.2 1.3 1.3 2 3.1 2.4 4.8.8 3.4.8 6.9 1.2 10.3l-.9-5.1c-.3-1.7-.5-3.4-1-5s-1.2-3.2-2.4-4.2c-1.2-1.1-2.8-1.5-4.4-1.7H7.1c-.2 0-.4.2-.6.5-.4.5-.8 1.3-1 2.1-.5 1.6-.8 3.2-1.1 4.9-.5 3.4-.9 6.8-1.1 10.2-.4 3.3-.6 6.7-.7 10.1L2.5 78v1.8c0 .2 0 .3.1.5.1.7.4 1.4.7 2.2 1.4 2.9 3.4 5.7 5.5 8.3 2.1 2.7 4.4 5.2 6.7 7.7s4.7 4.9 7.2 7.3c1.2 1.2 2.5 2.3 3.8 3.4.6.5 1.3 1.1 1.9 1.6.6.5 1.3.9 2 1.3 2.9 1.5 6.2 2.2 9.5 2.8 3.3.6 6.8 1 10.2 1.4 3.4.5 6.9 1 10.3 1.9 1.9.5 3.6 1.8 4.5 3.5.9 1.6 1.4 3.4 1.6 5.2.4 3.5 0 7-.6 10.4-.7 3.4-1.6 6.7-2.7 10"/><linearGradient id="f" gradientUnits="userSpaceOnUse" x1="17.96" y1=".173" x2="17.96" y2="148.738"><stop offset="0" stop-color="#9bd5bd"/><stop offset="1" stop-color="#74cbc8"/></linearGradient><path fill="url(#f)" d="M34.1 107c-.7.4-1.5.3-2.2.1-.7-.2-1.4-.5-2.1-.9-1.3-.8-2.5-1.7-3.6-2.7-1.1-1-2.2-2.1-3.2-3.3-1-1.1-2-2.2-3.1-3.3-4.1-4.3-8.6-8.3-12.5-13-1-1.2-1.9-2.4-2.7-3.8-.4-.7-.7-1.4-1-2.2-.3-.7-.5-1.5-.7-2.2-.8-3-1.1-6.1-1.1-9.1 0-6.1 1-12.1 2.3-17.9-.3 3-.6 6-.8 9-.2 3-.3 6-.1 8.9.3 5.9 1.4 11.8 5.4 16.2 1.9 2.3 3.9 4.4 6 6.6 2.1 2.2 4.1 4.3 6.1 6.6 1 1.1 2 2.3 2.9 3.4.9 1.2 1.9 2.3 2.9 3.4s2.1 2.1 3.3 2.9c.6.4 1.2.8 1.9 1 .8.4 1.6.6 2.3.3"/><linearGradient id="g" gradientUnits="userSpaceOnUse" x1="46.306" y1=".173" x2="46.306" y2="148.738"><stop offset="0" stop-color="#9bd5bd"/><stop offset="1" stop-color="#74cbc8"/></linearGradient><path fill="url(#g)" d="M27.9 58.4c1-2.7 2.4-5.3 4.2-7.6.9-1.1 2-2.2 3.2-3.1.3-.2.6-.4 1-.6.3-.2.6-.3.9-.5.6-.4 1.1-.7 1.6-1.2.4-.5.7-1 .8-1.5.1-.5-.1-1.1-.4-1.7-.3-.6-.7-1.1-1.1-1.7-.1-.2-.2-.3-.3-.5l-.3-.6c-.2-.4-.3-.7-.4-1.1-.9-3-1-5.9-1.3-8.7-.2-1.4-.4-2.8-.7-4.1-.3-1.2-1-2.5-1.6-3.8-.6-1.3-1.2-2.7-1.5-4.4-.1-.8-.1-1.8.2-2.7.3-.9 1-1.8 1.7-2.3.4-.3.7-.5 1.1-.7l.6-.3.5-.2c.7-.3 1.4-.5 2.1-.8 1.4-.5 2.8-.9 4.2-1.3 2.8-.7 5.7-1.4 8.8-1.5.8 0 1.6 0 2.4.1.8.1 1.7.3 2.5.9 1.4.9 2.6 2 3.5 3.5.4.7.8 1.6.9 2.6 0 .5-.1 1.1-.3 1.7-.3.6-.8 1-1.2 1.3-.1.1-.2.1-.4.2l-.3.1-.5.2-1 .4c-.7.2-1.3.5-1.8.8-.5.3-1 .6-1.1.9-.1.1-.1.2-.1.4s.1.4.2.6c.5.9 1.6 2 2.6 3 2 2.2 3.8 4.6 5.1 7.3C63 34.2 64 37 64.4 40c.5 2.9.6 5.9.3 8.8-.2 2.9-.7 5.8-1.4 8.6-.4 1.4-.7 2.8-1.2 4.2-.5 1.4-.9 2.7-1.5 4.1 1.5-5.5 2.7-11.2 2.8-16.9.1-5.7-.9-11.4-3.6-16.2-1.3-2.4-3.1-4.6-5-6.6l-1.5-1.5c-.5-.5-1.1-1.1-1.5-1.9-.2-.4-.4-.9-.5-1.4-.1-.6 0-1.2.3-1.7.5-1.1 1.4-1.6 2.1-2 .7-.4 1.4-.7 2.1-.9l1-.4.5-.2.2-.1s.1 0 .1-.1c.2-.2.3-.2.3-.7 0-.4-.2-.9-.5-1.4-.6-1-1.6-1.9-2.6-2.6-.8-.5-2.1-.6-3.5-.6-2.7.1-5.5.6-8.2 1.3-1.4.4-2.7.8-4.1 1.2-.7.2-1.3.5-2 .7l-.5.2c-.1.1-.3.1-.4.2-.3.1-.5.3-.7.4-.8.6-1.1 1.4-1 2.7.2 1.2.7 2.5 1.2 3.8l.8 2c.3.7.6 1.4.8 2.2.4 1.5.5 3 .7 4.4.3 2.9.3 5.8 1 8.4l.3.9c.1.2.1.3.2.4 0 .1.2.3.2.4.4.6.8 1.3 1.1 2 .3.7.5 1.6.4 2.5-.1.9-.7 1.7-1.3 2.3-.6.6-1.3 1-1.9 1.4-.3.2-.7.3-1 .5-.3.1-.6.3-.9.4-1.2.7-2.3 1.6-3.2 2.6s-1.8 2.2-2.6 3.3c-.9 1.1-1.7 2.4-2.3 3.7"/><linearGradient id="h" gradientUnits="userSpaceOnUse" x1="67.521" y1=".173" x2="67.521" y2="148.738"><stop offset="0" stop-color="#9bd5bd"/><stop offset="1" stop-color="#74cbc8"/></linearGradient><path fill="url(#h)" d="M55.1 6c.1-1.5.4-3 1.3-4.3.4-.6 1.1-1.2 2-1.5.8-.2 1.7-.1 2.5.1s1.5.7 2.1 1c.6.4 1.3.7 1.9 1.1 1.3.7 2.6 1.3 3.9 1.9 1.3.6 2.7 1 4 1.3.7.2 1.4.3 2.1.4l.6.1c.3 0 .5.1.7.2.5.1.9.3 1.3.6.8.5 1.5 1.2 2 2.1.5.9.7 2 .4 3.1-.3 1.1-1 1.9-1.8 2.5-.4.3-.8.5-1.2.7-.2.1-.4.2-.6.2l-.6.2c-1.5.5-3 .7-4.3 1.1-.6.2-1.1.5-1.3.7-.2.2-.3.6-.2 1.2.1.6.3 1.2.5 1.8.2.7.5 1.2.8 1.9.6 1.3 1.4 2.5 2.2 3.8.7 1.3 1.5 2.7 2 4.2s.8 3 .9 4.6c.2 3.1-.5 6.1-1.5 8.9.4-2.9.7-5.9.1-8.7-.5-2.8-1.8-5.3-3.4-7.7-.8-1.2-1.7-2.4-2.4-3.8-.4-.7-.8-1.4-1-2.1-.3-.7-.5-1.5-.7-2.4-.1-.5-.1-.9 0-1.5.1-.5.3-1.1.7-1.6.8-.9 1.7-1.3 2.5-1.6 1.6-.5 3-.7 4.3-1.1.7-.2 1.3-.4 1.7-.7.4-.3.7-.6.8-1 .2-.7-.3-1.8-1.2-2.4-.2-.1-.5-.3-.7-.4-.1 0-.3-.1-.4-.1l-.5-.1c-.8-.1-1.5-.3-2.3-.5-1.5-.4-2.9-1-4.3-1.7s-2.7-1.4-3.9-2.3c-.6-.4-1.2-.8-1.9-1.3-.6-.4-1.1-.8-1.8-1.1-.6-.3-1.2-.4-1.8-.3-.6.1-1.2.5-1.7 1-.9.7-1.5 2.1-1.8 3.5"/><linearGradient id="i" gradientUnits="userSpaceOnUse" x1="100.099" y1=".173" x2="100.099" y2="148.738"><stop offset="0" stop-color="#9bd5bd"/><stop offset="1" stop-color="#74cbc8"/></linearGradient><path fill="url(#i)" d="M97.7 90.8c-2.4-1.4-4.6-3-6.8-4.7-2.1-1.8-4.2-3.6-5.9-5.8-.4-.6-.8-1.1-1.2-1.8-.4-.7-.6-1.4-.8-2.1-.4-1.4-.6-2.8-.8-4.1-.4-2.8-.6-5.5-.8-8.2-.2-2.7-.3-5.5-.5-8.2 0-.7-.1-1.3-.2-2 0-.3-.1-.6-.1-.9l-.2-1c-.3-1.5-.3-2.9-.3-4.4.1-2.9.7-5.7 1.7-8.4.1-.3.3-.7.4-1 .1-.3.3-.7.5-1 .3-.7.7-1.3 1.3-2 .5-.6 1.1-1.2 2.1-1.7.5-.2 1.2-.3 1.9-.1.8.3 1.3 1 1.5 1.5.2.6.2 1.1.2 1.5V36.7c0-.1-.1-.2-.4-.5-.3-.2-.7-.2-.8-.1-.1 0-.1.1-.1 0l.2-.2.6-.6c.2-.2.6-.6 1.1-.9.2-.1.5-.3.9-.4.4-.1.8-.1 1.2.1.8.3 1.2 1 1.4 1.4.2.5.3 1 .3 1.4V38.3s0 .1 0 0c0 0 0-.2-.3-.4-.1-.1-.3-.2-.5-.2h-.2-.2c.1 0 .2-.1.3-.2.3-.2.6-.4 1-.6.7-.4 1.7-.8 2.8-.6.6.1 1.2.4 1.6.9.4.5.6 1.1.7 1.6.1 1-.1 1.9-.3 2.6-.2.7-.5 1.4-.7 2l-1.3 4c-.4 1.3-.9 2.5-1.2 3.8l-.3 1.8c0 .3 0 .5.1.7v.1l.1.2.2.4c1.2 2.4 2.6 4.7 4.1 7 .7 1.1 1.5 2.3 2.2 3.4.8 1.1 1.6 2.2 2.5 3 .1.1.2.2.3.2-.1 0-.3.1-.1 0l.9-.4c.6-.3 1.3-.5 2-.8 1.3-.5 2.7-.8 4.1-1 1.4-.2 2.8-.3 4.2-.1 1.4.2 2.7.6 3.9 1.4-2.5-1.2-5.3-1.1-7.9-.4-1.3.3-2.6.8-3.8 1.3l-1.8.9-.9.5s-.4.2-.6.2c-.2 0-.4-.1-.5-.1-.3-.1-.4-.2-.6-.4-1.2-1-2-2.1-2.9-3.2-.9-1.1-1.7-2.2-2.4-3.4-1.6-2.3-3-4.6-4.4-7l-.3-.5-.1-.2c0-.1-.1-.2-.2-.4-.2-.5-.2-.9-.2-1.4 0-.8.1-1.6.3-2.3.3-1.4.7-2.8 1.2-4.1.4-1.3.9-2.6 1.4-3.9.4-1.3.9-2.6.8-3.4 0-.2-.1-.3-.1-.3s-.1 0-.2-.1h-.5-.1c-.1 0 0 0-.1.1-.1 0-.2.1-.3.2-.2.1-.5.3-.8.5-.1.1-.3.2-.5.3-.1.1-.3.1-.5.2h-.5c-.2 0-.5-.1-.7-.3-.4-.3-.5-.6-.6-.8-.1-.2-.1-.3-.1-.5 0-.3-.1-.5-.1-.7V37c0-.3-.1-.5-.1-.6-.1-.1-.1-.1.1 0s.2 0 .1.1-.2.2-.5.4c-.2.3-.5.5-.8.8-.2.1-.3.3-.6.5-.1.1-.3.2-.6.3-.3.1-.8.1-1.3-.2-.5-.3-.6-.7-.7-.9-.1-.2-.1-.4-.1-.5v-.7-.5c0-.1 0 0 .1 0h-.1c-.3.1-.7.4-1.1.9-.4.4-.7.9-1 1.5-.1.3-.3.5-.4.8-.1.3-.2.6-.4.9-.9 2.5-1.4 5-1.6 7.6-.1 1.3-.1 2.6.1 3.8l.2 1c.1.4.1.7.1 1.1.1.7.1 1.4.1 2.1.1 2.8.2 5.5.2 8.2.1 2.7.2 5.4.5 8.1.1 1.3.3 2.7.6 3.9.1.6.3 1.3.6 1.8s.7 1.1 1 1.7c1.5 2.2 3.4 4.2 5.3 6.1 1.8 2.1 3.9 3.9 6 5.6"/><linearGradient id="j" gradientUnits="userSpaceOnUse" x1="73.183" y1=".173" x2="73.183" y2="148.738"><stop offset="0" stop-color="#9bd5bd"/><stop offset="1" stop-color="#74cbc8"/></linearGradient><path fill="url(#j)" d="M63.3 51.4c1.7-.5 3.3-.8 5-1 1.7-.2 3.4-.2 5.1-.1 3.4.2 6.7 1.1 9.6 2.7-3-1.4-6.3-1.9-9.6-1.9-1.6 0-3.3.2-4.9.5-1.6.3-3.2.7-4.6 1.3l-.6-1.5"/><linearGradient id="k" gradientUnits="userSpaceOnUse" x1="139.815" y1=".173" x2="139.815" y2="148.738"><stop offset="0" stop-color="#9bd5bd"/><stop offset="1" stop-color="#74cbc8"/></linearGradient><path fill="url(#k)" d="M100.5 52.8c0-1.1.2-2.3.5-3.4.2-.6.4-1.1.8-1.6.2-.3.4-.5.6-.7.1-.2.3-.4.3-.7.4-1 .5-2.1.7-3.2.1-.6.2-1.1.3-1.7.1-.6.3-1.2.7-1.9.1-.2.2-.3.4-.5.1-.1.2-.1.3-.2l.2-.1.8-.4c.5-.2 1-.5 1.5-.7 1-.5 1.9-1 2.7-1.7.8-.6 1.4-1.4 1.7-2.2.4-1.1.8-2.2 1.4-3.3 1.1-2.2 2.6-4.1 4.4-5.8 1.8-1.7 3.7-3 5.8-4.2 4.1-2.3 8.5-4 13.1-5.2 4.6-1.1 9.3-1.8 14.1-1.4 4.7.4 9.5 1.7 13.5 4.3 4.1 2.5 7.4 6.1 9.8 10.1 2.4 4 4.1 8.4 5.1 12.8-1.7-4.3-3.7-8.4-6.4-12-2.6-3.6-5.9-6.7-9.7-8.8-3.8-2.1-8.1-3.2-12.5-3.4-4.4-.2-8.8.4-13.1 1.5-4.3 1.1-8.5 2.7-12.4 4.8-3.9 2.1-7.3 4.9-9.5 8.6-.5.9-1 1.9-1.5 3-.6 1.3-1.5 2.3-2.6 3-1 .7-2.1 1.2-3.2 1.7-.5.2-1.1.4-1.6.6l-.8.3-.2.1h-.1l-.1.1c-.2.3-.4.8-.6 1.3-.2.5-.3 1.1-.4 1.6-.3 1.1-.5 2.3-1.1 3.4-.2.3-.3.5-.6.8l-.6.6c-.4.4-.6.9-.9 1.4-.4.9-.7 2-.8 3.1"/><linearGradient id="l" gradientUnits="userSpaceOnUse" x1="110.877" y1=".173" x2="110.877" y2="148.738"><stop offset="0" stop-color="#9bd5bd"/><stop offset="1" stop-color="#74cbc8"/></linearGradient><path fill="url(#l)" d="M103.5 37.5c-.3-4.1-.3-8.3-.5-12.3 0-.2 0-.5-.1-.7 0-.2-.1-.4-.1-.7-.1-.5-.2-1.1-.2-1.7 0-.6 0-1.2.3-1.9.1-.4.3-.8.8-1.2.5-.4 1.4-.5 1.9-.3s.8.5 1.1.7c.1.1.2.3.4.4l.3.4c.1.2.3.4.3.5l-.1-.1c-.1 0-.1-.1-.2-.1s-.3-.1-.4-.1c-.2 0-.4.1-.5.1-.1 0-.1.1-.2.1l-.1.1c-.2.2-.2.3-.2.2v-.1c.1-.4.3-1 .4-1.5.1-.3.2-.5.3-.8l.1-.2.1-.2c.1-.2.2-.4.3-.5.1-.2.3-.4.6-.6.3-.2.7-.4 1.2-.4s.8.2 1.1.4c.2.2.4.3.5.5.5.6.7 1.1 1 1.7.1.3.2.5.3.8v.1s0 .1 0 0c0 0 0-.1-.1-.1l-.1-.1-.3-.3c-.1 0-.1-.1-.2-.1s-.3-.1-.4 0c-.1 0-.3 0-.4.1-.1 0-.1.1-.2.1s-.1.1-.2.1-.1.1-.1.1l-.1.1c-.1.2-.1.2-.1.1V20c.1-.4.2-1 .4-1.6.2-.6.4-1.1.8-1.7.1-.2.2-.2.4-.5l.1-.1.1-.1c.1-.1.2-.2.4-.3.2-.1.3-.2.6-.2s.6 0 .8.1c.5.2.7.5.8.7.3.4.3.7.4 1 .1.3.1.6.2.9.1.6.1 1.1.2 1.6V20.4s0 .2 0 0c0-.1 0-.1-.1-.3-.1-.1-.3-.3-.6-.3-.5 0-.6.1-.6.1-.1.1-.1.1 0 0l.2-.2.9-1.2c.3-.4.6-.9 1-1.3s.7-.8 1.3-1.2c.3-.2.7-.4 1.3-.2.5.2.7.6.8.9.2.6.3 1.1.3 1.7.1 1.1 0 2.1-.1 3.1-.2-1-.3-2-.6-3-.1-.5-.3-1-.5-1.3-.1-.2-.2-.3-.2-.2l-.2.2c-.3.2-.6.6-.8 1-.3.4-.5.8-.7 1.3-.2.5-.5.9-.8 1.4-.1.1-.2.2-.3.4-.1.1-.1.2-.3.3-.1 0-.2.2-.8.2-.3 0-.6-.2-.7-.4-.1-.2-.2-.3-.2-.3-.1-.4-.1-.3-.1-.4v-.2l-.1-.4c-.1-.5-.2-1-.3-1.4-.1-.2-.1-.4-.2-.6l-.2-.4s0 .1.2.2c.1.1.3.1.4.1.1 0 .2-.1.3-.1 0 0 .1 0 .1-.1l-.1.1s-.1.1-.1.2c-.2.3-.3.7-.4 1.1-.1.4-.2.9-.3 1.4l-.4.4c0 .1 0 .2-.2.5 0 .1-.1.1-.1.1l-.3.3c-.1 0-.1.1-.2.1-.1.1-.3.1-.4.1h-.4c-.1 0-.2-.1-.3-.1-.1-.1-.3-.2-.4-.3l-.1-.1c-.1-.1-.1-.2-.1-.2l-.1-.2v-.1c-.1-.2-.2-.4-.2-.6-.2-.4-.4-.8-.6-1-.1-.1-.1 0 .3.1.2 0 .4-.1.5-.1.1-.1 0 0 0 0l-.1.1s-.1.1-.1.2l-.1.1-.3.6c-.2.4-.3.8-.4 1.4 0 .1 0 .2-.1.3-.1.1-.1.2-.3.6l-.1.1c-.1.1-.2.1-.2.2-.2.1-.4.2-.6.2-.2 0-.4 0-.5-.1-.1 0-.2-.1-.3-.1l-.4-.4c-.3-.3-.4-.5-.5-.8l-.2-.3c0-.1-.1-.1-.1-.2l-.1-.1s.3 0 .4-.1c.1-.1 0-.1 0 .1-.1.2-.2.7-.2 1.1 0 .4 0 .9.1 1.4 0 .2.1.6.1.9v.8c-.5 3.9-1.1 8-1.9 12"/><linearGradient id="m" gradientUnits="userSpaceOnUse" x1="114.589" y1=".173" x2="114.589" y2="148.738"><stop offset="0" stop-color="#9bd5bd"/><stop offset="1" stop-color="#74cbc8"/></linearGradient><path fill="url(#m)" d="M116.3 43.1s-1.8.3-2.6-.3c-.8-.5-1.1-1.4-.7-2 .4-.6 1.3-.6 2.1-.1.8.6 1.2 2.4 1.2 2.4"/><linearGradient id="n" gradientUnits="userSpaceOnUse" x1="132.143" y1=".173" x2="132.143" y2="148.738"><stop offset="0" stop-color="#9bd5bd"/><stop offset="1" stop-color="#74cbc8"/></linearGradient><path fill="url(#n)" d="M123.2 61.8c4.1 1.2 8 .9 11.4-.7.4-.2.9-.4 1.3-.7l.6-.4c.2-.1.4-.3.6-.4.8-.5 1.5-1.1 2-1.7.2-.3.3-.6.3-.9 0-.3-.2-.7-.5-1-.6-.7-1.5-1.3-2.4-1.9 1.1.1 2.2.3 3.2 1 .5.3 1 .8 1.2 1.5.3.7.2 1.5-.1 2.1-.5 1.3-1.4 2.1-2.3 2.8-.2.2-.4.4-.7.5-.2.2-.4.3-.7.5-.5.3-1 .6-1.5.8-2 1-4.4 1.5-6.7 1.2-2.1-.2-4.2-1.1-5.7-2.7"/><linearGradient id="o" gradientUnits="userSpaceOnUse" x1="131.557" y1=".173" x2="131.557" y2="148.738"><stop offset="0" stop-color="#9bd5bd"/><stop offset="1" stop-color="#74cbc8"/></linearGradient><path fill="url(#o)" d="M128.8 59.5c-.3-.3-.4-.6-.4-1.1 0-.4.1-.9.5-1.3.4-.3.9-.4 1.3-.4s.8 0 1.2.1l.5.1c.1 0 .3.1.4.1h.9c.6-.1 1.2-.4 1.7-1-.1.7-.6 1.4-1.4 1.8-.4.2-.8.3-1.2.3h-.6l-.5-.1c-.6-.1-1.3-.2-1.7 0-.5.1-.7.8-.7 1.5"/><path fill="#939598" d="M69.9 169.6c0-2.1-2.5-2.7-3.9-3.1-2.2-.5-4.7-1.8-4.7-4.2 0-2.6 2.1-3.6 4.8-3.6 1.6 0 3.1.2 4.7.7l-.3 1c-2.2-.5-3.2-.6-4.5-.6-2.8 0-3.6 1.3-3.6 2.7 0 2.1 2.7 2.9 4.2 3.2 2.2.5 4.4 1.5 4.4 4 0 2.7-2.1 4.1-5 4.1-1.6 0-3.3-.2-5-.7l.2-1c2.1.5 3.6.6 4.8.6 2.9-.2 3.9-1.7 3.9-3.1M81.3 162.6h1.1v10.7h-1.1v-1.6c-1.1 1.1-2.5 1.8-4.1 1.8-2.1 0-3.2-1.2-3.2-3.5v-7.4h1v7.2c0 1.5.6 2.8 2.6 2.8 1.6 0 3-1 3.7-1.6v-8.4M86.4 163.7c.9-.8 2.2-1.3 3.6-1.3 3 0 4 2.4 4 5.6 0 3.2-1.1 5.6-4.1 5.6-1.4 0-2.7-.5-3.5-1.2v5.3h-1.1v-15h1.1v1m3.2-.4c-1.4 0-2.7.7-3.2 1.2v7c.5.4 1.8 1.1 3.2 1.1 2.6 0 3.3-2.2 3.3-4.7 0-2.4-.7-4.6-3.3-4.6zM97.8 163.7c.9-.8 2.2-1.3 3.6-1.3 3 0 4 2.4 4 5.6 0 3.2-1.1 5.6-4.1 5.6-1.4 0-2.7-.5-3.5-1.2v5.3h-1.1v-15h1.1v1m3.2-.4c-1.4 0-2.7.7-3.2 1.2v7c.5.4 1.8 1.1 3.2 1.1 2.6 0 3.3-2.2 3.3-4.7 0-2.4-.8-4.6-3.3-4.6zM107.8 168c0-3.3 1.3-5.6 4.7-5.6 3.4 0 4.7 2.3 4.7 5.6s-1.3 5.6-4.7 5.6c-3.4 0-4.7-2.3-4.7-5.6m1.2 0c0 2.5.8 4.7 3.5 4.7s3.5-2.1 3.5-4.7c0-2.5-.8-4.7-3.5-4.7s-3.5 2.2-3.5 4.7zM120.9 173.4h-1.1v-10.7h1.1v1.7c1.1-1 2.6-1.9 4.4-1.9v1c-1.8 0-3.5 1-4.4 1.6v8.3M128.6 163.4h-1.8v-.7l1.8-.1.2-3h.9v3h3.3v.8h-3.3v6.6c0 1.7.4 2.7 2.1 2.7.4 0 .7 0 1.2-.1l.1.8c-.5.1-1.1.1-1.6.1-1.9 0-2.9-.8-2.9-3.4v-6.7M141.6 162.6h2.9v.8h-2.9v9.9h-1.1v-9.9h-1.8v-.7l1.8-.1V161c0-2 .8-2.7 2.9-2.7.5 0 1 .1 1.6.1l-.1.9c-.6-.1-1-.1-1.5-.1-1.3 0-1.7.6-1.7 1.9v1.5M146.4 168c0-3.3 1.3-5.6 4.7-5.6s4.7 2.3 4.7 5.6-1.3 5.6-4.7 5.6-4.7-2.3-4.7-5.6m1.2 0c0 2.5.8 4.7 3.5 4.7s3.5-2.1 3.5-4.7c0-2.5-.8-4.7-3.5-4.7s-3.5 2.2-3.5 4.7zM159.5 173.4h-1.1v-10.7h1.1v1.7c1.1-1 2.6-1.9 4.4-1.9v1c-1.8 0-3.5 1-4.4 1.6v8.3M171.1 163.4h-1.8v-.7l1.8-.1.1-3h.9v3h3.3v.8h-3.3v6.6c0 1.7.4 2.7 2.1 2.7.4 0 .7 0 1.2-.1l.1.8c-.5.1-1.1.1-1.6.1-1.9 0-2.9-.8-2.9-3.4v-6.7M179.4 173.4h-1.1v-15h1.1v5.9c1.1-1.1 2.5-1.8 4.1-1.8 2.1 0 3.2 1.2 3.2 3.5v7.4h-1.1v-7.2c0-1.5-.6-2.8-2.6-2.8-1.6 0-3 1-3.7 1.6v8.4M190.6 168.1c0 2.7 1.1 4.6 4.1 4.6 1.2 0 2.2-.1 3.3-.4l.2.9c-1.3.3-2.3.5-3.7.5-3.8 0-5.1-2.3-5.1-5.6s1.4-5.6 5-5.6c4.3 0 4.4 3.6 3.9 5.6h-7.7m0-.8h6.8c.3-1.8-.1-4.1-3-4.1-2.7.1-3.6 1.9-3.8 4.1zM211.5 170.5c0-.9-.4-1.7-3-2.2-2.1-.4-3.8-1.1-3.8-3.2 0-1.8 1.3-2.8 3.7-2.8 1.6 0 2.8.1 4.1.5l-.2.9c-1.7-.4-3.1-.4-3.8-.4-2.6 0-2.7 1.5-2.7 1.9 0 .9.4 1.7 2.9 2.2 2.4.5 3.9 1.2 3.9 3.1 0 2-1.3 3.1-3.7 3.1-1.6 0-3.1-.2-4.4-.5l.2-.9c1.7.4 3.3.5 4 .5 2.7 0 2.8-1.7 2.8-2.2M215.2 158.3h1.1v2.4h-1.1v-2.4zm0 4.3h1.1v10.7h-1.1v-10.7zM223.9 162.4c1.3 0 2.3.2 3.5.5l-.2.9c-1.7-.4-2.6-.4-3.3-.4-2.8 0-3.9 2-3.9 4.7 0 2.5 1 4.7 3.9 4.7.7 0 1.7 0 3.3-.4l.2.9c-1.3.3-2.2.5-3.5.5-3.7 0-5-2.3-5-5.6 0-3.5 1.3-5.8 5-5.8M230.5 173.4h-1.1v-15.1h1.1v9.3l6.3-5h1.4l-4.3 3.6 4.5 7.2h-1.3l-3.9-6.5-2.7 2.1v4.4M245.8 173.4h-1.1v-10.7h1.1v1.6c1.1-1.1 2.5-1.8 4.1-1.8 2.1 0 3.2 1.2 3.2 3.5v7.4H252v-7.2c0-1.5-.6-2.8-2.6-2.8-1.6 0-3 1-3.7 1.6v8.4M257 168.1c0 2.7 1.1 4.6 4.1 4.6 1.2 0 2.2-.1 3.3-.4l.2.9c-1.3.3-2.3.5-3.7.5-3.8 0-5.1-2.3-5.1-5.6s1.4-5.6 5-5.6c4.3 0 4.4 3.6 3.9 5.6H257m0-.8h6.8c.3-1.8-.1-4.1-3-4.1-2.8.1-3.6 1.9-3.8 4.1zM274 164.3l-2.7 9.2h-1.2l-3.4-10.9h1.2l2.9 9.6 2.7-9.6h1.1l2.7 9.6h.1l2.8-9.6h1.1l-3.3 10.9h-1.2l-2.8-9.2M285 163.7c.9-.8 2.2-1.3 3.6-1.3 3 0 4 2.4 4 5.6 0 3.2-1.1 5.6-4.1 5.6-1.4 0-2.7-.5-3.6-1.2l-.2 1.1h-.8v-15h1.1v5.2m3.2-.4c-1.4 0-2.7.7-3.2 1.2v7c.5.4 1.8 1.1 3.2 1.1 2.6 0 3.3-2.2 3.3-4.7 0-2.4-.7-4.6-3.3-4.6zM295.1 168c0-3.3 1.3-5.6 4.7-5.6 3.4 0 4.7 2.3 4.7 5.6s-1.3 5.6-4.7 5.6c-3.5 0-4.7-2.3-4.7-5.6m1.1 0c0 2.5.8 4.7 3.5 4.7s3.5-2.1 3.5-4.7c0-2.5-.8-4.7-3.5-4.7s-3.5 2.2-3.5 4.7zM308.2 173.4h-1.1v-10.7h1.1v1.7c1.1-1 2.6-1.9 4.4-1.9v1c-1.8 0-3.5 1-4.4 1.6v8.3M316.1 173.4H315v-10.7h1.1v1.6c1.1-1.1 2.5-1.8 4.1-1.8 2.1 0 3.2 1.2 3.2 3.5v7.4h-1.1v-7.2c0-1.5-.6-2.8-2.6-2.8-1.6 0-3 1-3.7 1.6v8.4M330.7 162.8c1.4-.3 2.8-.4 3.8-.4 2.4 0 3.7.8 3.7 3.5v7.4h-1.1v-1.1c-1.1.9-2.1 1.3-3.6 1.3-2.1 0-3.5-1.1-3.5-3 0-2.2 1.6-3.2 4.5-3.2h2.7V166c0-1.7-.7-2.6-2.8-2.6-.8 0-1.8.1-3.5.4l-.2-1m6.4 5.3h-2.6c-2.7 0-3.5.9-3.5 2.4 0 1.3 1 2.3 2.8 2.3 1.6 0 2.7-.7 3.3-1.2v-3.5zM342.2 173.4h-1.1v-10.7h1.1v1.6c1.1-1.1 2.5-1.8 4.1-1.8 2.1 0 3.2 1.2 3.2 3.5v7.4h-1.1v-7.2c0-1.5-.6-2.8-2.6-2.8-1.6 0-3 1-3.7 1.6v8.4M359.9 172.3c-.9.8-2.2 1.3-3.6 1.3-3 0-4-2.4-4-5.6 0-3.2 1.1-5.6 4.1-5.6 1.4 0 2.7.5 3.5 1.3v-5.3h1.1v15h-1.1v-1.1m-3.2.3c1.4 0 2.7-.7 3.2-1.1v-7c-.5-.5-1.8-1.2-3.2-1.2-2.6 0-3.3 2.2-3.3 4.7s.7 4.6 3.3 4.6zM368.5 163.4h-1.8v-.7l1.8-.1.1-3h.9v3h3.3v.8h-3.3v6.6c0 1.7.4 2.7 2.1 2.7.4 0 .7 0 1.2-.1l.1.8c-.5.1-1.1.1-1.6.1-1.9 0-2.9-.8-2.9-3.4v-6.7M376.8 173.4h-1.1v-15h1.1v5.9c1.1-1.1 2.5-1.8 4.1-1.8 2.1 0 3.2 1.2 3.2 3.5v7.4H383v-7.2c0-1.5-.6-2.8-2.6-2.8-1.6 0-3 1-3.7 1.6v8.4M388 168.1c0 2.7 1 4.6 4.1 4.6 1.2 0 2.2-.1 3.3-.4l.2.9c-1.3.3-2.3.5-3.7.5-3.8 0-5.1-2.3-5.1-5.6s1.4-5.6 5-5.6c4.3 0 4.4 3.6 3.9 5.6H388m0-.8h6.8c.3-1.8-.1-4.1-3-4.1-2.7.1-3.6 1.9-3.8 4.1zM398.5 158.3h1.1v2.4h-1.1v-2.4zm0 4.3h1.1v10.7h-1.1v-10.7zM403.5 173.4h-1.1v-10.7h1.1v1.7c1.1-1 2.6-1.9 4.4-1.9v1c-1.8 0-3.5 1-4.4 1.6v8.3M415.3 163.7c.9-.8 2.2-1.3 3.6-1.3 3 0 4 2.4 4 5.6 0 3.2-1.1 5.6-4.1 5.6-1.4 0-2.7-.5-3.5-1.2v5.3h-1.1v-15h1.1v1m3.2-.4c-1.4 0-2.7.7-3.2 1.2v7c.5.4 1.8 1.1 3.2 1.1 2.6 0 3.3-2.2 3.3-4.7 0-2.4-.7-4.6-3.3-4.6zM426 162.8c1.4-.3 2.8-.4 3.8-.4 2.4 0 3.7.8 3.7 3.5v7.4h-1.1v-1.1c-1.1.9-2.1 1.3-3.6 1.3-2.1 0-3.5-1.1-3.5-3 0-2.2 1.6-3.2 4.5-3.2h2.7V166c0-1.7-.7-2.6-2.8-2.6-.8 0-1.8.1-3.5.4l-.2-1m6.5 5.3h-2.6c-2.7 0-3.5.9-3.5 2.4 0 1.3 1 2.3 2.8 2.3 1.6 0 2.7-.7 3.3-1.2v-3.5zM437.5 173.4h-1.1v-10.7h1.1v1.7c1.1-1 2.6-1.9 4.4-1.9v1c-1.8 0-3.5 1-4.4 1.6v8.3M444.9 168.1c0 2.7 1.1 4.6 4.1 4.6 1.2 0 2.2-.1 3.3-.4l.2.9c-1.3.3-2.3.5-3.7.5-3.8 0-5.2-2.3-5.2-5.6s1.4-5.6 5-5.6c4.3 0 4.4 3.6 3.9 5.6h-7.6m0-.8h6.8c.3-1.8-.1-4.1-3-4.1-2.8.1-3.6 1.9-3.8 4.1zM456.4 173.4h-1.1v-10.7h1.1v1.6c1.1-1.1 2.5-1.8 4.1-1.8 2.1 0 3.2 1.2 3.2 3.5v7.4h-1.1v-7.2c0-1.5-.6-2.8-2.6-2.8-1.6 0-3 1-3.7 1.6v8.4M467.5 163.4h-1.8v-.7l1.8-.1.1-3h.9v3h3.3v.8h-3.3v6.6c0 1.7.4 2.7 2.1 2.7.4 0 .7 0 1.2-.1l.1.8c-.5.1-1.1.1-1.6.1-1.9 0-2.9-.8-2.9-3.4v-6.7M481.4 170.5c0-.9-.4-1.7-3-2.2-2.1-.4-3.8-1.1-3.8-3.2 0-1.8 1.3-2.8 3.7-2.8 1.6 0 2.8.1 4.1.5l-.2.9c-1.7-.4-3.1-.4-3.8-.4-2.6 0-2.7 1.5-2.7 1.9 0 .9.4 1.7 2.9 2.2 2.4.5 3.9 1.2 3.9 3.1 0 2-1.3 3.1-3.7 3.1-1.6 0-3.1-.2-4.4-.5l.2-.9c1.7.4 3.3.5 4 .5 2.6 0 2.8-1.7 2.8-2.2"/></svg>