<svg xmlns="http://www.w3.org/2000/svg" width="785.6" height="283.5" viewBox="0 0 785.6 283.5"><path d="M0 0v283.5h184.5c-2.8-2-5.3-4-7.6-6.2-20.4-19.7-20.7-42.7-21.3-64.1V91.3h65.3v128c0 8.7.3 17.7 7.6 24.7 5.2 5.5 13.1 7.5 20.7 7.5 10.2 0 16.9-3.8 20.7-7.2 7.6-7.3 7.9-16.3 7.9-25v-128h65.6v109.1c0 23.5 0 54-24.2 76.9-2.3 2.2-4.9 4.2-7.6 6.2h97.8c-28.8-20.6-42.3-55.2-42.3-88.6 0-55.1 37-111.1 106.7-111.1 31.2 0 60.9 11 82.5 33.1 8.7 9 12.8 16 17.2 24.1L519 168c-5.2-12.2-15.2-34-42.6-34-14.3 0-23.3 6.7-27.7 11-15.4 14.8-15.4 38-15.4 46.1 0 30.5 11.4 59.2 43.4 59.2 30.3 0 39.3-26.7 41.7-33.7l55.4 26.7c-5.2 9.9-10.2 19.1-20.1 29-4.3 4.2-8.9 7.9-13.7 11.1h59.9V91h65v151.3H749v41.2h36.6V0H0z"/><path fill="#FFF" d="M68.2 148.2L32 156l.6 2h.1s.6-.1.9.5l.6 3.2h68.3l.6-3.1c.3-.6.9-.5.9-.5h.1l.5-2-36.4-7.9z"/><path fill="#FFF" d="M41.4 162.6s0-.1 0 0l.1-.9s0-.1-.1-.1H36s-.1 0-.1.1v.9c0 .1 0 .1.1.1h.2c.1 0 .1.1.1.2s.1.9.6 1.3c.1.1.1.2 0 .2h-.2c-.1 0-.1.1-.1.2s.1.3.1.4v.4c0 .1 0 .1.1.1h.1s.1 0 .1.1-.1 9.4-.1 9.4v10.9l-.3.3v.5H36.3c-.1 0-.1 0-.1.1v.6h5.4v-.6s0-.1-.1-.1H41h-.1v-.4-.1l-.3-.3V175s-.1-9.3-.1-9.4c0-.1.1-.1.1-.1h.1c.1 0 .1-.1.1-.1v-.4c0-.1 0-.4.1-.4 0-.1 0-.2-.1-.2h-.2c-.2 0-.1-.2 0-.2.5-.4.6-1.1.6-1.3 0-.1 0-.2.1-.2h.1zM53.2 162.6s.1-.1 0 0l.1-.9s0-.1-.1-.1h-5.4s-.1 0-.1.1v.9c0 .1 0 .1.1.1h.2c.1 0 .1.1.1.2s.1.9.6 1.3c.1.1.1.2 0 .2h-.2c-.1 0-.1.1-.1.2s.1.3.1.4v.4c0 .1 0 .1.1.1h.1s.1 0 .1.1-.1 9.4-.1 9.4v10.9l-.3.3v.5H48s-.1 0-.1.1v.6h5.4v-.6s0-.1-.1-.1h-.3-.1v-.4-.1l-.3-.3V175s-.1-9.3-.1-9.4c0-.1.1-.1.1-.1h.1c.1 0 .1-.1.1-.1v-.4c0-.1 0-.4.1-.4 0-.1 0-.2-.1-.2h-.2c-.2 0-.1-.2 0-.2.5-.4.5-1.1.5-1.3 0-.1 0-.2.1-.2h.1zM65 162.6s.1-.1 0 0l.1-.9s0-.1-.1-.1h-5.4s-.1 0-.1.1v.9c0 .1 0 .1.1.1h.2c.1 0 .1.1.1.2s.1.9.6 1.3c.1.1.1.2-.1.2h-.2c-.1 0-.1.1-.1.2.1.1.1.3.1.4v.4c0 .1 0 .1.1.1h.1s.1 0 .1.1-.1 9.4-.1 9.4v10.9l-.3.3v.5h-.4s-.1 0-.1.1v.6H65v-.6s0-.1-.1-.1h-.3-.1v-.4-.1l-.3-.3V175s-.1-9.3-.1-9.4v-.1h.1c.1 0 .1-.1.1-.1v-.4c0-.1.1-.4.1-.4 0-.1 0-.2-.1-.2h-.2c-.2 0-.1-.2 0-.2.5-.4.5-1.1.5-1.3 0-.1 0-.2.1-.2h.3zM76.8 162.6c.1 0 .1-.1 0 0l.1-.9s0-.1-.1-.1h-5.4s-.1 0-.1.1v.9c0 .1 0 .1.1.1h.3c.1 0 .1.1.1.2s.1.9.6 1.3c.1.1.1.2 0 .2h-.2c-.1 0-.1.1-.1.2s.1.3.1.4v.4c0 .1 0 .1.1.1h.1s.1 0 .1.1-.1 9.4-.1 9.4v10.9l-.3.3v.5h-.4c-.1 0-.1 0-.1.1v.6H77v-.6s0-.1-.1-.1h-.3-.1v-.4-.1l-.3-.3V175s-.1-9.3-.1-9.4v-.1h.1c.1 0 .1-.1.1-.1v-.4c0-.1 0-.4.1-.4 0-.1 0-.2-.1-.2H76c-.2 0-.1-.2 0-.2.5-.4.5-1.1.5-1.3 0-.1 0-.2.1-.2h.2zM88.7 162.6s0-.1 0 0l.1-.9s0-.1-.1-.1h-5.4s-.1 0-.1.1v.9c0 .1 0 .1.1.1h.2c.1 0 .1.1.1.2s.1.9.6 1.3c.1.1.1.2 0 .2H84c-.1 0-.1.1-.1.2.1.1.1.3.1.4v.4c0 .1 0 .1.1.1h.1s.1 0 .1.1-.1 9.4-.1 9.4v10.9l-.3.3v.5h-.4s-.1 0-.1.1v.6h5.4v-.6s0-.1-.1-.1h-.3-.1v-.4-.1l-.3-.3V175s-.2-9.3-.2-9.4c0-.1.1-.1.1-.1h.1c.1 0 .1-.1.1-.1v-.4c0-.1 0-.4.1-.4 0-.1 0-.2-.1-.2h-.2c-.2 0-.1-.2-.1-.2.5-.4.6-1.1.6-1.3 0-.1 0-.2.1-.2h.2zM100.5 162.6s.1-.1 0 0l.1-.9s0-.1-.1-.1h-5.3c-.1 0-.1 0-.1.1v.9c0 .1 0 .1.1.1h.2c.1 0 .1.1.1.2s.1.9.6 1.3c.1.1.1.2 0 .2h-.2c-.1 0-.1.1-.1.2.1.1.1.3.1.4v.4c0 .1 0 .1.1.1 0 0 .1 0 .1.1S96 175 96 175v10.9l-.3.3v.5h-.4s-.1 0-.1.1v.6h5.4v-.6s0-.1-.1-.1h-.3-.1v-.4-.1l-.3-.3V175s-.2-9.3-.2-9.4c0-.1.1-.1.1-.1h.1c.1 0 .1-.1.1-.1v-.4c0-.1.1-.4.1-.4 0-.1 0-.2-.1-.2h-.1c-.2 0-.1-.2-.1-.2.5-.4.6-1.1.6-1.3 0-.1 0-.2.1-.2h.1zM85 141.2h-.6c-.1 0-.1-.1-.1-.1v-.6c0-.2-.1-.2-.1-.2h-.6c-.1 0-.1-.1-.1-.1v-.5s0-.1-.2-.1H83c-.1 0-.2-.1-.2-.3 0-.8.2-6.2-2.6-10.1-2.2-3.4-5.3-5.1-7-5.9 0-.7-1.1-1-1.5-1.2-.2-.1-.4-.2-.4-.4v-.3c0-.2.2-.3.5-.3.1 0 .2-.1.2-.1v-.7c0-.1-.1-.2-.2-.2H71c-.2 0-.2-.1-.2-.2v-.3c0-.2-.2-.3-.3-.4v-4c0-.1.1-.1.2-.1s.1 0 .1-.1v-.4s0-.1-.1-.1h-.2s-.1-.1-.1-.3c0-.2.1-.3.1-.3h.1c.1 0 .1 0 .1-.1v-.4c0-.1 0-.1-.1-.1h-.2c-.1 0-.1-.1-.2-.1-.7-.5-1.4-1.3-1.4-1.5v-.1c0-.1-.1-.3-.3-.3-.2 0-.2-.2-.1-.2s.1 0 .1-.1v-.3c0-.1-.3-.6-.3-.6s-.4.5-.4.6v.3c0 .1 0 .1.1.1s.1.2-.1.2-.3.2-.3.3v.1c0 .1-.7.9-1.4 1.5-.1.1-.1.1-.3.1h-.2c-.1 0-.1 0-.1.1v.4c0 .1 0 .1.1.1h.4c.1 0 .1.1.1.3 0 .2 0 .3-.1.3h-.2c-.1 0-.1.1-.1.1v.4s0 .1.1.1h.1c.1 0 .2 0 .2.1v4c-.1.1-.3.2-.3.4v.3c0 .1-.1.2-.2.2H65c-.1 0-.2.1-.2.2v.7c0 .1.1.1.2.1.3 0 .5.1.5.3v.3c0 .2-.2.3-.4.4-.4.2-1.5.4-1.5 1.2-1.7.8-4.8 2.5-7 5.9-2.9 3.9-2.6 9.3-2.6 10.1 0 .2-.1.3-.3.3h-.3c-.2 0-.2.1-.2.1v.5s0 .1-.1.1h-.6s-.1 0-.1.2v.6s0 .1-.1.1h-.6s-.2 0-.2.2v.7c0 .1 0 .1.1.1.2 0 .5.2.5.5 0 .6.4.7.5.7v2.4c0 .5-.4.8-.7.8l-.1.1v3.9l16.5-3.7 16.5 3.7v-3.9s0-.1-.1-.1c-.3 0-.7-.3-.7-.8v-2.4c.2 0 .5 0 .5-.7 0-.4.3-.5.5-.5.1 0 .1 0 .1-.1v-.7c.1-.2-.1-.2-.1-.2"/></svg>