<svg xmlns="http://www.w3.org/2000/svg" xmlns:xlink="http://www.w3.org/1999/xlink" width="670.4" height="283.5" viewBox="0 0 670.4 283.5"><defs><path id="a" d="M0 0v283.5h670.4V0"/></defs><clipPath id="b"><use xlink:href="#a" overflow="visible"/></clipPath><path clip-path="url(#b)" fill="#6C2383" d="M.3 0h670.1v208.1H.3z"/><path clip-path="url(#b)" fill="#FFD500" d="M444.4 70.7c0-4.7 4.2-7.5 10.2-7.5 6.3 0 12.2 4 14.7 10.1h1.5l-1.2-9c-3.1-1.4-9.9-3.5-15.8-3.5-9.3 0-16.1 6.1-16.1 13 0 14.7 29.2 18 29.2 30.1 0 6.6-6.5 9.5-12.6 9.5-7.2 0-13.7-4.3-15.7-12.6H437l1.9 12.5c4.7 1.3 11.2 2.8 16.2 2.8 10.7 0 18.5-6.9 18.5-15.1 0-15.6-29.2-18.4-29.2-30.3m30.4-8.9h43.1l1.2 11.4h-1.5c-1.2-7.3-2.8-8.3-6.1-8.3H500v41.6c0 4.5 1.5 6.1 6.6 6.1h1.9v1.7h-24.2v-1.7h1.9c5.1 0 6.6-1.6 6.6-6.1V65h-11.5c-3.3 0-4.8.9-6.1 8.3h-1.5l1.1-11.5zm-44.5 2.1c-1.3-8.4-3.9-8.9-7.5-8.9h-22.7v24.7h17.7c3.7 0 5.4-.5 5.9-6.4h1.9v17h-1.9c-.8-7.2-2.7-6.8-6.9-6.8h-16.7v21.6c0 4.7 2.1 5.6 5.9 5.6h15.2c7 0 9.3-1.5 11.7-10h1.8l-1.6 13.7h-50.2v-1.9c8.1-.2 8.7-1.3 8.7-7.5V60.8c0-6.2-.6-7.3-8.7-7.5v-1.9h48.2l.8 12.6h-1.6zm49.3 101.7H478c-1.1 4.9-2.5 6.2-6.5 6.2h-19c10-8.8 25.5-20.3 25.5-32.5 0-8.1-6.2-14.2-14.6-14.2-8.7 0-15.2 6.3-16.2 15.4h1.3c1.8-6.5 6.9-10.8 12.6-10.8 6 0 10.6 4.7 10.6 10.7 0 14.4-23.4 32.1-25.5 34.1v2.3H478l.7-5 .9-6.2zm-95.8 11.2v-1.9c7.6 0 8-1.3 8-5.3v-37.5c-2.7 2.3-7.4 5.2-10.6 6.6l-.7-1.1c4.9-3.1 11.9-9.2 14-11.9h3v42.9c.1 5.2 1.1 6.2 8.7 6.4v1.9h-22.4zm96.6-14.4v-1.9l25.6-34.8h2.4v32.7h6.6v4h-6.6v14.5h-5.7v-14.5h-22.3m22.3-28.9l-18.1 24.8h18.1v-24.8zm-72.6 15.2c9.2 3.8 13.4 7.9 13.4 14.1 0 8.4-7.6 14.8-17.4 14.8-9.5 0-17.1-5.9-17.1-13.2 0-5.7 4.4-10.3 13-13.4-8.3-3.4-12.2-7.3-12.2-12.8 0-7.1 7.3-13.1 16.1-13.1s15.9 5.2 15.9 11.6c-.1 5.2-4 9.2-11.7 12m-6.4 3.1c-6 3-9.6 7.2-9.6 12.4 0 6.9 5.4 11.4 12.1 11.4 6.6 0 12.1-4.3 12.1-10.6-.1-5.3-4.4-8.9-14.6-13.2m2-24.6c-6.1 0-11.3 3.4-11.3 8.5 0 4.4 2.5 7.5 13.9 11.9 4.9-2.8 8.4-6.4 8.4-10.9.1-5.8-4.8-9.5-11-9.5z"/><path clip-path="url(#b)" fill="#FFF" d="M564.9 63.9l-.8-12.6h-48.2v1.9c8.1.2 8.7 1.3 8.7 7.5v44.2c0 6.2-.6 7.3-8.7 7.5v1.9H566l1.6-13.7h-1.9c-2.4 8.5-4.7 10-11.7 10h-15.2c-3.8 0-5.9-.9-5.9-5.6V83.5h16.7c4.2 0 6.1-.4 6.9 6.8h1.9v-17h-1.9c-.5 5.9-2.2 6.4-5.9 6.4h-17.7V54.9h22.7c3.6 0 6.2.6 7.5 8.9h1.8M227.8 51.3v1.9c8.1.2 8.7 1.3 8.7 7.5v40.4l-42.4-49.8H179v1.9c3.5.1 5.4.9 7.8 2.5v49.9c0 3.9-1.5 6.6-4.9 6.6-2.7 0-4-3-5.4-6.2l-23.6-54.8h-7.2l-21.8 51.1c-3.9 8.5-4.6 9.9-6.7 9.9-2.6 0-3.6-2.3-4-9.2L110 58.5c0-4 1.2-5.3 8.8-5.3v-1.9h-17.1l-22.3 51.2L57 51.3H39.2v1.9c7.6 0 8.8 1.3 8.8 5.3l-2.7 43.1c-.5 9.2-1.4 10.9-8.8 10.9v1.9h21.1v-1.9c-4.6-.2-8.4-1.3-8.1-6.5l2.7-45.6h.2l23.8 54.1h2.3l23.1-54.1h.2l2.9 45.4c.4 5.4-4.3 6.7-9 6.7v1.9H135v-1.9h-.4c-5.6 0-8.2-1-8.2-3.7 0-1.4 1.3-4.5 2-6.4l5.6-13.3h26.4L167 105c.4 1 1.1 2.5 1.1 4.2 0 2.8-2.1 3.5-7.9 3.5H159v1.9h41.3v-1.9c-8.6 0-9-1.5-9-8.8V60.1l47.1 55h2.6V58.5c0-4 .4-5.3 8-5.3v-1.9h-21.2zm-92 33.7l11.6-27.5L158.9 85h-23.1zm245.8 27.4v1.9h-25.1v-1.9c7.7-.2 8.6-1.2 8.7-6.5V83.5H328v21.4c0 6.2.6 7.3 8.7 7.5v1.9h-25.1v-1.9c7.6 0 8-1.3 8-5.3V58.5c0-4-.4-5.3-8-5.3v-1.9h25.1v1.9c-8.1.2-8.7 1.3-8.7 7.5v18.9h37.3V59.8c-.1-5.4-1-6.4-8.7-6.6v-1.9h25.1v1.9c-7.6 0-8 1.3-8 5.3v48.7c-.1 3.9.3 5.2 7.9 5.2zm-98-62.7c10.6 0 18.5 3.6 23.2 5.6l.8 12.6h-1.9c-3.3-9.4-10.4-15.6-21.4-15.6-16.9 0-25.4 13.1-25.4 30.1 0 18.4 11.1 30.8 26.5 30.8 4.6 0 16.2-3.1 23.1-15.4h1.9l-4.8 11.9c-6 2.9-10.9 6.2-22.9 6.2-20.6 0-32.9-13.6-32.9-32.4-.1-19.6 12.6-33.8 33.8-33.8zm343.8 52.9l-8.1-7.7c-4.8-4.8-7.8-6.9-11.6-9.9 8.4-2.4 13.6-8.9 13.6-16.5 0-10.4-8.5-18.2-27.3-18.2-6.6 0-8.7.1-12.9.3-4.2.2-10.4.6-12.9.6v1.9h2.2c5.9 0 7.7 1.8 7.7 8.2v42.6c0 6.8-2.1 8.5-8.2 8.5h-1.7v1.9h28.9v-1.9h-2.3c-5.7 0-8.2-1.5-8.2-7.7V87.9c1.6.1 3 .2 5.2.2 2.7 0 4.3-.1 6.7-.2 7.8 4.5 13.8 11.3 17.5 14.7 9.3 8.8 11.5 12.6 29.3 11.7v-1.9c-7.8-.5-11.9-3.8-17.9-9.8zm-34.5-16.9c-2.3 0-3.9.1-6.3-.2V52.9c1.8-.2 3.2-.2 5.1-.2 15.7 0 20 6.9 20 16.4 0 12.3-7.4 16.6-18.8 16.6zm34.5 16.9l-8.1-7.7c-4.8-4.8-7.8-6.9-11.6-9.9 8.4-2.4 13.6-8.9 13.6-16.5 0-10.4-8.5-18.2-27.3-18.2-6.6 0-8.7.1-12.9.3-4.2.2-10.4.6-12.9.6v1.9h2.2c5.9 0 7.7 1.8 7.7 8.2v42.6c0 6.8-2.1 8.5-8.2 8.5h-1.7v1.9h28.9v-1.9h-2.3c-5.7 0-8.2-1.5-8.2-7.7V87.9c1.6.1 3 .2 5.2.2 2.7 0 4.3-.1 6.7-.2 7.8 4.5 13.8 11.3 17.5 14.7 9.3 8.8 11.5 12.6 29.3 11.7v-1.9c-7.8-.5-11.9-3.8-17.9-9.8zm-34.5-16.9c-2.3 0-3.9.1-6.3-.2V52.9c1.8-.2 3.2-.2 5.1-.2 15.7 0 20 6.9 20 16.4 0 12.3-7.4 16.6-18.8 16.6z"/><path clip-path="url(#b)" fill="#939292" d="M15.5 235.2v34h-4.3v-34H0v-3.6h26.8v3.6H15.5M49.6 269.2v-17.9c0-4.3-1.2-6.8-5.2-6.8-5 0-8.5 4.9-8.5 11.5v13.3h-4.2v-40.6H36v13.5c0 1.8-.1 4.1-.4 5.5l.1.1c1.6-4.1 5.1-6.7 9.9-6.7 6.3 0 8.3 4 8.3 8.9v19.3h-4.3M72.1 244.2c-3.9 0-6.7 2.8-7.4 7.2h14c.2-4.3-2.4-7.2-6.6-7.2M83 254.5H64.5c-.3 8.3 3 11.7 9.2 11.7 2.9 0 6-.7 8-1.8l.4 3.6c-2.6 1.1-5.7 1.7-9.1 1.7-8.4 0-12.8-4.5-12.8-14.2 0-8.3 4.5-14.5 12.1-14.5s10.8 5.3 10.8 11.4c0 .6 0 1.3-.1 2.1zM114.7 269.7c-11.6 0-13.9-6.5-13.9-13v-25.1h4.3v24.7c0 5.4 1.8 9.9 9.9 9.9 6.9 0 10.3-2.9 10.3-10.9v-23.7h4.2V255c0 9.6-5.1 14.7-14.8 14.7M155.5 269.2v-17.9c0-4.3-1.2-6.8-5.2-6.8-5 0-8.5 4.9-8.5 11.5v13.3h-4.2v-27.7h4.1c0 1.8-.2 4.5-.4 6.1l.1.1c1.6-4 5.1-6.7 9.9-6.7 6.3 0 8.3 4 8.3 8.9v19.3h-4.1M167.6 269.2v-27.7h4.2v27.7h-4.2m2.1-32.7c-1.6 0-2.9-1.2-2.9-2.8 0-1.6 1.3-2.8 2.9-2.8 1.6 0 2.9 1.3 2.9 2.8 0 1.6-1.3 2.8-2.9 2.8zM191.1 269.2h-4.3l-10.5-27.7h4.7l6.5 18c.6 1.7 1.1 3.3 1.6 4.9h.1c.4-1.5.9-3.2 1.5-4.7l6.6-18.3h4.6l-10.8 27.8M214.7 244.2c-3.9 0-6.7 2.8-7.3 7.2h14c.1-4.3-2.4-7.2-6.7-7.2m10.9 10.3h-18.5c-.3 8.3 3 11.7 9.2 11.7 2.9 0 6-.7 8-1.8l.4 3.6c-2.6 1.1-5.7 1.7-9.1 1.7-8.4 0-12.8-4.5-12.8-14.2 0-8.3 4.5-14.5 12.1-14.5s10.8 5.3 10.8 11.4c.1.6.1 1.3-.1 2.1zM245.6 245.2c-6.1-1-9 3.7-9 13v11.1h-4.2v-27.7h4.1c0 1.8-.2 4.6-.6 7l.1.1c1.1-4.1 4-8.2 9.8-7.5l-.2 4M255.2 269.7c-2.1 0-4.2-.2-5.8-.6l.1-3.8c1.8.5 4 .9 6.2.9 4 0 6.8-1.8 6.8-4.7 0-6.7-13.5-2.5-13.5-12.4 0-4.6 3.8-8.1 10.8-8.1 1.7 0 3.7.3 5.4.6l-.1 3.6c-1.8-.6-3.8-.9-5.7-.9-4.1 0-6.1 1.7-6.1 4.4 0 6.6 13.5 2.8 13.5 12.2 0 5-4.4 8.8-11.6 8.8M277.4 269.2v-27.7h-4.2v27.7h4.2m.8-35.5c0-1.6-1.3-2.8-2.9-2.8-1.6 0-2.9 1.3-2.9 2.8 0 1.6 1.3 2.8 2.9 2.8 1.6 0 2.9-1.2 2.9-2.8zM294.6 269.7c-5.6 0-7.2-2.4-7.2-8.2v-16.6h-6v-3.3h6v-9.2l4.2-1.2v10.4h8.1v3.3h-8.1v14.9c0 5 .9 6.2 4.2 6.2 1.4 0 2.8-.2 4-.5v3.6c-1.5.3-3.4.6-5.2.6M314.9 272.1c-3.2 8.5-5.7 11.4-11.7 11.4-1 0-2.4-.1-3.5-.3l.4-3.8c1.1.4 2.2.6 3.5.6 3.3 0 5-1.6 7.2-7.4l1.3-3.3-10.6-27.7h4.8l5.8 15.9c.9 2.5 1.5 4.5 2.1 6.6h.1c.5-1.8 1.7-5.2 2.8-8.4l5-14h4.6l-11.8 30.4M352.1 244.5c-4.3 0-8.5 3.3-8.5 10.7 0 7.1 3.1 11 8.5 11 4.3 0 8.3-3.3 8.3-11 0-6.7-2.8-10.7-8.3-10.7m-.6 25.2c-7.4 0-12.2-4.5-12.2-14.2 0-7.9 4.9-14.5 13.2-14.5 6.7 0 12.2 3.7 12.2 13.9 0 8.2-5 14.8-13.2 14.8zM387.2 232.3c-1.4-.4-2.9-.6-4.3-.6-4.2 0-6.1 2.4-6.1 7.8v2.1h8.2v3.3h-8.2v24.4h-4.2v-24.4h-6v-3.3h6v-1.9c0-7.7 3.8-11.3 10.5-11.3 1.6 0 3.1.2 4.6.5l-.5 3.4M437.5 269.2l-3.3-23.2c-.7-4.6-.9-7.3-1.2-9.4h-.1c-.4 1.6-.9 3.7-1.8 6.3l-8.8 26.3h-4.8l-8.4-24.6c-.9-2.7-1.9-5.7-2.4-8h-.1c-.2 3-.6 6-1 9.9l-2.7 22.7h-4.4l5.3-37.6h5.4l8.6 25.4c.9 2.7 1.7 5.2 2.1 7.3h.1c.6-2.6 1.1-4.2 2.1-6.9l8.8-25.8h5.6l5.6 37.6h-4.6M463.5 256.2c-10.4 0-12.6 3.3-12.6 6 0 2.5 1.8 4.1 4.5 4.1 4.9 0 8.1-4.8 8.1-9.6v-.5m.3 13c0-2.1 0-4.2.3-5.8h-.1c-1.3 3.5-4.9 6.3-9.6 6.3-4.4 0-7.6-2.3-7.6-6.7 0-5.8 6-9.8 16.8-9.8v-2.3c0-4.2-1.5-6.5-6.3-6.5-2.7 0-6 .8-8.5 2.4l-.4-3.7c2.6-1.2 5.8-2.1 9.6-2.1 7.6 0 9.8 3.8 9.8 9v10.9c0 2.7 0 5.8.1 8.3h-4.1zM493.6 269.2v-17.9c0-4.3-1.2-6.8-5.2-6.8-5 0-8.5 4.9-8.5 11.5v13.3h-4.2v-27.7h4.1c0 1.8-.2 4.5-.4 6.1l.1.1c1.6-4 5.1-6.7 9.9-6.7 6.3 0 8.3 4 8.3 8.9v19.3h-4.1M516.1 269.5c-6.2 0-12-2.7-12-13.2 0-9.1 4.6-15.2 13.6-15.2 2.3 0 4.6.3 6.5.9l-.4 3.7c-1.8-.7-4-1.2-6.4-1.2-6 0-8.9 4.4-8.9 11.1 0 5.7 1.8 10.4 8.5 10.4 2.4 0 5.1-.6 7-1.6l.4 3.6c-1.9.8-4.9 1.5-8.3 1.5M547.9 269.2v-17.9c0-4.3-1.2-6.8-5.2-6.8-5 0-8.5 4.9-8.5 11.5v13.3H530v-40.6h4.2v13.5c0 1.8-.1 4.1-.4 5.5l.1.1c1.6-4.1 5.1-6.7 9.9-6.7 6.3 0 8.3 4 8.3 8.9v19.3h-4.2M570.4 244.2c-3.9 0-6.7 2.8-7.3 7.2h14c.1-4.3-2.4-7.2-6.7-7.2m11 10.3h-18.5c-.3 8.3 3 11.7 9.2 11.7 2.9 0 6-.7 8-1.8l.4 3.6c-2.6 1.1-5.7 1.7-9.1 1.7-8.4 0-12.8-4.5-12.8-14.2 0-8.3 4.5-14.5 12.1-14.5s10.8 5.3 10.8 11.4c0 .6 0 1.3-.1 2.1zM592.3 269.7c-2.1 0-4.2-.2-5.8-.6l.1-3.8c1.8.5 4 .9 6.2.9 4 0 6.8-1.8 6.8-4.7 0-6.7-13.5-2.5-13.5-12.4 0-4.6 3.8-8.1 10.8-8.1 1.7 0 3.7.3 5.4.6l-.1 3.6c-1.8-.6-3.8-.9-5.7-.9-4.1 0-6.1 1.7-6.1 4.4 0 6.6 13.5 2.8 13.5 12.2 0 5-4.3 8.8-11.6 8.8M619.1 269.7c-5.6 0-7.2-2.4-7.2-8.2v-16.6h-6v-3.3h6v-9.2l4.2-1.2v10.4h8.1v3.3h-8.1v14.9c0 5 .9 6.2 4.2 6.2 1.4 0 2.8-.2 4-.5v3.6c-1.5.3-3.5.6-5.2.6M639.6 244.2c-3.9 0-6.7 2.8-7.4 7.2h14c.2-4.3-2.3-7.2-6.6-7.2m11 10.3h-18.5c-.3 8.3 3 11.7 9.2 11.7 2.9 0 6-.7 8-1.8l.4 3.6c-2.6 1.1-5.7 1.7-9.1 1.7-8.3 0-12.8-4.5-12.8-14.2 0-8.3 4.5-14.5 12.1-14.5s10.8 5.3 10.8 11.4c0 .6 0 1.3-.1 2.1zM670.3 245.2c-6.1-1-9 3.7-9 13v11.1h-4.2v-27.7h4.1c0 1.8-.2 4.6-.6 7l.1.1c1.1-4.1 4-8.2 9.8-7.5l-.2 4"/></svg>