<svg version="1.1" id="Layer_1" xmlns="http://www.w3.org/2000/svg" x="0" y="0" width="925.4" height="283.5" viewBox="0 0 925.4 283.5" xml:space="preserve"><style>.st0{fill:#0093d5}</style><g id="Layer_2_1_"><g id="ENGLISH"><path class="st0" d="M261.3 51.9c6.2 7.3 16.9 11.6 23.2 19-4.5-21.7-21.3-39.5-41.1-43.7 9.7 7.3 11.8 17.4 17.9 24.7zM23.1 107c13.7-29.7 34-23.4 42.7-51.7C61 64 38.7 67.6 28.3 89.9c5.3-13.2 2.6-33.5 11.6-44.4C13.1 65.1 24.5 97 23.1 107zm24.7 71.2c2.5 11.6-4.8 28.3 6.7 44.2-11.9-13.3-37-16.7-47.2-36.9 12.7 49.5 46.2 39.3 61.2 50-12.4-17.8-2.3-29.6-20.7-57.3zm-3.8 31c-7.3-27.6 5.7-37.1-4.2-63.6-1 14.9-11 22.2-4.3 49.4C23.6 172 5.3 163.4 0 147.5c.4 43.3 35.2 49.8 44 61.7zm53.4 46.2c-10.2-14.2-3.2-22.2-32-47.9 6.1 9.4-.2 21.2 19.2 39.6-19-11.2-45.2-6.4-57.8-21.4 21.7 41.6 59.8 24.6 70.6 29.7zm139.3-8.3c19.4-18.4 13.1-30.3 19.2-39.6-28.8 25.7-21.8 33.8-32 47.9 10.8-5.2 48.9 11.8 70.6-29.7-12.6 15-38.8 10.2-57.8 21.4zm30.1-24.7c11.4-15.9 4.2-32.7 6.7-44.2-18.4 27.7-8.3 39.5-20.7 57.4 15-10.7 48.4-.6 61.2-49.9-10.3 20.1-35.4 23.5-47.2 36.7zm-46 35c-10.3-2.8-20.8-4.4-31.5-4.8-9.8-.2-19.5 1.4-28.7 4.9-9.2-3.5-18.9-5.1-28.7-4.9-10.6.4-21.2 2-31.5 4.8-17.3 4.6-32.3 8.2-45.3 1.6 12.5 11.2 27.1 15.1 48.2 12.7 17.5-1.9 31.7-10.7 48.3-10.5h.7c-10.4 5.2-19.7 12.4-27.3 21.2l8 1.1s8.4-16.9 27.7-21.3c19.3 4.4 27.7 21.3 27.7 21.3l8-1.1c-7.6-8.7-16.9-15.9-27.3-21.1h.7c16.5-.1 30.7 8.7 48.2 10.5 21.1 2.3 35.7-1.7 48.2-12.7-13.1 6.5-28.1 2.9-45.4-1.7zM40.9 115.7c-7.1 13.7-18.2 16.8-17 45.2-6-25.2-20.3-34.5-20.2-50.6-9.9 41.9 16.6 46.9 23.5 64.4-1-25.1 15.1-30.2 13.7-59zm10-32.3c-2.5 3.5-4.2 5-10.9 10.4-10 7.9-16.8 19-19.3 31.5.7-15.4-8.8-37.4-2.5-53.5-24.4 34.5 1.4 55.2 2.3 67.7 6.4-24.1 20.9-24.3 30.4-56.1zm249.6 41.9c-2.5-12.4-9.4-23.6-19.3-31.5-6.6-5.5-8.4-6.9-10.9-10.4 9.4 31.9 24 32 30.3 56.1.9-12.5 26.7-33.2 2.3-67.7 6.4 16.1-3 38.1-2.4 53.5zm20.8 22.3c-5.3 15.8-23.6 24.4-35.5 47.5 6.7-27.3-3.2-34.5-4.3-49.4-10 26.5 3.2 36-4.2 63.6 8.8-12 43.6-18.5 44-61.7zm-40.9-31.9c-1.4 28.8 14.7 33.9 13.7 59 6.8-17.5 33.5-22.5 23.5-64.4.2 16.1-14.1 25.5-20.1 50.5 1.1-28.2-10-31.4-17.1-45.1zM60 52c6.2-7.3 8.3-17.4 17.9-24.7-19.8 4.2-36.6 22-41.1 43.7 6.2-7.4 17-11.8 23.2-19zm195.6 3.3c8.6 28.3 29 22 42.6 51.7-1.4-10 9.9-41.8-16.7-61.5 8.9 10.9 6.3 31.1 11.6 44.4-10.4-22.3-32.7-26-37.5-34.6zm-69.2 16c-5.2-2.1-10.7-3.6-16.3-4.4v3.6c5.1.8 10.2 2.1 15 4.1.6-1 1.1-2.1 1.3-3.3zm-4.1-35.1l1.1-1-2.1-.9-5.4-.1-1.4 1-3.2-.3v.8c1.9.1 3.8.3 5.6.6l2.7-.2 2.7.1zm-10.6 117.6c0-.9-1.2-1.8-3-2.7h-.3c0 .7 0 4.4-.1 6.2 2.2-1 3.4-2.1 3.4-3.5zm-63.1-69.4c.1-.7.3-1.3.5-2-.7.2-1.5.2-2.2.2l1.7 1.8zm52.1 160.3c61.4-.2 111-50.2 110.7-111.5-.2-56.7-43-104.1-99.4-110.1 0 .2 0 .4-.1.6-.2 1.1-.4 2.1-.6 2.9 24.4 2.4 47.2 13.1 64.7 30.3l-12.3 12.3.5-2.2-1.6-.7-2.2-.1.5-1.4-1.5-5-3.1-3.4-9.6-5.1-.8.9-1.7.5c3.3 4.7 5 10.4 5.1 16.1V71l4.8 6-2.2.5 1.5 2.2-4.2 4.2-1.7-3.2c-.8 2.2-1.9 4.3-3.2 6.3l.9.9-12.9 12.9c-.8-.7-1.6-1.5-2.4-2.2-1.2.6-2.5 1.1-3.8 1.6l1.1.9-.7.7-1.6.8-.6 1.6-.9-.9-2.7.9.7 1.2 1.9-.5 1.2.1.1-.7.9-.5.3-.6 1.7-.5h1.3c.3.2.5.5.8.7l-5.2 4.9-.4-.5-5.4.9-1.2 1.2-1.2.1 3.3-3.2-1.2-.6-3.1 4.1.9-.1v1.6l1.1.4.2 1.6-1.9-.4-1.9.4-4.8-2.4s-.3 12.6-.4 19c11.2 3.7 22.9 9.1 22.9 23.3.1 6-2.9 11.7-8 14.9l-.2.2-.4.2c-4.5 3-10.3 4.6-15.3 6.1l-.1 9.9c8 4 17.6 9.7 16.7 26.2-.1 4-1.7 5.2-3 5.5-4.7 1.2-9.5 1.9-14.3 2.3v3.6c20.8-1.4 40.4-10.1 55.4-24.5L235 211c-41.5 39.9-107 40.1-148.7.3l12.9-12.9c14.9 14.1 34.2 22.6 54.6 24.1v-3.6c-19.5-1.5-37.9-9.6-52.1-23.1l3.4-3.5 4.8.5 2.5-2.7 6.6.2 1-2.3-.2-1c9.8 7.5 21.4 12.1 33.6 13.4v-3.6c-13.5-1.5-26.2-7.3-36.2-16.6l12.9-12.9c3.2 2.8 6.7 5.2 10.5 7 .3-1.2.7-2.3 1.3-3.4-3.3-1.6-6.4-3.7-9.2-6.2l13-12.9c2.1 1.7 4.4 3 6.9 3.8v-3.9c-1.5-.7-3-1.5-4.3-2.5l3.6-3.6-3.9-1.2-2.5 2.5c-1.2-1.4-2.3-2.9-3.1-4.6-2.2-1-4.3-2.1-6.4-3.4-7.7-4.6-12.3-13-12.1-22-.2-6 1.6-11.9 5.2-16.7l-12.9-12.9c9.5-9.1 21.5-15 34.5-17 0-1.2 0-2.5-.1-3.6-13.9 2-26.8 8.3-36.9 18.1l-2.2-2.1c-.5.9-1.1 2-1.7 3.4l1.4 1.4c-11.5 12.2-18 28.2-18.3 44.9H75.1c.3-21.6 8.8-42.3 23.7-57.9l5.8 5.8h.8c1.2-.1 2.3-.4 3.3-1l-7.4-7.4c3.9-3.8 8.2-7.2 12.7-10.2.2-.9.6-1.8.9-2.7.9-1.3 1.8-2.5 2.8-3.7-6.9 3.8-13.3 8.5-19 14L85.9 56.6c17.3-16.9 39.8-27.5 63.9-30l-.2-.8c-.2-.8-.4-1.8-.5-2.8C88 29.6 43.8 84.3 50.3 145.4c6 56.4 53.6 99.3 110.4 99.3zm24.1-76.7zm53.8-108.5c18.8 19.7 29.5 45.8 29.7 73H250c-.2-13.6-3.4-26.9-9.6-39l.2-.3 1.3.7.3-1-3.2-5.7-3.9-5.4-4.6-3.7c-1.6-1.9-3.2-3.8-4.9-5.6l13-13zm-23.3 23.4l4.4.2 1.1 1.3-.5 1.9 6 3.8 1.2-.1 7.8 8.9 3.2-1.1c5.1 10.9 7.8 22.8 8 34.9h-18.3c-.1-4.7-.6-9.3-1.7-13.9l.8-1.1 1.1-5.7-.9-6.2-2.2-7.1-5.1-7.5 1.2.7.6-.6-4.1-2.8-.3.9 4.1 5.8 2.3 4.8 1.6 4.8.5 3.2.8 5.4-1.6.1s-1.8-3.3-2.3-4.7l.8-1.2-1.6-2.2V103l-1.1-1.4-1.4.2c-.5-.9-1-1.8-1.6-2.7l1 .5.3-.3-.5-1.1 1.2-.7-.5-.7-1.8.7.7-2.8-1.1-.6-.9 2.2c-2-3-4.2-5.8-6.6-8.4l5.4-5zm-3.7 42.8l3.3-1.8 3.3-.5.7-1.6 1.9-1.1.7-1.6.6-2.7c.3.9.5 1.9.7 2.9l-1.8 5.3v1.8l2.6-3.4c.6 3.2.9 6.4.9 9.6h-15.9l-.4-1.4 1.9-1.5.4-.9.8-.6 2.2-.2.2-1-2.1-1.3zm-21.9-12.6l1.6-.4v-.4l-1.6-1.1.6-3.4 2-2c1.2 1.4 2.4 2.9 3.4 4.4l-.7 2.1-1.8-1.3-1.4.4.7 1.3h.7l-.7 1.9-.5-.7-2.3-.8zm7 60.7l-4-1.1-1.2.4-2.2-1.7-2.1-.7c1-.7 2-1.6 3-2.4l3.2 2.3 2.5 1.3 1.2 1.2-.4.7zm-2-70.5l12.9-12.9c3 3.3 5.7 6.9 8 10.7l-1.6.4.1 2.9 4.8 3.1c1.2 2.6 2.2 5.4 3 8.2l-.8 1.2-1.8 1.1-.4 2.7-1.2.7-1 1.2-1-.4h-1.8l1-1.4.7-3.6 1.2-.7-3.3-3.4-2.6.9-.6 2.4-1.6 1.8-1.7-1.4-.6-1.5 1-.6.5 1 .8-.3-.4-1.6h-1.1l-.1.7-.7.1-4.1-4.8-1.4-1 .5-.6 1.2-.4-1.1-.4s-1.4.3-1.6.3l.8 1h-2c-1.1-2-2.5-3.7-4-5.4zm6.6 68.8l-1.8-1.8 1.3-1.7 1.7-3.4-.7-1 1.1-2.5-.1-2.3-.7-2.4-1.6-.6-.6 1.3-1-.3c1.5-2.1 2.7-4.3 3.8-6.7l1.6-.7.9-1.2.4.5 1.1-1.3-.9-1.1.8-.2 1.5.6h2.8l1.7-.9 4.5-1.2-.8-1.5-.3-1.8 2.4 1.1.9-.5-.4-1.8-2.9 1.2-3.2-.7-2.5-5h14c-.6 15.5-6.9 30.3-17.6 41.6l-1.9-1.9.8-2.6-1.5-5.7-2.8 4.5zm2.5 35.6l1.7-3.7-.7-1.6 2.5-2.2v-1.3l-2.2-1.4 1.8-3.6 2.7-3.5-2.7-2.9h-2l-1.2-2c1.1-.9 2.1-1.8 3.2-2.8l12.9 12.9c-4.9 4.7-10.2 8.8-16 12.1zm16.1-17l1.4-1.6-1.3-7.1-.9-.4.6-1.2-3.1-1-.6 2.6-.3 3.2-.6.6-5.6-5.6c11.4-11.9 18.1-27.6 18.7-44.1h18.3c-.6 21.3-9.2 41.7-24.1 57l-2.5-2.4zm5 5c15.5-16 24.5-37.3 25.1-59.6h18.3c-.6 27.1-11.5 53-30.5 72.5l-12.9-12.9zM115 178c-1.3-1.4-2.6-2.8-3.8-4.3l.6-4.6-1.9-4.4-.5-6.9-2.2-4.2.4-2.6-2.6-5-2.3-1.1.9-2.7-.9-2.1.9-2.4h2.5l.9-1.4h4.3l.7 1.3-.8 4.4-.5.7 1.6 3.5-1.1.6-.7-.9-.3.4.7 2.1 1.3 2.4h.6l.4-2.4-.6-.8v-1.5l-.2-3 .8-5.3-.9-1.4h3.1c.6 10.8 5.1 21.1 12.6 29L115 178zm-12.1-35.7l-1.7 2.7h-3l-.2-.2c-.5-2.9-.8-5.8-.9-8.7h5.5l-1.3 4.4 1.6 1.8zm6-12.6l.3-3.6 2.2-1.3 3.9.7.6.7c-.3 2.1-.5 4.2-.6 6.3h-4.4l-2-2.8zm18.6 13.7l.9-.5 2.3 1.8-1 .8 2.7 1.8-.1-1.9 1.4-2.4 1.5 1.6 1.6 2.2-2.9.6 1.3 2.5 1.9-1-.2-.8 1.4-1 .8-4c1 2.3 2.5 4.5 4.2 6.4l-12.9 12.9c-6.3-6.6-10.3-15.1-11.3-24.3l2.6 2.8h2.5l3.3 2.5zm-13.3-53.3l12.9 12.9c-2.7 3-5 6.3-6.9 9.9h-.9l-1.8.6h-.6l-1.9 1.8 2.4-.5 2.2-.6-.4.8-1.9 1.2h-1l-2.8 2.2-2.7-.2-4 7.4.8 1.5-2.2 2.4-.3 3.2H97c.2-15.9 6.4-31.1 17.2-42.6zm-16.7 97.4l4.1 2.4.8.6-3 3c-1.4-1.4-2.7-2.9-4-4.4l2.1-1.6zm-4.1-51.4c0 1.8.2 3.5.4 5.3l-2.2.5-.5 2.3-4.7 5.9.1 8.1-4.8 1.6h-2.6c-2.5-7.7-3.8-15.7-4.1-23.7h18.4zm-18 23.6l-1.1-.2-1-1.1-5.1-.4 1.6 2.2-4.8-.9 1.2-1.1-1.2-1.1-3.4 1.5-1.2 2.3.5 5.2 4 9.4 1.9 3 1.1.4-3-5.7-.7-2.9.7-.7-.4-1.6 1.8.2 2.8 4.2.7.3v-3l1.1.7.2 1.6 2.9.8 1.2-.9.4.3v2.2l1.3 1.6 1.6.4 3.4 5.7 2.1.6.6-2.7c3.6 5.9 7.8 11.3 12.6 16.3l-12.9 12.9c-19.2-19.4-30.2-45.4-30.9-72.7h18.3c0 7.6 1.3 15.6 3.7 23.2zm7.9-100.5l12.9 12.9a89.077 89.077 0 0 0-24.7 60.4H53.2c.3-27.4 11-53.6 30.1-73.3zm132.3-6.7l-1.1-1.8-2.4-1.2-1.9 1.4 2.4 1.3 2.6 2 .4-1.7zM204.4 104v1.4l3.2-.9 1-1.9-2.2-2.9 1.2-1.8 2.9 2.1.5-.4-.6-.4-.7-1.3 1.2-.7-1.2-1.6L207 97l-.9 1.7-.6 1.5 1.2 2.1-.4 1-1.9.7zM72.3 186l.2-.8-1.6-3.6-1.9-.7 3.3 5.1zm74.7-68.7c0 3.1 1.9 5.2 5.3 7.1V123l-2.1-2.1 1.1-2.1.9-.3c0-3.6-.1-7.6-.2-8.1h-.2c-3.1 1.8-4.8 3.9-4.8 6.9z"/><path class="st0" d="M167.4 196.5c5.7 2.9 11 6.9 13.2 14.5 1-12.6-6.1-18-13.1-21.7.1 0-.1 7.2-.1 7.2zM205.5 68.8c0-11.4-8.3-24.1-28.6-28.6-2-.4-4.1-.6-6.2-.7 0 1.7-.1 5.7-.1 5.7 0 1.2-.1 5.8-.2 6.8 1.3.1 2.6.3 3.9.5 11.8 2.8 16 9.6 16 16.3 0 10.9-9.3 14.9-20.7 18l-3.8 1c-3.5.9-7 1.7-10.5 2.6-1.3.3-2.5.7-3.7 1.1-12.6 3.9-23.5 9.9-23.5 25.5s12.4 21.3 24.5 25l-.3-13.4c-5.3-2.5-9.1-5.8-9.1-11.3s3.4-8.7 8.7-11.2c1.2-.5 2.4-1 3.7-1.4 3-1 6.4-1.9 10-2.8l3.8-.9c17-4 36.1-9.3 36.1-32.2zM144.3 177.9c0 6.2 4.6 9.6 9.2 12.2 0-1.1-.2-10.7-.2-10.9.1-1.9 2-3.1 3.5-3.8 2.4-1.1 4.8-2 7.3-2.8 1.4-.5 2.5-.9 3.8-1.3 9.2-2.8 19.9-6.4 19.9-17.5s-9.2-15.9-19.1-19.3c0 3.6-.2 8.8-.3 12.4 4.2 1.6 7 3.7 7 6.9 0 4-4.3 6.4-7.3 7.5-1.3.5-3.2 1.1-3.7 1.3-2.5.8-5.1 1.6-7.6 2.5-1.3.5-2.5 1-3.7 1.6-4.3 2.3-8.8 5.5-8.8 11.2zM150.6 41.3c-3.8 1.2-7.6 2.7-11.2 4.5-4 1.3-9.6 1.6-15.4 7.9-1.9 2.2-3.7 4.5-5.3 6.8-1.8 2.5-1.8 6.6-3.2 8.7-1.8 3.2-1.4 5-1.4 5v.1c-.3 1.5-1.1 2.9-2.1 4-1.8 2.2-4.6 3.4-7.4 3 2.6 1.3 6.4-.5 6.4-.5-.6 1.7-1 3.5-1.4 5.3 3-6.7 5.7-9.2 6.5-9.8 1.3.3 3.9.2 8.8-2.6 5.5-3.2 13.9-8.4 16.2-11.6 2.5-3.4 5.9-5.9 9.8-7.4-.2-5.3-.3-9.7-.3-13.4zm-23.4 21l-2.9.6 3.4-5.5 4 .1-4.5 4.8z"/><path class="st0" d="M162 177.1c-.5.2-1.9.8-2.8 1.1-.9.3-2.1.8-2.1 1.1 0 .3.9 48.5.9 49.5 0 10 5.1 10 5.1 0 0-.7 1-52.4 1-52.4s-1.2.5-2.1.7zM156.7 161.2c1.6-.5 3.2-1 4.6-1.5l3.1-1c0-3 .9-45.1 1.1-52.8-3.3.8-6.6 1.7-9.8 2.8.1 5.8 1 47.9 1 52.5zM160.9 0c-14.2 0-8.2 21.1-7.1 28 0 .3 1.1 47.8 1.4 58.6 2.2-.6 4.3-1.1 6.4-1.6l4.3-1.1c.2-10.5 1.3-55.8 1.3-56 .9-7.3 8.4-27.9-6.3-27.9zM393.8 67.3h-.2l-12.1 65.9H365l-15.5-80.4h13.2l10.8 62h.2l11.5-62h17.1l11.4 62h.2l11.2-62h12.7L422 133.2h-16.8l-11.4-65.9zM461.1 73c11.5 0 24.8 6.4 24.8 30.5 0 24.9-13.3 30.6-24.8 30.6s-24.9-5.8-24.9-30.6c0-24.2 13.4-30.5 24.9-30.5zm0 51c8.8 0 10.7-10.6 10.7-20.5s-2-20.4-10.7-20.4c-8.8 0-10.9 10.5-10.9 20.4s2.2 20.5 10.9 20.5zM494.4 83.7c0-3.3-.1-6.5-.4-9.8h12.3c.1 3.6.4 7.2.4 10.8h.2c1.6-4.6 5.9-11.7 14.3-11.7.8 0 1.6.2 2.3.4v13.4c-1.2-.4-2.5-.6-3.8-.6-5.6 0-11.7 3.6-11.7 14.6v32.5h-13.6V83.7zM532.2 46.8h13.6v86.4h-13.6V46.8zM602.5 46.8V123c-.1 3.4.1 6.8.4 10.1h-12.7c-.3-3.1-.5-6.1-.4-9.2h-.3c-2.2 5.1-6.2 10.1-15 10.1-14 0-19.9-14.1-19.9-30.5 0-19.4 7.3-30.6 19.5-30.6 6.4-.2 12.2 3.5 14.6 9.4h.2V46.8h13.6zm-24.4 76.9c8 0 10.8-9.1 10.8-20.3 0-11.5-3.1-19.9-10.5-19.9-7.5 0-10.2 7.7-10.2 19.6 0 13.7 2 20.6 9.9 20.6zM647.3 52.8h14.1v32.7H684V52.8h14.1v80.4H684V97.7h-22.7v35.5h-14.1l.1-80.4zM750.2 130.3c-5.3 2.5-11.1 3.8-16.9 3.8-18.2 0-26.1-13.7-26.1-29.7 0-17.7 8.9-31.4 23.3-31.4 12.2 0 22.6 7.5 22.6 31.7v2.8h-32.7c0 10.1 3.8 16.3 14.3 16.3 8.3 0 12.3-2.7 14.8-4.6l.7 11.1zm-10.3-31.8c0-10.5-3.3-15.8-9.4-15.8-7.1 0-10.1 8-10.1 15.8h19.5zM765.2 77.4c5.5-2.9 11.6-4.4 17.9-4.4 17.5 0 21.6 9 21.6 23.9v25.8c0 3.5.3 7 .8 10.5h-12.3c-.6-2.6-.9-5.3-.8-8h-.2c-3.4 4.8-7.7 9-15.8 9-8.8 0-16.9-6.4-16.9-17.4 0-16.1 12.5-20.2 29.7-20.2h2.7v-2.2c0-5.9-2.7-11.3-10.5-11.3-5.7.1-11.1 2.2-15.5 5.8l-.7-11.5zm26.8 26.8h-1.2c-11.6 0-18.5 2.5-18.5 11.2 0 5.4 3.4 9.1 8.7 9.1 8.1 0 11.2-6.4 11.2-16.9l-.2-3.4zM818.1 46.8h13.6v86.4h-13.6V46.8zM848.7 61.7l13.6-4.3V74h11.3v10.5h-11.3v30.8c0 6.4 2.2 8.2 6.1 8.2 1.8 0 3.6-.4 5.2-1.3v10.1c-2.8 1.4-6 2-9.1 2-10.1 0-15.8-4.8-15.8-17.3V84.4h-9V73.9h9V61.7zM880.6 46.8h13.6v34.7h.3c2.4-3.7 5.6-8.5 14-8.5 12.7 0 16.7 10 16.7 22v38.2h-13.6V97.6c0-9.1-2.2-12.9-7.8-12.9-7.1 0-9.7 6.4-9.7 13.9v34.5h-13.6l.1-86.3zM379.4 154.6c15.9 0 30.5 12.4 30.5 41.4s-14.6 41.3-30.5 41.3-30.5-12.4-30.5-41.3 14.6-41.4 30.5-41.4zm0 71.4c8.9 0 16-8 16-30s-7.1-30.1-16-30.1-15.9 8-15.9 30.1 7 30 15.9 30zM419 186.6c0-3.3-.1-6.5-.4-9.8h12.3c.1 3.6.4 7.3.4 10.8h.2c1.6-4.6 5.9-11.7 14.3-11.7.8 0 1.5.2 2.3.3v13.3c-1.2-.4-2.5-.6-3.8-.6-5.6 0-11.7 3.6-11.7 14.6V236H419v-49.4zM456.7 245.4c5 3.1 10.8 4.8 16.7 5.1 12.7 0 14.9-9.3 14.9-18.7v-5.6h-.2c-2.2 4.6-6 10-14.9 10-8 0-19.7-5.5-19.7-29.5 0-16.4 5.6-30.8 20.4-30.8 8.2 0 12.1 5 14.9 10.1h.4c0-3.2.3-6.1.4-9.2h12.3c-.2 3.2-.4 6.2-.4 9.3v43.8c0 18.5-5.4 31.9-26.1 31.9-6.6 0-13.2-1.3-19.4-3.7l.7-12.7zm21.1-19.7c8.6 0 11.9-6.4 11.9-19.9 0-12.4-4.5-19.1-11-19-7.1.1-9.9 7-9.9 19.1.2 14 4.4 19.8 9 19.8zM516.2 180.3c5.5-2.9 11.7-4.4 17.9-4.4 17.5 0 21.6 9 21.6 23.9v25.9c0 3.5.3 7 .8 10.5h-12.3c-.6-2.6-.9-5.4-.8-8.1h-.2c-3.4 4.8-7.7 9-15.8 9-8.8 0-16.9-6.4-16.9-17.4 0-16.1 12.5-20.2 29.7-20.2h2.7v-2.2c0-5.9-2.7-11.3-10.5-11.3-5.6.1-11.1 2.2-15.5 5.8l-.7-11.5zm26.7 26.8h-1.2c-11.6 0-18.5 2.5-18.5 11.2 0 5.4 3.4 9.1 8.7 9.1 8.1 0 11.1-6.4 11.1-16.9v-3.4zM569.4 186.6c0-3.3-.1-6.5-.4-9.8h12.7c.1 3 .4 6.1.4 9.1h.2c2-3.6 5.8-10 15-10 12.8 0 16.7 10 16.7 22v38.2h-13.6v-35.6c0-9.1-2.2-12.9-7.8-12.9-7.1 0-9.7 6.4-9.7 13.9V236h-13.6l.1-49.4zM626.3 151.6h14v14.1h-14v-14.1zm.2 25.2h13.6v59.3h-13.6v-59.3zM652.7 223.8l24.1-36.2h-23.4v-10.8h37V189l-23.7 36.3h24.5v10.8h-38.5v-12.3zM704.1 180.3c5.5-2.9 11.7-4.4 17.9-4.4 17.5 0 21.6 9 21.6 23.9v25.9c0 3.5.3 7 .8 10.5h-12.3c-.6-2.6-.9-5.4-.8-8.1h-.2c-3.4 4.8-7.7 9-15.8 9-8.8 0-16.9-6.4-16.9-17.4 0-16.1 12.5-20.2 29.7-20.2h2.7v-2.2c0-5.9-2.7-11.3-10.5-11.3-5.6.1-11.1 2.2-15.5 5.8l-.7-11.5zm26.8 26.8h-1.1c-11.6 0-18.5 2.5-18.5 11.2 0 5.4 3.4 9.1 8.7 9.1 8.1 0 11.2-6.4 11.2-16.9l-.3-3.4zM759.2 164.6l13.6-4.4v16.6h11.3v10.5h-11.3v30.8c0 6.4 2.2 8.2 6.2 8.2 1.8 0 3.6-.4 5.1-1.3v10.1c-2.8 1.4-6 2-9.1 2-10.1 0-15.8-4.8-15.8-17.3v-32.5h-9v-10.5h9v-12.2zM793.5 151.6h14v14.1h-14v-14.1zm1.7 25.3h13.6v59.3h-13.6v-59.3zM844.1 175.9c11.5 0 24.8 6.4 24.8 30.5 0 24.9-13.3 30.6-24.8 30.6s-24.9-5.8-24.9-30.6c0-24.1 13.4-30.5 24.9-30.5zm0 51c8.8 0 10.7-10.6 10.7-20.5s-2-20.4-10.7-20.4-10.9 10.5-10.9 20.4c.1 10 2.2 20.6 10.9 20.5zM880.8 186.6c0-3.3-.1-6.5-.4-9.8h12.7c.1 3 .4 6.1.4 9.1h.2c2-3.6 5.8-10 15-10 12.8 0 16.7 10 16.7 22v38.2h-13.6v-35.6c0-9.1-2.2-12.9-7.8-12.9-7.1 0-9.6 6.4-9.6 13.9V236h-13.7v-49.4z"/></g></g></svg>