<?xml version="1.0" encoding="utf-8"?>
<!-- Generator: Adobe Illustrator 23.0.1, SVG Export Plug-In . SVG Version: 6.00 Build 0)  -->
<svg version="1.1" id="Layer_1" xmlns="http://www.w3.org/2000/svg" xmlns:xlink="http://www.w3.org/1999/xlink" x="0px" y="0px"
	 width="257px" height="141px" viewBox="0 0 257 141" style="enable-background:new 0 0 257 141;" xml:space="preserve">
<style type="text/css">
	.st0{fill:#6C6F70;}
	.st1{fill:#FFFFFF;}
	.st2{font-family:'ArialMT';}
	.st3{font-size:16.5245px;}
	.st4{fill:#163964;}
	.st5{fill:#9A9A9B;}
	.st6{opacity:0.4;}
	.st7{fill:none;}
	.st8{fill:#6F6F72;}
	.st9{fill:#838384;}
</style>
<path class="st0" d="M82.8,101.2c-16.7,0-30.3-13.6-30.3-30.3s13.6-30.3,30.3-30.3V2C44.8,2,14,32.8,14,70.9
	c0,38,30.8,68.9,68.9,68.9c38,0,68.9-30.8,68.9-68.9h-38.6C113.1,87.6,99.5,101.2,82.8,101.2"/>
<g>
	<path class="st1" d="M49.9,32.5l3.3-2.7l-2.5-3.1l-3.7,3l-0.8-0.9l4.8-4l7.1,8.6l-4.6,3.8l-0.8-0.9l3.5-2.9L54,30.7l-3.3,2.7
		L49.9,32.5z"/>
</g>
<g>
	<path class="st1" d="M38.6,38c0.1-0.6,0.6-1.6,1.5-2.6c2-2.4,5-3,7.8-0.7c2.7,2.2,3,5.5,0.8,8.2c-0.9,1.1-1.7,1.6-2.1,1.7l-0.7-1
		c0.6-0.3,1.2-0.7,1.8-1.4c1.7-2,1.5-4.4-0.8-6.3c-2.1-1.7-4.5-1.6-6.2,0.5c-0.6,0.7-1,1.5-1.1,2.1L38.6,38z"/>
</g>
<g>
	<path class="st1" d="M45.2,47.6l-5.9-3c-2.2-1.1-3.7-0.6-4.3,0.7c-0.7,1.5-0.2,2.9,2,4l5.9,3l-0.7,1.3l-5.8-2.9
		c-3.1-1.5-3.5-3.8-2.4-5.9c1-2,3-3,6-1.4l5.9,2.9L45.2,47.6z"/>
</g>
<text transform="matrix(-0.2933 0.956 -0.956 -0.2933 30.1766 52.138)" class="st1 st2 st3"> </text>
<g>
	<path class="st1" d="M28.5,67.7c-0.1-0.7-0.4-2-0.2-3.5c0.2-1.7,0.8-3,2-3.9c1-0.8,2.6-1.2,4.3-1c3.3,0.4,5.4,3,4.9,6.7
		c-0.2,1.3-0.6,2.2-0.9,2.7l-1.1-0.5c0.3-0.6,0.6-1.3,0.8-2.4c0.4-2.7-1.1-4.7-3.9-5c-2.8-0.4-4.7,1.1-5,3.7c-0.1,0.9-0.1,1.6,0,1.9
		l3.3,0.4l0.3-2.2l1.1,0.1l-0.5,3.6L28.5,67.7z"/>
</g>
<g>
	<path class="st1" d="M33.7,77.4L33.4,73l-4,0.3l0.3,4.8l-1.2,0.1L28.1,72l11.1-0.8l0.4,6l-1.2,0.1l-0.3-4.6L34.6,73l0.3,4.3
		L33.7,77.4z"/>
</g>
<g>
	<path class="st1" d="M29.2,82.5l10.7-3.1l0.4,1.5l-4.4,5c-1,1.2-2,2.1-2.9,2.9l0,0c1.4-0.5,2.7-1,4.4-1.4l4.5-1.3l0.4,1.3
		l-10.7,3.1l-0.4-1.4l4.4-5c1-1.1,2-2.2,3-3l0,0c-1.3,0.5-2.6,0.9-4.4,1.4l-4.6,1.3L29.2,82.5z"/>
</g>
<g>
	<path class="st1" d="M42.9,89.6c0.5,0.7,1.2,1.6,1.7,2.5c1,1.8,1.3,3.3,1,4.6c-0.3,1.3-1.1,2.5-2.7,3.3c-1.6,0.9-3.1,1.1-4.6,0.8
		c-1.4-0.4-2.8-1.6-3.8-3.5c-0.5-0.9-0.9-1.7-1.2-2.3L42.9,89.6z M35,95.7c0.1,0.3,0.4,0.8,0.6,1.3c1.5,2.7,3.8,3.3,6.5,1.8
		c2.3-1.3,3-3.4,1.5-6c-0.4-0.6-0.7-1.1-1-1.4L35,95.7z"/>
</g>
<g>
	<path class="st1" d="M48.2,107l-2.9-3.2l-3,2.7l3.2,3.6l-0.9,0.8l-4.1-4.7l8.3-7.4l4,4.5l-0.9,0.8l-3-3.4l-2.6,2.3l2.9,3.2
		L48.2,107z"/>
</g>
<g>
	<path class="st1" d="M54.3,104.9c0.7,0.3,1.5,0.9,2.3,1.5c1.2,0.9,1.8,1.8,2,2.7c0.1,0.7-0.1,1.5-0.6,2.2c-0.9,1.2-2.2,1.4-3.4,1
		l0,0c0.5,0.8,0.4,1.7-0.1,2.8c-0.7,1.5-1.1,2.5-1.2,2.9l-1.2-0.9c0-0.4,0.4-1.3,1-2.6c0.7-1.4,0.6-2.2-0.4-3.1l-1.1-0.8l-2.9,3.8
		l-1.1-0.9L54.3,104.9z M52.4,109.8l1.2,0.9c1.2,0.9,2.5,0.9,3.3-0.1c0.9-1.1,0.4-2.3-0.8-3.2c-0.5-0.4-1-0.7-1.2-0.8L52.4,109.8z"
		/>
</g>
<text transform="matrix(0.8736 0.4866 -0.4866 0.8736 55.0015 119.5171)" class="st1 st2 st3"> </text>
<g>
	<path class="st1" d="M69.5,125.2c-0.6,0.1-1.7,0-2.9-0.5c-2.9-1.1-4.5-3.8-3.2-7.2c1.2-3.3,4.2-4.7,7.5-3.5c1.3,0.5,2,1.1,2.3,1.4
		l-0.7,1c-0.4-0.4-1.1-0.9-2-1.2c-2.5-0.9-4.7,0.1-5.7,2.8c-0.9,2.6-0.1,4.7,2.5,5.7c0.8,0.3,1.7,0.4,2.4,0.4L69.5,125.2z"/>
</g>
<g>
	<path class="st1" d="M76.4,115.7l-0.6,4.6l5.3,0.7l0.6-4.6l1.4,0.2l-1.4,11l-1.4-0.2l0.7-5.2l-5.3-0.7l-0.7,5.2l-1.4-0.2l1.4-11
		L76.4,115.7z"/>
</g>
<g>
	<path class="st1" d="M87.1,124.1l-0.9,3.6l-1.5,0.1l2.9-11.4l1.7-0.1l4.6,10.8l-1.5,0.1l-1.4-3.4L87.1,124.1z M90.6,122.7l-1.3-3.1
		c-0.3-0.7-0.5-1.4-0.7-2l0,0c-0.1,0.7-0.2,1.4-0.4,2.1l-0.8,3.3L90.6,122.7z"/>
</g>
<g>
	<path class="st1" d="M94.9,115.5c0.7-0.3,1.6-0.7,2.6-1c1.5-0.4,2.5-0.4,3.3,0c0.7,0.3,1.2,1,1.4,1.8c0.4,1.4-0.2,2.6-1.2,3.3l0,0
		c0.9,0,1.6,0.7,2.2,1.7c0.8,1.4,1.3,2.3,1.7,2.7l-1.4,0.4c-0.3-0.3-0.8-1.1-1.5-2.3c-0.8-1.4-1.5-1.8-2.8-1.4L98,121l1.4,4.6
		L98,126L94.9,115.5z M97.7,120l1.4-0.4c1.5-0.4,2.2-1.5,1.8-2.7c-0.4-1.4-1.6-1.7-3-1.3c-0.7,0.2-1.1,0.4-1.3,0.5L97.7,120z"/>
</g>
<g>
	<path class="st1" d="M106.2,112.6l-3,1.6l-0.6-1.1l7.3-3.8l0.6,1.1l-3,1.6l4.6,8.8l-1.3,0.7L106.2,112.6z"/>
</g>
<g>
	<path class="st1" d="M118.5,109.1l-3.4,2.7l2.5,3.1l3.8-3l0.8,0.9l-4.9,3.9l-6.9-8.7l4.7-3.7l0.8,0.9l-3.6,2.9l2.2,2.8l3.4-2.7
		L118.5,109.1z"/>
</g>
<g>
	<path class="st1" d="M117,102.9c0.4-0.6,1-1.5,1.6-2.2c1-1.2,1.9-1.7,2.8-1.9c0.7-0.1,1.5,0.2,2.2,0.7c1.1,1,1.3,2.3,0.8,3.4l0,0
		c0.8-0.5,1.7-0.3,2.8,0.2c1.4,0.7,2.4,1.2,2.9,1.3l-1,1.1c-0.4-0.1-1.2-0.5-2.5-1.2c-1.4-0.8-2.2-0.7-3.1,0.3l-0.9,1l3.7,3.1
		l-0.9,1.1L117,102.9z M121.7,105.1l1-1.1c1-1.2,1-2.5,0-3.3c-1.1-0.9-2.2-0.6-3.2,0.6c-0.5,0.5-0.7,0.9-0.8,1.2L121.7,105.1z"/>
</g>
<path class="st4" d="M172.5,14.6v3.8h3.6v2.8h-3.6v6.6c0,1.8,0.5,2.8,1.9,2.8c0.7,0,1-0.1,1.5-0.2l0.1,2.9c-0.6,0.2-1.5,0.4-2.7,0.4
	c-1.4,0-2.6-0.5-3.3-1.3c-0.8-0.9-1.2-2.2-1.2-4.2v-7h-2.2v-2.8h2.2v-2.8L172.5,14.6z"/>
<path class="st4" d="M197.2,27c0.1,2.7,2.2,3.9,4.6,3.9c1.8,0,3-0.2,4.1-0.7l0.6,2.6c-1.3,0.5-3.1,1-5.2,1c-4.9,0-7.7-3-7.7-7.6
	c0-4.1,2.5-8.1,7.3-8.1c4.9,0,6.5,4,6.5,7.3c0,0.7-0.1,1.3-0.1,1.6C207.3,27,197.2,27,197.2,27z M203.7,24.4c0-1.4-0.6-3.7-3.1-3.7
	c-2.3,0-3.3,2.1-3.5,3.7H203.7z"/>
<path class="st4" d="M209.6,22.9c0-1.7,0-3.2-0.1-4.5h3.3l0.2,2.2h0.1c0.6-1.2,2.3-2.6,4.8-2.6c2.6,0,5.3,1.7,5.3,6.4v8.9h-3.8V25
	c0-2.2-0.8-3.8-2.9-3.8c-1.5,0-2.6,1.1-3,2.2c-0.1,0.3-0.2,0.8-0.2,1.2v8.8h-3.8L209.6,22.9L209.6,22.9z"/>
<path class="st4" d="M237.9,29.9c0,1.4,0.1,2.7,0.2,3.6h-3.4l-0.2-1.7h-0.1c-0.9,1.2-2.5,2-4.4,2c-3,0-4.7-2.2-4.7-4.5
	c0-3.8,3.4-5.7,8.9-5.7v-0.2c0-1-0.4-2.6-3-2.6c-1.5,0-3,0.5-4,1.1l-0.7-2.5c1.1-0.7,3-1.3,5.4-1.3c4.8,0,6.2,3,6.2,6.3v5.5H237.9z
	 M234.2,26.1c-2.7-0.1-5.2,0.5-5.2,2.8c0,1.5,1,2.2,2.1,2.2c1.5,0,2.6-1,3-2.1c0.1-0.3,0.1-0.6,0.1-0.8L234.2,26.1L234.2,26.1z"/>
<path class="st4" d="M186.4,18.1c-1,0-1.8,0.2-2.6,0.7c-0.8,0.4-1.4,1-1.9,1.7h-0.1v-7.2H178v20.1h3.8v-8.9c0-0.4,0-0.8,0.2-1.1
	c0.4-1.1,1.4-2.1,2.9-2.1c2.1,0,2.9,1.6,2.9,3.8v8.4h3.8v-8.8C191.6,19.8,188.9,18.1,186.4,18.1"/>
<path class="st4" d="M160.4,13.4H156l-6.4,20.1h3.9l1.8-5.9h5.7l1.9,5.9h4.1L160.4,13.4z M155.8,24.7l1.9-6.2h0.7l1.9,6.2H155.8z"/>
<path class="st4" d="M175.5,49.6c1,0.5,2.6,1,4.2,1c1.7,0,2.7-0.7,2.7-1.8c0-1-0.8-1.6-2.8-2.4c-2.8-1-4.6-2.5-4.6-4.9
	c0-2.9,2.4-5,6.3-5c1.9,0,3.3,0.4,4.3,0.8l-0.8,3.1c-0.7-0.3-1.9-0.8-3.5-0.8s-2.4,0.7-2.4,1.6c0,1.1,0.9,1.5,3.1,2.4
	c3,1.1,4.4,2.6,4.4,5c0,2.8-2.2,5.2-6.8,5.2c-1.9,0-3.8-0.5-4.7-1L175.5,49.6z"/>
<path class="st4" d="M190.8,53.5l-4-16.8h4.1l1.3,6.9c0.4,2,0.7,4.2,1,5.9l0,0c0.3-1.8,0.7-3.8,1.1-5.9l1.4-6.9h4l1.3,7.1
	c0.4,2,0.6,3.8,0.9,5.6h0.1c0.2-1.9,0.6-3.8,1-5.8l1.4-6.9h3.9L204,53.5h-4.1l-1.4-7.2c-0.3-1.7-0.6-3.3-0.8-5.2l0,0
	c-0.3,1.9-0.6,3.5-1,5.2l-1.6,7.2C195.1,53.5,190.8,53.5,190.8,53.5z"/>
<path class="st4" d="M212.7,49.2l-1.2,4.3h-3.9l5.1-16.8h5l5.2,16.8h-4.1l-1.3-4.3H212.7z M216.9,46.4l-1-3.6
	c-0.3-1-0.6-2.2-0.8-3.2H215c-0.2,1-0.5,2.3-0.8,3.2l-1,3.6H216.9z"/>
<path class="st4" d="M224.3,53.5V36.7h4.4l3.5,6.1c1,1.8,2,3.9,2.7,5.7h0.1c-0.2-2.2-0.3-4.5-0.3-7v-4.9h3.5v16.8h-4l-3.6-6.5
	c-1-1.8-2.1-4-2.9-5.9h-0.1c0.1,2.2,0.1,4.6,0.1,7.3v5h-3.4V53.5z"/>
<g>
	<path class="st0" d="M172.3,65.7c0.5,0.3,1.3,0.5,2,0.5c1,0,1.5-0.5,1.5-1.2c0-0.6-0.4-1-1.5-1.4c-1.4-0.5-2.3-1.2-2.3-2.5
		c0-1.4,1.2-2.4,3-2.4c0.9,0,1.6,0.2,2,0.4l-0.4,1.2c-0.3-0.2-0.9-0.4-1.7-0.4c-1,0-1.4,0.5-1.4,1c0,0.7,0.5,1,1.6,1.4
		c1.5,0.6,2.2,1.3,2.2,2.5c0,1.4-1,2.5-3.2,2.5c-0.9,0-1.8-0.3-2.3-0.5L172.3,65.7z"/>
	<path class="st0" d="M180.5,59.5c0,0.5-0.3,0.8-0.9,0.8c-0.5,0-0.9-0.4-0.9-0.8c0-0.5,0.4-0.8,0.9-0.8S180.4,59,180.5,59.5z
		 M178.8,67.3v-6.1h1.6v6.1H178.8z"/>
	<path class="st0" d="M182,58.4h1.6v8.9H182V58.4z"/>
	<path class="st0" d="M186.2,61.2l1,3.1c0.2,0.5,0.3,1,0.4,1.5l0,0c0.1-0.5,0.3-1,0.4-1.5l1-3.1h1.6l-2.3,6.1h-1.5l-2.3-6.1
		C184.5,61.2,186.2,61.2,186.2,61.2z"/>
	<path class="st0" d="M192.5,64.7c0,1.1,0.9,1.6,1.9,1.6c0.7,0,1.2-0.1,1.7-0.3l0.2,1.1c-0.5,0.2-1.3,0.4-2.1,0.4
		c-2,0-3.1-1.2-3.1-3.1c0-1.7,1-3.3,3-3.3s2.6,1.6,2.6,3c0,0.3,0,0.5,0,0.7L192.5,64.7L192.5,64.7z M195.2,63.6
		c0-0.6-0.2-1.5-1.3-1.5c-1,0-1.4,0.9-1.4,1.5H195.2z"/>
	<path class="st0" d="M197.9,63.2c0-0.8,0-1.4-0.1-2h1.3v1.2l0,0c0.3-0.9,1-1.3,1.7-1.3c0.2,0,0.2,0,0.4,0v1.5
		c-0.1,0-0.3-0.1-0.5-0.1c-0.7,0-1.2,0.5-1.4,1.2c0,0.1,0,0.3,0,0.5v3.2h-1.5v-4.2H197.9z"/>
	<path class="st0" d="M206.7,64.9l-0.7,2.4h-1.6l2.7-8.5h2l2.7,8.5h-1.7l-0.8-2.4H206.7z M209.1,63.8l-0.7-2.1
		c-0.2-0.5-0.3-1.1-0.4-1.6l0,0c-0.1,0.5-0.3,1.1-0.4,1.6l-0.7,2.1H209.1z"/>
	<path class="st0" d="M213.5,61.2l0.6,2.8c0.1,0.7,0.3,1.3,0.4,2l0,0c0.1-0.7,0.3-1.3,0.5-2l0.8-2.8h1.3l0.8,2.7
		c0.2,0.7,0.4,1.4,0.5,2l0,0c0.1-0.7,0.2-1.3,0.4-2l0.7-2.7h1.5l-1.9,6.1h-1.4l-0.7-2.5c-0.2-0.6-0.3-1.2-0.5-2l0,0
		c-0.1,0.8-0.3,1.4-0.5,2l-0.8,2.5h-1.4l-1.8-6.1C212,61.2,213.5,61.2,213.5,61.2z"/>
	<path class="st0" d="M225.3,67.3l-0.1-0.7l0,0c-0.4,0.5-1,0.8-1.8,0.8c-1.2,0-1.9-0.9-1.9-1.8c0-1.5,1.4-2.3,3.6-2.3v-0.1
		c0-0.4-0.2-1.1-1.2-1.1c-0.6,0-1.2,0.2-1.6,0.5l-0.3-1c0.5-0.3,1.2-0.5,2.2-0.5c2,0,2.5,1.2,2.5,2.6v2.2c0,0.6,0,1.1,0.1,1.5h-1.5
		V67.3z M225.1,64.4c-1.1,0-2.1,0.2-2.1,1.1c0,0.6,0.4,0.9,0.9,0.9c0.6,0,1.1-0.4,1.2-0.8c0-0.1,0-0.2,0-0.3L225.1,64.4L225.1,64.4z
		"/>
	<path class="st0" d="M228.2,63.2c0-0.8,0-1.4-0.1-2h1.3v1.2h0.1c0.3-0.9,1-1.3,1.7-1.3c0.2,0,0.2,0,0.4,0v1.5
		c-0.1,0-0.3-0.1-0.5-0.1c-0.7,0-1.2,0.5-1.4,1.2c0,0.1,0,0.3,0,0.5v3.2h-1.5V63.2z"/>
	<path class="st0" d="M238.2,58.4v7.2c0,0.6,0,1.3,0.1,1.7h-1.4l-0.1-1l0,0c-0.4,0.7-1.1,1.1-2,1.1c-1.5,0-2.6-1.2-2.6-3.1
		c0-2,1.3-3.3,2.7-3.3c0.8,0,1.4,0.4,1.7,0.8l0,0v-3.5h1.6V58.4z M236.7,63.8c0-0.1,0-0.3,0-0.4c-0.1-0.6-0.6-1.1-1.3-1.1
		c-1,0-1.5,0.9-1.5,2c0,1.1,0.6,1.9,1.5,1.9c0.6,0,1.2-0.4,1.3-1.1c0-0.1,0-0.3,0-0.5V63.8z"/>
</g>
<path class="st5" d="M110.7,20.6l18.9-7.5c0,0,2.8-1.6,7.8,6.9c4.9,8.5,8.3,13.4,8.3,13.4s3.9,5.5,7.1,4.3
	c3.1-1.1-19.4,7.7-19.4,7.7s-3.4,0.9-7.1-6.4c-3.7-7.3-5.8-10.4-7.1-12.2C117.9,25.1,114.5,19.4,110.7,20.6"/>
<g class="st6">
	<g>
		<rect x="126.2" y="35.1" class="st7" width="8.7" height="10.4"/>
		<path class="st8" d="M126.2,38.9C126.2,38.9,126.2,39,126.2,38.9c3.1,6.1,6,6.6,6.9,6.5L135,35C134.1,38.4,129,38.8,126.2,38.9"/>
	</g>
</g>
<path class="st9" d="M133.2,31.2l-2.9,20.2c0,0,0,3.2-9.9,3.3c-9.8,0-15.7,0.5-15.7,0.5s-6.7,0.7-7.3,4c-0.6,3.3,3-20.7,3-20.7
	s0.9-3.4,9.1-3c8.1,0.5,11.9,0.2,14.1,0C125.7,35.2,132.3,35,133.2,31.2"/>
<g class="st6">
	<g>
		<rect x="103.6" y="35.4" class="st7" width="12.4" height="9.7"/>
		<path class="st8" d="M115.5,45.1c-2.5-2.2-0.6-6.8,0.5-9.4c-1.8,0-4-0.1-6.6-0.2c-2.6-0.1-4.5,0.1-5.9,0.5L115.5,45.1z"/>
	</g>
</g>
<path class="st8" d="M112.7,45.9L96.5,33.6c0,0-2.8-1.6,1.9-10.2c4.8-8.6,7.2-14,7.2-14s2.6-6.2,0.1-8.3
	c-2.6-2.1,16.6,12.7,16.6,12.7s2.5,2.5-1.8,9.4c-4.4,6.9-5.9,10.3-6.8,12.3C112.9,37.4,109.8,43.3,112.7,45.9"/>
<g class="st6">
	<g>
		<rect x="110.7" y="20" class="st7" width="11.5" height="8.3"/>
		<path class="st9" d="M122.2,20l-11.5,4.6c2.6-0.8,5,1.6,6.7,3.7c0.8-1.5,1.9-3.2,3.2-5.2C121.3,21.9,121.8,20.9,122.2,20"/>
	</g>
</g>
<path class="st5" d="M119.2,26.9c0.8,1.1,2,2.8,3.6,5.7c3.7-5.3,8.7-9.7,15.2-11.5c-0.2-0.4-0.4-0.7-0.7-1.1
	c-4.9-8.5-7.8-6.9-7.8-6.9l-18.9,7.5C114.5,19.4,117.9,25.1,119.2,26.9"/>
</svg>
