<?xml version="1.0" encoding="utf-8"?>
<!-- Generator: Adobe Illustrator 24.1.1, SVG Export Plug-In . SVG Version: 6.00 Build 0)  -->
<svg version="1.1" id="Layer_1" xmlns="http://www.w3.org/2000/svg" xmlns:xlink="http://www.w3.org/1999/xlink" x="0px" y="0px"
	 width="301.1px" height="283.5px" viewBox="0 0 301.1 283.5" style="enable-background:new 0 0 301.1 283.5;" xml:space="preserve"
	>
<style type="text/css">
	.st0{fill:url(#SVGID_1_);}
	.st1{fill:url(#SVGID_2_);}
	.st2{fill:#007B7F;}
</style>
<g>
	<g>
		<g>
			<linearGradient id="SVGID_1_" gradientUnits="userSpaceOnUse" x1="114.1476" y1="135.6212" x2="191.9386" y2="60.3395">
				<stop  offset="0" style="stop-color:#FFEC00"/>
				<stop  offset="1" style="stop-color:#007375"/>
			</linearGradient>
			<path class="st0" d="M261.4,33.2c0-18.3-14.9-33.2-33.2-33.2c-17,0-31,12.8-33,29.3c-12.5-6.2-26.9-9.6-42.1-9.6
				c-22.9,0-43.7,7.8-59.3,20.7l14.4,14.4C120,45,135.8,39,153.1,39c36.3,0,65.8,26.3,65.8,58.7c0,17.9-8.9,33.9-23,44.6l14.4,14.5
				c18.5-14.3,30.2-35.5,30.2-59.1c0-11.3-2.7-22-7.5-31.7C249.1,63.7,261.4,49.9,261.4,33.2z"/>
			<linearGradient id="SVGID_2_" gradientUnits="userSpaceOnUse" x1="113.4737" y1="134.9257" x2="191.2657" y2="59.6432">
				<stop  offset="0" style="stop-color:#FFEC00"/>
				<stop  offset="1" style="stop-color:#007375"/>
			</linearGradient>
			<path class="st1" d="M153.1,156.5c-15.1,0-29-4.5-40.1-12.2c1,0.2,2.2,0.4,3.3,0.4c7.7,0,13.9-6.3,13.9-13.9
				c0-7.7-6.3-14-13.9-14c-7.7,0-14,6.3-14,14c0,2,0.4,3.9,1.2,5.6C93.4,126,87.3,112.5,87.3,97.7c0-14.5,5.9-27.8,15.7-38.1
				L88.5,45.1C74.3,59,65.7,77.5,65.7,97.7c0,43.1,39.1,78.1,87.4,78.1c19.1,0,36.8-5.5,51.2-14.8l-14.5-14.5
				C179.3,152.8,166.7,156.5,153.1,156.5z"/>
		</g>
	</g>
	<path class="st2" d="M21.3,212.6h-9.4c-0.6,0-1,0.1-1.2,0.4c-0.2,0.2-0.4,0.6-0.3,1.2v2.4c0,0.6,0.1,1,0.3,1.2
		c0.2,0.2,0.6,0.3,1.2,0.3h4.7v1.4c0,0.7-0.2,1.2-0.6,1.7c-0.4,0.5-1,0.9-1.7,1.2c-0.8,0.3-1.7,0.5-2.8,0.5c-1.7,0-3-0.4-3.8-1.1
		c-0.9-0.8-1.3-2-1.3-3.5v-7.9c0-1.5,0.5-2.7,1.3-3.5c0.9-0.8,2.1-1.2,3.8-1.2c1.3,0,2.3,0.2,3.1,0.7c0.8,0.5,1.4,1.2,1.7,2.1
		c0.1,0.4,0.3,0.6,0.5,0.8c0.2,0.2,0.4,0.3,0.6,0.3c0.2,0,0.5,0,0.9-0.1l3-1.1c0.6-0.2,0.9-0.4,1.1-0.7c0.1-0.3,0.1-0.7-0.1-1.2
		c-0.8-2.1-2-3.7-3.8-4.8c-1.8-1.1-4.1-1.7-7-1.7c-2.5,0-4.5,0.4-6.2,1.3c-1.7,0.8-3,2-3.8,3.6c-0.9,1.5-1.4,3.4-1.4,5.5v7.8
		c0,2.2,0.5,4,1.4,5.6c0.9,1.5,2.2,2.7,3.8,3.6c1.7,0.9,3.8,1.3,6.2,1.3c1.8,0,3.5-0.2,4.9-0.7c1.4-0.5,2.6-1.1,3.6-1.9
		c1-0.9,1.7-1.8,2.2-2.9c0.5-1.1,0.7-2.3,0.7-3.7v-5.3c0-0.6-0.1-1-0.4-1.2C22.3,212.7,21.9,212.6,21.3,212.6L21.3,212.6z
		 M34.3,226.7V201c0-0.5-0.1-0.9-0.3-1.1c-0.2-0.2-0.6-0.3-1.1-0.3h-3c-0.5,0-0.9,0.1-1.1,0.3c-0.2,0.2-0.3,0.6-0.3,1.1v25.7
		c0,0.6,0.1,0.9,0.3,1.1c0.2,0.2,0.6,0.3,1.1,0.3h3c0.6,0,0.9-0.1,1.1-0.3C34.1,227.6,34.3,227.3,34.3,226.7L34.3,226.7z
		 M39.7,215.6v5c0,1.7,0.4,3.1,1,4.3c0.7,1.2,1.7,2.1,3.1,2.8c1.4,0.7,3.1,1,5.1,1c2,0,3.7-0.3,5.1-1c1.4-0.6,2.4-1.6,3.1-2.8
		c0.7-1.2,1-2.7,1-4.3v-5c0-1.7-0.4-3.1-1-4.4c-0.7-1.2-1.7-2.1-3.1-2.8c-1.4-0.7-3.1-1-5.1-1c-2,0-3.7,0.3-5.1,1
		c-1.4,0.6-2.4,1.6-3.1,2.8C40,212.5,39.7,213.9,39.7,215.6L39.7,215.6z M52.3,215.5v5.1c0,0.9-0.3,1.6-0.9,2.1
		c-0.6,0.5-1.4,0.7-2.6,0.7c-1.1,0-2-0.2-2.5-0.7c-0.6-0.5-0.9-1.2-0.9-2.1v-5.1c0-1,0.3-1.7,0.9-2.2c0.6-0.5,1.4-0.7,2.5-0.7
		c1.1,0,2,0.2,2.6,0.7C52,213.9,52.3,214.6,52.3,215.5L52.3,215.5z M67.9,199.5h-3c-0.5,0-0.9,0.1-1.1,0.3c-0.2,0.2-0.3,0.6-0.3,1.1
		v24.3c0,0.4,0,0.7,0.1,1c0.1,0.2,0.2,0.4,0.4,0.6c0.2,0.2,0.5,0.4,0.9,0.6c0.5,0.2,1.1,0.4,1.8,0.6c0.7,0.2,1.6,0.4,2.5,0.5
		c1,0.1,2,0.2,3.1,0.2c3.1,0,5.3-0.7,6.8-2.2c1.5-1.4,2.3-3.5,2.2-6.3v-4.8c0-1.7-0.3-3.1-0.9-4.3c-0.6-1.2-1.5-2.1-2.8-2.7
		c-1.2-0.6-2.8-0.9-4.7-0.9c-0.7,0-1.3,0-1.9,0.1c-0.6,0.1-1.2,0.1-1.7,0.3V201c0-0.5-0.1-0.9-0.3-1.1
		C68.8,199.6,68.5,199.5,67.9,199.5L67.9,199.5z M75.4,215.5v4.8c0,1.1-0.3,1.9-0.9,2.4c-0.6,0.5-1.5,0.8-2.7,0.8
		c-0.4,0-0.9,0-1.3-0.1c-0.4,0-0.8-0.1-1.2-0.2c0,0-0.1,0-0.1-0.1c0,0,0-0.1,0-0.1v-9.9c0.4-0.1,0.8-0.2,1.3-0.3
		c0.5-0.1,1-0.1,1.6-0.1c1,0,1.8,0.2,2.4,0.7C75.2,213.9,75.4,214.6,75.4,215.5L75.4,215.5z M86.5,211.5c-0.2,0.5-0.3,1-0.2,1.3
		c0.1,0.3,0.5,0.6,1,0.8l2.1,0.9c0.3,0.1,0.6,0.2,0.8,0.2c0.2,0,0.4-0.1,0.6-0.2c0.1-0.1,0.4-0.4,0.5-0.6c0.4-0.5,0.8-0.8,1.3-1.1
		c0.5-0.2,1.2-0.4,1.9-0.4c1.1,0,1.8,0.2,2.3,0.7c0.5,0.5,0.7,1.2,0.7,2.1v0.9c-0.2,0-0.5,0-0.7,0c-0.3,0-0.6,0-1,0
		c-0.4,0-0.7,0-1,0c-1.6,0-3,0.1-4.1,0.3c-1.1,0.2-2.1,0.6-2.8,1c-0.7,0.5-1.2,1.1-1.6,2c-0.4,0.8-0.5,1.8-0.5,3.1
		c0,1,0.1,1.9,0.4,2.7c0.2,0.8,0.7,1.5,1.4,2c0.6,0.5,1.6,1,2.7,1.2c1.1,0.3,2.6,0.4,4.4,0.4c1.7,0,3.1-0.1,4.3-0.3
		c1.2-0.2,2.2-0.4,3-0.7c0.4-0.1,0.7-0.3,0.9-0.5c0.2-0.2,0.4-0.4,0.4-0.7c0.1-0.2,0.1-0.6,0.1-1.1v-9.9c0-1.2-0.1-2.3-0.4-3.3
		c-0.3-1-0.7-1.9-1.4-2.6c-0.7-0.7-1.5-1.3-2.7-1.7c-1.1-0.4-2.5-0.6-4.1-0.6c-2.1,0-3.8,0.4-5.2,1
		C88.2,209.2,87.2,210.2,86.5,211.5L86.5,211.5z M97.6,220.5v3.3c0,0.1,0,0.1-0.1,0.2c0,0-0.1,0.1-0.2,0.1c-0.2,0.1-0.6,0.1-1.1,0.1
		c-0.5,0-1.1,0-1.9,0c-0.7,0-1.3-0.1-1.6-0.2c-0.4-0.1-0.6-0.4-0.8-0.7c-0.1-0.3-0.2-0.6-0.2-1c0-0.4,0-0.6,0.2-0.9
		c0.1-0.3,0.4-0.5,0.8-0.7c0.4-0.1,0.9-0.3,1.7-0.3c0.4,0,0.7,0,1.1,0c0.4,0,0.8,0,1.2,0C97,220.5,97.3,220.5,97.6,220.5L97.6,220.5
		z M115,226.7V201c0-0.5-0.1-0.9-0.3-1.1c-0.2-0.2-0.6-0.3-1.1-0.3h-3c-0.5,0-0.9,0.1-1.1,0.3c-0.2,0.2-0.3,0.6-0.3,1.1v25.7
		c0,0.6,0.1,0.9,0.3,1.1c0.2,0.2,0.6,0.3,1.1,0.3h3c0.5,0,0.9-0.1,1.1-0.3C114.9,227.6,115,227.3,115,226.7L115,226.7z M162.4,200.7
		h-2.7c-0.4,0-0.7,0-1,0.1c-0.2,0.1-0.4,0.2-0.6,0.4c-0.1,0.2-0.3,0.4-0.5,0.7l-7.1,13.1l-7.1-13.1c-0.2-0.3-0.4-0.5-0.5-0.7
		c-0.2-0.2-0.4-0.3-0.6-0.4c-0.3-0.1-0.6-0.1-1-0.1h-2.5c-0.6,0-1,0.1-1.2,0.4c-0.2,0.2-0.4,0.6-0.4,1.2v24.4c0,0.6,0.1,1,0.4,1.2
		c0.2,0.2,0.6,0.4,1.2,0.4h2.8c0.6,0,1-0.1,1.2-0.4c0.2-0.2,0.4-0.6,0.4-1.2v-8.7c0-0.6,0-1.3,0-1.9c0-0.6-0.1-1.3-0.2-2
		c-0.1-0.7-0.2-1.4-0.4-2.2c-0.2-0.8-0.4-1.7-0.6-2.7h0.4c0.4,1.4,0.8,2.7,1.3,3.9c0.4,1.2,1,2.3,1.6,3.3l2.8,4.9
		c0.1,0.3,0.3,0.5,0.5,0.7c0.1,0.2,0.3,0.3,0.5,0.4c0.2,0.1,0.5,0.1,0.8,0.1h1.8c0.3,0,0.6-0.1,0.8-0.1c0.2-0.1,0.4-0.2,0.5-0.4
		c0.1-0.1,0.3-0.4,0.4-0.6l2.7-4.9c0.6-1.1,1.1-2.2,1.7-3.4c0.5-1.2,1-2.5,1.4-3.8h0.4c-0.3,1.3-0.6,2.4-0.7,3.5
		c-0.2,1-0.3,2-0.4,2.8c-0.1,0.9-0.1,1.7-0.1,2.5v8.8c0,0.6,0.1,1,0.4,1.2c0.2,0.2,0.6,0.4,1.2,0.4h2.9c0.6,0,1-0.1,1.2-0.4
		c0.2-0.2,0.4-0.6,0.4-1.2v-24.4c0-0.6-0.1-1-0.4-1.2C163.5,200.8,163,200.7,162.4,200.7L162.4,200.7z M170.2,211.5
		c-0.3,0.5-0.3,1-0.2,1.3c0.1,0.3,0.5,0.6,1,0.8l2.1,0.9c0.4,0.1,0.6,0.2,0.9,0.2c0.2,0,0.4-0.1,0.6-0.2c0.2-0.1,0.4-0.4,0.6-0.6
		c0.4-0.5,0.7-0.8,1.3-1.1c0.5-0.2,1.2-0.4,1.9-0.4c1.1,0,1.8,0.2,2.3,0.7c0.5,0.5,0.7,1.2,0.7,2.1v0.9c-0.2,0-0.5,0-0.7,0
		c-0.3,0-0.6,0-1,0c-0.4,0-0.7,0-1,0c-1.6,0-3,0.1-4.1,0.3c-1.1,0.2-2.1,0.6-2.8,1c-0.7,0.5-1.2,1.1-1.6,2c-0.4,0.8-0.5,1.8-0.5,3.1
		c0,1,0.1,1.9,0.4,2.7c0.3,0.8,0.7,1.5,1.4,2c0.6,0.5,1.6,1,2.7,1.2c1.1,0.3,2.6,0.4,4.3,0.4c1.7,0,3.1-0.1,4.4-0.3
		c1.2-0.2,2.2-0.4,3-0.7c0.4-0.1,0.7-0.3,0.9-0.5c0.2-0.2,0.4-0.4,0.5-0.7c0.1-0.2,0.1-0.6,0.1-1.1v-9.9c0-1.2-0.1-2.3-0.4-3.3
		c-0.3-1-0.7-1.9-1.4-2.6c-0.7-0.7-1.6-1.3-2.7-1.7c-1.1-0.4-2.5-0.6-4.1-0.6c-2.1,0-3.8,0.4-5.2,1
		C171.9,209.2,170.9,210.2,170.2,211.5L170.2,211.5z M181.3,220.5v3.3c0,0.1,0,0.1-0.1,0.2c-0.1,0-0.1,0.1-0.2,0.1
		c-0.2,0.1-0.6,0.1-1.1,0.1c-0.5,0-1.1,0-2,0c-0.7,0-1.2-0.1-1.6-0.2c-0.4-0.1-0.6-0.4-0.7-0.7c-0.1-0.3-0.2-0.6-0.2-1
		c0-0.4,0-0.6,0.2-0.9c0.1-0.3,0.4-0.5,0.8-0.7c0.4-0.1,0.9-0.3,1.7-0.3c0.4,0,0.7,0,1.1,0c0.4,0,0.8,0,1.2,0
		C180.7,220.5,181,220.5,181.3,220.5L181.3,220.5z M199,203.4h-3c-0.5,0-0.9,0.1-1.1,0.3c-0.2,0.2-0.3,0.6-0.3,1.1v3.2h-2.1
		c-0.5,0-0.9,0.1-1.1,0.3c-0.2,0.2-0.3,0.6-0.3,1.1v2.3c0,0.5,0.1,0.9,0.3,1.1c0.2,0.2,0.6,0.3,1.1,0.3h2.1v6.7
		c0,1.7,0.2,3.1,0.5,4.3c0.4,1.1,0.9,2.1,1.7,2.7c0.8,0.7,1.7,1.1,2.9,1.4c1.2,0.3,2.6,0.4,4.3,0.3c0.4,0,0.6-0.1,0.9-0.1
		c0.2-0.1,0.4-0.2,0.5-0.5c0.1-0.2,0.1-0.5,0.1-0.9v-2.5c0-0.6-0.1-0.9-0.3-1.1c-0.2-0.2-0.6-0.3-1.1-0.3c-0.6,0-1.2,0-1.6-0.1
		c-0.5-0.1-0.8-0.3-1.1-0.5c-0.3-0.2-0.5-0.6-0.6-1.1c-0.1-0.5-0.2-1.1-0.2-1.8v-6.5h3.6c0.5,0,0.9-0.1,1.1-0.3
		c0.2-0.2,0.3-0.6,0.3-1.1v-2.3c0-0.5-0.1-0.9-0.3-1.1c-0.2-0.2-0.6-0.3-1.1-0.3h-3.6v-3.2c0-0.5-0.1-0.9-0.3-1.1
		C199.8,203.5,199.5,203.4,199,203.4L199,203.4z M209.6,216v4.1c0,1.2,0.2,2.3,0.5,3.4c0.4,1,0.9,2,1.6,2.7c0.7,0.8,1.7,1.4,2.9,1.8
		c1.2,0.4,2.6,0.6,4.2,0.6c2.2,0,4-0.3,5.4-0.9c1.4-0.6,2.5-1.5,3.1-2.7c0.3-0.5,0.4-1,0.4-1.3c-0.1-0.4-0.4-0.7-1-1l-1.9-1
		c-0.4-0.2-0.7-0.3-1-0.3c-0.2,0-0.5,0-0.7,0.2c-0.2,0.1-0.4,0.4-0.6,0.7c-0.4,0.5-0.8,0.8-1.4,1.1c-0.6,0.3-1.4,0.4-2.3,0.4
		c-1.1,0-1.9-0.2-2.6-0.7c-0.6-0.5-0.9-1.3-0.9-2.3v-1h10.8c0.7,0,1.2-0.2,1.6-0.5c0.3-0.4,0.5-0.8,0.4-1.4v-2.4
		c0-1.1-0.2-2.2-0.5-3.1c-0.4-1-1-1.9-1.7-2.6c-0.8-0.8-1.7-1.4-2.9-1.8c-1.2-0.4-2.6-0.6-4.2-0.6c-2,0-3.7,0.3-5.1,1
		c-1.4,0.7-2.4,1.6-3.1,2.9C209.9,212.6,209.6,214.2,209.6,216L209.6,216z M222.3,215.1v0.6h-6.9v-0.6c0-1,0.3-1.7,0.9-2.2
		c0.6-0.5,1.5-0.8,2.6-0.8c1.1,0,2,0.3,2.6,0.8C222,213.4,222.3,214.1,222.3,215.1L222.3,215.1z M242.2,207.5
		c-1.8,0.1-3.3,0.2-4.5,0.4c-1.2,0.2-2.2,0.5-3,0.7c-0.4,0.2-0.7,0.4-1,0.5c-0.2,0.2-0.4,0.4-0.5,0.7c-0.1,0.3-0.1,0.6-0.1,1.1v15.8
		c0,0.6,0.1,0.9,0.3,1.1c0.2,0.2,0.6,0.3,1.1,0.3h3c0.5,0,0.9-0.1,1.1-0.3c0.2-0.2,0.3-0.6,0.3-1.1v-13.5c0-0.1,0-0.1,0-0.2
		c0,0,0.1-0.1,0.2-0.1c0.4-0.1,0.9-0.2,1.3-0.2c0.4,0,0.9,0,1.5,0h1.4c0.5,0,0.9-0.1,1.1-0.3c0.2-0.2,0.3-0.6,0.3-1.1v-2.4
		c0-0.5-0.1-0.9-0.3-1.1c-0.2-0.2-0.6-0.3-1.1-0.3H242.2z M250.7,208.8c-0.4,0.1-0.7,0.3-1,0.5c-0.2,0.2-0.4,0.4-0.5,0.7
		c-0.1,0.2-0.1,0.6-0.1,1v15.6c0,0.6,0.1,0.9,0.3,1.1c0.2,0.2,0.6,0.3,1.1,0.3h3c0.5,0,0.9-0.1,1.1-0.3c0.2-0.2,0.3-0.6,0.3-1.1
		v-13.4c0,0,0-0.1,0-0.1c0,0,0.1,0,0.1,0c0.4-0.1,0.8-0.2,1.3-0.3c0.4-0.1,0.9-0.1,1.4-0.1c1.1,0,2,0.2,2.5,0.7
		c0.5,0.5,0.8,1.2,0.8,2.2v11.1c0,0.6,0.1,0.9,0.3,1.1c0.2,0.2,0.6,0.3,1.1,0.3h3c0.5,0,0.9-0.1,1.1-0.3c0.2-0.2,0.3-0.6,0.3-1.1
		v-11.2c0-1.7-0.3-3.1-0.9-4.3c-0.6-1.2-1.5-2.1-2.7-2.7c-1.2-0.6-2.8-0.9-4.7-0.9c-1.3,0-2.4,0.1-3.4,0.2c-1,0.1-1.9,0.3-2.6,0.5
		C251.9,208.4,251.3,208.6,250.7,208.8L250.7,208.8z M272.6,211.5c-0.3,0.5-0.3,1-0.2,1.3c0.1,0.3,0.5,0.6,1,0.8l2.1,0.9
		c0.4,0.1,0.6,0.2,0.9,0.2c0.2,0,0.4-0.1,0.6-0.2c0.2-0.1,0.4-0.4,0.6-0.6c0.3-0.5,0.7-0.8,1.3-1.1c0.5-0.2,1.2-0.4,1.9-0.4
		c1.1,0,1.8,0.2,2.3,0.7c0.5,0.5,0.7,1.2,0.7,2.1v0.9c-0.2,0-0.5,0-0.7,0c-0.3,0-0.6,0-1,0c-0.3,0-0.7,0-1,0c-1.6,0-3,0.1-4.1,0.3
		c-1.1,0.2-2.1,0.6-2.8,1c-0.7,0.5-1.3,1.1-1.6,2c-0.4,0.8-0.5,1.8-0.5,3.1c0,1,0.1,1.9,0.4,2.7c0.3,0.8,0.7,1.5,1.4,2
		c0.6,0.5,1.5,1,2.7,1.2c1.1,0.3,2.6,0.4,4.3,0.4c1.7,0,3.1-0.1,4.4-0.3c1.2-0.2,2.2-0.4,3-0.7c0.4-0.1,0.7-0.3,0.9-0.5
		c0.2-0.2,0.4-0.4,0.5-0.7c0.1-0.2,0.1-0.6,0.1-1.1v-9.9c0-1.2-0.1-2.3-0.4-3.3c-0.3-1-0.8-1.9-1.4-2.6c-0.7-0.7-1.6-1.3-2.7-1.7
		c-1.1-0.4-2.5-0.6-4.1-0.6c-2.1,0-3.8,0.4-5.2,1C274.3,209.2,273.3,210.2,272.6,211.5L272.6,211.5z M283.7,220.5v3.3
		c0,0.1,0,0.1-0.1,0.2c-0.1,0-0.1,0.1-0.2,0.1c-0.2,0.1-0.6,0.1-1.1,0.1c-0.5,0-1.1,0-2,0c-0.7,0-1.2-0.1-1.6-0.2
		c-0.4-0.1-0.6-0.4-0.7-0.7c-0.1-0.3-0.2-0.6-0.2-1c0-0.4,0.1-0.6,0.2-0.9c0.1-0.3,0.4-0.5,0.8-0.7c0.4-0.1,0.9-0.3,1.7-0.3
		c0.3,0,0.7,0,1.1,0c0.4,0,0.8,0,1.2,0C283.1,220.5,283.4,220.5,283.7,220.5L283.7,220.5z M301.1,226.7V201c0-0.5-0.1-0.9-0.3-1.1
		c-0.2-0.2-0.6-0.3-1.1-0.3h-3c-0.5,0-0.9,0.1-1.1,0.3c-0.2,0.2-0.3,0.6-0.3,1.1v25.7c0,0.6,0.1,0.9,0.3,1.1
		c0.2,0.2,0.6,0.3,1.1,0.3h3c0.5,0,0.9-0.1,1.1-0.3C301,227.6,301.1,227.3,301.1,226.7L301.1,226.7z M23.9,255.2
		c0,1.4,0.2,2.6,0.7,3.6c0.4,1,1,1.7,1.8,2.3c0.7,0.6,1.6,1.1,2.5,1.4c0.9,0.3,1.9,0.6,2.9,0.7c1,0.2,2,0.3,2.9,0.4
		c0.7,0.1,1.4,0.2,2,0.3c0.6,0.1,1.2,0.3,1.7,0.5c0.5,0.2,0.9,0.5,1.1,0.8c0.2,0.3,0.4,0.7,0.4,1.2c0,1.1-0.4,1.8-1.3,2.3
		c-0.9,0.5-2.2,0.7-3.8,0.7c-1.2,0-2.3-0.2-3.1-0.7c-0.9-0.5-1.5-1.1-1.9-2c-0.1-0.4-0.3-0.7-0.5-0.9c-0.2-0.2-0.4-0.3-0.6-0.3
		c-0.2,0-0.5,0-0.9,0.2l-2.8,1c-0.5,0.2-0.9,0.4-1,0.7c-0.2,0.3-0.1,0.7,0,1.3c0.5,1.4,1.2,2.5,2.1,3.5c1,0.9,2.1,1.6,3.6,2.1
		c1.5,0.5,3.2,0.7,5.2,0.7c1.8,0,3.4-0.2,4.8-0.6c1.4-0.4,2.6-1,3.6-1.8c1-0.8,1.8-1.7,2.3-2.8c0.5-1.1,0.8-2.3,0.8-3.6
		c0-1.4-0.2-2.5-0.6-3.5c-0.4-0.9-1-1.7-1.6-2.3c-0.7-0.6-1.5-1.1-2.3-1.5c-0.9-0.4-1.7-0.6-2.7-0.9c-0.9-0.2-1.8-0.3-2.8-0.4
		c-0.8-0.1-1.5-0.2-2.2-0.3c-0.7-0.1-1.3-0.3-1.8-0.5c-0.5-0.2-0.9-0.5-1.2-0.8c-0.3-0.3-0.5-0.7-0.5-1.2c0-0.9,0.4-1.6,1.1-2.1
		c0.7-0.4,1.9-0.6,3.4-0.6c0.8,0,1.5,0.1,2.1,0.3c0.6,0.2,1.1,0.5,1.5,0.9c0.4,0.4,0.7,0.9,1,1.4c0.2,0.4,0.4,0.6,0.5,0.8
		c0.2,0.2,0.4,0.2,0.6,0.2c0.2,0,0.5-0.1,0.8-0.2l3-1.3c0.5-0.2,0.9-0.5,1-0.8c0.1-0.3,0.1-0.7-0.2-1.3c-0.6-1.2-1.3-2.3-2.2-3.1
		c-0.9-0.9-2-1.5-3.3-1.9c-1.3-0.4-2.9-0.6-4.8-0.6c-1.8,0-3.4,0.2-4.8,0.7c-1.4,0.4-2.5,1-3.4,1.8c-0.9,0.8-1.6,1.7-2.1,2.7
		C24.1,252.8,23.9,253.9,23.9,255.2L23.9,255.2z M50.6,262.5v4.1c0,1.2,0.2,2.3,0.5,3.4c0.4,1,0.9,1.9,1.6,2.7
		c0.7,0.8,1.7,1.4,2.8,1.8c1.2,0.4,2.6,0.6,4.3,0.7c2.2,0,4-0.4,5.4-1c1.4-0.6,2.4-1.5,3.1-2.7c0.3-0.5,0.4-1,0.3-1.3
		c-0.1-0.4-0.4-0.7-0.9-1l-1.9-1c-0.4-0.2-0.7-0.3-0.9-0.3c-0.2,0-0.5,0-0.7,0.2c-0.2,0.1-0.4,0.4-0.6,0.6c-0.3,0.5-0.8,0.9-1.4,1.1
		c-0.6,0.2-1.4,0.4-2.2,0.4c-1.1,0-2-0.3-2.6-0.7c-0.6-0.5-0.9-1.3-0.9-2.3v-1h10.8c0.7,0,1.2-0.2,1.6-0.5c0.3-0.3,0.4-0.8,0.4-1.4
		v-2.3c0-1.1-0.2-2.2-0.6-3.2c-0.4-1-0.9-1.9-1.7-2.6c-0.8-0.7-1.7-1.4-2.9-1.8c-1.2-0.4-2.6-0.6-4.2-0.6c-2,0-3.7,0.4-5.1,1
		c-1.4,0.6-2.4,1.6-3.1,2.9C51,259,50.6,260.6,50.6,262.5L50.6,262.5z M63.4,261.5v0.6h-6.9v-0.6c0-1,0.3-1.7,0.9-2.2
		c0.6-0.5,1.4-0.7,2.6-0.7c1.1,0,2,0.2,2.6,0.7C63.1,259.8,63.4,260.5,63.4,261.5L63.4,261.5z M75.9,255.1c-0.4,0.1-0.7,0.3-1,0.5
		c-0.2,0.2-0.4,0.4-0.5,0.7c-0.1,0.2-0.1,0.6-0.1,1v24.3c0,0.5,0.1,0.9,0.3,1.1c0.2,0.2,0.6,0.3,1.1,0.3h3c0.5,0,0.9-0.1,1.1-0.3
		c0.2-0.2,0.3-0.6,0.3-1.1v-6.8c0.5,0.1,1,0.2,1.5,0.2c0.5,0,1,0.1,1.6,0.1c3,0,5.2-0.7,6.7-2.2c1.5-1.4,2.2-3.5,2.2-6.3v-4.9
		c0-1.7-0.3-3.1-0.9-4.3c-0.6-1.2-1.6-2.1-2.8-2.7c-1.2-0.6-2.8-1-4.7-1c-1.3,0-2.4,0.1-3.4,0.2c-1,0.1-1.8,0.3-2.6,0.4
		C77,254.7,76.4,254.9,75.9,255.1L75.9,255.1z M86.3,261.9v4.8c0,1.1-0.3,1.9-0.9,2.4c-0.6,0.5-1.5,0.8-2.6,0.8
		c-0.5,0-0.9,0-1.4-0.1c-0.4-0.1-0.9-0.1-1.2-0.2v-10.1c0,0,0-0.1,0-0.1c0-0.1,0.1-0.1,0.1-0.1c0.4-0.1,0.8-0.1,1.2-0.2
		c0.5,0,0.9-0.1,1.5-0.1c1.1,0,1.8,0.3,2.4,0.7C86,260.3,86.2,261,86.3,261.9L86.3,261.9z"/>
	<path class="st2" d="M96.8,260.3c0,1.2,0.2,2.2,0.7,3c0.4,0.8,1,1.4,1.8,1.8c0.7,0.5,1.6,0.8,2.5,1c1,0.2,2,0.4,3,0.5
		c1,0.1,1.8,0.2,2.4,0.3c0.6,0.1,1,0.3,1.3,0.5c0.2,0.2,0.4,0.6,0.4,1c0,0.6-0.3,1-0.9,1.2c-0.5,0.2-1.4,0.4-2.5,0.4
		c-1,0-1.8-0.1-2.3-0.4c-0.5-0.2-1-0.6-1.2-1.1c-0.1-0.4-0.3-0.6-0.5-0.7c-0.2-0.1-0.4-0.2-0.6-0.2c-0.2,0-0.5,0.1-0.8,0.2l-2.4,0.8
		c-0.5,0.1-0.8,0.4-1,0.7c-0.1,0.3-0.1,0.7,0.1,1.2c0.6,1.5,1.6,2.6,3.1,3.4c1.5,0.8,3.4,1.2,5.8,1.2c1.9,0,3.5-0.3,4.8-0.9
		c1.3-0.6,2.3-1.4,2.9-2.3c0.7-1,1-2.2,1-3.5c0-1.1-0.2-2.1-0.5-2.8c-0.4-0.8-0.9-1.4-1.6-1.8c-0.7-0.5-1.6-0.9-2.6-1.1
		c-1-0.2-2.2-0.4-3.4-0.5c-0.9-0.1-1.6-0.2-2.2-0.3c-0.5-0.1-0.9-0.3-1.2-0.5c-0.2-0.2-0.4-0.5-0.4-0.9c0-0.3,0.1-0.6,0.3-0.8
		s0.5-0.4,0.9-0.5c0.4-0.1,1-0.1,1.7-0.1c0.6,0,1.2,0.1,1.6,0.2c0.4,0.1,0.8,0.3,1.1,0.5c0.3,0.2,0.5,0.5,0.7,0.7
		c0.2,0.3,0.4,0.5,0.6,0.7c0.1,0.1,0.4,0.2,0.6,0.2c0.2,0,0.5-0.1,0.9-0.2l2.3-1c0.5-0.2,0.9-0.5,1-0.8c0.1-0.3,0-0.7-0.2-1.2
		c-0.5-0.9-1.1-1.6-1.8-2.2c-0.7-0.6-1.7-1.1-2.8-1.4c-1.1-0.3-2.4-0.5-4-0.5c-1.8,0-3.4,0.3-4.6,0.9c-1.2,0.5-2.1,1.3-2.8,2.2
		C97.1,258,96.8,259.1,96.8,260.3L96.8,260.3z M122.7,246.8h-0.8c-0.7,0-1.2,0.1-1.6,0.2c-0.4,0.2-0.7,0.5-0.9,0.9
		c-0.2,0.4-0.2,1-0.2,1.6v0.4c0,0.7,0.1,1.2,0.2,1.6c0.2,0.4,0.5,0.7,0.9,0.9c0.4,0.2,1,0.3,1.6,0.2h0.8c0.7,0,1.2-0.1,1.6-0.2
		c0.4-0.1,0.7-0.4,0.9-0.9c0.2-0.4,0.2-0.9,0.2-1.6v-0.4c0-0.7-0.1-1.2-0.2-1.6c-0.2-0.4-0.4-0.7-0.9-0.9
		C123.9,246.8,123.3,246.8,122.7,246.8L122.7,246.8z M123.8,254.4h-3c-0.5,0-0.9,0.1-1.1,0.3c-0.2,0.2-0.3,0.6-0.3,1.1v17.2
		c0,0.5,0.1,0.9,0.3,1.1c0.2,0.2,0.6,0.3,1.1,0.3h3c0.5,0,0.9-0.1,1.1-0.3c0.2-0.2,0.3-0.6,0.3-1.1v-17.2c0-0.5-0.1-0.9-0.3-1.1
		C124.7,254.5,124.3,254.4,123.8,254.4L123.8,254.4z M130.5,260.3c0,1.2,0.2,2.2,0.6,3c0.5,0.8,1,1.4,1.8,1.8c0.7,0.5,1.6,0.8,2.6,1
		c0.9,0.2,1.9,0.4,3,0.5c1,0.1,1.8,0.2,2.4,0.3c0.6,0.1,1,0.3,1.3,0.5c0.2,0.2,0.4,0.6,0.4,1c0,0.6-0.3,1-0.9,1.2
		c-0.5,0.2-1.4,0.4-2.5,0.4c-1,0-1.8-0.1-2.3-0.4c-0.6-0.2-1-0.6-1.2-1.1c-0.1-0.4-0.3-0.6-0.5-0.7c-0.2-0.1-0.4-0.2-0.6-0.2
		c-0.2,0-0.5,0.1-0.9,0.2l-2.3,0.8c-0.5,0.1-0.9,0.4-1,0.7c-0.2,0.3-0.1,0.7,0.1,1.2c0.6,1.5,1.6,2.6,3.1,3.4
		c1.5,0.8,3.4,1.2,5.8,1.2c1.9,0,3.4-0.3,4.8-0.9c1.3-0.6,2.3-1.4,2.9-2.3c0.7-1,1-2.2,1-3.5c0-1.1-0.2-2.1-0.6-2.8
		c-0.4-0.8-0.9-1.4-1.6-1.8c-0.7-0.5-1.6-0.9-2.6-1.1c-1-0.2-2.2-0.4-3.5-0.5c-0.9-0.1-1.6-0.2-2.2-0.3c-0.6-0.1-1-0.3-1.2-0.5
		c-0.2-0.2-0.4-0.5-0.4-0.9c0-0.3,0.1-0.6,0.3-0.8c0.2-0.2,0.5-0.4,0.9-0.5c0.4-0.1,1-0.1,1.7-0.1c0.6,0,1.2,0.1,1.6,0.2
		c0.5,0.1,0.8,0.3,1.1,0.5c0.3,0.2,0.5,0.5,0.7,0.7c0.2,0.3,0.4,0.5,0.5,0.7c0.1,0.1,0.4,0.2,0.6,0.2c0.2,0,0.5-0.1,0.9-0.2l2.3-1
		c0.5-0.2,0.9-0.5,1-0.8c0.1-0.3,0.1-0.7-0.2-1.2c-0.5-0.9-1-1.6-1.8-2.2c-0.7-0.6-1.7-1.1-2.8-1.4c-1.1-0.3-2.5-0.5-4-0.5
		c-1.8,0-3.4,0.3-4.6,0.9c-1.2,0.5-2.2,1.3-2.8,2.2C130.7,258,130.5,259.1,130.5,260.3L130.5,260.3z M168.1,255.2
		c0,1.4,0.2,2.6,0.7,3.6c0.4,1,1,1.7,1.7,2.3c0.7,0.6,1.6,1.1,2.5,1.4c0.9,0.3,1.9,0.6,2.9,0.7c1,0.2,2,0.3,2.9,0.4
		c0.7,0.1,1.4,0.2,2,0.3c0.6,0.1,1.2,0.3,1.7,0.5c0.5,0.2,0.9,0.5,1.1,0.8c0.2,0.3,0.4,0.7,0.4,1.2c0,1.1-0.5,1.8-1.4,2.3
		c-0.9,0.5-2.1,0.7-3.8,0.7c-1.2,0-2.3-0.2-3.1-0.7c-0.8-0.5-1.5-1.1-1.9-2c-0.1-0.4-0.3-0.7-0.5-0.9c-0.2-0.2-0.4-0.3-0.6-0.3
		c-0.3,0-0.5,0-0.9,0.2l-2.8,1c-0.5,0.2-0.9,0.4-1.1,0.7c-0.1,0.3-0.1,0.7,0.1,1.3c0.5,1.4,1.2,2.5,2.1,3.5c0.9,0.9,2.1,1.6,3.6,2.1
		c1.5,0.5,3.2,0.7,5.2,0.7c1.8,0,3.4-0.2,4.8-0.6c1.4-0.4,2.6-1,3.6-1.8c1-0.8,1.7-1.7,2.3-2.8c0.5-1.1,0.8-2.3,0.8-3.6
		c0-1.4-0.2-2.5-0.6-3.5c-0.4-0.9-1-1.7-1.6-2.3c-0.7-0.6-1.5-1.1-2.3-1.5c-0.9-0.4-1.8-0.6-2.7-0.9c-0.9-0.2-1.8-0.3-2.8-0.4
		c-0.8-0.1-1.5-0.2-2.2-0.3c-0.7-0.1-1.3-0.3-1.9-0.5c-0.5-0.2-1-0.5-1.2-0.8c-0.3-0.3-0.5-0.7-0.5-1.2c0-0.9,0.4-1.6,1.1-2.1
		c0.7-0.4,1.9-0.6,3.5-0.6c0.8,0,1.5,0.1,2.1,0.3c0.6,0.2,1.1,0.5,1.5,0.9c0.4,0.4,0.7,0.9,1,1.4c0.2,0.4,0.4,0.6,0.6,0.8
		c0.2,0.2,0.4,0.2,0.6,0.2c0.2,0,0.5-0.1,0.9-0.2l3-1.3c0.5-0.2,0.9-0.5,1-0.8c0.1-0.3,0.1-0.7-0.2-1.3c-0.6-1.2-1.4-2.3-2.2-3.1
		c-0.9-0.9-2-1.5-3.3-1.9c-1.3-0.4-2.9-0.6-4.8-0.6c-1.8,0-3.4,0.2-4.8,0.7c-1.4,0.4-2.5,1-3.5,1.8c-0.9,0.8-1.6,1.7-2.1,2.7
		C168.3,252.8,168.1,253.9,168.1,255.2L168.1,255.2z M201.4,249.8h-3c-0.5,0-0.9,0.1-1.1,0.3c-0.2,0.2-0.3,0.6-0.3,1.1v3.2h-2
		c-0.5,0-0.9,0.1-1.1,0.3c-0.2,0.2-0.3,0.6-0.3,1.1v2.3c0,0.5,0.1,0.9,0.3,1.1c0.2,0.2,0.6,0.3,1.1,0.3h2v6.8c0,1.7,0.2,3.1,0.6,4.3
		c0.4,1.1,0.9,2,1.7,2.7c0.7,0.7,1.7,1.2,2.9,1.4c1.2,0.3,2.6,0.4,4.3,0.3c0.4,0,0.6,0,0.9-0.1c0.2-0.1,0.4-0.2,0.4-0.4
		c0.1-0.2,0.1-0.5,0.1-0.9v-2.4c0-0.6-0.1-1-0.3-1.2c-0.2-0.2-0.6-0.3-1.1-0.3c-0.6,0-1.2,0-1.7-0.1c-0.4-0.1-0.8-0.2-1.1-0.5
		c-0.3-0.3-0.5-0.6-0.6-1.1c-0.1-0.5-0.2-1.1-0.2-1.8v-6.5h3.6c0.5,0,0.9-0.1,1.1-0.3c0.2-0.2,0.3-0.6,0.3-1.1v-2.3
		c0-0.5-0.1-0.9-0.3-1.1c-0.2-0.2-0.6-0.3-1.1-0.3h-3.6v-3.2c0-0.5-0.1-0.9-0.3-1.1C202.3,249.9,201.9,249.8,201.4,249.8
		L201.4,249.8z M228.9,254.4h-3c-0.5,0-0.9,0.1-1.1,0.3c-0.2,0.2-0.3,0.6-0.3,1.1v13.3c0,0.1,0,0.2-0.1,0.3c0,0-0.1,0.1-0.2,0.1
		c-0.3,0.1-0.5,0.1-0.8,0.1c-0.2,0-0.5,0.1-0.8,0.1c-0.3,0-0.6,0-1,0c-1.1,0-1.9-0.2-2.5-0.7c-0.6-0.5-0.8-1.2-0.8-2.2v-11.1
		c0-0.5-0.1-0.9-0.3-1.1c-0.2-0.2-0.6-0.3-1.1-0.3h-3c-0.5,0-0.9,0.1-1.1,0.3c-0.2,0.2-0.3,0.6-0.3,1.1v11.2c0,1.7,0.3,3.2,0.9,4.3
		c0.6,1.2,1.5,2.1,2.7,2.7c1.2,0.6,2.8,0.9,4.7,1c1.3,0,2.4-0.1,3.4-0.2c1-0.1,1.9-0.3,2.6-0.5c0.7-0.2,1.4-0.4,1.9-0.7
		c0.4-0.1,0.7-0.3,0.9-0.5c0.2-0.2,0.4-0.4,0.5-0.7c0.1-0.2,0.1-0.6,0.1-1v-15.6c0-0.5-0.1-0.9-0.3-1.1
		C229.8,254.5,229.4,254.4,228.9,254.4L228.9,254.4z M235.7,262.3v4.9c0,1.7,0.3,3.2,0.9,4.3c0.6,1.2,1.6,2.1,2.8,2.7
		c1.3,0.6,2.9,0.9,4.9,1c1.2,0,2.3-0.1,3.3-0.2c0.9-0.1,1.8-0.3,2.5-0.5c0.7-0.2,1.3-0.4,1.8-0.6c0.4-0.2,0.7-0.4,1-0.5
		c0.3-0.2,0.4-0.4,0.5-0.6c0.1-0.3,0.1-0.6,0.1-1v-24.4c0-0.5-0.1-0.9-0.3-1.1c-0.2-0.2-0.6-0.3-1.1-0.3h-3c-0.5,0-0.9,0.1-1.1,0.3
		c-0.2,0.2-0.3,0.6-0.3,1.1v6.8c-0.5-0.1-1-0.1-1.6-0.2c-0.6,0-1.2-0.1-1.9-0.1c-2.8,0-4.9,0.7-6.3,2.2
		C236.4,257.5,235.7,259.5,235.7,262.3L235.7,262.3z M247.6,259.4v10.1c0,0,0,0.1,0,0.1c0,0,0,0-0.1,0.1c-0.4,0.1-0.8,0.2-1.3,0.2
		c-0.5,0-1,0.1-1.5,0.1c-1,0-1.9-0.2-2.4-0.7c-0.6-0.5-0.9-1.2-0.9-2.1v-4.8c0-1.1,0.3-1.9,0.9-2.4c0.6-0.5,1.5-0.8,2.7-0.8
		c0.5,0,1,0,1.4,0.1C246.8,259.2,247.3,259.3,247.6,259.4L247.6,259.4z M275.6,254.4h-3c-0.5,0-0.9,0.1-1.1,0.3
		c-0.2,0.2-0.3,0.6-0.3,1.1v12.5c-0.4,0.1-0.9,0.1-1.4,0.2c-0.5,0-1,0.1-1.5,0.1c-1.1,0-1.9-0.2-2.5-0.7c-0.6-0.5-0.8-1.2-0.8-2.2
		v-9.9c0-0.5-0.1-0.9-0.3-1.1c-0.2-0.2-0.6-0.3-1.1-0.3h-3c-0.5,0-0.9,0.1-1.1,0.3c-0.2,0.2-0.3,0.6-0.3,1.1V266
		c0,1.7,0.3,3.1,0.9,4.3c0.6,1.2,1.5,2.1,2.7,2.7c1.2,0.6,2.8,1,4.7,1c0.7,0,1.4,0,2-0.1c0.6,0,1.1-0.1,1.7-0.2v1.6
		c0,1-0.3,1.8-0.8,2.3c-0.5,0.5-1.3,0.8-2.3,0.8c-0.8,0-1.4-0.1-1.9-0.4c-0.5-0.2-0.9-0.6-1.2-1.1c-0.2-0.3-0.4-0.5-0.6-0.7
		c-0.2-0.1-0.5-0.2-0.7-0.2c-0.2,0-0.6,0.1-0.9,0.4l-2.2,1.1c-0.5,0.2-0.8,0.6-0.9,1c-0.1,0.4,0,0.8,0.4,1.3c0.7,1.2,1.7,2,3.1,2.7
		c1.4,0.6,3.1,0.9,5.2,0.9c1.6,0,2.9-0.2,4-0.6c1.1-0.4,2-1,2.7-1.8c0.7-0.7,1.2-1.7,1.6-2.7c0.3-1.1,0.5-2.2,0.5-3.5v-19
		c0-0.5-0.1-0.9-0.3-1.1C276.5,254.5,276.1,254.4,275.6,254.4L275.6,254.4z"/>
</g>
</svg>
