<?xml version="1.0" encoding="utf-8"?>
<!-- Generator: Adobe Illustrator 24.0.2, SVG Export Plug-In . SVG Version: 6.00 Build 0)  -->
<svg version="1.1" id="University_of_Leicester_logo_full_colour"
	 xmlns="http://www.w3.org/2000/svg" xmlns:xlink="http://www.w3.org/1999/xlink" x="0px" y="0px" width="1063.1px"
	 height="283.5px" viewBox="0 0 1063.1 283.5" enable-background="new 0 0 1063.1 283.5" xml:space="preserve">
<g>
	<path fill="#C10230" d="M113.4,259c45.6-29.7,92.7-74.1,92.7-105.2V20.7H20.7v133.1C20.7,185,67.8,229.3,113.4,259z"/>
	<path fill="#5B6670" d="M113.4,0L113.4,0H0v153.8c0,61.8,111.3,128.4,113.4,129.6l0,0c2.1-1.2,113.4-67.8,113.4-129.6V0H113.4z
		 M216.4,153.8c0,42.1-64.6,93.4-103,117.5c-38.5-24.1-103-75.4-103-117.5V10.4h206.1V153.8z"/>
	<path fill="#FFFFFF" d="M10.4,10.4v143.5c0,42.1,64.6,93.4,103,117.5c38.5-24.1,103-75.4,103-117.5V10.4H10.4z M206.1,153.8
		c0,31.1-47,75.4-92.7,105.2c-45.6-29.7-92.7-74-92.7-105.2V20.7h185.3V153.8z"/>
	<g>
		<path fill="#FFFFFF" d="M71,66c-2.9,0-5.3-2.4-5.3-5.3c0-2.9,2.4-5.3,5.3-5.3c2.9,0,5.3,2.4,5.3,5.3C76.3,63.6,74,66,71,66
			 M95.6,50.2c-1.5-1.8-4.8-6.6-10.1-4.9c-5,1.6-3.3,5.3-6.8,6.3c-0.2,0.1-0.5,0.1-0.8-0.1c-0.3-0.2-0.3-0.5-0.3-0.7
			c-0.1-3.7,3.9-3.2,3.9-8.4c0-5.6-5.6-7.3-7.8-8.1c-2.2-0.8-2.5-3.5-2.5-3.5s-0.3,2.7-2.5,3.5c-2.2,0.8-7.8,2.5-7.8,8.1
			c0,5.3,4,4.8,3.9,8.4c0,0.2-0.1,0.5-0.4,0.7h0c-0.3,0.2-0.6,0.2-0.8,0.1c-3.5-1-1.8-4.7-6.8-6.3c-5.4-1.7-8.7,3.1-10.1,4.9
			c-1.5,1.8-4.1,1.3-4.1,1.3s2.4,1.1,2.5,3.4c0.1,2.3,0,8.2,5.3,9.9c5,1.6,5.8-2.4,9.2-1.1c0.2,0.1,0.5,0.2,0.6,0.5
			c0.1,0.3,0,0.6-0.1,0.8c-2.1,3-5,0.3-8.1,4.5c-3.3,4.6,0.3,9.2,1.5,11.2c1.3,1.9,0,4.3,0,4.3s1.8-2,4.1-1.4
			c2.2,0.6,7.8,2.6,11.1-2c3.1-4.3-0.5-6.2,1.8-9.1c0.1-0.2,0.4-0.4,0.7-0.4c0.3,0,0.6,0.2,0.7,0.4c2.2,2.9-1.3,4.9,1.8,9.1
			c3.3,4.6,8.9,2.6,11.1,2c2.2-0.6,4.1,1.4,4.1,1.4s-1.3-2.3,0-4.3c1.3-1.9,4.9-6.6,1.5-11.2c-3.1-4.3-6.1-1.5-8.1-4.5
			c-0.1-0.2-0.2-0.5-0.1-0.8l0,0c0.1-0.3,0.4-0.5,0.6-0.6c3.4-1.2,4.2,2.7,9.2,1.1c5.4-1.7,5.2-7.6,5.3-9.9c0.1-2.3,2.6-3.4,2.6-3.4
			S97,52,95.6,50.2"/>
		<path fill="#FFFFFF" d="M155.6,66c-2.9,0-5.3-2.4-5.3-5.3c0-2.9,2.4-5.3,5.3-5.3c2.9,0,5.3,2.4,5.3,5.3
			C160.9,63.6,158.6,66,155.6,66 M180.2,50.2c-1.5-1.8-4.8-6.6-10.1-4.9c-5,1.6-3.3,5.3-6.8,6.3c-0.2,0.1-0.5,0.1-0.8-0.1
			c-0.3-0.2-0.3-0.5-0.3-0.7c-0.1-3.7,3.9-3.2,3.9-8.4c0-5.6-5.7-7.3-7.8-8.1c-2.2-0.8-2.5-3.5-2.5-3.5s-0.3,2.7-2.5,3.5
			c-2.2,0.8-7.8,2.5-7.8,8.1c0,5.3,4,4.8,3.9,8.4c0,0.2-0.1,0.5-0.4,0.7h0c-0.3,0.2-0.6,0.2-0.8,0.1c-3.5-1-1.8-4.7-6.8-6.3
			c-5.4-1.7-8.7,3.1-10.1,4.9c-1.5,1.8-4.1,1.3-4.1,1.3s2.4,1.1,2.5,3.4c0.1,2.3,0,8.2,5.3,9.9c5,1.6,5.8-2.4,9.2-1.1
			c0.2,0.1,0.5,0.2,0.6,0.5c0.1,0.3,0,0.6-0.1,0.8c-2.1,3-5,0.3-8.1,4.5c-3.3,4.6,0.3,9.2,1.5,11.2c1.3,1.9,0,4.3,0,4.3
			s1.8-2,4.1-1.4c2.2,0.6,7.8,2.6,11.1-2c3.1-4.3-0.5-6.2,1.8-9.1c0.1-0.2,0.4-0.4,0.7-0.4c0.3,0,0.6,0.2,0.7,0.4
			c2.3,2.9-1.3,4.9,1.8,9.1c3.3,4.6,8.9,2.6,11.1,2c2.2-0.6,4.1,1.4,4.1,1.4s-1.3-2.3,0-4.3c1.3-1.9,4.9-6.6,1.5-11.2
			c-3.1-4.3-6.1-1.5-8.1-4.5c-0.1-0.2-0.2-0.5-0.1-0.8l0,0c0.1-0.3,0.4-0.5,0.6-0.6c3.4-1.2,4.2,2.7,9.2,1.1
			c5.4-1.7,5.2-7.6,5.3-9.9c0.1-2.3,2.6-3.4,2.6-3.4S181.6,52,180.2,50.2"/>
	</g>
	<g>
		<path fill="#FFFFFF" d="M134.4,229.6l-8.1-4.1c-0.9-0.5-2.1-0.2-2.5,0.7l-0.9,1.8c-0.4,0.9,0,2,0.9,2.4l8.1,4.1
			c0.9,0.5,2.1,0.2,2.5-0.7l0.9-1.8C135.8,231.1,135.4,230,134.4,229.6z"/>
		<path fill="#FFFFFF" d="M144.3,195.7l0-0.4l0-1.6c0-0.5,0-1.2-0.1-1.9l-0.2-2.1c-0.5-2.6-1-5.2-2.1-7.6c-1-2.5-2.5-4.8-4.1-6.8
			c-1.7-2.1-3.7-3.7-5.6-5c-1-0.7-2-1.2-3-1.8c-1-0.4-2-0.9-2.9-1.3c-1-0.3-1.9-0.6-2.7-0.9c-0.9-0.2-1.7-0.4-2.5-0.6
			c-0.7-0.2-1.4-0.3-2-0.3c-0.9-0.1-3-0.3-5.5-0.4l0,0c0,0,0,0,0,0l0,0l0,0c-2.5,0-4.6,0.2-5.5,0.4c-0.6,0.1-1.3,0.2-2,0.3
			c-0.8,0.2-1.6,0.4-2.5,0.6c-0.9,0.3-1.8,0.6-2.7,0.9c-0.9,0.4-1.9,0.8-2.9,1.3c-1,0.6-2,1.1-3,1.8c-2,1.4-4,3-5.6,5
			c-1.7,2-3.1,4.3-4.1,6.8c-1.1,2.5-1.7,5.1-2.1,7.6l-0.2,2.1c-0.1,0.7-0.1,1.4-0.1,1.9l0,1.6l0,0.4l0,0.3v0.1l0,0.1l0,0.2l0,0.9
			c0.1,2.4,0.4,4.7,0.7,6.9c0.7,4.4,1.8,8.3,2.9,11.6c1.1,3.3,2.2,6,3.1,7.8c0.4,0.9,0.8,1.7,1,2.2c0.3,0.5,0.4,0.8,0.4,0.8l1.2-0.6
			l0.8-0.4l4.5-2.3l0.8-0.4l0.6-0.3l0.6-0.3c0,0-0.1-0.2-0.3-0.6c-0.2-0.4-0.4-1.1-0.8-1.9c-0.7-1.6-1.6-4-2.4-7
			c-0.8-2.9-1.6-6.4-2-10.1c-0.2-1.8-0.4-3.8-0.3-5.7v-0.7l0-0.2v0l0-0.3l0.1-1.6c0-0.6,0.1-1,0.2-1.4l0.2-1.2
			c0.4-1.7,0.8-3.4,1.6-4.8c0.7-1.5,1.6-2.7,2.5-3.8c0,0,0.5-0.6,1.4-1.3c0.1-0.1,0.2-0.2,0.4-0.3c0.3-0.2,0.6-0.5,1-0.7
			c0.2-0.1,0.3-0.2,0.5-0.3c0.1,0,0.1-0.1,0.2-0.1c0.4-0.2,0.8-0.5,1.3-0.7c0.1-0.1,0.2-0.1,0.3-0.2c0,0,0.1,0,0.1,0
			c2.5-1.2,5.8-2.2,10.3-2.2c4.5,0,7.9,1,10.3,2.2c0,0,0.1,0,0.1,0c0.1,0.1,0.2,0.1,0.3,0.2c0.5,0.2,0.9,0.5,1.3,0.7
			c0.1,0,0.1,0.1,0.2,0.1c0.2,0.1,0.3,0.2,0.5,0.3c0.4,0.3,0.7,0.5,1,0.7c0.1,0.1,0.3,0.2,0.4,0.3c0.9,0.7,1.4,1.3,1.4,1.3
			c1,1.1,1.9,2.3,2.5,3.8c0.8,1.4,1.2,3.1,1.6,4.8l0.2,1.2c0.1,0.4,0.1,0.8,0.2,1.4l0.1,1.6l0,0.3v0l0,0.2v0.7
			c0,1.9-0.1,3.8-0.3,5.7c-0.4,3.7-1.2,7.2-2,10.1c-0.8,2.9-1.7,5.3-2.4,7c-0.3,0.8-0.6,1.4-0.8,1.9c-0.2,0.4-0.3,0.6-0.3,0.6
			l0.6,0.3l0.6,0.3l0.8,0.4l4.5,2.3l0.8,0.4l1.2,0.6c0,0,0.1-0.3,0.4-0.8c0.2-0.5,0.6-1.2,1-2.2c0.9-1.9,2-4.5,3.1-7.8
			c1.1-3.3,2.2-7.2,2.9-11.6c0.3-2.2,0.6-4.5,0.7-6.9l0-0.9l0-0.2l0-0.1V196L144.3,195.7z"/>
		<path fill="#FFFFFF" d="M103,226.2c-0.4-0.9-1.6-1.2-2.5-0.7l-8.1,4.1c-0.9,0.5-1.4,1.6-0.9,2.4l0.9,1.8c0.4,0.9,1.6,1.2,2.5,0.7
			l8.1-4.1c0.9-0.5,1.4-1.6,0.9-2.4L103,226.2z"/>
	</g>
	<g>
		<path fill="#FFFFFF" d="M101.8,154.2H42.5l15.1-50.7h-0.7l-16.2,50.3l-0.7,2.1h61.6C101.6,155.3,101.7,154.8,101.8,154.2z"/>
		<path fill="#FFFFFF" d="M109,145.8c-0.2-0.5-0.7-1.2-1.2-1.6c0,0,0,0,0,0c-0.1-0.1-0.2-0.2-0.3-0.3c0,0,0,0-0.1-0.1
			c-0.1-0.1-0.2-0.2-0.3-0.3c-2.1-1.8-4.3-2.5-5.4-2.7c-1-0.2-2-0.3-3.2-0.3c-6.9,0-17.3,1.9-25.4,3.7l0,0c0,0-17,3.7-19.8,3.2l0,0
			l12.2-47.7c-1.2,0.6-2.2,1.2-2.8,1.7l-14.3,48.1h55.3C104.9,146.8,109,145.8,109,145.8C109,145.8,109,145.8,109,145.8z"/>
		<path fill="#FFFFFF" d="M101.3,91c-1.9,0-4.2,0.3-6.7,0.7c-0.5,0.1-8,1.6-12.1,2.8l0,0c-4.2,1.2-11,3.1-12.2,2.8l-11.6,45.2
			c2.1,0.1,13.2-2.4,13.2-2.4l0,0c8.4-1.8,19.2-3.8,26.5-3.8c6.6,0,10.3,2.4,12.3,4.9V97c0-0.3-0.1-0.5-0.1-0.6
			C109.5,94.3,106.8,91,101.3,91z"/>
		<path fill="#FFFFFF" d="M120.5,155L120.5,155C120.5,155,120.5,155,120.5,155c0-0.1,0-0.1,0-0.1c-0.1-0.3-0.2-0.6-0.5-0.8
			c-0.1-0.2-0.4-0.5-0.6-0.8c0,0,0,0,0,0l0,0c-0.8-0.8-2.2-1.7-4.6-2.1l-0.9-0.1c-0.1,0-0.3,0-0.4,0l-0.1,0l-0.1,0
			c-0.1,0-0.3,0-0.4,0l-0.9,0.1c-2.3,0.3-3.8,1.3-4.6,2.1l0,0c0,0,0,0,0,0c-0.3,0.3-0.5,0.6-0.6,0.8c-0.2,0.3-0.4,0.6-0.5,0.8
			c0,0,0,0.1,0,0.1c0,0,0,0,0,0l0,0c0,0.2,0,0.4,0.2,0.6c0.2,0.2,0.3,0.4,0.6,0.4c0.1,0,0.2-0.1,0.4-0.2c0.6-0.5,1.8-1.4,5.9-1.4
			c4.1,0.1,5.3,0.9,5.9,1.4c0.2,0.2,0.3,0.2,0.4,0.2c0.2,0,0.4-0.1,0.6-0.4C120.5,155.4,120.5,155.2,120.5,155z"/>
		<path fill="#FFFFFF" d="M125,154.2h59.3l-15.1-50.7h0.7l16.2,50.3l0.7,2.1h-61.6C125.2,155.3,125.1,154.8,125,154.2z"/>
		<path fill="#FFFFFF" d="M117.8,145.8c0.2-0.5,0.7-1.2,1.2-1.6c0,0,0,0,0,0c0.1-0.1,0.2-0.2,0.3-0.3c0,0,0,0,0.1-0.1
			c0.1-0.1,0.2-0.2,0.3-0.3c2.1-1.8,4.3-2.5,5.4-2.7c1-0.2,2-0.3,3.2-0.3c6.9,0,17.3,1.9,25.4,3.7l0,0c0,0,17,3.7,19.8,3.2l0,0
			l-12.2-47.7c1.2,0.6,2.2,1.2,2.8,1.7l14.3,48.1h-55.3C121.9,146.8,117.8,145.8,117.8,145.8C117.8,145.8,117.8,145.8,117.8,145.8z"
			/>
		<path fill="#FFFFFF" d="M125.5,91c1.9,0,4.2,0.3,6.7,0.7c0.5,0.1,8,1.6,12.1,2.8c0,0,0,0,0,0c4.2,1.2,11,3.1,12.2,2.8l11.6,45.2
			c-2.1,0.1-13.2-2.4-13.2-2.4l0,0c-8.4-1.8-19.2-3.8-26.5-3.8c-6.6,0-10.3,2.4-12.3,4.9V97c0-0.3,0.1-0.5,0.1-0.6
			C117.3,94.3,120,91,125.5,91z"/>
	</g>
</g>
<g>
	<path fill="#5B6670" d="M925.9,77.1c0-19,14.3-33.6,33.9-33.6c22,0,33,15.9,33,32.6c0,19.2-14.7,33.2-33,33.2
		C938.6,109.4,925.9,94.2,925.9,77.1z M983.3,79.1c0-15.7-6.9-32.6-25.1-32.6c-9.9,0-22.7,6.8-22.7,27.6c0,14.1,6.9,32.4,25.6,32.4
		C972.4,106.4,983.3,97.9,983.3,79.1z"/>
	<path fill="#5B6670" d="M329.8,45c-0.3,0.5-0.4,1.5,0.1,2l2.4,0.2c2.4,0.2,4.1,0.9,4.8,2c1.6,2.9,1.8,13.8,1.8,19.7v10.9
		c0,14.5-5.2,25.3-19,25.3c-14.6,0-19.3-10.1-19.3-25.4V59.2c0-9.9,0.2-11.5,5.7-12l2.3-0.2c0.5-0.3,0.4-1.4,0.1-2h-24
		c-0.3,0.6-0.4,1.7,0.1,2l2.4,0.2c5.5,0.5,5.7,2.1,5.7,12v22.5c0,11.3,2.4,18.3,7.4,22.5c4.7,4,11.2,5.2,17.8,5.2
		c7,0,14.1-2.5,18.2-6.9c5.3-5.7,6.7-14.5,6.7-22.7V68.9c0-5.3-0.1-16.3,1.3-19.4c0.5-1.2,2.4-2.1,4.8-2.3l2.3-0.2
		c0.4-0.5,0.5-1.4,0.1-2H329.8z"/>
	<path fill="#5B6670" d="M522.7,45c-0.4,0.6-0.4,1.6,0.1,2.1l1.7,0.2c3.3,0.4,4.3,1.1,4.3,1.8c0,0.7-0.1,1.7-0.9,3.7
		c-1.6,4.1-6,14.8-8.9,21.3c-2.1,5-6.2,14.8-9.1,21.1c-4.8-10.9-9.1-21.8-13.5-32.8c-2.9-7.2-4.6-12.4-4.8-13.3
		c0.1-0.8,0.9-1.3,4.5-1.8l1.4-0.2c0.6-0.5,0.5-1.5,0.1-2.1h-22c-0.5,0.6-0.4,1.6,0.1,2.1l1.7,0.2c4.1,0.5,5.5,2.5,7.7,7.8
		l16.8,41.3c1.7,4,3.3,8.7,4.4,12.7c0.5,0.2,1,0.3,1.4,0.3c0.4,0,0.8-0.1,1-0.3c1.6-5,6.1-16.1,9.9-24.8l5.1-11.7
		c4.3-9.7,8-17.4,10.7-21.9c1.2-2,2.7-3.1,5-3.3l2.9-0.2c0.4-0.4,0.5-1.5,0.1-2.1H522.7z"/>
	<path fill="#5B6670" d="M430.3,45h-21.7c-0.4,0.5-0.4,1.6,0.2,2.1l1.6,0.2c3.8,0.5,5.3,1,5.9,1.9c1.8,2.9,1.9,15.2,1.9,19.7v20.4
		c0,2,0,3.5-0.4,4h-0.2c-4.5-4.6-9.2-9.8-15.7-17.2l-9.2-10.4c-3-3.5-13.9-15.6-16.2-20.7h-15.6c-0.4,0.6-0.3,1.6,0.1,2.1l1.6,0.2
		c2.3,0.3,4.6,1,5.9,2.3c2,2.2,2.1,4.2,2.1,6.9V84c0,4.6,0.1,16.2-1.2,19.6c-0.5,1-2,1.7-4.2,1.9l-2.6,0.3c-0.5,0.5-0.5,1.5-0.1,2.1
		h21.6c0.4-0.6,0.4-1.5-0.1-2.1l-3-0.3c-2.4-0.2-4.2-0.8-4.9-1.8c-1.5-2.9-1.7-15.2-1.7-19.7V63.2c0-2.9,0.1-5,0.5-6.2h0.2
		c2,2.1,8.5,9.9,11,12.8L408.4,95c8.3,9.4,11,12.8,12.2,14.4c1,0,1.6-0.5,1.8-1c-0.3-2.5-0.3-13.8-0.3-16.7V68.9
		c0-4.4-0.2-16.2,1.4-19.6c0.4-0.8,2.3-1.5,5.3-2l1.3-0.2C430.6,46.6,430.7,45.6,430.3,45z"/>
	<path fill="#5B6670" d="M444,47.3c5.6,0.5,5.8,2.1,5.8,12.2v33.9c0,10.1-0.2,11.4-5.8,12.1l-2.4,0.3c-0.5,0.5-0.4,1.5-0.1,2.1h24.3
		c0.3-0.6,0.4-1.8-0.1-2.1l-2.4-0.3c-5.6-0.7-5.8-2-5.8-12.1V59.5c0-10.1,0.2-11.7,5.8-12.2l2.4-0.2c0.5-0.3,0.4-1.5,0.1-2.1h-24.3
		c-0.3,0.6-0.4,1.8,0.1,2.1L444,47.3z"/>
	<path fill="#5B6670" d="M730.2,47.3c5.6,0.5,5.8,2.1,5.8,12.2v33.9c0,10.1-0.2,11.4-5.8,12.1l-2.4,0.3c-0.5,0.5-0.4,1.5-0.1,2.1
		h24.3c0.3-0.6,0.4-1.8-0.1-2.1l-2.4-0.3c-5.6-0.7-5.8-2-5.8-12.1V59.5c0-10.1,0.2-11.7,5.8-12.2l2.4-0.2c0.5-0.3,0.4-1.5,0.1-2.1
		h-24.3c-0.3,0.6-0.4,1.8,0.1,2.1L730.2,47.3z"/>
	<path fill="#5B6670" d="M835.1,47.6c2.9,0.5,4.3,1,7.5,7.2l11.2,21.9c2.8,5.3,3,6.6,3,11.8v4.9c0,10.2-0.2,11.5-5.7,12.1l-3,0.3
		c-0.5,0.5-0.4,1.5-0.1,2.1h26c0.3-0.5,0.4-1.6-0.1-2.1l-3.6-0.3c-5.1-0.4-5.7-1.9-5.7-12.1v-4.9c0-7.3,0.2-8.3,4.5-15.4l6-10.4
		c4.8-8.2,7.6-14.3,12.6-15l2.7-0.5c0.6-0.5,0.6-1.5,0.1-2.1h-18.6c-0.4,0.5-0.4,1.5,0.1,2.1l1.7,0.2c2.3,0.3,4,1,4,1.5
		c0,1.1-3.5,7.6-6.2,12.6c-2.9,5.5-6,11-8.9,16.1c-3.7-6.6-7.2-14.1-10.8-21.1c-0.5-1-2.9-6.4-2.9-7.3c0-0.8,0.7-1.1,4-1.7l1.2-0.2
		c0.5-0.5,0.5-1.5,0.1-2.1h-21.9c-0.4,0.5-0.4,1.5,0.1,2.1L835.1,47.6z"/>
	<path fill="#5B6670" d="M1044.5,45h-12.9h-17.5h-11.3c-0.3,0.6-0.4,1.8,0.1,2.1l1.5,0.2c5.5,0.7,5.7,2,5.7,12v34.3
		c0,10-0.2,11.2-5.7,11.9l-2.4,0.3c-0.5,0.5-0.4,1.5-0.1,2.1h25.1c0.3-0.6,0.4-1.8-0.1-2.1l-3.2-0.3c-5.6-0.5-5.8-1.9-5.8-11.9V80.3
		c0-2.5,0.3-2.6,3.1-2.6h6.5c3.6,0,6,0.1,7.3,0.5c1.8,0.6,2.7,1.9,3,3.6l1,3.7c0.5,0.4,1.5,0.5,2.1,0.3V66.5
		c-0.6-0.3-1.7-0.2-2.1,0.3l-0.9,3.8c-0.6,2.5-1.3,3-2.4,3.3c-1.1,0.4-4.2,0.6-8.1,0.6h-6.5c-2.9,0-3.1,0-3.1-2.6V51.8
		c0-3.6,0-3.8,2.9-3.8h5.8c4,0,7.1,0.1,9.2,0.6c4.8,1.3,5.9,4.8,6.7,9c0.7,0.6,2,0.3,2.3-0.3C1044.6,53.8,1044.5,49.3,1044.5,45z"/>
	<path fill="#5B6670" d="M670.4,107.1c-2.6-0.2-5-1.2-6.6-2.7c-6.5-5.4-11.5-13-19.1-25.3c-0.5-0.8-1-1.7-0.5-2.3
		c4.8-1.9,11.9-6.9,11.9-15.9c0-6.7-3.3-10.9-7.9-13.3c-2-1.1-4.2-1.8-6.6-2.2c-0.3,0-1.4-0.2-2.4-0.3c0,0-1.4-0.1-2.4-0.1H620
		c-1.1,0-2.8,0.1-3.2,0.1c-2.1,0.1-4,0.2-5.7,0.4c-0.8,0.4-0.8,1.9-0.1,2.4l3,0.4c3.9,0.5,4.2,2.1,4.2,11.1v34.2
		c0,10-0.2,11.2-5.7,11.9l-2.4,0.3c-0.5,0.5-0.4,1.6-0.1,2.1h23.8c0.3-0.6,0.4-1.7-0.1-2.1l-2-0.3c-5.5-0.8-5.7-1.9-5.7-11.9v-12
		c0-2,0.2-2.1,4.5-2.1c3.8,0,5.3,1,6.8,3c3,4.3,6.9,10.9,9.3,14.4c6.8,9.6,11.6,12,19.7,12c1.8,0,3.3-0.2,4.2-0.5
		C670.9,108,670.8,107.3,670.4,107.1z M642.7,74.2c-2.8,2.1-6.4,2.5-9.8,2.5c-4.9,0-6.3-0.2-6.6-0.5c-0.3-0.4-0.3-1.4-0.3-3.1V50.7
		c0-2.7,0.3-3,6.2-3c10.6,0,15.2,7.1,15.2,14.7C647.4,68.8,645.2,72.2,642.7,74.2z"/>
	<path fill="#5B6670" d="M599.1,94.2c-2.5,4.9-5,8.3-6.8,9.2c-2.1,1-4.9,1.4-12.2,1.4c-8.4,0-10.4-1-11.5-2.2
		c-1.5-1.6-1.8-4.9-1.8-9.9V79.4c0-2.5,0.3-2.6,3.1-2.6h5.5c3.7,0,6,0.1,7.3,0.5c1.9,0.5,2.6,1.9,3,3.6l0.9,3.7
		c0.4,0.5,1.5,0.5,2.1,0.2V65.5c-0.6-0.3-1.7-0.2-2.1,0.2l-0.8,3.9c-0.5,2.4-1.1,3-2.3,3.3c-1.1,0.4-4.1,0.6-8.1,0.6h-5.5
		c-2.9,0-3.1,0-3.1-2.7v-19c0-3.6,0-3.8,2.9-3.8h6.9c4.2,0,7.2,0.1,9.2,0.6c4.9,1.2,5.8,4.6,7.2,9c0.5,0.6,2,0.4,2.4-0.2L593.9,45
		H581h-17.9h-11.5c-0.3,0.6-0.4,1.8,0.1,2.1l1.5,0.2c5.6,0.7,5.8,2.1,5.8,12v34.3c0,10-0.5,11.4-5.9,11.9l-3.1,0.3
		c-0.5,0.5-0.4,1.5-0.1,2.1h13.2h8.6h25.6l4.2-12.9C601.1,94.1,599.7,93.8,599.1,94.2z"/>
	<path fill="#5B6670" d="M700.9,73.5l-7.6-4.8c-3.5-2.3-8.1-6.2-8.1-11.7c0-4.4,2-10.6,11.3-10.6c9.1,0,11.7,6.2,12.9,10.8
		c0.5,0.6,2,0.3,2.4-0.3l-1.7-11.6c-0.8,0-2.1-0.3-3.3-0.6c-2.5-0.8-5.9-1.2-8.9-1.2c-12.4,0-19.4,7.3-19.4,16.4
		c0,7.8,5.5,13.2,10.3,16.4l9,5.9c6.9,4.5,7.8,9.1,7.8,13.3c0,5.7-3.9,10.9-11.9,10.9c-11,0-14.9-9.3-16.4-14.2
		c-0.4-0.6-1.8-0.4-2.3,0.3l2.6,13.3c1.8,1,6.9,3.5,14.8,3.5c12.4,0,20.3-7.1,20.3-17.6C712.8,82.7,706.9,77.2,700.9,73.5z"/>
	<path fill="#5B6670" d="M814.2,45h-38.5c-0.3,0-0.6,0-0.9,0h-9.6l-3,11.2c0.4,0.8,1.7,1.2,2.5,0.7c1-2.4,2-4.5,4.3-6.6
		c2.4-2.2,7.6-2.4,11.7-2.4h5.2c2.9,0,2.9,0.1,2.9,3v42.5c0,10-0.5,11.4-5.9,11.9l-3.4,0.3c-0.6,0.4-0.6,1.5-0.3,2.1h26.2
		c0.3-0.6,0.4-1.8-0.1-2.1l-3-0.3c-5.5-0.6-5.7-1.9-5.7-11.9V51.2c0-3.1-0.1-3.2,2.8-3.2h6.8c5.2,0,8.9,0.8,11,2.4
		c1.4,1,2.1,4.6,2.4,6.9c0.5,0.6,2.1,0.6,2.5-0.2l0.9-12.1H814.2z"/>
</g>
<g>
	<path fill="#C10230" d="M467,223.6l-3.1,0.4c-0.8,0.8-0.9,2.7-0.2,3.6h38.5c0.7-0.9,0.6-2.8-0.2-3.6l-3.1-0.4
		c-6.6-0.8-7.8-1.3-7.8-16.1v-52.1c0-14.9,1.3-15.3,7.8-16.1l3.1-0.4c0.8-0.8,0.9-2.7,0.2-3.6h-38.5c-0.7,0.9-0.6,2.8,0.2,3.6
		l3.1,0.4c6.6,0.8,7.8,1.3,7.8,16.1v52.1C474.8,222.4,473.6,222.8,467,223.6z"/>
	<path fill="#C10230" d="M1062.5,225.2c-1.7-0.1-5.7-1-9.7-4.3c-6.6-5.5-13.6-17.4-24.8-36.3c-0.6-0.8-0.8-2,0-2.4
		c6.9-2.8,16.8-9.2,16.8-22.1c0-10.1-5.2-16.7-12.3-20.5c-4.1-2.3-9.8-3.6-16.3-4.3c-0.2,0-1.1-0.1-3.2-0.1h-24.8
		c-1.5,0-3.6,0.1-4,0.1c-3.8,0.2-7.4,0.4-10.6,0.7c-1.1,0.7-1.1,2.9-0.1,3.9l3.6,0.4c6.6,0.7,6.7,2.4,6.7,15.8v51.3
		c0,14.9-1.3,15.3-7.8,16.1l-3.1,0.4c-1.1,0.8-0.9,2.7-0.2,3.6h38.5c0.7-0.9,0.6-2.8-0.2-3.6l-3.1-0.4c-6.6-0.8-7.8-1.3-7.8-16.1
		v-17.9c0-2.9,0.1-3.1,4.3-3.1c4.6,0,6.2,0.6,8.7,4.8c3.4,5.5,7.3,13.2,11.1,19.1c8.5,13,15.8,18.5,29.3,18.5c4.9,0,7.6-0.4,9.2-0.8
		C1063.2,227.3,1063.2,225.7,1062.5,225.2z M1006.9,181.2c-6.7,0-6.7-0.3-6.7-4.8v-29.1c0-6.4,0.1-6.9,7.4-6.9
		c12.2,0,19.3,9.7,19.3,20.7C1026.9,174.5,1020.6,181.2,1006.9,181.2z"/>
	<path fill="#C10230" d="M355,207c-6.4,14.4-8.7,15.1-24.2,15.1c-11.2,0-13.5-1.1-15.1-3.1c-2.1-2.4-2.4-7.4-2.4-14.4v-49.2
		c0-14.6,1.3-15,7.8-16l3.1-0.6c0.9-0.6,1-2.7,0.2-3.6H285c-0.7,1-0.6,3.1,0.2,3.6l3.9,0.6c6.6,1,7.8,1.4,7.8,16v52.1
		c0,14.6-1.3,15-7.8,15.8l-4.2,0.7c-1.1,0.6-0.9,2.7-0.2,3.6h20.5h14.6h33.8l5.7-19.9C358.7,206.7,356.4,206.3,355,207z"/>
	<path fill="#C10230" d="M444.9,207c-4.9,11.3-8,15.4-25.8,15.1c-11.8,0-14.2-1.1-15.8-3.1c-2.1-2.4-2.4-7.4-2.4-14.6v-17.8
		c0-3.5,0.1-3.8,3.4-3.8h6.7c12.2,0,14.6,0.3,15.6,6.2l1,5.6c1,0.7,3,0.8,4.1,0.2v-29.5c-1-0.7-3.1-0.6-4.1,0.3l-1,4.8
		c-1,6-3.4,6.2-15.6,6.2h-6.7c-3.2,0-3.4-0.1-3.4-3.8v-23.7c0-8,0-8.3,6-8.3h9.4c3.8,0,8,0.3,11.2,1.3c4.5,1.1,6.6,4.6,8.8,12.8
		c1.1,0.8,3.9,0.6,4.5-0.6l-2.2-19.1h-19H393h-18.5c-0.7,0.9-0.6,2.8,0.2,3.6l2.2,0.3c6.6,1,7.8,1.4,7.8,16.3v52.1
		c0,14.9-1.3,15.3-7.8,16l-5.2,0.6c-0.8,0.8-0.9,2.7-0.2,3.6H393h16h34.8l5.7-19.9C448.6,206.4,446.2,206,444.9,207z"/>
	<path fill="#C10230" d="M600.5,225.1l6.6-21.1c-0.7-1.3-2.9-1.8-4.2-0.6c-3.9,9.1-11.6,20.9-29.3,20.9c-18.1,0-36.7-14.6-36.7-44.4
		c0-28.7,17.9-41.3,35.7-41.3c18.5,0,24.8,11.6,27.2,20.5c1,1,3.5,0.8,4.5-0.3l-2-21.9c-1.3-0.3-2.2-0.4-3.9-0.8
		c-6.6-1.7-16.3-3.1-24.2-3.1c-14.2,0-28.3,4.1-38.7,11.9c-10.4,8-17.7,20.7-17.7,37.1c0,18.4,8.5,31.1,19.9,38.5
		c10.1,6.6,22,9.4,35.9,9.4c7.3,0,14.9-1.5,19.2-2.6C593.4,227.2,600.2,225.2,600.5,225.1z"/>
	<path fill="#C10230" d="M693.3,207c-4.9,11.3-8,15.4-25.8,15.1c-11.8,0-14.2-1.1-15.8-3.1c-2.1-2.4-2.4-7.4-2.4-14.6v-17.8
		c0-3.5,0.1-3.8,3.4-3.8h6.7c12.2,0,14.6,0.3,15.6,6.2l1,5.6c1,0.7,3,0.8,4.1,0.2v-29.5c-1-0.7-3.1-0.6-4.1,0.3l-1,4.8
		c-1,6-3.4,6.2-15.6,6.2h-6.7c-3.2,0-3.4-0.1-3.4-3.8v-23.7c0-8,0-8.3,6-8.3h9.4c3.8,0,8,0.3,11.2,1.3c4.5,1.1,6.6,4.6,8.8,12.8
		c1.1,0.8,3.9,0.6,4.5-0.6l-2.2-19.1h-19h-26.8h-18.5c-0.7,0.9-0.6,2.8,0.2,3.6l2.2,0.3c6.6,1,7.8,1.4,7.8,16.3v52.1
		c0,14.9-1.3,15.3-7.8,16l-5.2,0.6c-0.8,0.8-0.9,2.7-0.2,3.6h21.5h16h34.8l5.7-19.9C696.9,206.4,694.5,206,693.3,207z"/>
	<path fill="#C10230" d="M751.7,175l-8.7-4.6c-9.2-4.9-13.3-11.2-13.3-17.1c0-7.4,4.6-14.7,15.8-14.7c11.9,0,16.8,9.4,18.9,16.7
		c1.3,1,3.8,0.8,4.5-0.4l-2.9-18.9c-6.6-1.3-11.9-2.9-19.2-2.9c-20.5,0-30.8,11.8-30.8,25.6c0,12.6,9.2,21.2,19.8,27l6,3.4
		c10.5,5.9,14.3,12.3,14.3,20.3c0,8.5-6,15-16.7,15c-13.7,0-21.3-15-23.8-22.1c-1.1-1-3.5-0.8-4.3,0.6l4.2,21.3
		c2.8,1.7,10.1,5.9,23,5.9c20.3,0,32.5-11.3,32.5-27.3C770.9,188.5,760.8,179.8,751.7,175z"/>
	<path fill="#C10230" d="M860.7,135.2h-57.2h-15.9l-4.7,17.5c0.6,1.4,3.5,1.8,4.5,1c5.2-11.3,9-12.9,21.9-12.9h7.8
		c3.6,0,3.8,0.3,3.8,6.2v60.5c0,14.9-1.3,15.3-7.8,15.8l-5.9,0.7c-0.8,0.6-0.9,2.7-0.2,3.6h43.2c0.7-0.9,0.6-2.8-0.2-3.6l-5-0.6
		c-6.6-0.7-7.8-1.1-7.8-16V147c0-5.9,0.1-6.2,3.8-6.2h8c15,0,17.7,2.7,19.5,13.6c1.3,1,3.6,0.7,4.3-0.4l1.4-18.8H860.7z"/>
	<path fill="#C10230" d="M958,207c-4.9,11.3-8,15.4-25.8,15.1c-11.8,0-14.2-1.1-15.8-3.1c-2.1-2.4-2.4-7.4-2.4-14.6v-17.8
		c0-3.5,0.1-3.8,3.4-3.8h6.7c12.2,0,14.6,0.3,15.6,6.2l1,5.6c1,0.7,3,0.8,4.1,0.2v-29.5c-1-0.7-3.1-0.6-4.1,0.3l-1,4.8
		c-1,6-3.4,6.2-15.6,6.2h-6.7c-3.2,0-3.4-0.1-3.4-3.8v-23.7c0-8,0-8.3,6-8.3h9.4c3.8,0,8,0.3,11.2,1.3c4.5,1.1,6.6,4.6,8.8,12.8
		c1.1,0.8,3.9,0.6,4.5-0.6l-2.2-19.1h-19H906h-18.5c-0.7,0.9-0.6,2.8,0.2,3.6l2.2,0.3c6.6,1,7.8,1.4,7.8,16.3v52.1
		c0,14.9-1.3,15.3-7.8,16l-5.2,0.6c-0.8,0.8-0.9,2.7-0.2,3.6H906h16h34.8l5.7-19.9C961.6,206.4,959.3,206,958,207z"/>
</g>
</svg>
