<?xml version="1.0" encoding="utf-8"?>
<!-- Generator: Adobe Illustrator 24.0.2, SVG Export Plug-In . SVG Version: 6.00 Build 0)  -->
<svg version="1.1" id="Layer_1" xmlns="http://www.w3.org/2000/svg" xmlns:xlink="http://www.w3.org/1999/xlink" x="0px" y="0px"
	 width="670.4px" height="283.5px" viewBox="0 0 670.4 283.5" enable-background="new 0 0 670.4 283.5" xml:space="preserve">
<g>
	<g>
		<defs>
			<polyline id="SVGID_1_" points="0,0 0,283.5 670.4,283.5 670.4,0 			"/>
		</defs>
		<clipPath id="SVGID_2_">
			<use xlink:href="#SVGID_1_"  overflow="visible"/>
		</clipPath>
		<rect x="0.3" clip-path="url(#SVGID_2_)" fill="#6C2383" width="670.1" height="208.1"/>
		<path clip-path="url(#SVGID_2_)" fill="#FFD500" d="M444.4,70.7c0-4.7,4.2-7.5,10.2-7.5c6.3,0,12.2,4,14.7,10.1h1.5l-1.2-9
			c-3.1-1.4-9.9-3.5-15.8-3.5c-9.3,0-16.1,6.1-16.1,13c0,14.7,29.2,18,29.2,30.1c0,6.6-6.5,9.5-12.6,9.5c-7.2,0-13.7-4.3-15.7-12.6
			H437l1.9,12.5c4.7,1.3,11.2,2.8,16.2,2.8c10.7,0,18.5-6.9,18.5-15.1C473.6,85.4,444.4,82.6,444.4,70.7 M474.8,61.8h43.1l1.2,11.4
			h-1.5c-1.2-7.3-2.8-8.3-6.1-8.3H500v41.6c0,4.5,1.5,6.1,6.6,6.1h1.9v1.7h-24.2v-1.7h1.9c5.1,0,6.6-1.6,6.6-6.1V65h-11.5
			c-3.3,0-4.8,0.9-6.1,8.3h-1.5L474.8,61.8z M430.3,63.9c-1.3-8.4-3.9-8.9-7.5-8.9h-22.7v24.7h17.7c3.7,0,5.4-0.5,5.9-6.4h1.9v17
			h-1.9c-0.8-7.2-2.7-6.8-6.9-6.8h-16.7v21.6c0,4.7,2.1,5.6,5.9,5.6h15.2c7,0,9.3-1.5,11.7-10h1.8l-1.6,13.7h-50.2v-1.9
			c8.1-0.2,8.7-1.3,8.7-7.5l0-44.2c0-6.2-0.6-7.3-8.7-7.5v-1.9l48.2,0l0.8,12.6H430.3z M479.6,165.6H478c-1.1,4.9-2.5,6.2-6.5,6.2
			h-19c10-8.8,25.5-20.3,25.5-32.5c0-8.1-6.2-14.2-14.6-14.2c-8.7,0-15.2,6.3-16.2,15.4h1.3c1.8-6.5,6.9-10.8,12.6-10.8
			c6,0,10.6,4.7,10.6,10.7c0,14.4-23.4,32.1-25.5,34.1v2.3H478l0,0v0h0l0.7-5h0L479.6,165.6z M383.8,176.8v-1.9c7.6,0,8-1.3,8-5.3h0
			v-37.5c-2.7,2.3-7.4,5.2-10.6,6.6l-0.7-1.1c4.9-3.1,11.9-9.2,14-11.9h3v42.9c0.1,5.2,1.1,6.2,8.7,6.4v1.9H383.8z M480.4,162.4
			v-1.9l25.6-34.8h2.4v32.7h6.6v4h-6.6v14.5h-5.7v-14.5H480.4 M502.7,133.5l-18.1,24.8h18.1V133.5z M430.1,148.7
			c9.2,3.8,13.4,7.9,13.4,14.1c0,8.4-7.6,14.8-17.4,14.8c-9.5,0-17.1-5.9-17.1-13.2c0-5.7,4.4-10.3,13-13.4
			c-8.3-3.4-12.2-7.3-12.2-12.8c0-7.1,7.3-13.1,16.1-13.1c8.8,0,15.9,5.2,15.9,11.6C441.7,141.9,437.8,145.9,430.1,148.7
			 M423.7,151.8c-6,3-9.6,7.2-9.6,12.4c0,6.9,5.4,11.4,12.1,11.4c6.6,0,12.1-4.3,12.1-10.6C438.2,159.7,433.9,156.1,423.7,151.8
			 M425.7,127.2c-6.1,0-11.3,3.4-11.3,8.5c0,4.4,2.5,7.5,13.9,11.9c4.9-2.8,8.4-6.4,8.4-10.9C436.8,130.9,431.9,127.2,425.7,127.2z"
			/>
		<path clip-path="url(#SVGID_2_)" fill="#FFFFFF" d="M564.9,63.9l-0.8-12.6l-48.2,0v1.9c8.1,0.2,8.7,1.3,8.7,7.5l0,44.2
			c0,6.2-0.6,7.3-8.7,7.5v1.9H566l1.6-13.7h-1.9c-2.4,8.5-4.7,10-11.7,10h-15.2c-3.8,0-5.9-0.9-5.9-5.6V83.5h16.7
			c4.2,0,6.1-0.4,6.9,6.8h1.9v-17h-1.9c-0.5,5.9-2.2,6.4-5.9,6.4h-17.7V54.9h22.7c3.6,0,6.2,0.6,7.5,8.9H564.9 M227.8,51.3v1.9
			c8.1,0.2,8.7,1.3,8.7,7.5v40.4l-42.4-49.8H179v1.9c3.5,0.1,5.4,0.9,7.8,2.5v49.9c0,3.9-1.5,6.6-4.9,6.6c-2.7,0-4-3-5.4-6.2
			l-23.6-54.8h-7.2l-21.8,51.1c-3.9,8.5-4.6,9.9-6.7,9.9c-2.6,0-3.6-2.3-4-9.2L110,58.5c0-4,1.2-5.3,8.8-5.3v-1.9l-17.1,0
			l-22.3,51.2L57,51.3H39.2v1.9c7.6,0,8.8,1.3,8.8,5.3l-2.7,43.1c-0.5,9.2-1.4,10.9-8.8,10.9v1.9h21.1v-1.9
			c-4.6-0.2-8.4-1.3-8.1-6.5l2.7-45.6h0.2l23.8,54.1h2.3l23.1-54.1h0.2l2.9,45.4c0.4,5.4-4.3,6.7-9,6.7v1.9H135v-1.9h-0.4
			c-5.6,0-8.2-1-8.2-3.7c0-1.4,1.3-4.5,2-6.4l5.6-13.3h26.4l6.6,15.9c0.4,1,1.1,2.5,1.1,4.2c0,2.8-2.1,3.5-7.9,3.5H159v1.9h41.3
			v-1.9c-8.6,0-9-1.5-9-8.8V60.1l47.1,55h2.6V58.5c0-4,0.4-5.3,8-5.3v-1.9H227.8z M135.8,85l11.6-27.5L158.9,85H135.8z M381.6,112.4
			v1.9h-25.1v-1.9c7.7-0.2,8.6-1.2,8.7-6.5V83.5h-37.2v21.4h0c0,6.2,0.6,7.3,8.7,7.5v1.9h-25.1v-1.9c7.6,0,8-1.3,8-5.3h0V58.5l0,0
			c0-4-0.4-5.3-8-5.3v-1.9h25.1v1.9c-8.1,0.2-8.7,1.3-8.7,7.5l0,0l0,18.9h37.3l0-19.8c-0.1-5.4-1-6.4-8.7-6.6v-1.9h25.1v1.9
			c-7.6,0-8,1.3-8,5.3h0v48.7l0,0C373.6,111.1,374,112.4,381.6,112.4z M283.6,49.7c10.6,0,18.5,3.6,23.2,5.6l0.8,12.6h-1.9
			c-3.3-9.4-10.4-15.6-21.4-15.6c-16.9,0-25.4,13.1-25.4,30.1c0,18.4,11.1,30.8,26.5,30.8c4.6,0,16.2-3.1,23.1-15.4h1.9l-4.8,11.9
			c-6,2.9-10.9,6.2-22.9,6.2c-20.6,0-32.9-13.6-32.9-32.4C249.7,63.9,262.4,49.7,283.6,49.7z M627.4,102.6l-8.1-7.7
			c-4.8-4.8-7.8-6.9-11.6-9.9c8.4-2.4,13.6-8.9,13.6-16.5c0-10.4-8.5-18.2-27.3-18.2c-6.6,0-8.7,0.1-12.9,0.3
			c-4.2,0.2-10.4,0.6-12.9,0.6v1.9h2.2c5.9,0,7.7,1.8,7.7,8.2v42.6c0,6.8-2.1,8.5-8.2,8.5h-1.7v1.9h28.9v-1.9h-2.3
			c-5.7,0-8.2-1.5-8.2-7.7V87.9c1.6,0.1,3,0.2,5.2,0.2c2.7,0,4.3-0.1,6.7-0.2c7.8,4.5,13.8,11.3,17.5,14.7
			c9.3,8.8,11.5,12.6,29.3,11.7v-1.9C637.5,111.9,633.4,108.6,627.4,102.6z M592.9,85.7c-2.3,0-3.9,0.1-6.3-0.2V52.9
			c1.8-0.2,3.2-0.2,5.1-0.2c15.7,0,20,6.9,20,16.4C611.7,81.4,604.3,85.7,592.9,85.7z M627.4,102.6l-8.1-7.7
			c-4.8-4.8-7.8-6.9-11.6-9.9c8.4-2.4,13.6-8.9,13.6-16.5c0-10.4-8.5-18.2-27.3-18.2c-6.6,0-8.7,0.1-12.9,0.3
			c-4.2,0.2-10.4,0.6-12.9,0.6v1.9h2.2c5.9,0,7.7,1.8,7.7,8.2v42.6c0,6.8-2.1,8.5-8.2,8.5h-1.7v1.9h28.9v-1.9h-2.3
			c-5.7,0-8.2-1.5-8.2-7.7V87.9c1.6,0.1,3,0.2,5.2,0.2c2.7,0,4.3-0.1,6.7-0.2c7.8,4.5,13.8,11.3,17.5,14.7
			c9.3,8.8,11.5,12.6,29.3,11.7v-1.9C637.5,111.9,633.4,108.6,627.4,102.6z M592.9,85.7c-2.3,0-3.9,0.1-6.3-0.2V52.9
			c1.8-0.2,3.2-0.2,5.1-0.2c15.7,0,20,6.9,20,16.4C611.7,81.4,604.3,85.7,592.9,85.7z"/>
		<polyline clip-path="url(#SVGID_2_)" fill="#939292" points="15.5,235.2 15.5,269.2 11.2,269.2 11.2,235.2 0,235.2 0,231.6 
			26.8,231.6 26.8,235.2 15.5,235.2 		"/>
		<path clip-path="url(#SVGID_2_)" fill="#939292" d="M49.6,269.2v-17.9c0-4.3-1.2-6.8-5.2-6.8c-5,0-8.5,4.9-8.5,11.5v13.3h-4.2
			v-40.6H36v13.5c0,1.8-0.1,4.1-0.4,5.5l0.1,0.1c1.6-4.1,5.1-6.7,9.9-6.7c6.3,0,8.3,4,8.3,8.9v19.3H49.6"/>
		<path clip-path="url(#SVGID_2_)" fill="#939292" d="M72.1,244.2c-3.9,0-6.7,2.8-7.4,7.2h14C78.9,247.1,76.3,244.2,72.1,244.2
			 M83,254.5H64.5c-0.3,8.3,3,11.7,9.2,11.7c2.9,0,6-0.7,8-1.8l0.4,3.6c-2.6,1.1-5.7,1.7-9.1,1.7c-8.4,0-12.8-4.5-12.8-14.2
			c0-8.3,4.5-14.5,12.1-14.5c7.6,0,10.8,5.3,10.8,11.4C83.1,253,83.1,253.7,83,254.5z"/>
		<path clip-path="url(#SVGID_2_)" fill="#939292" d="M114.7,269.7c-11.6,0-13.9-6.5-13.9-13v-25.1h4.3v24.7c0,5.4,1.8,9.9,9.9,9.9
			c6.9,0,10.3-2.9,10.3-10.9v-23.7h4.2V255C129.5,264.6,124.4,269.7,114.7,269.7"/>
		<path clip-path="url(#SVGID_2_)" fill="#939292" d="M155.5,269.2v-17.9c0-4.3-1.2-6.8-5.2-6.8c-5,0-8.5,4.9-8.5,11.5v13.3h-4.2
			v-27.7h4.1c0,1.8-0.2,4.5-0.4,6.1l0.1,0.1c1.6-4,5.1-6.7,9.9-6.7c6.3,0,8.3,4,8.3,8.9v19.3H155.5"/>
		<path clip-path="url(#SVGID_2_)" fill="#939292" d="M167.6,269.2v-27.7h4.2v27.7H167.6 M169.7,236.5c-1.6,0-2.9-1.2-2.9-2.8
			c0-1.6,1.3-2.8,2.9-2.8c1.6,0,2.9,1.3,2.9,2.8C172.6,235.3,171.3,236.5,169.7,236.5z"/>
		<path clip-path="url(#SVGID_2_)" fill="#939292" d="M191.1,269.2h-4.3l-10.5-27.7h4.7l6.5,18c0.6,1.7,1.1,3.3,1.6,4.9h0.1
			c0.4-1.5,0.9-3.2,1.5-4.7l6.6-18.3h4.6L191.1,269.2"/>
		<path clip-path="url(#SVGID_2_)" fill="#939292" d="M214.7,244.2c-3.9,0-6.7,2.8-7.3,7.2h14C221.5,247.1,219,244.2,214.7,244.2
			 M225.6,254.5h-18.5c-0.3,8.3,3,11.7,9.2,11.7c2.9,0,6-0.7,8-1.8l0.4,3.6c-2.6,1.1-5.7,1.7-9.1,1.7c-8.4,0-12.8-4.5-12.8-14.2
			c0-8.3,4.5-14.5,12.1-14.5c7.6,0,10.8,5.3,10.8,11.4C225.8,253,225.8,253.7,225.6,254.5z"/>
		<path clip-path="url(#SVGID_2_)" fill="#939292" d="M245.6,245.2c-6.1-1-9,3.7-9,13v11.1h-4.2v-27.7h4.1c0,1.8-0.2,4.6-0.6,7
			l0.1,0.1c1.1-4.1,4-8.2,9.8-7.5L245.6,245.2"/>
		<path clip-path="url(#SVGID_2_)" fill="#939292" d="M255.2,269.7c-2.1,0-4.2-0.2-5.8-0.6l0.1-3.8c1.8,0.5,4,0.9,6.2,0.9
			c4,0,6.8-1.8,6.8-4.7c0-6.7-13.5-2.5-13.5-12.4c0-4.6,3.8-8.1,10.8-8.1c1.7,0,3.7,0.3,5.4,0.6l-0.1,3.6c-1.8-0.6-3.8-0.9-5.7-0.9
			c-4.1,0-6.1,1.7-6.1,4.4c0,6.6,13.5,2.8,13.5,12.2C266.8,265.9,262.4,269.7,255.2,269.7"/>
		<path clip-path="url(#SVGID_2_)" fill="#939292" d="M277.4,269.2v-27.7h-4.2v27.7H277.4 M278.2,233.7c0-1.6-1.3-2.8-2.9-2.8
			c-1.6,0-2.9,1.3-2.9,2.8c0,1.6,1.3,2.8,2.9,2.8C276.9,236.5,278.2,235.3,278.2,233.7z"/>
		<path clip-path="url(#SVGID_2_)" fill="#939292" d="M294.6,269.7c-5.6,0-7.2-2.4-7.2-8.2v-16.6h-6v-3.3h6v-9.2l4.2-1.2v10.4h8.1
			v3.3h-8.1v14.9c0,5,0.9,6.2,4.2,6.2c1.4,0,2.8-0.2,4-0.5v3.6C298.3,269.4,296.4,269.7,294.6,269.7"/>
		<path clip-path="url(#SVGID_2_)" fill="#939292" d="M314.9,272.1c-3.2,8.5-5.7,11.4-11.7,11.4c-1,0-2.4-0.1-3.5-0.3l0.4-3.8
			c1.1,0.4,2.2,0.6,3.5,0.6c3.3,0,5-1.6,7.2-7.4l1.3-3.3l-10.6-27.7h4.8l5.8,15.9c0.9,2.5,1.5,4.5,2.1,6.6h0.1
			c0.5-1.8,1.7-5.2,2.8-8.4l5-14h4.6L314.9,272.1"/>
		<path clip-path="url(#SVGID_2_)" fill="#939292" d="M352.1,244.5c-4.3,0-8.5,3.3-8.5,10.7c0,7.1,3.1,11,8.5,11
			c4.3,0,8.3-3.3,8.3-11C360.4,248.5,357.6,244.5,352.1,244.5 M351.5,269.7c-7.4,0-12.2-4.5-12.2-14.2c0-7.9,4.9-14.5,13.2-14.5
			c6.7,0,12.2,3.7,12.2,13.9C364.7,263.1,359.7,269.7,351.5,269.7z"/>
		<path clip-path="url(#SVGID_2_)" fill="#939292" d="M387.2,232.3c-1.4-0.4-2.9-0.6-4.3-0.6c-4.2,0-6.1,2.4-6.1,7.8v2.1h8.2v3.3
			h-8.2v24.4h-4.2v-24.4h-6v-3.3h6v-1.9c0-7.7,3.8-11.3,10.5-11.3c1.6,0,3.1,0.2,4.6,0.5L387.2,232.3"/>
		<path clip-path="url(#SVGID_2_)" fill="#939292" d="M437.5,269.2l-3.3-23.2c-0.7-4.6-0.9-7.3-1.2-9.4h-0.1
			c-0.4,1.6-0.9,3.7-1.8,6.3l-8.8,26.3h-4.8l-8.4-24.6c-0.9-2.7-1.9-5.7-2.4-8h-0.1c-0.2,3-0.6,6-1,9.9l-2.7,22.7h-4.4l5.3-37.6h5.4
			l8.6,25.4c0.9,2.7,1.7,5.2,2.1,7.3h0.1c0.6-2.6,1.1-4.2,2.1-6.9l8.8-25.8h5.6l5.6,37.6H437.5"/>
		<path clip-path="url(#SVGID_2_)" fill="#939292" d="M463.5,256.2c-10.4,0-12.6,3.3-12.6,6c0,2.5,1.8,4.1,4.5,4.1
			c4.9,0,8.1-4.8,8.1-9.6V256.2 M463.8,269.2c0-2.1,0-4.2,0.3-5.8h-0.1c-1.3,3.5-4.9,6.3-9.6,6.3c-4.4,0-7.6-2.3-7.6-6.7
			c0-5.8,6-9.8,16.8-9.8v-2.3c0-4.2-1.5-6.5-6.3-6.5c-2.7,0-6,0.8-8.5,2.4l-0.4-3.7c2.6-1.2,5.8-2.1,9.6-2.1c7.6,0,9.8,3.8,9.8,9
			v10.9c0,2.7,0,5.8,0.1,8.3H463.8z"/>
		<path clip-path="url(#SVGID_2_)" fill="#939292" d="M493.6,269.2v-17.9c0-4.3-1.2-6.8-5.2-6.8c-5,0-8.5,4.9-8.5,11.5v13.3h-4.2
			v-27.7h4.1c0,1.8-0.2,4.5-0.4,6.1l0.1,0.1c1.6-4,5.1-6.7,9.9-6.7c6.3,0,8.3,4,8.3,8.9v19.3H493.6"/>
		<path clip-path="url(#SVGID_2_)" fill="#939292" d="M516.1,269.5c-6.2,0-12-2.7-12-13.2c0-9.1,4.6-15.2,13.6-15.2
			c2.3,0,4.6,0.3,6.5,0.9l-0.4,3.7c-1.8-0.7-4-1.2-6.4-1.2c-6,0-8.9,4.4-8.9,11.1c0,5.7,1.8,10.4,8.5,10.4c2.4,0,5.1-0.6,7-1.6
			l0.4,3.6C522.5,268.8,519.5,269.5,516.1,269.5"/>
		<path clip-path="url(#SVGID_2_)" fill="#939292" d="M547.9,269.2v-17.9c0-4.3-1.2-6.8-5.2-6.8c-5,0-8.5,4.9-8.5,11.5v13.3h-4.2
			v-40.6h4.2v13.5c0,1.8-0.1,4.1-0.4,5.5l0.1,0.1c1.6-4.1,5.1-6.7,9.9-6.7c6.3,0,8.3,4,8.3,8.9v19.3H547.9"/>
		<path clip-path="url(#SVGID_2_)" fill="#939292" d="M570.4,244.2c-3.9,0-6.7,2.8-7.3,7.2h14C577.2,247.1,574.7,244.2,570.4,244.2
			 M581.4,254.5h-18.5c-0.3,8.3,3,11.7,9.2,11.7c2.9,0,6-0.7,8-1.8l0.4,3.6c-2.6,1.1-5.7,1.7-9.1,1.7c-8.4,0-12.8-4.5-12.8-14.2
			c0-8.3,4.5-14.5,12.1-14.5c7.6,0,10.8,5.3,10.8,11.4C581.5,253,581.5,253.7,581.4,254.5z"/>
		<path clip-path="url(#SVGID_2_)" fill="#939292" d="M592.3,269.7c-2.1,0-4.2-0.2-5.8-0.6l0.1-3.8c1.8,0.5,4,0.9,6.2,0.9
			c4,0,6.8-1.8,6.8-4.7c0-6.7-13.5-2.5-13.5-12.4c0-4.6,3.8-8.1,10.8-8.1c1.7,0,3.7,0.3,5.4,0.6l-0.1,3.6c-1.8-0.6-3.8-0.9-5.7-0.9
			c-4.1,0-6.1,1.7-6.1,4.4c0,6.6,13.5,2.8,13.5,12.2C603.9,265.9,599.6,269.7,592.3,269.7"/>
		<path clip-path="url(#SVGID_2_)" fill="#939292" d="M619.1,269.7c-5.6,0-7.2-2.4-7.2-8.2v-16.6h-6v-3.3h6v-9.2l4.2-1.2v10.4h8.1
			v3.3h-8.1v14.9c0,5,0.9,6.2,4.2,6.2c1.4,0,2.8-0.2,4-0.5v3.6C622.8,269.4,620.8,269.7,619.1,269.7"/>
		<path clip-path="url(#SVGID_2_)" fill="#939292" d="M639.6,244.2c-3.9,0-6.7,2.8-7.4,7.2h14C646.4,247.1,643.9,244.2,639.6,244.2
			 M650.6,254.5h-18.5c-0.3,8.3,3,11.7,9.2,11.7c2.9,0,6-0.7,8-1.8l0.4,3.6c-2.6,1.1-5.7,1.7-9.1,1.7c-8.3,0-12.8-4.5-12.8-14.2
			c0-8.3,4.5-14.5,12.1-14.5c7.6,0,10.8,5.3,10.8,11.4C650.7,253,650.7,253.7,650.6,254.5z"/>
		<path clip-path="url(#SVGID_2_)" fill="#939292" d="M670.3,245.2c-6.1-1-9,3.7-9,13v11.1h-4.2v-27.7h4.1c0,1.8-0.2,4.6-0.6,7
			l0.1,0.1c1.1-4.1,4-8.2,9.8-7.5L670.3,245.2"/>
	</g>
</g>
</svg>
