<svg xmlns="http://www.w3.org/2000/svg" width="100" height="100" viewBox="0 0 100 100"><circle cx="50" cy="16.9" r="16.9"/><path d="M50 52.3c7.3 0 13.2-6 13.2-13.2H36.8c0 7.2 5.9 13.2 13.2 13.2z"/><path d="M69.7 39.3C69.6 49 62.5 57 53.3 58.6v15.9c0 8.2-6.2 15.4-14.4 15.8-8.5.5-15.6-6-16.1-14.3-2.2-1.3-3.6-3.9-3.1-6.8.5-2.6 2.6-4.7 5.2-5.1 4.1-.7 7.6 2.4 7.6 6.3 0 2.3-1.3 4.4-3.1 5.5.5 4.6 4.6 8.2 9.4 7.8 4.6-.4 7.9-4.5 7.9-9.1v-16C37.5 57 30.4 49 30.3 39.3c-9.1 1.2-16.1 9-16.1 18.4v34.1c0 4.5 3.7 8.2 8.2 8.2h55.4c4.5 0 8.2-3.7 8.2-8.2V57.7c-.1-9.4-7.2-17.2-16.3-18.4z"/></svg>